<svg width="256" height="256" viewBox="0 0 256 256" fill="none" xmlns="http://www.w3.org/2000/svg">
<metadata>
  <rdf:RDF xmlns:rdf="http://www.w3.org/1999/02/22-rdf-syntax-ns#"
            xmlns:dc="http://purl.org/dc/elements/1.1/">
    <rdf:Description>
      <dc:title>swrpg-online.com art asset</dc:title>
      <dc:creator>Joshua Ziggas</dc:creator>
      <dc:rights>CC BY-NC-SA 4.0 - https://github.com/swrpg-online/art</dc:rights>
    </rdf:Description>
  </rdf:RDF>
</metadata>
<desc>
  wrpg-online.com SWRPG Dice Asset
  Created by: Joshua Ziggas
  Source: https://github.com/swrpg-online/art
  License: CC BY-NC-SA 4.0
</desc><mask id="mask0_112_17148" style="mask-type:alpha" maskUnits="userSpaceOnUse" x="10" y="0" width="237" height="256">
<path d="M224.91 60.2803L150.531 7.28962C136.792 -2.49863 118.338 -2.42293 104.68 7.47773L31.8161 60.296C23.7755 66.1246 18.6774 75.1707 17.8556 85.0677L10.4831 173.859C9.14473 189.977 17.8216 205.268 32.3449 212.386L112.644 251.739C122.046 256.346 133.044 256.376 142.471 251.82L224.23 212.3C238.838 205.239 247.602 189.923 246.289 173.75L239.102 85.276C238.289 75.2589 233.095 66.1118 224.91 60.2803Z" fill="#CFCFCF"/>
</mask>
<g mask="url(#mask0_112_17148)">
<rect width="256" height="256" fill="#6792BF"/>
<g style="mix-blend-mode:multiply" filter="url(#filter0_f_112_17148)">
<mask id="mask1_112_17148" style="mask-type:alpha" maskUnits="userSpaceOnUse" x="1" y="-10" width="255" height="275">
<path fill-rule="evenodd" clip-rule="evenodd" d="M152.285 -1.73797L232.216 55.1624C241.012 61.4242 246.594 71.2462 247.468 82.0024L255.191 177.005C256.603 194.37 247.184 210.817 231.485 218.399L143.624 260.834C133.493 265.727 121.673 265.695 111.569 260.747L25.2761 218.49C9.66859 210.848 0.343989 194.428 1.78223 177.121L9.70515 81.7786C10.5883 71.1515 16.067 61.4379 24.7079 55.1793L103.011 -1.53598C117.689 -12.1671 137.521 -12.2484 152.285 -1.73797ZM138.618 210.456C134.336 217.847 123.662 217.847 119.38 210.456L57.5134 103.688C53.2194 96.2773 58.5672 86.9996 67.1327 86.9996H190.865C199.431 86.9996 204.778 96.2772 200.484 103.688L138.618 210.456Z" fill="black"/>
</mask>
<g mask="url(#mask1_112_17148)">
<path d="M224.91 60.2803L150.531 7.28962C136.792 -2.49863 118.338 -2.42293 104.68 7.47773L31.8161 60.296C23.7755 66.1246 18.6774 75.1707 17.8556 85.0677L10.4831 173.859C9.14473 189.977 17.8216 205.268 32.3449 212.386L112.644 251.739C122.046 256.346 133.044 256.376 142.471 251.82L224.23 212.3C238.838 205.239 247.602 189.923 246.289 173.75L239.102 85.276C238.289 75.2589 233.095 66.1118 224.91 60.2803Z" fill="#CFCFCF"/>
<path d="M204.698 84H53.2981C43.2059 84 38.195 73.0586 45.3901 66.7329L110.148 9.80008C120.431 0.759757 136.914 0.729605 147.238 9.73224L212.573 66.704C219.813 73.0173 214.813 84 204.698 84Z" fill="#E0E0E0"/>
<path d="M51.0658 91.529L123.601 217.163C128.436 225.538 121.572 235.045 112.768 232.167L33.5336 206.263C20.952 202.15 13.0296 188.487 15.7066 175.519L32.6472 93.4499C34.5244 84.3556 46.2199 83.1358 51.0658 91.529Z" fill="#D8D8D8"/>
<path d="M206.994 88.7409L131.609 219.312C126.584 228.015 133.429 237.729 142.411 234.642L223.254 206.851C236.091 202.438 244.324 188.238 241.779 174.897L225.679 90.4733C223.895 81.1179 212.03 80.0179 206.994 88.7409Z" fill="#C1C1C1"/>
<path d="M128.484 230.499V263.061L104.345 256.907L21.7523 217.386L12.9961 206.5L15.5993 194.431C18.8336 198.454 26.6274 206.831 31.9285 208.157C38.5548 209.813 109.551 221.033 118.071 223.163C124.886 224.867 127.852 228.764 128.484 230.499Z" fill="#8D8D8D"/>
<path d="M128.483 230.999V263.061L152.622 256.907L235.214 217.386L243.971 206.5L241.368 194.431C238.133 198.454 230.339 206.831 225.038 208.157C218.412 209.813 147.416 221.533 138.896 223.663C132.08 225.367 129.114 229.264 128.483 230.999Z" fill="#737373"/>
<path d="M212.647 84.3141L243.297 64.418L250.038 88.3993L257.107 179.687L252.058 192.713L240.304 196.494C242.171 191.681 245.529 180.743 244.026 175.489C242.148 168.922 213.915 105.443 211.5 97C209.568 90.2455 211.459 85.7284 212.647 84.3141Z" fill="#828282"/>
<path d="M211.499 83.4999L243.296 64.4179L225.898 46.5896L150.375 -5.17687L136.57 -7.31692L127.419 0.972212C132.52 1.76162 143.672 4.32248 147.47 8.2507C152.218 13.161 193.835 71.8371 199.939 78.1503C204.823 83.2008 209.681 83.8211 211.499 83.4999Z" fill="#9E9E9E"/>
<path d="M44.8524 83.8141L13.9433 64.418L7.2026 88.3993L0.132831 179.687L5.18237 192.713L16.9364 196.494C15.0694 191.681 11.7111 180.743 13.2139 175.489C15.0924 168.922 43.5841 104.943 45.9994 96.5C47.9316 89.7455 46.0398 85.2284 44.8524 83.8141Z" fill="#B1B1B1"/>
<path d="M46.4385 83.8495L13.9422 64.4179L31.3402 46.5896L106.863 -5.17687L120.669 -7.31692L129.819 0.972212C124.718 1.76162 113.566 4.32248 109.768 8.2507C105.02 13.161 64.1026 72.1867 57.9983 78.4999C53.1148 83.5504 48.257 84.1707 46.4385 83.8495Z" fill="#B6B6B6"/>
</g>
</g>
</g>
<g filter="url(#filter1_f_112_17148)">
<path d="M72.7423 89H122C110.497 90.3425 85.9103 93.2575 79.5869 94.1781C71.6827 95.3288 66.0919 98.2055 68.5981 106.452C70.6031 113.049 83.9568 144.233 90.383 159L61.6354 107.833C56.8952 99.3957 63.0262 89 72.7423 89Z" fill="url(#paint0_radial_112_17148)"/>
</g>
<g clip-path="url(#clip0_112_17148)">
<path d="M123.034 156.29C121.267 156.29 119.834 154.857 119.834 153.09V108.405C119.834 106.638 121.267 105.205 123.034 105.205H164.8C166.567 105.205 168 106.638 168 108.405V153.09C168 154.857 166.567 156.29 164.8 156.29H123.034ZM133.841 116.882C132.957 116.882 132.241 117.598 132.241 118.482V143.013C132.241 143.897 132.957 144.613 133.841 144.613H153.994C154.877 144.613 155.594 143.897 155.594 143.013V118.482C155.594 117.598 154.877 116.882 153.994 116.882H133.841ZM138.079 126.509C138.079 125.626 138.795 124.909 139.679 124.909H148.156C149.039 124.909 149.756 125.626 149.756 126.509V134.986C149.756 135.869 149.039 136.586 148.156 136.586H139.679C138.795 136.586 138.079 135.869 138.079 134.986V126.509Z" fill="white"/>
<path d="M112.966 144.613C114.733 144.613 116.166 146.046 116.166 147.813V153.09C116.166 154.857 114.733 156.29 112.966 156.29H91.2C89.4327 156.29 88 154.857 88 153.09V147.813C88 146.046 89.4327 144.613 91.2 144.613H94.2796C95.1633 144.613 95.8796 143.897 95.8796 143.013V118.482C95.8796 117.598 95.1633 116.882 94.2796 116.882H91.2C89.4327 116.882 88 115.449 88 113.682V108.405C88 106.638 89.4327 105.205 91.2 105.205H105.086C106.853 105.205 108.286 106.638 108.286 108.405V143.013C108.286 143.897 109.002 144.613 109.886 144.613H112.966Z" fill="white"/>
</g>
<defs>
<filter id="filter0_f_112_17148" x="-8.36328" y="-17.3174" width="273.693" height="290.378" filterUnits="userSpaceOnUse" color-interpolation-filters="sRGB">
<feFlood flood-opacity="0" result="BackgroundImageFix"/>
<feBlend mode="normal" in="SourceGraphic" in2="BackgroundImageFix" result="shape"/>
<feGaussianBlur stdDeviation="5" result="effect1_foregroundBlur_112_17148"/>
</filter>
<filter id="filter1_f_112_17148" x="55" y="84" width="72" height="80" filterUnits="userSpaceOnUse" color-interpolation-filters="sRGB">
<feFlood flood-opacity="0" result="BackgroundImageFix"/>
<feBlend mode="normal" in="SourceGraphic" in2="BackgroundImageFix" result="shape"/>
<feGaussianBlur stdDeviation="2.5" result="effect1_foregroundBlur_112_17148"/>
</filter>
<radialGradient id="paint0_radial_112_17148" cx="0" cy="0" r="1" gradientUnits="userSpaceOnUse" gradientTransform="translate(68.0198 95.7123) rotate(44.0247) scale(47.1885 41.5706)">
<stop stop-color="white"/>
<stop offset="1" stop-color="white" stop-opacity="0"/>
</radialGradient>
<clipPath id="clip0_112_17148">
<rect width="80" height="80" fill="white" transform="translate(88 89)"/>
</clipPath>
</defs>
</svg>
