<svg width="256" height="256" viewBox="0 0 256 256" fill="none" xmlns="http://www.w3.org/2000/svg">
<metadata>
  <rdf:RDF xmlns:rdf="http://www.w3.org/1999/02/22-rdf-syntax-ns#"
            xmlns:dc="http://purl.org/dc/elements/1.1/">
    <rdf:Description>
      <dc:title>swrpg-online.com art asset</dc:title>
      <dc:creator>Joshua Ziggas</dc:creator>
      <dc:rights>CC BY-NC-SA 4.0 - https://github.com/swrpg-online/art</dc:rights>
    </rdf:Description>
  </rdf:RDF>
</metadata>
<desc>
  wrpg-online.com SWRPG Dice Asset
  Created by: Joshua Ziggas
  Source: https://github.com/swrpg-online/art
  License: CC BY-NC-SA 4.0
</desc><mask id="mask0_112_17079" style="mask-type:alpha" maskUnits="userSpaceOnUse" x="2" y="17" width="252" height="223">
<path d="M111.095 26.5C118.408 13.8333 136.691 13.8333 144.004 26.5L250.525 211C257.838 223.667 248.697 239.5 234.071 239.5H21.0283C6.40214 239.5 -2.73924 223.667 4.57386 211L111.095 26.5Z" fill="#D9D9D9"/>
</mask>
<g mask="url(#mask0_112_17079)">
<rect width="256" height="256" fill="#6792BF"/>
<g style="mix-blend-mode:multiply" filter="url(#filter0_f_112_17079)">
<path d="M279.337 102.182C279.369 87.9555 263.989 61.3151 251.652 54.2297L126.366 -17.7262C114.029 -24.8117 113.988 -7.0282 126.293 14.2841L251.252 230.719C263.556 252.031 278.977 260.888 279.01 246.661L279.337 102.182Z" fill="black" fill-opacity="0.25"/>
<path d="M100.333 317.894C112.425 324.88 142.655 324.88 154.747 317.894L277.547 246.95C289.639 239.964 274.524 231.232 250.339 231.232L4.74033 231.232C-19.4438 231.232 -34.5589 239.964 -22.4668 246.95L100.333 317.894Z" fill="black" fill-opacity="0.5"/>
<path d="M-26.4366 101.791C-26.4405 87.3473 -10.8069 60.269 1.704 53.0504L128.757 -20.257C141.268 -27.4756 141.273 -9.42054 128.766 12.2421L1.75356 232.235C-10.7533 253.897 -26.392 262.921 -26.396 248.476L-26.4366 101.791Z" fill="black" fill-opacity="0.35"/>
</g>
</g>
<g clip-path="url(#clip0_112_17079)">
<path d="M193.192 143.411C193.854 144.559 193.461 146.027 192.313 146.689L188.389 148.955C187.241 149.618 185.773 149.224 185.111 148.077L172.622 126.446C172.291 125.872 171.557 125.675 170.983 126.007L153.869 135.888C153.295 136.219 153.098 136.953 153.43 137.527L165.918 159.157C166.581 160.305 166.188 161.773 165.04 162.436L161.116 164.701C159.968 165.364 158.5 164.971 157.837 163.823L140.992 134.645C140.329 133.498 140.722 132.03 141.87 131.367L173.068 113.355C174.216 112.692 175.683 113.086 176.346 114.233L193.192 143.411ZM179.555 151.284C180.218 152.432 179.824 153.9 178.676 154.563L174.752 156.828C173.604 157.491 172.137 157.098 171.474 155.95L161.918 139.399C161.256 138.251 161.649 136.783 162.797 136.12L166.721 133.855C167.869 133.192 169.337 133.585 169.999 134.733L179.555 151.284Z" fill="white"/>
</g>
<g clip-path="url(#clip1_112_17079)">
<path d="M98.4466 162.991C97.7838 164.139 96.316 164.532 95.1681 163.87L77.6072 153.731C76.4593 153.068 76.066 151.6 76.7287 150.452L93.5743 121.275C94.2371 120.127 95.7049 119.734 96.8528 120.397L100.777 122.662C101.925 123.325 102.318 124.793 101.655 125.941L89.167 147.571C88.8356 148.145 89.0323 148.879 89.6062 149.21L93.0835 151.218C93.6575 151.549 94.3914 151.353 94.7227 150.779L107.211 129.148C107.874 128 109.342 127.607 110.49 128.27L114.414 130.535C115.562 131.198 115.955 132.666 115.292 133.814L98.4466 162.991ZM87.1402 114.789C88.2881 115.452 88.6814 116.92 88.0186 118.067L71.173 147.245C70.5103 148.393 69.0425 148.786 67.8946 148.123L63.9704 145.858C62.8225 145.195 62.4292 143.727 63.092 142.579L79.9376 113.402C80.6003 112.254 82.0681 111.861 83.216 112.523L87.1402 114.789Z" fill="white"/>
</g>
<path d="M145.63 213.34C146.956 213.34 148.03 214.398 148.03 215.703V220.166C148.03 221.471 146.956 222.53 145.63 222.53H111.939C110.614 222.53 109.539 221.471 109.539 220.166V215.703C109.539 214.398 110.614 213.34 111.939 213.34H123.827V191.514H111.939C110.614 191.514 109.539 190.456 109.539 189.15V184.688C109.539 183.382 110.614 182.324 111.939 182.324H131.342C132.667 182.324 133.742 183.382 133.742 184.688V213.34H145.63Z" fill="white"/>
<defs>
<filter id="filter0_f_112_17079" x="-46.7227" y="-41.873" width="348.525" height="385.006" filterUnits="userSpaceOnUse" color-interpolation-filters="sRGB">
<feFlood flood-opacity="0" result="BackgroundImageFix"/>
<feBlend mode="normal" in="SourceGraphic" in2="BackgroundImageFix" result="shape"/>
<feGaussianBlur stdDeviation="10" result="effect1_foregroundBlur_112_17079"/>
</filter>
<clipPath id="clip0_112_17079">
<rect width="60" height="60" fill="white" transform="translate(156.107 179.762) rotate(-120)"/>
</clipPath>
<clipPath id="clip1_112_17079">
<rect width="60" height="60" fill="white" transform="translate(129.961 127.343) rotate(120)"/>
</clipPath>
</defs>
</svg>
