<svg width="256" height="256" viewBox="0 0 256 256" fill="none" xmlns="http://www.w3.org/2000/svg">
<metadata>
  <rdf:RDF xmlns:rdf="http://www.w3.org/1999/02/22-rdf-syntax-ns#"
            xmlns:dc="http://purl.org/dc/elements/1.1/">
    <rdf:Description>
      <dc:title>swrpg-online.com art asset</dc:title>
      <dc:creator>Joshua Ziggas</dc:creator>
      <dc:rights>CC BY-NC-SA 4.0 - https://github.com/swrpg-online/art</dc:rights>
    </rdf:Description>
  </rdf:RDF>
</metadata>
<desc>
  wrpg-online.com SWRPG Dice Asset
  Created by: Joshua Ziggas
  Source: https://github.com/swrpg-online/art
  License: CC BY-NC-SA 4.0
</desc><mask id="mask0_112_19920" style="mask-type:alpha" maskUnits="userSpaceOnUse" x="2" y="17" width="252" height="223">
<path d="M111.095 26.5C118.408 13.8333 136.691 13.8333 144.004 26.5L250.525 211C257.838 223.667 248.697 239.5 234.071 239.5H21.0283C6.40214 239.5 -2.73924 223.667 4.57386 211L111.095 26.5Z" fill="#D9D9D9"/>
</mask>
<g mask="url(#mask0_112_19920)">
<rect width="256" height="256" fill="#38D133"/>
<g style="mix-blend-mode:multiply" filter="url(#filter0_f_112_19920)">
<path d="M279.337 102.182C279.369 87.9555 263.989 61.3151 251.652 54.2297L126.366 -17.7262C114.029 -24.8117 113.988 -7.0282 126.293 14.2841L251.252 230.719C263.556 252.031 278.977 260.888 279.01 246.661L279.337 102.182Z" fill="black" fill-opacity="0.25"/>
<path d="M100.333 317.894C112.425 324.88 142.655 324.88 154.747 317.894L277.547 246.95C289.639 239.964 274.524 231.232 250.339 231.232L4.74033 231.232C-19.4438 231.232 -34.5589 239.964 -22.4668 246.95L100.333 317.894Z" fill="black" fill-opacity="0.5"/>
<path d="M-26.4366 101.791C-26.4405 87.3473 -10.8069 60.269 1.704 53.0504L128.757 -20.257C141.268 -27.4756 141.273 -9.42054 128.766 12.2421L1.75356 232.235C-10.7533 253.897 -26.392 262.921 -26.396 248.476L-26.4366 101.791Z" fill="black" fill-opacity="0.35"/>
</g>
</g>
<path d="M158.597 120.989C161.115 120.989 163.157 123.031 163.157 125.549V164.077C163.157 166.595 161.115 168.637 158.597 168.637H94.5834C92.065 168.637 90.0234 166.595 90.0234 164.077V155.467C90.0234 152.949 92.065 150.907 94.5834 150.907H142.039C143.299 150.907 144.319 149.887 144.319 148.627V140.999C144.319 139.739 143.299 138.719 142.039 138.719H94.5834C92.065 138.719 90.0234 136.677 90.0234 134.159V125.549C90.0234 123.031 92.065 120.989 94.5834 120.989H158.597ZM90.0234 185.386C90.0234 182.867 92.065 180.826 94.5834 180.826H158.597C161.115 180.826 163.157 182.867 163.157 185.386V193.995C163.157 196.513 161.115 198.555 158.597 198.555H94.5834C92.065 198.555 90.0234 196.513 90.0234 193.995V185.386Z" fill="black"/>
<defs>
<filter id="filter0_f_112_19920" x="-46.7227" y="-41.873" width="348.523" height="385.006" filterUnits="userSpaceOnUse" color-interpolation-filters="sRGB">
<feFlood flood-opacity="0" result="BackgroundImageFix"/>
<feBlend mode="normal" in="SourceGraphic" in2="BackgroundImageFix" result="shape"/>
<feGaussianBlur stdDeviation="10" result="effect1_foregroundBlur_112_19920"/>
</filter>
</defs>
</svg>
