<svg width="256" height="256" viewBox="0 0 256 256" fill="none" xmlns="http://www.w3.org/2000/svg">
<metadata>
  <rdf:RDF xmlns:rdf="http://www.w3.org/1999/02/22-rdf-syntax-ns#"
            xmlns:dc="http://purl.org/dc/elements/1.1/">
    <rdf:Description>
      <dc:title>swrpg-online.com art asset</dc:title>
      <dc:creator>Joshua Ziggas</dc:creator>
      <dc:rights>CC BY-NC-SA 4.0 - https://github.com/swrpg-online/art</dc:rights>
    </rdf:Description>
  </rdf:RDF>
</metadata>
<desc>
  wrpg-online.com SWRPG Dice Asset
  Created by: Joshua Ziggas
  Source: https://github.com/swrpg-online/art
  License: CC BY-NC-SA 4.0
</desc><mask id="mask0_112_19917" style="mask-type:alpha" maskUnits="userSpaceOnUse" x="2" y="17" width="252" height="223">
<path d="M111.095 26.5C118.408 13.8333 136.691 13.8333 144.004 26.5L250.525 211C257.838 223.667 248.697 239.5 234.071 239.5H21.0283C6.40214 239.5 -2.73924 223.667 4.57386 211L111.095 26.5Z" fill="#D9D9D9"/>
</mask>
<g mask="url(#mask0_112_19917)">
<rect width="256" height="256" fill="#38D133"/>
<g style="mix-blend-mode:multiply" filter="url(#filter0_f_112_19917)">
<path d="M279.337 102.182C279.369 87.9555 263.989 61.3151 251.652 54.2297L126.366 -17.7262C114.029 -24.8117 113.988 -7.0282 126.293 14.2841L251.252 230.719C263.556 252.031 278.977 260.888 279.01 246.661L279.337 102.182Z" fill="black" fill-opacity="0.25"/>
<path d="M100.333 317.894C112.425 324.88 142.655 324.88 154.747 317.894L277.547 246.95C289.639 239.964 274.524 231.232 250.339 231.232L4.74033 231.232C-19.4438 231.232 -34.5589 239.964 -22.4668 246.95L100.333 317.894Z" fill="black" fill-opacity="0.5"/>
<path d="M-26.4366 101.791C-26.4405 87.3473 -10.8069 60.269 1.704 53.0504L128.757 -20.257C141.268 -27.4756 141.273 -9.42054 128.766 12.2421L1.75356 232.235C-10.7533 253.897 -26.392 262.921 -26.396 248.476L-26.4366 101.791Z" fill="black" fill-opacity="0.35"/>
</g>
</g>
<g clip-path="url(#clip0_112_19917)">
<path d="M101.265 197.212C102.038 198.552 101.579 200.264 100.24 201.037L95.662 203.68C94.3228 204.454 92.6103 203.995 91.8371 202.656L77.2673 177.42C76.8807 176.75 76.0245 176.521 75.3549 176.907L55.3885 188.435C54.7189 188.822 54.4895 189.678 54.8761 190.347L69.4459 215.583C70.2191 216.922 69.7602 218.635 68.421 219.408L63.8428 222.051C62.5036 222.824 60.7912 222.366 60.018 221.026L40.3648 186.986C39.5916 185.647 40.0504 183.934 41.3896 183.161L77.787 162.147C79.1262 161.374 80.8386 161.833 81.6118 163.172L101.265 197.212ZM85.3555 206.398C86.1287 207.737 85.6698 209.449 84.3306 210.223L79.7524 212.866C78.4132 213.639 76.7007 213.18 75.9275 211.841L64.7793 192.532C64.0061 191.192 64.465 189.48 65.8042 188.707L70.3824 186.064C71.7216 185.29 73.4341 185.749 74.2072 187.088L85.3555 206.398Z" fill="black"/>
</g>
<g clip-path="url(#clip1_112_19917)">
<path d="M195.853 220.59C195.08 221.929 193.367 222.388 192.028 221.615L171.54 209.786C170.201 209.013 169.742 207.301 170.516 205.962L190.169 171.921C190.942 170.582 192.654 170.123 193.994 170.896L198.572 173.54C199.911 174.313 200.37 176.025 199.597 177.364L185.027 202.6C184.64 203.27 184.87 204.126 185.539 204.513L189.596 206.855C190.266 207.241 191.122 207.012 191.509 206.342L206.078 181.107C206.852 179.767 208.564 179.309 209.903 180.082L214.481 182.725C215.821 183.498 216.279 185.211 215.506 186.55L195.853 220.59ZM182.662 164.354C184.001 165.127 184.46 166.84 183.687 168.179L164.034 202.219C163.261 203.559 161.548 204.017 160.209 203.244L155.631 200.601C154.292 199.828 153.833 198.115 154.606 196.776L174.259 162.736C175.032 161.397 176.745 160.938 178.084 161.711L182.662 164.354Z" fill="black"/>
</g>
<path d="M150.899 107.787C152.446 107.787 153.699 109.041 153.699 110.587V115.874C153.699 117.42 152.446 118.674 150.899 118.674H111.593C110.047 118.674 108.793 117.42 108.793 115.874V110.587C108.793 109.041 110.047 107.787 111.593 107.787H125.463V81.9323H111.593C110.047 81.9323 108.793 80.6787 108.793 79.1323V73.8459C108.793 72.2995 110.047 71.0459 111.593 71.0459H134.23C135.776 71.0459 137.03 72.2995 137.03 73.8459V107.787H150.899Z" fill="black"/>
<defs>
<filter id="filter0_f_112_19917" x="-46.7227" y="-41.873" width="348.523" height="385.006" filterUnits="userSpaceOnUse" color-interpolation-filters="sRGB">
<feFlood flood-opacity="0" result="BackgroundImageFix"/>
<feBlend mode="normal" in="SourceGraphic" in2="BackgroundImageFix" result="shape"/>
<feGaussianBlur stdDeviation="10" result="effect1_foregroundBlur_112_19917"/>
</filter>
<clipPath id="clip0_112_19917">
<rect width="70" height="70" fill="white" transform="translate(58 239.622) rotate(-120)"/>
</clipPath>
<clipPath id="clip1_112_19917">
<rect width="70" height="70" fill="white" transform="translate(232.621 179) rotate(120)"/>
</clipPath>
</defs>
</svg>
