<svg width="256" height="256" viewBox="0 0 256 256" fill="none" xmlns="http://www.w3.org/2000/svg">
<metadata>
  <rdf:RDF xmlns:rdf="http://www.w3.org/1999/02/22-rdf-syntax-ns#"
            xmlns:dc="http://purl.org/dc/elements/1.1/">
    <rdf:Description>
      <dc:title>swrpg-online.com art asset</dc:title>
      <dc:creator>Joshua Ziggas</dc:creator>
      <dc:rights>CC BY-NC-SA 4.0 - https://github.com/swrpg-online/art</dc:rights>
    </rdf:Description>
  </rdf:RDF>
</metadata>
<desc>
  wrpg-online.com SWRPG Dice Asset
  Created by: Joshua Ziggas
  Source: https://github.com/swrpg-online/art
  License: CC BY-NC-SA 4.0
</desc><g clip-path="url(#clip0_112_25621)">
<mask id="mask0_112_25621" style="mask-type:alpha" maskUnits="userSpaceOnUse" x="-1" y="14" width="257" height="227">
<path d="M110.379 235.925C121.123 242.654 134.766 242.654 145.511 235.925L236.466 178.967C240.042 176.728 243.006 173.635 245.09 169.966C259.672 144.302 259.62 112.766 245.038 87.1014C242.991 83.4986 240.091 80.4362 236.601 78.202L145.79 20.0612C134.913 13.0968 120.977 13.0968 110.099 20.0612L19.2882 78.202C15.7985 80.4362 12.8983 83.4986 10.8513 87.1014C-3.73072 112.766 -3.78287 144.302 10.7991 169.966C12.8836 173.635 15.8472 176.728 19.4234 178.967L110.379 235.925Z" fill="#D1D1D1"/>
</mask>
<g mask="url(#mask0_112_25621)">
<rect width="256" height="256" fill="#FF1920"/>
<g style="mix-blend-mode:multiply">
<g filter="url(#filter0_f_112_25621)">
<path fill-rule="evenodd" clip-rule="evenodd" d="M264.336 9.53906H-8.97852V246.554H264.336V9.53906ZM95.381 68.5389L95.3817 68.5372C102.71 51.0444 113.837 24.4859 126.611 24.4859C139.385 24.4859 150.511 51.0444 157.84 68.5372C158.931 71.1407 159.937 73.5434 160.853 75.6278C161.401 76.8757 162.017 78.2618 162.689 79.7708C170.674 97.7196 186.398 133.065 186.398 160.098C186.398 189.404 155.961 212.389 126.611 212.389C97.2607 212.389 66.8234 189.404 66.8234 160.098C66.8234 133.065 82.5479 97.7196 90.533 79.7708L90.533 79.7707C91.2044 78.2617 91.821 76.8756 92.369 75.6278C93.2842 73.5439 94.2905 71.1418 95.381 68.5389Z" fill="#D8D6D6"/>
</g>
<g filter="url(#filter1_f_112_25621)">
<path d="M162.457 209.279C140.502 221.501 113.787 221.501 91.8317 209.279L75.3642 200.111C70.204 197.442 57.3212 190.93 47.072 186.232C43.3907 184.545 39.4451 182.99 35.5136 181.44C25.7625 177.597 16.0985 173.789 10.7724 168.082C4.79368 161.676 2.23136 155.093 1.69754 152.602H-3.64062V256.696H257.93V152.602H252.591C252.058 155.093 249.495 161.676 243.517 168.082C238.19 173.789 228.526 177.597 218.775 181.44C214.844 182.99 210.898 184.545 207.217 186.232C196.968 190.93 184.085 197.442 178.925 200.111L162.457 209.279Z" fill="#595959"/>
</g>
<g filter="url(#filter2_f_112_25621)">
<path d="M179.438 105.142C169.73 84.5731 145.997 32.6109 151.391 26.6569C154.627 22.868 168.112 29.3633 184.293 38.0237C200.474 46.684 233.376 69.9588 244.163 80.7842C254.95 91.6097 261.423 112.719 260.344 131.664C259.265 150.608 248.478 177.131 227.982 171.177C207.486 165.223 189.147 125.71 179.438 105.142Z" fill="#B9B9B9"/>
</g>
<g filter="url(#filter3_f_112_25621)">
<path d="M74.8507 105.142C84.5594 84.5731 108.292 32.6109 102.898 26.6569C99.6618 22.868 86.1775 29.3633 69.9964 38.0237C53.8152 46.684 20.9135 69.9588 10.1261 80.7842C-0.661392 91.6097 -7.13386 112.719 -6.05511 131.664C-4.97637 150.608 5.81107 177.131 26.3072 171.177C46.8034 165.223 65.142 125.71 74.8507 105.142Z" fill="#C7C7C7"/>
</g>
</g>
</g>
<path d="M132.793 168.999C131.206 168.999 129.92 167.71 129.92 166.121V122.917C129.92 121.328 131.206 120.039 132.793 120.039H173.127C174.714 120.039 176 121.328 176 122.917V166.121C176 167.71 174.714 168.999 173.127 168.999H132.793ZM143.226 131.23C142.432 131.23 141.789 131.874 141.789 132.669V156.369C141.789 157.164 142.432 157.808 143.226 157.808H162.694C163.488 157.808 164.131 157.164 164.131 156.369V132.669C164.131 131.874 163.488 131.23 162.694 131.23H143.226ZM147.374 140.363C147.374 139.568 148.018 138.924 148.811 138.924H157.109C157.902 138.924 158.545 139.568 158.545 140.363V148.675C158.545 149.47 157.902 150.114 157.109 150.114H148.811C148.018 150.114 147.374 149.47 147.374 148.675V140.363Z" fill="white"/>
<path d="M126.42 165.662C126.42 167.251 125.131 168.54 123.542 168.54H117.408C115.818 168.54 114.53 167.251 114.53 165.662V132.21C114.53 131.415 113.885 130.771 113.091 130.771H83.1361C81.5465 130.771 80.2578 129.482 80.2578 127.893V122.458C80.2578 120.869 81.5465 119.58 83.1361 119.58H123.542C125.131 119.58 126.42 120.869 126.42 122.458V165.662Z" fill="white"/>
<g filter="url(#filter4_f_112_25621)">
<path fill-rule="evenodd" clip-rule="evenodd" d="M93.2454 69.5646L93.2458 69.5638C100.574 52.5112 111.701 26.6211 124.475 26.6211C126.141 26.6211 127.779 27.0615 129.384 27.8653C117.239 29.8134 106.693 54.9561 99.6516 71.7413C98.5609 74.3416 97.5543 76.7413 96.6389 78.8231C96.0909 80.0694 95.4743 81.4537 94.803 82.9608L94.8029 82.961C86.8178 100.887 71.0933 136.189 71.0933 163.188C71.0933 176.478 77.3683 188.467 86.9673 197.595C73.8495 188.314 64.6875 174.495 64.6875 158.821C64.6875 132.468 80.412 98.0118 88.3971 80.5147L88.3977 80.5133C89.0688 79.0427 89.6852 77.692 90.2331 76.476C91.1483 74.4442 92.1548 72.1023 93.2454 69.5646Z" fill="white"/>
</g>
</g>
<defs>
<filter id="filter0_f_112_25621" x="-18.9785" y="-0.460938" width="293.314" height="257.014" filterUnits="userSpaceOnUse" color-interpolation-filters="sRGB">
<feFlood flood-opacity="0" result="BackgroundImageFix"/>
<feBlend mode="normal" in="SourceGraphic" in2="BackgroundImageFix" result="shape"/>
<feGaussianBlur stdDeviation="5" result="effect1_foregroundBlur_112_25621"/>
</filter>
<filter id="filter1_f_112_25621" x="-13.6406" y="142.602" width="281.57" height="124.094" filterUnits="userSpaceOnUse" color-interpolation-filters="sRGB">
<feFlood flood-opacity="0" result="BackgroundImageFix"/>
<feBlend mode="normal" in="SourceGraphic" in2="BackgroundImageFix" result="shape"/>
<feGaussianBlur stdDeviation="5" result="effect1_foregroundBlur_112_25621"/>
</filter>
<filter id="filter2_f_112_25621" x="140.604" y="15.5527" width="129.857" height="166.477" filterUnits="userSpaceOnUse" color-interpolation-filters="sRGB">
<feFlood flood-opacity="0" result="BackgroundImageFix"/>
<feBlend mode="normal" in="SourceGraphic" in2="BackgroundImageFix" result="shape"/>
<feGaussianBlur stdDeviation="5" result="effect1_foregroundBlur_112_25621"/>
</filter>
<filter id="filter3_f_112_25621" x="-16.1719" y="15.5527" width="129.857" height="166.477" filterUnits="userSpaceOnUse" color-interpolation-filters="sRGB">
<feFlood flood-opacity="0" result="BackgroundImageFix"/>
<feBlend mode="normal" in="SourceGraphic" in2="BackgroundImageFix" result="shape"/>
<feGaussianBlur stdDeviation="5" result="effect1_foregroundBlur_112_25621"/>
</filter>
<filter id="filter4_f_112_25621" x="60.6875" y="22.6211" width="72.6973" height="178.975" filterUnits="userSpaceOnUse" color-interpolation-filters="sRGB">
<feFlood flood-opacity="0" result="BackgroundImageFix"/>
<feBlend mode="normal" in="SourceGraphic" in2="BackgroundImageFix" result="shape"/>
<feGaussianBlur stdDeviation="2" result="effect1_foregroundBlur_112_25621"/>
</filter>
<clipPath id="clip0_112_25621">
<rect width="256" height="256" fill="white"/>
</clipPath>
</defs>
</svg>
