<svg width="256" height="256" viewBox="0 0 256 256" fill="none" xmlns="http://www.w3.org/2000/svg">
<metadata>
  <rdf:RDF xmlns:rdf="http://www.w3.org/1999/02/22-rdf-syntax-ns#"
            xmlns:dc="http://purl.org/dc/elements/1.1/">
    <rdf:Description>
      <dc:title>swrpg-online.com art asset</dc:title>
      <dc:creator>Joshua Ziggas</dc:creator>
      <dc:rights>CC BY-NC-SA 4.0 - https://github.com/swrpg-online/art</dc:rights>
    </rdf:Description>
  </rdf:RDF>
</metadata>
<desc>
  wrpg-online.com SWRPG Dice Asset
  Created by: Joshua Ziggas
  Source: https://github.com/swrpg-online/art
  License: CC BY-NC-SA 4.0
</desc><mask id="mask0_112_25593" style="mask-type:alpha" maskUnits="userSpaceOnUse" x="2" y="17" width="252" height="223">
<path d="M111.095 26.5C118.408 13.8333 136.691 13.8333 144.004 26.5L250.525 211C257.838 223.667 248.697 239.5 234.071 239.5H21.0283C6.40214 239.5 -2.73924 223.667 4.57386 211L111.095 26.5Z" fill="#D9D9D9"/>
</mask>
<g mask="url(#mask0_112_25593)">
<rect width="256" height="256" fill="#FF1920"/>
<g style="mix-blend-mode:multiply" filter="url(#filter0_f_112_25593)">
<path d="M279.337 102.182C279.369 87.9555 263.989 61.3151 251.652 54.2297L126.366 -17.7262C114.029 -24.8117 113.988 -7.0282 126.293 14.2841L251.252 230.719C263.556 252.031 278.977 260.888 279.01 246.661L279.337 102.182Z" fill="black" fill-opacity="0.25"/>
<path d="M100.333 317.894C112.425 324.88 142.655 324.88 154.747 317.894L277.547 246.95C289.639 239.964 274.524 231.232 250.339 231.232L4.74033 231.232C-19.4438 231.232 -34.5589 239.964 -22.4668 246.95L100.333 317.894Z" fill="black" fill-opacity="0.5"/>
<path d="M-26.4366 101.791C-26.4405 87.3473 -10.8069 60.269 1.704 53.0504L128.757 -20.257C141.268 -27.4756 141.273 -9.42054 128.766 12.2421L1.75356 232.235C-10.7533 253.897 -26.392 262.921 -26.396 248.476L-26.4366 101.791Z" fill="black" fill-opacity="0.35"/>
</g>
</g>
<g clip-path="url(#clip0_112_25593)">
<path d="M193.192 143.41C193.854 144.558 193.461 146.026 192.313 146.688L188.389 148.954C187.241 149.617 185.773 149.223 185.111 148.076L172.622 126.445C172.291 125.871 171.557 125.674 170.983 126.006L153.869 135.887C153.295 136.218 153.098 136.952 153.43 137.526L165.918 159.156C166.581 160.304 166.188 161.772 165.04 162.435L161.116 164.7C159.968 165.363 158.5 164.97 157.837 163.822L140.992 134.644C140.329 133.497 140.722 132.029 141.87 131.366L173.068 113.354C174.216 112.691 175.683 113.085 176.346 114.232L193.192 143.41ZM179.555 151.283C180.218 152.431 179.824 153.899 178.676 154.562L174.752 156.827C173.604 157.49 172.137 157.097 171.474 155.949L161.918 139.398C161.256 138.25 161.649 136.782 162.797 136.119L166.721 133.854C167.869 133.191 169.337 133.584 169.999 134.732L179.555 151.283Z" fill="white"/>
</g>
<g clip-path="url(#clip1_112_25593)">
<path d="M98.4466 162.99C97.7838 164.138 96.316 164.531 95.1681 163.869L77.6072 153.73C76.4593 153.067 76.066 151.599 76.7287 150.451L93.5743 121.274C94.2371 120.126 95.7049 119.733 96.8528 120.396L100.777 122.661C101.925 123.324 102.318 124.792 101.655 125.94L89.167 147.57C88.8356 148.144 89.0323 148.878 89.6062 149.209L93.0835 151.217C93.6575 151.548 94.3914 151.352 94.7227 150.778L107.211 129.147C107.874 127.999 109.342 127.606 110.49 128.269L114.414 130.534C115.562 131.197 115.955 132.665 115.292 133.813L98.4466 162.99ZM87.1402 114.788C88.2881 115.451 88.6814 116.919 88.0186 118.066L71.173 147.244C70.5103 148.392 69.0425 148.785 67.8946 148.122L63.9704 145.857C62.8225 145.194 62.4292 143.726 63.092 142.578L79.9376 113.401C80.6003 112.253 82.0681 111.86 83.216 112.522L87.1402 114.788Z" fill="white"/>
</g>
<path d="M145.63 213.34C146.956 213.34 148.03 214.398 148.03 215.703V220.166C148.03 221.471 146.956 222.53 145.63 222.53H111.939C110.614 222.53 109.539 221.471 109.539 220.166V215.703C109.539 214.398 110.614 213.34 111.939 213.34H123.827V191.514H111.939C110.614 191.514 109.539 190.456 109.539 189.15V184.688C109.539 183.382 110.614 182.324 111.939 182.324H131.342C132.667 182.324 133.742 183.382 133.742 184.688V213.34H145.63Z" fill="white"/>
<defs>
<filter id="filter0_f_112_25593" x="-46.7227" y="-41.873" width="348.525" height="385.006" filterUnits="userSpaceOnUse" color-interpolation-filters="sRGB">
<feFlood flood-opacity="0" result="BackgroundImageFix"/>
<feBlend mode="normal" in="SourceGraphic" in2="BackgroundImageFix" result="shape"/>
<feGaussianBlur stdDeviation="10" result="effect1_foregroundBlur_112_25593"/>
</filter>
<clipPath id="clip0_112_25593">
<rect width="60" height="60" fill="white" transform="translate(156.107 179.762) rotate(-120)"/>
</clipPath>
<clipPath id="clip1_112_25593">
<rect width="60" height="60" fill="white" transform="translate(129.961 127.342) rotate(120)"/>
</clipPath>
</defs>
</svg>
