<svg width="256" height="256" viewBox="0 0 256 256" fill="none" xmlns="http://www.w3.org/2000/svg">
<metadata>
  <rdf:RDF xmlns:rdf="http://www.w3.org/1999/02/22-rdf-syntax-ns#"
            xmlns:dc="http://purl.org/dc/elements/1.1/">
    <rdf:Description>
      <dc:title>swrpg-online.com art asset</dc:title>
      <dc:creator>Joshua Ziggas</dc:creator>
      <dc:rights>CC BY-NC-SA 4.0 - https://github.com/swrpg-online/art</dc:rights>
    </rdf:Description>
  </rdf:RDF>
</metadata>
<desc>
  wrpg-online.com SWRPG Dice Asset
  Created by: Joshua Ziggas
  Source: https://github.com/swrpg-online/art
  License: CC BY-NC-SA 4.0
</desc><mask id="mask0_112_25592" style="mask-type:alpha" maskUnits="userSpaceOnUse" x="2" y="17" width="252" height="223">
<path d="M111.095 26.5C118.408 13.8333 136.691 13.8333 144.004 26.5L250.525 211C257.838 223.667 248.697 239.5 234.071 239.5H21.0283C6.40214 239.5 -2.73924 223.667 4.57386 211L111.095 26.5Z" fill="#D9D9D9"/>
</mask>
<g mask="url(#mask0_112_25592)">
<rect width="256" height="256" fill="#FF1920"/>
<g style="mix-blend-mode:multiply" filter="url(#filter0_f_112_25592)">
<path d="M279.337 102.182C279.369 87.9555 263.989 61.3151 251.652 54.2297L126.366 -17.7262C114.029 -24.8117 113.988 -7.0282 126.293 14.2841L251.252 230.719C263.556 252.031 278.977 260.888 279.01 246.661L279.337 102.182Z" fill="black" fill-opacity="0.25"/>
<path d="M100.333 317.894C112.425 324.88 142.655 324.88 154.747 317.894L277.547 246.95C289.639 239.964 274.524 231.232 250.339 231.232L4.74033 231.232C-19.4438 231.232 -34.5589 239.964 -22.4668 246.95L100.333 317.894Z" fill="black" fill-opacity="0.5"/>
<path d="M-26.4366 101.791C-26.4405 87.3473 -10.8069 60.269 1.704 53.0504L128.757 -20.257C141.268 -27.4756 141.273 -9.42054 128.766 12.2421L1.75356 232.235C-10.7533 253.897 -26.392 262.921 -26.396 248.476L-26.4366 101.791Z" fill="black" fill-opacity="0.35"/>
</g>
</g>
<g clip-path="url(#clip0_112_25592)">
<path d="M166.765 116.3C166.102 115.153 166.496 113.685 167.644 113.022L171.568 110.756C172.716 110.094 174.183 110.487 174.846 111.635L191.692 140.812C192.354 141.96 191.961 143.428 190.813 144.091L186.889 146.356C185.741 147.019 184.273 146.626 183.611 145.478L177.666 135.182L158.474 146.263L164.418 156.559C165.081 157.707 164.688 159.174 163.54 159.837L159.616 162.103C158.468 162.765 157 162.372 156.337 161.224L146.636 144.421C145.973 143.273 146.366 141.805 147.514 141.142L172.709 126.596L166.765 116.3Z" fill="white"/>
</g>
<g clip-path="url(#clip1_112_25592)">
<path d="M98.4466 162.99C97.7838 164.138 96.316 164.531 95.1681 163.869L63.9704 145.857C62.8225 145.194 62.4292 143.726 63.092 142.578L65.6492 138.149C66.3119 137.001 67.7797 136.608 68.9276 137.271L79.4467 143.344C80.0207 143.675 80.7546 143.479 81.0859 142.905L93.5743 121.274C94.2371 120.126 95.7049 119.733 96.8528 120.396L114.414 130.534C115.562 131.197 115.955 132.665 115.292 133.813L112.735 138.242C112.072 139.39 110.604 139.783 109.457 139.12L98.9374 133.047C98.3635 132.716 97.6296 132.913 97.2982 133.487L89.167 147.57C88.8356 148.144 89.0323 148.878 89.6062 149.209L100.125 155.283C101.273 155.945 101.667 157.413 101.004 158.561L98.4466 162.99Z" fill="white"/>
</g>
<path d="M142.63 182.324C143.956 182.324 145.03 183.382 145.03 184.688V204.658C145.03 205.964 143.956 207.022 142.63 207.022H108.939C107.614 207.022 106.539 205.964 106.539 204.658V200.196C106.539 198.89 107.614 197.832 108.939 197.832H133.916C134.579 197.832 135.116 197.303 135.116 196.65V192.696C135.116 192.043 134.579 191.514 133.916 191.514H108.939C107.614 191.514 106.539 190.456 106.539 189.15V184.688C106.539 183.382 107.614 182.324 108.939 182.324H142.63ZM106.539 215.703C106.539 214.398 107.614 213.34 108.939 213.34H142.63C143.956 213.34 145.03 214.398 145.03 215.703V220.166C145.03 221.471 143.956 222.53 142.63 222.53H108.939C107.614 222.53 106.539 221.471 106.539 220.166V215.703Z" fill="white"/>
<defs>
<filter id="filter0_f_112_25592" x="-46.7227" y="-41.873" width="348.525" height="385.006" filterUnits="userSpaceOnUse" color-interpolation-filters="sRGB">
<feFlood flood-opacity="0" result="BackgroundImageFix"/>
<feBlend mode="normal" in="SourceGraphic" in2="BackgroundImageFix" result="shape"/>
<feGaussianBlur stdDeviation="10" result="effect1_foregroundBlur_112_25592"/>
</filter>
<clipPath id="clip0_112_25592">
<rect width="60" height="60" fill="white" transform="translate(156.107 179.762) rotate(-120)"/>
</clipPath>
<clipPath id="clip1_112_25592">
<rect width="60" height="60" fill="white" transform="translate(129.961 127.342) rotate(120)"/>
</clipPath>
</defs>
</svg>
