<svg width="256" height="256" viewBox="0 0 256 256" fill="none" xmlns="http://www.w3.org/2000/svg">
<metadata>
  <rdf:RDF xmlns:rdf="http://www.w3.org/1999/02/22-rdf-syntax-ns#"
            xmlns:dc="http://purl.org/dc/elements/1.1/">
    <rdf:Description>
      <dc:title>swrpg-online.com art asset</dc:title>
      <dc:creator>Joshua Ziggas</dc:creator>
      <dc:rights>CC BY-NC-SA 4.0 - https://github.com/swrpg-online/art</dc:rights>
    </rdf:Description>
  </rdf:RDF>
</metadata>
<desc>
  wrpg-online.com SWRPG Dice Asset
  Created by: Joshua Ziggas
  Source: https://github.com/swrpg-online/art
  License: CC BY-NC-SA 4.0
</desc><g clip-path="url(#clip0_112_4367)">
<mask id="mask0_112_4367" style="mask-type:alpha" maskUnits="userSpaceOnUse" x="-1" y="14" width="257" height="227">
<path d="M110.378 235.925C121.122 242.653 134.765 242.653 145.51 235.925L236.465 178.967C240.041 176.727 243.005 173.634 245.089 169.966C259.671 144.301 259.619 112.765 245.037 87.1009C242.99 83.4981 240.09 80.4357 236.6 78.2015L145.789 20.0607C134.912 13.0963 120.976 13.0963 110.098 20.0607L19.2873 78.2015C15.7976 80.4357 12.8973 83.4981 10.8503 87.1009C-3.7317 112.765 -3.78385 144.301 10.7982 169.966C12.8826 173.634 15.8462 176.727 19.4224 178.967L110.378 235.925Z" fill="#D1D1D1"/>
</mask>
<g mask="url(#mask0_112_4367)">
<rect width="256" height="256" fill="#F1F1F1"/>
<g style="mix-blend-mode:multiply">
<g filter="url(#filter0_f_112_4367)">
<path fill-rule="evenodd" clip-rule="evenodd" d="M264.334 9.53809H-8.98047V246.553H264.334V9.53809ZM95.379 68.538L95.3797 68.5363C102.708 51.0434 113.835 24.4849 126.609 24.4849C139.383 24.4849 150.51 51.0434 157.838 68.5363C158.929 71.1398 159.935 73.5424 160.851 75.6269C161.399 76.8747 162.015 78.2608 162.687 79.7699C170.672 97.7186 186.396 133.064 186.396 160.097C186.396 189.403 155.959 212.388 126.609 212.388C97.2587 212.388 66.8215 189.403 66.8215 160.097C66.8215 133.064 82.546 97.7186 90.531 79.7699L90.5311 79.7697C91.2024 78.2607 91.819 76.8747 92.367 75.6269C93.2822 73.5429 94.2886 71.1408 95.379 68.538Z" fill="#D8D6D6"/>
</g>
<g filter="url(#filter1_f_112_4367)">
<path d="M162.455 209.278C140.5 221.501 113.785 221.501 91.8298 209.278L75.3623 200.111C70.2021 197.442 57.3193 190.929 47.07 186.232C43.3888 184.544 39.4431 182.989 35.5116 181.44C25.7605 177.597 16.0965 173.788 10.7705 168.082C4.79173 161.676 2.22941 155.092 1.69559 152.601H-3.64258V256.695H257.928V152.601H252.589C252.056 155.092 249.493 161.676 243.515 168.082C238.188 173.788 228.525 177.597 218.773 181.44C214.842 182.989 210.896 184.544 207.215 186.232C196.966 190.929 184.083 197.442 178.923 200.111L162.455 209.278Z" fill="#595959"/>
</g>
<g filter="url(#filter2_f_112_4367)">
<path d="M179.437 105.141C169.728 84.5729 145.996 32.6107 151.39 26.6567C154.626 22.8678 168.11 29.3631 184.291 38.0234C200.472 46.6838 233.374 69.9585 244.162 80.784C254.949 91.6095 261.421 112.719 260.343 131.664C259.264 150.608 248.477 177.131 227.98 171.177C207.484 165.223 189.146 125.71 179.437 105.141Z" fill="#B9B9B9"/>
</g>
<g filter="url(#filter3_f_112_4367)">
<path d="M74.8488 105.141C84.5575 84.5729 108.29 32.6107 102.896 26.6567C99.6599 22.8678 86.1756 29.3631 69.9944 38.0234C53.8133 46.6838 20.9115 69.9585 10.1241 80.784C-0.663345 91.6095 -7.13581 112.719 -6.05707 131.664C-4.97832 150.608 5.80912 177.131 26.3053 171.177C46.8014 165.223 65.1401 125.71 74.8488 105.141Z" fill="#C7C7C7"/>
</g>
</g>
</g>
<path d="M128.031 188.2C119.812 188.2 113.912 186.567 110.329 183.301C106.747 180.034 104.921 174.608 104.85 167.022C104.815 161.086 104.78 155.642 104.745 150.69C104.71 145.738 104.692 141.347 104.692 137.519C104.692 133.691 104.71 130.547 104.745 128.089C104.78 125.595 104.815 123.857 104.85 122.873C105.167 115.708 107.309 110.405 111.278 106.963C115.282 103.521 120.831 101.8 127.926 101.8C135.301 101.8 140.938 103.626 144.837 107.279C148.735 110.932 150.79 115.849 151.001 122.03C151.036 122.768 151.053 123.418 151.053 123.98C151.088 124.542 151.088 125.174 151.053 125.876C151.053 126.579 151.036 127.509 151.001 128.668H134.985C135.09 127.544 135.143 126.631 135.143 125.929C135.178 125.191 135.178 124.401 135.143 123.558C135.108 122.68 135.055 121.468 134.985 119.923C134.95 118.342 134.37 117.078 133.247 116.13C132.158 115.146 130.419 114.655 128.031 114.655C125.713 114.655 123.974 115.111 122.815 116.024C121.656 116.938 121.042 118.237 120.971 119.923C120.866 122.768 120.761 125.911 120.655 129.353C120.585 132.76 120.55 136.36 120.55 140.153H123.395C124.413 138.397 126.011 136.94 128.189 135.781C130.402 134.622 132.948 134.042 135.828 134.042C141.799 134.042 145.89 135.447 148.103 138.257C150.351 141.031 151.528 145.667 151.633 152.165C151.668 154.378 151.686 156.204 151.686 157.644C151.721 159.084 151.721 160.506 151.686 161.911C151.686 163.281 151.633 164.984 151.528 167.022C151.106 174.608 149.122 180.034 145.574 183.301C142.062 186.567 136.214 188.2 128.031 188.2ZM128.136 175.345C130.525 175.345 132.316 174.889 133.51 173.976C134.739 173.027 135.371 171.693 135.407 169.972C135.477 168.11 135.529 166.424 135.565 164.914C135.6 163.369 135.635 161.911 135.67 160.542C135.705 159.172 135.723 157.837 135.723 156.538C135.723 155.238 135.688 153.921 135.617 152.586C135.582 150.795 134.897 149.443 133.563 148.53C132.263 147.582 130.56 147.107 128.452 147.107C126.099 147.107 124.203 147.564 122.763 148.477C121.358 149.39 120.62 150.69 120.55 152.376C120.55 155.221 120.568 158.101 120.603 161.016C120.673 163.931 120.761 166.846 120.866 169.761C120.936 171.552 121.586 172.94 122.815 173.923C124.045 174.871 125.818 175.345 128.136 175.345Z" fill="black"/>
<g filter="url(#filter4_f_112_4367)">
<path fill-rule="evenodd" clip-rule="evenodd" d="M93.2445 69.5637L93.2448 69.5629C100.573 52.5103 111.7 26.6201 124.474 26.6201C126.14 26.6201 127.778 27.0605 129.383 27.8643C117.238 29.8124 106.692 54.9551 99.6506 71.7404C98.5599 74.3406 97.5533 76.7403 96.6379 78.8222C96.09 80.0684 95.4733 81.4527 94.802 82.9598L94.8019 82.96C86.8169 100.886 71.0924 136.188 71.0924 163.188C71.0924 176.477 77.3673 188.466 86.9663 197.594C73.8485 188.313 64.6865 174.494 64.6865 158.82C64.6865 132.467 80.411 98.0108 88.3961 80.5138L88.3968 80.5123C89.0679 79.0418 89.6843 77.6911 90.2321 76.475C91.1474 74.4433 92.1539 72.1013 93.2445 69.5637Z" fill="white"/>
</g>
</g>
<defs>
<filter id="filter0_f_112_4367" x="-18.9805" y="-0.461914" width="293.314" height="257.015" filterUnits="userSpaceOnUse" color-interpolation-filters="sRGB">
<feFlood flood-opacity="0" result="BackgroundImageFix"/>
<feBlend mode="normal" in="SourceGraphic" in2="BackgroundImageFix" result="shape"/>
<feGaussianBlur stdDeviation="5" result="effect1_foregroundBlur_112_4367"/>
</filter>
<filter id="filter1_f_112_4367" x="-13.6426" y="142.601" width="281.57" height="124.094" filterUnits="userSpaceOnUse" color-interpolation-filters="sRGB">
<feFlood flood-opacity="0" result="BackgroundImageFix"/>
<feBlend mode="normal" in="SourceGraphic" in2="BackgroundImageFix" result="shape"/>
<feGaussianBlur stdDeviation="5" result="effect1_foregroundBlur_112_4367"/>
</filter>
<filter id="filter2_f_112_4367" x="140.602" y="15.5525" width="129.857" height="166.477" filterUnits="userSpaceOnUse" color-interpolation-filters="sRGB">
<feFlood flood-opacity="0" result="BackgroundImageFix"/>
<feBlend mode="normal" in="SourceGraphic" in2="BackgroundImageFix" result="shape"/>
<feGaussianBlur stdDeviation="5" result="effect1_foregroundBlur_112_4367"/>
</filter>
<filter id="filter3_f_112_4367" x="-16.1738" y="15.5525" width="129.857" height="166.477" filterUnits="userSpaceOnUse" color-interpolation-filters="sRGB">
<feFlood flood-opacity="0" result="BackgroundImageFix"/>
<feBlend mode="normal" in="SourceGraphic" in2="BackgroundImageFix" result="shape"/>
<feGaussianBlur stdDeviation="5" result="effect1_foregroundBlur_112_4367"/>
</filter>
<filter id="filter4_f_112_4367" x="60.6865" y="22.6201" width="72.6968" height="178.974" filterUnits="userSpaceOnUse" color-interpolation-filters="sRGB">
<feFlood flood-opacity="0" result="BackgroundImageFix"/>
<feBlend mode="normal" in="SourceGraphic" in2="BackgroundImageFix" result="shape"/>
<feGaussianBlur stdDeviation="2" result="effect1_foregroundBlur_112_4367"/>
</filter>
<clipPath id="clip0_112_4367">
<rect width="256" height="256" fill="white"/>
</clipPath>
</defs>
</svg>
