<svg width="256" height="256" viewBox="0 0 256 256" fill="none" xmlns="http://www.w3.org/2000/svg">
<metadata>
  <rdf:RDF xmlns:rdf="http://www.w3.org/1999/02/22-rdf-syntax-ns#"
            xmlns:dc="http://purl.org/dc/elements/1.1/">
    <rdf:Description>
      <dc:title>swrpg-online.com art asset</dc:title>
      <dc:creator>Joshua Ziggas</dc:creator>
      <dc:rights>CC BY-NC-SA 4.0 - https://github.com/swrpg-online/art</dc:rights>
    </rdf:Description>
  </rdf:RDF>
</metadata>
<desc>
  wrpg-online.com SWRPG Dice Asset
  Created by: Joshua Ziggas
  Source: https://github.com/swrpg-online/art
  License: CC BY-NC-SA 4.0
</desc><g clip-path="url(#clip0_112_4370)">
<mask id="mask0_112_4370" style="mask-type:alpha" maskUnits="userSpaceOnUse" x="-1" y="14" width="257" height="227">
<path d="M110.378 235.925C121.122 242.653 134.765 242.653 145.51 235.925L236.465 178.967C240.041 176.727 243.005 173.634 245.089 169.966C259.671 144.301 259.619 112.765 245.037 87.1009C242.99 83.4981 240.09 80.4357 236.6 78.2015L145.789 20.0607C134.912 13.0963 120.976 13.0963 110.098 20.0607L19.2873 78.2015C15.7976 80.4357 12.8973 83.4981 10.8503 87.1009C-3.7317 112.765 -3.78385 144.301 10.7982 169.966C12.8826 173.634 15.8462 176.727 19.4224 178.967L110.378 235.925Z" fill="#D1D1D1"/>
</mask>
<g mask="url(#mask0_112_4370)">
<rect width="256" height="256" fill="#F1F1F1"/>
<g style="mix-blend-mode:multiply">
<g filter="url(#filter0_f_112_4370)">
<path fill-rule="evenodd" clip-rule="evenodd" d="M264.334 9.53809H-8.98047V246.553H264.334V9.53809ZM95.379 68.538L95.3797 68.5363C102.708 51.0434 113.835 24.4849 126.609 24.4849C139.383 24.4849 150.51 51.0434 157.838 68.5363C158.929 71.1398 159.935 73.5424 160.851 75.6269C161.399 76.8747 162.015 78.2608 162.687 79.7699C170.672 97.7186 186.396 133.064 186.396 160.097C186.396 189.403 155.959 212.388 126.609 212.388C97.2587 212.388 66.8215 189.403 66.8215 160.097C66.8215 133.064 82.546 97.7186 90.531 79.7699L90.5311 79.7697C91.2024 78.2607 91.819 76.8747 92.367 75.6269C93.2822 73.5429 94.2886 71.1408 95.379 68.538Z" fill="#D8D6D6"/>
</g>
<g filter="url(#filter1_f_112_4370)">
<path d="M162.455 209.278C140.5 221.501 113.785 221.501 91.8298 209.278L75.3623 200.111C70.2021 197.442 57.3193 190.929 47.07 186.232C43.3888 184.544 39.4431 182.989 35.5116 181.44C25.7605 177.597 16.0965 173.788 10.7705 168.082C4.79173 161.676 2.22941 155.092 1.69559 152.601H-3.64258V256.695H257.928V152.601H252.589C252.056 155.092 249.493 161.676 243.515 168.082C238.188 173.788 228.525 177.597 218.773 181.44C214.842 182.989 210.896 184.544 207.215 186.232C196.966 190.929 184.083 197.442 178.923 200.111L162.455 209.278Z" fill="#595959"/>
</g>
<g filter="url(#filter2_f_112_4370)">
<path d="M179.437 105.141C169.728 84.5729 145.996 32.6107 151.39 26.6567C154.626 22.8678 168.11 29.3631 184.291 38.0234C200.472 46.6838 233.374 69.9585 244.162 80.784C254.949 91.6095 261.421 112.719 260.343 131.664C259.264 150.608 248.477 177.131 227.98 171.177C207.484 165.223 189.146 125.71 179.437 105.141Z" fill="#B9B9B9"/>
</g>
<g filter="url(#filter3_f_112_4370)">
<path d="M74.8488 105.141C84.5575 84.5729 108.29 32.6107 102.896 26.6567C99.6599 22.8678 86.1756 29.3631 69.9944 38.0234C53.8133 46.6838 20.9115 69.9585 10.1241 80.784C-0.663345 91.6095 -7.13581 112.719 -6.05707 131.664C-4.97832 150.608 5.80912 177.131 26.3053 171.177C46.8014 165.223 65.1401 125.71 74.8488 105.141Z" fill="#C7C7C7"/>
</g>
</g>
</g>
<path d="M129.034 188.2C120.991 188.2 115.179 186.567 111.596 183.301C108.049 180.034 106.275 174.643 106.275 167.127C106.275 166.565 106.275 165.968 106.275 165.336C106.275 164.703 106.275 164.054 106.275 163.386C106.31 162.719 106.346 162.034 106.381 161.332H122.396C122.361 162.912 122.326 164.335 122.291 165.599C122.256 166.828 122.291 168.321 122.396 170.077C122.502 171.658 123.011 172.94 123.924 173.923C124.837 174.871 126.47 175.345 128.824 175.345C130.896 175.345 132.494 174.906 133.618 174.028C134.742 173.15 135.356 171.763 135.462 169.866C135.637 167.162 135.76 164.124 135.83 160.752C135.901 157.381 135.953 153.745 135.988 149.847H133.565C132.722 151.568 131.335 153.025 129.403 154.22C127.471 155.379 125.03 155.958 122.08 155.958C119.095 155.958 116.268 155.326 113.598 154.062C110.964 152.762 108.822 150.707 107.171 147.898C105.52 145.088 104.695 141.418 104.695 136.887C104.695 134.815 104.695 133.023 104.695 131.513C104.695 129.968 104.695 128.651 104.695 127.562C104.695 126.473 104.695 125.56 104.695 124.822C104.73 124.05 104.765 123.435 104.8 122.979C105.116 115.392 107.101 109.966 110.753 106.7C114.406 103.433 120.254 101.8 128.297 101.8C136.515 101.8 142.398 103.433 145.946 106.7C149.493 109.966 151.337 115.392 151.477 122.979C151.618 129.23 151.706 134.762 151.741 139.574C151.776 144.385 151.758 148.969 151.688 153.324C151.653 157.679 151.583 162.28 151.477 167.127C151.337 174.643 149.475 180.034 145.893 183.301C142.31 186.567 136.691 188.2 129.034 188.2ZM128.508 142.893C130.685 142.893 132.388 142.524 133.618 141.786C134.882 141.014 135.637 139.942 135.883 138.573C135.848 135.552 135.795 132.479 135.725 129.353C135.655 126.192 135.532 123.014 135.356 119.818C135.321 118.167 134.689 116.902 133.46 116.024C132.23 115.111 130.474 114.655 128.191 114.655C125.873 114.655 124.082 115.111 122.818 116.024C121.553 116.938 120.921 118.272 120.921 120.028C120.921 120.274 120.904 121.152 120.868 122.662C120.868 124.173 120.851 125.929 120.816 127.931C120.816 129.933 120.798 131.847 120.763 133.673C120.763 135.464 120.781 136.782 120.816 137.624C120.886 139.31 121.624 140.61 123.028 141.523C124.468 142.436 126.295 142.893 128.508 142.893Z" fill="black"/>
<g filter="url(#filter4_f_112_4370)">
<path fill-rule="evenodd" clip-rule="evenodd" d="M93.2445 69.5637L93.2448 69.5629C100.573 52.5103 111.7 26.6201 124.474 26.6201C126.14 26.6201 127.778 27.0605 129.383 27.8643C117.238 29.8124 106.692 54.9551 99.6506 71.7404C98.5599 74.3406 97.5533 76.7403 96.6379 78.8222C96.09 80.0684 95.4733 81.4527 94.802 82.9598L94.8019 82.96C86.8169 100.886 71.0924 136.188 71.0924 163.188C71.0924 176.477 77.3673 188.466 86.9663 197.594C73.8485 188.313 64.6865 174.494 64.6865 158.82C64.6865 132.467 80.411 98.0108 88.3961 80.5138L88.3968 80.5123C89.0679 79.0418 89.6843 77.6911 90.2321 76.475C91.1474 74.4433 92.1539 72.1013 93.2445 69.5637Z" fill="white"/>
</g>
</g>
<defs>
<filter id="filter0_f_112_4370" x="-18.9805" y="-0.461914" width="293.314" height="257.015" filterUnits="userSpaceOnUse" color-interpolation-filters="sRGB">
<feFlood flood-opacity="0" result="BackgroundImageFix"/>
<feBlend mode="normal" in="SourceGraphic" in2="BackgroundImageFix" result="shape"/>
<feGaussianBlur stdDeviation="5" result="effect1_foregroundBlur_112_4370"/>
</filter>
<filter id="filter1_f_112_4370" x="-13.6426" y="142.601" width="281.57" height="124.094" filterUnits="userSpaceOnUse" color-interpolation-filters="sRGB">
<feFlood flood-opacity="0" result="BackgroundImageFix"/>
<feBlend mode="normal" in="SourceGraphic" in2="BackgroundImageFix" result="shape"/>
<feGaussianBlur stdDeviation="5" result="effect1_foregroundBlur_112_4370"/>
</filter>
<filter id="filter2_f_112_4370" x="140.602" y="15.5525" width="129.857" height="166.477" filterUnits="userSpaceOnUse" color-interpolation-filters="sRGB">
<feFlood flood-opacity="0" result="BackgroundImageFix"/>
<feBlend mode="normal" in="SourceGraphic" in2="BackgroundImageFix" result="shape"/>
<feGaussianBlur stdDeviation="5" result="effect1_foregroundBlur_112_4370"/>
</filter>
<filter id="filter3_f_112_4370" x="-16.1738" y="15.5525" width="129.857" height="166.477" filterUnits="userSpaceOnUse" color-interpolation-filters="sRGB">
<feFlood flood-opacity="0" result="BackgroundImageFix"/>
<feBlend mode="normal" in="SourceGraphic" in2="BackgroundImageFix" result="shape"/>
<feGaussianBlur stdDeviation="5" result="effect1_foregroundBlur_112_4370"/>
</filter>
<filter id="filter4_f_112_4370" x="60.6865" y="22.6201" width="72.6968" height="178.974" filterUnits="userSpaceOnUse" color-interpolation-filters="sRGB">
<feFlood flood-opacity="0" result="BackgroundImageFix"/>
<feBlend mode="normal" in="SourceGraphic" in2="BackgroundImageFix" result="shape"/>
<feGaussianBlur stdDeviation="2" result="effect1_foregroundBlur_112_4370"/>
</filter>
<clipPath id="clip0_112_4370">
<rect width="256" height="256" fill="white"/>
</clipPath>
</defs>
</svg>
