<svg width="256" height="256" viewBox="0 0 256 256" fill="none" xmlns="http://www.w3.org/2000/svg">
<metadata>
  <rdf:RDF xmlns:rdf="http://www.w3.org/1999/02/22-rdf-syntax-ns#"
            xmlns:dc="http://purl.org/dc/elements/1.1/">
    <rdf:Description>
      <dc:title>swrpg-online.com art asset</dc:title>
      <dc:creator>Joshua Ziggas</dc:creator>
      <dc:rights>CC BY-NC-SA 4.0 - https://github.com/swrpg-online/art</dc:rights>
    </rdf:Description>
  </rdf:RDF>
</metadata>
<desc>
  wrpg-online.com SWRPG Dice Asset
  Created by: Joshua Ziggas
  Source: https://github.com/swrpg-online/art
  License: CC BY-NC-SA 4.0
</desc><mask id="mask0_112_3622" style="mask-type:luminance" maskUnits="userSpaceOnUse" x="6" y="2" width="244" height="252">
<path d="M114.627 4.34533C123.319 1.52112 132.682 1.52111 141.374 4.34533L189.669 20.0373C198.361 22.8615 205.936 28.365 211.308 35.7589L241.156 76.841C246.528 84.2349 249.421 93.1397 249.421 102.279V153.059C249.421 162.199 246.528 171.103 241.156 178.497L211.308 219.58C205.936 226.973 198.361 232.477 189.669 235.301L141.374 250.993C132.682 253.817 123.319 253.817 114.627 250.993L66.3317 235.301C57.6397 232.477 50.0648 226.973 44.6929 219.58L14.8449 178.497C9.47297 171.103 6.57963 162.199 6.57963 153.059V102.279C6.57963 93.1397 9.47296 84.2349 14.8449 76.841L44.6929 35.7589C50.0648 28.365 57.6397 22.8615 66.3317 20.0373L114.627 4.34533Z" fill="white"/>
</mask>
<g mask="url(#mask0_112_3622)">
<rect width="256" height="256" fill="#F1F1F1"/>
<g filter="url(#filter0_f_112_3622)">
<path d="M50.1006 9.81476L135.446 -6.13379V48.8249H121.26V9.81476L52.8054 23.0787L50.1006 9.81476Z" fill="url(#paint0_linear_112_3622)" fill-opacity="0.15"/>
<rect x="169.169" y="196.272" width="14.1855" height="78.0203" transform="rotate(-36 169.169 196.272)" fill="url(#paint1_linear_112_3622)" fill-opacity="0.3"/>
<path d="M-5.07861 91.241L43.0678 14.9641L61.4608 21.4558L18.1177 84.7521L55.2185 96.8069L50.835 110.298L-5.07861 91.241Z" fill="url(#paint2_linear_112_3622)" fill-opacity="0.25"/>
<rect x="205.87" y="110.298" width="14.1855" height="78.0203" transform="rotate(-108 205.87 110.298)" fill="url(#paint3_linear_112_3622)" fill-opacity="0.25"/>
<rect x="41.6777" y="259.392" width="14.1855" height="78.0203" transform="rotate(-144 41.6777 259.392)" fill="url(#paint4_linear_112_3622)" fill-opacity="0.25"/>
<path d="M173.312 205.927L209.146 252.45L126.5 268.5L46.8545 252.45L82.6879 205.927L173.312 205.927Z" fill="black" fill-opacity="0.35"/>
<path d="M216.11 108.421L272.06 88.5817L261 175L221.455 244.329L187.851 195.392L216.11 108.421Z" fill="black" fill-opacity="0.4"/>
<path d="M136.732 38.0622L135.153 -21.2809L210.713 14L267.64 74.9762L210.713 91.8128L136.732 38.0622Z" fill="black" fill-opacity="0.2"/>
<path d="M45.2874 91.8128L-11.639 74.9762L45.2874 14.9998L120.848 -21.2811L119.269 38.062L45.2874 91.8128Z" fill="black" fill-opacity="0.1"/>
<path d="M68.1492 195.392L34.5454 244.329L-4 172.5L-16.0601 88.5818L39.8907 108.421L68.1492 195.392Z" fill="black" fill-opacity="0.25"/>
</g>
</g>
<path d="M119.643 186.119C119.601 184.576 119.56 183.137 119.518 181.803C119.518 180.468 119.497 179.196 119.455 177.986C119.455 176.735 119.435 175.484 119.393 174.233C119.393 172.981 119.393 171.647 119.393 170.229C119.435 168.769 119.476 167.184 119.518 165.474C119.643 161.22 120.435 157.32 121.895 153.775C123.397 150.188 125.607 146.935 128.527 144.016C131.446 141.055 135.116 138.406 139.537 136.071L148.296 131.441C151.174 129.94 153.03 128.104 153.864 125.936C154.698 123.767 155.178 121.807 155.303 120.055C155.428 117.97 155.511 115.717 155.553 113.298C155.595 110.838 155.553 108.544 155.428 106.417C155.303 104.456 154.531 102.913 153.113 101.787C151.695 100.619 149.547 100.035 146.669 100.035C143.875 100.035 141.852 100.598 140.601 101.725C139.391 102.809 138.745 104.206 138.662 105.916C138.536 109.294 138.453 112.276 138.411 114.862C138.411 117.406 138.495 120.305 138.662 123.558H119.768C119.685 121.932 119.622 120.305 119.58 118.679C119.539 117.01 119.497 115.425 119.455 113.924C119.455 112.422 119.476 111.046 119.518 109.795C119.893 100.828 122.187 94.4258 126.4 90.5887C130.654 86.7099 137.41 84.7705 146.669 84.7705C153.217 84.7705 158.473 85.6255 162.435 87.3355C166.439 89.0038 169.379 91.6731 171.256 95.3433C173.133 99.0136 174.196 103.831 174.446 109.795C174.488 110.796 174.509 111.734 174.509 112.61C174.551 113.444 174.572 114.258 174.572 115.05C174.572 115.801 174.551 116.572 174.509 117.365C174.509 118.157 174.488 119.012 174.446 119.93C174.28 124.559 173.383 128.584 171.756 132.004C170.13 135.382 167.94 138.323 165.187 140.825C162.435 143.328 159.265 145.538 155.678 147.457L145.543 152.837C143.833 153.754 142.478 154.985 141.477 156.528C140.518 158.029 139.829 159.593 139.412 161.22C138.995 162.847 138.787 164.265 138.787 165.474V169.603H172.945V186.119H119.643Z" fill="black"/>
<path d="M89.8589 186.119V102.538H82.3516L81.8511 95.9063L93.8628 86.0217H109.378V186.119H89.8589Z" fill="black"/>
<g filter="url(#filter1_f_112_3622)">
<path d="M62.4928 99.4784C57.484 104.467 54.5578 109.683 58.5087 120.454C52.2476 110.816 53.955 100.612 58.5085 95.5101C66.6011 86.4425 90.952 68.8659 103.474 61.4962C113.492 55.6004 126.241 46.7568 139.902 56.961C124.534 51.292 117.704 59.2286 110.873 63.1969C102.632 67.9852 68.7538 93.2425 62.4928 99.4784Z" fill="white"/>
</g>
<defs>
<filter id="filter0_f_112_3622" x="-26.8795" y="-32.1004" width="317.771" height="311.42" filterUnits="userSpaceOnUse" color-interpolation-filters="sRGB">
<feFlood flood-opacity="0" result="BackgroundImageFix"/>
<feBlend mode="normal" in="SourceGraphic" in2="BackgroundImageFix" result="shape"/>
<feGaussianBlur stdDeviation="5.40971" result="effect1_foregroundBlur_112_3622"/>
</filter>
<filter id="filter1_f_112_3622" x="49.0185" y="46.8815" width="96.2926" height="78.9818" filterUnits="userSpaceOnUse" color-interpolation-filters="sRGB">
<feFlood flood-opacity="0" result="BackgroundImageFix"/>
<feBlend mode="normal" in="SourceGraphic" in2="BackgroundImageFix" result="shape"/>
<feGaussianBlur stdDeviation="2.70486" result="effect1_foregroundBlur_112_3622"/>
</filter>
<linearGradient id="paint0_linear_112_3622" x1="128.353" y1="-29.1954" x2="128.353" y2="48.8249" gradientUnits="userSpaceOnUse">
<stop offset="0.40004"/>
<stop offset="0.770751" stop-opacity="0"/>
</linearGradient>
<linearGradient id="paint1_linear_112_3622" x1="176.262" y1="196.272" x2="176.275" y2="252.046" gradientUnits="userSpaceOnUse">
<stop stop-opacity="0"/>
<stop offset="0.44519"/>
</linearGradient>
<linearGradient id="paint2_linear_112_3622" x1="52.2433" y1="103.558" x2="6.82284" y2="87.4543" gradientUnits="userSpaceOnUse">
<stop offset="0.487821" stop-opacity="0"/>
<stop offset="1"/>
</linearGradient>
<linearGradient id="paint3_linear_112_3622" x1="216.761" y1="109.73" x2="217.402" y2="150.48" gradientUnits="userSpaceOnUse">
<stop stop-opacity="0"/>
<stop offset="1"/>
</linearGradient>
<linearGradient id="paint4_linear_112_3622" x1="48.7705" y1="337.412" x2="48.6781" y2="291.64" gradientUnits="userSpaceOnUse">
<stop stop-opacity="0"/>
<stop offset="0.482933"/>
</linearGradient>
</defs>
</svg>
