<svg width="256" height="256" viewBox="0 0 256 256" fill="none" xmlns="http://www.w3.org/2000/svg">
<metadata>
  <rdf:RDF xmlns:rdf="http://www.w3.org/1999/02/22-rdf-syntax-ns#"
            xmlns:dc="http://purl.org/dc/elements/1.1/">
    <rdf:Description>
      <dc:title>swrpg-online.com art asset</dc:title>
      <dc:creator>Joshua Ziggas</dc:creator>
      <dc:rights>CC BY-NC-SA 4.0 - https://github.com/swrpg-online/art</dc:rights>
    </rdf:Description>
  </rdf:RDF>
</metadata>
<desc>
  wrpg-online.com SWRPG Dice Asset
  Created by: Joshua Ziggas
  Source: https://github.com/swrpg-online/art
  License: CC BY-NC-SA 4.0
</desc><mask id="mask0_112_3618" style="mask-type:luminance" maskUnits="userSpaceOnUse" x="6" y="2" width="244" height="252">
<path d="M114.627 4.34533C123.319 1.52112 132.682 1.52111 141.374 4.34533L189.669 20.0373C198.361 22.8615 205.936 28.365 211.308 35.7589L241.156 76.841C246.528 84.2349 249.421 93.1397 249.421 102.279V153.059C249.421 162.199 246.528 171.103 241.156 178.497L211.308 219.58C205.936 226.973 198.361 232.477 189.669 235.301L141.374 250.993C132.682 253.817 123.319 253.817 114.627 250.993L66.3317 235.301C57.6397 232.477 50.0648 226.973 44.6929 219.58L14.8449 178.497C9.47297 171.103 6.57963 162.199 6.57963 153.059V102.279C6.57963 93.1397 9.47296 84.2349 14.8449 76.841L44.6929 35.7589C50.0648 28.365 57.6397 22.8615 66.3317 20.0373L114.627 4.34533Z" fill="white"/>
</mask>
<g mask="url(#mask0_112_3618)">
<rect width="256" height="256" fill="#F1F1F1"/>
<g filter="url(#filter0_f_112_3618)">
<path d="M50.1006 9.81476L135.446 -6.13379V48.8249H121.26V9.81476L52.8054 23.0787L50.1006 9.81476Z" fill="url(#paint0_linear_112_3618)" fill-opacity="0.15"/>
<rect x="169.169" y="196.272" width="14.1855" height="78.0203" transform="rotate(-36 169.169 196.272)" fill="url(#paint1_linear_112_3618)" fill-opacity="0.3"/>
<path d="M-5.07861 91.241L43.0678 14.9641L61.4608 21.4558L18.1177 84.7521L55.2185 96.8069L50.835 110.298L-5.07861 91.241Z" fill="url(#paint2_linear_112_3618)" fill-opacity="0.25"/>
<rect x="205.87" y="110.298" width="14.1855" height="78.0203" transform="rotate(-108 205.87 110.298)" fill="url(#paint3_linear_112_3618)" fill-opacity="0.25"/>
<rect x="41.6777" y="259.392" width="14.1855" height="78.0203" transform="rotate(-144 41.6777 259.392)" fill="url(#paint4_linear_112_3618)" fill-opacity="0.25"/>
<path d="M173.312 205.927L209.146 252.45L126.5 268.5L46.8545 252.45L82.6879 205.927L173.312 205.927Z" fill="black" fill-opacity="0.35"/>
<path d="M216.11 108.421L272.06 88.5817L261 175L221.455 244.329L187.851 195.392L216.11 108.421Z" fill="black" fill-opacity="0.4"/>
<path d="M136.732 38.0622L135.153 -21.2809L210.713 14L267.64 74.9762L210.713 91.8128L136.732 38.0622Z" fill="black" fill-opacity="0.2"/>
<path d="M45.2874 91.8128L-11.639 74.9762L45.2874 14.9998L120.848 -21.2811L119.269 38.062L45.2874 91.8128Z" fill="black" fill-opacity="0.1"/>
<path d="M68.1492 195.392L34.5454 244.329L-4 172.5L-16.0601 88.5818L39.8907 108.421L68.1492 195.392Z" fill="black" fill-opacity="0.25"/>
</g>
</g>
<path d="M128.157 186.3C118.272 186.3 111.265 184.277 107.136 180.232C103.007 176.144 100.755 169.784 100.379 161.15C100.338 159.899 100.317 158.919 100.317 158.21C100.317 157.459 100.338 156.709 100.379 155.958C100.421 155.207 100.505 154.144 100.63 152.767C101.088 148.138 102.235 144.509 104.071 141.882C105.906 139.212 108.638 137.127 112.266 135.626V132.998C109.764 132.122 107.553 130.683 105.635 128.681C103.758 126.679 102.507 124.156 101.881 121.111C101.672 120.11 101.485 118.88 101.318 117.42C101.193 115.919 101.088 114.417 101.005 112.916C100.963 111.373 100.963 110.017 101.005 108.849C101.464 100.008 103.716 93.6054 107.762 89.6432C111.807 85.681 118.606 83.7 128.157 83.7C137.416 83.7 144.151 85.6393 148.364 89.5181C152.576 93.3969 154.891 99.8407 155.308 108.849C155.35 110.017 155.329 111.373 155.245 112.916C155.204 114.417 155.099 115.919 154.933 117.42C154.808 118.88 154.641 120.11 154.432 121.111C153.807 124.156 152.534 126.679 150.616 128.681C148.739 130.683 146.549 132.122 144.047 132.998V135.751C147.384 137.252 149.99 139.358 151.867 142.069C153.786 144.739 155.058 148.263 155.683 152.642C155.934 154.394 156.059 155.895 156.059 157.147C156.059 158.356 156.017 159.691 155.934 161.15C155.517 170.076 153.181 176.499 148.927 180.419C144.714 184.34 137.791 186.3 128.157 186.3ZM128.157 171.035C131.118 171.035 133.287 170.409 134.663 169.158C136.081 167.865 136.79 166.03 136.79 163.653C136.79 162.235 136.79 160.817 136.79 159.399C136.79 157.939 136.79 156.5 136.79 155.082C136.79 153.622 136.79 152.183 136.79 150.765C136.79 148.388 136.081 146.574 134.663 145.323C133.287 144.03 131.118 143.383 128.157 143.383C125.237 143.383 123.068 144.03 121.65 145.323C120.232 146.574 119.523 148.388 119.523 150.765C119.523 152.892 119.523 155.04 119.523 157.209C119.523 159.378 119.523 161.526 119.523 163.653C119.523 166.03 120.232 167.865 121.65 169.158C123.068 170.409 125.237 171.035 128.157 171.035ZM128.157 125.491C131.034 125.491 133.182 124.865 134.6 123.614C136.06 122.321 136.79 120.486 136.79 118.108C136.79 116.148 136.79 114.188 136.79 112.228C136.79 110.226 136.79 108.266 136.79 106.347C136.79 103.97 136.081 102.155 134.663 100.904C133.287 99.6113 131.118 98.9648 128.157 98.9648C125.279 98.9648 123.11 99.6113 121.65 100.904C120.232 102.155 119.523 103.97 119.523 106.347C119.523 107.306 119.523 108.286 119.523 109.287C119.523 110.247 119.523 111.227 119.523 112.228C119.523 113.229 119.523 114.23 119.523 115.231C119.523 116.19 119.523 117.149 119.523 118.108C119.523 120.486 120.232 122.321 121.65 123.614C123.11 124.865 125.279 125.491 128.157 125.491Z" fill="black"/>
<g filter="url(#filter1_f_112_3618)">
<path d="M62.4928 99.4784C57.484 104.467 54.5578 109.683 58.5087 120.454C52.2476 110.816 53.955 100.612 58.5085 95.5101C66.6011 86.4425 90.952 68.8659 103.474 61.4962C113.492 55.6004 126.241 46.7568 139.902 56.961C124.534 51.292 117.704 59.2286 110.873 63.1969C102.632 67.9852 68.7538 93.2425 62.4928 99.4784Z" fill="white"/>
</g>
<defs>
<filter id="filter0_f_112_3618" x="-26.8795" y="-32.1004" width="317.771" height="311.42" filterUnits="userSpaceOnUse" color-interpolation-filters="sRGB">
<feFlood flood-opacity="0" result="BackgroundImageFix"/>
<feBlend mode="normal" in="SourceGraphic" in2="BackgroundImageFix" result="shape"/>
<feGaussianBlur stdDeviation="5.40971" result="effect1_foregroundBlur_112_3618"/>
</filter>
<filter id="filter1_f_112_3618" x="49.0185" y="46.8815" width="96.2926" height="78.9818" filterUnits="userSpaceOnUse" color-interpolation-filters="sRGB">
<feFlood flood-opacity="0" result="BackgroundImageFix"/>
<feBlend mode="normal" in="SourceGraphic" in2="BackgroundImageFix" result="shape"/>
<feGaussianBlur stdDeviation="2.70486" result="effect1_foregroundBlur_112_3618"/>
</filter>
<linearGradient id="paint0_linear_112_3618" x1="128.353" y1="-29.1954" x2="128.353" y2="48.8249" gradientUnits="userSpaceOnUse">
<stop offset="0.40004"/>
<stop offset="0.770751" stop-opacity="0"/>
</linearGradient>
<linearGradient id="paint1_linear_112_3618" x1="176.262" y1="196.272" x2="176.275" y2="252.046" gradientUnits="userSpaceOnUse">
<stop stop-opacity="0"/>
<stop offset="0.44519"/>
</linearGradient>
<linearGradient id="paint2_linear_112_3618" x1="52.2433" y1="103.558" x2="6.82284" y2="87.4543" gradientUnits="userSpaceOnUse">
<stop offset="0.487821" stop-opacity="0"/>
<stop offset="1"/>
</linearGradient>
<linearGradient id="paint3_linear_112_3618" x1="216.761" y1="109.73" x2="217.402" y2="150.48" gradientUnits="userSpaceOnUse">
<stop stop-opacity="0"/>
<stop offset="1"/>
</linearGradient>
<linearGradient id="paint4_linear_112_3618" x1="48.7705" y1="337.412" x2="48.6781" y2="291.64" gradientUnits="userSpaceOnUse">
<stop stop-opacity="0"/>
<stop offset="0.482933"/>
</linearGradient>
</defs>
</svg>
