<svg width="256" height="256" viewBox="0 0 256 256" fill="none" xmlns="http://www.w3.org/2000/svg">
<metadata>
  <rdf:RDF xmlns:rdf="http://www.w3.org/1999/02/22-rdf-syntax-ns#"
            xmlns:dc="http://purl.org/dc/elements/1.1/">
    <rdf:Description>
      <dc:title>swrpg-online.com art asset</dc:title>
      <dc:creator>Joshua Ziggas</dc:creator>
      <dc:rights>CC BY-NC-SA 4.0 - https://github.com/swrpg-online/art</dc:rights>
    </rdf:Description>
  </rdf:RDF>
</metadata>
<desc>
  wrpg-online.com SWRPG Dice Asset
  Created by: Joshua Ziggas
  Source: https://github.com/swrpg-online/art
  License: CC BY-NC-SA 4.0
</desc><mask id="mask0_112_3124" style="mask-type:alpha" maskUnits="userSpaceOnUse" x="10" y="0" width="237" height="256">
<path d="M224.91 60.2803L150.531 7.28962C136.792 -2.49863 118.338 -2.42293 104.68 7.47773L31.8161 60.296C23.7755 66.1246 18.6774 75.1707 17.8556 85.0677L10.4831 173.859C9.14473 189.977 17.8216 205.268 32.3449 212.386L112.644 251.739C122.046 256.346 133.044 256.376 142.471 251.82L224.23 212.3C238.838 205.239 247.602 189.923 246.289 173.75L239.102 85.276C238.289 75.2589 233.095 66.1118 224.91 60.2803Z" fill="#CFCFCF"/>
</mask>
<g mask="url(#mask0_112_3124)">
<rect width="256" height="256" fill="#F1F1F1"/>
<g style="mix-blend-mode:multiply" filter="url(#filter0_f_112_3124)">
<mask id="mask1_112_3124" style="mask-type:alpha" maskUnits="userSpaceOnUse" x="1" y="-10" width="255" height="275">
<path fill-rule="evenodd" clip-rule="evenodd" d="M152.286 -1.73761L232.217 55.1628C241.013 61.4246 246.595 71.2466 247.469 82.0028L255.192 177.005C256.604 194.371 247.185 210.817 231.486 218.399L143.625 260.834C133.494 265.727 121.674 265.695 111.57 260.747L25.277 218.491C9.66957 210.848 0.344966 194.429 1.7832 177.121L9.70613 81.779C10.5892 71.1519 16.0679 61.4383 24.7088 55.1797L103.012 -1.53561C117.69 -12.1668 137.522 -12.2481 152.286 -1.73761ZM138.619 210.457C134.337 217.848 123.663 217.848 119.381 210.457L57.5143 103.688C53.2204 96.2776 58.5682 87 67.1337 87H190.866C199.432 87 204.779 96.2776 200.485 103.688L138.619 210.457Z" fill="black"/>
</mask>
<g mask="url(#mask1_112_3124)">
<path d="M224.91 60.2804L150.531 7.28974C136.792 -2.49851 118.338 -2.42281 104.68 7.47785L31.8161 60.2961C23.7755 66.1247 18.6774 75.1708 17.8556 85.0678L10.4831 173.859C9.14473 189.977 17.8216 205.268 32.3449 212.386L112.644 251.739C122.046 256.346 133.044 256.376 142.471 251.82L224.23 212.301C238.838 205.239 247.602 189.923 246.289 173.751L239.102 85.2762C238.289 75.2591 233.095 66.1119 224.91 60.2804Z" fill="#CFCFCF"/>
<path d="M204.7 84H53.3C43.2078 84 38.1969 73.0586 45.3921 66.7329L110.15 9.80008C120.433 0.759757 136.916 0.729605 147.24 9.73224L212.575 66.704C219.815 73.0173 214.814 84 204.7 84Z" fill="#E0E0E0"/>
<path d="M51.0667 91.529L123.602 217.163C128.437 225.538 121.573 235.045 112.769 232.167L33.5346 206.263C20.953 202.15 13.0306 188.487 15.7075 175.519L32.6481 93.4499C34.5254 84.3556 46.2209 83.1358 51.0667 91.529Z" fill="#D8D8D8"/>
<path d="M206.995 88.7411L131.61 219.312C126.585 228.016 133.43 237.729 142.412 234.642L223.255 206.851C236.092 202.438 244.325 188.238 241.78 174.898L225.68 90.4736C223.896 81.1182 212.031 80.0181 206.995 88.7411Z" fill="#C1C1C1"/>
<path d="M128.485 230.5V263.061L104.346 256.908L21.7533 217.387L12.9971 206.501L15.6003 194.431C18.8346 198.455 26.6284 206.832 31.9294 208.157C38.5558 209.814 109.552 221.034 118.072 223.164C124.887 224.868 127.853 228.765 128.485 230.5Z" fill="#8D8D8D"/>
<path d="M128.484 231V263.061L152.623 256.908L235.215 217.387L243.972 206.501L241.368 194.431C238.134 198.455 230.34 206.832 225.039 208.157C218.413 209.814 147.417 221.534 138.897 223.664C132.081 225.368 129.115 229.265 128.484 231Z" fill="#737373"/>
<path d="M212.647 84.3141L243.297 64.418L250.038 88.3993L257.107 179.687L252.058 192.713L240.304 196.494C242.171 191.681 245.529 180.743 244.026 175.489C242.148 168.922 213.915 105.443 211.5 97C209.568 90.2455 211.459 85.7284 212.647 84.3141Z" fill="#828282"/>
<path d="M211.5 83.5L243.297 64.418L225.899 46.5898L150.376 -5.17674L136.571 -7.3168L127.42 0.972334C132.521 1.76174 143.673 4.3226 147.471 8.25082C152.219 13.1611 193.836 71.8372 199.94 78.1504C204.824 83.201 209.681 83.8212 211.5 83.5Z" fill="#9E9E9E"/>
<path d="M44.8524 83.8141L13.9433 64.418L7.2026 88.3993L0.132831 179.687L5.18237 192.713L16.9364 196.494C15.0694 191.681 11.7111 180.743 13.2139 175.489C15.0924 168.922 43.5841 104.943 45.9994 96.5C47.9316 89.7455 46.0398 85.2284 44.8524 83.8141Z" fill="#B1B1B1"/>
<path d="M46.4404 83.8496L13.9441 64.418L31.3422 46.5898L106.865 -5.17674L120.671 -7.3168L129.821 0.972334C124.72 1.76174 113.568 4.3226 109.77 8.25082C105.022 13.1611 64.1046 72.1868 58.0002 78.5C53.1168 83.5506 48.2589 84.1708 46.4404 83.8496Z" fill="#B6B6B6"/>
</g>
</g>
</g>
<g filter="url(#filter1_f_112_3124)">
<path d="M72.7423 89H122C110.497 90.3425 85.9103 93.2575 79.5869 94.1781C71.6827 95.3288 66.0919 98.2055 68.5981 106.452C70.6031 113.049 83.9568 144.233 90.383 159L61.6354 107.833C56.8952 99.3957 63.0262 89 72.7423 89Z" fill="url(#paint0_radial_112_3124)"/>
</g>
<path d="M128.026 165C121.177 165 116.26 163.639 113.275 160.917C110.289 158.195 108.767 153.673 108.709 147.351C108.68 142.405 108.65 137.868 108.621 133.741C108.592 129.615 108.577 125.956 108.577 122.766C108.577 119.576 108.592 116.956 108.621 114.907C108.65 112.829 108.68 111.38 108.709 110.561C108.972 104.59 110.758 100.171 114.065 97.3024C117.402 94.4341 122.026 93 127.938 93C134.084 93 138.782 94.522 142.031 97.5659C145.28 100.61 146.992 104.707 147.167 109.859C147.197 110.473 147.211 111.015 147.211 111.483C147.241 111.951 147.241 112.478 147.211 113.063C147.211 113.649 147.197 114.424 147.167 115.39H133.821C133.909 114.454 133.953 113.693 133.953 113.107C133.982 112.493 133.982 111.834 133.953 111.132C133.923 110.4 133.88 109.39 133.821 108.102C133.792 106.785 133.309 105.732 132.372 104.941C131.465 104.122 130.016 103.712 128.026 103.712C126.094 103.712 124.645 104.093 123.68 104.854C122.714 105.615 122.202 106.698 122.143 108.102C122.055 110.473 121.967 113.093 121.88 115.961C121.821 118.8 121.792 121.8 121.792 124.961H124.163C125.011 123.498 126.343 122.283 128.158 121.317C130.002 120.351 132.123 119.868 134.523 119.868C139.499 119.868 142.909 121.039 144.753 123.38C146.626 125.693 147.606 129.556 147.694 134.971C147.723 136.815 147.738 138.337 147.738 139.537C147.767 140.737 147.767 141.922 147.738 143.093C147.738 144.234 147.694 145.654 147.606 147.351C147.255 153.673 145.602 158.195 142.645 160.917C139.719 163.639 134.845 165 128.026 165ZM128.114 154.288C130.104 154.288 131.597 153.907 132.592 153.146C133.616 152.356 134.143 151.244 134.172 149.81C134.231 148.259 134.275 146.854 134.304 145.595C134.333 144.307 134.363 143.093 134.392 141.951C134.421 140.81 134.436 139.698 134.436 138.615C134.436 137.532 134.406 136.434 134.348 135.322C134.319 133.829 133.748 132.702 132.636 131.941C131.553 131.151 130.133 130.756 128.377 130.756C126.416 130.756 124.836 131.137 123.636 131.898C122.465 132.659 121.85 133.741 121.792 135.146C121.792 137.517 121.806 139.917 121.836 142.346C121.894 144.776 121.967 147.205 122.055 149.634C122.114 151.127 122.655 152.283 123.68 153.102C124.704 153.893 126.182 154.288 128.114 154.288Z" fill="black"/>
<defs>
<filter id="filter0_f_112_3124" x="-8.3623" y="-17.3168" width="273.693" height="290.378" filterUnits="userSpaceOnUse" color-interpolation-filters="sRGB">
<feFlood flood-opacity="0" result="BackgroundImageFix"/>
<feBlend mode="normal" in="SourceGraphic" in2="BackgroundImageFix" result="shape"/>
<feGaussianBlur stdDeviation="5" result="effect1_foregroundBlur_112_3124"/>
</filter>
<filter id="filter1_f_112_3124" x="55" y="84" width="72" height="80" filterUnits="userSpaceOnUse" color-interpolation-filters="sRGB">
<feFlood flood-opacity="0" result="BackgroundImageFix"/>
<feBlend mode="normal" in="SourceGraphic" in2="BackgroundImageFix" result="shape"/>
<feGaussianBlur stdDeviation="2.5" result="effect1_foregroundBlur_112_3124"/>
</filter>
<radialGradient id="paint0_radial_112_3124" cx="0" cy="0" r="1" gradientUnits="userSpaceOnUse" gradientTransform="translate(68.0198 95.7123) rotate(44.0247) scale(47.1885 41.5706)">
<stop stop-color="white"/>
<stop offset="1" stop-color="white" stop-opacity="0"/>
</radialGradient>
</defs>
</svg>
