<svg width="256" height="256" viewBox="0 0 256 256" fill="none" xmlns="http://www.w3.org/2000/svg">
<metadata>
  <rdf:RDF xmlns:rdf="http://www.w3.org/1999/02/22-rdf-syntax-ns#"
            xmlns:dc="http://purl.org/dc/elements/1.1/">
    <rdf:Description>
      <dc:title>swrpg-online.com art asset</dc:title>
      <dc:creator>Joshua Ziggas</dc:creator>
      <dc:rights>CC BY-NC-SA 4.0 - https://github.com/swrpg-online/art</dc:rights>
    </rdf:Description>
  </rdf:RDF>
</metadata>
<desc>
  wrpg-online.com SWRPG Dice Asset
  Created by: Joshua Ziggas
  Source: https://github.com/swrpg-online/art
  License: CC BY-NC-SA 4.0
</desc><mask id="mask0_112_2889" style="mask-type:alpha" maskUnits="userSpaceOnUse" x="2" y="17" width="252" height="223">
<path d="M111.095 26.5C118.408 13.8333 136.691 13.8333 144.004 26.5L250.525 211C257.838 223.667 248.697 239.5 234.071 239.5H21.0283C6.40214 239.5 -2.73924 223.667 4.57386 211L111.095 26.5Z" fill="#D9D9D9"/>
</mask>
<g mask="url(#mask0_112_2889)">
<rect width="256" height="256" fill="#F1F1F1"/>
<g style="mix-blend-mode:multiply" filter="url(#filter0_f_112_2889)">
<path d="M279.337 102.182C279.369 87.9554 263.989 61.315 251.652 54.2295L126.366 -17.7263C114.029 -24.8118 113.988 -7.02832 126.293 14.284L251.252 230.719C263.556 252.031 278.977 260.888 279.01 246.661L279.337 102.182Z" fill="black" fill-opacity="0.25"/>
<path d="M100.333 317.894C112.425 324.879 142.655 324.879 154.747 317.894L277.547 246.95C289.639 239.964 274.524 231.232 250.339 231.232L4.74033 231.232C-19.4438 231.232 -34.5589 239.964 -22.4668 246.95L100.333 317.894Z" fill="black" fill-opacity="0.5"/>
<path d="M-26.4366 101.791C-26.4405 87.3471 -10.8069 60.2688 1.704 53.0503L128.757 -20.2571C141.268 -27.4757 141.273 -9.42066 128.766 12.242L1.75356 232.234C-10.7533 253.897 -26.392 262.92 -26.396 248.476L-26.4366 101.791Z" fill="black" fill-opacity="0.35"/>
</g>
</g>
<g clip-path="url(#clip0_112_2889)">
<path d="M98.9144 179.331L54.4683 204.992L56.7731 208.984L53.4004 211.286L44.4562 207.934L39.6928 199.683L92.9217 168.952L98.9144 179.331Z" fill="black"/>
</g>
<g clip-path="url(#clip1_112_2889)">
<path d="M157.909 177.25L171.283 184.971L181.156 167.872L189.473 172.673L213.328 204.189L205.645 217.496L174.506 199.518L171.01 205.573L162.294 200.541L165.79 194.486L152.416 186.765L157.909 177.25ZM184.263 182.618L179.999 190.004L191.474 198.403L200.896 205.439L202.048 203.443L193.894 194.211L184.263 182.618Z" fill="black"/>
</g>
<path d="M111.136 126.389C111.11 125.441 111.085 124.558 111.059 123.738C111.059 122.919 111.046 122.138 111.021 121.395C111.021 120.627 111.008 119.858 110.982 119.09C110.982 118.322 110.982 117.502 110.982 116.632C111.008 115.735 111.034 114.762 111.059 113.712C111.136 111.1 111.623 108.705 112.519 106.529C113.441 104.326 114.798 102.329 116.591 100.536C118.384 98.7176 120.637 97.0914 123.352 95.6573L128.73 92.8146C130.497 91.8926 131.637 90.7658 132.149 89.4341C132.661 88.1024 132.956 86.8987 133.032 85.8231C133.109 84.5427 133.16 83.1597 133.186 81.6744C133.212 80.1634 133.186 78.7548 133.109 77.4488C133.032 76.2451 132.559 75.2975 131.688 74.6061C130.817 73.889 129.498 73.5305 127.731 73.5305C126.015 73.5305 124.773 73.8762 124.005 74.5677C123.262 75.2335 122.865 76.0914 122.814 77.1414C122.737 79.2158 122.686 81.0469 122.66 82.6347C122.66 84.1969 122.712 85.9768 122.814 87.9744H111.213C111.162 86.9756 111.123 85.9768 111.098 84.978C111.072 83.9536 111.046 82.9805 111.021 82.0585C111.021 81.1366 111.034 80.2914 111.059 79.5231C111.29 74.017 112.698 70.0859 115.285 67.7298C117.897 65.3481 122.046 64.1573 127.731 64.1573C131.752 64.1573 134.979 64.6823 137.412 65.7323C139.87 66.7567 141.676 68.3957 142.828 70.6494C143.981 72.903 144.634 75.8609 144.787 79.5231C144.813 80.1378 144.826 80.714 144.826 81.2518C144.851 81.764 144.864 82.2634 144.864 82.75C144.864 83.2109 144.851 83.6847 144.826 84.1713C144.826 84.6579 144.813 85.1829 144.787 85.7463C144.685 88.589 144.134 91.0603 143.135 93.1603C142.137 95.2347 140.792 97.0402 139.102 98.5768C137.412 100.113 135.465 101.471 133.263 102.649L127.04 105.952C125.99 106.516 125.157 107.271 124.543 108.219C123.954 109.141 123.531 110.101 123.275 111.1C123.019 112.099 122.891 112.969 122.891 113.712V116.248H143.865V126.389H111.136Z" fill="black"/>
<defs>
<filter id="filter0_f_112_2889" x="-46.7227" y="-41.8732" width="348.525" height="385.006" filterUnits="userSpaceOnUse" color-interpolation-filters="sRGB">
<feFlood flood-opacity="0" result="BackgroundImageFix"/>
<feBlend mode="normal" in="SourceGraphic" in2="BackgroundImageFix" result="shape"/>
<feGaussianBlur stdDeviation="10" result="effect1_foregroundBlur_112_2889"/>
</filter>
<clipPath id="clip0_112_2889">
<rect width="70" height="70" fill="white" transform="translate(58 239.622) rotate(-120)"/>
</clipPath>
<clipPath id="clip1_112_2889">
<rect width="70" height="70" fill="white" transform="translate(232.622 179) rotate(120)"/>
</clipPath>
</defs>
</svg>
