<svg width="256" height="256" viewBox="0 0 256 256" fill="none" xmlns="http://www.w3.org/2000/svg">
<metadata>
  <rdf:RDF xmlns:rdf="http://www.w3.org/1999/02/22-rdf-syntax-ns#"
            xmlns:dc="http://purl.org/dc/elements/1.1/">
    <rdf:Description>
      <dc:title>swrpg-online.com art asset</dc:title>
      <dc:creator>Joshua Ziggas</dc:creator>
      <dc:rights>CC BY-NC-SA 4.0 - https://github.com/swrpg-online/art</dc:rights>
    </rdf:Description>
  </rdf:RDF>
</metadata>
<desc>
  wrpg-online.com SWRPG Dice Asset
  Created by: Joshua Ziggas
  Source: https://github.com/swrpg-online/art
  License: CC BY-NC-SA 4.0
</desc><mask id="mask0_112_2890" style="mask-type:alpha" maskUnits="userSpaceOnUse" x="2" y="17" width="252" height="223">
<path d="M111.095 26.5C118.408 13.8333 136.691 13.8333 144.004 26.5L250.525 211C257.838 223.667 248.697 239.5 234.071 239.5H21.0283C6.40214 239.5 -2.73924 223.667 4.57386 211L111.095 26.5Z" fill="#D9D9D9"/>
</mask>
<g mask="url(#mask0_112_2890)">
<rect width="256" height="256" fill="#F1F1F1"/>
<g style="mix-blend-mode:multiply" filter="url(#filter0_f_112_2890)">
<path d="M279.337 102.182C279.369 87.9554 263.989 61.315 251.652 54.2295L126.366 -17.7263C114.029 -24.8118 113.988 -7.02832 126.293 14.284L251.252 230.719C263.556 252.031 278.977 260.888 279.01 246.661L279.337 102.182Z" fill="black" fill-opacity="0.25"/>
<path d="M100.333 317.894C112.425 324.879 142.655 324.879 154.747 317.894L277.547 246.95C289.639 239.964 274.524 231.232 250.339 231.232L4.74033 231.232C-19.4438 231.232 -34.5589 239.964 -22.4668 246.95L100.333 317.894Z" fill="black" fill-opacity="0.5"/>
<path d="M-26.4366 101.791C-26.4405 87.3471 -10.8069 60.2688 1.704 53.0503L128.757 -20.2571C141.268 -27.4757 141.273 -9.42066 128.766 12.242L1.75356 232.234C-10.7533 253.897 -26.392 262.92 -26.396 248.476L-26.4366 101.791Z" fill="black" fill-opacity="0.35"/>
</g>
</g>
<g clip-path="url(#clip0_112_2890)">
<path d="M191.178 128.084L153.081 150.08L155.057 153.501L152.166 155.475L144.499 152.601L140.416 145.529L186.041 119.188L191.178 128.084Z" fill="black"/>
</g>
<g clip-path="url(#clip1_112_2890)">
<path d="M65.9214 125.843L77.3846 132.461L85.8468 117.804L92.9756 121.92L113.423 148.933L106.838 160.34L80.1471 144.93L77.1508 150.12L69.6797 145.806L72.676 140.616L61.2128 133.998L65.9214 125.843ZM88.5105 130.444L84.8556 136.774L94.6908 143.974L102.767 150.005L103.755 148.294L96.7652 140.381L88.5105 130.444Z" fill="black"/>
</g>
<path d="M111.545 229.043C111.523 228.243 111.501 227.497 111.479 226.805C111.479 226.113 111.468 225.454 111.447 224.827C111.447 224.178 111.436 223.53 111.414 222.881C111.414 222.233 111.414 221.541 111.414 220.806C111.436 220.049 111.457 219.228 111.479 218.341C111.545 216.136 111.962 214.115 112.731 212.277C113.521 210.418 114.684 208.732 116.221 207.219C117.757 205.684 119.689 204.311 122.016 203.1L126.626 200.701C128.14 199.922 129.117 198.971 129.556 197.847C129.995 196.723 130.248 195.707 130.314 194.799C130.379 193.718 130.423 192.55 130.445 191.297C130.467 190.021 130.445 188.832 130.379 187.729C130.314 186.713 129.907 185.914 129.161 185.33C128.415 184.724 127.284 184.422 125.77 184.422C124.299 184.422 123.234 184.714 122.576 185.297C121.939 185.859 121.599 186.584 121.555 187.47C121.489 189.221 121.445 190.767 121.423 192.107C121.423 193.426 121.467 194.928 121.555 196.615H111.611C111.567 195.772 111.534 194.928 111.512 194.085C111.49 193.221 111.468 192.399 111.447 191.621C111.447 190.843 111.457 190.129 111.479 189.481C111.677 184.833 112.884 181.514 115.101 179.525C117.34 177.515 120.897 176.509 125.77 176.509C129.216 176.509 131.982 176.953 134.067 177.839C136.175 178.704 137.722 180.087 138.71 181.99C139.698 183.892 140.257 186.389 140.389 189.481C140.411 189.999 140.422 190.486 140.422 190.94C140.444 191.372 140.455 191.794 140.455 192.205C140.455 192.594 140.444 192.994 140.422 193.404C140.422 193.815 140.411 194.258 140.389 194.734C140.301 197.134 139.829 199.22 138.973 200.992C138.117 202.744 136.965 204.268 135.516 205.565C134.067 206.862 132.399 208.008 130.511 209.002L125.177 211.791C124.277 212.267 123.564 212.904 123.037 213.704C122.532 214.483 122.17 215.293 121.95 216.136C121.731 216.979 121.621 217.714 121.621 218.341V220.482H139.599V229.043H111.545Z" fill="black"/>
<defs>
<filter id="filter0_f_112_2890" x="-46.7227" y="-41.8732" width="348.525" height="385.006" filterUnits="userSpaceOnUse" color-interpolation-filters="sRGB">
<feFlood flood-opacity="0" result="BackgroundImageFix"/>
<feBlend mode="normal" in="SourceGraphic" in2="BackgroundImageFix" result="shape"/>
<feGaussianBlur stdDeviation="10" result="effect1_foregroundBlur_112_2890"/>
</filter>
<clipPath id="clip0_112_2890">
<rect width="60" height="60" fill="white" transform="translate(156.108 179.762) rotate(-120)"/>
</clipPath>
<clipPath id="clip1_112_2890">
<rect width="60" height="60" fill="white" transform="translate(129.961 127.343) rotate(120)"/>
</clipPath>
</defs>
</svg>
