<svg width="256" height="256" viewBox="0 0 256 256" fill="none" xmlns="http://www.w3.org/2000/svg">
<metadata>
  <rdf:RDF xmlns:rdf="http://www.w3.org/1999/02/22-rdf-syntax-ns#"
            xmlns:dc="http://purl.org/dc/elements/1.1/">
    <rdf:Description>
      <dc:title>swrpg-online.com art asset</dc:title>
      <dc:creator>Joshua Ziggas</dc:creator>
      <dc:rights>CC BY-NC-SA 4.0 - https://github.com/swrpg-online/art</dc:rights>
    </rdf:Description>
  </rdf:RDF>
</metadata>
<desc>
  wrpg-online.com SWRPG Dice Asset
  Created by: Joshua Ziggas
  Source: https://github.com/swrpg-online/art
  License: CC BY-NC-SA 4.0
</desc><mask id="mask0_112_2893" style="mask-type:alpha" maskUnits="userSpaceOnUse" x="2" y="17" width="252" height="223">
<path d="M111.095 26.5C118.408 13.8333 136.691 13.8333 144.004 26.5L250.525 211C257.838 223.667 248.697 239.5 234.071 239.5H21.0283C6.40214 239.5 -2.73924 223.667 4.57386 211L111.095 26.5Z" fill="#D9D9D9"/>
</mask>
<g mask="url(#mask0_112_2893)">
<rect width="256" height="256" fill="#F1F1F1"/>
<g style="mix-blend-mode:multiply" filter="url(#filter0_f_112_2893)">
<path d="M279.337 102.182C279.369 87.9554 263.989 61.315 251.652 54.2295L126.366 -17.7263C114.029 -24.8118 113.988 -7.02832 126.293 14.284L251.252 230.719C263.556 252.031 278.977 260.888 279.01 246.661L279.337 102.182Z" fill="black" fill-opacity="0.25"/>
<path d="M100.333 317.894C112.425 324.879 142.655 324.879 154.747 317.894L277.547 246.95C289.639 239.964 274.524 231.232 250.339 231.232L4.74033 231.232C-19.4438 231.232 -34.5589 239.964 -22.4668 246.95L100.333 317.894Z" fill="black" fill-opacity="0.5"/>
<path d="M-26.4366 101.791C-26.4405 87.3471 -10.8069 60.2688 1.704 53.0503L128.757 -20.2571C141.268 -27.4757 141.273 -9.42066 128.766 12.242L1.75356 232.234C-10.7533 253.897 -26.392 262.92 -26.396 248.476L-26.4366 101.791Z" fill="black" fill-opacity="0.35"/>
</g>
</g>
<g clip-path="url(#clip0_112_2893)">
<path d="M190.353 125.265C192.987 129.828 194.008 133.637 193.414 136.691C192.82 139.746 190.503 142.516 186.463 145.001C185.79 145.415 185.278 145.736 184.928 145.963C184.566 146.172 184.205 146.38 183.844 146.589C183.472 146.779 182.938 147.061 182.243 147.437L177.205 138.712L182.566 135.617C183.649 134.991 184.277 134.147 184.45 133.084C184.603 132.033 184.295 130.841 183.527 129.511C182.737 128.142 181.859 127.28 180.894 126.925C179.898 126.562 178.872 126.673 177.816 127.257C176.539 127.944 175.416 128.567 174.446 129.126C173.466 129.667 172.555 130.218 171.713 130.78C170.72 131.43 169.999 132.29 169.552 133.359C169.094 134.409 169.389 135.798 170.436 137.525L173.819 143.252L166.765 147.629L150.369 145.309L158.897 160.08L151.369 164.426L137.079 139.675L144.445 135.574L161.038 138.236C159.474 134.957 159.126 132.028 159.994 129.448C160.851 126.849 163.154 124.341 166.904 121.923C167.292 121.673 167.667 121.444 168.028 121.236C168.359 121.019 168.696 120.812 169.038 120.615C169.38 120.417 169.76 120.198 170.178 119.956C170.578 119.726 171.045 119.481 171.58 119.223C175.785 117.023 179.342 116.402 182.252 117.358C185.15 118.295 187.851 120.931 190.353 125.265Z" fill="black"/>
</g>
<g clip-path="url(#clip1_112_2893)">
<path d="M72.9075 112.353C73.6219 112.74 74.2887 113.099 74.908 113.432C75.5164 113.783 76.1017 114.108 76.6639 114.407C77.2343 114.737 77.8101 115.056 78.3913 115.367C78.9616 115.696 79.57 116.047 80.2163 116.42C80.8707 116.823 81.5821 117.26 82.3506 117.729C84.2567 118.905 85.8256 120.292 87.0574 121.891C88.2971 123.519 89.1982 125.383 89.7606 127.482C90.3421 129.592 90.5834 131.962 90.4846 134.591L90.2898 139.802C90.2169 141.509 90.5649 142.837 91.3339 143.788C92.103 144.739 92.8702 145.474 93.6357 145.992C94.5533 146.598 95.5579 147.228 96.6495 147.884C97.7602 148.55 98.8167 149.135 99.8192 149.638C100.746 150.097 101.652 150.151 102.538 149.801C103.444 149.462 104.275 148.637 105.033 147.325C105.768 146.051 106.044 144.981 105.86 144.114C105.684 143.278 105.217 142.615 104.459 142.127C102.953 141.181 101.615 140.359 100.448 139.659C99.288 138.99 97.9448 138.265 96.4181 137.485L101.39 128.873C102.153 129.263 102.911 129.663 103.664 130.072C104.435 130.492 105.168 130.89 105.864 131.266C106.548 131.661 107.17 132.033 107.729 132.381C111.718 134.912 114.032 137.642 114.673 140.572C115.321 143.532 114.427 147.122 111.99 151.342C110.267 154.327 108.495 156.497 106.672 157.853C104.858 159.239 102.868 159.877 100.701 159.766C98.5344 159.656 96.0588 158.873 93.2745 157.418C92.8072 157.173 92.374 156.936 91.9748 156.705C91.5836 156.505 91.2074 156.3 90.8462 156.092C90.504 155.894 90.1578 155.682 89.8076 155.454C89.4464 155.245 89.0622 155.011 88.655 154.75C86.5887 153.456 84.9902 151.988 83.8594 150.347C82.7476 148.716 81.9836 146.945 81.5674 145.031C81.1511 143.118 80.9777 141.092 81.0472 138.952L81.2619 132.917C81.2937 131.896 81.0896 130.954 80.6496 130.092C80.2177 129.259 79.6859 128.534 79.0543 127.916C78.4226 127.298 77.8311 126.83 77.2798 126.511L75.3978 125.425L66.4088 140.994L58.8807 136.648L72.9075 112.353Z" fill="black"/>
</g>
<path d="M126.721 228.358V215.322H109.796V207.215L122.967 176.473H136.138V206.826H142.131V215.322H136.138V228.358H126.721ZM119.411 206.826H126.721L128.038 194.892L129.223 185.034H127.248L123.889 194.892L119.411 206.826Z" fill="black"/>
<defs>
<filter id="filter0_f_112_2893" x="-46.7227" y="-41.8732" width="348.525" height="385.006" filterUnits="userSpaceOnUse" color-interpolation-filters="sRGB">
<feFlood flood-opacity="0" result="BackgroundImageFix"/>
<feBlend mode="normal" in="SourceGraphic" in2="BackgroundImageFix" result="shape"/>
<feGaussianBlur stdDeviation="10" result="effect1_foregroundBlur_112_2893"/>
</filter>
<clipPath id="clip0_112_2893">
<rect width="60" height="60" fill="white" transform="translate(156.108 179.762) rotate(-120)"/>
</clipPath>
<clipPath id="clip1_112_2893">
<rect width="60" height="60" fill="white" transform="translate(129.961 127.343) rotate(120)"/>
</clipPath>
</defs>
</svg>
