<svg width="256" height="256" viewBox="0 0 256 256" fill="none" xmlns="http://www.w3.org/2000/svg">
<metadata>
  <rdf:RDF xmlns:rdf="http://www.w3.org/1999/02/22-rdf-syntax-ns#"
            xmlns:dc="http://purl.org/dc/elements/1.1/">
    <rdf:Description>
      <dc:title>swrpg-online.com art asset</dc:title>
      <dc:creator>Joshua Ziggas</dc:creator>
      <dc:rights>CC BY-NC-SA 4.0 - https://github.com/swrpg-online/art</dc:rights>
    </rdf:Description>
  </rdf:RDF>
</metadata>
<desc>
  wrpg-online.com SWRPG Dice Asset
  Created by: Joshua Ziggas
  Source: https://github.com/swrpg-online/art
  License: CC BY-NC-SA 4.0
</desc><mask id="mask0_112_5497" style="mask-type:alpha" maskUnits="userSpaceOnUse" x="28" y="28" width="200" height="200">
<path d="M28 52C28 38.7452 38.7452 28 52 28H128H204C217.255 28 228 38.7452 228 52V128V204C228 217.255 217.255 228 204 228H128H52C38.7452 228 28 217.255 28 204V128V52Z" fill="#7EBCD8"/>
</mask>
<g mask="url(#mask0_112_5497)">
<rect width="256" height="256" fill="#F1F1F1"/>
<g style="mix-blend-mode:plus-lighter">
<rect x="28" y="28" width="200" height="200" fill="url(#paint0_linear_112_5497)"/>
</g>
<g filter="url(#filter0_f_112_5497)">
<path fill-rule="evenodd" clip-rule="evenodd" d="M239 17H17V239H239V17ZM128 228.909C183.731 228.909 228.909 183.731 228.909 128C228.909 72.2694 183.731 27.0909 128 27.0909C72.2694 27.0909 27.0909 72.2694 27.0909 128C27.0909 183.731 72.2694 228.909 128 228.909Z" fill="url(#paint1_angular_112_5497)"/>
</g>
</g>
<path d="M128.036 179.3C118.277 179.3 111.27 177.361 107.016 173.482C102.762 169.603 100.593 163.159 100.509 154.15C100.468 147.102 100.426 140.637 100.384 134.757C100.343 128.876 100.322 123.662 100.322 119.116C100.322 114.57 100.343 110.837 100.384 107.918C100.426 104.957 100.468 102.892 100.509 101.724C100.885 93.2161 103.429 86.9182 108.142 82.8309C112.897 78.7436 119.486 76.7 127.911 76.7C136.67 76.7 143.364 78.8687 147.993 83.2063C152.623 87.5439 155.063 93.3829 155.313 100.723C155.355 101.599 155.375 102.371 155.375 103.038C155.417 103.705 155.417 104.456 155.375 105.29C155.375 106.124 155.355 107.23 155.313 108.606H136.294C136.419 107.271 136.482 106.187 136.482 105.353C136.524 104.477 136.524 103.539 136.482 102.538C136.44 101.495 136.378 100.056 136.294 98.2209C136.253 96.3441 135.564 94.8426 134.23 93.7165C132.937 92.5487 130.872 91.9648 128.036 91.9648C125.284 91.9648 123.219 92.507 121.843 93.5914C120.466 94.6758 119.737 96.219 119.653 98.2209C119.528 101.599 119.403 105.332 119.278 109.419C119.194 113.465 119.153 117.74 119.153 122.244H122.531C123.74 120.159 125.638 118.428 128.224 117.052C130.852 115.675 133.875 114.987 137.295 114.987C144.386 114.987 149.244 116.656 151.872 119.992C154.541 123.287 155.938 128.792 156.064 136.508C156.105 139.136 156.126 141.305 156.126 143.015C156.168 144.725 156.168 146.414 156.126 148.082C156.126 149.709 156.064 151.731 155.938 154.15C155.438 163.159 153.082 169.603 148.869 173.482C144.698 177.361 137.754 179.3 128.036 179.3ZM128.161 164.035C130.998 164.035 133.125 163.493 134.543 162.408C136.002 161.282 136.753 159.698 136.795 157.654C136.878 155.443 136.941 153.441 136.983 151.648C137.024 149.813 137.066 148.082 137.108 146.455C137.149 144.829 137.17 143.244 137.17 141.701C137.17 140.158 137.128 138.594 137.045 137.009C137.003 134.882 136.19 133.276 134.605 132.192C133.062 131.065 131.039 130.502 128.537 130.502C125.742 130.502 123.49 131.045 121.78 132.129C120.112 133.213 119.236 134.757 119.153 136.758C119.153 140.137 119.173 143.557 119.215 147.018C119.299 150.48 119.403 153.942 119.528 157.404C119.611 159.531 120.383 161.178 121.843 162.346C123.303 163.472 125.409 164.035 128.161 164.035Z" fill="black"/>
<g filter="url(#filter1_f_112_5497)">
<path d="M54.6822 87.8174C46.6259 95.7643 46.0504 129.917 46.7697 146C42.2358 116.37 41.274 83.6569 59.7175 64.5191C77.813 45.7423 110.789 41.6971 141 47.3734C123.017 46.6638 96.4024 50.2116 86.332 57.307C76.2616 64.4024 64.7526 77.8838 54.6822 87.8174Z" fill="url(#paint2_radial_112_5497)"/>
</g>
<defs>
<filter id="filter0_f_112_5497" x="1.31818" y="1.31818" width="253.364" height="253.364" filterUnits="userSpaceOnUse" color-interpolation-filters="sRGB">
<feFlood flood-opacity="0" result="BackgroundImageFix"/>
<feBlend mode="normal" in="SourceGraphic" in2="BackgroundImageFix" result="shape"/>
<feGaussianBlur stdDeviation="7.84091" result="effect1_foregroundBlur_112_5497"/>
</filter>
<filter id="filter1_f_112_5497" x="38.3182" y="39.3182" width="108.364" height="112.364" filterUnits="userSpaceOnUse" color-interpolation-filters="sRGB">
<feFlood flood-opacity="0" result="BackgroundImageFix"/>
<feBlend mode="normal" in="SourceGraphic" in2="BackgroundImageFix" result="shape"/>
<feGaussianBlur stdDeviation="2.84091" result="effect1_foregroundBlur_112_5497"/>
</filter>
<linearGradient id="paint0_linear_112_5497" x1="28" y1="28" x2="228" y2="228" gradientUnits="userSpaceOnUse">
<stop stop-color="white" stop-opacity="0"/>
<stop offset="0.655" stop-color="white" stop-opacity="0.05"/>
</linearGradient>
<radialGradient id="paint1_angular_112_5497" cx="0" cy="0" r="1" gradientUnits="userSpaceOnUse" gradientTransform="translate(128 128) rotate(45) scale(141.588)">
<stop stop-opacity="0.5"/>
<stop offset="0.253046" stop-opacity="0.35"/>
<stop offset="0.502899" stop-opacity="0.15"/>
<stop offset="0.753407" stop-opacity="0.25"/>
<stop offset="1" stop-opacity="0.5"/>
</radialGradient>
<radialGradient id="paint2_radial_112_5497" cx="0" cy="0" r="1" gradientUnits="userSpaceOnUse" gradientTransform="translate(66.2988 67.2406) scale(67.6157 63.1855)">
<stop offset="0.29" stop-color="white"/>
<stop offset="0.415" stop-color="white" stop-opacity="0.5"/>
<stop offset="1" stop-color="white" stop-opacity="0"/>
</radialGradient>
</defs>
</svg>
