<svg width="256" height="256" viewBox="0 0 256 256" fill="none" xmlns="http://www.w3.org/2000/svg">
<metadata>
  <rdf:RDF xmlns:rdf="http://www.w3.org/1999/02/22-rdf-syntax-ns#"
            xmlns:dc="http://purl.org/dc/elements/1.1/">
    <rdf:Description>
      <dc:title>swrpg-online.com art asset</dc:title>
      <dc:creator>Joshua Ziggas</dc:creator>
      <dc:rights>CC BY-NC-SA 4.0 - https://github.com/swrpg-online/art</dc:rights>
    </rdf:Description>
  </rdf:RDF>
</metadata>
<desc>
  wrpg-online.com SWRPG Dice Asset
  Created by: Joshua Ziggas
  Source: https://github.com/swrpg-online/art
  License: CC BY-NC-SA 4.0
</desc><mask id="mask0_112_5012" style="mask-type:alpha" maskUnits="userSpaceOnUse" x="10" y="0" width="237" height="256">
<path d="M100.602 7.4368C117.776 -2.47893 138.936 -2.47893 156.111 7.4368L218.82 43.6421C235.995 53.5579 246.575 71.8829 246.575 91.7144V164.125C246.575 183.956 235.995 202.281 218.82 212.197L156.111 248.403C138.936 258.318 117.776 258.318 100.602 248.403L37.8922 212.197C20.7177 202.281 10.1377 183.956 10.1377 164.125V91.7144C10.1377 71.8829 20.7177 53.5578 37.8922 43.6421L100.602 7.4368Z" fill="black"/>
</mask>
<g mask="url(#mask0_112_5012)">
<rect width="256" height="256" fill="#F1F1F1"/>
<mask id="mask1_112_5012" style="mask-type:alpha" maskUnits="userSpaceOnUse" x="10" y="0" width="237" height="256">
<path d="M100.602 7.4368C117.776 -2.47893 138.936 -2.47893 156.111 7.4368L218.82 43.6421C235.995 53.5579 246.575 71.8829 246.575 91.7144V164.125C246.575 183.956 235.995 202.281 218.82 212.197L156.111 248.403C138.936 258.318 117.776 258.318 100.602 248.403L37.8922 212.197C20.7177 202.281 10.1377 183.956 10.1377 164.125V91.7144C10.1377 71.8829 20.7177 53.5578 37.8922 43.6421L100.602 7.4368Z" fill="#9B46E0"/>
</mask>
<g mask="url(#mask1_112_5012)">
<g filter="url(#filter0_f_112_5012)">
<mask id="mask2_112_5012" style="mask-type:alpha" maskUnits="userSpaceOnUse" x="-1" y="-13" width="259" height="280">
<path fill-rule="evenodd" clip-rule="evenodd" d="M158.903 -4.86089C140.09 -15.713 116.91 -15.713 98.0969 -4.86089L29.4031 34.7635C10.5896 45.6157 -1 65.6713 -1 87.3756V166.624C-1 188.329 10.5896 208.384 29.4031 219.236L98.0969 258.861C116.91 269.713 140.09 269.713 158.903 258.861L227.597 219.236C246.41 208.384 258 188.329 258 166.624V87.3756C258 65.6713 246.41 45.6157 227.597 34.7635L158.903 -4.86089ZM110.206 232.99C118.273 246.962 138.439 246.962 146.506 232.99L228.425 91.1025C236.491 77.1308 226.408 59.6662 210.275 59.6662L46.437 59.6662C30.3039 59.6662 20.2207 77.1308 28.2873 91.1025L110.206 232.99Z" fill="#9B46E0"/>
</mask>
<g mask="url(#mask2_112_5012)">
<path d="M151.281 -6.49614C140.934 -12.5013 115.066 -12.5013 104.719 -6.49615L-0.358358 54.4884C-10.7053 60.4936 2.22836 68 22.9223 68L233.078 68C253.772 68 266.705 60.4936 256.358 54.4884L151.281 -6.49614Z" fill="black" fill-opacity="0.25"/>
<path d="M233.108 214.558C243.28 208.689 255.99 186.674 255.987 174.931L255.954 55.6754C255.95 43.9324 243.236 51.2683 233.068 68.8801L129.806 247.735C119.638 265.347 119.642 280.026 129.813 274.157L233.108 214.558Z" fill="black" fill-opacity="0.5"/>
<path d="M22.4333 216.016C11.9128 209.946 -1.23349 187.176 -1.23013 175.03L-1.19602 51.6826C-1.19266 39.5366 11.9579 47.1242 22.4749 65.3403L129.28 250.332C139.797 268.548 139.793 283.73 129.272 277.66L22.4333 216.016Z" fill="black" fill-opacity="0.35"/>
</g>
</g>
</g>
</g>
<path d="M128.157 179.3C118.272 179.3 111.266 177.277 107.137 173.232C103.008 169.144 100.755 162.784 100.38 154.15C100.338 152.899 100.317 151.919 100.317 151.21C100.317 150.459 100.338 149.709 100.38 148.958C100.422 148.207 100.505 147.144 100.63 145.767C101.089 141.138 102.236 137.509 104.071 134.882C105.906 132.212 108.638 130.127 112.267 128.626V125.998C109.764 125.122 107.554 123.683 105.635 121.681C103.758 119.679 102.507 117.156 101.881 114.111C101.673 113.11 101.485 111.88 101.318 110.42C101.193 108.919 101.089 107.417 101.006 105.916C100.964 104.373 100.964 103.017 101.006 101.849C101.464 93.0075 103.717 86.6054 107.762 82.6432C111.808 78.681 118.606 76.7 128.157 76.7C137.416 76.7 144.152 78.6393 148.364 82.5181C152.577 86.3969 154.891 92.8407 155.308 101.849C155.35 103.017 155.329 104.373 155.246 105.916C155.204 107.417 155.1 108.919 154.933 110.42C154.808 111.88 154.641 113.11 154.433 114.111C153.807 117.156 152.535 119.679 150.616 121.681C148.74 123.683 146.55 125.122 144.048 125.998V128.751C147.384 130.252 149.991 132.358 151.868 135.069C153.786 137.739 155.058 141.263 155.684 145.642C155.934 147.394 156.059 148.895 156.059 150.147C156.059 151.356 156.018 152.691 155.934 154.15C155.517 163.076 153.181 169.499 148.927 173.419C144.715 177.34 137.791 179.3 128.157 179.3ZM128.157 164.035C131.118 164.035 133.287 163.409 134.663 162.158C136.081 160.865 136.79 159.03 136.79 156.653C136.79 155.235 136.79 153.817 136.79 152.399C136.79 150.939 136.79 149.5 136.79 148.082C136.79 146.622 136.79 145.183 136.79 143.765C136.79 141.388 136.081 139.574 134.663 138.323C133.287 137.03 131.118 136.383 128.157 136.383C125.238 136.383 123.069 137.03 121.651 138.323C120.233 139.574 119.524 141.388 119.524 143.765C119.524 145.892 119.524 148.04 119.524 150.209C119.524 152.378 119.524 154.526 119.524 156.653C119.524 159.03 120.233 160.865 121.651 162.158C123.069 163.409 125.238 164.035 128.157 164.035ZM128.157 118.491C131.035 118.491 133.183 117.865 134.601 116.614C136.061 115.321 136.79 113.486 136.79 111.108C136.79 109.148 136.79 107.188 136.79 105.228C136.79 103.226 136.79 101.266 136.79 99.347C136.79 96.9697 136.081 95.1554 134.663 93.9042C133.287 92.6113 131.118 91.9648 128.157 91.9648C125.279 91.9648 123.11 92.6113 121.651 93.9042C120.233 95.1554 119.524 96.9697 119.524 99.347C119.524 100.306 119.524 101.286 119.524 102.287C119.524 103.247 119.524 104.227 119.524 105.228C119.524 106.229 119.524 107.23 119.524 108.231C119.524 109.19 119.524 110.149 119.524 111.108C119.524 113.486 120.233 115.321 121.651 116.614C123.11 117.865 125.279 118.491 128.157 118.491Z" fill="black"/>
<g filter="url(#filter1_f_112_5012)">
<path d="M46.1416 88.8367C46.1416 104.243 68.7984 141.325 80.1267 157.94C73.8017 149.255 59.5091 128.883 52.9386 116.874C44.7256 101.864 31.6979 80.6236 39.6278 72.6938C45.9717 66.3499 71.7249 64.7639 83.8085 64.7639H148.38C174.152 64.7639 195.204 71.3721 202.19 74.6762C202.19 74.6762 171.32 69.0121 148.38 69.0121H83.8085C69.0816 69.0121 46.1416 69.5785 46.1416 88.8367Z" fill="url(#paint0_radial_112_5012)"/>
</g>
<defs>
<filter id="filter0_f_112_5012" x="-13" y="-23" width="283" height="302" filterUnits="userSpaceOnUse" color-interpolation-filters="sRGB">
<feFlood flood-opacity="0" result="BackgroundImageFix"/>
<feBlend mode="normal" in="SourceGraphic" in2="BackgroundImageFix" result="shape"/>
<feGaussianBlur stdDeviation="6" result="effect1_foregroundBlur_112_5012"/>
</filter>
<filter id="filter1_f_112_5012" x="31.4984" y="59.0997" width="176.356" height="104.504" filterUnits="userSpaceOnUse" color-interpolation-filters="sRGB">
<feFlood flood-opacity="0" result="BackgroundImageFix"/>
<feBlend mode="normal" in="SourceGraphic" in2="BackgroundImageFix" result="shape"/>
<feGaussianBlur stdDeviation="2.83209" result="effect1_foregroundBlur_112_5012"/>
</filter>
<radialGradient id="paint0_radial_112_5012" cx="0" cy="0" r="1" gradientUnits="userSpaceOnUse" gradientTransform="translate(37.1626 71.5609) rotate(34.3188) scale(171.795 304.273)">
<stop stop-color="white"/>
<stop offset="1" stop-color="white" stop-opacity="0"/>
</radialGradient>
</defs>
</svg>
