<svg width="256" height="256" viewBox="0 0 256 256" fill="none" xmlns="http://www.w3.org/2000/svg">
<metadata>
  <rdf:RDF xmlns:rdf="http://www.w3.org/1999/02/22-rdf-syntax-ns#"
            xmlns:dc="http://purl.org/dc/elements/1.1/">
    <rdf:Description>
      <dc:title>swrpg-online.com art asset</dc:title>
      <dc:creator>Joshua Ziggas</dc:creator>
      <dc:rights>CC BY-NC-SA 4.0 - https://github.com/swrpg-online/art</dc:rights>
    </rdf:Description>
  </rdf:RDF>
</metadata>
<desc>
  wrpg-online.com SWRPG Dice Asset
  Created by: Joshua Ziggas
  Source: https://github.com/swrpg-online/art
  License: CC BY-NC-SA 4.0
</desc><mask id="mask0_112_5006" style="mask-type:alpha" maskUnits="userSpaceOnUse" x="10" y="0" width="237" height="256">
<path d="M100.602 7.4368C117.776 -2.47893 138.936 -2.47893 156.111 7.4368L218.82 43.6421C235.995 53.5579 246.575 71.8829 246.575 91.7144V164.125C246.575 183.956 235.995 202.281 218.82 212.197L156.111 248.403C138.936 258.318 117.776 258.318 100.602 248.403L37.8922 212.197C20.7177 202.281 10.1377 183.956 10.1377 164.125V91.7144C10.1377 71.8829 20.7177 53.5578 37.8922 43.6421L100.602 7.4368Z" fill="black"/>
</mask>
<g mask="url(#mask0_112_5006)">
<rect width="256" height="256" fill="#F1F1F1"/>
<mask id="mask1_112_5006" style="mask-type:alpha" maskUnits="userSpaceOnUse" x="10" y="0" width="237" height="256">
<path d="M100.602 7.4368C117.776 -2.47893 138.936 -2.47893 156.111 7.4368L218.82 43.6421C235.995 53.5579 246.575 71.8829 246.575 91.7144V164.125C246.575 183.956 235.995 202.281 218.82 212.197L156.111 248.403C138.936 258.318 117.776 258.318 100.602 248.403L37.8922 212.197C20.7177 202.281 10.1377 183.956 10.1377 164.125V91.7144C10.1377 71.8829 20.7177 53.5578 37.8922 43.6421L100.602 7.4368Z" fill="#9B46E0"/>
</mask>
<g mask="url(#mask1_112_5006)">
<g filter="url(#filter0_f_112_5006)">
<mask id="mask2_112_5006" style="mask-type:alpha" maskUnits="userSpaceOnUse" x="-1" y="-13" width="259" height="280">
<path fill-rule="evenodd" clip-rule="evenodd" d="M158.903 -4.86089C140.09 -15.713 116.91 -15.713 98.0969 -4.86089L29.4031 34.7635C10.5896 45.6157 -1 65.6713 -1 87.3756V166.624C-1 188.329 10.5896 208.384 29.4031 219.236L98.0969 258.861C116.91 269.713 140.09 269.713 158.903 258.861L227.597 219.236C246.41 208.384 258 188.329 258 166.624V87.3756C258 65.6713 246.41 45.6157 227.597 34.7635L158.903 -4.86089ZM110.206 232.99C118.273 246.962 138.439 246.962 146.506 232.99L228.425 91.1025C236.491 77.1308 226.408 59.6662 210.275 59.6662L46.437 59.6662C30.3039 59.6662 20.2207 77.1308 28.2873 91.1025L110.206 232.99Z" fill="#9B46E0"/>
</mask>
<g mask="url(#mask2_112_5006)">
<path d="M151.281 -6.49614C140.934 -12.5013 115.066 -12.5013 104.719 -6.49615L-0.358358 54.4884C-10.7053 60.4936 2.22836 68 22.9223 68L233.078 68C253.772 68 266.705 60.4936 256.358 54.4884L151.281 -6.49614Z" fill="black" fill-opacity="0.25"/>
<path d="M233.108 214.558C243.28 208.689 255.99 186.674 255.987 174.931L255.954 55.6755C255.95 43.9324 243.236 51.2683 233.068 68.8801L129.806 247.735C119.638 265.347 119.642 280.026 129.813 274.157L233.108 214.558Z" fill="black" fill-opacity="0.5"/>
<path d="M22.4333 216.016C11.9128 209.946 -1.23349 187.176 -1.23013 175.03L-1.19602 51.6825C-1.19266 39.5365 11.9579 47.1241 22.4749 65.3402L129.28 250.332C139.797 268.548 139.793 283.73 129.272 277.66L22.4333 216.016Z" fill="black" fill-opacity="0.35"/>
</g>
</g>
</g>
</g>
<path d="M100.536 179.119C100.495 177.576 100.453 176.137 100.411 174.803C100.411 173.468 100.39 172.196 100.349 170.986C100.349 169.735 100.328 168.484 100.286 167.233C100.286 165.981 100.286 164.647 100.286 163.229C100.328 161.769 100.37 160.184 100.411 158.474C100.536 154.22 101.329 150.32 102.789 146.775C104.29 143.188 106.501 139.935 109.42 137.016C112.34 134.055 116.01 131.406 120.431 129.071L129.189 124.441C132.067 122.94 133.923 121.104 134.757 118.936C135.591 116.767 136.071 114.807 136.196 113.055C136.321 110.97 136.405 108.717 136.446 106.298C136.488 103.838 136.446 101.544 136.321 99.4166C136.196 97.4564 135.425 95.9132 134.007 94.7871C132.588 93.6193 130.441 93.0354 127.563 93.0354C124.768 93.0354 122.746 93.5984 121.494 94.7245C120.285 95.8089 119.638 97.2061 119.555 98.9161C119.43 102.294 119.346 105.276 119.305 107.862C119.305 110.406 119.388 113.305 119.555 116.558H100.661C100.578 114.932 100.516 113.305 100.474 111.679C100.432 110.01 100.39 108.425 100.349 106.924C100.349 105.422 100.37 104.046 100.411 102.795C100.787 93.8278 103.081 87.4258 107.293 83.5887C111.547 79.7099 118.304 77.7705 127.563 77.7705C134.111 77.7705 139.366 78.6255 143.328 80.3355C147.332 82.0038 150.272 84.6731 152.149 88.3433C154.026 92.0136 155.09 96.8308 155.34 102.795C155.382 103.796 155.402 104.734 155.402 105.61C155.444 106.444 155.465 107.258 155.465 108.05C155.465 108.801 155.444 109.572 155.402 110.365C155.402 111.157 155.382 112.012 155.34 112.93C155.173 117.559 154.276 121.584 152.65 125.004C151.023 128.382 148.833 131.323 146.081 133.825C143.328 136.328 140.158 138.538 136.571 140.457L126.437 145.837C124.727 146.754 123.371 147.985 122.37 149.528C121.411 151.029 120.723 152.593 120.306 154.22C119.889 155.847 119.68 157.265 119.68 158.474V162.603H153.838V179.119H100.536Z" fill="black"/>
<g filter="url(#filter1_f_112_5006)">
<path d="M46.1416 88.8368C46.1416 104.243 68.7984 141.325 80.1267 157.94C73.8017 149.255 59.5091 128.883 52.9386 116.875C44.7256 101.864 31.6979 80.6237 39.6278 72.6938C45.9717 66.35 71.7249 64.764 83.8085 64.764H148.38C174.152 64.764 195.204 71.3722 202.19 74.6763C202.19 74.6763 171.32 69.0121 148.38 69.0121H83.8085C69.0816 69.0121 46.1416 69.5785 46.1416 88.8368Z" fill="url(#paint0_radial_112_5006)"/>
</g>
<defs>
<filter id="filter0_f_112_5006" x="-13" y="-23" width="283" height="302" filterUnits="userSpaceOnUse" color-interpolation-filters="sRGB">
<feFlood flood-opacity="0" result="BackgroundImageFix"/>
<feBlend mode="normal" in="SourceGraphic" in2="BackgroundImageFix" result="shape"/>
<feGaussianBlur stdDeviation="6" result="effect1_foregroundBlur_112_5006"/>
</filter>
<filter id="filter1_f_112_5006" x="31.4984" y="59.0998" width="176.356" height="104.504" filterUnits="userSpaceOnUse" color-interpolation-filters="sRGB">
<feFlood flood-opacity="0" result="BackgroundImageFix"/>
<feBlend mode="normal" in="SourceGraphic" in2="BackgroundImageFix" result="shape"/>
<feGaussianBlur stdDeviation="2.83209" result="effect1_foregroundBlur_112_5006"/>
</filter>
<radialGradient id="paint0_radial_112_5006" cx="0" cy="0" r="1" gradientUnits="userSpaceOnUse" gradientTransform="translate(37.1626 71.561) rotate(34.3188) scale(171.795 304.273)">
<stop stop-color="white"/>
<stop offset="1" stop-color="white" stop-opacity="0"/>
</radialGradient>
</defs>
</svg>
