<svg width="256" height="256" viewBox="0 0 256 256" fill="none" xmlns="http://www.w3.org/2000/svg">
<metadata>
  <rdf:RDF xmlns:rdf="http://www.w3.org/1999/02/22-rdf-syntax-ns#"
            xmlns:dc="http://purl.org/dc/elements/1.1/">
    <rdf:Description>
      <dc:title>swrpg-online.com art asset</dc:title>
      <dc:creator>Joshua Ziggas</dc:creator>
      <dc:rights>CC BY-NC-SA 4.0 - https://github.com/swrpg-online/art</dc:rights>
    </rdf:Description>
  </rdf:RDF>
</metadata>
<desc>
  wrpg-online.com SWRPG Dice Asset
  Created by: Joshua Ziggas
  Source: https://github.com/swrpg-online/art
  License: CC BY-NC-SA 4.0
</desc><mask id="mask0_112_5009" style="mask-type:alpha" maskUnits="userSpaceOnUse" x="10" y="0" width="237" height="256">
<path d="M100.602 7.4368C117.776 -2.47893 138.936 -2.47893 156.111 7.4368L218.82 43.6421C235.995 53.5579 246.575 71.8829 246.575 91.7144V164.125C246.575 183.956 235.995 202.281 218.82 212.197L156.111 248.403C138.936 258.318 117.776 258.318 100.602 248.403L37.8922 212.197C20.7177 202.281 10.1377 183.956 10.1377 164.125V91.7144C10.1377 71.8829 20.7177 53.5578 37.8922 43.6421L100.602 7.4368Z" fill="black"/>
</mask>
<g mask="url(#mask0_112_5009)">
<rect width="256" height="256" fill="#F1F1F1"/>
<mask id="mask1_112_5009" style="mask-type:alpha" maskUnits="userSpaceOnUse" x="10" y="0" width="237" height="256">
<path d="M100.602 7.4368C117.776 -2.47893 138.936 -2.47893 156.111 7.4368L218.82 43.6421C235.995 53.5579 246.575 71.8829 246.575 91.7144V164.125C246.575 183.956 235.995 202.281 218.82 212.197L156.111 248.403C138.936 258.318 117.776 258.318 100.602 248.403L37.8922 212.197C20.7177 202.281 10.1377 183.956 10.1377 164.125V91.7144C10.1377 71.8829 20.7177 53.5578 37.8922 43.6421L100.602 7.4368Z" fill="#9B46E0"/>
</mask>
<g mask="url(#mask1_112_5009)">
<g filter="url(#filter0_f_112_5009)">
<mask id="mask2_112_5009" style="mask-type:alpha" maskUnits="userSpaceOnUse" x="-1" y="-13" width="259" height="280">
<path fill-rule="evenodd" clip-rule="evenodd" d="M158.903 -4.86089C140.09 -15.713 116.91 -15.713 98.0969 -4.86089L29.4031 34.7635C10.5896 45.6157 -1 65.6713 -1 87.3756V166.624C-1 188.329 10.5896 208.384 29.4031 219.236L98.0969 258.861C116.91 269.713 140.09 269.713 158.903 258.861L227.597 219.236C246.41 208.384 258 188.329 258 166.624V87.3756C258 65.6713 246.41 45.6157 227.597 34.7635L158.903 -4.86089ZM110.206 232.99C118.273 246.962 138.439 246.962 146.506 232.99L228.425 91.1025C236.491 77.1308 226.408 59.6662 210.275 59.6662L46.437 59.6662C30.3039 59.6662 20.2207 77.1308 28.2873 91.1025L110.206 232.99Z" fill="#9B46E0"/>
</mask>
<g mask="url(#mask2_112_5009)">
<path d="M151.281 -6.49614C140.934 -12.5013 115.066 -12.5013 104.719 -6.49615L-0.358358 54.4884C-10.7053 60.4936 2.22836 68 22.9223 68L233.078 68C253.772 68 266.705 60.4936 256.358 54.4884L151.281 -6.49614Z" fill="black" fill-opacity="0.25"/>
<path d="M233.108 214.558C243.28 208.689 255.99 186.674 255.987 174.931L255.954 55.6754C255.95 43.9324 243.236 51.2683 233.068 68.8801L129.806 247.735C119.638 265.347 119.642 280.026 129.813 274.157L233.108 214.558Z" fill="black" fill-opacity="0.5"/>
<path d="M22.4333 216.016C11.9128 209.946 -1.23349 187.176 -1.23013 175.03L-1.19602 51.6826C-1.19266 39.5366 11.9579 47.1242 22.4749 65.3403L129.28 250.332C139.797 268.548 139.793 283.73 129.272 277.66L22.4333 216.016Z" fill="black" fill-opacity="0.35"/>
</g>
</g>
</g>
</g>
<path d="M128.059 179.119C118.049 179.119 110.813 177.18 106.35 173.301C101.887 169.422 99.531 162.979 99.2808 153.97C99.2391 151.509 99.2391 149.632 99.2808 148.339C99.3225 147.046 99.3642 145.837 99.4059 144.711H118.55C118.424 145.753 118.32 147.088 118.237 148.715C118.195 150.3 118.174 151.843 118.174 153.344C118.174 154.804 118.216 155.847 118.299 156.472C118.55 158.85 119.446 160.685 120.989 161.978C122.574 163.229 124.764 163.854 127.558 163.854C130.561 163.854 132.793 163.229 134.252 161.978C135.712 160.685 136.525 158.85 136.692 156.472C137.068 152.01 137.276 148.193 137.318 145.024C137.401 141.854 137.276 138.83 136.942 135.952C136.692 133.617 135.9 131.886 134.565 130.76C133.231 129.634 131.187 129.071 128.434 129.071C126.557 129.071 124.91 129.321 123.492 129.821C122.074 130.322 120.969 131.052 120.176 132.011C119.384 132.97 118.967 134.117 118.925 135.452H100.907V77.7705H154.209V94.2866H119.926V120.812H122.804C124.013 118.811 125.89 117.101 128.434 115.682C131.02 114.264 134.023 113.555 137.443 113.555C143.407 113.555 147.891 115.495 150.894 119.374C153.897 123.252 155.586 128.487 155.961 135.076C156.128 137.495 156.232 139.81 156.274 142.021C156.316 144.231 156.295 146.337 156.211 148.339C156.128 150.341 156.003 152.218 155.836 153.97C155.252 159.976 153.98 164.835 152.02 168.546C150.101 172.217 147.202 174.907 143.324 176.617C139.487 178.285 134.398 179.119 128.059 179.119Z" fill="black"/>
<g filter="url(#filter1_f_112_5009)">
<path d="M46.1416 88.8367C46.1416 104.243 68.7984 141.325 80.1267 157.94C73.8017 149.255 59.5091 128.883 52.9386 116.874C44.7256 101.864 31.6979 80.6236 39.6278 72.6938C45.9717 66.3499 71.7249 64.7639 83.8085 64.7639H148.38C174.152 64.7639 195.204 71.3721 202.19 74.6762C202.19 74.6762 171.32 69.0121 148.38 69.0121H83.8085C69.0816 69.0121 46.1416 69.5785 46.1416 88.8367Z" fill="url(#paint0_radial_112_5009)"/>
</g>
<defs>
<filter id="filter0_f_112_5009" x="-13" y="-23" width="283" height="302" filterUnits="userSpaceOnUse" color-interpolation-filters="sRGB">
<feFlood flood-opacity="0" result="BackgroundImageFix"/>
<feBlend mode="normal" in="SourceGraphic" in2="BackgroundImageFix" result="shape"/>
<feGaussianBlur stdDeviation="6" result="effect1_foregroundBlur_112_5009"/>
</filter>
<filter id="filter1_f_112_5009" x="31.4984" y="59.0997" width="176.356" height="104.504" filterUnits="userSpaceOnUse" color-interpolation-filters="sRGB">
<feFlood flood-opacity="0" result="BackgroundImageFix"/>
<feBlend mode="normal" in="SourceGraphic" in2="BackgroundImageFix" result="shape"/>
<feGaussianBlur stdDeviation="2.83209" result="effect1_foregroundBlur_112_5009"/>
</filter>
<radialGradient id="paint0_radial_112_5009" cx="0" cy="0" r="1" gradientUnits="userSpaceOnUse" gradientTransform="translate(37.1626 71.5609) rotate(34.3188) scale(171.795 304.273)">
<stop stop-color="white"/>
<stop offset="1" stop-color="white" stop-opacity="0"/>
</radialGradient>
</defs>
</svg>
