<svg width="256" height="256" viewBox="0 0 256 256" fill="none" xmlns="http://www.w3.org/2000/svg">
<metadata>
  <rdf:RDF xmlns:rdf="http://www.w3.org/1999/02/22-rdf-syntax-ns#"
            xmlns:dc="http://purl.org/dc/elements/1.1/">
    <rdf:Description>
      <dc:title>swrpg-online.com art asset</dc:title>
      <dc:creator>Joshua Ziggas</dc:creator>
      <dc:rights>CC BY-NC-SA 4.0 - https://github.com/swrpg-online/art</dc:rights>
    </rdf:Description>
  </rdf:RDF>
</metadata>
<desc>
  wrpg-online.com SWRPG Dice Asset
  Created by: Joshua Ziggas
  Source: https://github.com/swrpg-online/art
  License: CC BY-NC-SA 4.0
</desc><g clip-path="url(#clip0_112_20067)">
<mask id="mask0_112_20067" style="mask-type:alpha" maskUnits="userSpaceOnUse" x="-1" y="14" width="257" height="227">
<path d="M110.377 235.925C121.121 242.653 134.764 242.653 145.509 235.925L236.464 178.966C240.04 176.727 243.004 173.634 245.088 169.965C259.67 144.301 259.618 112.765 245.036 87.1004C242.989 83.4977 240.089 80.4353 236.599 78.201L145.788 20.0602C134.911 13.0958 120.975 13.0958 110.097 20.0602L19.2863 78.201C15.7966 80.4353 12.8963 83.4977 10.8493 87.1004C-3.73267 112.765 -3.78482 144.301 10.7972 169.965C12.8817 173.634 15.8452 176.727 19.4214 178.966L110.377 235.925Z" fill="#D1D1D1"/>
</mask>
<g mask="url(#mask0_112_20067)">
<rect width="256" height="256" fill="#38D133"/>
<g style="mix-blend-mode:multiply">
<g filter="url(#filter0_f_112_20067)">
<path fill-rule="evenodd" clip-rule="evenodd" d="M264.334 9.53711H-8.98047V246.552H264.334V9.53711ZM95.379 68.537L95.3797 68.5353C102.708 51.0425 113.835 24.484 126.609 24.484C139.383 24.484 150.51 51.0425 157.838 68.5353C158.929 71.1388 159.935 73.5415 160.851 75.6259C161.399 76.8737 162.015 78.2598 162.687 79.7689C170.672 97.7177 186.396 133.063 186.396 160.096C186.396 189.402 155.959 212.387 126.609 212.387C97.2587 212.387 66.8215 189.402 66.8215 160.096C66.8215 133.063 82.546 97.7177 90.531 79.7689L90.5311 79.7688C91.2024 78.2597 91.819 76.8737 92.367 75.6259C93.2822 73.5419 94.2886 71.1398 95.379 68.537Z" fill="#D8D6D6"/>
</g>
<g filter="url(#filter1_f_112_20067)">
<path d="M162.457 209.277C140.502 221.499 113.787 221.499 91.8317 209.277L75.3642 200.109C70.204 197.44 57.3212 190.928 47.072 186.23C43.3907 184.543 39.4451 182.988 35.5136 181.438C25.7625 177.595 16.0985 173.787 10.7724 168.08C4.79368 161.674 2.23136 155.091 1.69754 152.6H-3.64062V256.694H257.93V152.6H252.591C252.058 155.091 249.495 161.674 243.517 168.08C238.19 173.787 228.526 177.595 218.775 181.438C214.844 182.988 210.898 184.543 207.217 186.23C196.968 190.928 184.085 197.44 178.925 200.109L162.457 209.277Z" fill="#595959"/>
</g>
<g filter="url(#filter2_f_112_20067)">
<path d="M179.436 105.141C169.728 84.5722 145.995 32.61 151.389 26.656C154.625 22.867 168.11 29.3623 184.291 38.0227C200.472 46.6831 233.374 69.9578 244.161 80.7833C254.949 91.6087 261.421 112.718 260.342 131.663C259.263 150.607 248.476 177.13 227.98 171.176C207.484 165.222 189.145 125.709 179.436 105.141Z" fill="#B9B9B9"/>
</g>
<g filter="url(#filter3_f_112_20067)">
<path d="M74.8488 105.141C84.5575 84.5722 108.29 32.61 102.896 26.656C99.6599 22.867 86.1756 29.3623 69.9944 38.0227C53.8133 46.6831 20.9115 69.9578 10.1241 80.7833C-0.663345 91.6087 -7.13581 112.718 -6.05707 131.663C-4.97832 150.607 5.80912 177.13 26.3053 171.176C46.8014 165.222 65.1401 125.709 74.8488 105.141Z" fill="#C7C7C7"/>
</g>
</g>
</g>
<path d="M128.131 188.2C119.807 188.2 113.907 186.496 110.43 183.09C106.953 179.648 105.056 174.292 104.74 167.021C104.705 165.968 104.688 165.142 104.688 164.545C104.688 163.913 104.705 163.281 104.74 162.649C104.775 162.016 104.846 161.121 104.951 159.962C105.337 156.063 106.303 153.008 107.848 150.795C109.394 148.547 111.694 146.791 114.75 145.527V143.314C112.643 142.576 110.781 141.365 109.166 139.679C107.585 137.993 106.531 135.868 106.005 133.304C105.829 132.461 105.671 131.425 105.53 130.196C105.425 128.932 105.337 127.667 105.267 126.403C105.232 125.103 105.232 123.962 105.267 122.978C105.653 115.532 107.55 110.141 110.957 106.805C114.364 103.468 120.088 101.8 128.131 101.8C135.928 101.8 141.601 103.433 145.148 106.699C148.695 109.966 150.645 115.392 150.996 122.978C151.031 123.962 151.013 125.103 150.943 126.403C150.908 127.667 150.82 128.932 150.68 130.196C150.574 131.425 150.434 132.461 150.258 133.304C149.731 135.868 148.66 137.993 147.045 139.679C145.464 141.365 143.62 142.576 141.513 143.314V145.632C144.323 146.896 146.518 148.67 148.098 150.953C149.714 153.201 150.785 156.169 151.312 159.856C151.523 161.332 151.628 162.596 151.628 163.65C151.628 164.668 151.593 165.792 151.523 167.021C151.171 174.537 149.205 179.946 145.622 183.248C142.075 186.549 136.245 188.2 128.131 188.2ZM128.131 175.345C130.625 175.345 132.451 174.818 133.61 173.765C134.805 172.676 135.402 171.131 135.402 169.129C135.402 167.934 135.402 166.74 135.402 165.546C135.402 164.317 135.402 163.105 135.402 161.911C135.402 160.682 135.402 159.47 135.402 158.276C135.402 156.274 134.805 154.746 133.61 153.692C132.451 152.604 130.625 152.059 128.131 152.059C125.673 152.059 123.847 152.604 122.652 153.692C121.458 154.746 120.861 156.274 120.861 158.276C120.861 160.067 120.861 161.876 120.861 163.702C120.861 165.529 120.861 167.337 120.861 169.129C120.861 171.131 121.458 172.676 122.652 173.765C123.847 174.818 125.673 175.345 128.131 175.345ZM128.131 136.992C130.555 136.992 132.364 136.465 133.558 135.412C134.787 134.323 135.402 132.777 135.402 130.775C135.402 129.125 135.402 127.474 135.402 125.823C135.402 124.137 135.402 122.487 135.402 120.871C135.402 118.869 134.805 117.341 133.61 116.288C132.451 115.199 130.625 114.654 128.131 114.654C125.708 114.654 123.882 115.199 122.652 116.288C121.458 117.341 120.861 118.869 120.861 120.871C120.861 121.679 120.861 122.504 120.861 123.347C120.861 124.155 120.861 124.98 120.861 125.823C120.861 126.666 120.861 127.509 120.861 128.352C120.861 129.16 120.861 129.968 120.861 130.775C120.861 132.777 121.458 134.323 122.652 135.412C123.882 136.465 125.708 136.992 128.131 136.992Z" fill="black"/>
<g filter="url(#filter4_f_112_20067)">
<path fill-rule="evenodd" clip-rule="evenodd" d="M93.2454 69.5637L93.2458 69.5629C100.574 52.5103 111.701 26.6201 124.475 26.6201C126.141 26.6201 127.779 27.0605 129.384 27.8643C117.239 29.8124 106.693 54.9551 99.6516 71.7404C98.5609 74.3406 97.5543 76.7403 96.6389 78.8222C96.0909 80.0684 95.4743 81.4527 94.803 82.9598L94.8029 82.96C86.8178 100.886 71.0933 136.188 71.0933 163.188C71.0933 176.477 77.3683 188.466 86.9673 197.594C73.8495 188.313 64.6875 174.494 64.6875 158.82C64.6875 132.467 80.412 98.0108 88.3971 80.5138L88.3977 80.5123C89.0688 79.0418 89.6852 77.6911 90.2331 76.475C91.1483 74.4433 92.1548 72.1013 93.2454 69.5637Z" fill="white"/>
</g>
</g>
<defs>
<filter id="filter0_f_112_20067" x="-18.9805" y="-0.462891" width="293.312" height="257.015" filterUnits="userSpaceOnUse" color-interpolation-filters="sRGB">
<feFlood flood-opacity="0" result="BackgroundImageFix"/>
<feBlend mode="normal" in="SourceGraphic" in2="BackgroundImageFix" result="shape"/>
<feGaussianBlur stdDeviation="5" result="effect1_foregroundBlur_112_20067"/>
</filter>
<filter id="filter1_f_112_20067" x="-13.6406" y="142.6" width="281.57" height="124.095" filterUnits="userSpaceOnUse" color-interpolation-filters="sRGB">
<feFlood flood-opacity="0" result="BackgroundImageFix"/>
<feBlend mode="normal" in="SourceGraphic" in2="BackgroundImageFix" result="shape"/>
<feGaussianBlur stdDeviation="5" result="effect1_foregroundBlur_112_20067"/>
</filter>
<filter id="filter2_f_112_20067" x="140.602" y="15.5518" width="129.859" height="166.477" filterUnits="userSpaceOnUse" color-interpolation-filters="sRGB">
<feFlood flood-opacity="0" result="BackgroundImageFix"/>
<feBlend mode="normal" in="SourceGraphic" in2="BackgroundImageFix" result="shape"/>
<feGaussianBlur stdDeviation="5" result="effect1_foregroundBlur_112_20067"/>
</filter>
<filter id="filter3_f_112_20067" x="-16.1758" y="15.5518" width="129.859" height="166.477" filterUnits="userSpaceOnUse" color-interpolation-filters="sRGB">
<feFlood flood-opacity="0" result="BackgroundImageFix"/>
<feBlend mode="normal" in="SourceGraphic" in2="BackgroundImageFix" result="shape"/>
<feGaussianBlur stdDeviation="5" result="effect1_foregroundBlur_112_20067"/>
</filter>
<filter id="filter4_f_112_20067" x="60.6875" y="22.6201" width="72.6953" height="178.975" filterUnits="userSpaceOnUse" color-interpolation-filters="sRGB">
<feFlood flood-opacity="0" result="BackgroundImageFix"/>
<feBlend mode="normal" in="SourceGraphic" in2="BackgroundImageFix" result="shape"/>
<feGaussianBlur stdDeviation="2" result="effect1_foregroundBlur_112_20067"/>
</filter>
<clipPath id="clip0_112_20067">
<rect width="256" height="256" fill="white"/>
</clipPath>
</defs>
</svg>
