<svg width="256" height="256" viewBox="0 0 256 256" fill="none" xmlns="http://www.w3.org/2000/svg">
<metadata>
  <rdf:RDF xmlns:rdf="http://www.w3.org/1999/02/22-rdf-syntax-ns#"
            xmlns:dc="http://purl.org/dc/elements/1.1/">
    <rdf:Description>
      <dc:title>swrpg-online.com art asset</dc:title>
      <dc:creator>Joshua Ziggas</dc:creator>
      <dc:rights>CC BY-NC-SA 4.0 - https://github.com/swrpg-online/art</dc:rights>
    </rdf:Description>
  </rdf:RDF>
</metadata>
<desc>
  wrpg-online.com SWRPG Dice Asset
  Created by: Joshua Ziggas
  Source: https://github.com/swrpg-online/art
  License: CC BY-NC-SA 4.0
</desc><mask id="mask0_112_20034" style="mask-type:luminance" maskUnits="userSpaceOnUse" x="6" y="2" width="244" height="252">
<path d="M114.628 4.34533C123.32 1.52112 132.683 1.52111 141.375 4.34533L189.67 20.0373C198.362 22.8615 205.937 28.365 211.309 35.7589L241.157 76.841C246.529 84.2349 249.422 93.1397 249.422 102.279V153.059C249.422 162.199 246.529 171.103 241.157 178.497L211.309 219.58C205.937 226.973 198.362 232.477 189.67 235.301L141.375 250.993C132.683 253.817 123.32 253.817 114.628 250.993L66.3327 235.301C57.6407 232.477 50.0658 226.973 44.6938 219.58L14.8459 178.497C9.47394 171.103 6.5806 162.199 6.5806 153.059V102.279C6.5806 93.1397 9.47393 84.2349 14.8459 76.841L44.6938 35.7589C50.0658 28.365 57.6407 22.8615 66.3327 20.0373L114.628 4.34533Z" fill="white"/>
</mask>
<g mask="url(#mask0_112_20034)">
<rect width="256" height="256" fill="#38D133"/>
<g filter="url(#filter0_f_112_20034)">
<path d="M50.1016 9.81476L135.447 -6.13379V48.8249H121.261V9.81476L52.8064 23.0787L50.1016 9.81476Z" fill="url(#paint0_linear_112_20034)" fill-opacity="0.15"/>
<rect x="169.172" y="196.272" width="14.1855" height="78.0203" transform="rotate(-36 169.172 196.272)" fill="url(#paint1_linear_112_20034)" fill-opacity="0.3"/>
<path d="M-5.07812 91.2408L43.0683 14.9639L61.4613 21.4555L18.1181 84.7518L55.219 96.8066L50.8355 110.298L-5.07812 91.2408Z" fill="url(#paint2_linear_112_20034)" fill-opacity="0.25"/>
<rect x="205.871" y="110.299" width="14.1855" height="78.0203" transform="rotate(-108 205.871 110.299)" fill="url(#paint3_linear_112_20034)" fill-opacity="0.25"/>
<rect x="41.6797" y="259.393" width="14.1855" height="78.0203" transform="rotate(-144 41.6797 259.393)" fill="url(#paint4_linear_112_20034)" fill-opacity="0.25"/>
<path d="M173.313 205.927L209.147 252.45L126.501 268.5L46.8555 252.45L82.6888 205.927L173.313 205.927Z" fill="black" fill-opacity="0.35"/>
<path d="M216.112 108.421L272.062 88.5819L261.002 175L221.457 244.329L187.853 195.392L216.112 108.421Z" fill="black" fill-opacity="0.4"/>
<path d="M136.735 38.0625L135.156 -21.2806L210.716 14.0002L267.643 74.9765L210.716 91.8131L136.735 38.0625Z" fill="black" fill-opacity="0.2"/>
<path d="M45.2894 91.8135L-11.6371 74.9769L45.2894 15.0005L120.849 -21.2803L119.271 38.0628L45.2894 91.8135Z" fill="black" fill-opacity="0.1"/>
<path d="M68.1506 195.392L34.5469 244.33L-3.99854 172.5L-16.0586 88.5823L39.8922 108.422L68.1506 195.392Z" fill="black" fill-opacity="0.25"/>
</g>
</g>
<path d="M128.035 186.3C118.275 186.3 111.268 184.361 107.014 180.482C102.76 176.603 100.591 170.159 100.508 161.151C100.466 154.102 100.425 147.638 100.383 141.757C100.341 135.876 100.32 130.663 100.32 126.117C100.32 121.57 100.341 117.838 100.383 114.918C100.425 111.957 100.466 109.892 100.508 108.725C100.883 100.216 103.428 93.9185 108.14 89.8312C112.895 85.7439 119.485 83.7002 127.91 83.7002C136.668 83.7002 143.362 85.869 147.992 90.2065C152.621 94.5441 155.061 100.383 155.311 107.724C155.353 108.599 155.374 109.371 155.374 110.038C155.416 110.706 155.416 111.456 155.374 112.291C155.374 113.125 155.353 114.23 155.311 115.606H136.293C136.418 114.272 136.481 113.187 136.481 112.353C136.522 111.477 136.522 110.539 136.481 109.538C136.439 108.495 136.376 107.056 136.293 105.221C136.251 103.344 135.563 101.843 134.228 100.717C132.935 99.549 130.871 98.9651 128.035 98.9651C125.282 98.9651 123.218 99.5073 121.841 100.592C120.465 101.676 119.735 103.219 119.652 105.221C119.527 108.599 119.401 112.332 119.276 116.42C119.193 120.465 119.151 124.74 119.151 129.245H122.529C123.739 127.159 125.637 125.428 128.223 124.052C130.85 122.676 133.874 121.988 137.294 121.988C144.384 121.988 149.243 123.656 151.871 126.992C154.54 130.287 155.937 135.793 156.062 143.508C156.104 146.136 156.125 148.305 156.125 150.015C156.166 151.725 156.166 153.414 156.125 155.082C156.125 156.709 156.062 158.732 155.937 161.151C155.437 170.159 153.08 176.603 148.868 180.482C144.697 184.361 137.753 186.3 128.035 186.3ZM128.16 171.035C130.996 171.035 133.123 170.493 134.541 169.409C136.001 168.283 136.752 166.698 136.793 164.654C136.877 162.444 136.939 160.442 136.981 158.648C137.023 156.813 137.064 155.082 137.106 153.456C137.148 151.829 137.169 150.244 137.169 148.701C137.169 147.158 137.127 145.594 137.044 144.009C137.002 141.882 136.189 140.276 134.604 139.192C133.061 138.066 131.038 137.503 128.535 137.503C125.741 137.503 123.489 138.045 121.779 139.129C120.11 140.214 119.235 141.757 119.151 143.759C119.151 147.137 119.172 150.557 119.214 154.019C119.297 157.48 119.401 160.942 119.527 164.404C119.61 166.531 120.382 168.178 121.841 169.346C123.301 170.472 125.407 171.035 128.16 171.035Z" fill="black"/>
<g filter="url(#filter1_f_112_20034)">
<path d="M62.4943 99.4782C57.4854 104.467 54.5592 109.682 58.5102 120.453C52.2491 110.816 53.9564 100.612 58.5099 95.5099C66.6026 86.4422 90.9535 68.8656 103.475 61.4959C113.493 55.6002 126.243 46.7566 139.903 56.9608C124.535 51.2917 117.705 59.2284 110.875 63.1966C102.633 67.9849 68.7553 93.2423 62.4943 99.4782Z" fill="white"/>
</g>
<defs>
<filter id="filter0_f_112_20034" x="-26.878" y="-32.0997" width="317.772" height="311.419" filterUnits="userSpaceOnUse" color-interpolation-filters="sRGB">
<feFlood flood-opacity="0" result="BackgroundImageFix"/>
<feBlend mode="normal" in="SourceGraphic" in2="BackgroundImageFix" result="shape"/>
<feGaussianBlur stdDeviation="5.40971" result="effect1_foregroundBlur_112_20034"/>
</filter>
<filter id="filter1_f_112_20034" x="49.02" y="46.8813" width="96.2921" height="78.9815" filterUnits="userSpaceOnUse" color-interpolation-filters="sRGB">
<feFlood flood-opacity="0" result="BackgroundImageFix"/>
<feBlend mode="normal" in="SourceGraphic" in2="BackgroundImageFix" result="shape"/>
<feGaussianBlur stdDeviation="2.70486" result="effect1_foregroundBlur_112_20034"/>
</filter>
<linearGradient id="paint0_linear_112_20034" x1="128.354" y1="-29.1954" x2="128.354" y2="48.8249" gradientUnits="userSpaceOnUse">
<stop offset="0.40004"/>
<stop offset="0.770751" stop-opacity="0"/>
</linearGradient>
<linearGradient id="paint1_linear_112_20034" x1="176.265" y1="196.272" x2="176.278" y2="252.046" gradientUnits="userSpaceOnUse">
<stop stop-opacity="0"/>
<stop offset="0.44519"/>
</linearGradient>
<linearGradient id="paint2_linear_112_20034" x1="52.2438" y1="103.558" x2="6.82333" y2="87.454" gradientUnits="userSpaceOnUse">
<stop offset="0.487821" stop-opacity="0"/>
<stop offset="1"/>
</linearGradient>
<linearGradient id="paint3_linear_112_20034" x1="216.762" y1="109.731" x2="217.403" y2="150.481" gradientUnits="userSpaceOnUse">
<stop stop-opacity="0"/>
<stop offset="1"/>
</linearGradient>
<linearGradient id="paint4_linear_112_20034" x1="48.7724" y1="337.413" x2="48.6801" y2="291.64" gradientUnits="userSpaceOnUse">
<stop stop-opacity="0"/>
<stop offset="0.482933"/>
</linearGradient>
</defs>
</svg>
