<svg width="256" height="256" viewBox="0 0 256 256" fill="none" xmlns="http://www.w3.org/2000/svg">
<metadata>
  <rdf:RDF xmlns:rdf="http://www.w3.org/1999/02/22-rdf-syntax-ns#"
            xmlns:dc="http://purl.org/dc/elements/1.1/">
    <rdf:Description>
      <dc:title>swrpg-online.com art asset</dc:title>
      <dc:creator>Joshua Ziggas</dc:creator>
      <dc:rights>CC BY-NC-SA 4.0 - https://github.com/swrpg-online/art</dc:rights>
    </rdf:Description>
  </rdf:RDF>
</metadata>
<desc>
  wrpg-online.com SWRPG Dice Asset
  Created by: Joshua Ziggas
  Source: https://github.com/swrpg-online/art
  License: CC BY-NC-SA 4.0
</desc><mask id="mask0_112_20021" style="mask-type:alpha" maskUnits="userSpaceOnUse" x="10" y="0" width="237" height="256">
<path d="M224.91 60.2803L150.531 7.28962C136.792 -2.49863 118.338 -2.42293 104.68 7.47773L31.8161 60.296C23.7755 66.1246 18.6774 75.1707 17.8556 85.0677L10.4831 173.859C9.14473 189.977 17.8216 205.268 32.3449 212.386L112.644 251.739C122.046 256.346 133.044 256.376 142.471 251.82L224.23 212.3C238.838 205.239 247.602 189.923 246.289 173.75L239.102 85.276C238.289 75.2589 233.095 66.1118 224.91 60.2803Z" fill="#CFCFCF"/>
</mask>
<g mask="url(#mask0_112_20021)">
<rect width="256" height="256" fill="#38D133"/>
<g style="mix-blend-mode:multiply" filter="url(#filter0_f_112_20021)">
<mask id="mask1_112_20021" style="mask-type:alpha" maskUnits="userSpaceOnUse" x="1" y="-10" width="255" height="275">
<path fill-rule="evenodd" clip-rule="evenodd" d="M152.285 -1.73797L232.216 55.1624C241.012 61.4242 246.594 71.2462 247.468 82.0024L255.191 177.005C256.603 194.37 247.184 210.817 231.485 218.399L143.624 260.834C133.493 265.727 121.673 265.695 111.569 260.747L25.2761 218.49C9.66859 210.848 0.343989 194.428 1.78223 177.121L9.70515 81.7786C10.5883 71.1515 16.067 61.4379 24.7079 55.1793L103.011 -1.53598C117.689 -12.1671 137.521 -12.2484 152.285 -1.73797ZM138.618 210.456C134.336 217.847 123.662 217.847 119.38 210.456L57.5134 103.688C53.2194 96.2773 58.5672 86.9996 67.1327 86.9996H190.865C199.431 86.9996 204.778 96.2772 200.484 103.688L138.618 210.456Z" fill="black"/>
</mask>
<g mask="url(#mask1_112_20021)">
<path d="M224.91 60.2803L150.531 7.28962C136.792 -2.49863 118.338 -2.42293 104.68 7.47773L31.8161 60.296C23.7755 66.1246 18.6774 75.1707 17.8556 85.0677L10.4831 173.859C9.14473 189.977 17.8216 205.268 32.3449 212.386L112.644 251.739C122.046 256.346 133.044 256.376 142.471 251.82L224.23 212.3C238.838 205.239 247.602 189.923 246.289 173.75L239.102 85.276C238.289 75.2589 233.095 66.1118 224.91 60.2803Z" fill="#CFCFCF"/>
<path d="M204.7 84H53.3C43.2078 84 38.1969 73.0586 45.3921 66.7329L110.15 9.80008C120.433 0.759757 136.916 0.729605 147.24 9.73224L212.575 66.704C219.815 73.0173 214.814 84 204.7 84Z" fill="#E0E0E0"/>
<path d="M51.0658 91.529L123.601 217.163C128.436 225.538 121.572 235.045 112.768 232.167L33.5336 206.263C20.952 202.15 13.0296 188.487 15.7066 175.519L32.6472 93.4499C34.5244 84.3556 46.2199 83.1358 51.0658 91.529Z" fill="#D8D8D8"/>
<path d="M206.994 88.7409L131.609 219.312C126.584 228.015 133.429 237.729 142.411 234.642L223.254 206.851C236.091 202.438 244.324 188.238 241.779 174.897L225.679 90.4733C223.895 81.1179 212.03 80.0179 206.994 88.7409Z" fill="#C1C1C1"/>
<path d="M128.484 230.499V263.061L104.345 256.907L21.7523 217.386L12.9961 206.5L15.5993 194.431C18.8336 198.454 26.6274 206.831 31.9285 208.157C38.5548 209.813 109.551 221.033 118.071 223.163C124.886 224.867 127.852 228.764 128.484 230.499Z" fill="#8D8D8D"/>
<path d="M128.485 230.999V263.061L152.624 256.907L235.216 217.386L243.973 206.5L241.369 194.431C238.135 198.454 230.341 206.831 225.04 208.157C218.414 209.813 147.418 221.533 138.898 223.663C132.082 225.367 129.116 229.264 128.485 230.999Z" fill="#737373"/>
<path d="M212.647 84.3141L243.297 64.418L250.038 88.3993L257.107 179.687L252.058 192.713L240.304 196.494C242.171 191.681 245.529 180.743 244.026 175.489C242.148 168.922 213.915 105.443 211.5 97C209.568 90.2455 211.459 85.7284 212.647 84.3141Z" fill="#828282"/>
<path d="M211.499 83.4999L243.296 64.4179L225.898 46.5896L150.375 -5.17687L136.57 -7.31692L127.419 0.972212C132.52 1.76162 143.672 4.32248 147.47 8.2507C152.218 13.161 193.835 71.8371 199.939 78.1503C204.823 83.2008 209.681 83.8211 211.499 83.4999Z" fill="#9E9E9E"/>
<path d="M44.8504 83.8141L13.9414 64.418L7.20064 88.3993L0.130878 179.687L5.18042 192.713L16.9344 196.494C15.0674 191.681 11.7091 180.743 13.212 175.489C15.0905 168.922 43.5822 104.943 45.9974 96.5C47.9296 89.7455 46.0378 85.2284 44.8504 83.8141Z" fill="#B1B1B1"/>
<path d="M46.4385 83.8495L13.9422 64.4179L31.3402 46.5896L106.863 -5.17687L120.669 -7.31692L129.819 0.972212C124.718 1.76162 113.566 4.32248 109.768 8.2507C105.02 13.161 64.1026 72.1867 57.9983 78.4999C53.1148 83.5504 48.257 84.1707 46.4385 83.8495Z" fill="#B6B6B6"/>
</g>
</g>
</g>
<g filter="url(#filter1_f_112_20021)">
<path d="M72.7423 89H122C110.497 90.3425 85.9103 93.2575 79.5869 94.1781C71.6827 95.3288 66.0919 98.2055 68.5981 106.452C70.6031 113.049 83.9568 144.233 90.383 159L61.6354 107.833C56.8952 99.3957 63.0262 89 72.7423 89Z" fill="url(#paint0_radial_112_20021)"/>
</g>
<path d="M128.027 165C121.178 165 116.261 163.639 113.276 160.917C110.29 158.195 108.768 153.673 108.71 147.351C108.681 142.405 108.651 137.868 108.622 133.741C108.593 129.615 108.578 125.956 108.578 122.766C108.578 119.576 108.593 116.956 108.622 114.907C108.651 112.829 108.681 111.38 108.71 110.561C108.973 104.59 110.759 100.171 114.066 97.3024C117.403 94.4341 122.027 93 127.939 93C134.085 93 138.783 94.522 142.032 97.5659C145.281 100.61 146.993 104.707 147.168 109.859C147.198 110.473 147.212 111.015 147.212 111.483C147.242 111.951 147.242 112.478 147.212 113.063C147.212 113.649 147.198 114.424 147.168 115.39H133.822C133.91 114.454 133.954 113.693 133.954 113.107C133.983 112.493 133.983 111.834 133.954 111.132C133.924 110.4 133.881 109.39 133.822 108.102C133.793 106.785 133.31 105.732 132.373 104.941C131.466 104.122 130.017 103.712 128.027 103.712C126.095 103.712 124.646 104.093 123.681 104.854C122.715 105.615 122.203 106.698 122.144 108.102C122.056 110.473 121.968 113.093 121.881 115.961C121.822 118.8 121.793 121.8 121.793 124.961H124.163C125.012 123.498 126.344 122.283 128.159 121.317C130.003 120.351 132.124 119.868 134.524 119.868C139.5 119.868 142.91 121.039 144.754 123.38C146.627 125.693 147.607 129.556 147.695 134.971C147.724 136.815 147.739 138.337 147.739 139.537C147.768 140.737 147.768 141.922 147.739 143.093C147.739 144.234 147.695 145.654 147.607 147.351C147.256 153.673 145.603 158.195 142.646 160.917C139.72 163.639 134.846 165 128.027 165ZM128.115 154.288C130.105 154.288 131.598 153.907 132.593 153.146C133.617 152.356 134.144 151.244 134.173 149.81C134.232 148.259 134.276 146.854 134.305 145.595C134.334 144.307 134.363 143.093 134.393 141.951C134.422 140.81 134.437 139.698 134.437 138.615C134.437 137.532 134.407 136.434 134.349 135.322C134.32 133.829 133.749 132.702 132.637 131.941C131.554 131.151 130.134 130.756 128.378 130.756C126.417 130.756 124.837 131.137 123.637 131.898C122.466 132.659 121.851 133.741 121.793 135.146C121.793 137.517 121.807 139.917 121.837 142.346C121.895 144.776 121.968 147.205 122.056 149.634C122.115 151.127 122.656 152.283 123.681 153.102C124.705 153.893 126.183 154.288 128.115 154.288Z" fill="black"/>
<defs>
<filter id="filter0_f_112_20021" x="-8.36328" y="-17.3174" width="273.695" height="290.378" filterUnits="userSpaceOnUse" color-interpolation-filters="sRGB">
<feFlood flood-opacity="0" result="BackgroundImageFix"/>
<feBlend mode="normal" in="SourceGraphic" in2="BackgroundImageFix" result="shape"/>
<feGaussianBlur stdDeviation="5" result="effect1_foregroundBlur_112_20021"/>
</filter>
<filter id="filter1_f_112_20021" x="55" y="84" width="72" height="80" filterUnits="userSpaceOnUse" color-interpolation-filters="sRGB">
<feFlood flood-opacity="0" result="BackgroundImageFix"/>
<feBlend mode="normal" in="SourceGraphic" in2="BackgroundImageFix" result="shape"/>
<feGaussianBlur stdDeviation="2.5" result="effect1_foregroundBlur_112_20021"/>
</filter>
<radialGradient id="paint0_radial_112_20021" cx="0" cy="0" r="1" gradientUnits="userSpaceOnUse" gradientTransform="translate(68.0198 95.7123) rotate(44.0247) scale(47.1885 41.5706)">
<stop stop-color="white"/>
<stop offset="1" stop-color="white" stop-opacity="0"/>
</radialGradient>
</defs>
</svg>
