<svg width="256" height="256" viewBox="0 0 256 256" fill="none" xmlns="http://www.w3.org/2000/svg">
<metadata>
  <rdf:RDF xmlns:rdf="http://www.w3.org/1999/02/22-rdf-syntax-ns#"
            xmlns:dc="http://purl.org/dc/elements/1.1/">
    <rdf:Description>
      <dc:title>swrpg-online.com art asset</dc:title>
      <dc:creator>Joshua Ziggas</dc:creator>
      <dc:rights>CC BY-NC-SA 4.0 - https://github.com/swrpg-online/art</dc:rights>
    </rdf:Description>
  </rdf:RDF>
</metadata>
<desc>
  wrpg-online.com SWRPG Dice Asset
  Created by: Joshua Ziggas
  Source: https://github.com/swrpg-online/art
  License: CC BY-NC-SA 4.0
</desc><mask id="mask0_112_20008" style="mask-type:alpha" maskUnits="userSpaceOnUse" x="10" y="0" width="237" height="256">
<path d="M224.91 60.2803L150.531 7.28962C136.792 -2.49863 118.338 -2.42293 104.68 7.47773L31.8161 60.296C23.7755 66.1246 18.6774 75.1707 17.8556 85.0677L10.4831 173.859C9.14473 189.977 17.8216 205.268 32.3449 212.386L112.644 251.739C122.046 256.346 133.044 256.376 142.471 251.82L224.23 212.3C238.838 205.239 247.602 189.923 246.289 173.75L239.102 85.276C238.289 75.2589 233.095 66.1118 224.91 60.2803Z" fill="#CFCFCF"/>
</mask>
<g mask="url(#mask0_112_20008)">
<rect width="256" height="256" fill="#38D133"/>
<g style="mix-blend-mode:multiply" filter="url(#filter0_f_112_20008)">
<mask id="mask1_112_20008" style="mask-type:alpha" maskUnits="userSpaceOnUse" x="1" y="-10" width="255" height="275">
<path fill-rule="evenodd" clip-rule="evenodd" d="M152.285 -1.73797L232.216 55.1624C241.012 61.4242 246.594 71.2462 247.468 82.0024L255.191 177.005C256.603 194.37 247.184 210.817 231.485 218.399L143.624 260.834C133.493 265.727 121.673 265.695 111.569 260.747L25.2761 218.49C9.66859 210.848 0.343989 194.428 1.78223 177.121L9.70515 81.7786C10.5883 71.1515 16.067 61.4379 24.7079 55.1793L103.011 -1.53598C117.689 -12.1671 137.521 -12.2484 152.285 -1.73797ZM138.618 210.456C134.336 217.847 123.662 217.847 119.38 210.456L57.5134 103.688C53.2194 96.2773 58.5672 86.9996 67.1327 86.9996H190.865C199.431 86.9996 204.778 96.2772 200.484 103.688L138.618 210.456Z" fill="black"/>
</mask>
<g mask="url(#mask1_112_20008)">
<path d="M224.91 60.2803L150.531 7.28962C136.792 -2.49863 118.338 -2.42293 104.68 7.47773L31.8161 60.296C23.7755 66.1246 18.6774 75.1707 17.8556 85.0677L10.4831 173.859C9.14473 189.977 17.8216 205.268 32.3449 212.386L112.644 251.739C122.046 256.346 133.044 256.376 142.471 251.82L224.23 212.3C238.838 205.239 247.602 189.923 246.289 173.75L239.102 85.276C238.289 75.2589 233.095 66.1118 224.91 60.2803Z" fill="#CFCFCF"/>
<path d="M204.7 84H53.3C43.2078 84 38.1969 73.0586 45.3921 66.7329L110.15 9.80008C120.433 0.759757 136.916 0.729605 147.24 9.73224L212.575 66.704C219.815 73.0173 214.814 84 204.7 84Z" fill="#E0E0E0"/>
<path d="M51.0658 91.529L123.601 217.163C128.436 225.538 121.572 235.045 112.768 232.167L33.5336 206.263C20.952 202.15 13.0296 188.487 15.7066 175.519L32.6472 93.4499C34.5244 84.3556 46.2199 83.1358 51.0658 91.529Z" fill="#D8D8D8"/>
<path d="M206.994 88.7409L131.609 219.312C126.584 228.015 133.429 237.729 142.411 234.642L223.254 206.851C236.091 202.438 244.324 188.238 241.779 174.897L225.679 90.4733C223.895 81.1179 212.03 80.0179 206.994 88.7409Z" fill="#C1C1C1"/>
<path d="M128.484 230.499V263.061L104.345 256.907L21.7523 217.386L12.9961 206.5L15.5993 194.431C18.8336 198.454 26.6274 206.831 31.9285 208.157C38.5548 209.813 109.551 221.033 118.071 223.163C124.886 224.867 127.852 228.764 128.484 230.499Z" fill="#8D8D8D"/>
<path d="M128.485 230.999V263.061L152.624 256.907L235.216 217.386L243.973 206.5L241.369 194.431C238.135 198.454 230.341 206.831 225.04 208.157C218.414 209.813 147.418 221.533 138.898 223.663C132.082 225.367 129.116 229.264 128.485 230.999Z" fill="#737373"/>
<path d="M212.647 84.3141L243.297 64.418L250.038 88.3993L257.107 179.687L252.058 192.713L240.304 196.494C242.171 191.681 245.529 180.743 244.026 175.489C242.148 168.922 213.915 105.443 211.5 97C209.568 90.2455 211.459 85.7284 212.647 84.3141Z" fill="#828282"/>
<path d="M211.499 83.4999L243.296 64.4179L225.898 46.5896L150.375 -5.17687L136.57 -7.31692L127.419 0.972212C132.52 1.76162 143.672 4.32248 147.47 8.2507C152.218 13.161 193.835 71.8371 199.939 78.1503C204.823 83.2008 209.681 83.8211 211.499 83.4999Z" fill="#9E9E9E"/>
<path d="M44.8504 83.8141L13.9414 64.418L7.20064 88.3993L0.130878 179.687L5.18042 192.713L16.9344 196.494C15.0674 191.681 11.7091 180.743 13.212 175.489C15.0905 168.922 43.5822 104.943 45.9974 96.5C47.9296 89.7455 46.0378 85.2284 44.8504 83.8141Z" fill="#B1B1B1"/>
<path d="M46.4385 83.8495L13.9422 64.4179L31.3402 46.5896L106.863 -5.17687L120.669 -7.31692L129.819 0.972212C124.718 1.76162 113.566 4.32248 109.768 8.2507C105.02 13.161 64.1026 72.1867 57.9983 78.4999C53.1148 83.5504 48.257 84.1707 46.4385 83.8495Z" fill="#B6B6B6"/>
</g>
</g>
</g>
<g filter="url(#filter1_f_112_20008)">
<path d="M72.7423 89H122C110.497 90.3425 85.9103 93.2575 79.5869 94.1781C71.6827 95.3288 66.0919 98.2055 68.5981 106.452C70.6031 113.049 83.9568 144.233 90.383 159L61.6354 107.833C56.8952 99.3957 63.0262 89 72.7423 89Z" fill="url(#paint0_radial_112_20008)"/>
</g>
<path d="M141.472 165C134.769 165 129.925 163.639 126.94 160.917C123.984 158.195 122.506 153.702 122.506 147.439C122.506 146.971 122.506 146.473 122.506 145.946C122.506 145.42 122.506 144.878 122.506 144.322C122.535 143.766 122.564 143.195 122.594 142.61H135.94C135.911 143.927 135.882 145.112 135.852 146.166C135.823 147.19 135.852 148.434 135.94 149.898C136.028 151.215 136.452 152.283 137.213 153.102C137.974 153.893 139.335 154.288 141.296 154.288C143.023 154.288 144.355 153.922 145.291 153.19C146.228 152.459 146.74 151.302 146.828 149.722C146.974 147.468 147.077 144.937 147.135 142.127C147.194 139.317 147.238 136.288 147.267 133.039H145.247C144.545 134.473 143.389 135.688 141.779 136.683C140.169 137.649 138.135 138.132 135.677 138.132C133.189 138.132 130.833 137.605 128.608 136.551C126.413 135.468 124.628 133.756 123.252 131.415C121.877 129.073 121.189 126.015 121.189 122.239C121.189 120.512 121.189 119.02 121.189 117.761C121.189 116.473 121.189 115.376 121.189 114.468C121.189 113.561 121.189 112.8 121.189 112.185C121.218 111.541 121.247 111.029 121.277 110.649C121.54 104.327 123.194 99.8049 126.238 97.0829C129.282 94.361 134.155 93 140.857 93C147.706 93 152.608 94.361 155.564 97.0829C158.521 99.8049 160.057 104.327 160.174 110.649C160.291 115.859 160.364 120.468 160.394 124.478C160.423 128.488 160.408 132.307 160.35 135.937C160.321 139.566 160.262 143.4 160.174 147.439C160.057 153.702 158.506 158.195 155.521 160.917C152.535 163.639 147.852 165 141.472 165ZM141.033 127.244C142.847 127.244 144.267 126.937 145.291 126.322C146.345 125.678 146.974 124.785 147.179 123.644C147.15 121.127 147.106 118.566 147.047 115.961C146.989 113.327 146.886 110.678 146.74 108.015C146.711 106.639 146.184 105.585 145.16 104.854C144.135 104.093 142.672 103.712 140.769 103.712C138.838 103.712 137.345 104.093 136.291 104.854C135.238 105.615 134.711 106.727 134.711 108.19C134.711 108.395 134.696 109.127 134.667 110.385C134.667 111.644 134.652 113.107 134.623 114.776C134.623 116.444 134.608 118.039 134.579 119.561C134.579 121.054 134.594 122.151 134.623 122.854C134.682 124.259 135.296 125.341 136.467 126.102C137.667 126.863 139.189 127.244 141.033 127.244Z" fill="black"/>
<path d="M100.463 164.122V105.468H95.195L94.8438 100.815L103.273 93.878H114.161V164.122H100.463Z" fill="black"/>
<defs>
<filter id="filter0_f_112_20008" x="-8.36328" y="-17.3174" width="273.695" height="290.378" filterUnits="userSpaceOnUse" color-interpolation-filters="sRGB">
<feFlood flood-opacity="0" result="BackgroundImageFix"/>
<feBlend mode="normal" in="SourceGraphic" in2="BackgroundImageFix" result="shape"/>
<feGaussianBlur stdDeviation="5" result="effect1_foregroundBlur_112_20008"/>
</filter>
<filter id="filter1_f_112_20008" x="55" y="84" width="72" height="80" filterUnits="userSpaceOnUse" color-interpolation-filters="sRGB">
<feFlood flood-opacity="0" result="BackgroundImageFix"/>
<feBlend mode="normal" in="SourceGraphic" in2="BackgroundImageFix" result="shape"/>
<feGaussianBlur stdDeviation="2.5" result="effect1_foregroundBlur_112_20008"/>
</filter>
<radialGradient id="paint0_radial_112_20008" cx="0" cy="0" r="1" gradientUnits="userSpaceOnUse" gradientTransform="translate(68.0198 95.7123) rotate(44.0247) scale(47.1885 41.5706)">
<stop stop-color="white"/>
<stop offset="1" stop-color="white" stop-opacity="0"/>
</radialGradient>
</defs>
</svg>
