<svg width="256" height="256" viewBox="0 0 256 256" fill="none" xmlns="http://www.w3.org/2000/svg">
<metadata>
  <rdf:RDF xmlns:rdf="http://www.w3.org/1999/02/22-rdf-syntax-ns#"
            xmlns:dc="http://purl.org/dc/elements/1.1/">
    <rdf:Description>
      <dc:title>swrpg-online.com art asset</dc:title>
      <dc:creator>Joshua Ziggas</dc:creator>
      <dc:rights>CC BY-NC-SA 4.0 - https://github.com/swrpg-online/art</dc:rights>
    </rdf:Description>
  </rdf:RDF>
</metadata>
<desc>
  wrpg-online.com SWRPG Dice Asset
  Created by: Joshua Ziggas
  Source: https://github.com/swrpg-online/art
  License: CC BY-NC-SA 4.0
</desc><mask id="mask0_112_19999" style="mask-type:alpha" maskUnits="userSpaceOnUse" x="2" y="17" width="252" height="223">
<path d="M111.095 26.5C118.408 13.8333 136.691 13.8333 144.004 26.5L250.525 211C257.838 223.667 248.697 239.5 234.071 239.5H21.0283C6.40214 239.5 -2.73924 223.667 4.57386 211L111.095 26.5Z" fill="#D9D9D9"/>
</mask>
<g mask="url(#mask0_112_19999)">
<rect width="256" height="256" fill="#38D133"/>
<g style="mix-blend-mode:multiply" filter="url(#filter0_f_112_19999)">
<path d="M279.337 102.182C279.369 87.9555 263.989 61.3151 251.652 54.2297L126.366 -17.7262C114.029 -24.8117 113.988 -7.0282 126.293 14.2841L251.252 230.719C263.556 252.031 278.977 260.888 279.01 246.661L279.337 102.182Z" fill="black" fill-opacity="0.25"/>
<path d="M100.333 317.894C112.425 324.88 142.655 324.88 154.747 317.894L277.547 246.95C289.639 239.964 274.524 231.232 250.339 231.232L4.74033 231.232C-19.4438 231.232 -34.5589 239.964 -22.4668 246.95L100.333 317.894Z" fill="black" fill-opacity="0.5"/>
<path d="M-26.4366 101.791C-26.4405 87.3473 -10.8069 60.269 1.704 53.0504L128.757 -20.257C141.268 -27.4756 141.273 -9.42054 128.766 12.2421L1.75356 232.235C-10.7533 253.897 -26.392 262.921 -26.396 248.476L-26.4366 101.791Z" fill="black" fill-opacity="0.35"/>
</g>
</g>
<g clip-path="url(#clip0_112_19999)">
<path d="M98.9149 179.331L54.4688 204.992L56.7736 208.984L53.4009 211.287L44.4567 207.934L39.6933 199.683L92.9222 168.952L98.9149 179.331Z" fill="black"/>
</g>
<g clip-path="url(#clip1_112_19999)">
<path d="M157.91 177.25L171.284 184.971L181.157 167.871L189.474 172.673L213.329 204.189L205.646 217.496L174.507 199.518L171.011 205.573L162.295 200.541L165.791 194.486L152.417 186.765L157.91 177.25ZM184.264 182.618L180 190.004L191.475 198.403L200.897 205.439L202.049 203.443L193.895 194.211L184.264 182.618Z" fill="black"/>
</g>
<path d="M128.083 126.389C121.937 126.389 117.494 125.198 114.754 122.816C112.013 120.435 110.566 116.478 110.413 110.946C110.387 110.024 110.362 109.32 110.336 108.833C110.336 108.347 110.336 107.86 110.336 107.374C110.362 106.887 110.387 106.183 110.413 105.261H122.168V112.483C122.168 113.943 122.654 115.069 123.627 115.863C124.601 116.632 125.983 117.016 127.776 117.016C129.62 117.016 131.003 116.632 131.925 115.863C132.873 115.069 133.359 113.968 133.385 112.56C133.436 110.869 133.462 109.371 133.462 108.065C133.487 106.759 133.462 105.517 133.385 104.339C133.308 102.956 132.86 101.727 132.04 100.651C131.246 99.5755 129.671 99.0633 127.315 99.1145L119.555 99.1914L119.248 89.5109L131.157 74.2987H111.258V64.1572H144.602L144.448 73.9914L132.079 89.2036C136.304 89.5365 139.467 90.8938 141.567 93.2755C143.693 95.6572 144.883 99.4475 145.14 104.646C145.165 105.184 145.178 105.696 145.178 106.183C145.204 106.644 145.216 107.105 145.216 107.566C145.216 108.027 145.216 108.539 145.216 109.102C145.216 109.64 145.191 110.255 145.14 110.946C144.909 116.478 143.462 120.435 140.799 122.816C138.161 125.198 133.923 126.389 128.083 126.389Z" fill="black"/>
<defs>
<filter id="filter0_f_112_19999" x="-46.7227" y="-41.873" width="348.523" height="385.006" filterUnits="userSpaceOnUse" color-interpolation-filters="sRGB">
<feFlood flood-opacity="0" result="BackgroundImageFix"/>
<feBlend mode="normal" in="SourceGraphic" in2="BackgroundImageFix" result="shape"/>
<feGaussianBlur stdDeviation="10" result="effect1_foregroundBlur_112_19999"/>
</filter>
<clipPath id="clip0_112_19999">
<rect width="70" height="70" fill="white" transform="translate(58 239.622) rotate(-120)"/>
</clipPath>
<clipPath id="clip1_112_19999">
<rect width="70" height="70" fill="white" transform="translate(232.621 179) rotate(120)"/>
</clipPath>
</defs>
</svg>
