<svg width="256" height="256" viewBox="0 0 256 256" fill="none" xmlns="http://www.w3.org/2000/svg">
<metadata>
  <rdf:RDF xmlns:rdf="http://www.w3.org/1999/02/22-rdf-syntax-ns#"
            xmlns:dc="http://purl.org/dc/elements/1.1/">
    <rdf:Description>
      <dc:title>swrpg-online.com art asset</dc:title>
      <dc:creator>Joshua Ziggas</dc:creator>
      <dc:rights>CC BY-NC-SA 4.0 - https://github.com/swrpg-online/art</dc:rights>
    </rdf:Description>
  </rdf:RDF>
</metadata>
<desc>
  wrpg-online.com SWRPG Dice Asset
  Created by: Joshua Ziggas
  Source: https://github.com/swrpg-online/art
  License: CC BY-NC-SA 4.0
</desc><mask id="mask0_112_20000" style="mask-type:alpha" maskUnits="userSpaceOnUse" x="2" y="17" width="252" height="223">
<path d="M111.095 26.5C118.408 13.8333 136.691 13.8333 144.004 26.5L250.525 211C257.838 223.667 248.697 239.5 234.071 239.5H21.0283C6.40214 239.5 -2.73924 223.667 4.57386 211L111.095 26.5Z" fill="#D9D9D9"/>
</mask>
<g mask="url(#mask0_112_20000)">
<rect width="256" height="256" fill="#38D133"/>
<g style="mix-blend-mode:multiply" filter="url(#filter0_f_112_20000)">
<path d="M279.337 102.182C279.369 87.9555 263.989 61.3151 251.652 54.2297L126.366 -17.7262C114.029 -24.8117 113.988 -7.0282 126.293 14.2841L251.252 230.719C263.556 252.031 278.977 260.888 279.01 246.661L279.337 102.182Z" fill="black" fill-opacity="0.25"/>
<path d="M100.333 317.894C112.425 324.88 142.655 324.88 154.747 317.894L277.547 246.95C289.639 239.964 274.524 231.232 250.339 231.232L4.74033 231.232C-19.4438 231.232 -34.5589 239.964 -22.4668 246.95L100.333 317.894Z" fill="black" fill-opacity="0.5"/>
<path d="M-26.4366 101.791C-26.4405 87.3473 -10.8069 60.269 1.704 53.0504L128.757 -20.257C141.268 -27.4756 141.273 -9.42054 128.766 12.2421L1.75356 232.235C-10.7533 253.897 -26.392 262.921 -26.396 248.476L-26.4366 101.791Z" fill="black" fill-opacity="0.35"/>
</g>
</g>
<g clip-path="url(#clip0_112_20000)">
<path d="M98.9149 179.331L54.4688 204.992L56.7736 208.984L53.4009 211.287L44.4567 207.934L39.6933 199.683L92.9222 168.952L98.9149 179.331Z" fill="black"/>
</g>
<g clip-path="url(#clip1_112_20000)">
<path d="M157.91 177.25L171.284 184.971L181.157 167.871L189.474 172.673L213.329 204.189L205.646 217.496L174.507 199.518L171.011 205.573L162.295 200.541L165.791 194.486L152.417 186.765L157.91 177.25ZM184.264 182.618L180 190.004L191.475 198.403L200.897 205.439L202.049 203.443L193.895 194.211L184.264 182.618Z" fill="black"/>
</g>
<path d="M111.134 126.389C111.109 125.441 111.083 124.558 111.057 123.738C111.057 122.919 111.044 122.138 111.019 121.395C111.019 120.627 111.006 119.858 110.98 119.09C110.98 118.322 110.98 117.502 110.98 116.632C111.006 115.735 111.032 114.762 111.057 113.712C111.134 111.1 111.621 108.705 112.517 106.529C113.439 104.326 114.796 102.329 116.589 100.536C118.382 98.7176 120.635 97.0914 123.35 95.6572L128.728 92.8145C130.495 91.8926 131.635 90.7658 132.147 89.4341C132.659 88.1023 132.954 86.8987 133.03 85.8231C133.107 84.5426 133.159 83.1597 133.184 81.6743C133.21 80.1633 133.184 78.7548 133.107 77.4487C133.03 76.245 132.557 75.2975 131.686 74.606C130.815 73.8889 129.496 73.5304 127.729 73.5304C126.013 73.5304 124.771 73.8761 124.003 74.5676C123.26 75.2334 122.863 76.0914 122.812 77.1414C122.735 79.2158 122.684 81.0469 122.659 82.6347C122.659 84.1969 122.71 85.9767 122.812 87.9743H111.211C111.16 86.9755 111.121 85.9767 111.096 84.978C111.07 83.9536 111.044 82.9804 111.019 82.0584C111.019 81.1365 111.032 80.2914 111.057 79.5231C111.288 74.017 112.696 70.0859 115.283 67.7298C117.895 65.3481 122.044 64.1572 127.729 64.1572C131.75 64.1572 134.977 64.6822 137.41 65.7322C139.868 66.7566 141.674 68.3956 142.826 70.6493C143.979 72.903 144.632 75.8609 144.785 79.5231C144.811 80.1377 144.824 80.7139 144.824 81.2517C144.849 81.7639 144.862 82.2633 144.862 82.7499C144.862 83.2109 144.849 83.6847 144.824 84.1712C144.824 84.6578 144.811 85.1828 144.785 85.7462C144.683 88.5889 144.132 91.0603 143.134 93.1603C142.135 95.2347 140.79 97.0401 139.1 98.5767C137.41 100.113 135.463 101.471 133.261 102.649L127.038 105.952C125.988 106.516 125.155 107.271 124.541 108.219C123.952 109.141 123.529 110.101 123.273 111.1C123.017 112.099 122.889 112.969 122.889 113.712V116.247H143.863V126.389H111.134Z" fill="black"/>
<defs>
<filter id="filter0_f_112_20000" x="-46.7227" y="-41.873" width="348.523" height="385.006" filterUnits="userSpaceOnUse" color-interpolation-filters="sRGB">
<feFlood flood-opacity="0" result="BackgroundImageFix"/>
<feBlend mode="normal" in="SourceGraphic" in2="BackgroundImageFix" result="shape"/>
<feGaussianBlur stdDeviation="10" result="effect1_foregroundBlur_112_20000"/>
</filter>
<clipPath id="clip0_112_20000">
<rect width="70" height="70" fill="white" transform="translate(58 239.622) rotate(-120)"/>
</clipPath>
<clipPath id="clip1_112_20000">
<rect width="70" height="70" fill="white" transform="translate(232.621 179) rotate(120)"/>
</clipPath>
</defs>
</svg>
