<svg width="256" height="256" viewBox="0 0 256 256" fill="none" xmlns="http://www.w3.org/2000/svg">
<metadata>
  <rdf:RDF xmlns:rdf="http://www.w3.org/1999/02/22-rdf-syntax-ns#"
            xmlns:dc="http://purl.org/dc/elements/1.1/">
    <rdf:Description>
      <dc:title>swrpg-online.com art asset</dc:title>
      <dc:creator>Joshua Ziggas</dc:creator>
      <dc:rights>CC BY-NC-SA 4.0 - https://github.com/swrpg-online/art</dc:rights>
    </rdf:Description>
  </rdf:RDF>
</metadata>
<desc>
  wrpg-online.com SWRPG Dice Asset
  Created by: Joshua Ziggas
  Source: https://github.com/swrpg-online/art
  License: CC BY-NC-SA 4.0
</desc><mask id="mask0_112_20043" style="mask-type:alpha" maskUnits="userSpaceOnUse" x="10" y="0" width="237" height="256">
<path d="M100.601 7.4368C117.775 -2.47893 138.935 -2.47893 156.11 7.4368L218.819 43.6421C235.994 53.5579 246.574 71.8829 246.574 91.7144V164.125C246.574 183.956 235.994 202.281 218.819 212.197L156.11 248.403C138.935 258.318 117.775 258.318 100.601 248.403L37.8912 212.197C20.7167 202.281 10.1367 183.956 10.1367 164.125V91.7144C10.1367 71.8829 20.7167 53.5578 37.8912 43.6421L100.601 7.4368Z" fill="black"/>
</mask>
<g mask="url(#mask0_112_20043)">
<rect width="256" height="256" fill="#38D133"/>
<mask id="mask1_112_20043" style="mask-type:alpha" maskUnits="userSpaceOnUse" x="10" y="0" width="237" height="256">
<path d="M100.601 7.4368C117.775 -2.47893 138.935 -2.47893 156.11 7.4368L218.819 43.6421C235.994 53.5579 246.574 71.8829 246.574 91.7144V164.125C246.574 183.956 235.994 202.281 218.819 212.197L156.11 248.403C138.935 258.318 117.775 258.318 100.601 248.403L37.8912 212.197C20.7167 202.281 10.1367 183.956 10.1367 164.125V91.7144C10.1367 71.8829 20.7167 53.5578 37.8912 43.6421L100.601 7.4368Z" fill="#9B46E0"/>
</mask>
<g mask="url(#mask1_112_20043)">
<g filter="url(#filter0_f_112_20043)">
<mask id="mask2_112_20043" style="mask-type:alpha" maskUnits="userSpaceOnUse" x="-1" y="-13" width="259" height="280">
<path fill-rule="evenodd" clip-rule="evenodd" d="M158.903 -4.86089C140.09 -15.713 116.91 -15.713 98.0969 -4.86089L29.4031 34.7635C10.5896 45.6157 -1 65.6713 -1 87.3756V166.624C-1 188.329 10.5896 208.384 29.4031 219.236L98.0969 258.861C116.91 269.713 140.09 269.713 158.903 258.861L227.597 219.236C246.41 208.384 258 188.329 258 166.624V87.3756C258 65.6713 246.41 45.6157 227.597 34.7635L158.903 -4.86089ZM110.206 232.99C118.273 246.962 138.439 246.962 146.506 232.99L228.425 91.1025C236.491 77.1308 226.408 59.6662 210.275 59.6662L46.437 59.6662C30.3039 59.6662 20.2207 77.1308 28.2873 91.1025L110.206 232.99Z" fill="#9B46E0"/>
</mask>
<g mask="url(#mask2_112_20043)">
<path d="M151.281 -6.49614C140.934 -12.5013 115.066 -12.5013 104.719 -6.49615L-0.358358 54.4884C-10.7053 60.4936 2.22836 68 22.9223 68L233.078 68C253.772 68 266.705 60.4936 256.358 54.4884L151.281 -6.49614Z" fill="black" fill-opacity="0.25"/>
<path d="M233.109 214.558C243.28 208.689 255.99 186.675 255.987 174.931L255.954 55.6757C255.951 43.9326 243.237 51.2685 233.068 68.8803L129.806 247.735C119.638 265.347 119.642 280.026 129.814 274.157L233.109 214.558Z" fill="black" fill-opacity="0.5"/>
<path d="M22.4338 216.016C11.9133 209.946 -1.233 187.176 -1.22964 175.03L-1.19553 51.6826C-1.19217 39.5366 11.9583 47.1242 22.4754 65.3403L129.28 250.332C139.797 268.548 139.793 283.73 129.273 277.66L22.4338 216.016Z" fill="black" fill-opacity="0.35"/>
</g>
</g>
</g>
</g>
<path d="M128.035 179.3C118.275 179.3 111.268 177.361 107.014 173.482C102.76 169.603 100.591 163.159 100.508 154.151C100.466 147.102 100.425 140.638 100.383 134.757C100.341 128.876 100.32 123.663 100.32 119.117C100.32 114.57 100.341 110.838 100.383 107.918C100.425 104.957 100.466 102.892 100.508 101.725C100.883 93.2163 103.428 86.9185 108.14 82.8312C112.895 78.7439 119.485 76.7002 127.91 76.7002C136.668 76.7002 143.362 78.869 147.992 83.2065C152.621 87.5441 155.061 93.3831 155.311 100.724C155.353 101.599 155.374 102.371 155.374 103.038C155.416 103.706 155.416 104.456 155.374 105.291C155.374 106.125 155.353 107.23 155.311 108.606H136.293C136.418 107.272 136.481 106.187 136.481 105.353C136.522 104.477 136.522 103.539 136.481 102.538C136.439 101.495 136.376 100.056 136.293 98.2212C136.251 96.3443 135.563 94.8429 134.228 93.7168C132.935 92.549 130.871 91.9651 128.035 91.9651C125.282 91.9651 123.218 92.5073 121.841 93.5917C120.465 94.6761 119.735 96.2192 119.652 98.2212C119.527 101.599 119.401 105.332 119.276 109.42C119.193 113.465 119.151 117.74 119.151 122.245H122.529C123.739 120.159 125.637 118.428 128.223 117.052C130.85 115.676 133.874 114.988 137.294 114.988C144.384 114.988 149.243 116.656 151.871 119.992C154.54 123.287 155.937 128.793 156.062 136.508C156.104 139.136 156.125 141.305 156.125 143.015C156.166 144.725 156.166 146.414 156.125 148.082C156.125 149.709 156.062 151.732 155.937 154.151C155.437 163.159 153.08 169.603 148.868 173.482C144.697 177.361 137.753 179.3 128.035 179.3ZM128.16 164.035C130.996 164.035 133.123 163.493 134.541 162.409C136.001 161.283 136.752 159.698 136.793 157.654C136.877 155.444 136.939 153.442 136.981 151.648C137.023 149.813 137.064 148.082 137.106 146.456C137.148 144.829 137.169 143.244 137.169 141.701C137.169 140.158 137.127 138.594 137.044 137.009C137.002 134.882 136.189 133.276 134.604 132.192C133.061 131.066 131.038 130.503 128.535 130.503C125.741 130.503 123.489 131.045 121.779 132.129C120.11 133.214 119.235 134.757 119.151 136.759C119.151 140.137 119.172 143.557 119.214 147.019C119.297 150.48 119.401 153.942 119.527 157.404C119.61 159.531 120.382 161.178 121.841 162.346C123.301 163.472 125.407 164.035 128.16 164.035Z" fill="black"/>
<g filter="url(#filter1_f_112_20043)">
<path d="M46.1392 88.8365C46.1392 104.243 68.7959 141.325 80.1243 157.94C73.7993 149.254 59.5067 128.882 52.9362 116.874C44.7231 101.864 31.6955 80.6234 39.6254 72.6935C45.9692 66.3496 71.7224 64.7637 83.806 64.7637H148.378C174.15 64.7637 195.202 71.3719 202.188 74.676C202.188 74.676 171.318 69.0118 148.378 69.0118H83.806C69.0791 69.0118 46.1392 69.5782 46.1392 88.8365Z" fill="url(#paint0_radial_112_20043)"/>
</g>
<defs>
<filter id="filter0_f_112_20043" x="-13" y="-23" width="283" height="302" filterUnits="userSpaceOnUse" color-interpolation-filters="sRGB">
<feFlood flood-opacity="0" result="BackgroundImageFix"/>
<feBlend mode="normal" in="SourceGraphic" in2="BackgroundImageFix" result="shape"/>
<feGaussianBlur stdDeviation="6" result="effect1_foregroundBlur_112_20043"/>
</filter>
<filter id="filter1_f_112_20043" x="31.496" y="59.0995" width="176.356" height="104.504" filterUnits="userSpaceOnUse" color-interpolation-filters="sRGB">
<feFlood flood-opacity="0" result="BackgroundImageFix"/>
<feBlend mode="normal" in="SourceGraphic" in2="BackgroundImageFix" result="shape"/>
<feGaussianBlur stdDeviation="2.83209" result="effect1_foregroundBlur_112_20043"/>
</filter>
<radialGradient id="paint0_radial_112_20043" cx="0" cy="0" r="1" gradientUnits="userSpaceOnUse" gradientTransform="translate(37.1602 71.5607) rotate(34.3188) scale(171.795 304.273)">
<stop stop-color="white"/>
<stop offset="1" stop-color="white" stop-opacity="0"/>
</radialGradient>
</defs>
</svg>
