<svg width="256" height="256" viewBox="0 0 256 256" fill="none" xmlns="http://www.w3.org/2000/svg">
<metadata>
  <rdf:RDF xmlns:rdf="http://www.w3.org/1999/02/22-rdf-syntax-ns#"
            xmlns:dc="http://purl.org/dc/elements/1.1/">
    <rdf:Description>
      <dc:title>swrpg-online.com art asset</dc:title>
      <dc:creator>Joshua Ziggas</dc:creator>
      <dc:rights>CC BY-NC-SA 4.0 - https://github.com/swrpg-online/art</dc:rights>
    </rdf:Description>
  </rdf:RDF>
</metadata>
<desc>
  wrpg-online.com SWRPG Dice Asset
  Created by: Joshua Ziggas
  Source: https://github.com/swrpg-online/art
  License: CC BY-NC-SA 4.0
</desc><g clip-path="url(#clip0_112_22909)">
<mask id="mask0_112_22909" style="mask-type:alpha" maskUnits="userSpaceOnUse" x="-1" y="14" width="257" height="227">
<path d="M110.379 235.925C121.123 242.654 134.766 242.654 145.511 235.925L236.466 178.967C240.042 176.728 243.006 173.635 245.09 169.966C259.672 144.302 259.62 112.766 245.038 87.1014C242.991 83.4986 240.091 80.4362 236.601 78.202L145.79 20.0612C134.913 13.0968 120.977 13.0968 110.099 20.0612L19.2882 78.202C15.7985 80.4362 12.8983 83.4986 10.8513 87.1014C-3.73072 112.766 -3.78287 144.302 10.7991 169.966C12.8836 173.635 15.8472 176.728 19.4234 178.967L110.379 235.925Z" fill="#D1D1D1"/>
</mask>
<g mask="url(#mask0_112_22909)">
<rect width="256" height="256" fill="#FFE723"/>
<g style="mix-blend-mode:multiply">
<g filter="url(#filter0_f_112_22909)">
<path fill-rule="evenodd" clip-rule="evenodd" d="M264.336 9.53906H-8.97852V246.554H264.336V9.53906ZM95.381 68.5389L95.3817 68.5372C102.71 51.0444 113.837 24.4859 126.611 24.4859C139.385 24.4859 150.511 51.0444 157.84 68.5372C158.931 71.1407 159.937 73.5434 160.853 75.6278C161.401 76.8757 162.017 78.2618 162.689 79.7708C170.674 97.7196 186.398 133.065 186.398 160.098C186.398 189.404 155.961 212.389 126.611 212.389C97.2607 212.389 66.8234 189.404 66.8234 160.098C66.8234 133.065 82.5479 97.7196 90.533 79.7708L90.533 79.7707C91.2044 78.2617 91.821 76.8756 92.369 75.6278C93.2842 73.5439 94.2905 71.1418 95.381 68.5389Z" fill="#D8D6D6"/>
</g>
<g filter="url(#filter1_f_112_22909)">
<path d="M162.457 209.279C140.502 221.501 113.787 221.501 91.8317 209.279L75.3642 200.111C70.204 197.442 57.3212 190.93 47.072 186.232C43.3907 184.545 39.4451 182.99 35.5136 181.44C25.7625 177.597 16.0985 173.789 10.7724 168.082C4.79368 161.676 2.23136 155.093 1.69754 152.602H-3.64062V256.696H257.93V152.602H252.591C252.058 155.093 249.495 161.676 243.517 168.082C238.19 173.789 228.526 177.597 218.775 181.44C214.844 182.99 210.898 184.545 207.217 186.232C196.968 190.93 184.085 197.442 178.925 200.111L162.457 209.279Z" fill="#595959"/>
</g>
<g filter="url(#filter2_f_112_22909)">
<path d="M179.438 105.142C169.73 84.5731 145.997 32.6109 151.391 26.6569C154.627 22.868 168.112 29.3633 184.293 38.0237C200.474 46.684 233.376 69.9588 244.163 80.7842C254.95 91.6097 261.423 112.719 260.344 131.664C259.265 150.608 248.478 177.131 227.982 171.177C207.486 165.223 189.147 125.71 179.438 105.142Z" fill="#B9B9B9"/>
</g>
<g filter="url(#filter3_f_112_22909)">
<path d="M74.8507 105.142C84.5594 84.5731 108.292 32.6109 102.898 26.6569C99.6618 22.868 86.1775 29.3633 69.9964 38.0237C53.8152 46.684 20.9135 69.9588 10.1261 80.7842C-0.661392 91.6097 -7.13386 112.719 -6.05511 131.664C-4.97637 150.608 5.81107 177.131 26.3072 171.177C46.8034 165.223 65.142 125.71 74.8507 105.142Z" fill="#C7C7C7"/>
</g>
</g>
</g>
<g clip-path="url(#clip1_112_22909)">
<path d="M154.089 184.89C147.242 184.89 141.959 183.195 138.242 179.804C134.558 176.38 132.634 171.522 132.471 165.229C132.341 160.501 132.259 155.838 132.226 151.241C132.194 146.644 132.194 142.095 132.226 137.595C132.292 133.096 132.373 128.645 132.471 124.243C132.634 117.918 134.574 113.076 138.291 109.717C142.041 106.359 147.307 104.68 154.089 104.68C160.806 104.68 166.023 106.359 169.74 109.717C173.457 113.076 175.413 117.918 175.609 124.243C175.739 128.091 175.837 131.775 175.902 135.297C175.967 138.818 176 142.242 176 145.568C176 148.893 175.967 152.187 175.902 155.447C175.837 158.675 175.739 161.936 175.609 165.229C175.381 171.783 173.359 176.706 169.544 180C165.762 183.26 160.61 184.89 154.089 184.89ZM154.089 172.957C158.262 172.957 160.447 171.392 160.643 168.261C160.903 162.849 161.066 157.697 161.132 152.806C161.229 147.883 161.229 142.894 161.132 137.84C161.066 132.753 160.903 127.276 160.643 121.407C160.545 118.211 158.36 116.613 154.089 116.613C149.752 116.613 147.535 118.244 147.437 121.504C147.274 125.645 147.144 129.591 147.046 133.34C146.981 137.09 146.948 140.791 146.948 144.443C146.948 148.095 146.981 151.844 147.046 155.692C147.144 159.539 147.274 163.631 147.437 167.968C147.535 171.294 149.752 172.957 154.089 172.957Z" fill="black"/>
<path d="M102.596 184.89C94.7705 184.89 89.1134 183.374 85.6245 180.342C82.1357 177.31 80.2935 172.272 80.0978 165.229C80.0652 164.055 80.0326 163.159 80 162.539C80 161.92 80 161.3 80 160.681C80.0326 160.061 80.0652 159.164 80.0978 157.991H95.064V167.185C95.064 169.044 95.6835 170.479 96.9225 171.489C98.1615 172.468 99.9223 172.957 102.205 172.957C104.552 172.957 106.313 172.468 107.487 171.489C108.693 170.479 109.313 169.077 109.345 167.283C109.411 165.131 109.443 163.224 109.443 161.561C109.476 159.898 109.443 158.317 109.345 156.817C109.248 155.056 108.677 153.491 107.634 152.121C106.623 150.752 104.618 150.1 101.618 150.165L91.7382 150.263L91.3469 137.938L106.509 118.57H81.1738V105.658H123.627L123.431 118.179L107.682 137.547C113.062 137.97 117.089 139.699 119.763 142.731C122.469 145.763 123.985 150.589 124.312 157.208C124.344 157.893 124.36 158.545 124.36 159.164C124.393 159.751 124.409 160.338 124.409 160.925C124.409 161.512 124.409 162.164 124.409 162.881C124.409 163.566 124.377 164.349 124.312 165.229C124.018 172.272 122.176 177.31 118.785 180.342C115.426 183.374 110.03 184.89 102.596 184.89Z" fill="black"/>
</g>
<g filter="url(#filter4_f_112_22909)">
<path fill-rule="evenodd" clip-rule="evenodd" d="M93.2454 69.5646L93.2458 69.5638C100.574 52.5112 111.701 26.6211 124.475 26.6211C126.141 26.6211 127.779 27.0615 129.384 27.8653C117.239 29.8134 106.693 54.9561 99.6516 71.7413C98.5609 74.3416 97.5543 76.7413 96.6389 78.8231C96.0909 80.0694 95.4743 81.4537 94.803 82.9608L94.8029 82.961C86.8178 100.887 71.0933 136.189 71.0933 163.188C71.0933 176.478 77.3683 188.467 86.9673 197.595C73.8495 188.314 64.6875 174.495 64.6875 158.821C64.6875 132.468 80.412 98.0118 88.3971 80.5147L88.3977 80.5133C89.0688 79.0427 89.6852 77.692 90.2331 76.476C91.1483 74.4442 92.1548 72.1023 93.2454 69.5646Z" fill="white"/>
</g>
</g>
<defs>
<filter id="filter0_f_112_22909" x="-18.9785" y="-0.460938" width="293.314" height="257.014" filterUnits="userSpaceOnUse" color-interpolation-filters="sRGB">
<feFlood flood-opacity="0" result="BackgroundImageFix"/>
<feBlend mode="normal" in="SourceGraphic" in2="BackgroundImageFix" result="shape"/>
<feGaussianBlur stdDeviation="5" result="effect1_foregroundBlur_112_22909"/>
</filter>
<filter id="filter1_f_112_22909" x="-13.6406" y="142.602" width="281.57" height="124.094" filterUnits="userSpaceOnUse" color-interpolation-filters="sRGB">
<feFlood flood-opacity="0" result="BackgroundImageFix"/>
<feBlend mode="normal" in="SourceGraphic" in2="BackgroundImageFix" result="shape"/>
<feGaussianBlur stdDeviation="5" result="effect1_foregroundBlur_112_22909"/>
</filter>
<filter id="filter2_f_112_22909" x="140.604" y="15.5527" width="129.857" height="166.477" filterUnits="userSpaceOnUse" color-interpolation-filters="sRGB">
<feFlood flood-opacity="0" result="BackgroundImageFix"/>
<feBlend mode="normal" in="SourceGraphic" in2="BackgroundImageFix" result="shape"/>
<feGaussianBlur stdDeviation="5" result="effect1_foregroundBlur_112_22909"/>
</filter>
<filter id="filter3_f_112_22909" x="-16.1719" y="15.5527" width="129.857" height="166.477" filterUnits="userSpaceOnUse" color-interpolation-filters="sRGB">
<feFlood flood-opacity="0" result="BackgroundImageFix"/>
<feBlend mode="normal" in="SourceGraphic" in2="BackgroundImageFix" result="shape"/>
<feGaussianBlur stdDeviation="5" result="effect1_foregroundBlur_112_22909"/>
</filter>
<filter id="filter4_f_112_22909" x="60.6875" y="22.6211" width="72.6973" height="178.975" filterUnits="userSpaceOnUse" color-interpolation-filters="sRGB">
<feFlood flood-opacity="0" result="BackgroundImageFix"/>
<feBlend mode="normal" in="SourceGraphic" in2="BackgroundImageFix" result="shape"/>
<feGaussianBlur stdDeviation="2" result="effect1_foregroundBlur_112_22909"/>
</filter>
<clipPath id="clip0_112_22909">
<rect width="256" height="256" fill="white"/>
</clipPath>
<clipPath id="clip1_112_22909">
<rect width="96" height="96" fill="white" transform="translate(80 97)"/>
</clipPath>
</defs>
</svg>
