<svg width="256" height="256" viewBox="0 0 256 256" fill="none" xmlns="http://www.w3.org/2000/svg">
<metadata>
  <rdf:RDF xmlns:rdf="http://www.w3.org/1999/02/22-rdf-syntax-ns#"
            xmlns:dc="http://purl.org/dc/elements/1.1/">
    <rdf:Description>
      <dc:title>swrpg-online.com art asset</dc:title>
      <dc:creator>Joshua Ziggas</dc:creator>
      <dc:rights>CC BY-NC-SA 4.0 - https://github.com/swrpg-online/art</dc:rights>
    </rdf:Description>
  </rdf:RDF>
</metadata>
<desc>
  wrpg-online.com SWRPG Dice Asset
  Created by: Joshua Ziggas
  Source: https://github.com/swrpg-online/art
  License: CC BY-NC-SA 4.0
</desc><g clip-path="url(#clip0_112_22910)">
<mask id="mask0_112_22910" style="mask-type:alpha" maskUnits="userSpaceOnUse" x="-1" y="14" width="257" height="227">
<path d="M110.379 235.925C121.123 242.653 134.766 242.653 145.511 235.925L236.466 178.966C240.042 176.727 243.006 173.634 245.09 169.965C259.672 144.301 259.62 112.765 245.038 87.1004C242.991 83.4977 240.091 80.4353 236.601 78.201L145.79 20.0602C134.913 13.0958 120.977 13.0958 110.099 20.0602L19.2882 78.201C15.7985 80.4353 12.8983 83.4977 10.8513 87.1004C-3.73072 112.765 -3.78287 144.301 10.7991 169.965C12.8836 173.634 15.8472 176.727 19.4234 178.966L110.379 235.925Z" fill="#D1D1D1"/>
</mask>
<g mask="url(#mask0_112_22910)">
<rect width="256" height="256" fill="#FFE723"/>
<g style="mix-blend-mode:multiply">
<g filter="url(#filter0_f_112_22910)">
<path fill-rule="evenodd" clip-rule="evenodd" d="M264.336 9.53711H-8.97852V246.552H264.336V9.53711ZM95.381 68.537L95.3817 68.5353C102.71 51.0425 113.837 24.484 126.611 24.484C139.385 24.484 150.511 51.0425 157.84 68.5353C158.931 71.1388 159.937 73.5415 160.853 75.6259C161.401 76.8737 162.017 78.2598 162.689 79.7689C170.674 97.7177 186.398 133.063 186.398 160.096C186.398 189.402 155.961 212.387 126.611 212.387C97.2607 212.387 66.8234 189.402 66.8234 160.096C66.8234 133.063 82.5479 97.7177 90.533 79.7689L90.533 79.7688C91.2044 78.2597 91.821 76.8737 92.369 75.6259C93.2842 73.5419 94.2905 71.1398 95.381 68.537Z" fill="#D8D6D6"/>
</g>
<g filter="url(#filter1_f_112_22910)">
<path d="M162.457 209.277C140.502 221.499 113.787 221.499 91.8317 209.277L75.3642 200.109C70.204 197.44 57.3212 190.928 47.072 186.23C43.3907 184.543 39.4451 182.988 35.5136 181.438C25.7625 177.595 16.0985 173.787 10.7724 168.08C4.79368 161.674 2.23136 155.091 1.69754 152.6H-3.64062V256.694H257.93V152.6H252.591C252.058 155.091 249.495 161.674 243.517 168.08C238.19 173.787 228.526 177.595 218.775 181.438C214.844 182.988 210.898 184.543 207.217 186.23C196.968 190.928 184.085 197.44 178.925 200.109L162.457 209.277Z" fill="#595959"/>
</g>
<g filter="url(#filter2_f_112_22910)">
<path d="M179.438 105.141C169.73 84.5722 145.997 32.61 151.391 26.656C154.627 22.867 168.112 29.3623 184.293 38.0227C200.474 46.6831 233.376 69.9578 244.163 80.7833C254.95 91.6087 261.423 112.718 260.344 131.663C259.265 150.607 248.478 177.13 227.982 171.176C207.486 165.222 189.147 125.709 179.438 105.141Z" fill="#B9B9B9"/>
</g>
<g filter="url(#filter3_f_112_22910)">
<path d="M74.8507 105.141C84.5594 84.5722 108.292 32.61 102.898 26.656C99.6618 22.867 86.1775 29.3623 69.9964 38.0227C53.8152 46.6831 20.9135 69.9578 10.1261 80.7833C-0.661392 91.6087 -7.13386 112.718 -6.05511 131.663C-4.97637 150.607 5.81107 177.13 26.3072 171.176C46.8034 165.222 65.142 125.709 74.8507 105.141Z" fill="#C7C7C7"/>
</g>
</g>
</g>
<g clip-path="url(#clip1_112_22910)">
<path d="M153.774 186.044C146.828 186.044 141.47 184.324 137.699 180.884C133.962 177.411 132.011 172.483 131.845 166.099C131.713 161.304 131.63 156.574 131.597 151.91C131.564 147.247 131.564 142.633 131.597 138.069C131.663 133.504 131.746 128.99 131.845 124.525C132.011 118.108 133.979 113.196 137.749 109.79C141.553 106.383 146.894 104.68 153.774 104.68C160.587 104.68 165.879 106.383 169.65 109.79C173.42 113.196 175.405 118.108 175.603 124.525C175.735 128.427 175.835 132.165 175.901 135.737C175.967 139.309 176 142.782 176 146.155C176 149.529 175.967 152.87 175.901 156.177C175.835 159.451 175.735 162.759 175.603 166.099C175.372 172.747 173.321 177.742 169.451 181.082C165.615 184.39 160.389 186.044 153.774 186.044ZM153.774 173.938C158.007 173.938 160.223 172.351 160.422 169.175C160.686 163.685 160.852 158.459 160.918 153.498C161.017 148.504 161.017 143.443 160.918 138.317C160.852 133.157 160.686 127.6 160.422 121.647C160.323 118.406 158.107 116.785 153.774 116.785C149.375 116.785 147.126 118.439 147.027 121.746C146.861 125.947 146.729 129.949 146.63 133.752C146.563 137.556 146.53 141.31 146.53 145.014C146.53 148.719 146.563 152.522 146.63 156.425C146.729 160.328 146.861 164.479 147.027 168.878C147.126 172.251 149.375 173.938 153.774 173.938Z" fill="black"/>
<path d="M80.1984 185.051C80.1654 183.827 80.1323 182.686 80.0992 181.628C80.0992 180.57 80.0827 179.561 80.0496 178.602C80.0496 177.609 80.0331 176.617 80 175.625C80 174.633 80 173.574 80 172.45C80.0331 171.292 80.0661 170.035 80.0992 168.679C80.1984 165.306 80.8269 162.213 81.9845 159.402C83.1752 156.557 84.9281 153.978 87.2434 151.662C89.5586 149.314 92.4692 147.214 95.9751 145.362L102.921 141.69C105.203 140.5 106.675 139.044 107.336 137.324C107.998 135.605 108.378 134.05 108.477 132.661C108.577 131.007 108.643 129.221 108.676 127.303C108.709 125.351 108.676 123.532 108.577 121.845C108.477 120.291 107.865 119.067 106.741 118.174C105.616 117.248 103.913 116.785 101.631 116.785C99.4149 116.785 97.8107 117.232 96.8185 118.125C95.8593 118.985 95.3467 120.093 95.2805 121.449C95.1813 124.128 95.1151 126.492 95.0821 128.543C95.0821 130.561 95.1482 132.859 95.2805 135.439H80.2977C80.2315 134.149 80.1819 132.859 80.1488 131.569C80.1158 130.246 80.0827 128.99 80.0496 127.799C80.0496 126.608 80.0661 125.517 80.0992 124.525C80.3969 117.413 82.216 112.336 85.5566 109.294C88.9302 106.218 94.2883 104.68 101.631 104.68C106.824 104.68 110.991 105.358 114.133 106.714C117.308 108.037 119.64 110.154 121.128 113.064C122.617 115.975 123.46 119.795 123.659 124.525C123.692 125.318 123.708 126.062 123.708 126.757C123.741 127.419 123.758 128.064 123.758 128.692C123.758 129.287 123.741 129.899 123.708 130.528C123.708 131.156 123.692 131.834 123.659 132.562C123.526 136.233 122.815 139.425 121.525 142.137C120.235 144.816 118.499 147.148 116.316 149.132C114.133 151.117 111.619 152.87 108.775 154.391L100.738 158.658C99.3818 159.385 98.3069 160.361 97.5131 161.585C96.7523 162.775 96.2066 164.016 95.8759 165.306C95.5451 166.596 95.3797 167.72 95.3797 168.679V171.954H122.468V185.051H80.1984Z" fill="black"/>
</g>
<g filter="url(#filter4_f_112_22910)">
<path fill-rule="evenodd" clip-rule="evenodd" d="M93.2454 69.5637L93.2458 69.5629C100.574 52.5103 111.701 26.6201 124.475 26.6201C126.141 26.6201 127.779 27.0605 129.384 27.8643C117.239 29.8124 106.693 54.9551 99.6516 71.7404C98.5609 74.3406 97.5543 76.7403 96.6389 78.8222C96.0909 80.0684 95.4743 81.4527 94.803 82.9598L94.8029 82.96C86.8178 100.886 71.0933 136.188 71.0933 163.188C71.0933 176.477 77.3683 188.466 86.9673 197.594C73.8495 188.313 64.6875 174.494 64.6875 158.82C64.6875 132.467 80.412 98.0108 88.3971 80.5138L88.3977 80.5123C89.0688 79.0418 89.6852 77.6911 90.2331 76.475C91.1483 74.4433 92.1548 72.1013 93.2454 69.5637Z" fill="white"/>
</g>
</g>
<defs>
<filter id="filter0_f_112_22910" x="-18.9785" y="-0.462891" width="293.314" height="257.014" filterUnits="userSpaceOnUse" color-interpolation-filters="sRGB">
<feFlood flood-opacity="0" result="BackgroundImageFix"/>
<feBlend mode="normal" in="SourceGraphic" in2="BackgroundImageFix" result="shape"/>
<feGaussianBlur stdDeviation="5" result="effect1_foregroundBlur_112_22910"/>
</filter>
<filter id="filter1_f_112_22910" x="-13.6406" y="142.6" width="281.57" height="124.094" filterUnits="userSpaceOnUse" color-interpolation-filters="sRGB">
<feFlood flood-opacity="0" result="BackgroundImageFix"/>
<feBlend mode="normal" in="SourceGraphic" in2="BackgroundImageFix" result="shape"/>
<feGaussianBlur stdDeviation="5" result="effect1_foregroundBlur_112_22910"/>
</filter>
<filter id="filter2_f_112_22910" x="140.604" y="15.5518" width="129.857" height="166.478" filterUnits="userSpaceOnUse" color-interpolation-filters="sRGB">
<feFlood flood-opacity="0" result="BackgroundImageFix"/>
<feBlend mode="normal" in="SourceGraphic" in2="BackgroundImageFix" result="shape"/>
<feGaussianBlur stdDeviation="5" result="effect1_foregroundBlur_112_22910"/>
</filter>
<filter id="filter3_f_112_22910" x="-16.1719" y="15.5518" width="129.857" height="166.478" filterUnits="userSpaceOnUse" color-interpolation-filters="sRGB">
<feFlood flood-opacity="0" result="BackgroundImageFix"/>
<feBlend mode="normal" in="SourceGraphic" in2="BackgroundImageFix" result="shape"/>
<feGaussianBlur stdDeviation="5" result="effect1_foregroundBlur_112_22910"/>
</filter>
<filter id="filter4_f_112_22910" x="60.6875" y="22.6201" width="72.6973" height="178.974" filterUnits="userSpaceOnUse" color-interpolation-filters="sRGB">
<feFlood flood-opacity="0" result="BackgroundImageFix"/>
<feBlend mode="normal" in="SourceGraphic" in2="BackgroundImageFix" result="shape"/>
<feGaussianBlur stdDeviation="2" result="effect1_foregroundBlur_112_22910"/>
</filter>
<clipPath id="clip0_112_22910">
<rect width="256" height="256" fill="white"/>
</clipPath>
<clipPath id="clip1_112_22910">
<rect width="96" height="96" fill="white" transform="translate(80 97)"/>
</clipPath>
</defs>
</svg>
