<svg width="256" height="256" viewBox="0 0 256 256" fill="none" xmlns="http://www.w3.org/2000/svg">
<metadata>
  <rdf:RDF xmlns:rdf="http://www.w3.org/1999/02/22-rdf-syntax-ns#"
            xmlns:dc="http://purl.org/dc/elements/1.1/">
    <rdf:Description>
      <dc:title>swrpg-online.com art asset</dc:title>
      <dc:creator>Joshua Ziggas</dc:creator>
      <dc:rights>CC BY-NC-SA 4.0 - https://github.com/swrpg-online/art</dc:rights>
    </rdf:Description>
  </rdf:RDF>
</metadata>
<desc>
  wrpg-online.com SWRPG Dice Asset
  Created by: Joshua Ziggas
  Source: https://github.com/swrpg-online/art
  License: CC BY-NC-SA 4.0
</desc><g clip-path="url(#clip0_112_22906)">
<mask id="mask0_112_22906" style="mask-type:alpha" maskUnits="userSpaceOnUse" x="-1" y="14" width="257" height="227">
<path d="M110.379 235.925C121.123 242.654 134.766 242.654 145.511 235.925L236.466 178.967C240.042 176.728 243.006 173.635 245.09 169.966C259.672 144.302 259.62 112.766 245.038 87.1014C242.991 83.4986 240.091 80.4362 236.601 78.202L145.79 20.0612C134.913 13.0968 120.977 13.0968 110.099 20.0612L19.2882 78.202C15.7985 80.4362 12.8983 83.4986 10.8513 87.1014C-3.73072 112.766 -3.78287 144.302 10.7991 169.966C12.8836 173.635 15.8472 176.728 19.4234 178.967L110.379 235.925Z" fill="#D1D1D1"/>
</mask>
<g mask="url(#mask0_112_22906)">
<rect width="256" height="256" fill="#FFE723"/>
<g style="mix-blend-mode:multiply">
<g filter="url(#filter0_f_112_22906)">
<path fill-rule="evenodd" clip-rule="evenodd" d="M264.336 9.53906H-8.97852V246.554H264.336V9.53906ZM95.381 68.5389L95.3817 68.5372C102.71 51.0444 113.837 24.4859 126.611 24.4859C139.385 24.4859 150.511 51.0444 157.84 68.5372C158.931 71.1407 159.937 73.5434 160.853 75.6278C161.401 76.8757 162.017 78.2618 162.689 79.7708C170.674 97.7196 186.398 133.065 186.398 160.098C186.398 189.404 155.961 212.389 126.611 212.389C97.2607 212.389 66.8234 189.404 66.8234 160.098C66.8234 133.065 82.5479 97.7196 90.533 79.7708L90.533 79.7707C91.2044 78.2617 91.821 76.8756 92.369 75.6278C93.2842 73.5439 94.2905 71.1418 95.381 68.5389Z" fill="#D8D6D6"/>
</g>
<g filter="url(#filter1_f_112_22906)">
<path d="M162.457 209.279C140.502 221.501 113.787 221.501 91.8317 209.279L75.3642 200.111C70.204 197.442 57.3212 190.93 47.072 186.232C43.3907 184.545 39.4451 182.99 35.5136 181.44C25.7625 177.597 16.0985 173.789 10.7724 168.082C4.79368 161.676 2.23136 155.093 1.69754 152.602H-3.64062V256.696H257.93V152.602H252.591C252.058 155.093 249.495 161.676 243.517 168.082C238.19 173.789 228.526 177.597 218.775 181.44C214.844 182.99 210.898 184.545 207.217 186.232C196.968 190.93 184.085 197.442 178.925 200.111L162.457 209.279Z" fill="#595959"/>
</g>
<g filter="url(#filter2_f_112_22906)">
<path d="M179.438 105.142C169.73 84.5731 145.997 32.6109 151.391 26.6569C154.627 22.868 168.112 29.3633 184.293 38.0237C200.474 46.684 233.376 69.9588 244.163 80.7842C254.95 91.6097 261.423 112.719 260.344 131.664C259.265 150.608 248.478 177.131 227.982 171.177C207.486 165.223 189.147 125.71 179.438 105.142Z" fill="#B9B9B9"/>
</g>
<g filter="url(#filter3_f_112_22906)">
<path d="M74.8507 105.142C84.5594 84.5731 108.292 32.6109 102.898 26.6569C99.6618 22.868 86.1775 29.3633 69.9964 38.0237C53.8152 46.684 20.9135 69.9588 10.1261 80.7842C-0.661392 91.6097 -7.13386 112.719 -6.05511 131.664C-4.97637 150.608 5.81107 177.131 26.3072 171.177C46.8034 165.223 65.142 125.71 74.8507 105.142Z" fill="#C7C7C7"/>
</g>
</g>
</g>
<g clip-path="url(#clip1_112_22906)">
<path d="M153.919 185.512C147.019 185.512 141.695 183.804 137.95 180.386C134.237 176.936 132.298 172.04 132.134 165.698C132.002 160.934 131.92 156.235 131.887 151.602C131.854 146.969 131.854 142.385 131.887 137.851C131.953 133.316 132.035 128.831 132.134 124.395C132.298 118.02 134.253 113.141 137.999 109.756C141.778 106.372 147.084 104.68 153.919 104.68C160.688 104.68 165.945 106.372 169.691 109.756C173.437 113.141 175.409 118.02 175.606 124.395C175.737 128.272 175.836 131.985 175.901 135.534C175.967 139.083 176 142.533 176 145.885C176 149.236 175.967 152.555 175.901 155.841C175.836 159.094 175.737 162.38 175.606 165.698C175.376 172.303 173.338 177.265 169.494 180.583C165.682 183.869 160.491 185.512 153.919 185.512ZM153.919 173.486C158.125 173.486 160.326 171.909 160.524 168.754C160.786 163.3 160.951 158.108 161.016 153.179C161.115 148.218 161.115 143.19 161.016 138.097C160.951 132.971 160.786 127.451 160.524 121.536C160.425 118.316 158.223 116.706 153.919 116.706C149.549 116.706 147.314 118.349 147.216 121.635C147.051 125.808 146.92 129.784 146.821 133.563C146.756 137.341 146.723 141.071 146.723 144.751C146.723 148.431 146.756 152.21 146.821 156.087C146.92 159.965 147.051 164.088 147.216 168.459C147.314 171.81 149.549 173.486 153.919 173.486Z" fill="black"/>
<path d="M101.835 185.512C94.1457 185.512 88.6254 183.984 85.2738 180.928C81.9222 177.873 80.2136 172.796 80.1479 165.698C80.115 160.145 80.0821 155.052 80.0493 150.419C80.0164 145.786 80 141.679 80 138.097C80 134.515 80.0164 131.575 80.0493 129.274C80.0821 126.941 80.115 125.315 80.1479 124.395C80.4436 117.692 82.448 112.73 86.161 109.51C89.9069 106.29 95.0986 104.68 101.736 104.68C108.636 104.68 113.91 106.388 117.558 109.806C121.205 113.223 123.127 117.823 123.324 123.606C123.357 124.296 123.374 124.904 123.374 125.43C123.406 125.956 123.406 126.547 123.374 127.204C123.374 127.862 123.357 128.732 123.324 129.817H108.341C108.439 128.765 108.489 127.911 108.489 127.254C108.521 126.564 108.521 125.824 108.489 125.036C108.456 124.214 108.406 123.081 108.341 121.635C108.308 120.156 107.766 118.973 106.714 118.086C105.696 117.166 104.069 116.706 101.835 116.706C99.666 116.706 98.0395 117.133 96.9551 117.987C95.8708 118.842 95.2957 120.058 95.23 121.635C95.1315 124.296 95.0329 127.237 94.9343 130.457C94.8686 133.645 94.8357 137.013 94.8357 140.561H97.4973C98.4502 138.919 99.9453 137.555 101.983 136.471C104.053 135.386 106.435 134.844 109.129 134.844C114.715 134.844 118.543 136.158 120.613 138.787C122.716 141.383 123.817 145.72 123.916 151.799C123.949 153.869 123.965 155.578 123.965 156.925C123.998 158.272 123.998 159.603 123.965 160.917C123.965 162.199 123.916 163.793 123.817 165.698C123.423 172.796 121.566 177.873 118.248 180.928C114.962 183.984 109.491 185.512 101.835 185.512ZM101.933 173.486C104.168 173.486 105.843 173.059 106.961 172.204C108.111 171.317 108.702 170.069 108.735 168.459C108.801 166.717 108.85 165.14 108.883 163.727C108.916 162.281 108.949 160.917 108.981 159.636C109.014 158.354 109.031 157.106 109.031 155.89C109.031 154.674 108.998 153.442 108.932 152.193C108.899 150.518 108.259 149.253 107.01 148.398C105.794 147.511 104.2 147.067 102.229 147.067C100.027 147.067 98.253 147.495 96.9058 148.349C95.5915 149.203 94.9014 150.419 94.8357 151.996C94.8357 154.658 94.8522 157.352 94.885 160.08C94.9507 162.807 95.0329 165.534 95.1315 168.261C95.1972 169.937 95.8051 171.235 96.9551 172.155C98.1052 173.042 99.7645 173.486 101.933 173.486Z" fill="black"/>
</g>
<g filter="url(#filter4_f_112_22906)">
<path fill-rule="evenodd" clip-rule="evenodd" d="M93.2454 69.5646L93.2458 69.5638C100.574 52.5112 111.701 26.6211 124.475 26.6211C126.141 26.6211 127.779 27.0615 129.384 27.8653C117.239 29.8134 106.693 54.9561 99.6516 71.7413C98.5609 74.3416 97.5543 76.7413 96.6389 78.8231C96.0909 80.0694 95.4743 81.4537 94.803 82.9608L94.8029 82.961C86.8178 100.887 71.0933 136.189 71.0933 163.188C71.0933 176.478 77.3683 188.467 86.9673 197.595C73.8495 188.314 64.6875 174.495 64.6875 158.821C64.6875 132.468 80.412 98.0118 88.3971 80.5147L88.3977 80.5133C89.0688 79.0427 89.6852 77.692 90.2331 76.476C91.1483 74.4442 92.1548 72.1023 93.2454 69.5646Z" fill="white"/>
</g>
</g>
<defs>
<filter id="filter0_f_112_22906" x="-18.9785" y="-0.460938" width="293.314" height="257.014" filterUnits="userSpaceOnUse" color-interpolation-filters="sRGB">
<feFlood flood-opacity="0" result="BackgroundImageFix"/>
<feBlend mode="normal" in="SourceGraphic" in2="BackgroundImageFix" result="shape"/>
<feGaussianBlur stdDeviation="5" result="effect1_foregroundBlur_112_22906"/>
</filter>
<filter id="filter1_f_112_22906" x="-13.6406" y="142.602" width="281.57" height="124.094" filterUnits="userSpaceOnUse" color-interpolation-filters="sRGB">
<feFlood flood-opacity="0" result="BackgroundImageFix"/>
<feBlend mode="normal" in="SourceGraphic" in2="BackgroundImageFix" result="shape"/>
<feGaussianBlur stdDeviation="5" result="effect1_foregroundBlur_112_22906"/>
</filter>
<filter id="filter2_f_112_22906" x="140.604" y="15.5527" width="129.857" height="166.477" filterUnits="userSpaceOnUse" color-interpolation-filters="sRGB">
<feFlood flood-opacity="0" result="BackgroundImageFix"/>
<feBlend mode="normal" in="SourceGraphic" in2="BackgroundImageFix" result="shape"/>
<feGaussianBlur stdDeviation="5" result="effect1_foregroundBlur_112_22906"/>
</filter>
<filter id="filter3_f_112_22906" x="-16.1719" y="15.5527" width="129.857" height="166.477" filterUnits="userSpaceOnUse" color-interpolation-filters="sRGB">
<feFlood flood-opacity="0" result="BackgroundImageFix"/>
<feBlend mode="normal" in="SourceGraphic" in2="BackgroundImageFix" result="shape"/>
<feGaussianBlur stdDeviation="5" result="effect1_foregroundBlur_112_22906"/>
</filter>
<filter id="filter4_f_112_22906" x="60.6875" y="22.6211" width="72.6973" height="178.975" filterUnits="userSpaceOnUse" color-interpolation-filters="sRGB">
<feFlood flood-opacity="0" result="BackgroundImageFix"/>
<feBlend mode="normal" in="SourceGraphic" in2="BackgroundImageFix" result="shape"/>
<feGaussianBlur stdDeviation="2" result="effect1_foregroundBlur_112_22906"/>
</filter>
<clipPath id="clip0_112_22906">
<rect width="256" height="256" fill="white"/>
</clipPath>
<clipPath id="clip1_112_22906">
<rect width="96" height="96" fill="white" transform="translate(80 97)"/>
</clipPath>
</defs>
</svg>
