<svg width="256" height="256" viewBox="0 0 256 256" fill="none" xmlns="http://www.w3.org/2000/svg">
<metadata>
  <rdf:RDF xmlns:rdf="http://www.w3.org/1999/02/22-rdf-syntax-ns#"
            xmlns:dc="http://purl.org/dc/elements/1.1/">
    <rdf:Description>
      <dc:title>swrpg-online.com art asset</dc:title>
      <dc:creator>Joshua Ziggas</dc:creator>
      <dc:rights>CC BY-NC-SA 4.0 - https://github.com/swrpg-online/art</dc:rights>
    </rdf:Description>
  </rdf:RDF>
</metadata>
<desc>
  wrpg-online.com SWRPG Dice Asset
  Created by: Joshua Ziggas
  Source: https://github.com/swrpg-online/art
  License: CC BY-NC-SA 4.0
</desc><mask id="mask0_112_22878" style="mask-type:luminance" maskUnits="userSpaceOnUse" x="6" y="2" width="244" height="252">
<path d="M114.626 4.34533C123.318 1.52112 132.681 1.52111 141.373 4.34533L189.668 20.0373C198.36 22.8615 205.935 28.365 211.307 35.7589L241.155 76.841C246.527 84.2349 249.42 93.1397 249.42 102.279V153.059C249.42 162.199 246.527 171.103 241.155 178.497L211.307 219.58C205.935 226.973 198.36 232.477 189.668 235.301L141.373 250.993C132.681 253.817 123.318 253.817 114.626 250.993L66.3308 235.301C57.6387 232.477 50.0639 226.973 44.6919 219.58L14.844 178.497C9.47199 171.103 6.57865 162.199 6.57865 153.059V102.279C6.57865 93.1397 9.47198 84.2349 14.844 76.841L44.6919 35.7589C50.0639 28.365 57.6387 22.8615 66.3307 20.0373L114.626 4.34533Z" fill="white"/>
</mask>
<g mask="url(#mask0_112_22878)">
<rect width="256" height="256" fill="#FFE723"/>
<g filter="url(#filter0_f_112_22878)">
<path d="M50.0996 9.81378L135.445 -6.13477V48.8239H121.259V9.81378L52.8045 23.0777L50.0996 9.81378Z" fill="url(#paint0_linear_112_22878)" fill-opacity="0.15"/>
<rect x="169.168" y="196.271" width="14.1855" height="78.0203" transform="rotate(-36 169.168 196.271)" fill="url(#paint1_linear_112_22878)" fill-opacity="0.3"/>
<path d="M-5.07812 91.2398L43.0683 14.9629L61.4613 21.4545L18.1181 84.7508L55.219 96.8056L50.8355 110.297L-5.07812 91.2398Z" fill="url(#paint2_linear_112_22878)" fill-opacity="0.25"/>
<rect x="205.871" y="110.297" width="14.1855" height="78.0203" transform="rotate(-108 205.871 110.297)" fill="url(#paint3_linear_112_22878)" fill-opacity="0.25"/>
<rect x="41.6777" y="259.391" width="14.1855" height="78.0203" transform="rotate(-144 41.6777 259.391)" fill="url(#paint4_linear_112_22878)" fill-opacity="0.25"/>
<path d="M173.311 205.926L209.145 252.449L126.499 268.499L46.8535 252.449L82.6869 205.926L173.311 205.926Z" fill="black" fill-opacity="0.35"/>
<path d="M216.11 108.42L272.06 88.5809L261 174.999L221.455 244.328L187.851 195.391L216.11 108.42Z" fill="black" fill-opacity="0.4"/>
<path d="M136.731 38.0605L135.152 -21.2826L210.712 13.9983L267.639 74.9745L210.712 91.8111L136.731 38.0605Z" fill="black" fill-opacity="0.2"/>
<path d="M45.2874 91.8125L-11.639 74.9759L45.2874 14.9996L120.848 -21.2813L119.269 38.0618L45.2874 91.8125Z" fill="black" fill-opacity="0.1"/>
<path d="M68.1487 195.39L34.5449 244.328L-4.00049 172.499L-16.0606 88.5803L39.8902 108.42L68.1487 195.39Z" fill="black" fill-opacity="0.25"/>
</g>
</g>
<path d="M128.156 186.299C118.271 186.299 111.265 184.276 107.136 180.231C103.007 176.143 100.754 169.783 100.379 161.15C100.337 159.898 100.316 158.918 100.316 158.209C100.316 157.459 100.337 156.708 100.379 155.957C100.421 155.206 100.504 154.143 100.629 152.767C101.088 148.137 102.235 144.508 104.07 141.881C105.905 139.212 108.637 137.126 112.266 135.625V132.997C109.763 132.121 107.553 130.683 105.634 128.681C103.757 126.679 102.506 124.155 101.88 121.111C101.672 120.11 101.484 118.879 101.317 117.42C101.192 115.918 101.088 114.417 101.005 112.915C100.963 111.372 100.963 110.017 101.005 108.849C101.463 100.007 103.716 93.6047 107.761 89.6425C111.807 85.6803 118.605 83.6992 128.156 83.6992C137.415 83.6992 144.151 85.6386 148.363 89.5174C152.576 93.3962 154.89 99.84 155.308 108.849C155.349 110.017 155.328 111.372 155.245 112.915C155.203 114.417 155.099 115.918 154.932 117.42C154.807 118.879 154.64 120.11 154.432 121.111C153.806 124.155 152.534 126.679 150.615 128.681C148.739 130.683 146.549 132.121 144.047 132.997V135.75C147.383 137.251 149.99 139.358 151.867 142.069C153.785 144.738 155.057 148.262 155.683 152.641C155.933 154.393 156.058 155.895 156.058 157.146C156.058 158.355 156.017 159.69 155.933 161.15C155.516 170.075 153.18 176.498 148.926 180.418C144.714 184.339 137.79 186.299 128.156 186.299ZM128.156 171.034C131.117 171.034 133.286 170.409 134.662 169.158C136.08 167.865 136.789 166.029 136.789 163.652C136.789 162.234 136.789 160.816 136.789 159.398C136.789 157.938 136.789 156.499 136.789 155.081C136.789 153.622 136.789 152.183 136.789 150.765C136.789 148.387 136.08 146.573 134.662 145.322C133.286 144.029 131.117 143.382 128.156 143.382C125.237 143.382 123.068 144.029 121.65 145.322C120.232 146.573 119.523 148.387 119.523 150.765C119.523 152.892 119.523 155.04 119.523 157.208C119.523 159.377 119.523 161.525 119.523 163.652C119.523 166.029 120.232 167.865 121.65 169.158C123.068 170.409 125.237 171.034 128.156 171.034ZM128.156 125.49C131.034 125.49 133.182 124.864 134.6 123.613C136.06 122.32 136.789 120.485 136.789 118.108C136.789 116.148 136.789 114.187 136.789 112.227C136.789 110.225 136.789 108.265 136.789 106.346C136.789 103.969 136.08 102.155 134.662 100.903C133.286 99.6106 131.117 98.9641 128.156 98.9641C125.278 98.9641 123.109 99.6106 121.65 100.903C120.232 102.155 119.523 103.969 119.523 106.346C119.523 107.306 119.523 108.286 119.523 109.287C119.523 110.246 119.523 111.226 119.523 112.227C119.523 113.228 119.523 114.229 119.523 115.23C119.523 116.189 119.523 117.148 119.523 118.108C119.523 120.485 120.232 122.32 121.65 123.613C123.109 124.864 125.278 125.49 128.156 125.49Z" fill="black"/>
<g filter="url(#filter1_f_112_22878)">
<path d="M62.4923 99.4782C57.4835 104.467 54.5573 109.682 58.5083 120.453C52.2472 110.816 53.9545 100.612 58.508 95.5099C66.6007 86.4422 90.9515 68.8656 103.474 61.4959C113.491 55.6002 126.241 46.7566 139.901 56.9608C124.533 51.2917 117.703 59.2284 110.873 63.1966C102.631 67.9849 68.7533 93.2423 62.4923 99.4782Z" fill="white"/>
</g>
<defs>
<filter id="filter0_f_112_22878" x="-26.88" y="-32.1026" width="317.772" height="311.42" filterUnits="userSpaceOnUse" color-interpolation-filters="sRGB">
<feFlood flood-opacity="0" result="BackgroundImageFix"/>
<feBlend mode="normal" in="SourceGraphic" in2="BackgroundImageFix" result="shape"/>
<feGaussianBlur stdDeviation="5.40971" result="effect1_foregroundBlur_112_22878"/>
</filter>
<filter id="filter1_f_112_22878" x="49.018" y="46.8813" width="96.2921" height="78.9815" filterUnits="userSpaceOnUse" color-interpolation-filters="sRGB">
<feFlood flood-opacity="0" result="BackgroundImageFix"/>
<feBlend mode="normal" in="SourceGraphic" in2="BackgroundImageFix" result="shape"/>
<feGaussianBlur stdDeviation="2.70486" result="effect1_foregroundBlur_112_22878"/>
</filter>
<linearGradient id="paint0_linear_112_22878" x1="128.352" y1="-29.1964" x2="128.352" y2="48.8239" gradientUnits="userSpaceOnUse">
<stop offset="0.40004"/>
<stop offset="0.770751" stop-opacity="0"/>
</linearGradient>
<linearGradient id="paint1_linear_112_22878" x1="176.261" y1="196.271" x2="176.274" y2="252.045" gradientUnits="userSpaceOnUse">
<stop stop-opacity="0"/>
<stop offset="0.44519"/>
</linearGradient>
<linearGradient id="paint2_linear_112_22878" x1="52.2438" y1="103.557" x2="6.82333" y2="87.453" gradientUnits="userSpaceOnUse">
<stop offset="0.487821" stop-opacity="0"/>
<stop offset="1"/>
</linearGradient>
<linearGradient id="paint3_linear_112_22878" x1="216.762" y1="109.729" x2="217.403" y2="150.479" gradientUnits="userSpaceOnUse">
<stop stop-opacity="0"/>
<stop offset="1"/>
</linearGradient>
<linearGradient id="paint4_linear_112_22878" x1="48.7705" y1="337.411" x2="48.6781" y2="291.638" gradientUnits="userSpaceOnUse">
<stop stop-opacity="0"/>
<stop offset="0.482933"/>
</linearGradient>
</defs>
</svg>
