<svg width="256" height="256" viewBox="0 0 256 256" fill="none" xmlns="http://www.w3.org/2000/svg">
<metadata>
  <rdf:RDF xmlns:rdf="http://www.w3.org/1999/02/22-rdf-syntax-ns#"
            xmlns:dc="http://purl.org/dc/elements/1.1/">
    <rdf:Description>
      <dc:title>swrpg-online.com art asset</dc:title>
      <dc:creator>Joshua Ziggas</dc:creator>
      <dc:rights>CC BY-NC-SA 4.0 - https://github.com/swrpg-online/art</dc:rights>
    </rdf:Description>
  </rdf:RDF>
</metadata>
<desc>
  wrpg-online.com SWRPG Dice Asset
  Created by: Joshua Ziggas
  Source: https://github.com/swrpg-online/art
  License: CC BY-NC-SA 4.0
</desc><mask id="mask0_112_22880" style="mask-type:luminance" maskUnits="userSpaceOnUse" x="6" y="2" width="244" height="252">
<path d="M114.626 4.34533C123.318 1.52112 132.681 1.52111 141.373 4.34533L189.668 20.0373C198.36 22.8615 205.935 28.365 211.307 35.7589L241.155 76.841C246.527 84.2349 249.42 93.1397 249.42 102.279V153.059C249.42 162.199 246.527 171.103 241.155 178.497L211.307 219.58C205.935 226.973 198.36 232.477 189.668 235.301L141.373 250.993C132.681 253.817 123.318 253.817 114.626 250.993L66.3308 235.301C57.6387 232.477 50.0639 226.973 44.6919 219.58L14.844 178.497C9.47199 171.103 6.57865 162.199 6.57865 153.059V102.279C6.57865 93.1397 9.47198 84.2349 14.844 76.841L44.6919 35.7589C50.0639 28.365 57.6387 22.8615 66.3307 20.0373L114.626 4.34533Z" fill="white"/>
</mask>
<g mask="url(#mask0_112_22880)">
<rect width="256" height="256" fill="#FFE723"/>
<g filter="url(#filter0_f_112_22880)">
<path d="M50.0996 9.81378L135.445 -6.13477V48.8239H121.259V9.81378L52.8045 23.0777L50.0996 9.81378Z" fill="url(#paint0_linear_112_22880)" fill-opacity="0.15"/>
<rect x="169.168" y="196.271" width="14.1855" height="78.0203" transform="rotate(-36 169.168 196.271)" fill="url(#paint1_linear_112_22880)" fill-opacity="0.3"/>
<path d="M-5.07812 91.2398L43.0683 14.9629L61.4613 21.4545L18.1181 84.7508L55.219 96.8056L50.8355 110.297L-5.07812 91.2398Z" fill="url(#paint2_linear_112_22880)" fill-opacity="0.25"/>
<rect x="205.871" y="110.297" width="14.1855" height="78.0203" transform="rotate(-108 205.871 110.297)" fill="url(#paint3_linear_112_22880)" fill-opacity="0.25"/>
<rect x="41.6777" y="259.391" width="14.1855" height="78.0203" transform="rotate(-144 41.6777 259.391)" fill="url(#paint4_linear_112_22880)" fill-opacity="0.25"/>
<path d="M173.311 205.926L209.145 252.449L126.499 268.499L46.8535 252.449L82.6869 205.926L173.311 205.926Z" fill="black" fill-opacity="0.35"/>
<path d="M216.11 108.42L272.06 88.5809L261 174.999L221.455 244.328L187.851 195.391L216.11 108.42Z" fill="black" fill-opacity="0.4"/>
<path d="M136.731 38.0605L135.152 -21.2826L210.712 13.9983L267.639 74.9745L210.712 91.8111L136.731 38.0605Z" fill="black" fill-opacity="0.2"/>
<path d="M45.2874 91.8125L-11.639 74.9759L45.2874 14.9996L120.848 -21.2813L119.269 38.0618L45.2874 91.8125Z" fill="black" fill-opacity="0.1"/>
<path d="M68.1487 195.39L34.5449 244.328L-4.00049 172.499L-16.0606 88.5803L39.8902 108.42L68.1487 195.39Z" fill="black" fill-opacity="0.25"/>
</g>
</g>
<path d="M128.037 186.299C118.277 186.299 111.27 184.36 107.016 180.481C102.762 176.602 100.593 170.158 100.51 161.15C100.468 154.101 100.427 147.637 100.385 141.756C100.343 135.875 100.322 130.662 100.322 126.116C100.322 121.569 100.343 117.837 100.385 114.917C100.427 111.956 100.468 109.891 100.51 108.724C100.885 100.215 103.429 93.9175 108.142 89.8302C112.897 85.7429 119.487 83.6992 127.912 83.6992C136.67 83.6992 143.364 85.868 147.994 90.2056C152.623 94.5431 155.063 100.382 155.313 107.723C155.355 108.598 155.376 109.37 155.376 110.037C155.418 110.705 155.418 111.455 155.376 112.29C155.376 113.124 155.355 114.229 155.313 115.605H136.295C136.42 114.271 136.483 113.186 136.483 112.352C136.524 111.476 136.524 110.538 136.483 109.537C136.441 108.494 136.378 107.055 136.295 105.22C136.253 103.343 135.565 101.842 134.23 100.716C132.937 99.548 130.873 98.9641 128.037 98.9641C125.284 98.9641 123.22 99.5063 121.843 100.591C120.467 101.675 119.737 103.218 119.654 105.22C119.528 108.598 119.403 112.331 119.278 116.419C119.195 120.464 119.153 124.739 119.153 129.244H122.531C123.741 127.158 125.639 125.427 128.224 124.051C130.852 122.675 133.876 121.987 137.296 121.987C144.386 121.987 149.245 123.655 151.873 126.991C154.542 130.286 155.939 135.792 156.064 143.508C156.106 146.135 156.127 148.304 156.127 150.014C156.168 151.724 156.168 153.413 156.127 155.081C156.127 156.708 156.064 158.731 155.939 161.15C155.438 170.158 153.082 176.602 148.87 180.481C144.699 184.36 137.755 186.299 128.037 186.299ZM128.162 171.034C130.998 171.034 133.125 170.492 134.543 169.408C136.003 168.282 136.754 166.697 136.795 164.653C136.879 162.443 136.941 160.441 136.983 158.647C137.025 156.812 137.066 155.081 137.108 153.455C137.15 151.828 137.171 150.243 137.171 148.7C137.171 147.157 137.129 145.593 137.046 144.008C137.004 141.881 136.191 140.275 134.606 139.191C133.063 138.065 131.04 137.502 128.537 137.502C125.743 137.502 123.491 138.044 121.781 139.128C120.112 140.213 119.237 141.756 119.153 143.758C119.153 147.136 119.174 150.556 119.216 154.018C119.299 157.479 119.403 160.941 119.528 164.403C119.612 166.53 120.383 168.177 121.843 169.345C123.303 170.471 125.409 171.034 128.162 171.034Z" fill="black"/>
<g filter="url(#filter1_f_112_22880)">
<path d="M62.4923 99.4782C57.4835 104.467 54.5573 109.682 58.5083 120.453C52.2472 110.816 53.9545 100.612 58.508 95.5099C66.6007 86.4422 90.9515 68.8656 103.474 61.4959C113.491 55.6002 126.241 46.7566 139.901 56.9608C124.533 51.2917 117.703 59.2284 110.873 63.1966C102.631 67.9849 68.7533 93.2423 62.4923 99.4782Z" fill="white"/>
</g>
<defs>
<filter id="filter0_f_112_22880" x="-26.88" y="-32.1026" width="317.772" height="311.42" filterUnits="userSpaceOnUse" color-interpolation-filters="sRGB">
<feFlood flood-opacity="0" result="BackgroundImageFix"/>
<feBlend mode="normal" in="SourceGraphic" in2="BackgroundImageFix" result="shape"/>
<feGaussianBlur stdDeviation="5.40971" result="effect1_foregroundBlur_112_22880"/>
</filter>
<filter id="filter1_f_112_22880" x="49.018" y="46.8813" width="96.2921" height="78.9815" filterUnits="userSpaceOnUse" color-interpolation-filters="sRGB">
<feFlood flood-opacity="0" result="BackgroundImageFix"/>
<feBlend mode="normal" in="SourceGraphic" in2="BackgroundImageFix" result="shape"/>
<feGaussianBlur stdDeviation="2.70486" result="effect1_foregroundBlur_112_22880"/>
</filter>
<linearGradient id="paint0_linear_112_22880" x1="128.352" y1="-29.1964" x2="128.352" y2="48.8239" gradientUnits="userSpaceOnUse">
<stop offset="0.40004"/>
<stop offset="0.770751" stop-opacity="0"/>
</linearGradient>
<linearGradient id="paint1_linear_112_22880" x1="176.261" y1="196.271" x2="176.274" y2="252.045" gradientUnits="userSpaceOnUse">
<stop stop-opacity="0"/>
<stop offset="0.44519"/>
</linearGradient>
<linearGradient id="paint2_linear_112_22880" x1="52.2438" y1="103.557" x2="6.82333" y2="87.453" gradientUnits="userSpaceOnUse">
<stop offset="0.487821" stop-opacity="0"/>
<stop offset="1"/>
</linearGradient>
<linearGradient id="paint3_linear_112_22880" x1="216.762" y1="109.729" x2="217.403" y2="150.479" gradientUnits="userSpaceOnUse">
<stop stop-opacity="0"/>
<stop offset="1"/>
</linearGradient>
<linearGradient id="paint4_linear_112_22880" x1="48.7705" y1="337.411" x2="48.6781" y2="291.638" gradientUnits="userSpaceOnUse">
<stop stop-opacity="0"/>
<stop offset="0.482933"/>
</linearGradient>
</defs>
</svg>
