<svg width="256" height="256" viewBox="0 0 256 256" fill="none" xmlns="http://www.w3.org/2000/svg">
<metadata>
  <rdf:RDF xmlns:rdf="http://www.w3.org/1999/02/22-rdf-syntax-ns#"
            xmlns:dc="http://purl.org/dc/elements/1.1/">
    <rdf:Description>
      <dc:title>swrpg-online.com art asset</dc:title>
      <dc:creator>Joshua Ziggas</dc:creator>
      <dc:rights>CC BY-NC-SA 4.0 - https://github.com/swrpg-online/art</dc:rights>
    </rdf:Description>
  </rdf:RDF>
</metadata>
<desc>
  wrpg-online.com SWRPG Dice Asset
  Created by: Joshua Ziggas
  Source: https://github.com/swrpg-online/art
  License: CC BY-NC-SA 4.0
</desc><mask id="mask0_112_22865" style="mask-type:alpha" maskUnits="userSpaceOnUse" x="10" y="0" width="237" height="256">
<path d="M224.91 60.2803L150.531 7.28962C136.792 -2.49863 118.338 -2.42293 104.68 7.47773L31.8161 60.296C23.7755 66.1246 18.6774 75.1707 17.8556 85.0677L10.4831 173.859C9.14473 189.977 17.8216 205.268 32.3449 212.386L112.644 251.739C122.046 256.346 133.044 256.376 142.471 251.82L224.23 212.3C238.838 205.239 247.602 189.923 246.289 173.75L239.102 85.276C238.289 75.2589 233.095 66.1118 224.91 60.2803Z" fill="#CFCFCF"/>
</mask>
<g mask="url(#mask0_112_22865)">
<rect width="256" height="256" fill="#FFE723"/>
<g style="mix-blend-mode:multiply" filter="url(#filter0_f_112_22865)">
<mask id="mask1_112_22865" style="mask-type:alpha" maskUnits="userSpaceOnUse" x="1" y="-10" width="255" height="275">
<path fill-rule="evenodd" clip-rule="evenodd" d="M152.285 -1.737L232.216 55.1634C241.012 61.4252 246.594 71.2472 247.468 82.0034L255.191 177.006C256.603 194.371 247.184 210.818 231.485 218.4L143.624 260.835C133.493 265.728 121.673 265.696 111.569 260.748L25.2761 218.491C9.66859 210.849 0.343989 194.429 1.78223 177.122L9.70515 81.7796C10.5883 71.1525 16.067 61.4389 24.7079 55.1803L103.011 -1.535C117.689 -12.1662 137.521 -12.2474 152.285 -1.737ZM138.618 210.457C134.336 217.848 123.662 217.848 119.38 210.457L57.5134 103.689C53.2194 96.2782 58.5672 87.0006 67.1327 87.0006H190.865C199.431 87.0006 204.778 96.2782 200.484 103.689L138.618 210.457Z" fill="black"/>
</mask>
<g mask="url(#mask1_112_22865)">
<path d="M224.91 60.2803L150.531 7.28962C136.792 -2.49863 118.338 -2.42293 104.68 7.47773L31.8161 60.296C23.7755 66.1246 18.6774 75.1707 17.8556 85.0677L10.4831 173.859C9.14473 189.977 17.8216 205.268 32.3449 212.386L112.644 251.739C122.046 256.346 133.044 256.376 142.471 251.82L224.23 212.3C238.838 205.239 247.602 189.923 246.289 173.75L239.102 85.276C238.289 75.2589 233.095 66.1118 224.91 60.2803Z" fill="#CFCFCF"/>
<path d="M204.698 84H53.2981C43.2059 84 38.195 73.0586 45.3901 66.7329L110.148 9.80008C120.431 0.759757 136.914 0.729605 147.238 9.73224L212.573 66.704C219.813 73.0173 214.813 84 204.698 84Z" fill="#E0E0E0"/>
<path d="M51.0658 91.53L123.601 217.164C128.436 225.539 121.572 235.046 112.768 232.168L33.5336 206.264C20.952 202.151 13.0296 188.488 15.7066 175.52L32.6472 93.4509C34.5244 84.3565 46.2199 83.1368 51.0658 91.53Z" fill="#D8D8D8"/>
<path d="M206.994 88.7409L131.609 219.312C126.584 228.015 133.429 237.729 142.411 234.642L223.254 206.851C236.091 202.438 244.324 188.238 241.779 174.897L225.679 90.4733C223.895 81.1179 212.03 80.0179 206.994 88.7409Z" fill="#C1C1C1"/>
<path d="M128.484 230.5V263.061L104.345 256.908L21.7523 217.387L12.9961 206.501L15.5993 194.432C18.8336 198.455 26.6274 206.832 31.9285 208.158C38.5548 209.814 109.551 221.034 118.071 223.164C124.886 224.868 127.852 228.765 128.484 230.5Z" fill="#8D8D8D"/>
<path d="M128.483 231V263.061L152.622 256.908L235.214 217.387L243.971 206.501L241.368 194.432C238.133 198.455 230.339 206.832 225.038 208.158C218.412 209.814 147.416 221.534 138.896 223.664C132.08 225.368 129.114 229.265 128.483 231Z" fill="#737373"/>
<path d="M212.647 84.3141L243.297 64.418L250.038 88.3993L257.107 179.687L252.058 192.713L240.304 196.494C242.171 191.681 245.529 180.743 244.026 175.489C242.148 168.922 213.915 105.443 211.5 97C209.568 90.2455 211.459 85.7284 212.647 84.3141Z" fill="#828282"/>
<path d="M211.499 83.5009L243.296 64.4189L225.898 46.5906L150.375 -5.17589L136.57 -7.31594L127.419 0.973188C132.52 1.76259 143.672 4.32346 147.47 8.25168C152.218 13.162 193.835 71.838 199.939 78.1512C204.823 83.2018 209.681 83.8221 211.499 83.5009Z" fill="#9E9E9E"/>
<path d="M44.8524 83.8141L13.9433 64.418L7.2026 88.3993L0.132831 179.687L5.18237 192.713L16.9364 196.494C15.0694 191.681 11.7111 180.743 13.2139 175.489C15.0924 168.922 43.5841 104.943 45.9994 96.5C47.9316 89.7455 46.0398 85.2284 44.8524 83.8141Z" fill="#B1B1B1"/>
<path d="M46.4385 83.8505L13.9422 64.4189L31.3402 46.5906L106.863 -5.17589L120.669 -7.31594L129.819 0.973188C124.718 1.76259 113.566 4.32346 109.768 8.25168C105.02 13.162 64.1026 72.1876 57.9983 78.5009C53.1148 83.5514 48.257 84.1717 46.4385 83.8505Z" fill="#B6B6B6"/>
</g>
</g>
</g>
<g filter="url(#filter1_f_112_22865)">
<path d="M72.7423 89H122C110.497 90.3425 85.9103 93.2575 79.5869 94.1781C71.6827 95.3288 66.0919 98.2055 68.5981 106.452C70.6031 113.049 83.9568 144.233 90.383 159L61.6354 107.833C56.8952 99.3957 63.0262 89 72.7423 89Z" fill="url(#paint0_radial_112_22865)"/>
</g>
<path d="M128.109 165C121.172 165 116.255 163.58 113.358 160.741C110.46 157.873 108.88 153.41 108.616 147.351C108.587 146.473 108.572 145.785 108.572 145.288C108.572 144.761 108.587 144.234 108.616 143.707C108.645 143.18 108.704 142.434 108.792 141.468C109.114 138.22 109.919 135.673 111.206 133.829C112.494 131.956 114.411 130.493 116.958 129.439V127.595C115.202 126.98 113.65 125.971 112.304 124.566C110.987 123.161 110.109 121.39 109.67 119.254C109.523 118.551 109.392 117.688 109.275 116.663C109.187 115.61 109.114 114.556 109.055 113.502C109.026 112.42 109.026 111.468 109.055 110.649C109.377 104.444 110.958 99.9512 113.797 97.1707C116.636 94.3902 121.406 93 128.109 93C134.606 93 139.333 94.361 142.289 97.0829C145.245 99.8049 146.87 104.327 147.163 110.649C147.192 111.468 147.177 112.42 147.119 113.502C147.089 114.556 147.016 115.61 146.899 116.663C146.811 117.688 146.694 118.551 146.548 119.254C146.109 121.39 145.216 123.161 143.87 124.566C142.553 125.971 141.016 126.98 139.26 127.595V129.527C141.602 130.58 143.431 132.059 144.748 133.961C146.094 135.834 146.987 138.307 147.426 141.38C147.602 142.61 147.689 143.663 147.689 144.541C147.689 145.39 147.66 146.327 147.602 147.351C147.309 153.615 145.67 158.122 142.684 160.873C139.728 163.624 134.87 165 128.109 165ZM128.109 154.288C130.187 154.288 131.709 153.849 132.675 152.971C133.67 152.063 134.167 150.776 134.167 149.107C134.167 148.112 134.167 147.117 134.167 146.122C134.167 145.098 134.167 144.088 134.167 143.093C134.167 142.068 134.167 141.059 134.167 140.063C134.167 138.395 133.67 137.122 132.675 136.244C131.709 135.337 130.187 134.883 128.109 134.883C126.06 134.883 124.538 135.337 123.543 136.244C122.548 137.122 122.05 138.395 122.05 140.063C122.05 141.556 122.05 143.063 122.05 144.585C122.05 146.107 122.05 147.615 122.05 149.107C122.05 150.776 122.548 152.063 123.543 152.971C124.538 153.849 126.06 154.288 128.109 154.288ZM128.109 122.327C130.128 122.327 131.636 121.888 132.631 121.01C133.655 120.102 134.167 118.815 134.167 117.146C134.167 115.771 134.167 114.395 134.167 113.02C134.167 111.615 134.167 110.239 134.167 108.893C134.167 107.224 133.67 105.951 132.675 105.073C131.709 104.166 130.187 103.712 128.109 103.712C126.089 103.712 124.567 104.166 123.543 105.073C122.548 105.951 122.05 107.224 122.05 108.893C122.05 109.566 122.05 110.254 122.05 110.956C122.05 111.629 122.05 112.317 122.05 113.02C122.05 113.722 122.05 114.424 122.05 115.127C122.05 115.8 122.05 116.473 122.05 117.146C122.05 118.815 122.548 120.102 123.543 121.01C124.567 121.888 126.089 122.327 128.109 122.327Z" fill="black"/>
<defs>
<filter id="filter0_f_112_22865" x="-8.36328" y="-17.3164" width="273.693" height="290.377" filterUnits="userSpaceOnUse" color-interpolation-filters="sRGB">
<feFlood flood-opacity="0" result="BackgroundImageFix"/>
<feBlend mode="normal" in="SourceGraphic" in2="BackgroundImageFix" result="shape"/>
<feGaussianBlur stdDeviation="5" result="effect1_foregroundBlur_112_22865"/>
</filter>
<filter id="filter1_f_112_22865" x="55" y="84" width="72" height="80" filterUnits="userSpaceOnUse" color-interpolation-filters="sRGB">
<feFlood flood-opacity="0" result="BackgroundImageFix"/>
<feBlend mode="normal" in="SourceGraphic" in2="BackgroundImageFix" result="shape"/>
<feGaussianBlur stdDeviation="2.5" result="effect1_foregroundBlur_112_22865"/>
</filter>
<radialGradient id="paint0_radial_112_22865" cx="0" cy="0" r="1" gradientUnits="userSpaceOnUse" gradientTransform="translate(68.0198 95.7123) rotate(44.0247) scale(47.1885 41.5706)">
<stop stop-color="white"/>
<stop offset="1" stop-color="white" stop-opacity="0"/>
</radialGradient>
</defs>
</svg>
