<svg width="256" height="256" viewBox="0 0 256 256" fill="none" xmlns="http://www.w3.org/2000/svg">
<metadata>
  <rdf:RDF xmlns:rdf="http://www.w3.org/1999/02/22-rdf-syntax-ns#"
            xmlns:dc="http://purl.org/dc/elements/1.1/">
    <rdf:Description>
      <dc:title>swrpg-online.com art asset</dc:title>
      <dc:creator>Joshua Ziggas</dc:creator>
      <dc:rights>CC BY-NC-SA 4.0 - https://github.com/swrpg-online/art</dc:rights>
    </rdf:Description>
  </rdf:RDF>
</metadata>
<desc>
  wrpg-online.com SWRPG Dice Asset
  Created by: Joshua Ziggas
  Source: https://github.com/swrpg-online/art
  License: CC BY-NC-SA 4.0
</desc><mask id="mask0_112_22844" style="mask-type:alpha" maskUnits="userSpaceOnUse" x="2" y="17" width="252" height="223">
<path d="M111.095 26.5C118.408 13.8333 136.691 13.8333 144.004 26.5L250.525 211C257.838 223.667 248.697 239.5 234.071 239.5H21.0283C6.40214 239.5 -2.73924 223.667 4.57386 211L111.095 26.5Z" fill="#D9D9D9"/>
</mask>
<g mask="url(#mask0_112_22844)">
<rect width="256" height="256" fill="#FFE723"/>
<g style="mix-blend-mode:multiply" filter="url(#filter0_f_112_22844)">
<path d="M279.337 102.182C279.369 87.9555 263.989 61.3151 251.652 54.2297L126.366 -17.7262C114.029 -24.8117 113.988 -7.0282 126.293 14.2841L251.252 230.719C263.556 252.031 278.977 260.888 279.01 246.661L279.337 102.182Z" fill="black" fill-opacity="0.25"/>
<path d="M100.333 317.894C112.425 324.88 142.655 324.88 154.747 317.894L277.547 246.95C289.639 239.964 274.524 231.232 250.339 231.232L4.74033 231.232C-19.4438 231.232 -34.5589 239.964 -22.4668 246.95L100.333 317.894Z" fill="black" fill-opacity="0.5"/>
<path d="M-26.4366 101.791C-26.4405 87.3473 -10.8069 60.269 1.704 53.0504L128.757 -20.257C141.268 -27.4756 141.273 -9.42054 128.766 12.2421L1.75356 232.235C-10.7533 253.897 -26.392 262.921 -26.396 248.476L-26.4366 101.791Z" fill="black" fill-opacity="0.35"/>
</g>
</g>
<g clip-path="url(#clip0_112_22844)">
<path d="M97.9521 176.042C101.025 181.365 102.216 185.808 101.523 189.372C100.831 192.936 98.1275 196.167 93.4137 199.066C92.6281 199.549 92.031 199.924 91.6224 200.189C91.201 200.433 90.7796 200.676 90.3582 200.919C89.924 201.14 89.3013 201.47 88.49 201.909L82.6126 191.729L88.867 188.118C90.1312 187.388 90.8637 186.403 91.0647 185.164C91.2435 183.937 90.8847 182.547 89.9884 180.994C89.0664 179.398 88.0423 178.392 86.9159 177.978C85.7546 177.554 84.5576 177.683 83.325 178.365C81.8356 179.166 80.5253 179.893 79.3942 180.546C78.2503 181.177 77.1874 181.82 76.2056 182.476C75.0464 183.234 74.2059 184.236 73.6842 185.484C73.1496 186.709 73.4935 188.329 74.7159 190.344L78.6623 197.026L70.4325 202.132L51.304 199.425L61.2534 216.658L52.4707 221.729L35.7987 192.852L44.3922 188.068L63.7511 191.174C61.9266 187.349 61.5207 183.931 62.5333 180.921C63.5331 177.89 66.2201 174.963 70.5943 172.142C71.0473 171.851 71.4845 171.584 71.9058 171.34C72.2923 171.088 72.6851 170.846 73.0843 170.616C73.4835 170.385 73.9271 170.129 74.415 169.847C74.8808 169.579 75.4259 169.293 76.0503 168.992C80.9561 166.426 85.1062 165.7 88.5005 166.816C91.8821 167.91 95.0326 170.985 97.9521 176.042Z" fill="black"/>
</g>
<g clip-path="url(#clip1_112_22844)">
<path d="M166.058 161.511C166.892 161.963 167.67 162.383 168.392 162.77C169.102 163.18 169.785 163.559 170.441 163.909C171.106 164.293 171.778 164.666 172.456 165.028C173.121 165.412 173.831 165.822 174.585 166.257C175.349 166.727 176.179 167.236 177.075 167.783C179.299 169.156 181.129 170.775 182.566 172.639C184.013 174.539 185.064 176.713 185.72 179.162C186.399 181.624 186.68 184.388 186.565 187.456L186.338 193.535C186.252 195.527 186.658 197.077 187.556 198.186C188.453 199.296 189.348 200.153 190.241 200.757C191.312 201.464 192.484 202.2 193.757 202.965C195.053 203.742 196.286 204.424 197.455 205.011C198.536 205.546 199.593 205.61 200.628 205.201C201.684 204.806 202.654 203.843 203.538 202.312C204.395 200.826 204.717 199.578 204.502 198.567C204.297 197.591 203.753 196.818 202.869 196.249C201.111 195.145 199.551 194.185 198.188 193.369C196.835 192.588 195.268 191.742 193.487 190.832L199.288 180.785C200.178 181.24 201.063 181.706 201.94 182.184C202.84 182.674 203.696 183.138 204.507 183.577C205.306 184.038 206.031 184.471 206.684 184.878C211.337 187.83 214.037 191.016 214.784 194.434C215.541 197.887 214.498 202.075 211.655 206.999C209.645 210.481 207.576 213.013 205.451 214.595C203.334 216.212 201.012 216.956 198.484 216.827C195.956 216.699 193.068 215.785 189.82 214.087C189.275 213.802 188.769 213.525 188.303 213.256C187.847 213.022 187.408 212.784 186.987 212.54C186.587 212.31 186.184 212.062 185.775 211.796C185.354 211.553 184.905 211.279 184.43 210.976C182.02 209.465 180.155 207.753 178.835 205.838C177.538 203.936 176.647 201.869 176.161 199.637C175.676 197.405 175.473 195.04 175.554 192.544L175.805 185.503C175.842 184.312 175.604 183.213 175.091 182.207C174.587 181.236 173.966 180.39 173.229 179.669C172.492 178.947 171.802 178.401 171.159 178.03L168.964 176.762L158.476 194.926L149.694 189.856L166.058 161.511Z" fill="black"/>
</g>
<path d="M128.841 125.579V110.136H109.096V100.532L124.462 64.1152H139.827V100.071H146.819V110.136H139.827V125.579H128.841ZM120.313 100.071H128.841L130.377 85.9347L131.76 74.2567H129.455L125.537 85.9347L120.313 100.071Z" fill="black"/>
<defs>
<filter id="filter0_f_112_22844" x="-46.7227" y="-41.873" width="348.525" height="385.006" filterUnits="userSpaceOnUse" color-interpolation-filters="sRGB">
<feFlood flood-opacity="0" result="BackgroundImageFix"/>
<feBlend mode="normal" in="SourceGraphic" in2="BackgroundImageFix" result="shape"/>
<feGaussianBlur stdDeviation="10" result="effect1_foregroundBlur_112_22844"/>
</filter>
<clipPath id="clip0_112_22844">
<rect width="70" height="70" fill="white" transform="translate(58 239.621) rotate(-120)"/>
</clipPath>
<clipPath id="clip1_112_22844">
<rect width="70" height="70" fill="white" transform="translate(232.621 179) rotate(120)"/>
</clipPath>
</defs>
</svg>
