<svg width="256" height="256" viewBox="0 0 256 256" fill="none" xmlns="http://www.w3.org/2000/svg">
<metadata>
  <rdf:RDF xmlns:rdf="http://www.w3.org/1999/02/22-rdf-syntax-ns#"
            xmlns:dc="http://purl.org/dc/elements/1.1/">
    <rdf:Description>
      <dc:title>swrpg-online.com art asset</dc:title>
      <dc:creator>Joshua Ziggas</dc:creator>
      <dc:rights>CC BY-NC-SA 4.0 - https://github.com/swrpg-online/art</dc:rights>
    </rdf:Description>
  </rdf:RDF>
</metadata>
<desc>
  wrpg-online.com SWRPG Dice Asset
  Created by: Joshua Ziggas
  Source: https://github.com/swrpg-online/art
  License: CC BY-NC-SA 4.0
</desc><mask id="mask0_112_22896" style="mask-type:alpha" maskUnits="userSpaceOnUse" x="28" y="28" width="200" height="200">
<path d="M28 52C28 38.7452 38.7452 28 52 28H128H204C217.255 28 228 38.7452 228 52V128V204C228 217.255 217.255 228 204 228H128H52C38.7452 228 28 217.255 28 204V128V52Z" fill="#7EBCD8"/>
</mask>
<g mask="url(#mask0_112_22896)">
<rect width="256" height="256" fill="#FFE723"/>
<g style="mix-blend-mode:plus-lighter">
<rect x="28" y="28" width="200" height="200" fill="url(#paint0_linear_112_22896)"/>
</g>
<g filter="url(#filter0_f_112_22896)">
<path fill-rule="evenodd" clip-rule="evenodd" d="M239 17H17V239H239V17ZM128 228.909C183.731 228.909 228.909 183.731 228.909 128C228.909 72.2694 183.731 27.0909 128 27.0909C72.2694 27.0909 27.0909 72.2694 27.0909 128C27.0909 183.731 72.2694 228.909 128 228.909Z" fill="url(#paint1_angular_112_22896)"/>
</g>
</g>
<path d="M128.037 179.299C118.277 179.299 111.27 177.36 107.016 173.481C102.762 169.602 100.593 163.158 100.51 154.15C100.468 147.101 100.427 140.637 100.385 134.756C100.343 128.875 100.322 123.662 100.322 119.116C100.322 114.569 100.343 110.837 100.385 107.917C100.427 104.956 100.468 102.891 100.51 101.724C100.885 93.2153 103.429 86.9175 108.142 82.8302C112.897 78.7429 119.487 76.6992 127.912 76.6992C136.67 76.6992 143.364 78.868 147.994 83.2056C152.623 87.5431 155.063 93.3821 155.313 100.723C155.355 101.598 155.376 102.37 155.376 103.037C155.418 103.705 155.418 104.455 155.376 105.29C155.376 106.124 155.355 107.229 155.313 108.605H136.295C136.42 107.271 136.483 106.186 136.483 105.352C136.524 104.476 136.524 103.538 136.483 102.537C136.441 101.494 136.378 100.055 136.295 98.2202C136.253 96.3434 135.565 94.8419 134.23 93.7158C132.937 92.548 130.873 91.9641 128.037 91.9641C125.284 91.9641 123.22 92.5063 121.843 93.5907C120.467 94.6751 119.737 96.2182 119.654 98.2202C119.528 101.598 119.403 105.331 119.278 109.419C119.195 113.464 119.153 117.739 119.153 122.244H122.531C123.741 120.158 125.639 118.427 128.224 117.051C130.852 115.675 133.876 114.987 137.296 114.987C144.386 114.987 149.245 116.655 151.873 119.991C154.542 123.286 155.939 128.792 156.064 136.508C156.106 139.135 156.127 141.304 156.127 143.014C156.168 144.724 156.168 146.413 156.127 148.081C156.127 149.708 156.064 151.731 155.939 154.15C155.438 163.158 153.082 169.602 148.87 173.481C144.699 177.36 137.755 179.299 128.037 179.299ZM128.162 164.034C130.998 164.034 133.125 163.492 134.543 162.408C136.003 161.282 136.754 159.697 136.795 157.653C136.879 155.443 136.941 153.441 136.983 151.647C137.025 149.812 137.066 148.081 137.108 146.455C137.15 144.828 137.171 143.243 137.171 141.7C137.171 140.157 137.129 138.593 137.046 137.008C137.004 134.881 136.191 133.275 134.606 132.191C133.063 131.065 131.04 130.502 128.537 130.502C125.743 130.502 123.491 131.044 121.781 132.128C120.112 133.213 119.237 134.756 119.153 136.758C119.153 140.136 119.174 143.556 119.216 147.018C119.299 150.479 119.403 153.941 119.528 157.403C119.612 159.53 120.383 161.177 121.843 162.345C123.303 163.471 125.409 164.034 128.162 164.034Z" fill="black"/>
<g filter="url(#filter1_f_112_22896)">
<path d="M54.6822 87.8174C46.6259 95.7643 46.0504 129.917 46.7697 146C42.2358 116.37 41.274 83.6569 59.7175 64.5191C77.813 45.7423 110.789 41.6971 141 47.3734C123.017 46.6638 96.4024 50.2116 86.332 57.307C76.2616 64.4024 64.7526 77.8838 54.6822 87.8174Z" fill="url(#paint2_radial_112_22896)"/>
</g>
<defs>
<filter id="filter0_f_112_22896" x="1.31818" y="1.31818" width="253.364" height="253.364" filterUnits="userSpaceOnUse" color-interpolation-filters="sRGB">
<feFlood flood-opacity="0" result="BackgroundImageFix"/>
<feBlend mode="normal" in="SourceGraphic" in2="BackgroundImageFix" result="shape"/>
<feGaussianBlur stdDeviation="7.84091" result="effect1_foregroundBlur_112_22896"/>
</filter>
<filter id="filter1_f_112_22896" x="38.3182" y="39.3182" width="108.364" height="112.364" filterUnits="userSpaceOnUse" color-interpolation-filters="sRGB">
<feFlood flood-opacity="0" result="BackgroundImageFix"/>
<feBlend mode="normal" in="SourceGraphic" in2="BackgroundImageFix" result="shape"/>
<feGaussianBlur stdDeviation="2.84091" result="effect1_foregroundBlur_112_22896"/>
</filter>
<linearGradient id="paint0_linear_112_22896" x1="28" y1="28" x2="228" y2="228" gradientUnits="userSpaceOnUse">
<stop stop-color="white" stop-opacity="0"/>
<stop offset="0.655" stop-color="white" stop-opacity="0.05"/>
</linearGradient>
<radialGradient id="paint1_angular_112_22896" cx="0" cy="0" r="1" gradientUnits="userSpaceOnUse" gradientTransform="translate(128 128) rotate(45) scale(141.588)">
<stop stop-opacity="0.5"/>
<stop offset="0.253046" stop-opacity="0.35"/>
<stop offset="0.502899" stop-opacity="0.15"/>
<stop offset="0.753407" stop-opacity="0.25"/>
<stop offset="1" stop-opacity="0.5"/>
</radialGradient>
<radialGradient id="paint2_radial_112_22896" cx="0" cy="0" r="1" gradientUnits="userSpaceOnUse" gradientTransform="translate(66.2988 67.2406) scale(67.6157 63.1855)">
<stop offset="0.29" stop-color="white"/>
<stop offset="0.415" stop-color="white" stop-opacity="0.5"/>
<stop offset="1" stop-color="white" stop-opacity="0"/>
</radialGradient>
</defs>
</svg>
