<svg width="256" height="256" viewBox="0 0 256 256" fill="none" xmlns="http://www.w3.org/2000/svg">
<metadata>
  <rdf:RDF xmlns:rdf="http://www.w3.org/1999/02/22-rdf-syntax-ns#"
            xmlns:dc="http://purl.org/dc/elements/1.1/">
    <rdf:Description>
      <dc:title>swrpg-online.com art asset</dc:title>
      <dc:creator>Joshua Ziggas</dc:creator>
      <dc:rights>CC BY-NC-SA 4.0 - https://github.com/swrpg-online/art</dc:rights>
    </rdf:Description>
  </rdf:RDF>
</metadata>
<desc>
  wrpg-online.com SWRPG Dice Asset
  Created by: Joshua Ziggas
  Source: https://github.com/swrpg-online/art
  License: CC BY-NC-SA 4.0
</desc><mask id="mask0_112_22890" style="mask-type:alpha" maskUnits="userSpaceOnUse" x="10" y="0" width="237" height="256">
<path d="M100.601 7.4368C117.775 -2.47893 138.935 -2.47893 156.11 7.4368L218.819 43.6421C235.994 53.5579 246.574 71.8829 246.574 91.7144V164.125C246.574 183.956 235.994 202.281 218.819 212.197L156.11 248.403C138.935 258.318 117.775 258.318 100.601 248.403L37.8912 212.197C20.7167 202.281 10.1367 183.956 10.1367 164.125V91.7144C10.1367 71.8829 20.7167 53.5578 37.8912 43.6421L100.601 7.4368Z" fill="black"/>
</mask>
<g mask="url(#mask0_112_22890)">
<rect width="256" height="256" fill="#FFE723"/>
<mask id="mask1_112_22890" style="mask-type:alpha" maskUnits="userSpaceOnUse" x="10" y="0" width="237" height="256">
<path d="M100.601 7.4368C117.775 -2.47893 138.935 -2.47893 156.11 7.4368L218.819 43.6421C235.994 53.5579 246.574 71.8829 246.574 91.7144V164.125C246.574 183.956 235.994 202.281 218.819 212.197L156.11 248.403C138.935 258.318 117.775 258.318 100.601 248.403L37.8912 212.197C20.7167 202.281 10.1367 183.956 10.1367 164.125V91.7144C10.1367 71.8829 20.7167 53.5578 37.8912 43.6421L100.601 7.4368Z" fill="#9B46E0"/>
</mask>
<g mask="url(#mask1_112_22890)">
<g filter="url(#filter0_f_112_22890)">
<mask id="mask2_112_22890" style="mask-type:alpha" maskUnits="userSpaceOnUse" x="-1" y="-13" width="259" height="280">
<path fill-rule="evenodd" clip-rule="evenodd" d="M158.903 -4.86089C140.09 -15.713 116.91 -15.713 98.0969 -4.86089L29.4031 34.7635C10.5896 45.6157 -1 65.6713 -1 87.3756V166.624C-1 188.329 10.5896 208.384 29.4031 219.236L98.0969 258.861C116.91 269.713 140.09 269.713 158.903 258.861L227.597 219.236C246.41 208.384 258 188.329 258 166.624V87.3756C258 65.6713 246.41 45.6157 227.597 34.7635L158.903 -4.86089ZM110.206 232.99C118.273 246.962 138.439 246.962 146.506 232.99L228.425 91.1025C236.491 77.1308 226.408 59.6662 210.275 59.6662L46.437 59.6662C30.3039 59.6662 20.2207 77.1308 28.2873 91.1025L110.206 232.99Z" fill="#9B46E0"/>
</mask>
<g mask="url(#mask2_112_22890)">
<path d="M151.281 -6.49614C140.934 -12.5013 115.066 -12.5013 104.719 -6.49615L-0.358358 54.4884C-10.7053 60.4936 2.22836 68 22.9223 68L233.078 68C253.772 68 266.705 60.4936 256.358 54.4884L151.281 -6.49614Z" fill="black" fill-opacity="0.25"/>
<path d="M233.109 214.557C243.28 208.688 255.99 186.674 255.987 174.93L255.954 55.6747C255.951 43.9316 243.237 51.2675 233.068 68.8793L129.806 247.734C119.638 265.346 119.642 280.025 129.814 274.156L233.109 214.557Z" fill="black" fill-opacity="0.5"/>
<path d="M22.4338 216.015C11.9133 209.945 -1.233 187.175 -1.22964 175.029L-1.19553 51.6816C-1.19217 39.5356 11.9583 47.1232 22.4754 65.3393L129.28 250.331C139.797 268.547 139.793 283.729 129.273 277.659L22.4338 216.015Z" fill="black" fill-opacity="0.35"/>
</g>
</g>
</g>
</g>
<path d="M128.059 179.118C118.05 179.118 110.813 177.179 106.351 173.3C101.888 169.421 99.5315 162.978 99.2813 153.969C99.2396 151.508 99.2396 149.631 99.2813 148.338C99.323 147.045 99.3647 145.836 99.4064 144.71H118.55C118.425 145.752 118.321 147.087 118.237 148.714C118.196 150.299 118.175 151.842 118.175 153.343C118.175 154.803 118.216 155.846 118.3 156.471C118.55 158.849 119.447 160.684 120.99 161.977C122.575 163.228 124.764 163.853 127.559 163.853C130.562 163.853 132.793 163.228 134.253 161.977C135.713 160.684 136.526 158.849 136.693 156.471C137.068 152.009 137.277 148.192 137.318 145.023C137.402 141.853 137.277 138.829 136.943 135.951C136.693 133.616 135.9 131.885 134.566 130.759C133.231 129.633 131.187 129.07 128.435 129.07C126.558 129.07 124.91 129.32 123.492 129.82C122.074 130.321 120.969 131.051 120.177 132.01C119.384 132.969 118.967 134.116 118.925 135.451H100.908V77.7695H154.21V94.2856H119.926V120.811H122.804C124.014 118.81 125.891 117.1 128.435 115.681C131.021 114.263 134.023 113.554 137.443 113.554C143.408 113.554 147.891 115.494 150.894 119.373C153.897 123.251 155.586 128.486 155.962 135.075C156.128 137.494 156.233 139.809 156.274 142.02C156.316 144.23 156.295 146.336 156.212 148.338C156.128 150.34 156.003 152.217 155.836 153.969C155.252 159.975 153.98 164.834 152.02 168.546C150.102 172.216 147.203 174.906 143.324 176.616C139.487 178.284 134.399 179.118 128.059 179.118Z" fill="black"/>
<g filter="url(#filter1_f_112_22890)">
<path d="M46.1411 88.8365C46.1411 104.243 68.7979 141.325 80.1263 157.94C73.8012 149.254 59.5086 128.882 52.9382 116.874C44.7251 101.864 31.6974 80.6234 39.6273 72.6935C45.9712 66.3496 71.7244 64.7637 83.808 64.7637H148.38C174.152 64.7637 195.204 71.3719 202.19 74.676C202.19 74.676 171.32 69.0118 148.38 69.0118H83.808C69.0811 69.0118 46.1411 69.5782 46.1411 88.8365Z" fill="url(#paint0_radial_112_22890)"/>
</g>
<defs>
<filter id="filter0_f_112_22890" x="-13" y="-23" width="283" height="302" filterUnits="userSpaceOnUse" color-interpolation-filters="sRGB">
<feFlood flood-opacity="0" result="BackgroundImageFix"/>
<feBlend mode="normal" in="SourceGraphic" in2="BackgroundImageFix" result="shape"/>
<feGaussianBlur stdDeviation="6" result="effect1_foregroundBlur_112_22890"/>
</filter>
<filter id="filter1_f_112_22890" x="31.4979" y="59.0995" width="176.356" height="104.504" filterUnits="userSpaceOnUse" color-interpolation-filters="sRGB">
<feFlood flood-opacity="0" result="BackgroundImageFix"/>
<feBlend mode="normal" in="SourceGraphic" in2="BackgroundImageFix" result="shape"/>
<feGaussianBlur stdDeviation="2.83209" result="effect1_foregroundBlur_112_22890"/>
</filter>
<radialGradient id="paint0_radial_112_22890" cx="0" cy="0" r="1" gradientUnits="userSpaceOnUse" gradientTransform="translate(37.1621 71.5607) rotate(34.3188) scale(171.795 304.273)">
<stop stop-color="white"/>
<stop offset="1" stop-color="white" stop-opacity="0"/>
</radialGradient>
</defs>
</svg>
