<svg width="256" height="256" viewBox="0 0 256 256" fill="none" xmlns="http://www.w3.org/2000/svg">
<metadata>
  <rdf:RDF xmlns:rdf="http://www.w3.org/1999/02/22-rdf-syntax-ns#"
            xmlns:dc="http://purl.org/dc/elements/1.1/">
    <rdf:Description>
      <dc:title>swrpg-online.com art asset</dc:title>
      <dc:creator>Joshua Ziggas</dc:creator>
      <dc:rights>CC BY-NC-SA 4.0 - https://github.com/swrpg-online/art</dc:rights>
    </rdf:Description>
  </rdf:RDF>
</metadata>
<desc>
  wrpg-online.com SWRPG Dice Asset
  Created by: Joshua Ziggas
  Source: https://github.com/swrpg-online/art
  License: CC BY-NC-SA 4.0
</desc><mask id="mask0_112_17168" style="mask-type:alpha" maskUnits="userSpaceOnUse" x="2" y="17" width="252" height="223">
<path d="M111.095 26.5C118.408 13.8333 136.691 13.8333 144.004 26.5L250.525 211C257.838 223.667 248.697 239.5 234.071 239.5H21.0283C6.40214 239.5 -2.73924 223.667 4.57386 211L111.095 26.5Z" fill="#D9D9D9"/>
</mask>
<g mask="url(#mask0_112_17168)">
<rect width="256" height="256" fill="#6792BF"/>
<g style="mix-blend-mode:multiply" filter="url(#filter0_f_112_17168)">
<path d="M279.337 102.182C279.369 87.9555 263.989 61.3151 251.652 54.2297L126.366 -17.7262C114.029 -24.8117 113.988 -7.0282 126.293 14.2841L251.252 230.719C263.556 252.031 278.977 260.888 279.01 246.661L279.337 102.182Z" fill="black" fill-opacity="0.25"/>
<path d="M100.333 317.894C112.425 324.88 142.655 324.88 154.747 317.894L277.547 246.95C289.639 239.964 274.524 231.232 250.339 231.232L4.74033 231.232C-19.4438 231.232 -34.5589 239.964 -22.4668 246.95L100.333 317.894Z" fill="black" fill-opacity="0.5"/>
<path d="M-26.4366 101.791C-26.4405 87.3473 -10.8069 60.269 1.704 53.0504L128.757 -20.257C141.268 -27.4756 141.273 -9.42054 128.766 12.2421L1.75356 232.235C-10.7533 253.897 -26.392 262.921 -26.396 248.476L-26.4366 101.791Z" fill="black" fill-opacity="0.35"/>
</g>
</g>
<g clip-path="url(#clip0_112_17168)">
<path d="M190.355 125.265C192.989 129.828 194.009 133.637 193.415 136.691C192.822 139.746 190.505 142.516 186.465 145.001C185.791 145.415 185.279 145.736 184.929 145.963C184.568 146.172 184.207 146.38 183.846 146.589C183.473 146.779 182.94 147.061 182.244 147.437L177.206 138.712L182.567 135.617C183.651 134.991 184.279 134.147 184.451 133.084C184.604 132.033 184.297 130.841 183.529 129.511C182.738 128.142 181.86 127.28 180.895 126.925C179.9 126.562 178.874 126.673 177.817 127.257C176.54 127.944 175.417 128.567 174.448 129.126C173.467 129.667 172.556 130.218 171.715 130.78C170.721 131.43 170.001 132.29 169.553 133.359C169.095 134.409 169.39 135.798 170.438 137.525L173.821 143.252L166.766 147.629L150.371 145.309L158.899 160.08L151.371 164.426L137.08 139.675L144.446 135.574L161.039 138.236C159.476 134.957 159.128 132.028 159.996 129.448C160.853 126.849 163.156 124.341 166.905 121.923C167.293 121.673 167.668 121.444 168.029 121.236C168.36 121.019 168.697 120.812 169.039 120.615C169.382 120.417 169.762 120.198 170.18 119.956C170.579 119.726 171.046 119.481 171.582 119.223C175.787 117.023 179.344 116.402 182.253 117.358C185.152 118.295 187.852 120.931 190.355 125.265Z" fill="white"/>
</g>
<g clip-path="url(#clip1_112_17168)">
<path d="M72.9071 112.353C73.6214 112.74 74.2882 113.099 74.9075 113.431C75.5159 113.783 76.1012 114.108 76.6635 114.407C77.2338 114.736 77.8096 115.056 78.3908 115.366C78.9612 115.696 79.5695 116.047 80.2158 116.42C80.8702 116.823 81.5816 117.259 82.3501 117.728C84.2562 118.905 85.8251 120.292 87.0569 121.891C88.2966 123.519 89.1977 125.383 89.7602 127.482C90.3416 129.592 90.5829 131.961 90.4841 134.591L90.2893 139.802C90.2164 141.508 90.5644 142.837 91.3334 143.788C92.1025 144.739 92.8697 145.474 93.6352 145.992C94.5528 146.598 95.5574 147.228 96.6491 147.884C97.7597 148.55 98.8162 149.135 99.8187 149.638C100.745 150.097 101.652 150.151 102.538 149.801C103.443 149.462 104.275 148.637 105.032 147.325C105.768 146.051 106.043 144.981 105.859 144.114C105.683 143.278 105.216 142.615 104.459 142.127C102.952 141.181 101.615 140.358 100.447 139.659C99.2875 138.989 97.9444 138.265 96.4176 137.485L101.39 128.873C102.153 129.263 102.911 129.663 103.663 130.072C104.435 130.492 105.168 130.89 105.863 131.266C106.548 131.661 107.17 132.033 107.729 132.381C111.717 134.912 114.032 137.642 114.672 140.572C115.321 143.532 114.427 147.122 111.99 151.342C110.267 154.327 108.494 156.497 106.672 157.853C104.858 159.239 102.867 159.877 100.701 159.766C98.5339 159.656 96.0583 158.873 93.274 157.417C92.8068 157.173 92.3735 156.936 91.9743 156.705C91.5831 156.505 91.2069 156.3 90.8457 156.092C90.5036 155.894 90.1574 155.681 89.8071 155.454C89.4459 155.245 89.0617 155.011 88.6545 154.75C86.5882 153.456 84.9897 151.988 83.8589 150.347C82.7471 148.716 81.9831 146.945 81.5669 145.031C81.1507 143.118 80.9773 141.092 81.0467 138.952L81.2614 132.916C81.2932 131.896 81.0891 130.954 80.6491 130.092C80.2172 129.259 79.6854 128.534 79.0538 127.916C78.4221 127.298 77.8307 126.829 77.2794 126.511L75.3973 125.425L66.4083 140.994L58.8802 136.648L72.9071 112.353Z" fill="white"/>
</g>
<path d="M126.721 228.358V215.322H109.797V207.215L122.968 176.474H136.138V206.826H142.131V215.322H136.138V228.358H126.721ZM119.412 206.826H126.721L128.038 194.893L129.224 185.035H127.248L123.89 194.893L119.412 206.826Z" fill="white"/>
<defs>
<filter id="filter0_f_112_17168" x="-46.7227" y="-41.873" width="348.523" height="385.006" filterUnits="userSpaceOnUse" color-interpolation-filters="sRGB">
<feFlood flood-opacity="0" result="BackgroundImageFix"/>
<feBlend mode="normal" in="SourceGraphic" in2="BackgroundImageFix" result="shape"/>
<feGaussianBlur stdDeviation="10" result="effect1_foregroundBlur_112_17168"/>
</filter>
<clipPath id="clip0_112_17168">
<rect width="60" height="60" fill="white" transform="translate(156.109 179.762) rotate(-120)"/>
</clipPath>
<clipPath id="clip1_112_17168">
<rect width="60" height="60" fill="white" transform="translate(129.961 127.343) rotate(120)"/>
</clipPath>
</defs>
</svg>
