<svg width="256" height="256" viewBox="0 0 256 256" fill="none" xmlns="http://www.w3.org/2000/svg">
<metadata>
  <rdf:RDF xmlns:rdf="http://www.w3.org/1999/02/22-rdf-syntax-ns#"
            xmlns:dc="http://purl.org/dc/elements/1.1/">
    <rdf:Description>
      <dc:title>swrpg-online.com art asset</dc:title>
      <dc:creator>Joshua Ziggas</dc:creator>
      <dc:rights>CC BY-NC-SA 4.0 - https://github.com/swrpg-online/art</dc:rights>
    </rdf:Description>
  </rdf:RDF>
</metadata>
<desc>
  wrpg-online.com SWRPG Dice Asset
  Created by: Joshua Ziggas
  Source: https://github.com/swrpg-online/art
  License: CC BY-NC-SA 4.0
</desc><mask id="mask0_112_17169" style="mask-type:alpha" maskUnits="userSpaceOnUse" x="2" y="17" width="252" height="223">
<path d="M111.095 26.5C118.408 13.8333 136.691 13.8333 144.004 26.5L250.525 211C257.838 223.667 248.697 239.5 234.071 239.5H21.0283C6.40214 239.5 -2.73924 223.667 4.57386 211L111.095 26.5Z" fill="#D9D9D9"/>
</mask>
<g mask="url(#mask0_112_17169)">
<rect width="256" height="256" fill="#6792BF"/>
<g style="mix-blend-mode:multiply" filter="url(#filter0_f_112_17169)">
<path d="M279.337 102.182C279.369 87.9555 263.989 61.3151 251.652 54.2297L126.366 -17.7262C114.029 -24.8117 113.988 -7.0282 126.293 14.2841L251.252 230.719C263.556 252.031 278.977 260.888 279.01 246.661L279.337 102.182Z" fill="black" fill-opacity="0.25"/>
<path d="M100.333 317.894C112.425 324.88 142.655 324.88 154.747 317.894L277.547 246.95C289.639 239.964 274.524 231.232 250.339 231.232L4.74033 231.232C-19.4438 231.232 -34.5589 239.964 -22.4668 246.95L100.333 317.894Z" fill="black" fill-opacity="0.5"/>
<path d="M-26.4366 101.791C-26.4405 87.3473 -10.8069 60.269 1.704 53.0504L128.757 -20.257C141.268 -27.4756 141.273 -9.42054 128.766 12.2421L1.75356 232.235C-10.7533 253.897 -26.392 262.921 -26.396 248.476L-26.4366 101.791Z" fill="black" fill-opacity="0.35"/>
</g>
</g>
<g clip-path="url(#clip0_112_17169)">
<path d="M191.178 128.084L153.081 150.079L155.057 153.501L152.166 155.474L144.499 152.6L140.416 145.528L186.041 119.187L191.178 128.084Z" fill="white"/>
</g>
<g clip-path="url(#clip1_112_17169)">
<path d="M65.9209 125.843L77.3841 132.461L85.8463 117.804L92.9751 121.92L113.422 148.934L106.837 160.34L80.1466 144.93L77.1503 150.12L69.6792 145.806L72.6756 140.617L61.2123 133.998L65.9209 125.843ZM88.51 130.444L84.8551 136.775L94.6903 143.974L102.766 150.005L103.754 148.294L96.7647 140.381L88.51 130.444Z" fill="white"/>
</g>
<path d="M126.074 229.043C120.805 229.043 116.997 228.038 114.648 226.027C112.299 224.017 111.059 220.677 110.927 216.007C110.905 215.229 110.883 214.634 110.861 214.223C110.861 213.813 110.861 213.402 110.861 212.991C110.883 212.58 110.905 211.986 110.927 211.208H121.003V217.304C121.003 218.536 121.42 219.488 122.254 220.158C123.088 220.806 124.274 221.131 125.81 221.131C127.391 221.131 128.576 220.806 129.366 220.158C130.178 219.488 130.595 218.558 130.617 217.369C130.661 215.942 130.683 214.677 130.683 213.575C130.705 212.472 130.683 211.424 130.617 210.429C130.552 209.262 130.167 208.224 129.465 207.316C128.784 206.408 127.434 205.976 125.415 206.019L118.764 206.084L118.5 197.912L128.708 185.071H111.652V176.51H140.232L140.1 184.811L129.498 197.653C133.12 197.934 135.831 199.08 137.631 201.09C139.453 203.101 140.474 206.3 140.693 210.689C140.715 211.143 140.726 211.575 140.726 211.986C140.748 212.375 140.759 212.764 140.759 213.153C140.759 213.542 140.759 213.975 140.759 214.45C140.759 214.904 140.737 215.423 140.693 216.007C140.495 220.677 139.255 224.017 136.972 226.027C134.711 228.038 131.078 229.043 126.074 229.043Z" fill="white"/>
<defs>
<filter id="filter0_f_112_17169" x="-46.7227" y="-41.873" width="348.523" height="385.006" filterUnits="userSpaceOnUse" color-interpolation-filters="sRGB">
<feFlood flood-opacity="0" result="BackgroundImageFix"/>
<feBlend mode="normal" in="SourceGraphic" in2="BackgroundImageFix" result="shape"/>
<feGaussianBlur stdDeviation="10" result="effect1_foregroundBlur_112_17169"/>
</filter>
<clipPath id="clip0_112_17169">
<rect width="60" height="60" fill="white" transform="translate(156.109 179.762) rotate(-120)"/>
</clipPath>
<clipPath id="clip1_112_17169">
<rect width="60" height="60" fill="white" transform="translate(129.961 127.343) rotate(120)"/>
</clipPath>
</defs>
</svg>
