<svg width="256" height="256" viewBox="0 0 256 256" fill="none" xmlns="http://www.w3.org/2000/svg">
<metadata>
  <rdf:RDF xmlns:rdf="http://www.w3.org/1999/02/22-rdf-syntax-ns#"
            xmlns:dc="http://purl.org/dc/elements/1.1/">
    <rdf:Description>
      <dc:title>swrpg-online.com art asset</dc:title>
      <dc:creator>Joshua Ziggas</dc:creator>
      <dc:rights>CC BY-NC-SA 4.0 - https://github.com/swrpg-online/art</dc:rights>
    </rdf:Description>
  </rdf:RDF>
</metadata>
<desc>
  wrpg-online.com SWRPG Dice Asset
  Created by: Joshua Ziggas
  Source: https://github.com/swrpg-online/art
  License: CC BY-NC-SA 4.0
</desc><mask id="mask0_112_17210" style="mask-type:alpha" maskUnits="userSpaceOnUse" x="10" y="0" width="237" height="256">
<path d="M100.601 7.4368C117.775 -2.47893 138.935 -2.47893 156.11 7.4368L218.819 43.6421C235.994 53.5579 246.574 71.8829 246.574 91.7144V164.125C246.574 183.956 235.994 202.281 218.819 212.197L156.11 248.403C138.935 258.318 117.775 258.318 100.601 248.403L37.8912 212.197C20.7167 202.281 10.1367 183.956 10.1367 164.125V91.7144C10.1367 71.8829 20.7167 53.5578 37.8912 43.6421L100.601 7.4368Z" fill="black"/>
</mask>
<g mask="url(#mask0_112_17210)">
<rect width="256" height="256" fill="#6792BF"/>
<mask id="mask1_112_17210" style="mask-type:alpha" maskUnits="userSpaceOnUse" x="10" y="0" width="237" height="256">
<path d="M100.601 7.4368C117.775 -2.47893 138.935 -2.47893 156.11 7.4368L218.819 43.6421C235.994 53.5579 246.574 71.8829 246.574 91.7144V164.125C246.574 183.956 235.994 202.281 218.819 212.197L156.11 248.403C138.935 258.318 117.775 258.318 100.601 248.403L37.8912 212.197C20.7167 202.281 10.1367 183.956 10.1367 164.125V91.7144C10.1367 71.8829 20.7167 53.5578 37.8912 43.6421L100.601 7.4368Z" fill="#9B46E0"/>
</mask>
<g mask="url(#mask1_112_17210)">
<g filter="url(#filter0_f_112_17210)">
<mask id="mask2_112_17210" style="mask-type:alpha" maskUnits="userSpaceOnUse" x="-1" y="-13" width="259" height="280">
<path fill-rule="evenodd" clip-rule="evenodd" d="M158.903 -4.86089C140.09 -15.713 116.91 -15.713 98.0969 -4.86089L29.4031 34.7635C10.5896 45.6157 -1 65.6713 -1 87.3756V166.624C-1 188.329 10.5896 208.384 29.4031 219.236L98.0969 258.861C116.91 269.713 140.09 269.713 158.903 258.861L227.597 219.236C246.41 208.384 258 188.329 258 166.624V87.3756C258 65.6713 246.41 45.6157 227.597 34.7635L158.903 -4.86089ZM110.206 232.99C118.273 246.962 138.439 246.962 146.506 232.99L228.425 91.1025C236.491 77.1308 226.408 59.6662 210.275 59.6662L46.437 59.6662C30.3039 59.6662 20.2207 77.1308 28.2873 91.1025L110.206 232.99Z" fill="#9B46E0"/>
</mask>
<g mask="url(#mask2_112_17210)">
<path d="M151.281 -6.49614C140.934 -12.5013 115.066 -12.5013 104.719 -6.49615L-0.358358 54.4884C-10.7053 60.4936 2.22836 68 22.9223 68L233.078 68C253.772 68 266.705 60.4936 256.358 54.4884L151.281 -6.49614Z" fill="black" fill-opacity="0.25"/>
<path d="M233.109 214.558C243.28 208.689 255.99 186.675 255.987 174.931L255.954 55.6757C255.951 43.9326 243.237 51.2685 233.068 68.8803L129.806 247.735C119.638 265.347 119.642 280.026 129.814 274.157L233.109 214.558Z" fill="black" fill-opacity="0.5"/>
<path d="M22.4338 216.016C11.9133 209.946 -1.233 187.176 -1.22964 175.03L-1.19553 51.6826C-1.19217 39.5366 11.9583 47.1242 22.4754 65.3403L129.28 250.332C139.797 268.548 139.793 283.73 129.273 277.66L22.4338 216.016Z" fill="black" fill-opacity="0.35"/>
</g>
</g>
</g>
</g>
<path d="M128.059 179.119C118.05 179.119 110.813 177.18 106.351 173.301C101.888 169.422 99.5315 162.979 99.2813 153.97C99.2396 151.509 99.2396 149.632 99.2813 148.339C99.323 147.046 99.3647 145.837 99.4064 144.711H118.55C118.425 145.753 118.321 147.088 118.237 148.715C118.196 150.3 118.175 151.843 118.175 153.344C118.175 154.804 118.216 155.847 118.3 156.472C118.55 158.85 119.447 160.685 120.99 161.978C122.575 163.229 124.764 163.854 127.559 163.854C130.562 163.854 132.793 163.229 134.253 161.978C135.713 160.685 136.526 158.85 136.693 156.472C137.068 152.01 137.277 148.193 137.318 145.024C137.402 141.854 137.277 138.83 136.943 135.952C136.693 133.617 135.9 131.886 134.566 130.76C133.231 129.634 131.187 129.071 128.435 129.071C126.558 129.071 124.91 129.321 123.492 129.821C122.074 130.322 120.969 131.052 120.177 132.011C119.384 132.97 118.967 134.117 118.925 135.452H100.908V77.7705H154.21V94.2866H119.926V120.812H122.804C124.014 118.811 125.891 117.101 128.435 115.682C131.021 114.264 134.023 113.555 137.443 113.555C143.408 113.555 147.891 115.495 150.894 119.374C153.897 123.252 155.586 128.487 155.962 135.076C156.128 137.495 156.233 139.81 156.274 142.021C156.316 144.231 156.295 146.337 156.212 148.339C156.128 150.341 156.003 152.218 155.836 153.97C155.252 159.976 153.98 164.835 152.02 168.546C150.102 172.217 147.203 174.907 143.324 176.617C139.487 178.285 134.399 179.119 128.059 179.119Z" fill="white"/>
<g filter="url(#filter1_f_112_17210)">
<path d="M46.1392 88.8365C46.1392 104.243 68.7959 141.325 80.1243 157.94C73.7993 149.254 59.5067 128.882 52.9362 116.874C44.7231 101.864 31.6955 80.6234 39.6254 72.6935C45.9692 66.3496 71.7224 64.7637 83.806 64.7637H148.378C174.15 64.7637 195.202 71.3719 202.188 74.676C202.188 74.676 171.318 69.0118 148.378 69.0118H83.806C69.0791 69.0118 46.1392 69.5782 46.1392 88.8365Z" fill="url(#paint0_radial_112_17210)"/>
</g>
<defs>
<filter id="filter0_f_112_17210" x="-13" y="-23" width="283" height="302" filterUnits="userSpaceOnUse" color-interpolation-filters="sRGB">
<feFlood flood-opacity="0" result="BackgroundImageFix"/>
<feBlend mode="normal" in="SourceGraphic" in2="BackgroundImageFix" result="shape"/>
<feGaussianBlur stdDeviation="6" result="effect1_foregroundBlur_112_17210"/>
</filter>
<filter id="filter1_f_112_17210" x="31.496" y="59.0995" width="176.356" height="104.504" filterUnits="userSpaceOnUse" color-interpolation-filters="sRGB">
<feFlood flood-opacity="0" result="BackgroundImageFix"/>
<feBlend mode="normal" in="SourceGraphic" in2="BackgroundImageFix" result="shape"/>
<feGaussianBlur stdDeviation="2.83209" result="effect1_foregroundBlur_112_17210"/>
</filter>
<radialGradient id="paint0_radial_112_17210" cx="0" cy="0" r="1" gradientUnits="userSpaceOnUse" gradientTransform="translate(37.1602 71.5607) rotate(34.3188) scale(171.795 304.273)">
<stop stop-color="white"/>
<stop offset="1" stop-color="white" stop-opacity="0"/>
</radialGradient>
</defs>
</svg>
