<svg width="256" height="256" viewBox="0 0 256 256" fill="none" xmlns="http://www.w3.org/2000/svg">
<metadata>
  <rdf:RDF xmlns:rdf="http://www.w3.org/1999/02/22-rdf-syntax-ns#"
            xmlns:dc="http://purl.org/dc/elements/1.1/">
    <rdf:Description>
      <dc:title>swrpg-online.com art asset</dc:title>
      <dc:creator>Joshua Ziggas</dc:creator>
      <dc:rights>CC BY-NC-SA 4.0 - https://github.com/swrpg-online/art</dc:rights>
    </rdf:Description>
  </rdf:RDF>
</metadata>
<desc>
  wrpg-online.com SWRPG Dice Asset
  Created by: Joshua Ziggas
  Source: https://github.com/swrpg-online/art
  License: CC BY-NC-SA 4.0
</desc><mask id="mask0_112_17207" style="mask-type:alpha" maskUnits="userSpaceOnUse" x="10" y="0" width="237" height="256">
<path d="M100.601 7.4368C117.775 -2.47893 138.935 -2.47893 156.11 7.4368L218.819 43.6421C235.994 53.5579 246.574 71.8829 246.574 91.7144V164.125C246.574 183.956 235.994 202.281 218.819 212.197L156.11 248.403C138.935 258.318 117.775 258.318 100.601 248.403L37.8912 212.197C20.7167 202.281 10.1367 183.956 10.1367 164.125V91.7144C10.1367 71.8829 20.7167 53.5578 37.8912 43.6421L100.601 7.4368Z" fill="black"/>
</mask>
<g mask="url(#mask0_112_17207)">
<rect width="256" height="256" fill="#6792BF"/>
<mask id="mask1_112_17207" style="mask-type:alpha" maskUnits="userSpaceOnUse" x="10" y="0" width="237" height="256">
<path d="M100.601 7.4368C117.775 -2.47893 138.935 -2.47893 156.11 7.4368L218.819 43.6421C235.994 53.5579 246.574 71.8829 246.574 91.7144V164.125C246.574 183.956 235.994 202.281 218.819 212.197L156.11 248.403C138.935 258.318 117.775 258.318 100.601 248.403L37.8912 212.197C20.7167 202.281 10.1367 183.956 10.1367 164.125V91.7144C10.1367 71.8829 20.7167 53.5578 37.8912 43.6421L100.601 7.4368Z" fill="#9B46E0"/>
</mask>
<g mask="url(#mask1_112_17207)">
<g filter="url(#filter0_f_112_17207)">
<mask id="mask2_112_17207" style="mask-type:alpha" maskUnits="userSpaceOnUse" x="-1" y="-13" width="259" height="280">
<path fill-rule="evenodd" clip-rule="evenodd" d="M158.903 -4.86089C140.09 -15.713 116.91 -15.713 98.0969 -4.86089L29.4031 34.7635C10.5896 45.6157 -1 65.6713 -1 87.3756V166.624C-1 188.329 10.5896 208.384 29.4031 219.236L98.0969 258.861C116.91 269.713 140.09 269.713 158.903 258.861L227.597 219.236C246.41 208.384 258 188.329 258 166.624V87.3756C258 65.6713 246.41 45.6157 227.597 34.7635L158.903 -4.86089ZM110.206 232.99C118.273 246.962 138.439 246.962 146.506 232.99L228.425 91.1025C236.491 77.1308 226.408 59.6662 210.275 59.6662L46.437 59.6662C30.3039 59.6662 20.2207 77.1308 28.2873 91.1025L110.206 232.99Z" fill="#9B46E0"/>
</mask>
<g mask="url(#mask2_112_17207)">
<path d="M151.281 -6.49614C140.934 -12.5013 115.066 -12.5013 104.719 -6.49615L-0.358358 54.4884C-10.7053 60.4936 2.22836 68 22.9223 68L233.078 68C253.772 68 266.705 60.4936 256.358 54.4884L151.281 -6.49614Z" fill="black" fill-opacity="0.25"/>
<path d="M233.109 214.558C243.28 208.689 255.99 186.675 255.987 174.931L255.954 55.6757C255.951 43.9326 243.237 51.2685 233.068 68.8803L129.806 247.735C119.638 265.347 119.642 280.026 129.814 274.157L233.109 214.558Z" fill="black" fill-opacity="0.5"/>
<path d="M22.4338 216.016C11.9133 209.946 -1.233 187.176 -1.22964 175.03L-1.19553 51.6826C-1.19217 39.5366 11.9583 47.1242 22.4754 65.3403L129.28 250.332C139.797 268.548 139.793 283.73 129.273 277.66L22.4338 216.016Z" fill="black" fill-opacity="0.35"/>
</g>
</g>
</g>
</g>
<path d="M128.156 179.3C118.271 179.3 111.265 177.277 107.136 173.232C103.007 169.144 100.754 162.784 100.379 154.151C100.337 152.899 100.316 151.919 100.316 151.21C100.316 150.46 100.337 149.709 100.379 148.958C100.421 148.207 100.504 147.144 100.629 145.768C101.088 141.138 102.235 137.509 104.07 134.882C105.905 132.213 108.637 130.127 112.266 128.626V125.998C109.763 125.122 107.553 123.683 105.634 121.682C103.757 119.68 102.506 117.156 101.88 114.112C101.672 113.111 101.484 111.88 101.317 110.421C101.192 108.919 101.088 107.418 101.005 105.916C100.963 104.373 100.963 103.018 101.005 101.85C101.463 93.0078 103.716 86.6057 107.761 82.6435C111.807 78.6813 118.605 76.7002 128.156 76.7002C137.415 76.7002 144.151 78.6396 148.363 82.5184C152.576 86.3972 154.89 92.8409 155.308 101.85C155.349 103.018 155.328 104.373 155.245 105.916C155.203 107.418 155.099 108.919 154.932 110.421C154.807 111.88 154.64 113.111 154.432 114.112C153.806 117.156 152.534 119.68 150.615 121.682C148.739 123.683 146.549 125.122 144.047 125.998V128.751C147.383 130.252 149.99 132.359 151.867 135.07C153.785 137.739 155.057 141.263 155.683 145.642C155.933 147.394 156.058 148.896 156.058 150.147C156.058 151.356 156.017 152.691 155.933 154.151C155.516 163.076 153.18 169.499 148.926 173.419C144.714 177.34 137.79 179.3 128.156 179.3ZM128.156 164.035C131.117 164.035 133.286 163.41 134.662 162.159C136.08 160.866 136.789 159.03 136.789 156.653C136.789 155.235 136.789 153.817 136.789 152.399C136.789 150.939 136.789 149.5 136.789 148.082C136.789 146.623 136.789 145.184 136.789 143.766C136.789 141.388 136.08 139.574 134.662 138.323C133.286 137.03 131.117 136.383 128.156 136.383C125.237 136.383 123.068 137.03 121.65 138.323C120.232 139.574 119.523 141.388 119.523 143.766C119.523 145.893 119.523 148.041 119.523 150.209C119.523 152.378 119.523 154.526 119.523 156.653C119.523 159.03 120.232 160.866 121.65 162.159C123.068 163.41 125.237 164.035 128.156 164.035ZM128.156 118.491C131.034 118.491 133.182 117.865 134.6 116.614C136.06 115.321 136.789 113.486 136.789 111.109C136.789 109.148 136.789 107.188 136.789 105.228C136.789 103.226 136.789 101.266 136.789 99.3473C136.789 96.97 136.08 95.1557 134.662 93.9045C133.286 92.6115 131.117 91.9651 128.156 91.9651C125.278 91.9651 123.109 92.6115 121.65 93.9045C120.232 95.1557 119.523 96.97 119.523 99.3473C119.523 100.307 119.523 101.287 119.523 102.288C119.523 103.247 119.523 104.227 119.523 105.228C119.523 106.229 119.523 107.23 119.523 108.231C119.523 109.19 119.523 110.149 119.523 111.109C119.523 113.486 120.232 115.321 121.65 116.614C123.109 117.865 125.278 118.491 128.156 118.491Z" fill="white"/>
<g filter="url(#filter1_f_112_17207)">
<path d="M46.1392 88.8365C46.1392 104.243 68.7959 141.325 80.1243 157.94C73.7993 149.254 59.5067 128.882 52.9362 116.874C44.7231 101.864 31.6955 80.6234 39.6254 72.6935C45.9692 66.3496 71.7224 64.7637 83.806 64.7637H148.378C174.15 64.7637 195.202 71.3719 202.188 74.676C202.188 74.676 171.318 69.0118 148.378 69.0118H83.806C69.0791 69.0118 46.1392 69.5782 46.1392 88.8365Z" fill="url(#paint0_radial_112_17207)"/>
</g>
<defs>
<filter id="filter0_f_112_17207" x="-13" y="-23" width="283" height="302" filterUnits="userSpaceOnUse" color-interpolation-filters="sRGB">
<feFlood flood-opacity="0" result="BackgroundImageFix"/>
<feBlend mode="normal" in="SourceGraphic" in2="BackgroundImageFix" result="shape"/>
<feGaussianBlur stdDeviation="6" result="effect1_foregroundBlur_112_17207"/>
</filter>
<filter id="filter1_f_112_17207" x="31.496" y="59.0995" width="176.356" height="104.504" filterUnits="userSpaceOnUse" color-interpolation-filters="sRGB">
<feFlood flood-opacity="0" result="BackgroundImageFix"/>
<feBlend mode="normal" in="SourceGraphic" in2="BackgroundImageFix" result="shape"/>
<feGaussianBlur stdDeviation="2.83209" result="effect1_foregroundBlur_112_17207"/>
</filter>
<radialGradient id="paint0_radial_112_17207" cx="0" cy="0" r="1" gradientUnits="userSpaceOnUse" gradientTransform="translate(37.1602 71.5607) rotate(34.3188) scale(171.795 304.273)">
<stop stop-color="white"/>
<stop offset="1" stop-color="white" stop-opacity="0"/>
</radialGradient>
</defs>
</svg>
