<svg width="256" height="256" viewBox="0 0 256 256" fill="none" xmlns="http://www.w3.org/2000/svg">
<metadata>
  <rdf:RDF xmlns:rdf="http://www.w3.org/1999/02/22-rdf-syntax-ns#"
            xmlns:dc="http://purl.org/dc/elements/1.1/">
    <rdf:Description>
      <dc:title>swrpg-online.com art asset</dc:title>
      <dc:creator>Joshua Ziggas</dc:creator>
      <dc:rights>CC BY-NC-SA 4.0 - https://github.com/swrpg-online/art</dc:rights>
    </rdf:Description>
  </rdf:RDF>
</metadata>
<desc>
  wrpg-online.com SWRPG Dice Asset
  Created by: Joshua Ziggas
  Source: https://github.com/swrpg-online/art
  License: CC BY-NC-SA 4.0
</desc><mask id="mask0_112_11414" style="mask-type:alpha" maskUnits="userSpaceOnUse" x="2" y="17" width="252" height="223">
<path d="M111.095 26.5C118.408 13.8333 136.691 13.8333 144.004 26.5L250.525 211C257.838 223.667 248.697 239.5 234.071 239.5H21.0283C6.40214 239.5 -2.73924 223.667 4.57386 211L111.095 26.5Z" fill="#D9D9D9"/>
</mask>
<g mask="url(#mask0_112_11414)">
<rect width="256" height="256" fill="#FF5502"/>
<g style="mix-blend-mode:multiply" filter="url(#filter0_f_112_11414)">
<path d="M279.337 102.182C279.369 87.9554 263.989 61.315 251.652 54.2295L126.366 -17.7263C114.029 -24.8118 113.988 -7.02832 126.293 14.284L251.252 230.719C263.556 252.031 278.977 260.888 279.01 246.661L279.337 102.182Z" fill="black" fill-opacity="0.25"/>
<path d="M100.333 317.894C112.425 324.879 142.655 324.879 154.747 317.894L277.547 246.95C289.639 239.964 274.524 231.232 250.339 231.232L4.74033 231.232C-19.4438 231.232 -34.5589 239.964 -22.4668 246.95L100.333 317.894Z" fill="black" fill-opacity="0.5"/>
<path d="M-26.4366 101.791C-26.4405 87.3471 -10.8069 60.2688 1.704 53.0503L128.757 -20.2571C141.268 -27.4757 141.273 -9.42066 128.766 12.242L1.75356 232.234C-10.7533 253.897 -26.392 262.92 -26.396 248.476L-26.4366 101.791Z" fill="black" fill-opacity="0.35"/>
</g>
</g>
<g clip-path="url(#clip0_112_11414)">
<path d="M70.4339 165.584C69.6607 164.245 70.1196 162.532 71.4588 161.759L76.037 159.116C77.3762 158.343 79.0886 158.802 79.8618 160.141L99.515 194.181C100.288 195.521 99.8294 197.233 98.4902 198.006L93.912 200.649C92.5728 201.423 90.8603 200.964 90.0871 199.624L83.1522 187.613L60.761 200.54L67.6959 212.552C68.4691 213.891 68.0102 215.604 66.671 216.377L62.0928 219.02C60.7536 219.793 59.0412 219.335 58.268 217.995L46.9497 198.391C46.1765 197.052 46.6353 195.34 47.9745 194.567L77.3688 177.596L70.4339 165.584Z" fill="white"/>
</g>
<g clip-path="url(#clip1_112_11414)">
<path d="M195.853 220.59C195.08 221.929 193.367 222.388 192.028 221.615L155.631 200.601C154.292 199.828 153.833 198.115 154.606 196.776L157.589 191.608C158.363 190.269 160.075 189.81 161.414 190.584L173.687 197.669C174.356 198.056 175.212 197.826 175.599 197.157L190.169 171.921C190.942 170.582 192.654 170.123 193.994 170.896L214.481 182.725C215.821 183.498 216.279 185.21 215.506 186.55L212.523 191.717C211.75 193.056 210.037 193.515 208.698 192.742L196.426 185.656C195.756 185.27 194.9 185.499 194.513 186.169L185.027 202.6C184.64 203.269 184.87 204.126 185.539 204.512L197.812 211.598C199.151 212.371 199.61 214.083 198.836 215.422L195.853 220.59Z" fill="white"/>
</g>
<path d="M147.399 71.046C148.946 71.046 150.199 72.2996 150.199 73.846V97.5032C150.199 99.0496 148.946 100.303 147.399 100.303H108.093C106.547 100.303 105.293 99.0496 105.293 97.5032V92.2168C105.293 90.6704 106.547 89.4168 108.093 89.4168H137.233C138.006 89.4168 138.633 88.79 138.633 88.0168V83.3324C138.633 82.5592 138.006 81.9324 137.233 81.9324H108.093C106.547 81.9324 105.293 80.6788 105.293 79.1324V73.846C105.293 72.2996 106.547 71.046 108.093 71.046H147.399ZM105.293 110.588C105.293 109.041 106.547 107.788 108.093 107.788H147.399C148.946 107.788 150.199 109.041 150.199 110.588V115.874C150.199 117.42 148.946 118.674 147.399 118.674H108.093C106.547 118.674 105.293 117.42 105.293 115.874V110.588Z" fill="white"/>
<defs>
<filter id="filter0_f_112_11414" x="-46.7227" y="-41.8732" width="348.523" height="385.006" filterUnits="userSpaceOnUse" color-interpolation-filters="sRGB">
<feFlood flood-opacity="0" result="BackgroundImageFix"/>
<feBlend mode="normal" in="SourceGraphic" in2="BackgroundImageFix" result="shape"/>
<feGaussianBlur stdDeviation="10" result="effect1_foregroundBlur_112_11414"/>
</filter>
<clipPath id="clip0_112_11414">
<rect width="70" height="70" fill="white" transform="translate(58 239.622) rotate(-120)"/>
</clipPath>
<clipPath id="clip1_112_11414">
<rect width="70" height="70" fill="white" transform="translate(232.621 179) rotate(120)"/>
</clipPath>
</defs>
</svg>
