<svg width="256" height="256" viewBox="0 0 256 256" fill="none" xmlns="http://www.w3.org/2000/svg">
<metadata>
  <rdf:RDF xmlns:rdf="http://www.w3.org/1999/02/22-rdf-syntax-ns#"
            xmlns:dc="http://purl.org/dc/elements/1.1/">
    <rdf:Description>
      <dc:title>swrpg-online.com art asset</dc:title>
      <dc:creator>Joshua Ziggas</dc:creator>
      <dc:rights>CC BY-NC-SA 4.0 - https://github.com/swrpg-online/art</dc:rights>
    </rdf:Description>
  </rdf:RDF>
</metadata>
<desc>
  wrpg-online.com SWRPG Dice Asset
  Created by: Joshua Ziggas
  Source: https://github.com/swrpg-online/art
  License: CC BY-NC-SA 4.0
</desc><mask id="mask0_112_11412" style="mask-type:alpha" maskUnits="userSpaceOnUse" x="2" y="17" width="252" height="223">
<path d="M111.095 26.5C118.408 13.8333 136.691 13.8333 144.004 26.5L250.525 211C257.838 223.667 248.697 239.5 234.071 239.5H21.0283C6.40214 239.5 -2.73924 223.667 4.57386 211L111.095 26.5Z" fill="#D9D9D9"/>
</mask>
<g mask="url(#mask0_112_11412)">
<rect width="256" height="256" fill="#FF5502"/>
<g style="mix-blend-mode:multiply" filter="url(#filter0_f_112_11412)">
<path d="M279.337 102.182C279.369 87.9554 263.989 61.315 251.652 54.2295L126.366 -17.7263C114.029 -24.8118 113.988 -7.02832 126.293 14.284L251.252 230.719C263.556 252.031 278.977 260.888 279.01 246.661L279.337 102.182Z" fill="black" fill-opacity="0.25"/>
<path d="M100.333 317.894C112.425 324.879 142.655 324.879 154.747 317.894L277.547 246.95C289.639 239.964 274.524 231.232 250.339 231.232L4.74033 231.232C-19.4438 231.232 -34.5589 239.964 -22.4668 246.95L100.333 317.894Z" fill="black" fill-opacity="0.5"/>
<path d="M-26.4366 101.791C-26.4405 87.3471 -10.8069 60.2688 1.704 53.0503L128.757 -20.2571C141.268 -27.4757 141.273 -9.42066 128.766 12.242L1.75356 232.234C-10.7533 253.897 -26.392 262.92 -26.396 248.476L-26.4366 101.791Z" fill="black" fill-opacity="0.35"/>
</g>
</g>
<g clip-path="url(#clip0_112_11412)">
<path d="M101.265 197.212C102.038 198.552 101.579 200.264 100.24 201.037L95.662 203.68C94.3228 204.454 92.6103 203.995 91.8371 202.656L77.2673 177.42C76.8807 176.75 76.0245 176.521 75.3549 176.907L55.3885 188.435C54.7189 188.822 54.4895 189.678 54.8761 190.347L69.4459 215.583C70.2191 216.922 69.7602 218.635 68.421 219.408L63.8428 222.051C62.5036 222.824 60.7912 222.366 60.018 221.026L40.3648 186.986C39.5916 185.647 40.0504 183.934 41.3896 183.161L77.787 162.147C79.1262 161.374 80.8386 161.833 81.6118 163.172L101.265 197.212ZM85.3555 206.398C86.1287 207.737 85.6698 209.449 84.3306 210.223L79.7524 212.866C78.4132 213.639 76.7007 213.18 75.9275 211.841L64.7793 192.532C64.0061 191.192 64.465 189.48 65.8042 188.707L70.3824 186.064C71.7216 185.29 73.4341 185.749 74.2072 187.088L85.3555 206.398Z" fill="white"/>
</g>
<g clip-path="url(#clip1_112_11412)">
<path d="M195.853 220.59C195.08 221.929 193.367 222.388 192.028 221.615L171.54 209.786C170.201 209.013 169.742 207.3 170.516 205.961L190.169 171.921C190.942 170.582 192.654 170.123 193.994 170.896L198.572 173.539C199.911 174.312 200.37 176.025 199.597 177.364L185.027 202.6C184.64 203.269 184.87 204.126 185.539 204.512L189.596 206.854C190.266 207.241 191.122 207.012 191.509 206.342L206.078 181.106C206.852 179.767 208.564 179.308 209.903 180.081L214.481 182.725C215.821 183.498 216.279 185.21 215.506 186.55L195.853 220.59ZM182.662 164.354C184.001 165.127 184.46 166.839 183.687 168.179L164.034 202.219C163.261 203.558 161.548 204.017 160.209 203.244L155.631 200.601C154.292 199.828 153.833 198.115 154.606 196.776L174.259 162.736C175.032 161.396 176.745 160.937 178.084 161.711L182.662 164.354Z" fill="white"/>
</g>
<path d="M147.399 71.046C148.946 71.046 150.199 72.2996 150.199 73.846V115.874C150.199 117.42 148.946 118.674 147.399 118.674H141.433C139.886 118.674 138.633 117.42 138.633 115.874V101.703C138.633 100.93 138.006 100.303 137.233 100.303H108.093C106.547 100.303 105.293 99.0496 105.293 97.5032V73.846C105.293 72.2996 106.547 71.046 108.093 71.046H114.06C115.606 71.046 116.86 72.2996 116.86 73.846V88.0168C116.86 88.79 117.487 89.4168 118.26 89.4168H137.233C138.006 89.4168 138.633 88.79 138.633 88.0168V73.846C138.633 72.2996 139.886 71.046 141.433 71.046H147.399Z" fill="white"/>
<defs>
<filter id="filter0_f_112_11412" x="-46.7227" y="-41.8732" width="348.523" height="385.006" filterUnits="userSpaceOnUse" color-interpolation-filters="sRGB">
<feFlood flood-opacity="0" result="BackgroundImageFix"/>
<feBlend mode="normal" in="SourceGraphic" in2="BackgroundImageFix" result="shape"/>
<feGaussianBlur stdDeviation="10" result="effect1_foregroundBlur_112_11412"/>
</filter>
<clipPath id="clip0_112_11412">
<rect width="70" height="70" fill="white" transform="translate(58 239.622) rotate(-120)"/>
</clipPath>
<clipPath id="clip1_112_11412">
<rect width="70" height="70" fill="white" transform="translate(232.621 179) rotate(120)"/>
</clipPath>
</defs>
</svg>
