<svg width="256" height="256" viewBox="0 0 256 256" fill="none" xmlns="http://www.w3.org/2000/svg">
<metadata>
  <rdf:RDF xmlns:rdf="http://www.w3.org/1999/02/22-rdf-syntax-ns#"
            xmlns:dc="http://purl.org/dc/elements/1.1/">
    <rdf:Description>
      <dc:title>swrpg-online.com art asset</dc:title>
      <dc:creator>Joshua Ziggas</dc:creator>
      <dc:rights>CC BY-NC-SA 4.0 - https://github.com/swrpg-online/art</dc:rights>
    </rdf:Description>
  </rdf:RDF>
</metadata>
<desc>
  wrpg-online.com SWRPG Dice Asset
  Created by: Joshua Ziggas
  Source: https://github.com/swrpg-online/art
  License: CC BY-NC-SA 4.0
</desc><mask id="mask0_112_11434" style="mask-type:alpha" maskUnits="userSpaceOnUse" x="10" y="0" width="237" height="256">
<path d="M100.601 7.4368C117.775 -2.47893 138.935 -2.47893 156.11 7.4368L218.819 43.6421C235.994 53.5579 246.574 71.8829 246.574 91.7144V164.125C246.574 183.956 235.994 202.281 218.819 212.197L156.11 248.403C138.935 258.318 117.775 258.318 100.601 248.403L37.8912 212.197C20.7167 202.281 10.1367 183.956 10.1367 164.125V91.7144C10.1367 71.8829 20.7167 53.5578 37.8912 43.6421L100.601 7.4368Z" fill="black"/>
</mask>
<g mask="url(#mask0_112_11434)">
<rect width="256" height="256" fill="#FF5502"/>
<mask id="mask1_112_11434" style="mask-type:alpha" maskUnits="userSpaceOnUse" x="10" y="0" width="237" height="256">
<path d="M100.601 7.4368C117.775 -2.47893 138.935 -2.47893 156.11 7.4368L218.819 43.6421C235.994 53.5579 246.574 71.8829 246.574 91.7144V164.125C246.574 183.956 235.994 202.281 218.819 212.197L156.11 248.403C138.935 258.318 117.775 258.318 100.601 248.403L37.8912 212.197C20.7167 202.281 10.1367 183.956 10.1367 164.125V91.7144C10.1367 71.8829 20.7167 53.5578 37.8912 43.6421L100.601 7.4368Z" fill="#9B46E0"/>
</mask>
<g mask="url(#mask1_112_11434)">
<g filter="url(#filter0_f_112_11434)">
<mask id="mask2_112_11434" style="mask-type:alpha" maskUnits="userSpaceOnUse" x="-1" y="-13" width="259" height="280">
<path fill-rule="evenodd" clip-rule="evenodd" d="M158.903 -4.86089C140.09 -15.713 116.91 -15.713 98.0969 -4.86089L29.4031 34.7635C10.5896 45.6157 -1 65.6713 -1 87.3756V166.624C-1 188.329 10.5896 208.384 29.4031 219.236L98.0969 258.861C116.91 269.713 140.09 269.713 158.903 258.861L227.597 219.236C246.41 208.384 258 188.329 258 166.624V87.3756C258 65.6713 246.41 45.6157 227.597 34.7635L158.903 -4.86089ZM110.206 232.99C118.273 246.962 138.439 246.962 146.506 232.99L228.425 91.1025C236.491 77.1308 226.408 59.6662 210.275 59.6662L46.437 59.6662C30.3039 59.6662 20.2207 77.1308 28.2873 91.1025L110.206 232.99Z" fill="#9B46E0"/>
</mask>
<g mask="url(#mask2_112_11434)">
<path d="M151.281 -6.49614C140.934 -12.5013 115.066 -12.5013 104.719 -6.49615L-0.358358 54.4884C-10.7053 60.4936 2.22836 68 22.9223 68L233.078 68C253.772 68 266.705 60.4936 256.358 54.4884L151.281 -6.49614Z" fill="black" fill-opacity="0.25"/>
<path d="M233.109 214.558C243.28 208.689 255.99 186.674 255.987 174.931L255.954 55.6755C255.951 43.9324 243.237 51.2683 233.068 68.8801L129.806 247.735C119.638 265.347 119.642 280.026 129.814 274.157L233.109 214.558Z" fill="black" fill-opacity="0.5"/>
<path d="M22.4338 216.016C11.9133 209.946 -1.233 187.176 -1.22964 175.03L-1.19553 51.6825C-1.19217 39.5365 11.9583 47.1241 22.4754 65.3402L129.28 250.332C139.797 268.548 139.793 283.73 129.273 277.66L22.4338 216.016Z" fill="black" fill-opacity="0.35"/>
</g>
</g>
</g>
</g>
<path d="M159.597 88.9892C162.115 88.9892 164.157 91.0308 164.157 93.5492V132.077C164.157 134.595 162.115 136.637 159.597 136.637H95.5834C93.065 136.637 91.0234 134.595 91.0234 132.077V123.467C91.0234 120.949 93.065 118.907 95.5834 118.907H143.039C144.299 118.907 145.319 117.887 145.319 116.627V108.998C145.319 107.739 144.299 106.718 143.039 106.718H95.5834C93.065 106.718 91.0234 104.677 91.0234 102.158V93.5492C91.0234 91.0308 93.065 88.9892 95.5834 88.9892H159.597ZM91.0234 153.386C91.0234 150.867 93.065 148.826 95.5834 148.826H159.597C162.115 148.826 164.157 150.867 164.157 153.386V161.995C164.157 164.513 162.115 166.555 159.597 166.555H95.5834C93.065 166.555 91.0234 164.513 91.0234 161.995V153.386Z" fill="white"/>
<g filter="url(#filter1_f_112_11434)">
<path d="M46.1392 88.8368C46.1392 104.243 68.7959 141.325 80.1243 157.94C73.7993 149.255 59.5067 128.883 52.9362 116.875C44.7231 101.864 31.6955 80.6237 39.6254 72.6938C45.9692 66.35 71.7224 64.764 83.806 64.764H148.378C174.15 64.764 195.202 71.3722 202.188 74.6763C202.188 74.6763 171.318 69.0121 148.378 69.0121H83.806C69.0791 69.0121 46.1392 69.5785 46.1392 88.8368Z" fill="url(#paint0_radial_112_11434)"/>
</g>
<defs>
<filter id="filter0_f_112_11434" x="-13" y="-23" width="283" height="302" filterUnits="userSpaceOnUse" color-interpolation-filters="sRGB">
<feFlood flood-opacity="0" result="BackgroundImageFix"/>
<feBlend mode="normal" in="SourceGraphic" in2="BackgroundImageFix" result="shape"/>
<feGaussianBlur stdDeviation="6" result="effect1_foregroundBlur_112_11434"/>
</filter>
<filter id="filter1_f_112_11434" x="31.496" y="59.0998" width="176.356" height="104.504" filterUnits="userSpaceOnUse" color-interpolation-filters="sRGB">
<feFlood flood-opacity="0" result="BackgroundImageFix"/>
<feBlend mode="normal" in="SourceGraphic" in2="BackgroundImageFix" result="shape"/>
<feGaussianBlur stdDeviation="2.83209" result="effect1_foregroundBlur_112_11434"/>
</filter>
<radialGradient id="paint0_radial_112_11434" cx="0" cy="0" r="1" gradientUnits="userSpaceOnUse" gradientTransform="translate(37.1602 71.561) rotate(34.3188) scale(171.795 304.273)">
<stop stop-color="white"/>
<stop offset="1" stop-color="white" stop-opacity="0"/>
</radialGradient>
</defs>
</svg>
