<svg width="256" height="256" viewBox="0 0 256 256" fill="none" xmlns="http://www.w3.org/2000/svg">
<metadata>
  <rdf:RDF xmlns:rdf="http://www.w3.org/1999/02/22-rdf-syntax-ns#"
            xmlns:dc="http://purl.org/dc/elements/1.1/">
    <rdf:Description>
      <dc:title>swrpg-online.com art asset</dc:title>
      <dc:creator>Joshua Ziggas</dc:creator>
      <dc:rights>CC BY-NC-SA 4.0 - https://github.com/swrpg-online/art</dc:rights>
    </rdf:Description>
  </rdf:RDF>
</metadata>
<desc>
  wrpg-online.com SWRPG Dice Asset
  Created by: Joshua Ziggas
  Source: https://github.com/swrpg-online/art
  License: CC BY-NC-SA 4.0
</desc><g clip-path="url(#clip0_112_8734)">
<mask id="mask0_112_8734" style="mask-type:alpha" maskUnits="userSpaceOnUse" x="-1" y="14" width="257" height="227">
<path d="M110.377 235.925C121.121 242.653 134.764 242.653 145.509 235.925L236.464 178.967C240.04 176.727 243.004 173.634 245.088 169.966C259.67 144.301 259.618 112.765 245.036 87.1008C242.989 83.498 240.089 80.4356 236.599 78.2014L145.788 20.0606C134.911 13.0962 120.975 13.0962 110.097 20.0606L19.2863 78.2014C15.7966 80.4356 12.8963 83.498 10.8493 87.1008C-3.73267 112.765 -3.78482 144.301 10.7972 169.966C12.8817 173.634 15.8452 176.727 19.4214 178.967L110.377 235.925Z" fill="#D1D1D1"/>
</mask>
<g mask="url(#mask0_112_8734)">
<rect width="256" height="256" fill="#D09D5F"/>
<g style="mix-blend-mode:multiply">
<g filter="url(#filter0_f_112_8734)">
<path fill-rule="evenodd" clip-rule="evenodd" d="M264.334 9.53796H-8.98047V246.553H264.334V9.53796ZM95.379 68.5378L95.3797 68.5361C102.708 51.0433 113.835 24.4848 126.609 24.4848C139.383 24.4848 150.51 51.0433 157.838 68.5361C158.929 71.1396 159.935 73.5423 160.851 75.6267C161.399 76.8746 162.015 78.2607 162.687 79.7697C170.672 97.7185 186.396 133.064 186.396 160.097C186.396 189.403 155.959 212.388 126.609 212.388C97.2587 212.388 66.8215 189.403 66.8215 160.097C66.8215 133.064 82.546 97.7185 90.531 79.7697L90.5311 79.7696C91.2024 78.2606 91.819 76.8745 92.367 75.6267C93.2822 73.5428 94.2886 71.1407 95.379 68.5378Z" fill="#D8D6D6"/>
</g>
<g filter="url(#filter1_f_112_8734)">
<path d="M162.457 209.278C140.502 221.501 113.787 221.501 91.8317 209.278L75.3642 200.111C70.204 197.441 57.3212 190.929 47.072 186.231C43.3907 184.544 39.4451 182.989 35.5136 181.44C25.7625 177.597 16.0985 173.788 10.7724 168.082C4.79368 161.676 2.23136 155.092 1.69754 152.601H-3.64062V256.695H257.93V152.601H252.591C252.058 155.092 249.495 161.676 243.517 168.082C238.19 173.788 228.526 177.597 218.775 181.44C214.844 182.989 210.898 184.544 207.217 186.231C196.968 190.929 184.085 197.441 178.925 200.111L162.457 209.278Z" fill="#595959"/>
</g>
<g filter="url(#filter2_f_112_8734)">
<path d="M179.436 105.141C169.728 84.5729 145.995 32.6107 151.389 26.6567C154.625 22.8678 168.11 29.3631 184.291 38.0234C200.472 46.6838 233.374 69.9585 244.161 80.784C254.949 91.6095 261.421 112.719 260.342 131.664C259.263 150.608 248.476 177.131 227.98 171.177C207.484 165.223 189.145 125.71 179.436 105.141Z" fill="#B9B9B9"/>
</g>
<g filter="url(#filter3_f_112_8734)">
<path d="M74.8488 105.141C84.5575 84.5729 108.29 32.6107 102.896 26.6567C99.6599 22.8678 86.1756 29.3631 69.9944 38.0234C53.8133 46.6838 20.9115 69.9585 10.1241 80.784C-0.663345 91.6095 -7.13581 112.719 -6.05707 131.664C-4.97832 150.608 5.80912 177.131 26.3053 171.177C46.8014 165.223 65.1401 125.71 74.8488 105.141Z" fill="#C7C7C7"/>
</g>
</g>
</g>
<path d="M128.05 188.048C119.62 188.048 113.527 186.415 109.769 183.148C106.011 179.882 104.026 174.456 103.815 166.869C103.78 164.797 103.78 163.217 103.815 162.128C103.851 161.039 103.886 160.02 103.921 159.072H120.042C119.936 159.95 119.849 161.074 119.778 162.444C119.743 163.778 119.726 165.078 119.726 166.342C119.726 167.572 119.761 168.45 119.831 168.977C120.042 170.978 120.797 172.524 122.096 173.613C123.431 174.666 125.275 175.193 127.628 175.193C130.157 175.193 132.036 174.666 133.265 173.613C134.494 172.524 135.179 170.978 135.32 168.977C135.636 165.218 135.812 162.005 135.847 159.336C135.917 156.666 135.812 154.12 135.531 151.697C135.32 149.73 134.652 148.272 133.529 147.324C132.405 146.376 130.684 145.901 128.366 145.901C126.785 145.901 125.398 146.112 124.204 146.534C123.01 146.955 122.079 147.57 121.412 148.378C120.744 149.185 120.393 150.151 120.358 151.275H105.185V102.701H150.071V116.61H121.201V138.947H123.624C124.643 137.261 126.223 135.821 128.366 134.627C130.543 133.433 133.072 132.836 135.952 132.836C140.974 132.836 144.75 134.469 147.279 137.736C149.808 141.002 151.23 145.41 151.546 150.959C151.687 152.996 151.774 154.945 151.81 156.807C151.845 158.668 151.827 160.442 151.757 162.128C151.687 163.814 151.581 165.394 151.441 166.869C150.949 171.927 149.878 176.018 148.227 179.144C146.611 182.235 144.171 184.5 140.904 185.94C137.673 187.345 133.388 188.048 128.05 188.048Z" fill="black"/>
<g filter="url(#filter4_f_112_8734)">
<path fill-rule="evenodd" clip-rule="evenodd" d="M93.2454 69.5637L93.2458 69.5629C100.574 52.5103 111.701 26.6201 124.475 26.6201C126.141 26.6201 127.779 27.0605 129.384 27.8643C117.239 29.8124 106.693 54.9551 99.6516 71.7404C98.5609 74.3406 97.5543 76.7403 96.6389 78.8222C96.0909 80.0684 95.4743 81.4527 94.803 82.9598L94.8029 82.96C86.8178 100.886 71.0933 136.188 71.0933 163.188C71.0933 176.477 77.3683 188.466 86.9673 197.594C73.8495 188.313 64.6875 174.494 64.6875 158.82C64.6875 132.467 80.412 98.0108 88.3971 80.5138L88.3977 80.5123C89.0688 79.0418 89.6852 77.6911 90.2331 76.475C91.1483 74.4433 92.1548 72.1013 93.2454 69.5637Z" fill="white"/>
</g>
</g>
<defs>
<filter id="filter0_f_112_8734" x="-18.9805" y="-0.462036" width="293.312" height="257.015" filterUnits="userSpaceOnUse" color-interpolation-filters="sRGB">
<feFlood flood-opacity="0" result="BackgroundImageFix"/>
<feBlend mode="normal" in="SourceGraphic" in2="BackgroundImageFix" result="shape"/>
<feGaussianBlur stdDeviation="5" result="effect1_foregroundBlur_112_8734"/>
</filter>
<filter id="filter1_f_112_8734" x="-13.6406" y="142.601" width="281.57" height="124.094" filterUnits="userSpaceOnUse" color-interpolation-filters="sRGB">
<feFlood flood-opacity="0" result="BackgroundImageFix"/>
<feBlend mode="normal" in="SourceGraphic" in2="BackgroundImageFix" result="shape"/>
<feGaussianBlur stdDeviation="5" result="effect1_foregroundBlur_112_8734"/>
</filter>
<filter id="filter2_f_112_8734" x="140.602" y="15.5525" width="129.859" height="166.477" filterUnits="userSpaceOnUse" color-interpolation-filters="sRGB">
<feFlood flood-opacity="0" result="BackgroundImageFix"/>
<feBlend mode="normal" in="SourceGraphic" in2="BackgroundImageFix" result="shape"/>
<feGaussianBlur stdDeviation="5" result="effect1_foregroundBlur_112_8734"/>
</filter>
<filter id="filter3_f_112_8734" x="-16.1758" y="15.5525" width="129.859" height="166.477" filterUnits="userSpaceOnUse" color-interpolation-filters="sRGB">
<feFlood flood-opacity="0" result="BackgroundImageFix"/>
<feBlend mode="normal" in="SourceGraphic" in2="BackgroundImageFix" result="shape"/>
<feGaussianBlur stdDeviation="5" result="effect1_foregroundBlur_112_8734"/>
</filter>
<filter id="filter4_f_112_8734" x="60.6875" y="22.6201" width="72.6953" height="178.974" filterUnits="userSpaceOnUse" color-interpolation-filters="sRGB">
<feFlood flood-opacity="0" result="BackgroundImageFix"/>
<feBlend mode="normal" in="SourceGraphic" in2="BackgroundImageFix" result="shape"/>
<feGaussianBlur stdDeviation="2" result="effect1_foregroundBlur_112_8734"/>
</filter>
<clipPath id="clip0_112_8734">
<rect width="256" height="256" fill="white"/>
</clipPath>
</defs>
</svg>
