<svg width="256" height="256" viewBox="0 0 256 256" fill="none" xmlns="http://www.w3.org/2000/svg">
<metadata>
  <rdf:RDF xmlns:rdf="http://www.w3.org/1999/02/22-rdf-syntax-ns#"
            xmlns:dc="http://purl.org/dc/elements/1.1/">
    <rdf:Description>
      <dc:title>swrpg-online.com art asset</dc:title>
      <dc:creator>Joshua Ziggas</dc:creator>
      <dc:rights>CC BY-NC-SA 4.0 - https://github.com/swrpg-online/art</dc:rights>
    </rdf:Description>
  </rdf:RDF>
</metadata>
<desc>
  wrpg-online.com SWRPG Dice Asset
  Created by: Joshua Ziggas
  Source: https://github.com/swrpg-online/art
  License: CC BY-NC-SA 4.0
</desc><g clip-path="url(#clip0_112_8724)">
<mask id="mask0_112_8724" style="mask-type:alpha" maskUnits="userSpaceOnUse" x="-1" y="14" width="257" height="227">
<path d="M110.377 235.925C121.121 242.653 134.764 242.653 145.509 235.925L236.464 178.967C240.04 176.727 243.004 173.634 245.088 169.966C259.67 144.301 259.618 112.765 245.036 87.1009C242.989 83.4981 240.089 80.4357 236.599 78.2015L145.788 20.0607C134.911 13.0963 120.975 13.0963 110.097 20.0607L19.2863 78.2015C15.7966 80.4357 12.8963 83.4981 10.8493 87.1009C-3.73267 112.765 -3.78482 144.301 10.7972 169.966C12.8817 173.634 15.8452 176.727 19.4214 178.967L110.377 235.925Z" fill="#D1D1D1"/>
</mask>
<g mask="url(#mask0_112_8724)">
<rect width="256" height="256" fill="#D09D5F"/>
<g style="mix-blend-mode:multiply">
<g filter="url(#filter0_f_112_8724)">
<path fill-rule="evenodd" clip-rule="evenodd" d="M264.334 9.53809H-8.98047V246.553H264.334V9.53809ZM95.379 68.538L95.3797 68.5363C102.708 51.0434 113.835 24.4849 126.609 24.4849C139.383 24.4849 150.51 51.0434 157.838 68.5363C158.929 71.1398 159.935 73.5424 160.851 75.6269C161.399 76.8747 162.015 78.2608 162.687 79.7699C170.672 97.7186 186.396 133.064 186.396 160.097C186.396 189.403 155.959 212.388 126.609 212.388C97.2587 212.388 66.8215 189.403 66.8215 160.097C66.8215 133.064 82.546 97.7186 90.531 79.7699L90.5311 79.7697C91.2024 78.2607 91.819 76.8747 92.367 75.6269C93.2822 73.5429 94.2886 71.1408 95.379 68.538Z" fill="#D8D6D6"/>
</g>
<g filter="url(#filter1_f_112_8724)">
<path d="M162.457 209.278C140.502 221.501 113.787 221.501 91.8317 209.278L75.3642 200.111C70.204 197.442 57.3212 190.929 47.072 186.232C43.3907 184.544 39.4451 182.989 35.5136 181.44C25.7625 177.597 16.0985 173.788 10.7724 168.082C4.79368 161.676 2.23136 155.092 1.69754 152.601H-3.64062V256.695H257.93V152.601H252.591C252.058 155.092 249.495 161.676 243.517 168.082C238.19 173.788 228.526 177.597 218.775 181.44C214.844 182.989 210.898 184.544 207.217 186.232C196.968 190.929 184.085 197.442 178.925 200.111L162.457 209.278Z" fill="#595959"/>
</g>
<g filter="url(#filter2_f_112_8724)">
<path d="M179.436 105.141C169.728 84.5729 145.995 32.6107 151.389 26.6567C154.625 22.8678 168.11 29.3631 184.291 38.0234C200.472 46.6838 233.374 69.9585 244.161 80.784C254.949 91.6095 261.421 112.719 260.342 131.664C259.263 150.608 248.476 177.131 227.98 171.177C207.484 165.223 189.145 125.71 179.436 105.141Z" fill="#B9B9B9"/>
</g>
<g filter="url(#filter3_f_112_8724)">
<path d="M74.8488 105.141C84.5575 84.5729 108.29 32.6107 102.896 26.6567C99.6599 22.8678 86.1756 29.3631 69.9944 38.0234C53.8133 46.6838 20.9115 69.9585 10.1241 80.784C-0.663345 91.6095 -7.13581 112.719 -6.05707 131.664C-4.97832 150.608 5.80912 177.131 26.3053 171.177C46.8014 165.223 65.1401 125.71 74.8488 105.141Z" fill="#C7C7C7"/>
</g>
</g>
</g>
<g clip-path="url(#clip1_112_8724)">
<path d="M153.919 185.512C147.019 185.512 141.695 183.804 137.95 180.387C134.237 176.936 132.298 172.04 132.134 165.699C132.002 160.934 131.92 156.235 131.887 151.602C131.854 146.969 131.854 142.385 131.887 137.851C131.953 133.316 132.035 128.831 132.134 124.395C132.298 118.021 134.253 113.141 137.999 109.757C141.778 106.372 147.084 104.68 153.919 104.68C160.688 104.68 165.945 106.372 169.691 109.757C173.437 113.141 175.409 118.021 175.606 124.395C175.737 128.273 175.836 131.986 175.901 135.534C175.967 139.083 176 142.533 176 145.885C176 149.236 175.967 152.555 175.901 155.841C175.836 159.094 175.737 162.38 175.606 165.699C175.376 172.303 173.338 177.265 169.494 180.584C165.682 183.87 160.491 185.512 153.919 185.512ZM153.919 173.486C158.125 173.486 160.326 171.909 160.524 168.755C160.786 163.3 160.951 158.108 161.016 153.179C161.115 148.218 161.115 143.19 161.016 138.097C160.951 132.971 160.786 127.451 160.524 121.536C160.425 118.316 158.223 116.706 153.919 116.706C149.549 116.706 147.314 118.349 147.216 121.635C147.051 125.808 146.92 129.784 146.821 133.563C146.756 137.342 146.723 141.071 146.723 144.751C146.723 148.431 146.756 152.21 146.821 156.087C146.92 159.965 147.051 164.089 147.216 168.459C147.314 171.81 149.549 173.486 153.919 173.486Z" fill="black"/>
<path d="M101.835 185.512C94.1457 185.512 88.6254 183.985 85.2738 180.929C81.9222 177.873 80.2136 172.796 80.1479 165.699C80.115 160.146 80.0821 155.052 80.0493 150.419C80.0164 145.786 80 141.679 80 138.097C80 134.516 80.0164 131.575 80.0493 129.275C80.0821 126.942 80.115 125.315 80.1479 124.395C80.4436 117.692 82.448 112.73 86.161 109.51C89.9069 106.29 95.0986 104.68 101.736 104.68C108.636 104.68 113.91 106.389 117.558 109.806C121.205 113.223 123.127 117.823 123.324 123.607C123.357 124.297 123.374 124.904 123.374 125.43C123.406 125.956 123.406 126.547 123.374 127.205C123.374 127.862 123.357 128.733 123.324 129.817H108.341C108.439 128.765 108.489 127.911 108.489 127.254C108.521 126.564 108.521 125.825 108.489 125.036C108.456 124.214 108.406 123.081 108.341 121.635C108.308 120.156 107.766 118.973 106.714 118.086C105.696 117.166 104.069 116.706 101.835 116.706C99.666 116.706 98.0395 117.133 96.9551 117.988C95.8708 118.842 95.2957 120.058 95.23 121.635C95.1315 124.297 95.0329 127.237 94.9343 130.458C94.8686 133.645 94.8357 137.013 94.8357 140.562H97.4973C98.4502 138.919 99.9453 137.555 101.983 136.471C104.053 135.386 106.435 134.844 109.129 134.844C114.715 134.844 118.543 136.159 120.613 138.787C122.716 141.383 123.817 145.721 123.916 151.799C123.949 153.869 123.965 155.578 123.965 156.925C123.998 158.273 123.998 159.603 123.965 160.918C123.965 162.199 123.916 163.793 123.817 165.699C123.423 172.796 121.566 177.873 118.248 180.929C114.962 183.985 109.491 185.512 101.835 185.512ZM101.933 173.486C104.168 173.486 105.843 173.059 106.961 172.205C108.111 171.317 108.702 170.069 108.735 168.459C108.801 166.717 108.85 165.14 108.883 163.727C108.916 162.281 108.949 160.918 108.981 159.636C109.014 158.355 109.031 157.106 109.031 155.89C109.031 154.675 108.998 153.442 108.932 152.194C108.899 150.518 108.259 149.253 107.01 148.399C105.794 147.511 104.2 147.068 102.229 147.068C100.027 147.068 98.253 147.495 96.9058 148.349C95.5915 149.204 94.9014 150.419 94.8357 151.997C94.8357 154.658 94.8522 157.353 94.885 160.08C94.9507 162.807 95.0329 165.534 95.1315 168.262C95.1972 169.937 95.8051 171.235 96.9551 172.155C98.1052 173.043 99.7645 173.486 101.933 173.486Z" fill="black"/>
</g>
<g filter="url(#filter4_f_112_8724)">
<path fill-rule="evenodd" clip-rule="evenodd" d="M93.2454 69.5637L93.2458 69.5629C100.574 52.5103 111.701 26.6201 124.475 26.6201C126.141 26.6201 127.779 27.0605 129.384 27.8643C117.239 29.8124 106.693 54.9551 99.6516 71.7404C98.5609 74.3406 97.5543 76.7403 96.6389 78.8222C96.0909 80.0684 95.4743 81.4527 94.803 82.9598L94.8029 82.96C86.8178 100.886 71.0933 136.188 71.0933 163.188C71.0933 176.477 77.3683 188.466 86.9673 197.594C73.8495 188.313 64.6875 174.494 64.6875 158.82C64.6875 132.467 80.412 98.0108 88.3971 80.5138L88.3977 80.5123C89.0688 79.0418 89.6852 77.6911 90.2331 76.475C91.1483 74.4433 92.1548 72.1013 93.2454 69.5637Z" fill="white"/>
</g>
</g>
<defs>
<filter id="filter0_f_112_8724" x="-18.9805" y="-0.461914" width="293.312" height="257.015" filterUnits="userSpaceOnUse" color-interpolation-filters="sRGB">
<feFlood flood-opacity="0" result="BackgroundImageFix"/>
<feBlend mode="normal" in="SourceGraphic" in2="BackgroundImageFix" result="shape"/>
<feGaussianBlur stdDeviation="5" result="effect1_foregroundBlur_112_8724"/>
</filter>
<filter id="filter1_f_112_8724" x="-13.6406" y="142.601" width="281.57" height="124.094" filterUnits="userSpaceOnUse" color-interpolation-filters="sRGB">
<feFlood flood-opacity="0" result="BackgroundImageFix"/>
<feBlend mode="normal" in="SourceGraphic" in2="BackgroundImageFix" result="shape"/>
<feGaussianBlur stdDeviation="5" result="effect1_foregroundBlur_112_8724"/>
</filter>
<filter id="filter2_f_112_8724" x="140.602" y="15.5525" width="129.859" height="166.477" filterUnits="userSpaceOnUse" color-interpolation-filters="sRGB">
<feFlood flood-opacity="0" result="BackgroundImageFix"/>
<feBlend mode="normal" in="SourceGraphic" in2="BackgroundImageFix" result="shape"/>
<feGaussianBlur stdDeviation="5" result="effect1_foregroundBlur_112_8724"/>
</filter>
<filter id="filter3_f_112_8724" x="-16.1758" y="15.5525" width="129.859" height="166.477" filterUnits="userSpaceOnUse" color-interpolation-filters="sRGB">
<feFlood flood-opacity="0" result="BackgroundImageFix"/>
<feBlend mode="normal" in="SourceGraphic" in2="BackgroundImageFix" result="shape"/>
<feGaussianBlur stdDeviation="5" result="effect1_foregroundBlur_112_8724"/>
</filter>
<filter id="filter4_f_112_8724" x="60.6875" y="22.6201" width="72.6953" height="178.974" filterUnits="userSpaceOnUse" color-interpolation-filters="sRGB">
<feFlood flood-opacity="0" result="BackgroundImageFix"/>
<feBlend mode="normal" in="SourceGraphic" in2="BackgroundImageFix" result="shape"/>
<feGaussianBlur stdDeviation="2" result="effect1_foregroundBlur_112_8724"/>
</filter>
<clipPath id="clip0_112_8724">
<rect width="256" height="256" fill="white"/>
</clipPath>
<clipPath id="clip1_112_8724">
<rect width="96" height="96" fill="white" transform="translate(80 97)"/>
</clipPath>
</defs>
</svg>
