<svg width="256" height="256" viewBox="0 0 256 256" fill="none" xmlns="http://www.w3.org/2000/svg">
<metadata>
  <rdf:RDF xmlns:rdf="http://www.w3.org/1999/02/22-rdf-syntax-ns#"
            xmlns:dc="http://purl.org/dc/elements/1.1/">
    <rdf:Description>
      <dc:title>swrpg-online.com art asset</dc:title>
      <dc:creator>Joshua Ziggas</dc:creator>
      <dc:rights>CC BY-NC-SA 4.0 - https://github.com/swrpg-online/art</dc:rights>
    </rdf:Description>
  </rdf:RDF>
</metadata>
<desc>
  wrpg-online.com SWRPG Dice Asset
  Created by: Joshua Ziggas
  Source: https://github.com/swrpg-online/art
  License: CC BY-NC-SA 4.0
</desc><g clip-path="url(#clip0_112_8730)">
<mask id="mask0_112_8730" style="mask-type:alpha" maskUnits="userSpaceOnUse" x="-1" y="14" width="257" height="227">
<path d="M110.377 235.925C121.121 242.653 134.764 242.653 145.509 235.925L236.464 178.967C240.04 176.727 243.004 173.634 245.088 169.966C259.67 144.301 259.618 112.765 245.036 87.1009C242.989 83.4981 240.089 80.4357 236.599 78.2015L145.788 20.0607C134.911 13.0963 120.975 13.0963 110.097 20.0607L19.2863 78.2015C15.7966 80.4357 12.8963 83.4981 10.8493 87.1009C-3.73267 112.765 -3.78482 144.301 10.7972 169.966C12.8817 173.634 15.8452 176.727 19.4214 178.967L110.377 235.925Z" fill="#D1D1D1"/>
</mask>
<g mask="url(#mask0_112_8730)">
<rect width="256" height="256" fill="#D09D5F"/>
<g style="mix-blend-mode:multiply">
<g filter="url(#filter0_f_112_8730)">
<path fill-rule="evenodd" clip-rule="evenodd" d="M264.334 9.53809H-8.98047V246.553H264.334V9.53809ZM95.379 68.538L95.3797 68.5363C102.708 51.0434 113.835 24.4849 126.609 24.4849C139.383 24.4849 150.51 51.0434 157.838 68.5363C158.929 71.1398 159.935 73.5424 160.851 75.6269C161.399 76.8747 162.015 78.2608 162.687 79.7699C170.672 97.7186 186.396 133.064 186.396 160.097C186.396 189.403 155.959 212.388 126.609 212.388C97.2587 212.388 66.8215 189.403 66.8215 160.097C66.8215 133.064 82.546 97.7186 90.531 79.7699L90.5311 79.7697C91.2024 78.2607 91.819 76.8747 92.367 75.6269C93.2822 73.5429 94.2886 71.1408 95.379 68.538Z" fill="#D8D6D6"/>
</g>
<g filter="url(#filter1_f_112_8730)">
<path d="M162.457 209.278C140.502 221.501 113.787 221.501 91.8317 209.278L75.3642 200.111C70.204 197.442 57.3212 190.929 47.072 186.232C43.3907 184.544 39.4451 182.989 35.5136 181.44C25.7625 177.597 16.0985 173.788 10.7724 168.082C4.79368 161.676 2.23136 155.092 1.69754 152.601H-3.64062V256.695H257.93V152.601H252.591C252.058 155.092 249.495 161.676 243.517 168.082C238.19 173.788 228.526 177.597 218.775 181.44C214.844 182.989 210.898 184.544 207.217 186.232C196.968 190.929 184.085 197.442 178.925 200.111L162.457 209.278Z" fill="#595959"/>
</g>
<g filter="url(#filter2_f_112_8730)">
<path d="M179.436 105.141C169.728 84.5729 145.995 32.6107 151.389 26.6567C154.625 22.8678 168.11 29.3631 184.291 38.0234C200.472 46.6838 233.374 69.9585 244.161 80.784C254.949 91.6095 261.421 112.719 260.342 131.664C259.263 150.608 248.476 177.131 227.98 171.177C207.484 165.223 189.145 125.71 179.436 105.141Z" fill="#B9B9B9"/>
</g>
<g filter="url(#filter3_f_112_8730)">
<path d="M74.8488 105.141C84.5575 84.5729 108.29 32.6107 102.896 26.6567C99.6599 22.8678 86.1756 29.3631 69.9944 38.0234C53.8133 46.6838 20.9115 69.9585 10.1241 80.784C-0.663345 91.6095 -7.13581 112.719 -6.05707 131.664C-4.97832 150.608 5.80912 177.131 26.3053 171.177C46.8014 165.223 65.1401 125.71 74.8488 105.141Z" fill="#C7C7C7"/>
</g>
</g>
</g>
<path d="M129.035 188.2C120.992 188.2 115.179 186.567 111.597 183.301C108.049 180.034 106.276 174.643 106.276 167.127C106.276 166.565 106.276 165.968 106.276 165.336C106.276 164.703 106.276 164.054 106.276 163.386C106.311 162.719 106.346 162.034 106.381 161.332H122.397C122.362 162.912 122.327 164.335 122.291 165.599C122.256 166.828 122.291 168.321 122.397 170.077C122.502 171.658 123.011 172.94 123.925 173.923C124.838 174.871 126.471 175.345 128.824 175.345C130.896 175.345 132.494 174.906 133.618 174.028C134.742 173.15 135.357 171.763 135.462 169.866C135.638 167.162 135.761 164.124 135.831 160.752C135.901 157.381 135.954 153.745 135.989 149.847H133.566C132.723 151.568 131.335 153.025 129.404 154.22C127.472 155.379 125.031 155.958 122.081 155.958C119.095 155.958 116.268 155.326 113.599 154.062C110.965 152.762 108.822 150.707 107.171 147.898C105.521 145.088 104.695 141.418 104.695 136.887C104.695 134.815 104.695 133.023 104.695 131.513C104.695 129.968 104.695 128.651 104.695 127.562C104.695 126.473 104.695 125.56 104.695 124.822C104.73 124.05 104.766 123.435 104.801 122.979C105.117 115.392 107.101 109.966 110.754 106.7C114.407 103.433 120.254 101.8 128.297 101.8C136.516 101.8 142.399 103.433 145.946 106.7C149.493 109.966 151.337 115.392 151.478 122.979C151.618 129.23 151.706 134.762 151.741 139.574C151.776 144.385 151.759 148.969 151.688 153.324C151.653 157.679 151.583 162.28 151.478 167.127C151.337 174.643 149.476 180.034 145.893 183.301C142.311 186.567 136.691 188.2 129.035 188.2ZM128.508 142.893C130.686 142.893 132.389 142.524 133.618 141.786C134.883 141.014 135.638 139.942 135.884 138.573C135.848 135.552 135.796 132.479 135.726 129.353C135.655 126.192 135.532 123.014 135.357 119.818C135.322 118.167 134.689 116.902 133.46 116.024C132.231 115.111 130.475 114.655 128.192 114.655C125.874 114.655 124.083 115.111 122.818 116.024C121.554 116.938 120.922 118.272 120.922 120.028C120.922 120.274 120.904 121.152 120.869 122.662C120.869 124.173 120.851 125.929 120.816 127.931C120.816 129.933 120.799 131.847 120.764 133.673C120.764 135.464 120.781 136.782 120.816 137.624C120.887 139.31 121.624 140.61 123.029 141.523C124.469 142.436 126.295 142.893 128.508 142.893Z" fill="black"/>
<g filter="url(#filter4_f_112_8730)">
<path fill-rule="evenodd" clip-rule="evenodd" d="M93.2454 69.5637L93.2458 69.5629C100.574 52.5103 111.701 26.6201 124.475 26.6201C126.141 26.6201 127.779 27.0605 129.384 27.8643C117.239 29.8124 106.693 54.9551 99.6516 71.7404C98.5609 74.3406 97.5543 76.7403 96.6389 78.8222C96.0909 80.0684 95.4743 81.4527 94.803 82.9598L94.8029 82.96C86.8178 100.886 71.0933 136.188 71.0933 163.188C71.0933 176.477 77.3683 188.466 86.9673 197.594C73.8495 188.313 64.6875 174.494 64.6875 158.82C64.6875 132.467 80.412 98.0108 88.3971 80.5138L88.3977 80.5123C89.0688 79.0418 89.6852 77.6911 90.2331 76.475C91.1483 74.4433 92.1548 72.1013 93.2454 69.5637Z" fill="white"/>
</g>
</g>
<defs>
<filter id="filter0_f_112_8730" x="-18.9805" y="-0.461914" width="293.312" height="257.015" filterUnits="userSpaceOnUse" color-interpolation-filters="sRGB">
<feFlood flood-opacity="0" result="BackgroundImageFix"/>
<feBlend mode="normal" in="SourceGraphic" in2="BackgroundImageFix" result="shape"/>
<feGaussianBlur stdDeviation="5" result="effect1_foregroundBlur_112_8730"/>
</filter>
<filter id="filter1_f_112_8730" x="-13.6406" y="142.601" width="281.57" height="124.094" filterUnits="userSpaceOnUse" color-interpolation-filters="sRGB">
<feFlood flood-opacity="0" result="BackgroundImageFix"/>
<feBlend mode="normal" in="SourceGraphic" in2="BackgroundImageFix" result="shape"/>
<feGaussianBlur stdDeviation="5" result="effect1_foregroundBlur_112_8730"/>
</filter>
<filter id="filter2_f_112_8730" x="140.602" y="15.5525" width="129.859" height="166.477" filterUnits="userSpaceOnUse" color-interpolation-filters="sRGB">
<feFlood flood-opacity="0" result="BackgroundImageFix"/>
<feBlend mode="normal" in="SourceGraphic" in2="BackgroundImageFix" result="shape"/>
<feGaussianBlur stdDeviation="5" result="effect1_foregroundBlur_112_8730"/>
</filter>
<filter id="filter3_f_112_8730" x="-16.1758" y="15.5525" width="129.859" height="166.477" filterUnits="userSpaceOnUse" color-interpolation-filters="sRGB">
<feFlood flood-opacity="0" result="BackgroundImageFix"/>
<feBlend mode="normal" in="SourceGraphic" in2="BackgroundImageFix" result="shape"/>
<feGaussianBlur stdDeviation="5" result="effect1_foregroundBlur_112_8730"/>
</filter>
<filter id="filter4_f_112_8730" x="60.6875" y="22.6201" width="72.6953" height="178.974" filterUnits="userSpaceOnUse" color-interpolation-filters="sRGB">
<feFlood flood-opacity="0" result="BackgroundImageFix"/>
<feBlend mode="normal" in="SourceGraphic" in2="BackgroundImageFix" result="shape"/>
<feGaussianBlur stdDeviation="2" result="effect1_foregroundBlur_112_8730"/>
</filter>
<clipPath id="clip0_112_8730">
<rect width="256" height="256" fill="white"/>
</clipPath>
</defs>
</svg>
