<svg width="256" height="256" viewBox="0 0 256 256" fill="none" xmlns="http://www.w3.org/2000/svg">
<metadata>
  <rdf:RDF xmlns:rdf="http://www.w3.org/1999/02/22-rdf-syntax-ns#"
            xmlns:dc="http://purl.org/dc/elements/1.1/">
    <rdf:Description>
      <dc:title>swrpg-online.com art asset</dc:title>
      <dc:creator>Joshua Ziggas</dc:creator>
      <dc:rights>CC BY-NC-SA 4.0 - https://github.com/swrpg-online/art</dc:rights>
    </rdf:Description>
  </rdf:RDF>
</metadata>
<desc>
  wrpg-online.com SWRPG Dice Asset
  Created by: Joshua Ziggas
  Source: https://github.com/swrpg-online/art
  License: CC BY-NC-SA 4.0
</desc><g clip-path="url(#clip0_112_8722)">
<mask id="mask0_112_8722" style="mask-type:alpha" maskUnits="userSpaceOnUse" x="-1" y="14" width="257" height="227">
<path d="M110.377 235.925C121.121 242.653 134.764 242.653 145.509 235.925L236.464 178.967C240.04 176.727 243.004 173.634 245.088 169.966C259.67 144.301 259.618 112.765 245.036 87.1009C242.989 83.4981 240.089 80.4357 236.599 78.2015L145.788 20.0607C134.911 13.0963 120.975 13.0963 110.097 20.0607L19.2863 78.2015C15.7966 80.4357 12.8963 83.4981 10.8493 87.1009C-3.73267 112.765 -3.78482 144.301 10.7972 169.966C12.8817 173.634 15.8452 176.727 19.4214 178.967L110.377 235.925Z" fill="#D1D1D1"/>
</mask>
<g mask="url(#mask0_112_8722)">
<rect width="256" height="256" fill="#D09D5F"/>
<g style="mix-blend-mode:multiply">
<g filter="url(#filter0_f_112_8722)">
<path fill-rule="evenodd" clip-rule="evenodd" d="M264.334 9.53809H-8.98047V246.553H264.334V9.53809ZM95.379 68.538L95.3797 68.5363C102.708 51.0434 113.835 24.4849 126.609 24.4849C139.383 24.4849 150.51 51.0434 157.838 68.5363C158.929 71.1398 159.935 73.5424 160.851 75.6269C161.399 76.8747 162.015 78.2608 162.687 79.7699C170.672 97.7186 186.396 133.064 186.396 160.097C186.396 189.403 155.959 212.388 126.609 212.388C97.2587 212.388 66.8215 189.403 66.8215 160.097C66.8215 133.064 82.546 97.7186 90.531 79.7699L90.5311 79.7697C91.2024 78.2607 91.819 76.8747 92.367 75.6269C93.2822 73.5429 94.2886 71.1408 95.379 68.538Z" fill="#D8D6D6"/>
</g>
<g filter="url(#filter1_f_112_8722)">
<path d="M162.457 209.278C140.502 221.501 113.787 221.501 91.8317 209.278L75.3642 200.111C70.204 197.442 57.3212 190.929 47.072 186.232C43.3907 184.544 39.4451 182.989 35.5136 181.44C25.7625 177.597 16.0985 173.788 10.7724 168.082C4.79368 161.676 2.23136 155.092 1.69754 152.601H-3.64062V256.695H257.93V152.601H252.591C252.058 155.092 249.495 161.676 243.517 168.082C238.19 173.788 228.526 177.597 218.775 181.44C214.844 182.989 210.898 184.544 207.217 186.232C196.968 190.929 184.085 197.442 178.925 200.111L162.457 209.278Z" fill="#595959"/>
</g>
<g filter="url(#filter2_f_112_8722)">
<path d="M179.436 105.141C169.728 84.5729 145.995 32.6107 151.389 26.6567C154.625 22.8678 168.11 29.3631 184.291 38.0234C200.472 46.6838 233.374 69.9585 244.161 80.784C254.949 91.6095 261.421 112.719 260.342 131.664C259.263 150.608 248.476 177.131 227.98 171.177C207.484 165.223 189.145 125.71 179.436 105.141Z" fill="#B9B9B9"/>
</g>
<g filter="url(#filter3_f_112_8722)">
<path d="M74.8488 105.141C84.5575 84.5729 108.29 32.6107 102.896 26.6567C99.6599 22.8678 86.1756 29.3631 69.9944 38.0234C53.8133 46.6838 20.9115 69.9585 10.1241 80.784C-0.663345 91.6095 -7.13581 112.719 -6.05707 131.664C-4.97832 150.608 5.80912 177.131 26.3053 171.177C46.8014 165.223 65.1401 125.71 74.8488 105.141Z" fill="#C7C7C7"/>
</g>
</g>
</g>
<path d="M153.897 185.594C146.989 185.594 141.661 183.883 137.911 180.462C134.195 177.009 132.254 172.108 132.09 165.76C131.958 160.991 131.876 156.287 131.843 151.649C131.81 147.012 131.81 142.423 131.843 137.884C131.909 133.345 131.991 128.855 132.09 124.415C132.254 118.034 134.211 113.15 137.961 109.762C141.743 106.374 147.055 104.68 153.897 104.68C160.672 104.68 165.935 106.374 169.685 109.762C173.434 113.15 175.408 118.034 175.605 124.415C175.737 128.296 175.836 132.013 175.901 135.565C175.967 139.118 176 142.571 176 145.926C176 149.281 175.967 152.603 175.901 155.892C175.836 159.149 175.737 162.438 175.605 165.76C175.375 172.371 173.336 177.338 169.487 180.66C165.672 183.949 160.475 185.594 153.897 185.594ZM153.897 173.555C158.107 173.555 160.311 171.976 160.508 168.819C160.771 163.359 160.936 158.162 161.001 153.228C161.1 148.261 161.1 143.229 161.001 138.131C160.936 133 160.771 127.474 160.508 121.553C160.409 118.33 158.206 116.718 153.897 116.718C149.522 116.718 147.286 118.363 147.187 121.652C147.022 125.829 146.891 129.809 146.792 133.592C146.726 137.374 146.693 141.108 146.693 144.791C146.693 148.475 146.726 152.258 146.792 156.139C146.891 160.02 147.022 164.148 147.187 168.523C147.286 171.878 149.522 173.555 153.897 173.555Z" fill="black"/>
<path d="M101.955 185.594C94.1599 185.594 88.6341 183.998 85.3778 180.808C82.1215 177.584 80.3454 172.568 80.0493 165.76C80.0164 164.773 80 164 80 163.441C80 162.849 80.0164 162.257 80.0493 161.665C80.0822 161.073 80.148 160.234 80.2467 159.149C80.6085 155.498 81.513 152.636 82.9603 150.564C84.4075 148.459 86.5619 146.814 89.4235 145.63V143.558C87.45 142.867 85.7067 141.732 84.1937 140.154C82.7136 138.575 81.7268 136.585 81.2334 134.184C81.069 133.394 80.921 132.424 80.7894 131.273C80.6907 130.089 80.6085 128.905 80.5427 127.721C80.5098 126.504 80.5098 125.435 80.5427 124.514C80.9045 117.541 82.6807 112.492 85.8712 109.367C89.0617 106.242 94.423 104.68 101.955 104.68C109.257 104.68 114.569 106.209 117.891 109.268C121.213 112.327 123.039 117.409 123.368 124.514C123.401 125.435 123.384 126.504 123.318 127.721C123.286 128.905 123.203 130.089 123.072 131.273C122.973 132.424 122.841 133.394 122.677 134.184C122.184 136.585 121.18 138.575 119.667 140.154C118.187 141.732 116.46 142.867 114.487 143.558V145.729C117.118 146.913 119.174 148.574 120.654 150.712C122.167 152.817 123.17 155.596 123.664 159.05C123.861 160.431 123.96 161.616 123.96 162.602C123.96 163.556 123.927 164.609 123.861 165.76C123.532 172.799 121.69 177.864 118.335 180.956C115.013 184.048 109.553 185.594 101.955 185.594ZM101.955 173.555C104.291 173.555 106.001 173.062 107.086 172.075C108.205 171.055 108.764 169.608 108.764 167.733C108.764 166.615 108.764 165.497 108.764 164.378C108.764 163.227 108.764 162.092 108.764 160.974C108.764 159.823 108.764 158.688 108.764 157.57C108.764 155.695 108.205 154.264 107.086 153.277C106.001 152.258 104.291 151.748 101.955 151.748C99.6528 151.748 97.9424 152.258 96.8241 153.277C95.7058 154.264 95.1466 155.695 95.1466 157.57C95.1466 159.247 95.1466 160.941 95.1466 162.652C95.1466 164.362 95.1466 166.056 95.1466 167.733C95.1466 169.608 95.7058 171.055 96.8241 172.075C97.9424 173.062 99.6528 173.555 101.955 173.555ZM101.955 137.637C104.225 137.637 105.919 137.144 107.037 136.157C108.188 135.138 108.764 133.69 108.764 131.816C108.764 130.27 108.764 128.724 108.764 127.178C108.764 125.599 108.764 124.053 108.764 122.54C108.764 120.665 108.205 119.235 107.086 118.248C106.001 117.228 104.291 116.718 101.955 116.718C99.6857 116.718 97.9753 117.228 96.8241 118.248C95.7058 119.235 95.1466 120.665 95.1466 122.54C95.1466 123.297 95.1466 124.07 95.1466 124.859C95.1466 125.616 95.1466 126.388 95.1466 127.178C95.1466 127.967 95.1466 128.757 95.1466 129.546C95.1466 130.303 95.1466 131.059 95.1466 131.816C95.1466 133.69 95.7058 135.138 96.8241 136.157C97.9753 137.144 99.6857 137.637 101.955 137.637Z" fill="black"/>
<g filter="url(#filter4_f_112_8722)">
<path fill-rule="evenodd" clip-rule="evenodd" d="M93.2454 69.5637L93.2458 69.5629C100.574 52.5103 111.701 26.6201 124.475 26.6201C126.141 26.6201 127.779 27.0605 129.384 27.8643C117.239 29.8124 106.693 54.9551 99.6516 71.7404C98.5609 74.3406 97.5543 76.7403 96.6389 78.8222C96.0909 80.0684 95.4743 81.4527 94.803 82.9598L94.8029 82.96C86.8178 100.886 71.0933 136.188 71.0933 163.188C71.0933 176.477 77.3683 188.466 86.9673 197.594C73.8495 188.313 64.6875 174.494 64.6875 158.82C64.6875 132.467 80.412 98.0108 88.3971 80.5138L88.3977 80.5123C89.0688 79.0418 89.6852 77.6911 90.2331 76.475C91.1483 74.4433 92.1548 72.1013 93.2454 69.5637Z" fill="white"/>
</g>
</g>
<defs>
<filter id="filter0_f_112_8722" x="-18.9805" y="-0.461914" width="293.312" height="257.015" filterUnits="userSpaceOnUse" color-interpolation-filters="sRGB">
<feFlood flood-opacity="0" result="BackgroundImageFix"/>
<feBlend mode="normal" in="SourceGraphic" in2="BackgroundImageFix" result="shape"/>
<feGaussianBlur stdDeviation="5" result="effect1_foregroundBlur_112_8722"/>
</filter>
<filter id="filter1_f_112_8722" x="-13.6406" y="142.601" width="281.57" height="124.094" filterUnits="userSpaceOnUse" color-interpolation-filters="sRGB">
<feFlood flood-opacity="0" result="BackgroundImageFix"/>
<feBlend mode="normal" in="SourceGraphic" in2="BackgroundImageFix" result="shape"/>
<feGaussianBlur stdDeviation="5" result="effect1_foregroundBlur_112_8722"/>
</filter>
<filter id="filter2_f_112_8722" x="140.602" y="15.5525" width="129.859" height="166.477" filterUnits="userSpaceOnUse" color-interpolation-filters="sRGB">
<feFlood flood-opacity="0" result="BackgroundImageFix"/>
<feBlend mode="normal" in="SourceGraphic" in2="BackgroundImageFix" result="shape"/>
<feGaussianBlur stdDeviation="5" result="effect1_foregroundBlur_112_8722"/>
</filter>
<filter id="filter3_f_112_8722" x="-16.1758" y="15.5525" width="129.859" height="166.477" filterUnits="userSpaceOnUse" color-interpolation-filters="sRGB">
<feFlood flood-opacity="0" result="BackgroundImageFix"/>
<feBlend mode="normal" in="SourceGraphic" in2="BackgroundImageFix" result="shape"/>
<feGaussianBlur stdDeviation="5" result="effect1_foregroundBlur_112_8722"/>
</filter>
<filter id="filter4_f_112_8722" x="60.6875" y="22.6201" width="72.6953" height="178.974" filterUnits="userSpaceOnUse" color-interpolation-filters="sRGB">
<feFlood flood-opacity="0" result="BackgroundImageFix"/>
<feBlend mode="normal" in="SourceGraphic" in2="BackgroundImageFix" result="shape"/>
<feGaussianBlur stdDeviation="2" result="effect1_foregroundBlur_112_8722"/>
</filter>
<clipPath id="clip0_112_8722">
<rect width="256" height="256" fill="white"/>
</clipPath>
</defs>
</svg>
