<svg width="256" height="256" viewBox="0 0 256 256" fill="none" xmlns="http://www.w3.org/2000/svg">
<metadata>
  <rdf:RDF xmlns:rdf="http://www.w3.org/1999/02/22-rdf-syntax-ns#"
            xmlns:dc="http://purl.org/dc/elements/1.1/">
    <rdf:Description>
      <dc:title>swrpg-online.com art asset</dc:title>
      <dc:creator>Joshua Ziggas</dc:creator>
      <dc:rights>CC BY-NC-SA 4.0 - https://github.com/swrpg-online/art</dc:rights>
    </rdf:Description>
  </rdf:RDF>
</metadata>
<desc>
  wrpg-online.com SWRPG Dice Asset
  Created by: Joshua Ziggas
  Source: https://github.com/swrpg-online/art
  License: CC BY-NC-SA 4.0
</desc><mask id="mask0_112_8692" style="mask-type:luminance" maskUnits="userSpaceOnUse" x="6" y="2" width="244" height="252">
<path d="M114.628 4.34533C123.32 1.52112 132.683 1.52111 141.375 4.34533L189.67 20.0373C198.362 22.8615 205.937 28.365 211.309 35.7589L241.157 76.841C246.529 84.2349 249.422 93.1397 249.422 102.279V153.059C249.422 162.199 246.529 171.103 241.157 178.497L211.309 219.58C205.937 226.973 198.362 232.477 189.67 235.301L141.375 250.993C132.683 253.817 123.32 253.817 114.628 250.993L66.3327 235.301C57.6407 232.477 50.0658 226.973 44.6938 219.58L14.8459 178.497C9.47394 171.103 6.5806 162.199 6.5806 153.059V102.279C6.5806 93.1397 9.47393 84.2349 14.8459 76.841L44.6938 35.7589C50.0658 28.365 57.6407 22.8615 66.3327 20.0373L114.628 4.34533Z" fill="white"/>
</mask>
<g mask="url(#mask0_112_8692)">
<rect width="256" height="256" fill="#D09D5F"/>
<g filter="url(#filter0_f_112_8692)">
<path d="M50.1016 9.81476L135.447 -6.13379V48.8249H121.261V9.81476L52.8064 23.0787L50.1016 9.81476Z" fill="url(#paint0_linear_112_8692)" fill-opacity="0.15"/>
<rect x="169.172" y="196.272" width="14.1855" height="78.0203" transform="rotate(-36 169.172 196.272)" fill="url(#paint1_linear_112_8692)" fill-opacity="0.3"/>
<path d="M-5.07812 91.241L43.0683 14.9641L61.4613 21.4558L18.1181 84.7521L55.219 96.8069L50.8355 110.298L-5.07812 91.241Z" fill="url(#paint2_linear_112_8692)" fill-opacity="0.25"/>
<rect x="205.871" y="110.298" width="14.1855" height="78.0203" transform="rotate(-108 205.871 110.298)" fill="url(#paint3_linear_112_8692)" fill-opacity="0.25"/>
<rect x="41.6797" y="259.392" width="14.1855" height="78.0203" transform="rotate(-144 41.6797 259.392)" fill="url(#paint4_linear_112_8692)" fill-opacity="0.25"/>
<path d="M173.313 205.927L209.147 252.45L126.501 268.5L46.8555 252.45L82.6888 205.927L173.313 205.927Z" fill="black" fill-opacity="0.35"/>
<path d="M216.112 108.421L272.062 88.5817L261.002 175L221.457 244.329L187.853 195.392L216.112 108.421Z" fill="black" fill-opacity="0.4"/>
<path d="M136.735 38.0622L135.156 -21.2809L210.716 14L267.643 74.9762L210.716 91.8128L136.735 38.0622Z" fill="black" fill-opacity="0.2"/>
<path d="M45.2894 91.8128L-11.6371 74.9762L45.2894 14.9998L120.849 -21.2811L119.271 38.062L45.2894 91.8128Z" fill="black" fill-opacity="0.1"/>
<path d="M68.1506 195.392L34.5469 244.329L-3.99854 172.5L-16.0586 88.5818L39.8922 108.421L68.1506 195.392Z" fill="black" fill-opacity="0.25"/>
</g>
</g>
<path d="M119.644 186.119C119.602 184.576 119.56 183.137 119.518 181.803C119.518 180.468 119.498 179.196 119.456 177.986C119.456 176.735 119.435 175.484 119.393 174.233C119.393 172.981 119.393 171.647 119.393 170.229C119.435 168.769 119.477 167.184 119.518 165.474C119.644 161.22 120.436 157.32 121.896 153.775C123.397 150.188 125.608 146.935 128.527 144.016C131.447 141.055 135.117 138.406 139.538 136.071L148.296 131.441C151.174 129.94 153.03 128.104 153.864 125.936C154.699 123.767 155.178 121.807 155.303 120.055C155.428 117.97 155.512 115.717 155.554 113.298C155.595 110.838 155.554 108.544 155.428 106.417C155.303 104.456 154.532 102.913 153.114 101.787C151.696 100.619 149.548 100.035 146.67 100.035C143.875 100.035 141.853 100.598 140.601 101.725C139.392 102.809 138.745 104.206 138.662 105.916C138.537 109.294 138.454 112.276 138.412 114.862C138.412 117.406 138.495 120.305 138.662 123.558H119.769C119.685 121.932 119.623 120.305 119.581 118.679C119.539 117.01 119.498 115.425 119.456 113.924C119.456 112.422 119.477 111.046 119.518 109.795C119.894 100.828 122.188 94.4258 126.4 90.5887C130.654 86.7099 137.411 84.7705 146.67 84.7705C153.218 84.7705 158.473 85.6255 162.435 87.3355C166.439 89.0038 169.38 91.6731 171.256 95.3433C173.133 99.0136 174.197 103.831 174.447 109.795C174.489 110.796 174.51 111.734 174.51 112.61C174.551 113.444 174.572 114.258 174.572 115.05C174.572 115.801 174.551 116.572 174.51 117.365C174.51 118.157 174.489 119.012 174.447 119.93C174.28 124.559 173.383 128.584 171.757 132.004C170.13 135.382 167.941 138.323 165.188 140.825C162.435 143.328 159.266 145.538 155.679 147.457L145.544 152.837C143.834 153.754 142.478 154.985 141.477 156.528C140.518 158.029 139.83 159.593 139.413 161.22C138.996 162.847 138.787 164.265 138.787 165.474V169.603H172.946V186.119H119.644Z" fill="black"/>
<path d="M89.8594 186.119V102.538H82.3521L81.8516 95.9063L93.8633 86.0217H109.378V186.119H89.8594Z" fill="black"/>
<g filter="url(#filter1_f_112_8692)">
<path d="M62.4943 99.4784C57.4854 104.467 54.5592 109.683 58.5102 120.454C52.2491 110.816 53.9564 100.612 58.5099 95.5101C66.6026 86.4425 90.9535 68.8659 103.475 61.4962C113.493 55.6004 126.243 46.7568 139.903 56.961C124.535 51.292 117.705 59.2286 110.875 63.1969C102.633 67.9852 68.7553 93.2425 62.4943 99.4784Z" fill="white"/>
</g>
<defs>
<filter id="filter0_f_112_8692" x="-26.878" y="-32.1004" width="317.772" height="311.42" filterUnits="userSpaceOnUse" color-interpolation-filters="sRGB">
<feFlood flood-opacity="0" result="BackgroundImageFix"/>
<feBlend mode="normal" in="SourceGraphic" in2="BackgroundImageFix" result="shape"/>
<feGaussianBlur stdDeviation="5.40971" result="effect1_foregroundBlur_112_8692"/>
</filter>
<filter id="filter1_f_112_8692" x="49.02" y="46.8815" width="96.2921" height="78.9818" filterUnits="userSpaceOnUse" color-interpolation-filters="sRGB">
<feFlood flood-opacity="0" result="BackgroundImageFix"/>
<feBlend mode="normal" in="SourceGraphic" in2="BackgroundImageFix" result="shape"/>
<feGaussianBlur stdDeviation="2.70486" result="effect1_foregroundBlur_112_8692"/>
</filter>
<linearGradient id="paint0_linear_112_8692" x1="128.354" y1="-29.1954" x2="128.354" y2="48.8249" gradientUnits="userSpaceOnUse">
<stop offset="0.40004"/>
<stop offset="0.770751" stop-opacity="0"/>
</linearGradient>
<linearGradient id="paint1_linear_112_8692" x1="176.265" y1="196.272" x2="176.278" y2="252.046" gradientUnits="userSpaceOnUse">
<stop stop-opacity="0"/>
<stop offset="0.44519"/>
</linearGradient>
<linearGradient id="paint2_linear_112_8692" x1="52.2438" y1="103.558" x2="6.82333" y2="87.4543" gradientUnits="userSpaceOnUse">
<stop offset="0.487821" stop-opacity="0"/>
<stop offset="1"/>
</linearGradient>
<linearGradient id="paint3_linear_112_8692" x1="216.762" y1="109.73" x2="217.403" y2="150.48" gradientUnits="userSpaceOnUse">
<stop stop-opacity="0"/>
<stop offset="1"/>
</linearGradient>
<linearGradient id="paint4_linear_112_8692" x1="48.7724" y1="337.412" x2="48.6801" y2="291.64" gradientUnits="userSpaceOnUse">
<stop stop-opacity="0"/>
<stop offset="0.482933"/>
</linearGradient>
</defs>
</svg>
