<svg width="256" height="256" viewBox="0 0 256 256" fill="none" xmlns="http://www.w3.org/2000/svg">
<metadata>
  <rdf:RDF xmlns:rdf="http://www.w3.org/1999/02/22-rdf-syntax-ns#"
            xmlns:dc="http://purl.org/dc/elements/1.1/">
    <rdf:Description>
      <dc:title>swrpg-online.com art asset</dc:title>
      <dc:creator>Joshua Ziggas</dc:creator>
      <dc:rights>CC BY-NC-SA 4.0 - https://github.com/swrpg-online/art</dc:rights>
    </rdf:Description>
  </rdf:RDF>
</metadata>
<desc>
  wrpg-online.com SWRPG Dice Asset
  Created by: Joshua Ziggas
  Source: https://github.com/swrpg-online/art
  License: CC BY-NC-SA 4.0
</desc><mask id="mask0_112_8695" style="mask-type:luminance" maskUnits="userSpaceOnUse" x="6" y="2" width="244" height="252">
<path d="M114.628 4.34533C123.32 1.52112 132.683 1.52111 141.375 4.34533L189.67 20.0373C198.362 22.8615 205.937 28.365 211.309 35.7589L241.157 76.841C246.529 84.2349 249.422 93.1397 249.422 102.279V153.059C249.422 162.199 246.529 171.103 241.157 178.497L211.309 219.58C205.937 226.973 198.362 232.477 189.67 235.301L141.375 250.993C132.683 253.817 123.32 253.817 114.628 250.993L66.3327 235.301C57.6407 232.477 50.0658 226.973 44.6938 219.58L14.8459 178.497C9.47394 171.103 6.5806 162.199 6.5806 153.059V102.279C6.5806 93.1397 9.47393 84.2349 14.8459 76.841L44.6938 35.7589C50.0658 28.365 57.6407 22.8615 66.3327 20.0373L114.628 4.34533Z" fill="white"/>
</mask>
<g mask="url(#mask0_112_8695)">
<rect width="256" height="256" fill="#D09D5F"/>
<g filter="url(#filter0_f_112_8695)">
<path d="M50.1016 9.81476L135.447 -6.13379V48.8249H121.261V9.81476L52.8064 23.0787L50.1016 9.81476Z" fill="url(#paint0_linear_112_8695)" fill-opacity="0.15"/>
<rect x="169.172" y="196.272" width="14.1855" height="78.0203" transform="rotate(-36 169.172 196.272)" fill="url(#paint1_linear_112_8695)" fill-opacity="0.3"/>
<path d="M-5.07812 91.241L43.0683 14.9641L61.4613 21.4558L18.1181 84.7521L55.219 96.8069L50.8355 110.298L-5.07812 91.241Z" fill="url(#paint2_linear_112_8695)" fill-opacity="0.25"/>
<rect x="205.871" y="110.298" width="14.1855" height="78.0203" transform="rotate(-108 205.871 110.298)" fill="url(#paint3_linear_112_8695)" fill-opacity="0.25"/>
<rect x="41.6797" y="259.392" width="14.1855" height="78.0203" transform="rotate(-144 41.6797 259.392)" fill="url(#paint4_linear_112_8695)" fill-opacity="0.25"/>
<path d="M173.313 205.927L209.147 252.45L126.501 268.5L46.8555 252.45L82.6888 205.927L173.313 205.927Z" fill="black" fill-opacity="0.35"/>
<path d="M216.112 108.421L272.062 88.5817L261.002 175L221.457 244.329L187.853 195.392L216.112 108.421Z" fill="black" fill-opacity="0.4"/>
<path d="M136.735 38.0622L135.156 -21.2809L210.716 14L267.643 74.9762L210.716 91.8128L136.735 38.0622Z" fill="black" fill-opacity="0.2"/>
<path d="M45.2894 91.8128L-11.6371 74.9762L45.2894 14.9998L120.849 -21.2811L119.271 38.062L45.2894 91.8128Z" fill="black" fill-opacity="0.1"/>
<path d="M68.1506 195.392L34.5469 244.329L-3.99854 172.5L-16.0586 88.5818L39.8922 108.421L68.1506 195.392Z" fill="black" fill-opacity="0.25"/>
</g>
</g>
<path d="M129.227 186.3C119.676 186.3 112.774 184.361 108.52 180.482C104.307 176.603 102.201 170.201 102.201 161.276C102.201 160.608 102.201 159.899 102.201 159.148C102.201 158.398 102.201 157.626 102.201 156.834C102.243 156.041 102.284 155.228 102.326 154.394H121.345C121.303 156.271 121.261 157.96 121.22 159.461C121.178 160.921 121.22 162.694 121.345 164.779C121.47 166.656 122.075 168.178 123.159 169.346C124.243 170.472 126.183 171.035 128.977 171.035C131.438 171.035 133.336 170.514 134.67 169.471C136.005 168.428 136.735 166.781 136.86 164.529C137.068 161.317 137.214 157.71 137.298 153.706C137.381 149.702 137.444 145.385 137.485 140.756H134.608C133.607 142.799 131.959 144.53 129.665 145.948C127.371 147.324 124.473 148.013 120.969 148.013C117.424 148.013 114.067 147.262 110.897 145.76C107.769 144.217 105.225 141.777 103.265 138.441C101.304 135.104 100.324 130.746 100.324 125.366C100.324 122.905 100.324 120.778 100.324 118.984C100.324 117.149 100.324 115.585 100.324 114.292C100.324 112.999 100.324 111.915 100.324 111.039C100.366 110.122 100.408 109.392 100.449 108.849C100.825 99.8407 103.181 93.3969 107.519 89.5181C111.856 85.6393 118.801 83.7 128.352 83.7C138.111 83.7 145.097 85.6393 149.309 89.5181C153.522 93.3969 155.712 99.8407 155.878 108.849C156.045 116.273 156.149 122.842 156.191 128.556C156.233 134.27 156.212 139.713 156.129 144.885C156.087 150.056 156.003 155.52 155.878 161.276C155.712 170.201 153.501 176.603 149.247 180.482C144.993 184.361 138.32 186.3 129.227 186.3ZM128.602 132.498C131.188 132.498 133.21 132.06 134.67 131.184C136.172 130.266 137.068 128.994 137.36 127.368C137.319 123.781 137.256 120.131 137.173 116.419C137.089 112.666 136.943 108.891 136.735 105.096C136.693 103.136 135.942 101.634 134.483 100.591C133.023 99.507 130.937 98.9648 128.226 98.9648C125.474 98.9648 123.347 99.507 121.845 100.591C120.344 101.676 119.593 103.261 119.593 105.346C119.593 105.638 119.572 106.681 119.53 108.474C119.53 110.268 119.51 112.353 119.468 114.73C119.468 117.108 119.447 119.381 119.405 121.549C119.405 123.676 119.426 125.24 119.468 126.241C119.551 128.243 120.427 129.787 122.095 130.871C123.805 131.955 125.974 132.498 128.602 132.498Z" fill="black"/>
<g filter="url(#filter1_f_112_8695)">
<path d="M62.4943 99.4784C57.4854 104.467 54.5592 109.683 58.5102 120.454C52.2491 110.816 53.9564 100.612 58.5099 95.5101C66.6026 86.4425 90.9535 68.8659 103.475 61.4962C113.493 55.6004 126.243 46.7568 139.903 56.961C124.535 51.292 117.705 59.2286 110.875 63.1969C102.633 67.9852 68.7553 93.2425 62.4943 99.4784Z" fill="white"/>
</g>
<defs>
<filter id="filter0_f_112_8695" x="-26.878" y="-32.1004" width="317.772" height="311.42" filterUnits="userSpaceOnUse" color-interpolation-filters="sRGB">
<feFlood flood-opacity="0" result="BackgroundImageFix"/>
<feBlend mode="normal" in="SourceGraphic" in2="BackgroundImageFix" result="shape"/>
<feGaussianBlur stdDeviation="5.40971" result="effect1_foregroundBlur_112_8695"/>
</filter>
<filter id="filter1_f_112_8695" x="49.02" y="46.8815" width="96.2921" height="78.9818" filterUnits="userSpaceOnUse" color-interpolation-filters="sRGB">
<feFlood flood-opacity="0" result="BackgroundImageFix"/>
<feBlend mode="normal" in="SourceGraphic" in2="BackgroundImageFix" result="shape"/>
<feGaussianBlur stdDeviation="2.70486" result="effect1_foregroundBlur_112_8695"/>
</filter>
<linearGradient id="paint0_linear_112_8695" x1="128.354" y1="-29.1954" x2="128.354" y2="48.8249" gradientUnits="userSpaceOnUse">
<stop offset="0.40004"/>
<stop offset="0.770751" stop-opacity="0"/>
</linearGradient>
<linearGradient id="paint1_linear_112_8695" x1="176.265" y1="196.272" x2="176.278" y2="252.046" gradientUnits="userSpaceOnUse">
<stop stop-opacity="0"/>
<stop offset="0.44519"/>
</linearGradient>
<linearGradient id="paint2_linear_112_8695" x1="52.2438" y1="103.558" x2="6.82333" y2="87.4543" gradientUnits="userSpaceOnUse">
<stop offset="0.487821" stop-opacity="0"/>
<stop offset="1"/>
</linearGradient>
<linearGradient id="paint3_linear_112_8695" x1="216.762" y1="109.73" x2="217.403" y2="150.48" gradientUnits="userSpaceOnUse">
<stop stop-opacity="0"/>
<stop offset="1"/>
</linearGradient>
<linearGradient id="paint4_linear_112_8695" x1="48.7724" y1="337.412" x2="48.6801" y2="291.64" gradientUnits="userSpaceOnUse">
<stop stop-opacity="0"/>
<stop offset="0.482933"/>
</linearGradient>
</defs>
</svg>
