<svg width="256" height="256" viewBox="0 0 256 256" fill="none" xmlns="http://www.w3.org/2000/svg">
<metadata>
  <rdf:RDF xmlns:rdf="http://www.w3.org/1999/02/22-rdf-syntax-ns#"
            xmlns:dc="http://purl.org/dc/elements/1.1/">
    <rdf:Description>
      <dc:title>swrpg-online.com art asset</dc:title>
      <dc:creator>Joshua Ziggas</dc:creator>
      <dc:rights>CC BY-NC-SA 4.0 - https://github.com/swrpg-online/art</dc:rights>
    </rdf:Description>
  </rdf:RDF>
</metadata>
<desc>
  wrpg-online.com SWRPG Dice Asset
  Created by: Joshua Ziggas
  Source: https://github.com/swrpg-online/art
  License: CC BY-NC-SA 4.0
</desc><mask id="mask0_112_8671" style="mask-type:alpha" maskUnits="userSpaceOnUse" x="10" y="0" width="237" height="256">
<path d="M224.91 60.2803L150.531 7.28962C136.792 -2.49863 118.338 -2.42293 104.68 7.47773L31.8161 60.296C23.7755 66.1246 18.6774 75.1707 17.8556 85.0677L10.4831 173.859C9.14473 189.977 17.8216 205.268 32.3449 212.386L112.644 251.739C122.046 256.346 133.044 256.376 142.471 251.82L224.23 212.3C238.838 205.239 247.602 189.923 246.289 173.75L239.102 85.276C238.289 75.2589 233.095 66.1118 224.91 60.2803Z" fill="#CFCFCF"/>
</mask>
<g mask="url(#mask0_112_8671)">
<rect width="256" height="256" fill="#D09D5F"/>
<g style="mix-blend-mode:multiply" filter="url(#filter0_f_112_8671)">
<mask id="mask1_112_8671" style="mask-type:alpha" maskUnits="userSpaceOnUse" x="1" y="-10" width="255" height="275">
<path fill-rule="evenodd" clip-rule="evenodd" d="M152.285 -1.73748L232.216 55.1629C241.012 61.4247 246.594 71.2467 247.468 82.0029L255.191 177.005C256.603 194.371 247.184 210.817 231.485 218.399L143.624 260.834C133.493 265.727 121.673 265.695 111.569 260.747L25.2761 218.491C9.66859 210.848 0.343989 194.429 1.78223 177.121L9.70515 81.7791C10.5883 71.152 16.067 61.4384 24.7079 55.1798L103.011 -1.53549C117.689 -12.1666 137.521 -12.2479 152.285 -1.73748ZM138.618 210.457C134.336 217.848 123.662 217.848 119.38 210.457L57.5134 103.688C53.2194 96.2777 58.5672 87.0001 67.1327 87.0001H190.865C199.431 87.0001 204.778 96.2777 200.484 103.688L138.618 210.457Z" fill="black"/>
</mask>
<g mask="url(#mask1_112_8671)">
<path d="M224.91 60.2803L150.531 7.28962C136.792 -2.49863 118.338 -2.42293 104.68 7.47773L31.8161 60.296C23.7755 66.1246 18.6774 75.1707 17.8556 85.0677L10.4831 173.859C9.14473 189.977 17.8216 205.268 32.3449 212.386L112.644 251.739C122.046 256.346 133.044 256.376 142.471 251.82L224.23 212.3C238.838 205.239 247.602 189.923 246.289 173.75L239.102 85.276C238.289 75.2589 233.095 66.1118 224.91 60.2803Z" fill="#CFCFCF"/>
<path d="M204.7 84H53.3C43.2078 84 38.1969 73.0586 45.3921 66.7329L110.15 9.80008C120.433 0.759757 136.916 0.729605 147.24 9.73224L212.575 66.704C219.815 73.0173 214.814 84 204.7 84Z" fill="#E0E0E0"/>
<path d="M51.0658 91.529L123.601 217.163C128.436 225.538 121.572 235.045 112.768 232.167L33.5336 206.263C20.952 202.15 13.0296 188.487 15.7066 175.519L32.6472 93.4499C34.5244 84.3556 46.2199 83.1358 51.0658 91.529Z" fill="#D8D8D8"/>
<path d="M206.994 88.7414L131.609 219.312C126.584 228.016 133.429 237.73 142.411 234.642L223.254 206.852C236.091 202.439 244.324 188.238 241.779 174.898L225.679 90.4738C223.895 81.1184 212.03 80.0184 206.994 88.7414Z" fill="#C1C1C1"/>
<path d="M128.484 230.5V263.061L104.345 256.908L21.7523 217.387L12.9961 206.501L15.5993 194.432C18.8336 198.455 26.6274 206.832 31.9285 208.158C38.5548 209.814 109.551 221.034 118.071 223.164C124.886 224.868 127.852 228.765 128.484 230.5Z" fill="#8D8D8D"/>
<path d="M128.485 231V263.061L152.624 256.908L235.216 217.387L243.973 206.501L241.369 194.432C238.135 198.455 230.341 206.832 225.04 208.158C218.414 209.814 147.418 221.534 138.898 223.664C132.082 225.368 129.116 229.265 128.485 231Z" fill="#737373"/>
<path d="M212.647 84.3141L243.297 64.418L250.038 88.3993L257.107 179.687L252.058 192.713L240.304 196.494C242.171 191.681 245.529 180.743 244.026 175.489C242.148 168.922 213.915 105.443 211.5 97C209.568 90.2455 211.459 85.7284 212.647 84.3141Z" fill="#828282"/>
<path d="M211.499 83.5004L243.296 64.4184L225.898 46.5901L150.375 -5.17638L136.57 -7.31643L127.419 0.9727C132.52 1.7621 143.672 4.32297 147.47 8.25119C152.218 13.1615 193.835 71.8375 199.939 78.1508C204.823 83.2013 209.681 83.8216 211.499 83.5004Z" fill="#9E9E9E"/>
<path d="M44.8504 83.8141L13.9414 64.418L7.20064 88.3993L0.130878 179.687L5.18042 192.713L16.9344 196.494C15.0674 191.681 11.7091 180.743 13.212 175.489C15.0905 168.922 43.5822 104.943 45.9974 96.5C47.9296 89.7455 46.0378 85.2284 44.8504 83.8141Z" fill="#B1B1B1"/>
<path d="M46.4385 83.85L13.9422 64.4184L31.3402 46.5901L106.863 -5.17638L120.669 -7.31643L129.819 0.9727C124.718 1.7621 113.566 4.32297 109.768 8.25119C105.02 13.1615 64.1026 72.1871 57.9983 78.5004C53.1148 83.5509 48.257 84.1712 46.4385 83.85Z" fill="#B6B6B6"/>
</g>
</g>
</g>
<g filter="url(#filter1_f_112_8671)">
<path d="M72.7423 89H122C110.497 90.3425 85.9103 93.2575 79.5869 94.1781C71.6827 95.3288 66.0919 98.2055 68.5981 106.452C70.6031 113.049 83.9568 144.233 90.383 159L61.6354 107.833C56.8952 99.3957 63.0262 89 72.7423 89Z" fill="url(#paint0_radial_112_8671)"/>
</g>
<g clip-path="url(#clip0_112_8671)">
<path d="M149.478 163.203C143.69 163.203 139.225 161.77 136.083 158.903C132.968 156.009 131.342 151.903 131.204 146.583C131.094 142.587 131.025 138.645 130.998 134.759C130.97 130.873 130.97 127.028 130.998 123.224C131.053 119.42 131.122 115.658 131.204 111.937C131.342 106.59 132.982 102.497 136.124 99.6583C139.294 96.8194 143.745 95.3999 149.478 95.3999C155.156 95.3999 159.566 96.8194 162.708 99.6583C165.85 102.497 167.504 106.59 167.669 111.937C167.78 115.19 167.862 118.304 167.917 121.281C167.972 124.258 168 127.152 168 129.963C168 132.774 167.972 135.558 167.917 138.314C167.862 141.043 167.78 143.799 167.669 146.583C167.476 152.123 165.767 156.285 162.543 159.069C159.345 161.825 154.991 163.203 149.478 163.203ZM149.478 153.115C153.006 153.115 154.853 151.792 155.018 149.146C155.239 144.571 155.376 140.216 155.432 136.082C155.514 131.92 155.514 127.703 155.432 123.431C155.376 119.131 155.239 114.501 155.018 109.539C154.935 106.838 153.089 105.488 149.478 105.488C145.812 105.488 143.938 106.866 143.855 109.622C143.718 113.122 143.607 116.457 143.525 119.627C143.47 122.797 143.442 125.925 143.442 129.012C143.442 132.099 143.47 135.269 143.525 138.521C143.607 141.773 143.718 145.232 143.855 148.898C143.938 151.71 145.812 153.115 149.478 153.115Z" fill="black"/>
<path d="M88.1654 162.376C88.1378 161.356 88.1102 160.406 88.0827 159.524C88.0827 158.642 88.0689 157.801 88.0413 157.002C88.0413 156.175 88.0276 155.348 88 154.521C88 153.694 88 152.812 88 151.875C88.0276 150.91 88.0551 149.863 88.0827 148.733C88.1654 145.922 88.6891 143.344 89.6537 141.002C90.646 138.631 92.1068 136.481 94.0361 134.552C95.9655 132.595 98.391 130.845 101.313 129.301L107.101 126.242C109.002 125.25 110.229 124.037 110.78 122.604C111.331 121.171 111.648 119.875 111.731 118.718C111.814 117.339 111.869 115.851 111.896 114.252C111.924 112.626 111.896 111.11 111.814 109.705C111.731 108.409 111.221 107.389 110.284 106.645C109.347 105.874 107.928 105.488 106.026 105.488C104.179 105.488 102.842 105.86 102.015 106.604C101.216 107.321 100.789 108.244 100.734 109.374C100.651 111.607 100.596 113.577 100.568 115.286C100.568 116.967 100.624 118.883 100.734 121.033H88.2481C88.1929 119.958 88.1516 118.883 88.124 117.808C88.0965 116.706 88.0689 115.658 88.0413 114.666C88.0413 113.674 88.0551 112.764 88.0827 111.937C88.3307 106.011 89.8467 101.781 92.6305 99.2448C95.4418 96.6815 99.9069 95.3999 106.026 95.3999C110.353 95.3999 113.826 95.9649 116.444 97.095C119.09 98.1975 121.033 99.9615 122.274 102.387C123.514 104.812 124.217 107.996 124.382 111.937C124.41 112.599 124.424 113.219 124.424 113.798C124.451 114.349 124.465 114.886 124.465 115.41C124.465 115.906 124.451 116.416 124.424 116.94C124.424 117.463 124.41 118.029 124.382 118.635C124.272 121.694 123.679 124.354 122.604 126.614C121.53 128.847 120.082 130.79 118.263 132.444C116.444 134.097 114.35 135.558 111.979 136.826L105.282 140.382C104.151 140.988 103.256 141.801 102.594 142.821C101.96 143.813 101.506 144.847 101.23 145.922C100.954 146.996 100.816 147.934 100.816 148.733V151.462H123.39V162.376H88.1654Z" fill="black"/>
</g>
<defs>
<filter id="filter0_f_112_8671" x="-8.36328" y="-17.3164" width="273.695" height="290.378" filterUnits="userSpaceOnUse" color-interpolation-filters="sRGB">
<feFlood flood-opacity="0" result="BackgroundImageFix"/>
<feBlend mode="normal" in="SourceGraphic" in2="BackgroundImageFix" result="shape"/>
<feGaussianBlur stdDeviation="5" result="effect1_foregroundBlur_112_8671"/>
</filter>
<filter id="filter1_f_112_8671" x="55" y="84" width="72" height="80" filterUnits="userSpaceOnUse" color-interpolation-filters="sRGB">
<feFlood flood-opacity="0" result="BackgroundImageFix"/>
<feBlend mode="normal" in="SourceGraphic" in2="BackgroundImageFix" result="shape"/>
<feGaussianBlur stdDeviation="2.5" result="effect1_foregroundBlur_112_8671"/>
</filter>
<radialGradient id="paint0_radial_112_8671" cx="0" cy="0" r="1" gradientUnits="userSpaceOnUse" gradientTransform="translate(68.0198 95.7123) rotate(44.0247) scale(47.1885 41.5706)">
<stop stop-color="white"/>
<stop offset="1" stop-color="white" stop-opacity="0"/>
</radialGradient>
<clipPath id="clip0_112_8671">
<rect width="80" height="80" fill="white" transform="translate(88 89)"/>
</clipPath>
</defs>
</svg>
