<svg width="256" height="256" viewBox="0 0 256 256" fill="none" xmlns="http://www.w3.org/2000/svg">
<metadata>
  <rdf:RDF xmlns:rdf="http://www.w3.org/1999/02/22-rdf-syntax-ns#"
            xmlns:dc="http://purl.org/dc/elements/1.1/">
    <rdf:Description>
      <dc:title>swrpg-online.com art asset</dc:title>
      <dc:creator>Joshua Ziggas</dc:creator>
      <dc:rights>CC BY-NC-SA 4.0 - https://github.com/swrpg-online/art</dc:rights>
    </rdf:Description>
  </rdf:RDF>
</metadata>
<desc>
  wrpg-online.com SWRPG Dice Asset
  Created by: Joshua Ziggas
  Source: https://github.com/swrpg-online/art
  License: CC BY-NC-SA 4.0
</desc><mask id="mask0_112_8680" style="mask-type:alpha" maskUnits="userSpaceOnUse" x="10" y="0" width="237" height="256">
<path d="M224.91 60.2803L150.531 7.28962C136.792 -2.49863 118.338 -2.42293 104.68 7.47773L31.8161 60.296C23.7755 66.1246 18.6774 75.1707 17.8556 85.0677L10.4831 173.859C9.14473 189.977 17.8216 205.268 32.3449 212.386L112.644 251.739C122.046 256.346 133.044 256.376 142.471 251.82L224.23 212.3C238.838 205.239 247.602 189.923 246.289 173.75L239.102 85.276C238.289 75.2589 233.095 66.1118 224.91 60.2803Z" fill="#CFCFCF"/>
</mask>
<g mask="url(#mask0_112_8680)">
<rect width="256" height="256" fill="#D09D5F"/>
<g style="mix-blend-mode:multiply" filter="url(#filter0_f_112_8680)">
<mask id="mask1_112_8680" style="mask-type:alpha" maskUnits="userSpaceOnUse" x="1" y="-10" width="255" height="275">
<path fill-rule="evenodd" clip-rule="evenodd" d="M152.285 -1.73773L232.216 55.1627C241.012 61.4244 246.594 71.2465 247.468 82.0026L255.191 177.005C256.603 194.371 247.184 210.817 231.485 218.399L143.624 260.834C133.493 265.727 121.673 265.695 111.569 260.747L25.2761 218.491C9.66859 210.848 0.343989 194.429 1.78223 177.121L9.70515 81.7789C10.5883 71.1517 16.067 61.4382 24.7079 55.1795L103.011 -1.53573C117.689 -12.1669 137.521 -12.2482 152.285 -1.73773ZM138.618 210.457C134.336 217.848 123.662 217.848 119.38 210.457L57.5134 103.688C53.2194 96.2775 58.5672 86.9999 67.1327 86.9999H190.865C199.431 86.9999 204.778 96.2775 200.484 103.688L138.618 210.457Z" fill="black"/>
</mask>
<g mask="url(#mask1_112_8680)">
<path d="M224.91 60.2803L150.531 7.28962C136.792 -2.49863 118.338 -2.42293 104.68 7.47773L31.8161 60.296C23.7755 66.1246 18.6774 75.1707 17.8556 85.0677L10.4831 173.859C9.14473 189.977 17.8216 205.268 32.3449 212.386L112.644 251.739C122.046 256.346 133.044 256.376 142.471 251.82L224.23 212.3C238.838 205.239 247.602 189.923 246.289 173.75L239.102 85.276C238.289 75.2589 233.095 66.1118 224.91 60.2803Z" fill="#CFCFCF"/>
<path d="M204.7 84H53.3C43.2078 84 38.1969 73.0586 45.3921 66.7329L110.15 9.80008C120.433 0.759757 136.916 0.729605 147.24 9.73224L212.575 66.704C219.815 73.0173 214.814 84 204.7 84Z" fill="#E0E0E0"/>
<path d="M51.0658 91.529L123.601 217.163C128.436 225.538 121.572 235.045 112.768 232.167L33.5336 206.263C20.952 202.15 13.0296 188.487 15.7066 175.519L32.6472 93.4499C34.5244 84.3556 46.2199 83.1358 51.0658 91.529Z" fill="#D8D8D8"/>
<path d="M206.994 88.7409L131.609 219.312C126.584 228.015 133.429 237.729 142.411 234.642L223.254 206.851C236.091 202.438 244.324 188.238 241.779 174.897L225.679 90.4733C223.895 81.1179 212.03 80.0179 206.994 88.7409Z" fill="#C1C1C1"/>
<path d="M128.484 230.5V263.061L104.345 256.908L21.7523 217.387L12.9961 206.501L15.5993 194.431C18.8336 198.454 26.6274 206.832 31.9285 208.157C38.5548 209.814 109.551 221.034 118.071 223.164C124.886 224.867 127.852 228.764 128.484 230.5Z" fill="#8D8D8D"/>
<path d="M128.485 231V263.061L152.624 256.908L235.216 217.387L243.973 206.501L241.369 194.431C238.135 198.454 230.341 206.832 225.04 208.157C218.414 209.814 147.418 221.534 138.898 223.664C132.082 225.367 129.116 229.264 128.485 231Z" fill="#737373"/>
<path d="M212.647 84.3141L243.297 64.418L250.038 88.3993L257.107 179.687L252.058 192.713L240.304 196.494C242.171 191.681 245.529 180.743 244.026 175.489C242.148 168.922 213.915 105.443 211.5 97C209.568 90.2455 211.459 85.7284 212.647 84.3141Z" fill="#828282"/>
<path d="M211.499 83.4999L243.296 64.4179L225.898 46.5896L150.375 -5.17687L136.57 -7.31692L127.419 0.972212C132.52 1.76162 143.672 4.32248 147.47 8.2507C152.218 13.161 193.835 71.8371 199.939 78.1503C204.823 83.2008 209.681 83.8211 211.499 83.4999Z" fill="#9E9E9E"/>
<path d="M44.8504 83.8141L13.9414 64.418L7.20064 88.3993L0.130878 179.687L5.18042 192.713L16.9344 196.494C15.0674 191.681 11.7091 180.743 13.212 175.489C15.0905 168.922 43.5822 104.943 45.9974 96.5C47.9296 89.7455 46.0378 85.2284 44.8504 83.8141Z" fill="#B1B1B1"/>
<path d="M46.4385 83.8495L13.9422 64.4179L31.3402 46.5896L106.863 -5.17687L120.669 -7.31692L129.819 0.972212C124.718 1.76162 113.566 4.32248 109.768 8.2507C105.02 13.161 64.1026 72.1867 57.9983 78.4999C53.1148 83.5504 48.257 84.1707 46.4385 83.8495Z" fill="#B6B6B6"/>
</g>
</g>
</g>
<g filter="url(#filter1_f_112_8680)">
<path d="M72.7423 89H122C110.497 90.3425 85.9103 93.2575 79.5869 94.1781C71.6827 95.3288 66.0919 98.2055 68.5981 106.452C70.6031 113.049 83.9568 144.233 90.383 159L61.6354 107.833C56.8952 99.3957 63.0262 89 72.7423 89Z" fill="url(#paint0_radial_112_8680)"/>
</g>
<path d="M136.774 164.746V106.093H131.506L131.154 101.439L139.584 94.5024H150.471V164.746H136.774Z" fill="black"/>
<path d="M111.307 164.746V106.093H106.039L105.688 101.439L114.117 94.5024H125.005V164.746H111.307Z" fill="black"/>
<defs>
<filter id="filter0_f_112_8680" x="-8.36328" y="-17.3169" width="273.695" height="290.378" filterUnits="userSpaceOnUse" color-interpolation-filters="sRGB">
<feFlood flood-opacity="0" result="BackgroundImageFix"/>
<feBlend mode="normal" in="SourceGraphic" in2="BackgroundImageFix" result="shape"/>
<feGaussianBlur stdDeviation="5" result="effect1_foregroundBlur_112_8680"/>
</filter>
<filter id="filter1_f_112_8680" x="55" y="84" width="72" height="80" filterUnits="userSpaceOnUse" color-interpolation-filters="sRGB">
<feFlood flood-opacity="0" result="BackgroundImageFix"/>
<feBlend mode="normal" in="SourceGraphic" in2="BackgroundImageFix" result="shape"/>
<feGaussianBlur stdDeviation="2.5" result="effect1_foregroundBlur_112_8680"/>
</filter>
<radialGradient id="paint0_radial_112_8680" cx="0" cy="0" r="1" gradientUnits="userSpaceOnUse" gradientTransform="translate(68.0198 95.7123) rotate(44.0247) scale(47.1885 41.5706)">
<stop stop-color="white"/>
<stop offset="1" stop-color="white" stop-opacity="0"/>
</radialGradient>
</defs>
</svg>
