<svg width="256" height="256" viewBox="0 0 256 256" fill="none" xmlns="http://www.w3.org/2000/svg">
<metadata>
  <rdf:RDF xmlns:rdf="http://www.w3.org/1999/02/22-rdf-syntax-ns#"
            xmlns:dc="http://purl.org/dc/elements/1.1/">
    <rdf:Description>
      <dc:title>swrpg-online.com art asset</dc:title>
      <dc:creator>Joshua Ziggas</dc:creator>
      <dc:rights>CC BY-NC-SA 4.0 - https://github.com/swrpg-online/art</dc:rights>
    </rdf:Description>
  </rdf:RDF>
</metadata>
<desc>
  wrpg-online.com SWRPG Dice Asset
  Created by: Joshua Ziggas
  Source: https://github.com/swrpg-online/art
  License: CC BY-NC-SA 4.0
</desc><mask id="mask0_112_8660" style="mask-type:alpha" maskUnits="userSpaceOnUse" x="2" y="17" width="252" height="223">
<path d="M111.095 26.5C118.408 13.8333 136.691 13.8333 144.004 26.5L250.525 211C257.838 223.667 248.697 239.5 234.071 239.5H21.0283C6.40214 239.5 -2.73924 223.667 4.57386 211L111.095 26.5Z" fill="#D9D9D9"/>
</mask>
<g mask="url(#mask0_112_8660)">
<rect width="256" height="256" fill="#D09D5F"/>
<g style="mix-blend-mode:multiply" filter="url(#filter0_f_112_8660)">
<path d="M279.337 102.182C279.369 87.9554 263.989 61.315 251.652 54.2295L126.366 -17.7263C114.029 -24.8118 113.988 -7.02832 126.293 14.284L251.252 230.719C263.556 252.031 278.977 260.888 279.01 246.661L279.337 102.182Z" fill="black" fill-opacity="0.25"/>
<path d="M100.333 317.894C112.425 324.879 142.655 324.879 154.747 317.894L277.547 246.95C289.639 239.964 274.524 231.232 250.339 231.232L4.74033 231.232C-19.4438 231.232 -34.5589 239.964 -22.4668 246.95L100.333 317.894Z" fill="black" fill-opacity="0.5"/>
<path d="M-26.4366 101.791C-26.4405 87.3471 -10.8069 60.2688 1.704 53.0503L128.757 -20.2571C141.268 -27.4757 141.273 -9.42066 128.766 12.242L1.75356 232.234C-10.7533 253.897 -26.392 262.92 -26.396 248.476L-26.4366 101.791Z" fill="black" fill-opacity="0.35"/>
</g>
</g>
<path d="M99.5354 211.119C99.4937 209.576 99.452 208.137 99.4103 206.803C99.4103 205.468 99.3894 204.196 99.3477 202.986C99.3477 201.735 99.3269 200.484 99.2852 199.233C99.2852 197.981 99.2852 196.647 99.2852 195.229C99.3269 193.769 99.3686 192.184 99.4103 190.474C99.5354 186.22 100.328 182.32 101.788 178.775C103.289 175.188 105.5 171.935 108.419 169.016C111.339 166.055 115.009 163.406 119.43 161.071L128.188 156.441C131.066 154.94 132.922 153.104 133.756 150.936C134.59 148.767 135.07 146.807 135.195 145.055C135.32 142.97 135.404 140.717 135.445 138.298C135.487 135.838 135.445 133.544 135.32 131.417C135.195 129.456 134.424 127.913 133.006 126.787C131.587 125.619 129.44 125.035 126.562 125.035C123.767 125.035 121.745 125.598 120.493 126.725C119.284 127.809 118.637 129.206 118.554 130.916C118.429 134.294 118.345 137.276 118.304 139.862C118.304 142.406 118.387 145.305 118.554 148.558H99.6605C99.5771 146.932 99.5145 145.305 99.4728 143.679C99.4311 142.01 99.3894 140.425 99.3477 138.924C99.3477 137.422 99.3686 136.046 99.4103 134.795C99.7856 125.828 102.08 119.426 106.292 115.589C110.546 111.71 117.303 109.771 126.562 109.771C133.11 109.771 138.365 110.626 142.327 112.336C146.331 114.004 149.271 116.673 151.148 120.343C153.025 124.014 154.089 128.831 154.339 134.795C154.381 135.796 154.401 136.734 154.401 137.61C154.443 138.444 154.464 139.258 154.464 140.05C154.464 140.801 154.443 141.572 154.401 142.365C154.401 143.157 154.381 144.012 154.339 144.93C154.172 149.559 153.275 153.584 151.649 157.004C150.022 160.382 147.832 163.323 145.08 165.825C142.327 168.328 139.157 170.538 135.571 172.457L125.436 177.837C123.726 178.754 122.37 179.985 121.369 181.528C120.41 183.029 119.722 184.593 119.305 186.22C118.888 187.847 118.679 189.265 118.679 190.474V194.603H152.837V211.119H99.5354Z" fill="black"/>
<defs>
<filter id="filter0_f_112_8660" x="-46.7227" y="-41.8732" width="348.525" height="385.006" filterUnits="userSpaceOnUse" color-interpolation-filters="sRGB">
<feFlood flood-opacity="0" result="BackgroundImageFix"/>
<feBlend mode="normal" in="SourceGraphic" in2="BackgroundImageFix" result="shape"/>
<feGaussianBlur stdDeviation="10" result="effect1_foregroundBlur_112_8660"/>
</filter>
</defs>
</svg>
