<svg width="256" height="256" viewBox="0 0 256 256" fill="none" xmlns="http://www.w3.org/2000/svg">
<metadata>
  <rdf:RDF xmlns:rdf="http://www.w3.org/1999/02/22-rdf-syntax-ns#"
            xmlns:dc="http://purl.org/dc/elements/1.1/">
    <rdf:Description>
      <dc:title>swrpg-online.com art asset</dc:title>
      <dc:creator>Joshua Ziggas</dc:creator>
      <dc:rights>CC BY-NC-SA 4.0 - https://github.com/swrpg-online/art</dc:rights>
    </rdf:Description>
  </rdf:RDF>
</metadata>
<desc>
  wrpg-online.com SWRPG Dice Asset
  Created by: Joshua Ziggas
  Source: https://github.com/swrpg-online/art
  License: CC BY-NC-SA 4.0
</desc><mask id="mask0_112_8663" style="mask-type:alpha" maskUnits="userSpaceOnUse" x="2" y="17" width="252" height="223">
<path d="M111.095 26.5C118.408 13.8333 136.691 13.8333 144.004 26.5L250.525 211C257.838 223.667 248.697 239.5 234.071 239.5H21.0283C6.40214 239.5 -2.73924 223.667 4.57386 211L111.095 26.5Z" fill="#D9D9D9"/>
</mask>
<g mask="url(#mask0_112_8663)">
<rect width="256" height="256" fill="#D09D5F"/>
<g style="mix-blend-mode:multiply" filter="url(#filter0_f_112_8663)">
<path d="M279.337 102.182C279.369 87.9554 263.989 61.315 251.652 54.2295L126.366 -17.7263C114.029 -24.8118 113.988 -7.02832 126.293 14.284L251.252 230.719C263.556 252.031 278.977 260.888 279.01 246.661L279.337 102.182Z" fill="black" fill-opacity="0.25"/>
<path d="M100.333 317.894C112.425 324.879 142.655 324.879 154.747 317.894L277.547 246.95C289.639 239.964 274.524 231.232 250.339 231.232L4.74033 231.232C-19.4438 231.232 -34.5589 239.964 -22.4668 246.95L100.333 317.894Z" fill="black" fill-opacity="0.5"/>
<path d="M-26.4366 101.791C-26.4405 87.3471 -10.8069 60.2688 1.704 53.0503L128.757 -20.2571C141.268 -27.4757 141.273 -9.42066 128.766 12.242L1.75356 232.234C-10.7533 253.897 -26.392 262.92 -26.396 248.476L-26.4366 101.791Z" fill="black" fill-opacity="0.35"/>
</g>
</g>
<g clip-path="url(#clip0_112_8663)">
<path d="M98.9149 179.331L54.4688 204.992L56.7736 208.984L53.4009 211.287L44.4567 207.934L39.6933 199.683L92.9222 168.952L98.9149 179.331Z" fill="black"/>
</g>
<g clip-path="url(#clip1_112_8663)">
<path d="M157.908 177.25L171.282 184.971L181.155 167.872L189.472 172.673L213.327 204.189L205.644 217.496L174.505 199.518L171.009 205.573L162.293 200.541L165.789 194.486L152.415 186.765L157.908 177.25ZM184.262 182.618L179.998 190.004L191.473 198.403L200.895 205.439L202.047 203.443L193.893 194.211L184.262 182.618Z" fill="black"/>
</g>
<path d="M128.085 126.389C121.939 126.389 117.496 125.198 114.756 122.816C112.015 120.435 110.568 116.478 110.415 110.946C110.389 110.024 110.364 109.32 110.338 108.834C110.338 108.347 110.338 107.86 110.338 107.374C110.364 106.887 110.389 106.183 110.415 105.261H122.17V112.483C122.17 113.943 122.656 115.07 123.629 115.863C124.603 116.632 125.985 117.016 127.778 117.016C129.622 117.016 131.005 116.632 131.927 115.863C132.874 115.07 133.361 113.968 133.387 112.56C133.438 110.87 133.463 109.371 133.463 108.065C133.489 106.759 133.463 105.517 133.387 104.339C133.31 102.956 132.862 101.727 132.042 100.651C131.248 99.5756 129.673 99.0634 127.317 99.1147L119.557 99.1915L119.25 89.511L131.159 74.2988H111.26V64.1573H144.604L144.45 73.9915L132.081 89.2037C136.306 89.5366 139.469 90.8939 141.569 93.2756C143.695 95.6573 144.885 99.4476 145.142 104.646C145.167 105.184 145.18 105.696 145.18 106.183C145.206 106.644 145.218 107.105 145.218 107.566C145.218 108.027 145.218 108.539 145.218 109.102C145.218 109.64 145.193 110.255 145.142 110.946C144.911 116.478 143.464 120.435 140.801 122.816C138.163 125.198 133.924 126.389 128.085 126.389Z" fill="black"/>
<defs>
<filter id="filter0_f_112_8663" x="-46.7227" y="-41.8732" width="348.525" height="385.006" filterUnits="userSpaceOnUse" color-interpolation-filters="sRGB">
<feFlood flood-opacity="0" result="BackgroundImageFix"/>
<feBlend mode="normal" in="SourceGraphic" in2="BackgroundImageFix" result="shape"/>
<feGaussianBlur stdDeviation="10" result="effect1_foregroundBlur_112_8663"/>
</filter>
<clipPath id="clip0_112_8663">
<rect width="70" height="70" fill="white" transform="translate(58 239.622) rotate(-120)"/>
</clipPath>
<clipPath id="clip1_112_8663">
<rect width="70" height="70" fill="white" transform="translate(232.621 179) rotate(120)"/>
</clipPath>
</defs>
</svg>
