<svg width="256" height="256" viewBox="0 0 256 256" fill="none" xmlns="http://www.w3.org/2000/svg">
<metadata>
  <rdf:RDF xmlns:rdf="http://www.w3.org/1999/02/22-rdf-syntax-ns#"
            xmlns:dc="http://purl.org/dc/elements/1.1/">
    <rdf:Description>
      <dc:title>swrpg-online.com art asset</dc:title>
      <dc:creator>Joshua Ziggas</dc:creator>
      <dc:rights>CC BY-NC-SA 4.0 - https://github.com/swrpg-online/art</dc:rights>
    </rdf:Description>
  </rdf:RDF>
</metadata>
<desc>
  wrpg-online.com SWRPG Dice Asset
  Created by: Joshua Ziggas
  Source: https://github.com/swrpg-online/art
  License: CC BY-NC-SA 4.0
</desc><mask id="mask0_112_8714" style="mask-type:alpha" maskUnits="userSpaceOnUse" x="28" y="28" width="200" height="200">
<path d="M28 52C28 38.7452 38.7452 28 52 28H128H204C217.255 28 228 38.7452 228 52V128V204C228 217.255 217.255 228 204 228H128H52C38.7452 228 28 217.255 28 204V128V52Z" fill="#7EBCD8"/>
</mask>
<g mask="url(#mask0_112_8714)">
<rect width="256" height="256" fill="#D09D5F"/>
<g style="mix-blend-mode:plus-lighter">
<rect x="28" y="28" width="200" height="200" fill="url(#paint0_linear_112_8714)"/>
</g>
<g filter="url(#filter0_f_112_8714)">
<path fill-rule="evenodd" clip-rule="evenodd" d="M239 17H17V239H239V17ZM128 228.909C183.731 228.909 228.909 183.731 228.909 128C228.909 72.2694 183.731 27.0909 128 27.0909C72.2694 27.0909 27.0909 72.2694 27.0909 128C27.0909 183.731 72.2694 228.909 128 228.909Z" fill="url(#paint1_angular_112_8714)"/>
</g>
</g>
<path d="M128.035 179.3C118.275 179.3 111.268 177.361 107.014 173.482C102.76 169.603 100.591 163.159 100.508 154.15C100.466 147.102 100.425 140.637 100.383 134.757C100.341 128.876 100.32 123.662 100.32 119.116C100.32 114.57 100.341 110.837 100.383 107.918C100.425 104.957 100.466 102.892 100.508 101.724C100.883 93.2161 103.428 86.9182 108.14 82.8309C112.895 78.7436 119.485 76.7 127.91 76.7C136.668 76.7 143.362 78.8687 147.992 83.2063C152.621 87.5439 155.061 93.3829 155.311 100.723C155.353 101.599 155.374 102.371 155.374 103.038C155.416 103.705 155.416 104.456 155.374 105.29C155.374 106.124 155.353 107.23 155.311 108.606H136.293C136.418 107.271 136.481 106.187 136.481 105.353C136.522 104.477 136.522 103.539 136.481 102.538C136.439 101.495 136.376 100.056 136.293 98.2209C136.251 96.3441 135.563 94.8426 134.228 93.7165C132.935 92.5487 130.871 91.9648 128.035 91.9648C125.282 91.9648 123.218 92.507 121.841 93.5914C120.465 94.6758 119.735 96.219 119.652 98.2209C119.527 101.599 119.401 105.332 119.276 109.419C119.193 113.465 119.151 117.74 119.151 122.244H122.529C123.739 120.159 125.637 118.428 128.223 117.052C130.85 115.675 133.874 114.987 137.294 114.987C144.384 114.987 149.243 116.656 151.871 119.992C154.54 123.287 155.937 128.792 156.062 136.508C156.104 139.136 156.125 141.305 156.125 143.015C156.166 144.725 156.166 146.414 156.125 148.082C156.125 149.709 156.062 151.731 155.937 154.15C155.437 163.159 153.08 169.603 148.868 173.482C144.697 177.361 137.753 179.3 128.035 179.3ZM128.16 164.035C130.996 164.035 133.123 163.493 134.541 162.408C136.001 161.282 136.752 159.698 136.793 157.654C136.877 155.443 136.939 153.441 136.981 151.648C137.023 149.813 137.064 148.082 137.106 146.455C137.148 144.829 137.169 143.244 137.169 141.701C137.169 140.158 137.127 138.594 137.044 137.009C137.002 134.882 136.189 133.276 134.604 132.192C133.061 131.065 131.038 130.502 128.535 130.502C125.741 130.502 123.489 131.045 121.779 132.129C120.11 133.213 119.235 134.757 119.151 136.758C119.151 140.137 119.172 143.557 119.214 147.018C119.297 150.48 119.401 153.942 119.527 157.404C119.61 159.531 120.382 161.178 121.841 162.346C123.301 163.472 125.407 164.035 128.16 164.035Z" fill="black"/>
<g filter="url(#filter1_f_112_8714)">
<path d="M54.6822 87.8174C46.6259 95.7643 46.0504 129.917 46.7697 146C42.2358 116.37 41.274 83.6569 59.7175 64.5191C77.813 45.7423 110.789 41.6971 141 47.3734C123.017 46.6638 96.4024 50.2116 86.332 57.307C76.2616 64.4024 64.7526 77.8838 54.6822 87.8174Z" fill="url(#paint2_radial_112_8714)"/>
</g>
<defs>
<filter id="filter0_f_112_8714" x="1.31818" y="1.31818" width="253.364" height="253.364" filterUnits="userSpaceOnUse" color-interpolation-filters="sRGB">
<feFlood flood-opacity="0" result="BackgroundImageFix"/>
<feBlend mode="normal" in="SourceGraphic" in2="BackgroundImageFix" result="shape"/>
<feGaussianBlur stdDeviation="7.84091" result="effect1_foregroundBlur_112_8714"/>
</filter>
<filter id="filter1_f_112_8714" x="38.3182" y="39.3182" width="108.364" height="112.364" filterUnits="userSpaceOnUse" color-interpolation-filters="sRGB">
<feFlood flood-opacity="0" result="BackgroundImageFix"/>
<feBlend mode="normal" in="SourceGraphic" in2="BackgroundImageFix" result="shape"/>
<feGaussianBlur stdDeviation="2.84091" result="effect1_foregroundBlur_112_8714"/>
</filter>
<linearGradient id="paint0_linear_112_8714" x1="28" y1="28" x2="228" y2="228" gradientUnits="userSpaceOnUse">
<stop stop-color="white" stop-opacity="0"/>
<stop offset="0.655" stop-color="white" stop-opacity="0.05"/>
</linearGradient>
<radialGradient id="paint1_angular_112_8714" cx="0" cy="0" r="1" gradientUnits="userSpaceOnUse" gradientTransform="translate(128 128) rotate(45) scale(141.588)">
<stop stop-opacity="0.5"/>
<stop offset="0.253046" stop-opacity="0.35"/>
<stop offset="0.502899" stop-opacity="0.15"/>
<stop offset="0.753407" stop-opacity="0.25"/>
<stop offset="1" stop-opacity="0.5"/>
</radialGradient>
<radialGradient id="paint2_radial_112_8714" cx="0" cy="0" r="1" gradientUnits="userSpaceOnUse" gradientTransform="translate(66.2988 67.2406) scale(67.6157 63.1855)">
<stop offset="0.29" stop-color="white"/>
<stop offset="0.415" stop-color="white" stop-opacity="0.5"/>
<stop offset="1" stop-color="white" stop-opacity="0"/>
</radialGradient>
</defs>
</svg>
