<svg width="256" height="256" viewBox="0 0 256 256" fill="none" xmlns="http://www.w3.org/2000/svg">
<metadata>
  <rdf:RDF xmlns:rdf="http://www.w3.org/1999/02/22-rdf-syntax-ns#"
            xmlns:dc="http://purl.org/dc/elements/1.1/">
    <rdf:Description>
      <dc:title>swrpg-online.com art asset</dc:title>
      <dc:creator>Joshua Ziggas</dc:creator>
      <dc:rights>CC BY-NC-SA 4.0 - https://github.com/swrpg-online/art</dc:rights>
    </rdf:Description>
  </rdf:RDF>
</metadata>
<desc>
  wrpg-online.com SWRPG Dice Asset
  Created by: Joshua Ziggas
  Source: https://github.com/swrpg-online/art
  License: CC BY-NC-SA 4.0
</desc><mask id="mask0_112_8575" style="mask-type:alpha" maskUnits="userSpaceOnUse" x="2" y="17" width="252" height="223">
<path d="M111.095 26.5C118.408 13.8333 136.691 13.8333 144.004 26.5L250.525 211C257.838 223.667 248.697 239.5 234.071 239.5H21.0283C6.40214 239.5 -2.73924 223.667 4.57386 211L111.095 26.5Z" fill="#D9D9D9"/>
</mask>
<g mask="url(#mask0_112_8575)">
<rect width="256" height="256" fill="#D09D5F"/>
<g style="mix-blend-mode:multiply" filter="url(#filter0_f_112_8575)">
<path d="M279.337 102.182C279.369 87.9554 263.989 61.315 251.652 54.2295L126.366 -17.7263C114.029 -24.8118 113.988 -7.02832 126.293 14.284L251.252 230.719C263.556 252.031 278.977 260.888 279.01 246.661L279.337 102.182Z" fill="black" fill-opacity="0.25"/>
<path d="M100.333 317.894C112.425 324.879 142.655 324.879 154.747 317.894L277.547 246.95C289.639 239.964 274.524 231.232 250.339 231.232L4.74033 231.232C-19.4438 231.232 -34.5589 239.964 -22.4668 246.95L100.333 317.894Z" fill="black" fill-opacity="0.5"/>
<path d="M-26.4366 101.791C-26.4405 87.3471 -10.8069 60.2688 1.704 53.0503L128.757 -20.2571C141.268 -27.4757 141.273 -9.42066 128.766 12.242L1.75356 232.234C-10.7533 253.897 -26.392 262.92 -26.396 248.476L-26.4366 101.791Z" fill="black" fill-opacity="0.35"/>
</g>
</g>
<g clip-path="url(#clip0_112_8575)">
<path d="M166.765 116.301C166.102 115.153 166.496 113.685 167.644 113.023L171.568 110.757C172.716 110.094 174.183 110.488 174.846 111.636L191.692 140.813C192.354 141.961 191.961 143.429 190.813 144.091L186.889 146.357C185.741 147.02 184.273 146.627 183.611 145.479L177.666 135.183L158.474 146.264L164.418 156.559C165.081 157.707 164.688 159.175 163.54 159.838L159.616 162.103C158.468 162.766 157 162.373 156.337 161.225L146.636 144.422C145.973 143.274 146.366 141.806 147.514 141.143L172.709 126.597L166.765 116.301Z" fill="black"/>
</g>
<g clip-path="url(#clip1_112_8575)">
<path d="M98.4466 162.991C97.7838 164.139 96.316 164.532 95.1681 163.87L63.9704 145.858C62.8225 145.195 62.4292 143.727 63.092 142.579L65.6492 138.15C66.3119 137.002 67.7797 136.609 68.9276 137.271L79.4467 143.345C80.0207 143.676 80.7546 143.479 81.0859 142.905L93.5743 121.275C94.2371 120.127 95.7049 119.734 96.8528 120.396L114.414 130.535C115.562 131.198 115.955 132.666 115.292 133.814L112.735 138.243C112.072 139.391 110.604 139.784 109.457 139.121L98.9374 133.048C98.3635 132.717 97.6296 132.913 97.2982 133.487L89.167 147.571C88.8356 148.145 89.0323 148.879 89.6062 149.21L100.125 155.283C101.273 155.946 101.667 157.414 101.004 158.562L98.4466 162.991Z" fill="black"/>
</g>
<path d="M108.939 222.53C107.614 222.53 106.539 221.472 106.539 220.166V215.704C106.539 214.398 107.614 213.34 108.939 213.34H133.916C134.579 213.34 135.116 212.811 135.116 212.158V192.696C135.116 192.044 134.579 191.514 133.916 191.514H108.939C107.614 191.514 106.539 190.456 106.539 189.151V184.688C106.539 183.383 107.614 182.325 108.939 182.325H142.63C143.956 182.325 145.03 183.383 145.03 184.688V220.166C145.03 221.472 143.956 222.53 142.63 222.53H108.939ZM108.939 207.022C107.614 207.022 106.539 205.964 106.539 204.659V200.196C106.539 198.891 107.614 197.832 108.939 197.832H128.05C129.376 197.832 130.45 198.891 130.45 200.196V204.659C130.45 205.964 129.376 207.022 128.05 207.022H108.939Z" fill="black"/>
<defs>
<filter id="filter0_f_112_8575" x="-46.7227" y="-41.8732" width="348.525" height="385.006" filterUnits="userSpaceOnUse" color-interpolation-filters="sRGB">
<feFlood flood-opacity="0" result="BackgroundImageFix"/>
<feBlend mode="normal" in="SourceGraphic" in2="BackgroundImageFix" result="shape"/>
<feGaussianBlur stdDeviation="10" result="effect1_foregroundBlur_112_8575"/>
</filter>
<clipPath id="clip0_112_8575">
<rect width="60" height="60" fill="white" transform="translate(156.107 179.762) rotate(-120)"/>
</clipPath>
<clipPath id="clip1_112_8575">
<rect width="60" height="60" fill="white" transform="translate(129.961 127.343) rotate(120)"/>
</clipPath>
</defs>
</svg>
