<svg width="256" height="256" viewBox="0 0 256 256" fill="none" xmlns="http://www.w3.org/2000/svg">
<metadata>
  <rdf:RDF xmlns:rdf="http://www.w3.org/1999/02/22-rdf-syntax-ns#"
            xmlns:dc="http://purl.org/dc/elements/1.1/">
    <rdf:Description>
      <dc:title>swrpg-online.com art asset</dc:title>
      <dc:creator>Joshua Ziggas</dc:creator>
      <dc:rights>CC BY-NC-SA 4.0 - https://github.com/swrpg-online/art</dc:rights>
    </rdf:Description>
  </rdf:RDF>
</metadata>
<desc>
  wrpg-online.com SWRPG Dice Asset
  Created by: Joshua Ziggas
  Source: https://github.com/swrpg-online/art
  License: CC BY-NC-SA 4.0
</desc><g clip-path="url(#clip0_112_25741)">
<mask id="mask0_112_25741" style="mask-type:alpha" maskUnits="userSpaceOnUse" x="-1" y="14" width="257" height="227">
<path d="M110.377 235.925C121.121 242.654 134.764 242.654 145.509 235.925L236.464 178.967C240.04 176.728 243.004 173.635 245.088 169.966C259.67 144.302 259.618 112.766 245.036 87.1014C242.989 83.4986 240.089 80.4362 236.599 78.202L145.788 20.0612C134.911 13.0968 120.975 13.0968 110.097 20.0612L19.2863 78.202C15.7966 80.4362 12.8963 83.4986 10.8493 87.1014C-3.73267 112.766 -3.78482 144.302 10.7972 169.966C12.8817 173.635 15.8452 176.728 19.4214 178.967L110.377 235.925Z" fill="#D1D1D1"/>
</mask>
<g mask="url(#mask0_112_25741)">
<rect width="256" height="256" fill="#FF1920"/>
<g style="mix-blend-mode:multiply">
<g filter="url(#filter0_f_112_25741)">
<path fill-rule="evenodd" clip-rule="evenodd" d="M264.334 9.53906H-8.98047V246.554H264.334V9.53906ZM95.379 68.5389L95.3797 68.5372C102.708 51.0444 113.835 24.4859 126.609 24.4859C139.383 24.4859 150.51 51.0444 157.838 68.5372C158.929 71.1407 159.935 73.5434 160.851 75.6278C161.399 76.8757 162.015 78.2618 162.687 79.7708C170.672 97.7196 186.396 133.065 186.396 160.098C186.396 189.404 155.959 212.389 126.609 212.389C97.2587 212.389 66.8215 189.404 66.8215 160.098C66.8215 133.065 82.546 97.7196 90.531 79.7708L90.5311 79.7707C91.2024 78.2617 91.819 76.8756 92.367 75.6278C93.2822 73.5439 94.2886 71.1418 95.379 68.5389Z" fill="#D8D6D6"/>
</g>
<g filter="url(#filter1_f_112_25741)">
<path d="M162.457 209.279C140.502 221.501 113.787 221.501 91.8317 209.279L75.3642 200.111C70.204 197.442 57.3212 190.93 47.072 186.232C43.3907 184.545 39.4451 182.99 35.5136 181.44C25.7625 177.597 16.0985 173.789 10.7724 168.082C4.79368 161.676 2.23136 155.093 1.69754 152.602H-3.64062V256.696H257.93V152.602H252.591C252.058 155.093 249.495 161.676 243.517 168.082C238.19 173.789 228.526 177.597 218.775 181.44C214.844 182.99 210.898 184.545 207.217 186.232C196.968 190.93 184.085 197.442 178.925 200.111L162.457 209.279Z" fill="#595959"/>
</g>
<g filter="url(#filter2_f_112_25741)">
<path d="M179.436 105.142C169.728 84.5731 145.995 32.6109 151.389 26.6569C154.625 22.868 168.11 29.3633 184.291 38.0237C200.472 46.684 233.374 69.9588 244.161 80.7842C254.949 91.6097 261.421 112.719 260.342 131.664C259.263 150.608 248.476 177.131 227.98 171.177C207.484 165.223 189.145 125.71 179.436 105.142Z" fill="#B9B9B9"/>
</g>
<g filter="url(#filter3_f_112_25741)">
<path d="M74.8488 105.142C84.5575 84.5731 108.29 32.6109 102.896 26.6569C99.6599 22.868 86.1756 29.3633 69.9944 38.0237C53.8133 46.684 20.9115 69.9588 10.1241 80.7842C-0.663345 91.6097 -7.13581 112.719 -6.05707 131.664C-4.97832 150.608 5.80912 177.131 26.3053 171.177C46.8014 165.223 65.1401 125.71 74.8488 105.142Z" fill="#C7C7C7"/>
</g>
</g>
</g>
<g clip-path="url(#clip1_112_25741)">
<path d="M154.111 184.809C147.271 184.809 141.994 183.116 138.28 179.728C134.6 176.308 132.678 171.454 132.515 165.168C132.385 160.445 132.303 155.787 132.271 151.194C132.238 146.601 132.238 142.057 132.271 137.562C132.336 133.067 132.417 128.621 132.515 124.224C132.678 117.904 134.616 113.067 138.329 109.712C142.075 106.357 147.336 104.68 154.111 104.68C160.821 104.68 166.033 106.357 169.746 109.712C173.459 113.067 175.414 117.904 175.609 124.224C175.739 128.067 175.837 131.748 175.902 135.266C175.967 138.784 176 142.204 176 145.526C176 148.849 175.967 152.139 175.902 155.396C175.837 158.621 175.739 161.878 175.609 165.168C175.381 171.715 173.362 176.634 169.551 179.923C165.772 183.181 160.626 184.809 154.111 184.809ZM154.111 172.888C158.28 172.888 160.463 171.324 160.658 168.197C160.919 162.79 161.082 157.644 161.147 152.758C161.244 147.839 161.244 142.855 161.147 137.807C161.082 132.725 160.919 127.253 160.658 121.39C160.56 118.198 158.378 116.601 154.111 116.601C149.779 116.601 147.564 118.23 147.466 121.487C147.303 125.624 147.173 129.566 147.075 133.311C147.01 137.057 146.977 140.754 146.977 144.403C146.977 148.051 147.01 151.797 147.075 155.64C147.173 159.484 147.303 163.572 147.466 167.904C147.564 171.226 149.779 172.888 154.111 172.888Z" fill="white"/>
<path d="M102.5 184.809C94.6823 184.809 89.0309 183.295 85.5456 180.266C82.0602 177.236 80.2199 172.204 80.0244 165.168C79.9919 163.246 79.9919 161.78 80.0244 160.771C80.057 159.761 80.0896 158.816 80.1221 157.937H95.0732C94.9755 158.751 94.894 159.793 94.8289 161.064C94.7963 162.301 94.78 163.507 94.78 164.679C94.78 165.819 94.8126 166.634 94.8778 167.122C95.0732 168.979 95.7735 170.412 96.9787 171.422C98.2165 172.399 99.9266 172.888 102.109 172.888C104.454 172.888 106.197 172.399 107.337 171.422C108.477 170.412 109.112 168.979 109.242 167.122C109.536 163.637 109.699 160.657 109.731 158.181C109.796 155.705 109.699 153.344 109.438 151.096C109.242 149.272 108.624 147.92 107.581 147.041C106.539 146.162 104.943 145.722 102.793 145.722C101.327 145.722 100.041 145.917 98.9331 146.308C97.8256 146.699 96.9624 147.269 96.3435 148.018C95.7247 148.767 95.3989 149.663 95.3663 150.705H81.2948V105.657H122.923V118.556H96.1481V139.272H98.3956C99.3403 137.709 100.806 136.373 102.793 135.266C104.813 134.158 107.158 133.605 109.829 133.605C114.487 133.605 117.988 135.119 120.334 138.149C122.679 141.178 123.998 145.266 124.291 150.412C124.422 152.302 124.503 154.109 124.536 155.836C124.568 157.562 124.552 159.207 124.487 160.771C124.422 162.334 124.324 163.8 124.194 165.168C123.737 169.858 122.744 173.653 121.213 176.552C119.715 179.419 117.451 181.52 114.422 182.855C111.425 184.158 107.451 184.809 102.5 184.809Z" fill="white"/>
</g>
<g filter="url(#filter4_f_112_25741)">
<path fill-rule="evenodd" clip-rule="evenodd" d="M93.2454 69.5646L93.2458 69.5638C100.574 52.5112 111.701 26.6211 124.475 26.6211C126.141 26.6211 127.779 27.0615 129.384 27.8653C117.239 29.8134 106.693 54.9561 99.6516 71.7413C98.5609 74.3416 97.5543 76.7413 96.6389 78.8231C96.0909 80.0694 95.4743 81.4537 94.803 82.9608L94.8029 82.961C86.8178 100.887 71.0933 136.189 71.0933 163.188C71.0933 176.478 77.3683 188.467 86.9673 197.595C73.8495 188.314 64.6875 174.495 64.6875 158.821C64.6875 132.468 80.412 98.0118 88.3971 80.5147L88.3977 80.5133C89.0688 79.0427 89.6852 77.692 90.2331 76.476C91.1483 74.4442 92.1548 72.1023 93.2454 69.5646Z" fill="white"/>
</g>
</g>
<defs>
<filter id="filter0_f_112_25741" x="-18.9805" y="-0.460938" width="293.312" height="257.014" filterUnits="userSpaceOnUse" color-interpolation-filters="sRGB">
<feFlood flood-opacity="0" result="BackgroundImageFix"/>
<feBlend mode="normal" in="SourceGraphic" in2="BackgroundImageFix" result="shape"/>
<feGaussianBlur stdDeviation="5" result="effect1_foregroundBlur_112_25741"/>
</filter>
<filter id="filter1_f_112_25741" x="-13.6406" y="142.602" width="281.57" height="124.094" filterUnits="userSpaceOnUse" color-interpolation-filters="sRGB">
<feFlood flood-opacity="0" result="BackgroundImageFix"/>
<feBlend mode="normal" in="SourceGraphic" in2="BackgroundImageFix" result="shape"/>
<feGaussianBlur stdDeviation="5" result="effect1_foregroundBlur_112_25741"/>
</filter>
<filter id="filter2_f_112_25741" x="140.602" y="15.5527" width="129.859" height="166.477" filterUnits="userSpaceOnUse" color-interpolation-filters="sRGB">
<feFlood flood-opacity="0" result="BackgroundImageFix"/>
<feBlend mode="normal" in="SourceGraphic" in2="BackgroundImageFix" result="shape"/>
<feGaussianBlur stdDeviation="5" result="effect1_foregroundBlur_112_25741"/>
</filter>
<filter id="filter3_f_112_25741" x="-16.1758" y="15.5527" width="129.859" height="166.477" filterUnits="userSpaceOnUse" color-interpolation-filters="sRGB">
<feFlood flood-opacity="0" result="BackgroundImageFix"/>
<feBlend mode="normal" in="SourceGraphic" in2="BackgroundImageFix" result="shape"/>
<feGaussianBlur stdDeviation="5" result="effect1_foregroundBlur_112_25741"/>
</filter>
<filter id="filter4_f_112_25741" x="60.6875" y="22.6211" width="72.6953" height="178.975" filterUnits="userSpaceOnUse" color-interpolation-filters="sRGB">
<feFlood flood-opacity="0" result="BackgroundImageFix"/>
<feBlend mode="normal" in="SourceGraphic" in2="BackgroundImageFix" result="shape"/>
<feGaussianBlur stdDeviation="2" result="effect1_foregroundBlur_112_25741"/>
</filter>
<clipPath id="clip0_112_25741">
<rect width="256" height="256" fill="white"/>
</clipPath>
<clipPath id="clip1_112_25741">
<rect width="96" height="96" fill="white" transform="translate(80 97)"/>
</clipPath>
</defs>
</svg>
