<svg width="256" height="256" viewBox="0 0 256 256" fill="none" xmlns="http://www.w3.org/2000/svg">
<metadata>
  <rdf:RDF xmlns:rdf="http://www.w3.org/1999/02/22-rdf-syntax-ns#"
            xmlns:dc="http://purl.org/dc/elements/1.1/">
    <rdf:Description>
      <dc:title>swrpg-online.com art asset</dc:title>
      <dc:creator>Joshua Ziggas</dc:creator>
      <dc:rights>CC BY-NC-SA 4.0 - https://github.com/swrpg-online/art</dc:rights>
    </rdf:Description>
  </rdf:RDF>
</metadata>
<desc>
  wrpg-online.com SWRPG Dice Asset
  Created by: Joshua Ziggas
  Source: https://github.com/swrpg-online/art
  License: CC BY-NC-SA 4.0
</desc><mask id="mask0_112_25711" style="mask-type:luminance" maskUnits="userSpaceOnUse" x="6" y="2" width="244" height="252">
<path d="M114.628 4.34533C123.32 1.52112 132.683 1.52111 141.375 4.34533L189.67 20.0373C198.362 22.8615 205.937 28.365 211.309 35.7589L241.157 76.841C246.529 84.2349 249.422 93.1397 249.422 102.279V153.059C249.422 162.199 246.529 171.103 241.157 178.497L211.309 219.58C205.937 226.973 198.362 232.477 189.67 235.301L141.375 250.993C132.683 253.817 123.32 253.817 114.628 250.993L66.3327 235.301C57.6407 232.477 50.0658 226.973 44.6938 219.58L14.8459 178.497C9.47394 171.103 6.5806 162.199 6.5806 153.059V102.279C6.5806 93.1397 9.47393 84.2349 14.8459 76.841L44.6938 35.7589C50.0658 28.365 57.6407 22.8615 66.3327 20.0373L114.628 4.34533Z" fill="white"/>
</mask>
<g mask="url(#mask0_112_25711)">
<rect width="256" height="256" fill="#FF1920"/>
<g filter="url(#filter0_f_112_25711)">
<path d="M50.1016 9.81378L135.447 -6.13477V48.8239H121.261V9.81378L52.8064 23.0777L50.1016 9.81378Z" fill="url(#paint0_linear_112_25711)" fill-opacity="0.15"/>
<rect x="169.172" y="196.271" width="14.1855" height="78.0203" transform="rotate(-36 169.172 196.271)" fill="url(#paint1_linear_112_25711)" fill-opacity="0.3"/>
<path d="M-5.07812 91.2398L43.0683 14.9629L61.4613 21.4545L18.1181 84.7508L55.219 96.8056L50.8355 110.297L-5.07812 91.2398Z" fill="url(#paint2_linear_112_25711)" fill-opacity="0.25"/>
<rect x="205.871" y="110.297" width="14.1855" height="78.0203" transform="rotate(-108 205.871 110.297)" fill="url(#paint3_linear_112_25711)" fill-opacity="0.25"/>
<rect x="41.6797" y="259.391" width="14.1855" height="78.0203" transform="rotate(-144 41.6797 259.391)" fill="url(#paint4_linear_112_25711)" fill-opacity="0.25"/>
<path d="M173.313 205.926L209.147 252.449L126.501 268.499L46.8555 252.449L82.6888 205.926L173.313 205.926Z" fill="black" fill-opacity="0.35"/>
<path d="M216.112 108.42L272.062 88.5809L261.002 174.999L221.457 244.328L187.853 195.391L216.112 108.42Z" fill="black" fill-opacity="0.4"/>
<path d="M136.735 38.0605L135.156 -21.2826L210.716 13.9983L267.643 74.9745L210.716 91.8111L136.735 38.0605Z" fill="black" fill-opacity="0.2"/>
<path d="M45.2894 91.8125L-11.6371 74.9759L45.2894 14.9996L120.849 -21.2813L119.271 38.0618L45.2894 91.8125Z" fill="black" fill-opacity="0.1"/>
<path d="M68.1506 195.39L34.5469 244.328L-3.99854 172.499L-16.0586 88.5803L39.8922 108.42L68.1506 195.39Z" fill="black" fill-opacity="0.25"/>
</g>
</g>
<path d="M129.227 186.299C119.676 186.299 112.774 184.36 108.52 180.481C104.307 176.602 102.201 170.2 102.201 161.275C102.201 160.608 102.201 159.898 102.201 159.148C102.201 158.397 102.201 157.625 102.201 156.833C102.243 156.041 102.284 155.227 102.326 154.393H121.345C121.303 156.27 121.261 157.959 121.22 159.461C121.178 160.92 121.22 162.693 121.345 164.778C121.47 166.655 122.075 168.177 123.159 169.345C124.243 170.471 126.183 171.034 128.977 171.034C131.438 171.034 133.336 170.513 134.67 169.47C136.005 168.428 136.735 166.78 136.86 164.528C137.068 161.317 137.214 157.709 137.298 153.705C137.381 149.701 137.444 145.384 137.485 140.755H134.608C133.607 142.798 131.959 144.529 129.665 145.947C127.371 147.324 124.473 148.012 120.969 148.012C117.424 148.012 114.067 147.261 110.897 145.76C107.769 144.217 105.225 141.777 103.265 138.44C101.304 135.103 100.324 130.745 100.324 125.365C100.324 122.904 100.324 120.777 100.324 118.984C100.324 117.148 100.324 115.584 100.324 114.292C100.324 112.999 100.324 111.914 100.324 111.038C100.366 110.121 100.408 109.391 100.449 108.849C100.825 99.84 103.181 93.3962 107.519 89.5174C111.856 85.6386 118.801 83.6992 128.352 83.6992C138.111 83.6992 145.097 85.6386 149.309 89.5174C153.522 93.3962 155.712 99.84 155.878 108.849C156.045 116.273 156.149 122.842 156.191 128.555C156.233 134.269 156.212 139.712 156.129 144.884C156.087 150.056 156.003 155.519 155.878 161.275C155.712 170.2 153.501 176.602 149.247 180.481C144.993 184.36 138.32 186.299 129.227 186.299ZM128.602 132.497C131.188 132.497 133.21 132.059 134.67 131.183C136.172 130.265 137.068 128.993 137.36 127.367C137.319 123.78 137.256 120.131 137.173 116.419C137.089 112.665 136.943 108.89 136.735 105.095C136.693 103.135 135.942 101.633 134.483 100.591C133.023 99.5063 130.937 98.9641 128.226 98.9641C125.474 98.9641 123.347 99.5063 121.845 100.591C120.344 101.675 119.593 103.26 119.593 105.345C119.593 105.637 119.572 106.68 119.53 108.473C119.53 110.267 119.51 112.352 119.468 114.729C119.468 117.107 119.447 119.38 119.405 121.549C119.405 123.676 119.426 125.24 119.468 126.241C119.551 128.243 120.427 129.786 122.095 130.87C123.805 131.955 125.974 132.497 128.602 132.497Z" fill="white"/>
<g filter="url(#filter1_f_112_25711)">
<path d="M62.4943 99.4782C57.4854 104.467 54.5592 109.682 58.5102 120.453C52.2491 110.816 53.9564 100.612 58.5099 95.5099C66.6026 86.4422 90.9535 68.8656 103.475 61.4959C113.493 55.6002 126.243 46.7566 139.903 56.9608C124.535 51.2917 117.705 59.2284 110.875 63.1966C102.633 67.9849 68.7553 93.2423 62.4943 99.4782Z" fill="white"/>
</g>
<defs>
<filter id="filter0_f_112_25711" x="-26.878" y="-32.1026" width="317.772" height="311.42" filterUnits="userSpaceOnUse" color-interpolation-filters="sRGB">
<feFlood flood-opacity="0" result="BackgroundImageFix"/>
<feBlend mode="normal" in="SourceGraphic" in2="BackgroundImageFix" result="shape"/>
<feGaussianBlur stdDeviation="5.40971" result="effect1_foregroundBlur_112_25711"/>
</filter>
<filter id="filter1_f_112_25711" x="49.02" y="46.8813" width="96.2921" height="78.9815" filterUnits="userSpaceOnUse" color-interpolation-filters="sRGB">
<feFlood flood-opacity="0" result="BackgroundImageFix"/>
<feBlend mode="normal" in="SourceGraphic" in2="BackgroundImageFix" result="shape"/>
<feGaussianBlur stdDeviation="2.70486" result="effect1_foregroundBlur_112_25711"/>
</filter>
<linearGradient id="paint0_linear_112_25711" x1="128.354" y1="-29.1964" x2="128.354" y2="48.8239" gradientUnits="userSpaceOnUse">
<stop offset="0.40004"/>
<stop offset="0.770751" stop-opacity="0"/>
</linearGradient>
<linearGradient id="paint1_linear_112_25711" x1="176.265" y1="196.271" x2="176.278" y2="252.045" gradientUnits="userSpaceOnUse">
<stop stop-opacity="0"/>
<stop offset="0.44519"/>
</linearGradient>
<linearGradient id="paint2_linear_112_25711" x1="52.2438" y1="103.557" x2="6.82333" y2="87.453" gradientUnits="userSpaceOnUse">
<stop offset="0.487821" stop-opacity="0"/>
<stop offset="1"/>
</linearGradient>
<linearGradient id="paint3_linear_112_25711" x1="216.762" y1="109.729" x2="217.403" y2="150.479" gradientUnits="userSpaceOnUse">
<stop stop-opacity="0"/>
<stop offset="1"/>
</linearGradient>
<linearGradient id="paint4_linear_112_25711" x1="48.7724" y1="337.411" x2="48.6801" y2="291.638" gradientUnits="userSpaceOnUse">
<stop stop-opacity="0"/>
<stop offset="0.482933"/>
</linearGradient>
</defs>
</svg>
