<svg width="256" height="256" viewBox="0 0 256 256" fill="none" xmlns="http://www.w3.org/2000/svg">
<metadata>
  <rdf:RDF xmlns:rdf="http://www.w3.org/1999/02/22-rdf-syntax-ns#"
            xmlns:dc="http://purl.org/dc/elements/1.1/">
    <rdf:Description>
      <dc:title>swrpg-online.com art asset</dc:title>
      <dc:creator>Joshua Ziggas</dc:creator>
      <dc:rights>CC BY-NC-SA 4.0 - https://github.com/swrpg-online/art</dc:rights>
    </rdf:Description>
  </rdf:RDF>
</metadata>
<desc>
  wrpg-online.com SWRPG Dice Asset
  Created by: Joshua Ziggas
  Source: https://github.com/swrpg-online/art
  License: CC BY-NC-SA 4.0
</desc><mask id="mask0_112_25687" style="mask-type:alpha" maskUnits="userSpaceOnUse" x="10" y="0" width="237" height="256">
<path d="M224.91 60.2803L150.531 7.28962C136.792 -2.49863 118.338 -2.42293 104.68 7.47773L31.8161 60.296C23.7755 66.1246 18.6774 75.1707 17.8556 85.0677L10.4831 173.859C9.14473 189.977 17.8216 205.268 32.3449 212.386L112.644 251.739C122.046 256.346 133.044 256.376 142.471 251.82L224.23 212.3C238.838 205.239 247.602 189.923 246.289 173.75L239.102 85.276C238.289 75.2589 233.095 66.1118 224.91 60.2803Z" fill="#CFCFCF"/>
</mask>
<g mask="url(#mask0_112_25687)">
<rect width="256" height="256" fill="#FF1920"/>
<g style="mix-blend-mode:multiply" filter="url(#filter0_f_112_25687)">
<mask id="mask1_112_25687" style="mask-type:alpha" maskUnits="userSpaceOnUse" x="1" y="-10" width="255" height="275">
<path fill-rule="evenodd" clip-rule="evenodd" d="M152.285 -1.737L232.216 55.1634C241.012 61.4252 246.594 71.2472 247.468 82.0034L255.191 177.006C256.603 194.371 247.184 210.818 231.485 218.4L143.624 260.835C133.493 265.728 121.673 265.696 111.569 260.748L25.2761 218.491C9.66859 210.849 0.343989 194.429 1.78223 177.122L9.70515 81.7796C10.5883 71.1525 16.067 61.4389 24.7079 55.1803L103.011 -1.535C117.689 -12.1662 137.521 -12.2474 152.285 -1.737ZM138.618 210.457C134.336 217.848 123.662 217.848 119.38 210.457L57.5134 103.689C53.2194 96.2782 58.5672 87.0006 67.1327 87.0006H190.865C199.431 87.0006 204.778 96.2782 200.484 103.689L138.618 210.457Z" fill="black"/>
</mask>
<g mask="url(#mask1_112_25687)">
<path d="M224.91 60.2803L150.531 7.28962C136.792 -2.49863 118.338 -2.42293 104.68 7.47773L31.8161 60.296C23.7755 66.1246 18.6774 75.1707 17.8556 85.0677L10.4831 173.859C9.14473 189.977 17.8216 205.268 32.3449 212.386L112.644 251.739C122.046 256.346 133.044 256.376 142.471 251.82L224.23 212.3C238.838 205.239 247.602 189.923 246.289 173.75L239.102 85.276C238.289 75.2589 233.095 66.1118 224.91 60.2803Z" fill="#CFCFCF"/>
<path d="M204.7 84H53.3C43.2078 84 38.1969 73.0586 45.3921 66.7329L110.15 9.80008C120.433 0.759757 136.916 0.729605 147.24 9.73224L212.575 66.704C219.815 73.0173 214.814 84 204.7 84Z" fill="#E0E0E0"/>
<path d="M51.0658 91.53L123.601 217.164C128.436 225.539 121.572 235.046 112.768 232.168L33.5336 206.264C20.952 202.151 13.0296 188.488 15.7066 175.52L32.6472 93.4509C34.5244 84.3565 46.2199 83.1368 51.0658 91.53Z" fill="#D8D8D8"/>
<path d="M206.994 88.7409L131.609 219.312C126.584 228.015 133.429 237.729 142.411 234.642L223.254 206.851C236.091 202.438 244.324 188.238 241.779 174.897L225.679 90.4733C223.895 81.1179 212.03 80.0179 206.994 88.7409Z" fill="#C1C1C1"/>
<path d="M128.484 230.5V263.061L104.345 256.908L21.7523 217.387L12.9961 206.501L15.5993 194.432C18.8336 198.455 26.6274 206.832 31.9285 208.158C38.5548 209.814 109.551 221.034 118.071 223.164C124.886 224.868 127.852 228.765 128.484 230.5Z" fill="#8D8D8D"/>
<path d="M128.485 231V263.061L152.624 256.908L235.216 217.387L243.973 206.501L241.369 194.432C238.135 198.455 230.341 206.832 225.04 208.158C218.414 209.814 147.418 221.534 138.898 223.664C132.082 225.368 129.116 229.265 128.485 231Z" fill="#737373"/>
<path d="M212.647 84.3141L243.297 64.418L250.038 88.3993L257.107 179.687L252.058 192.713L240.304 196.494C242.171 191.681 245.529 180.743 244.026 175.489C242.148 168.922 213.915 105.443 211.5 97C209.568 90.2455 211.459 85.7284 212.647 84.3141Z" fill="#828282"/>
<path d="M211.499 83.5009L243.296 64.4189L225.898 46.5906L150.375 -5.17589L136.57 -7.31594L127.419 0.973188C132.52 1.76259 143.672 4.32346 147.47 8.25168C152.218 13.162 193.835 71.838 199.939 78.1512C204.823 83.2018 209.681 83.8221 211.499 83.5009Z" fill="#9E9E9E"/>
<path d="M44.8504 83.8141L13.9414 64.418L7.20064 88.3993L0.130878 179.687L5.18042 192.713L16.9344 196.494C15.0674 191.681 11.7091 180.743 13.212 175.489C15.0905 168.922 43.5822 104.943 45.9974 96.5C47.9296 89.7455 46.0378 85.2284 44.8504 83.8141Z" fill="#B1B1B1"/>
<path d="M46.4385 83.8505L13.9422 64.4189L31.3402 46.5906L106.863 -5.17589L120.669 -7.31594L129.819 0.973188C124.718 1.76259 113.566 4.32346 109.768 8.25168C105.02 13.162 64.1026 72.1876 57.9983 78.5009C53.1148 83.5514 48.257 84.1717 46.4385 83.8505Z" fill="#B6B6B6"/>
</g>
</g>
</g>
<g filter="url(#filter1_f_112_25687)">
<path d="M72.7423 89H122C110.497 90.3425 85.9103 93.2575 79.5869 94.1781C71.6827 95.3288 66.0919 98.2055 68.5981 106.452C70.6031 113.049 83.9568 144.233 90.383 159L61.6354 107.833C56.8952 99.3957 63.0262 89 72.7423 89Z" fill="url(#paint0_radial_112_25687)"/>
</g>
<g clip-path="url(#clip0_112_25687)">
<path d="M149.478 163.204C143.69 163.204 139.225 161.77 136.083 158.904C132.968 156.01 131.342 151.903 131.204 146.584C131.094 142.587 131.025 138.646 130.998 134.759C130.97 130.873 130.97 127.028 130.998 123.225C131.053 119.421 131.122 115.659 131.204 111.938C131.342 106.591 132.982 102.498 136.124 99.6588C139.294 96.8198 143.745 95.4004 149.478 95.4004C155.156 95.4004 159.566 96.8198 162.708 99.6588C165.85 102.498 167.504 106.591 167.669 111.938C167.78 115.19 167.862 118.305 167.917 121.281C167.972 124.258 168 127.152 168 129.963C168 132.775 167.972 135.559 167.917 138.315C167.862 141.044 167.78 143.8 167.669 146.584C167.476 152.124 165.767 156.285 162.543 159.069C159.345 161.825 154.991 163.204 149.478 163.204ZM149.478 153.116C153.006 153.116 154.853 151.793 155.018 149.147C155.239 144.571 155.376 140.217 155.432 136.082C155.514 131.92 155.514 127.703 155.432 123.431C155.376 119.132 155.239 114.501 155.018 109.54C154.935 106.839 153.089 105.488 149.478 105.488C145.812 105.488 143.938 106.866 143.855 109.623C143.718 113.123 143.607 116.458 143.525 119.628C143.47 122.797 143.442 125.926 143.442 129.013C143.442 132.1 143.47 135.269 143.525 138.522C143.607 141.774 143.718 145.233 143.855 148.899C143.938 151.71 145.812 153.116 149.478 153.116Z" fill="white"/>
<path d="M88.1654 162.377C88.1378 161.357 88.1102 160.406 88.0827 159.524C88.0827 158.642 88.0689 157.801 88.0413 157.002C88.0413 156.175 88.0276 155.348 88 154.521C88 153.695 88 152.813 88 151.875C88.0276 150.911 88.0551 149.863 88.0827 148.733C88.1654 145.922 88.6891 143.345 89.6537 141.002C90.646 138.632 92.1068 136.482 94.0361 134.553C95.9655 132.596 98.391 130.845 101.313 129.302L107.101 126.243C109.002 125.25 110.229 124.038 110.78 122.604C111.331 121.171 111.648 119.876 111.731 118.718C111.814 117.34 111.869 115.852 111.896 114.253C111.924 112.627 111.896 111.111 111.814 109.705C111.731 108.41 111.221 107.39 110.284 106.646C109.347 105.874 107.928 105.488 106.026 105.488C104.179 105.488 102.842 105.86 102.015 106.604C101.216 107.321 100.789 108.244 100.734 109.374C100.651 111.607 100.596 113.578 100.568 115.287C100.568 116.968 100.624 118.883 100.734 121.033H88.2481C88.1929 119.958 88.1516 118.883 88.124 117.809C88.0965 116.706 88.0689 115.659 88.0413 114.666C88.0413 113.674 88.0551 112.765 88.0827 111.938C88.3307 106.012 89.8467 101.781 92.6305 99.2453C95.4418 96.682 99.9069 95.4004 106.026 95.4004C110.353 95.4004 113.826 95.9654 116.444 97.0955C119.09 98.198 121.033 99.9619 122.274 102.387C123.514 104.813 124.217 107.996 124.382 111.938C124.41 112.599 124.424 113.219 124.424 113.798C124.451 114.349 124.465 114.887 124.465 115.411C124.465 115.907 124.451 116.417 124.424 116.94C124.424 117.464 124.41 118.029 124.382 118.635C124.272 121.695 123.679 124.355 122.604 126.615C121.53 128.847 120.082 130.79 118.263 132.444C116.444 134.098 114.35 135.559 111.979 136.826L105.282 140.382C104.151 140.988 103.256 141.801 102.594 142.821C101.96 143.814 101.506 144.847 101.23 145.922C100.954 146.997 100.816 147.934 100.816 148.733V151.462H123.39V162.377H88.1654Z" fill="white"/>
</g>
<defs>
<filter id="filter0_f_112_25687" x="-8.36328" y="-17.3164" width="273.695" height="290.377" filterUnits="userSpaceOnUse" color-interpolation-filters="sRGB">
<feFlood flood-opacity="0" result="BackgroundImageFix"/>
<feBlend mode="normal" in="SourceGraphic" in2="BackgroundImageFix" result="shape"/>
<feGaussianBlur stdDeviation="5" result="effect1_foregroundBlur_112_25687"/>
</filter>
<filter id="filter1_f_112_25687" x="55" y="84" width="72" height="80" filterUnits="userSpaceOnUse" color-interpolation-filters="sRGB">
<feFlood flood-opacity="0" result="BackgroundImageFix"/>
<feBlend mode="normal" in="SourceGraphic" in2="BackgroundImageFix" result="shape"/>
<feGaussianBlur stdDeviation="2.5" result="effect1_foregroundBlur_112_25687"/>
</filter>
<radialGradient id="paint0_radial_112_25687" cx="0" cy="0" r="1" gradientUnits="userSpaceOnUse" gradientTransform="translate(68.0198 95.7123) rotate(44.0247) scale(47.1885 41.5706)">
<stop stop-color="white"/>
<stop offset="1" stop-color="white" stop-opacity="0"/>
</radialGradient>
<clipPath id="clip0_112_25687">
<rect width="80" height="80" fill="white" transform="translate(88 89)"/>
</clipPath>
</defs>
</svg>
