<svg width="256" height="256" viewBox="0 0 256 256" fill="none" xmlns="http://www.w3.org/2000/svg">
<metadata>
  <rdf:RDF xmlns:rdf="http://www.w3.org/1999/02/22-rdf-syntax-ns#"
            xmlns:dc="http://purl.org/dc/elements/1.1/">
    <rdf:Description>
      <dc:title>swrpg-online.com art asset</dc:title>
      <dc:creator>Joshua Ziggas</dc:creator>
      <dc:rights>CC BY-NC-SA 4.0 - https://github.com/swrpg-online/art</dc:rights>
    </rdf:Description>
  </rdf:RDF>
</metadata>
<desc>
  wrpg-online.com SWRPG Dice Asset
  Created by: Joshua Ziggas
  Source: https://github.com/swrpg-online/art
  License: CC BY-NC-SA 4.0
</desc><mask id="mask0_112_25684" style="mask-type:alpha" maskUnits="userSpaceOnUse" x="2" y="17" width="252" height="223">
<path d="M111.095 26.5C118.408 13.8333 136.691 13.8333 144.004 26.5L250.525 211C257.838 223.667 248.697 239.5 234.071 239.5H21.0283C6.40214 239.5 -2.73924 223.667 4.57386 211L111.095 26.5Z" fill="#D9D9D9"/>
</mask>
<g mask="url(#mask0_112_25684)">
<rect width="256" height="256" fill="#FF1920"/>
<g style="mix-blend-mode:multiply" filter="url(#filter0_f_112_25684)">
<path d="M279.337 102.182C279.369 87.9555 263.989 61.3151 251.652 54.2297L126.366 -17.7262C114.029 -24.8117 113.988 -7.0282 126.293 14.2841L251.252 230.719C263.556 252.031 278.977 260.888 279.01 246.661L279.337 102.182Z" fill="black" fill-opacity="0.25"/>
<path d="M100.333 317.894C112.425 324.88 142.655 324.88 154.747 317.894L277.547 246.95C289.639 239.964 274.524 231.232 250.339 231.232L4.74033 231.232C-19.4438 231.232 -34.5589 239.964 -22.4668 246.95L100.333 317.894Z" fill="black" fill-opacity="0.5"/>
<path d="M-26.4366 101.791C-26.4405 87.3473 -10.8069 60.269 1.704 53.0504L128.757 -20.257C141.268 -27.4756 141.273 -9.42054 128.766 12.2421L1.75356 232.235C-10.7533 253.897 -26.392 262.921 -26.396 248.476L-26.4366 101.791Z" fill="black" fill-opacity="0.35"/>
</g>
</g>
<g clip-path="url(#clip0_112_25684)">
<path d="M191.178 128.084L153.081 150.079L155.057 153.501L152.166 155.474L144.499 152.6L140.416 145.528L186.041 119.187L191.178 128.084Z" fill="white"/>
</g>
<g clip-path="url(#clip1_112_25684)">
<path d="M65.9209 125.843L77.3841 132.461L85.8463 117.804L92.9751 121.92L113.422 148.934L106.837 160.34L80.1466 144.93L77.1503 150.12L69.6792 145.806L72.6756 140.617L61.2123 133.998L65.9209 125.843ZM88.51 130.444L84.8551 136.775L94.6903 143.974L102.766 150.005L103.754 148.294L96.7647 140.381L88.51 130.444Z" fill="white"/>
</g>
<path d="M111.546 229.043C111.524 228.243 111.502 227.497 111.48 226.805C111.48 226.114 111.469 225.454 111.447 224.827C111.447 224.179 111.436 223.53 111.414 222.882C111.414 222.233 111.414 221.541 111.414 220.806C111.436 220.05 111.458 219.228 111.48 218.342C111.546 216.137 111.963 214.115 112.731 212.278C113.521 210.419 114.685 208.732 116.221 207.219C117.758 205.684 119.69 204.311 122.017 203.101L126.626 200.701C128.141 199.923 129.118 198.972 129.557 197.847C129.996 196.723 130.248 195.707 130.314 194.799C130.38 193.718 130.424 192.551 130.446 191.297C130.468 190.021 130.446 188.832 130.38 187.73C130.314 186.714 129.908 185.914 129.162 185.33C128.415 184.725 127.285 184.422 125.77 184.422C124.299 184.422 123.235 184.714 122.576 185.298C121.94 185.86 121.599 186.584 121.556 187.47C121.49 189.222 121.446 190.767 121.424 192.108C121.424 193.426 121.468 194.929 121.556 196.615H111.612C111.568 195.772 111.535 194.929 111.513 194.086C111.491 193.221 111.469 192.399 111.447 191.621C111.447 190.843 111.458 190.129 111.48 189.481C111.677 184.833 112.885 181.514 115.102 179.526C117.341 177.515 120.897 176.51 125.77 176.51C129.217 176.51 131.982 176.953 134.068 177.839C136.175 178.704 137.723 180.088 138.71 181.99C139.698 183.893 140.258 186.389 140.39 189.481C140.412 190 140.423 190.486 140.423 190.94C140.445 191.373 140.456 191.794 140.456 192.205C140.456 192.594 140.445 192.994 140.423 193.405C140.423 193.815 140.412 194.259 140.39 194.734C140.302 197.134 139.83 199.22 138.974 200.993C138.118 202.744 136.965 204.268 135.517 205.565C134.068 206.862 132.399 208.008 130.512 209.003L125.177 211.791C124.277 212.267 123.564 212.905 123.037 213.705C122.532 214.483 122.17 215.294 121.951 216.137C121.731 216.98 121.621 217.715 121.621 218.342V220.482H139.599V229.043H111.546Z" fill="white"/>
<defs>
<filter id="filter0_f_112_25684" x="-46.7227" y="-41.873" width="348.523" height="385.006" filterUnits="userSpaceOnUse" color-interpolation-filters="sRGB">
<feFlood flood-opacity="0" result="BackgroundImageFix"/>
<feBlend mode="normal" in="SourceGraphic" in2="BackgroundImageFix" result="shape"/>
<feGaussianBlur stdDeviation="10" result="effect1_foregroundBlur_112_25684"/>
</filter>
<clipPath id="clip0_112_25684">
<rect width="60" height="60" fill="white" transform="translate(156.109 179.762) rotate(-120)"/>
</clipPath>
<clipPath id="clip1_112_25684">
<rect width="60" height="60" fill="white" transform="translate(129.961 127.343) rotate(120)"/>
</clipPath>
</defs>
</svg>
