<svg width="256" height="256" viewBox="0 0 256 256" fill="none" xmlns="http://www.w3.org/2000/svg">
<metadata>
  <rdf:RDF xmlns:rdf="http://www.w3.org/1999/02/22-rdf-syntax-ns#"
            xmlns:dc="http://purl.org/dc/elements/1.1/">
    <rdf:Description>
      <dc:title>swrpg-online.com art asset</dc:title>
      <dc:creator>Joshua Ziggas</dc:creator>
      <dc:rights>CC BY-NC-SA 4.0 - https://github.com/swrpg-online/art</dc:rights>
    </rdf:Description>
  </rdf:RDF>
</metadata>
<desc>
  wrpg-online.com SWRPG Dice Asset
  Created by: Joshua Ziggas
  Source: https://github.com/swrpg-online/art
  License: CC BY-NC-SA 4.0
</desc><mask id="mask0_112_25682" style="mask-type:alpha" maskUnits="userSpaceOnUse" x="2" y="17" width="252" height="223">
<path d="M111.095 26.5C118.408 13.8333 136.691 13.8333 144.004 26.5L250.525 211C257.838 223.667 248.697 239.5 234.071 239.5H21.0283C6.40214 239.5 -2.73924 223.667 4.57386 211L111.095 26.5Z" fill="#D9D9D9"/>
</mask>
<g mask="url(#mask0_112_25682)">
<rect width="256" height="256" fill="#FF1920"/>
<g style="mix-blend-mode:multiply" filter="url(#filter0_f_112_25682)">
<path d="M279.337 102.182C279.369 87.9555 263.989 61.3151 251.652 54.2297L126.366 -17.7262C114.029 -24.8117 113.988 -7.0282 126.293 14.2841L251.252 230.719C263.556 252.031 278.977 260.888 279.01 246.661L279.337 102.182Z" fill="black" fill-opacity="0.25"/>
<path d="M100.333 317.894C112.425 324.88 142.655 324.88 154.747 317.894L277.547 246.95C289.639 239.964 274.524 231.232 250.339 231.232L4.74033 231.232C-19.4438 231.232 -34.5589 239.964 -22.4668 246.95L100.333 317.894Z" fill="black" fill-opacity="0.5"/>
<path d="M-26.4366 101.791C-26.4405 87.3473 -10.8069 60.269 1.704 53.0504L128.757 -20.257C141.268 -27.4756 141.273 -9.42054 128.766 12.2421L1.75356 232.235C-10.7533 253.897 -26.392 262.921 -26.396 248.476L-26.4366 101.791Z" fill="black" fill-opacity="0.35"/>
</g>
</g>
<g clip-path="url(#clip0_112_25682)">
<path d="M190.355 125.264C192.989 129.827 194.009 133.636 193.415 136.69C192.822 139.745 190.505 142.515 186.465 145C185.791 145.414 185.279 145.735 184.929 145.962C184.568 146.171 184.207 146.379 183.846 146.588C183.473 146.778 182.94 147.06 182.244 147.436L177.206 138.711L182.567 135.616C183.651 134.99 184.279 134.146 184.451 133.083C184.604 132.032 184.297 130.84 183.529 129.51C182.738 128.141 181.86 127.279 180.895 126.924C179.9 126.561 178.874 126.672 177.817 127.256C176.54 127.943 175.417 128.566 174.448 129.125C173.467 129.666 172.556 130.217 171.715 130.779C170.721 131.429 170.001 132.289 169.553 133.358C169.095 134.408 169.39 135.797 170.438 137.524L173.821 143.251L166.766 147.628L150.371 145.308L158.899 160.079L151.371 164.425L137.08 139.674L144.446 135.573L161.039 138.235C159.476 134.956 159.128 132.027 159.996 129.447C160.853 126.848 163.156 124.34 166.905 121.922C167.293 121.672 167.668 121.443 168.029 121.235C168.36 121.018 168.697 120.811 169.039 120.614C169.382 120.416 169.762 120.197 170.18 119.955C170.579 119.725 171.046 119.48 171.582 119.222C175.787 117.022 179.344 116.401 182.253 117.357C185.152 118.294 187.852 120.93 190.355 125.264Z" fill="white"/>
</g>
<g clip-path="url(#clip1_112_25682)">
<path d="M72.9071 112.352C73.6214 112.739 74.2882 113.098 74.9075 113.43C75.5159 113.782 76.1012 114.107 76.6635 114.406C77.2338 114.735 77.8096 115.055 78.3908 115.366C78.9612 115.695 79.5695 116.046 80.2158 116.419C80.8702 116.822 81.5816 117.258 82.3501 117.727C84.2562 118.904 85.8251 120.291 87.0569 121.89C88.2966 123.518 89.1977 125.382 89.7602 127.481C90.3416 129.591 90.5829 131.96 90.4841 134.59L90.2893 139.801C90.2164 141.507 90.5644 142.836 91.3334 143.787C92.1025 144.738 92.8697 145.473 93.6352 145.991C94.5528 146.597 95.5574 147.227 96.6491 147.883C97.7597 148.549 98.8162 149.134 99.8187 149.637C100.745 150.096 101.652 150.15 102.538 149.8C103.443 149.461 104.275 148.636 105.032 147.324C105.768 146.05 106.043 144.98 105.859 144.113C105.683 143.277 105.216 142.614 104.459 142.126C102.952 141.18 101.615 140.358 100.447 139.658C99.2875 138.988 97.9444 138.264 96.4176 137.484L101.39 128.872C102.153 129.262 102.911 129.662 103.663 130.071C104.435 130.491 105.168 130.889 105.863 131.265C106.548 131.66 107.17 132.032 107.729 132.38C111.717 134.911 114.032 137.641 114.672 140.571C115.321 143.531 114.427 147.121 111.99 151.341C110.267 154.326 108.494 156.496 106.672 157.852C104.858 159.238 102.867 159.876 100.701 159.765C98.5339 159.655 96.0583 158.872 93.274 157.416C92.8068 157.172 92.3735 156.935 91.9743 156.704C91.5831 156.504 91.2069 156.299 90.8457 156.091C90.5036 155.893 90.1574 155.68 89.8071 155.453C89.4459 155.244 89.0617 155.01 88.6545 154.749C86.5882 153.455 84.9897 151.987 83.8589 150.346C82.7471 148.715 81.9831 146.944 81.5669 145.03C81.1507 143.117 80.9773 141.091 81.0467 138.951L81.2614 132.915C81.2932 131.895 81.0891 130.953 80.6491 130.091C80.2172 129.258 79.6854 128.533 79.0538 127.915C78.4221 127.297 77.8307 126.828 77.2794 126.51L75.3973 125.424L66.4083 140.993L58.8802 136.647L72.9071 112.352Z" fill="white"/>
</g>
<path d="M126.721 228.357V215.321H109.797V207.214L122.968 176.473H136.138V206.825H142.131V215.321H136.138V228.357H126.721ZM119.412 206.825H126.721L128.038 194.892L129.224 185.034H127.248L123.89 194.892L119.412 206.825Z" fill="white"/>
<defs>
<filter id="filter0_f_112_25682" x="-46.7227" y="-41.873" width="348.523" height="385.006" filterUnits="userSpaceOnUse" color-interpolation-filters="sRGB">
<feFlood flood-opacity="0" result="BackgroundImageFix"/>
<feBlend mode="normal" in="SourceGraphic" in2="BackgroundImageFix" result="shape"/>
<feGaussianBlur stdDeviation="10" result="effect1_foregroundBlur_112_25682"/>
</filter>
<clipPath id="clip0_112_25682">
<rect width="60" height="60" fill="white" transform="translate(156.109 179.762) rotate(-120)"/>
</clipPath>
<clipPath id="clip1_112_25682">
<rect width="60" height="60" fill="white" transform="translate(129.961 127.342) rotate(120)"/>
</clipPath>
</defs>
</svg>
