<svg width="256" height="256" viewBox="0 0 256 256" fill="none" xmlns="http://www.w3.org/2000/svg">
<metadata>
  <rdf:RDF xmlns:rdf="http://www.w3.org/1999/02/22-rdf-syntax-ns#"
            xmlns:dc="http://purl.org/dc/elements/1.1/">
    <rdf:Description>
      <dc:title>swrpg-online.com art asset</dc:title>
      <dc:creator>Joshua Ziggas</dc:creator>
      <dc:rights>CC BY-NC-SA 4.0 - https://github.com/swrpg-online/art</dc:rights>
    </rdf:Description>
  </rdf:RDF>
</metadata>
<desc>
  wrpg-online.com SWRPG Dice Asset
  Created by: Joshua Ziggas
  Source: https://github.com/swrpg-online/art
  License: CC BY-NC-SA 4.0
</desc><mask id="mask0_112_25730" style="mask-type:alpha" maskUnits="userSpaceOnUse" x="28" y="28" width="200" height="200">
<path d="M28 52C28 38.7452 38.7452 28 52 28H128H204C217.255 28 228 38.7452 228 52V128V204C228 217.255 217.255 228 204 228H128H52C38.7452 228 28 217.255 28 204V128V52Z" fill="#7EBCD8"/>
</mask>
<g mask="url(#mask0_112_25730)">
<rect width="256" height="256" fill="#FF1920"/>
<g style="mix-blend-mode:plus-lighter">
<rect x="28" y="28" width="200" height="200" fill="url(#paint0_linear_112_25730)"/>
</g>
<g filter="url(#filter0_f_112_25730)">
<path fill-rule="evenodd" clip-rule="evenodd" d="M239 17H17V239H239V17ZM128 228.909C183.731 228.909 228.909 183.731 228.909 128C228.909 72.2694 183.731 27.0909 128 27.0909C72.2694 27.0909 27.0909 72.2694 27.0909 128C27.0909 183.731 72.2694 228.909 128 228.909Z" fill="url(#paint1_angular_112_25730)"/>
</g>
</g>
<path d="M128.035 179.299C118.275 179.299 111.268 177.36 107.014 173.481C102.76 169.602 100.591 163.158 100.508 154.15C100.466 147.101 100.425 140.637 100.383 134.756C100.341 128.875 100.32 123.662 100.32 119.116C100.32 114.569 100.341 110.837 100.383 107.917C100.425 104.956 100.466 102.891 100.508 101.724C100.883 93.2153 103.428 86.9175 108.14 82.8302C112.895 78.7429 119.485 76.6992 127.91 76.6992C136.668 76.6992 143.362 78.868 147.992 83.2056C152.621 87.5431 155.061 93.3821 155.311 100.723C155.353 101.598 155.374 102.37 155.374 103.037C155.416 103.705 155.416 104.455 155.374 105.29C155.374 106.124 155.353 107.229 155.311 108.605H136.293C136.418 107.271 136.481 106.186 136.481 105.352C136.522 104.476 136.522 103.538 136.481 102.537C136.439 101.494 136.376 100.055 136.293 98.2202C136.251 96.3434 135.563 94.8419 134.228 93.7158C132.935 92.548 130.871 91.9641 128.035 91.9641C125.282 91.9641 123.218 92.5063 121.841 93.5907C120.465 94.6751 119.735 96.2182 119.652 98.2202C119.527 101.598 119.401 105.331 119.276 109.419C119.193 113.464 119.151 117.739 119.151 122.244H122.529C123.739 120.158 125.637 118.427 128.223 117.051C130.85 115.675 133.874 114.987 137.294 114.987C144.384 114.987 149.243 116.655 151.871 119.991C154.54 123.286 155.937 128.792 156.062 136.508C156.104 139.135 156.125 141.304 156.125 143.014C156.166 144.724 156.166 146.413 156.125 148.081C156.125 149.708 156.062 151.731 155.937 154.15C155.437 163.158 153.08 169.602 148.868 173.481C144.697 177.36 137.753 179.299 128.035 179.299ZM128.16 164.034C130.996 164.034 133.123 163.492 134.541 162.408C136.001 161.282 136.752 159.697 136.793 157.653C136.877 155.443 136.939 153.441 136.981 151.647C137.023 149.812 137.064 148.081 137.106 146.455C137.148 144.828 137.169 143.243 137.169 141.7C137.169 140.157 137.127 138.593 137.044 137.008C137.002 134.881 136.189 133.275 134.604 132.191C133.061 131.065 131.038 130.502 128.535 130.502C125.741 130.502 123.489 131.044 121.779 132.128C120.11 133.213 119.235 134.756 119.151 136.758C119.151 140.136 119.172 143.556 119.214 147.018C119.297 150.479 119.401 153.941 119.527 157.403C119.61 159.53 120.382 161.177 121.841 162.345C123.301 163.471 125.407 164.034 128.16 164.034Z" fill="white"/>
<g filter="url(#filter1_f_112_25730)">
<path d="M54.6822 87.8174C46.6259 95.7643 46.0504 129.917 46.7697 146C42.2358 116.37 41.274 83.6569 59.7175 64.5191C77.813 45.7423 110.789 41.6971 141 47.3734C123.017 46.6638 96.4024 50.2116 86.332 57.307C76.2616 64.4024 64.7526 77.8838 54.6822 87.8174Z" fill="url(#paint2_radial_112_25730)"/>
</g>
<defs>
<filter id="filter0_f_112_25730" x="1.31818" y="1.31818" width="253.364" height="253.364" filterUnits="userSpaceOnUse" color-interpolation-filters="sRGB">
<feFlood flood-opacity="0" result="BackgroundImageFix"/>
<feBlend mode="normal" in="SourceGraphic" in2="BackgroundImageFix" result="shape"/>
<feGaussianBlur stdDeviation="7.84091" result="effect1_foregroundBlur_112_25730"/>
</filter>
<filter id="filter1_f_112_25730" x="38.3182" y="39.3182" width="108.364" height="112.364" filterUnits="userSpaceOnUse" color-interpolation-filters="sRGB">
<feFlood flood-opacity="0" result="BackgroundImageFix"/>
<feBlend mode="normal" in="SourceGraphic" in2="BackgroundImageFix" result="shape"/>
<feGaussianBlur stdDeviation="2.84091" result="effect1_foregroundBlur_112_25730"/>
</filter>
<linearGradient id="paint0_linear_112_25730" x1="28" y1="28" x2="228" y2="228" gradientUnits="userSpaceOnUse">
<stop stop-color="white" stop-opacity="0"/>
<stop offset="0.655" stop-color="white" stop-opacity="0.05"/>
</linearGradient>
<radialGradient id="paint1_angular_112_25730" cx="0" cy="0" r="1" gradientUnits="userSpaceOnUse" gradientTransform="translate(128 128) rotate(45) scale(141.588)">
<stop stop-opacity="0.5"/>
<stop offset="0.253046" stop-opacity="0.35"/>
<stop offset="0.502899" stop-opacity="0.15"/>
<stop offset="0.753407" stop-opacity="0.25"/>
<stop offset="1" stop-opacity="0.5"/>
</radialGradient>
<radialGradient id="paint2_radial_112_25730" cx="0" cy="0" r="1" gradientUnits="userSpaceOnUse" gradientTransform="translate(66.2988 67.2406) scale(67.6157 63.1855)">
<stop offset="0.29" stop-color="white"/>
<stop offset="0.415" stop-color="white" stop-opacity="0.5"/>
<stop offset="1" stop-color="white" stop-opacity="0"/>
</radialGradient>
</defs>
</svg>
