<svg width="256" height="256" viewBox="0 0 256 256" fill="none" xmlns="http://www.w3.org/2000/svg">
<metadata>
  <rdf:RDF xmlns:rdf="http://www.w3.org/1999/02/22-rdf-syntax-ns#"
            xmlns:dc="http://purl.org/dc/elements/1.1/">
    <rdf:Description>
      <dc:title>swrpg-online.com art asset</dc:title>
      <dc:creator>Joshua Ziggas</dc:creator>
      <dc:rights>CC BY-NC-SA 4.0 - https://github.com/swrpg-online/art</dc:rights>
    </rdf:Description>
  </rdf:RDF>
</metadata>
<desc>
  wrpg-online.com SWRPG Dice Asset
  Created by: Joshua Ziggas
  Source: https://github.com/swrpg-online/art
  License: CC BY-NC-SA 4.0
</desc><mask id="mask0_112_25723" style="mask-type:alpha" maskUnits="userSpaceOnUse" x="10" y="0" width="237" height="256">
<path d="M100.601 7.4368C117.775 -2.47893 138.935 -2.47893 156.11 7.4368L218.819 43.6421C235.994 53.5579 246.574 71.8829 246.574 91.7144V164.125C246.574 183.956 235.994 202.281 218.819 212.197L156.11 248.403C138.935 258.318 117.775 258.318 100.601 248.403L37.8912 212.197C20.7167 202.281 10.1367 183.956 10.1367 164.125V91.7144C10.1367 71.8829 20.7167 53.5578 37.8912 43.6421L100.601 7.4368Z" fill="black"/>
</mask>
<g mask="url(#mask0_112_25723)">
<rect width="256" height="256" fill="#FF1920"/>
<mask id="mask1_112_25723" style="mask-type:alpha" maskUnits="userSpaceOnUse" x="10" y="0" width="237" height="256">
<path d="M100.601 7.4368C117.775 -2.47893 138.935 -2.47893 156.11 7.4368L218.819 43.6421C235.994 53.5579 246.574 71.8829 246.574 91.7144V164.125C246.574 183.956 235.994 202.281 218.819 212.197L156.11 248.403C138.935 258.318 117.775 258.318 100.601 248.403L37.8912 212.197C20.7167 202.281 10.1367 183.956 10.1367 164.125V91.7144C10.1367 71.8829 20.7167 53.5578 37.8912 43.6421L100.601 7.4368Z" fill="#9B46E0"/>
</mask>
<g mask="url(#mask1_112_25723)">
<g filter="url(#filter0_f_112_25723)">
<mask id="mask2_112_25723" style="mask-type:alpha" maskUnits="userSpaceOnUse" x="-1" y="-13" width="259" height="280">
<path fill-rule="evenodd" clip-rule="evenodd" d="M158.903 -4.86089C140.09 -15.713 116.91 -15.713 98.0969 -4.86089L29.4031 34.7635C10.5896 45.6157 -1 65.6713 -1 87.3756V166.624C-1 188.329 10.5896 208.384 29.4031 219.236L98.0969 258.861C116.91 269.713 140.09 269.713 158.903 258.861L227.597 219.236C246.41 208.384 258 188.329 258 166.624V87.3756C258 65.6713 246.41 45.6157 227.597 34.7635L158.903 -4.86089ZM110.206 232.99C118.273 246.962 138.439 246.962 146.506 232.99L228.425 91.1025C236.491 77.1308 226.408 59.6662 210.275 59.6662L46.437 59.6662C30.3039 59.6662 20.2207 77.1308 28.2873 91.1025L110.206 232.99Z" fill="#9B46E0"/>
</mask>
<g mask="url(#mask2_112_25723)">
<path d="M151.281 -6.49614C140.934 -12.5013 115.066 -12.5013 104.719 -6.49615L-0.358358 54.4884C-10.7053 60.4936 2.22836 68 22.9223 68L233.078 68C253.772 68 266.705 60.4936 256.358 54.4884L151.281 -6.49614Z" fill="black" fill-opacity="0.25"/>
<path d="M233.109 214.557C243.28 208.688 255.99 186.674 255.987 174.93L255.954 55.6747C255.951 43.9316 243.237 51.2675 233.068 68.8793L129.806 247.734C119.638 265.346 119.642 280.025 129.814 274.156L233.109 214.557Z" fill="black" fill-opacity="0.5"/>
<path d="M22.4338 216.015C11.9133 209.945 -1.233 187.175 -1.22964 175.029L-1.19553 51.6816C-1.19217 39.5356 11.9583 47.1232 22.4754 65.3393L129.28 250.331C139.797 268.547 139.793 283.729 129.273 277.659L22.4338 216.015Z" fill="black" fill-opacity="0.35"/>
</g>
</g>
</g>
</g>
<path d="M128.035 179.299C118.275 179.299 111.268 177.36 107.014 173.481C102.76 169.602 100.591 163.158 100.508 154.15C100.466 147.101 100.425 140.637 100.383 134.756C100.341 128.875 100.32 123.662 100.32 119.116C100.32 114.569 100.341 110.837 100.383 107.917C100.425 104.956 100.466 102.891 100.508 101.724C100.883 93.2153 103.428 86.9175 108.14 82.8302C112.895 78.7429 119.485 76.6992 127.91 76.6992C136.668 76.6992 143.362 78.868 147.992 83.2056C152.621 87.5431 155.061 93.3821 155.311 100.723C155.353 101.598 155.374 102.37 155.374 103.037C155.416 103.705 155.416 104.455 155.374 105.29C155.374 106.124 155.353 107.229 155.311 108.605H136.293C136.418 107.271 136.481 106.186 136.481 105.352C136.522 104.476 136.522 103.538 136.481 102.537C136.439 101.494 136.376 100.055 136.293 98.2202C136.251 96.3434 135.563 94.8419 134.228 93.7158C132.935 92.548 130.871 91.9641 128.035 91.9641C125.282 91.9641 123.218 92.5063 121.841 93.5907C120.465 94.6751 119.735 96.2182 119.652 98.2202C119.527 101.598 119.401 105.331 119.276 109.419C119.193 113.464 119.151 117.739 119.151 122.244H122.529C123.739 120.158 125.637 118.427 128.223 117.051C130.85 115.675 133.874 114.987 137.294 114.987C144.384 114.987 149.243 116.655 151.871 119.991C154.54 123.286 155.937 128.792 156.062 136.508C156.104 139.135 156.125 141.304 156.125 143.014C156.166 144.724 156.166 146.413 156.125 148.081C156.125 149.708 156.062 151.731 155.937 154.15C155.437 163.158 153.08 169.602 148.868 173.481C144.697 177.36 137.753 179.299 128.035 179.299ZM128.16 164.034C130.996 164.034 133.123 163.492 134.541 162.408C136.001 161.282 136.752 159.697 136.793 157.653C136.877 155.443 136.939 153.441 136.981 151.647C137.023 149.812 137.064 148.081 137.106 146.455C137.148 144.828 137.169 143.243 137.169 141.7C137.169 140.157 137.127 138.593 137.044 137.008C137.002 134.881 136.189 133.275 134.604 132.191C133.061 131.065 131.038 130.502 128.535 130.502C125.741 130.502 123.489 131.044 121.779 132.128C120.11 133.213 119.235 134.756 119.151 136.758C119.151 140.136 119.172 143.556 119.214 147.018C119.297 150.479 119.401 153.941 119.527 157.403C119.61 159.53 120.382 161.177 121.841 162.345C123.301 163.471 125.407 164.034 128.16 164.034Z" fill="white"/>
<g filter="url(#filter1_f_112_25723)">
<path d="M46.1392 88.8365C46.1392 104.243 68.7959 141.325 80.1243 157.94C73.7993 149.254 59.5067 128.882 52.9362 116.874C44.7231 101.864 31.6955 80.6234 39.6254 72.6935C45.9692 66.3496 71.7224 64.7637 83.806 64.7637H148.378C174.15 64.7637 195.202 71.3719 202.188 74.676C202.188 74.676 171.318 69.0118 148.378 69.0118H83.806C69.0791 69.0118 46.1392 69.5782 46.1392 88.8365Z" fill="url(#paint0_radial_112_25723)"/>
</g>
<defs>
<filter id="filter0_f_112_25723" x="-13" y="-23" width="283" height="302" filterUnits="userSpaceOnUse" color-interpolation-filters="sRGB">
<feFlood flood-opacity="0" result="BackgroundImageFix"/>
<feBlend mode="normal" in="SourceGraphic" in2="BackgroundImageFix" result="shape"/>
<feGaussianBlur stdDeviation="6" result="effect1_foregroundBlur_112_25723"/>
</filter>
<filter id="filter1_f_112_25723" x="31.496" y="59.0995" width="176.356" height="104.504" filterUnits="userSpaceOnUse" color-interpolation-filters="sRGB">
<feFlood flood-opacity="0" result="BackgroundImageFix"/>
<feBlend mode="normal" in="SourceGraphic" in2="BackgroundImageFix" result="shape"/>
<feGaussianBlur stdDeviation="2.83209" result="effect1_foregroundBlur_112_25723"/>
</filter>
<radialGradient id="paint0_radial_112_25723" cx="0" cy="0" r="1" gradientUnits="userSpaceOnUse" gradientTransform="translate(37.1602 71.5607) rotate(34.3188) scale(171.795 304.273)">
<stop stop-color="white"/>
<stop offset="1" stop-color="white" stop-opacity="0"/>
</radialGradient>
</defs>
</svg>
