<svg width="256" height="256" viewBox="0 0 256 256" fill="none" xmlns="http://www.w3.org/2000/svg">
<metadata>
  <rdf:RDF xmlns:rdf="http://www.w3.org/1999/02/22-rdf-syntax-ns#"
            xmlns:dc="http://purl.org/dc/elements/1.1/">
    <rdf:Description>
      <dc:title>swrpg-online.com art asset</dc:title>
      <dc:creator>Joshua Ziggas</dc:creator>
      <dc:rights>CC BY-NC-SA 4.0 - https://github.com/swrpg-online/art</dc:rights>
    </rdf:Description>
  </rdf:RDF>
</metadata>
<desc>
  wrpg-online.com SWRPG Dice Asset
  Created by: Joshua Ziggas
  Source: https://github.com/swrpg-online/art
  License: CC BY-NC-SA 4.0
</desc><mask id="mask0_112_25721" style="mask-type:alpha" maskUnits="userSpaceOnUse" x="10" y="0" width="237" height="256">
<path d="M100.601 7.4368C117.775 -2.47893 138.935 -2.47893 156.11 7.4368L218.819 43.6421C235.994 53.5579 246.574 71.8829 246.574 91.7144V164.125C246.574 183.956 235.994 202.281 218.819 212.197L156.11 248.403C138.935 258.318 117.775 258.318 100.601 248.403L37.8912 212.197C20.7167 202.281 10.1367 183.956 10.1367 164.125V91.7144C10.1367 71.8829 20.7167 53.5578 37.8912 43.6421L100.601 7.4368Z" fill="black"/>
</mask>
<g mask="url(#mask0_112_25721)">
<rect width="256" height="256" fill="#FF1920"/>
<mask id="mask1_112_25721" style="mask-type:alpha" maskUnits="userSpaceOnUse" x="10" y="0" width="237" height="256">
<path d="M100.601 7.4368C117.775 -2.47893 138.935 -2.47893 156.11 7.4368L218.819 43.6421C235.994 53.5579 246.574 71.8829 246.574 91.7144V164.125C246.574 183.956 235.994 202.281 218.819 212.197L156.11 248.403C138.935 258.318 117.775 258.318 100.601 248.403L37.8912 212.197C20.7167 202.281 10.1367 183.956 10.1367 164.125V91.7144C10.1367 71.8829 20.7167 53.5578 37.8912 43.6421L100.601 7.4368Z" fill="#9B46E0"/>
</mask>
<g mask="url(#mask1_112_25721)">
<g filter="url(#filter0_f_112_25721)">
<mask id="mask2_112_25721" style="mask-type:alpha" maskUnits="userSpaceOnUse" x="-1" y="-13" width="259" height="280">
<path fill-rule="evenodd" clip-rule="evenodd" d="M158.903 -4.86089C140.09 -15.713 116.91 -15.713 98.0969 -4.86089L29.4031 34.7635C10.5896 45.6157 -1 65.6713 -1 87.3756V166.624C-1 188.329 10.5896 208.384 29.4031 219.236L98.0969 258.861C116.91 269.713 140.09 269.713 158.903 258.861L227.597 219.236C246.41 208.384 258 188.329 258 166.624V87.3756C258 65.6713 246.41 45.6157 227.597 34.7635L158.903 -4.86089ZM110.206 232.99C118.273 246.962 138.439 246.962 146.506 232.99L228.425 91.1025C236.491 77.1308 226.408 59.6662 210.275 59.6662L46.437 59.6662C30.3039 59.6662 20.2207 77.1308 28.2873 91.1025L110.206 232.99Z" fill="#9B46E0"/>
</mask>
<g mask="url(#mask2_112_25721)">
<path d="M151.281 -6.49614C140.934 -12.5013 115.066 -12.5013 104.719 -6.49615L-0.358358 54.4884C-10.7053 60.4936 2.22836 68 22.9223 68L233.078 68C253.772 68 266.705 60.4936 256.358 54.4884L151.281 -6.49614Z" fill="black" fill-opacity="0.25"/>
<path d="M233.109 214.557C243.28 208.688 255.99 186.674 255.987 174.93L255.954 55.6747C255.951 43.9316 243.237 51.2675 233.068 68.8793L129.806 247.734C119.638 265.346 119.642 280.025 129.814 274.156L233.109 214.557Z" fill="black" fill-opacity="0.5"/>
<path d="M22.4338 216.015C11.9133 209.945 -1.233 187.175 -1.22964 175.029L-1.19553 51.6816C-1.19217 39.5356 11.9583 47.1232 22.4754 65.3393L129.28 250.331C139.797 268.547 139.793 283.729 129.273 277.659L22.4338 216.015Z" fill="black" fill-opacity="0.35"/>
</g>
</g>
</g>
</g>
<path d="M128.156 179.299C118.271 179.299 111.265 177.276 107.136 173.231C103.007 169.143 100.754 162.783 100.379 154.15C100.337 152.898 100.316 151.918 100.316 151.209C100.316 150.459 100.337 149.708 100.379 148.957C100.421 148.206 100.504 147.143 100.629 145.767C101.088 141.137 102.235 137.508 104.07 134.881C105.905 132.212 108.637 130.126 112.266 128.625V125.997C109.763 125.121 107.553 123.683 105.634 121.681C103.757 119.679 102.506 117.155 101.88 114.111C101.672 113.11 101.484 111.879 101.317 110.42C101.192 108.918 101.088 107.417 101.005 105.915C100.963 104.372 100.963 103.017 101.005 101.849C101.463 93.0068 103.716 86.6047 107.761 82.6425C111.807 78.6803 118.605 76.6992 128.156 76.6992C137.415 76.6992 144.151 78.6386 148.363 82.5174C152.576 86.3962 154.89 92.84 155.308 101.849C155.349 103.017 155.328 104.372 155.245 105.915C155.203 107.417 155.099 108.918 154.932 110.42C154.807 111.879 154.64 113.11 154.432 114.111C153.806 117.155 152.534 119.679 150.615 121.681C148.739 123.683 146.549 125.121 144.047 125.997V128.75C147.383 130.251 149.99 132.358 151.867 135.069C153.785 137.738 155.057 141.262 155.683 145.641C155.933 147.393 156.058 148.895 156.058 150.146C156.058 151.355 156.017 152.69 155.933 154.15C155.516 163.075 153.18 169.498 148.926 173.418C144.714 177.339 137.79 179.299 128.156 179.299ZM128.156 164.034C131.117 164.034 133.286 163.409 134.662 162.158C136.08 160.865 136.789 159.029 136.789 156.652C136.789 155.234 136.789 153.816 136.789 152.398C136.789 150.938 136.789 149.499 136.789 148.081C136.789 146.622 136.789 145.183 136.789 143.765C136.789 141.387 136.08 139.573 134.662 138.322C133.286 137.029 131.117 136.382 128.156 136.382C125.237 136.382 123.068 137.029 121.65 138.322C120.232 139.573 119.523 141.387 119.523 143.765C119.523 145.892 119.523 148.04 119.523 150.208C119.523 152.377 119.523 154.525 119.523 156.652C119.523 159.029 120.232 160.865 121.65 162.158C123.068 163.409 125.237 164.034 128.156 164.034ZM128.156 118.49C131.034 118.49 133.182 117.864 134.6 116.613C136.06 115.32 136.789 113.485 136.789 111.108C136.789 109.148 136.789 107.187 136.789 105.227C136.789 103.225 136.789 101.265 136.789 99.3463C136.789 96.969 136.08 95.1547 134.662 93.9035C133.286 92.6106 131.117 91.9641 128.156 91.9641C125.278 91.9641 123.109 92.6106 121.65 93.9035C120.232 95.1547 119.523 96.969 119.523 99.3463C119.523 100.306 119.523 101.286 119.523 102.287C119.523 103.246 119.523 104.226 119.523 105.227C119.523 106.228 119.523 107.229 119.523 108.23C119.523 109.189 119.523 110.148 119.523 111.108C119.523 113.485 120.232 115.32 121.65 116.613C123.109 117.864 125.278 118.49 128.156 118.49Z" fill="white"/>
<g filter="url(#filter1_f_112_25721)">
<path d="M46.1392 88.8365C46.1392 104.243 68.7959 141.325 80.1243 157.94C73.7993 149.254 59.5067 128.882 52.9362 116.874C44.7231 101.864 31.6955 80.6234 39.6254 72.6935C45.9692 66.3496 71.7224 64.7637 83.806 64.7637H148.378C174.15 64.7637 195.202 71.3719 202.188 74.676C202.188 74.676 171.318 69.0118 148.378 69.0118H83.806C69.0791 69.0118 46.1392 69.5782 46.1392 88.8365Z" fill="url(#paint0_radial_112_25721)"/>
</g>
<defs>
<filter id="filter0_f_112_25721" x="-13" y="-23" width="283" height="302" filterUnits="userSpaceOnUse" color-interpolation-filters="sRGB">
<feFlood flood-opacity="0" result="BackgroundImageFix"/>
<feBlend mode="normal" in="SourceGraphic" in2="BackgroundImageFix" result="shape"/>
<feGaussianBlur stdDeviation="6" result="effect1_foregroundBlur_112_25721"/>
</filter>
<filter id="filter1_f_112_25721" x="31.496" y="59.0995" width="176.356" height="104.504" filterUnits="userSpaceOnUse" color-interpolation-filters="sRGB">
<feFlood flood-opacity="0" result="BackgroundImageFix"/>
<feBlend mode="normal" in="SourceGraphic" in2="BackgroundImageFix" result="shape"/>
<feGaussianBlur stdDeviation="2.83209" result="effect1_foregroundBlur_112_25721"/>
</filter>
<radialGradient id="paint0_radial_112_25721" cx="0" cy="0" r="1" gradientUnits="userSpaceOnUse" gradientTransform="translate(37.1602 71.5607) rotate(34.3188) scale(171.795 304.273)">
<stop stop-color="white"/>
<stop offset="1" stop-color="white" stop-opacity="0"/>
</radialGradient>
</defs>
</svg>
