<svg width="256" height="256" viewBox="0 0 256 256" fill="none" xmlns="http://www.w3.org/2000/svg">
<metadata>
  <rdf:RDF xmlns:rdf="http://www.w3.org/1999/02/22-rdf-syntax-ns#"
            xmlns:dc="http://purl.org/dc/elements/1.1/">
    <rdf:Description>
      <dc:title>swrpg-online.com art asset</dc:title>
      <dc:creator>Joshua Ziggas</dc:creator>
      <dc:rights>CC BY-NC-SA 4.0 - https://github.com/swrpg-online/art</dc:rights>
    </rdf:Description>
  </rdf:RDF>
</metadata>
<desc>
  wrpg-online.com SWRPG Dice Asset
  Created by: Joshua Ziggas
  Source: https://github.com/swrpg-online/art
  License: CC BY-NC-SA 4.0
</desc><g clip-path="url(#clip0_112_14401)">
<mask id="mask0_112_14401" style="mask-type:alpha" maskUnits="userSpaceOnUse" x="-1" y="14" width="257" height="227">
<path d="M110.379 235.925C121.123 242.653 134.766 242.653 145.511 235.925L236.466 178.966C240.042 176.727 243.006 173.634 245.09 169.965C259.672 144.301 259.62 112.765 245.038 87.1004C242.991 83.4977 240.091 80.4353 236.601 78.201L145.79 20.0602C134.913 13.0958 120.977 13.0958 110.099 20.0602L19.2882 78.201C15.7985 80.4353 12.8983 83.4977 10.8513 87.1004C-3.73072 112.765 -3.78287 144.301 10.7991 169.965C12.8836 173.634 15.8472 176.727 19.4234 178.966L110.379 235.925Z" fill="#D1D1D1"/>
</mask>
<g mask="url(#mask0_112_14401)">
<rect width="256" height="256" fill="#DBDBDB"/>
<g style="mix-blend-mode:multiply">
<g filter="url(#filter0_f_112_14401)">
<path fill-rule="evenodd" clip-rule="evenodd" d="M264.336 9.53711H-8.97852V246.552H264.336V9.53711ZM95.381 68.537L95.3817 68.5353C102.71 51.0425 113.837 24.484 126.611 24.484C139.385 24.484 150.511 51.0425 157.84 68.5353C158.931 71.1388 159.937 73.5415 160.853 75.6259C161.401 76.8737 162.017 78.2598 162.689 79.7689C170.674 97.7177 186.398 133.063 186.398 160.096C186.398 189.402 155.961 212.387 126.611 212.387C97.2607 212.387 66.8234 189.402 66.8234 160.096C66.8234 133.063 82.5479 97.7177 90.533 79.7689L90.533 79.7688C91.2044 78.2597 91.821 76.8737 92.369 75.6259C93.2842 73.5419 94.2905 71.1398 95.381 68.537Z" fill="#D8D6D6"/>
</g>
<g filter="url(#filter1_f_112_14401)">
<path d="M162.457 209.277C140.502 221.499 113.787 221.499 91.8317 209.277L75.3642 200.109C70.204 197.44 57.3212 190.928 47.072 186.23C43.3907 184.543 39.4451 182.988 35.5136 181.438C25.7625 177.595 16.0985 173.787 10.7724 168.08C4.79368 161.674 2.23136 155.091 1.69754 152.6H-3.64062V256.694H257.93V152.6H252.591C252.058 155.091 249.495 161.674 243.517 168.08C238.19 173.787 228.526 177.595 218.775 181.438C214.844 182.988 210.898 184.543 207.217 186.23C196.968 190.928 184.085 197.44 178.925 200.109L162.457 209.277Z" fill="#595959"/>
</g>
<g filter="url(#filter2_f_112_14401)">
<path d="M179.438 105.141C169.73 84.5722 145.997 32.61 151.391 26.656C154.627 22.867 168.112 29.3623 184.293 38.0227C200.474 46.6831 233.376 69.9578 244.163 80.7833C254.95 91.6087 261.423 112.718 260.344 131.663C259.265 150.607 248.478 177.13 227.982 171.176C207.486 165.222 189.147 125.709 179.438 105.141Z" fill="#B9B9B9"/>
</g>
<g filter="url(#filter3_f_112_14401)">
<path d="M74.8507 105.141C84.5594 84.5722 108.292 32.61 102.898 26.656C99.6618 22.867 86.1775 29.3623 69.9964 38.0227C53.8152 46.6831 20.9135 69.9578 10.1261 80.7833C-0.661392 91.6087 -7.13386 112.718 -6.05511 131.663C-4.97637 150.607 5.81107 177.13 26.3072 171.176C46.8034 165.222 65.142 125.709 74.8507 105.141Z" fill="#C7C7C7"/>
</g>
</g>
</g>
<path d="M128.03 188.2C119.811 188.2 113.911 186.567 110.328 183.3C106.746 180.034 104.92 174.608 104.849 167.021C104.814 161.086 104.779 155.642 104.744 150.69C104.709 145.737 104.691 141.347 104.691 137.519C104.691 133.691 104.709 130.547 104.744 128.089C104.779 125.595 104.814 123.856 104.849 122.873C105.166 115.708 107.308 110.405 111.277 106.963C115.281 103.521 120.83 101.8 127.925 101.8C135.3 101.8 140.937 103.626 144.836 107.279C148.734 110.932 150.789 115.849 151 122.03C151.035 122.768 151.052 123.417 151.052 123.979C151.088 124.541 151.088 125.173 151.052 125.876C151.052 126.578 151.035 127.509 151 128.668H134.984C135.089 127.544 135.142 126.631 135.142 125.929C135.177 125.191 135.177 124.401 135.142 123.558C135.107 122.68 135.054 121.468 134.984 119.923C134.949 118.342 134.369 117.078 133.246 116.13C132.157 115.146 130.418 114.654 128.03 114.654C125.712 114.654 123.973 115.111 122.814 116.024C121.655 116.937 121.041 118.237 120.97 119.923C120.865 122.768 120.76 125.911 120.654 129.353C120.584 132.76 120.549 136.36 120.549 140.153H123.394C124.412 138.397 126.01 136.939 128.188 135.78C130.401 134.621 132.947 134.042 135.827 134.042C141.798 134.042 145.889 135.447 148.102 138.256C150.35 141.031 151.527 145.667 151.632 152.165C151.667 154.377 151.685 156.204 151.685 157.644C151.72 159.084 151.72 160.506 151.685 161.911C151.685 163.281 151.632 164.984 151.527 167.021C151.105 174.608 149.121 180.034 145.573 183.3C142.061 186.567 136.213 188.2 128.03 188.2ZM128.135 175.345C130.524 175.345 132.315 174.889 133.509 173.975C134.738 173.027 135.37 171.692 135.406 169.972C135.476 168.11 135.528 166.424 135.564 164.914C135.599 163.369 135.634 161.911 135.669 160.541C135.704 159.172 135.722 157.837 135.722 156.537C135.722 155.238 135.687 153.921 135.616 152.586C135.581 150.795 134.896 149.443 133.562 148.53C132.262 147.581 130.559 147.107 128.451 147.107C126.098 147.107 124.202 147.564 122.762 148.477C121.357 149.39 120.619 150.69 120.549 152.375C120.549 155.22 120.567 158.1 120.602 161.015C120.672 163.931 120.76 166.846 120.865 169.761C120.935 171.552 121.585 172.939 122.814 173.923C124.044 174.871 125.817 175.345 128.135 175.345Z" fill="black"/>
<g filter="url(#filter4_f_112_14401)">
<path fill-rule="evenodd" clip-rule="evenodd" d="M93.2454 69.5637L93.2458 69.5629C100.574 52.5103 111.701 26.6201 124.475 26.6201C126.141 26.6201 127.779 27.0605 129.384 27.8643C117.239 29.8124 106.693 54.9551 99.6516 71.7404C98.5609 74.3406 97.5543 76.7403 96.6389 78.8222C96.0909 80.0684 95.4743 81.4527 94.803 82.9598L94.8029 82.96C86.8178 100.886 71.0933 136.188 71.0933 163.188C71.0933 176.477 77.3683 188.466 86.9673 197.594C73.8495 188.313 64.6875 174.494 64.6875 158.82C64.6875 132.467 80.412 98.0108 88.3971 80.5138L88.3977 80.5123C89.0688 79.0418 89.6852 77.6911 90.2331 76.475C91.1483 74.4433 92.1548 72.1013 93.2454 69.5637Z" fill="white"/>
</g>
</g>
<defs>
<filter id="filter0_f_112_14401" x="-18.9785" y="-0.462891" width="293.314" height="257.015" filterUnits="userSpaceOnUse" color-interpolation-filters="sRGB">
<feFlood flood-opacity="0" result="BackgroundImageFix"/>
<feBlend mode="normal" in="SourceGraphic" in2="BackgroundImageFix" result="shape"/>
<feGaussianBlur stdDeviation="5" result="effect1_foregroundBlur_112_14401"/>
</filter>
<filter id="filter1_f_112_14401" x="-13.6406" y="142.6" width="281.57" height="124.095" filterUnits="userSpaceOnUse" color-interpolation-filters="sRGB">
<feFlood flood-opacity="0" result="BackgroundImageFix"/>
<feBlend mode="normal" in="SourceGraphic" in2="BackgroundImageFix" result="shape"/>
<feGaussianBlur stdDeviation="5" result="effect1_foregroundBlur_112_14401"/>
</filter>
<filter id="filter2_f_112_14401" x="140.604" y="15.5518" width="129.857" height="166.477" filterUnits="userSpaceOnUse" color-interpolation-filters="sRGB">
<feFlood flood-opacity="0" result="BackgroundImageFix"/>
<feBlend mode="normal" in="SourceGraphic" in2="BackgroundImageFix" result="shape"/>
<feGaussianBlur stdDeviation="5" result="effect1_foregroundBlur_112_14401"/>
</filter>
<filter id="filter3_f_112_14401" x="-16.1719" y="15.5518" width="129.857" height="166.477" filterUnits="userSpaceOnUse" color-interpolation-filters="sRGB">
<feFlood flood-opacity="0" result="BackgroundImageFix"/>
<feBlend mode="normal" in="SourceGraphic" in2="BackgroundImageFix" result="shape"/>
<feGaussianBlur stdDeviation="5" result="effect1_foregroundBlur_112_14401"/>
</filter>
<filter id="filter4_f_112_14401" x="60.6875" y="22.6201" width="72.6973" height="178.975" filterUnits="userSpaceOnUse" color-interpolation-filters="sRGB">
<feFlood flood-opacity="0" result="BackgroundImageFix"/>
<feBlend mode="normal" in="SourceGraphic" in2="BackgroundImageFix" result="shape"/>
<feGaussianBlur stdDeviation="2" result="effect1_foregroundBlur_112_14401"/>
</filter>
<clipPath id="clip0_112_14401">
<rect width="256" height="256" fill="white"/>
</clipPath>
</defs>
</svg>
