<svg width="256" height="256" viewBox="0 0 256 256" fill="none" xmlns="http://www.w3.org/2000/svg">
<metadata>
  <rdf:RDF xmlns:rdf="http://www.w3.org/1999/02/22-rdf-syntax-ns#"
            xmlns:dc="http://purl.org/dc/elements/1.1/">
    <rdf:Description>
      <dc:title>swrpg-online.com art asset</dc:title>
      <dc:creator>Joshua Ziggas</dc:creator>
      <dc:rights>CC BY-NC-SA 4.0 - https://github.com/swrpg-online/art</dc:rights>
    </rdf:Description>
  </rdf:RDF>
</metadata>
<desc>
  wrpg-online.com SWRPG Dice Asset
  Created by: Joshua Ziggas
  Source: https://github.com/swrpg-online/art
  License: CC BY-NC-SA 4.0
</desc><g clip-path="url(#clip0_112_14407)">
<mask id="mask0_112_14407" style="mask-type:alpha" maskUnits="userSpaceOnUse" x="-1" y="14" width="257" height="227">
<path d="M110.379 235.925C121.123 242.653 134.766 242.653 145.511 235.925L236.466 178.967C240.042 176.727 243.006 173.634 245.09 169.966C259.672 144.301 259.62 112.765 245.038 87.1009C242.991 83.4981 240.091 80.4357 236.601 78.2015L145.79 20.0607C134.913 13.0963 120.977 13.0963 110.099 20.0607L19.2882 78.2015C15.7985 80.4357 12.8983 83.4981 10.8513 87.1009C-3.73072 112.765 -3.78287 144.301 10.7991 169.966C12.8836 173.634 15.8472 176.727 19.4234 178.967L110.379 235.925Z" fill="#D1D1D1"/>
</mask>
<g mask="url(#mask0_112_14407)">
<rect width="256" height="256" fill="#DBDBDB"/>
<g style="mix-blend-mode:multiply">
<g filter="url(#filter0_f_112_14407)">
<path fill-rule="evenodd" clip-rule="evenodd" d="M264.336 9.53809H-8.97852V246.553H264.336V9.53809ZM95.381 68.538L95.3817 68.5363C102.71 51.0434 113.837 24.4849 126.611 24.4849C139.385 24.4849 150.511 51.0434 157.84 68.5363C158.931 71.1398 159.937 73.5424 160.853 75.6269C161.401 76.8747 162.017 78.2608 162.689 79.7699C170.674 97.7186 186.398 133.064 186.398 160.097C186.398 189.403 155.961 212.388 126.611 212.388C97.2607 212.388 66.8234 189.403 66.8234 160.097C66.8234 133.064 82.5479 97.7186 90.533 79.7699L90.533 79.7697C91.2044 78.2607 91.821 76.8747 92.369 75.6269C93.2842 73.5429 94.2905 71.1408 95.381 68.538Z" fill="#D8D6D6"/>
</g>
<g filter="url(#filter1_f_112_14407)">
<path d="M162.457 209.278C140.502 221.5 113.787 221.5 91.8317 209.278L75.3642 200.11C70.204 197.441 57.3212 190.929 47.072 186.231C43.3907 184.544 39.4451 182.989 35.5136 181.439C25.7625 177.596 16.0985 173.788 10.7724 168.081C4.79368 161.675 2.23136 155.092 1.69754 152.601H-3.64062V256.695H257.93V152.601H252.591C252.058 155.092 249.495 161.675 243.517 168.081C238.19 173.788 228.526 177.596 218.775 181.439C214.844 182.989 210.898 184.544 207.217 186.231C196.968 190.929 184.085 197.441 178.925 200.11L162.457 209.278Z" fill="#595959"/>
</g>
<g filter="url(#filter2_f_112_14407)">
<path d="M179.438 105.142C169.73 84.5731 145.997 32.6109 151.391 26.6569C154.627 22.868 168.112 29.3633 184.293 38.0237C200.474 46.684 233.376 69.9588 244.163 80.7842C254.95 91.6097 261.423 112.719 260.344 131.664C259.265 150.608 248.478 177.131 227.982 171.177C207.486 165.223 189.147 125.71 179.438 105.142Z" fill="#B9B9B9"/>
</g>
<g filter="url(#filter3_f_112_14407)">
<path d="M74.8507 105.142C84.5594 84.5731 108.292 32.6109 102.898 26.6569C99.6618 22.868 86.1775 29.3633 69.9964 38.0237C53.8152 46.684 20.9135 69.9588 10.1261 80.7842C-0.661392 91.6097 -7.13386 112.719 -6.05511 131.664C-4.97637 150.608 5.81107 177.131 26.3072 171.177C46.8034 165.223 65.142 125.71 74.8507 105.142Z" fill="#C7C7C7"/>
</g>
</g>
</g>
<path d="M128.277 188.2C120.901 188.2 115.211 186.373 111.208 182.721C107.239 179.033 105.167 173.8 104.991 167.021C104.85 161.929 104.763 156.906 104.728 151.954C104.692 147.002 104.692 142.102 104.728 137.255C104.798 132.409 104.886 127.614 104.991 122.873C105.167 116.059 107.256 110.844 111.26 107.226C115.299 103.609 120.971 101.8 128.277 101.8C135.512 101.8 141.131 103.609 145.135 107.226C149.139 110.844 151.247 116.059 151.457 122.873C151.598 127.017 151.703 130.986 151.773 134.779C151.844 138.572 151.879 142.26 151.879 145.843C151.879 149.425 151.844 152.972 151.773 156.485C151.703 159.962 151.598 163.474 151.457 167.021C151.211 174.081 149.034 179.384 144.925 182.932C140.85 186.444 135.301 188.2 128.277 188.2ZM128.277 175.345C132.772 175.345 135.126 173.659 135.336 170.288C135.617 164.457 135.793 158.908 135.863 153.64C135.968 148.336 135.968 142.963 135.863 137.519C135.793 132.04 135.617 126.139 135.336 119.817C135.231 116.375 132.878 114.654 128.277 114.654C123.606 114.654 121.217 116.411 121.112 119.923C120.936 124.383 120.796 128.633 120.69 132.672C120.62 136.711 120.585 140.697 120.585 144.631C120.585 148.565 120.62 152.604 120.69 156.748C120.796 160.892 120.936 165.3 121.112 169.972C121.217 173.554 123.606 175.345 128.277 175.345Z" fill="black"/>
<g filter="url(#filter4_f_112_14407)">
<path fill-rule="evenodd" clip-rule="evenodd" d="M93.2454 69.5637L93.2458 69.5629C100.574 52.5103 111.701 26.6201 124.475 26.6201C126.141 26.6201 127.779 27.0605 129.384 27.8643C117.239 29.8124 106.693 54.9551 99.6516 71.7404C98.5609 74.3406 97.5543 76.7403 96.6389 78.8222C96.0909 80.0684 95.4743 81.4527 94.803 82.9598L94.8029 82.96C86.8178 100.886 71.0933 136.188 71.0933 163.188C71.0933 176.477 77.3683 188.466 86.9673 197.594C73.8495 188.313 64.6875 174.494 64.6875 158.82C64.6875 132.467 80.412 98.0108 88.3971 80.5138L88.3977 80.5123C89.0688 79.0418 89.6852 77.6911 90.2331 76.475C91.1483 74.4433 92.1548 72.1013 93.2454 69.5637Z" fill="white"/>
</g>
</g>
<defs>
<filter id="filter0_f_112_14407" x="-18.9785" y="-0.461914" width="293.314" height="257.015" filterUnits="userSpaceOnUse" color-interpolation-filters="sRGB">
<feFlood flood-opacity="0" result="BackgroundImageFix"/>
<feBlend mode="normal" in="SourceGraphic" in2="BackgroundImageFix" result="shape"/>
<feGaussianBlur stdDeviation="5" result="effect1_foregroundBlur_112_14407"/>
</filter>
<filter id="filter1_f_112_14407" x="-13.6406" y="142.601" width="281.57" height="124.095" filterUnits="userSpaceOnUse" color-interpolation-filters="sRGB">
<feFlood flood-opacity="0" result="BackgroundImageFix"/>
<feBlend mode="normal" in="SourceGraphic" in2="BackgroundImageFix" result="shape"/>
<feGaussianBlur stdDeviation="5" result="effect1_foregroundBlur_112_14407"/>
</filter>
<filter id="filter2_f_112_14407" x="140.604" y="15.5527" width="129.857" height="166.477" filterUnits="userSpaceOnUse" color-interpolation-filters="sRGB">
<feFlood flood-opacity="0" result="BackgroundImageFix"/>
<feBlend mode="normal" in="SourceGraphic" in2="BackgroundImageFix" result="shape"/>
<feGaussianBlur stdDeviation="5" result="effect1_foregroundBlur_112_14407"/>
</filter>
<filter id="filter3_f_112_14407" x="-16.1719" y="15.5527" width="129.857" height="166.477" filterUnits="userSpaceOnUse" color-interpolation-filters="sRGB">
<feFlood flood-opacity="0" result="BackgroundImageFix"/>
<feBlend mode="normal" in="SourceGraphic" in2="BackgroundImageFix" result="shape"/>
<feGaussianBlur stdDeviation="5" result="effect1_foregroundBlur_112_14407"/>
</filter>
<filter id="filter4_f_112_14407" x="60.6875" y="22.6201" width="72.6973" height="178.975" filterUnits="userSpaceOnUse" color-interpolation-filters="sRGB">
<feFlood flood-opacity="0" result="BackgroundImageFix"/>
<feBlend mode="normal" in="SourceGraphic" in2="BackgroundImageFix" result="shape"/>
<feGaussianBlur stdDeviation="2" result="effect1_foregroundBlur_112_14407"/>
</filter>
<clipPath id="clip0_112_14407">
<rect width="256" height="256" fill="white"/>
</clipPath>
</defs>
</svg>
