<svg width="256" height="256" viewBox="0 0 256 256" fill="none" xmlns="http://www.w3.org/2000/svg">
<metadata>
  <rdf:RDF xmlns:rdf="http://www.w3.org/1999/02/22-rdf-syntax-ns#"
            xmlns:dc="http://purl.org/dc/elements/1.1/">
    <rdf:Description>
      <dc:title>swrpg-online.com art asset</dc:title>
      <dc:creator>Joshua Ziggas</dc:creator>
      <dc:rights>CC BY-NC-SA 4.0 - https://github.com/swrpg-online/art</dc:rights>
    </rdf:Description>
  </rdf:RDF>
</metadata>
<desc>
  wrpg-online.com SWRPG Dice Asset
  Created by: Joshua Ziggas
  Source: https://github.com/swrpg-online/art
  License: CC BY-NC-SA 4.0
</desc><mask id="mask0_112_14363" style="mask-type:luminance" maskUnits="userSpaceOnUse" x="6" y="2" width="244" height="252">
<path d="M114.626 4.34533C123.318 1.52112 132.681 1.52111 141.373 4.34533L189.668 20.0373C198.36 22.8615 205.935 28.365 211.307 35.7589L241.155 76.841C246.527 84.2349 249.42 93.1397 249.42 102.279V153.059C249.42 162.199 246.527 171.103 241.155 178.497L211.307 219.58C205.935 226.973 198.36 232.477 189.668 235.301L141.373 250.993C132.681 253.817 123.318 253.817 114.626 250.993L66.3308 235.301C57.6387 232.477 50.0639 226.973 44.6919 219.58L14.844 178.497C9.47199 171.103 6.57865 162.199 6.57865 153.059V102.279C6.57865 93.1397 9.47198 84.2349 14.844 76.841L44.6919 35.7589C50.0639 28.365 57.6387 22.8615 66.3307 20.0373L114.626 4.34533Z" fill="white"/>
</mask>
<g mask="url(#mask0_112_14363)">
<rect width="256" height="256" fill="#DBDBDB"/>
<g filter="url(#filter0_f_112_14363)">
<path d="M50.0996 9.81476L135.445 -6.13379V48.8249H121.259V9.81476L52.8045 23.0787L50.0996 9.81476Z" fill="url(#paint0_linear_112_14363)" fill-opacity="0.15"/>
<rect x="169.168" y="196.272" width="14.1855" height="78.0203" transform="rotate(-36 169.168 196.272)" fill="url(#paint1_linear_112_14363)" fill-opacity="0.3"/>
<path d="M-5.07812 91.2408L43.0683 14.9639L61.4613 21.4555L18.1181 84.7518L55.219 96.8066L50.8355 110.298L-5.07812 91.2408Z" fill="url(#paint2_linear_112_14363)" fill-opacity="0.25"/>
<rect x="205.871" y="110.299" width="14.1855" height="78.0203" transform="rotate(-108 205.871 110.299)" fill="url(#paint3_linear_112_14363)" fill-opacity="0.25"/>
<rect x="41.6777" y="259.393" width="14.1855" height="78.0203" transform="rotate(-144 41.6777 259.393)" fill="url(#paint4_linear_112_14363)" fill-opacity="0.25"/>
<path d="M173.311 205.927L209.145 252.45L126.499 268.5L46.8535 252.45L82.6869 205.927L173.311 205.927Z" fill="black" fill-opacity="0.35"/>
<path d="M216.11 108.421L272.06 88.5819L261 175L221.455 244.329L187.851 195.392L216.11 108.421Z" fill="black" fill-opacity="0.4"/>
<path d="M136.731 38.0625L135.152 -21.2806L210.712 14.0002L267.639 74.9765L210.712 91.8131L136.731 38.0625Z" fill="black" fill-opacity="0.2"/>
<path d="M45.2874 91.8135L-11.639 74.9769L45.2874 15.0005L120.848 -21.2803L119.269 38.0628L45.2874 91.8135Z" fill="black" fill-opacity="0.1"/>
<path d="M68.1487 195.392L34.5449 244.33L-4.00049 172.5L-16.0606 88.5823L39.8902 108.422L68.1487 195.392Z" fill="black" fill-opacity="0.25"/>
</g>
</g>
<path d="M129.227 186.3C119.676 186.3 112.774 184.361 108.52 180.482C104.307 176.603 102.201 170.201 102.201 161.276C102.201 160.608 102.201 159.899 102.201 159.149C102.201 158.398 102.201 157.626 102.201 156.834C102.243 156.042 102.284 155.228 102.326 154.394H121.345C121.303 156.271 121.261 157.96 121.22 159.462C121.178 160.921 121.22 162.694 121.345 164.779C121.47 166.656 122.075 168.178 123.159 169.346C124.243 170.472 126.183 171.035 128.977 171.035C131.438 171.035 133.336 170.514 134.67 169.471C136.005 168.429 136.735 166.781 136.86 164.529C137.068 161.318 137.214 157.71 137.298 153.706C137.381 149.702 137.444 145.385 137.485 140.756H134.608C133.607 142.799 131.959 144.53 129.665 145.948C127.371 147.325 124.473 148.013 120.969 148.013C117.424 148.013 114.067 147.262 110.897 145.761C107.769 144.218 105.225 141.778 103.265 138.441C101.304 135.104 100.324 130.746 100.324 125.366C100.324 122.905 100.324 120.778 100.324 118.985C100.324 117.149 100.324 115.585 100.324 114.293C100.324 113 100.324 111.915 100.324 111.039C100.366 110.122 100.408 109.392 100.449 108.85C100.825 99.8409 103.181 93.3972 107.519 89.5184C111.856 85.6396 118.801 83.7002 128.352 83.7002C138.111 83.7002 145.097 85.6396 149.309 89.5184C153.522 93.3972 155.712 99.8409 155.878 108.85C156.045 116.274 156.149 122.843 156.191 128.556C156.233 134.27 156.212 139.713 156.129 144.885C156.087 150.057 156.003 155.52 155.878 161.276C155.712 170.201 153.501 176.603 149.247 180.482C144.993 184.361 138.32 186.3 129.227 186.3ZM128.602 132.498C131.188 132.498 133.21 132.06 134.67 131.184C136.172 130.266 137.068 128.994 137.36 127.368C137.319 123.781 137.256 120.132 137.173 116.42C137.089 112.666 136.943 108.891 136.735 105.096C136.693 103.136 135.942 101.634 134.483 100.592C133.023 99.5073 130.937 98.9651 128.226 98.9651C125.474 98.9651 123.347 99.5073 121.845 100.592C120.344 101.676 119.593 103.261 119.593 105.346C119.593 105.638 119.572 106.681 119.53 108.474C119.53 110.268 119.51 112.353 119.468 114.73C119.468 117.108 119.447 119.381 119.405 121.55C119.405 123.677 119.426 125.241 119.468 126.242C119.551 128.244 120.427 129.787 122.095 130.871C123.805 131.956 125.974 132.498 128.602 132.498Z" fill="black"/>
<g filter="url(#filter1_f_112_14363)">
<path d="M62.4923 99.4782C57.4835 104.467 54.5573 109.682 58.5083 120.453C52.2472 110.816 53.9545 100.612 58.508 95.5099C66.6007 86.4422 90.9515 68.8656 103.474 61.4959C113.491 55.6002 126.241 46.7566 139.901 56.9608C124.533 51.2917 117.703 59.2284 110.873 63.1966C102.631 67.9849 68.7533 93.2423 62.4923 99.4782Z" fill="white"/>
</g>
<defs>
<filter id="filter0_f_112_14363" x="-26.88" y="-32.0997" width="317.772" height="311.419" filterUnits="userSpaceOnUse" color-interpolation-filters="sRGB">
<feFlood flood-opacity="0" result="BackgroundImageFix"/>
<feBlend mode="normal" in="SourceGraphic" in2="BackgroundImageFix" result="shape"/>
<feGaussianBlur stdDeviation="5.40971" result="effect1_foregroundBlur_112_14363"/>
</filter>
<filter id="filter1_f_112_14363" x="49.018" y="46.8813" width="96.2921" height="78.9815" filterUnits="userSpaceOnUse" color-interpolation-filters="sRGB">
<feFlood flood-opacity="0" result="BackgroundImageFix"/>
<feBlend mode="normal" in="SourceGraphic" in2="BackgroundImageFix" result="shape"/>
<feGaussianBlur stdDeviation="2.70486" result="effect1_foregroundBlur_112_14363"/>
</filter>
<linearGradient id="paint0_linear_112_14363" x1="128.352" y1="-29.1954" x2="128.352" y2="48.8249" gradientUnits="userSpaceOnUse">
<stop offset="0.40004"/>
<stop offset="0.770751" stop-opacity="0"/>
</linearGradient>
<linearGradient id="paint1_linear_112_14363" x1="176.261" y1="196.272" x2="176.274" y2="252.046" gradientUnits="userSpaceOnUse">
<stop stop-opacity="0"/>
<stop offset="0.44519"/>
</linearGradient>
<linearGradient id="paint2_linear_112_14363" x1="52.2438" y1="103.558" x2="6.82333" y2="87.454" gradientUnits="userSpaceOnUse">
<stop offset="0.487821" stop-opacity="0"/>
<stop offset="1"/>
</linearGradient>
<linearGradient id="paint3_linear_112_14363" x1="216.762" y1="109.731" x2="217.403" y2="150.481" gradientUnits="userSpaceOnUse">
<stop stop-opacity="0"/>
<stop offset="1"/>
</linearGradient>
<linearGradient id="paint4_linear_112_14363" x1="48.7705" y1="337.413" x2="48.6781" y2="291.64" gradientUnits="userSpaceOnUse">
<stop stop-opacity="0"/>
<stop offset="0.482933"/>
</linearGradient>
</defs>
</svg>
