<svg width="256" height="256" viewBox="0 0 256 256" fill="none" xmlns="http://www.w3.org/2000/svg">
<metadata>
  <rdf:RDF xmlns:rdf="http://www.w3.org/1999/02/22-rdf-syntax-ns#"
            xmlns:dc="http://purl.org/dc/elements/1.1/">
    <rdf:Description>
      <dc:title>swrpg-online.com art asset</dc:title>
      <dc:creator>Joshua Ziggas</dc:creator>
      <dc:rights>CC BY-NC-SA 4.0 - https://github.com/swrpg-online/art</dc:rights>
    </rdf:Description>
  </rdf:RDF>
</metadata>
<desc>
  wrpg-online.com SWRPG Dice Asset
  Created by: Joshua Ziggas
  Source: https://github.com/swrpg-online/art
  License: CC BY-NC-SA 4.0
</desc><g clip-path="url(#clip0_112_28571)">
<mask id="mask0_112_28571" style="mask-type:alpha" maskUnits="userSpaceOnUse" x="-1" y="14" width="257" height="227">
<path d="M110.377 235.925C121.121 242.654 134.764 242.654 145.509 235.925L236.464 178.967C240.04 176.728 243.004 173.635 245.088 169.966C259.67 144.302 259.618 112.766 245.036 87.1014C242.989 83.4986 240.089 80.4362 236.599 78.202L145.788 20.0612C134.911 13.0968 120.975 13.0968 110.097 20.0612L19.2863 78.202C15.7966 80.4362 12.8963 83.4986 10.8493 87.1014C-3.73267 112.766 -3.78482 144.302 10.7972 169.966C12.8817 173.635 15.8452 176.728 19.4214 178.967L110.377 235.925Z" fill="#D1D1D1"/>
</mask>
<g mask="url(#mask0_112_28571)">
<rect width="256" height="256" fill="#06A2FD"/>
<g style="mix-blend-mode:multiply">
<g filter="url(#filter0_f_112_28571)">
<path fill-rule="evenodd" clip-rule="evenodd" d="M264.334 9.53906H-8.98047V246.554H264.334V9.53906ZM95.379 68.5389L95.3797 68.5372C102.708 51.0444 113.835 24.4859 126.609 24.4859C139.383 24.4859 150.51 51.0444 157.838 68.5372C158.929 71.1407 159.935 73.5434 160.851 75.6278C161.399 76.8757 162.015 78.2618 162.687 79.7708C170.672 97.7196 186.396 133.065 186.396 160.098C186.396 189.404 155.959 212.389 126.609 212.389C97.2587 212.389 66.8215 189.404 66.8215 160.098C66.8215 133.065 82.546 97.7196 90.531 79.7708L90.5311 79.7707C91.2024 78.2617 91.819 76.8756 92.367 75.6278C93.2822 73.5439 94.2886 71.1418 95.379 68.5389Z" fill="#D8D6D6"/>
</g>
<g filter="url(#filter1_f_112_28571)">
<path d="M162.457 209.279C140.502 221.501 113.787 221.501 91.8317 209.279L75.3642 200.111C70.204 197.442 57.3212 190.93 47.072 186.232C43.3907 184.545 39.4451 182.99 35.5136 181.44C25.7625 177.597 16.0985 173.789 10.7724 168.082C4.79368 161.676 2.23136 155.093 1.69754 152.602H-3.64062V256.696H257.93V152.602H252.591C252.058 155.093 249.495 161.676 243.517 168.082C238.19 173.789 228.526 177.597 218.775 181.44C214.844 182.99 210.898 184.545 207.217 186.232C196.968 190.93 184.085 197.442 178.925 200.111L162.457 209.279Z" fill="#595959"/>
</g>
<g filter="url(#filter2_f_112_28571)">
<path d="M179.436 105.142C169.728 84.5731 145.995 32.6109 151.389 26.6569C154.625 22.868 168.11 29.3633 184.291 38.0237C200.472 46.684 233.374 69.9588 244.161 80.7842C254.949 91.6097 261.421 112.719 260.342 131.664C259.263 150.608 248.476 177.131 227.98 171.177C207.484 165.223 189.145 125.71 179.436 105.142Z" fill="#B9B9B9"/>
</g>
<g filter="url(#filter3_f_112_28571)">
<path d="M74.8488 105.142C84.5575 84.5731 108.29 32.6109 102.896 26.6569C99.6599 22.868 86.1756 29.3633 69.9944 38.0237C53.8133 46.684 20.9115 69.9588 10.1241 80.7842C-0.663345 91.6097 -7.13581 112.719 -6.05707 131.664C-4.97832 150.608 5.80912 177.131 26.3053 171.177C46.8014 165.223 65.1401 125.71 74.8488 105.142Z" fill="#C7C7C7"/>
</g>
</g>
</g>
<path d="M153.908 185.554C147.004 185.554 141.678 183.844 137.93 180.425C134.215 176.973 132.275 172.075 132.111 165.73C131.98 160.963 131.897 156.262 131.864 151.626C131.832 146.991 131.832 142.404 131.864 137.868C131.93 133.331 132.012 128.843 132.111 124.405C132.275 118.027 134.232 113.145 137.979 109.759C141.76 106.373 147.069 104.68 153.908 104.68C160.68 104.68 165.94 106.373 169.688 109.759C173.436 113.145 175.408 118.027 175.605 124.405C175.737 128.284 175.836 131.999 175.901 135.55C175.967 139.1 176 142.552 176 145.906C176 149.259 175.967 152.579 175.901 155.867C175.836 159.122 175.737 162.409 175.605 165.73C175.375 172.338 173.337 177.302 169.491 180.622C165.677 183.91 160.483 185.554 153.908 185.554ZM153.908 173.521C158.116 173.521 160.318 171.943 160.516 168.787C160.779 163.33 160.943 158.135 161.009 153.204C161.107 148.24 161.107 143.21 161.009 138.114C160.943 132.986 160.779 127.462 160.516 121.545C160.417 118.323 158.214 116.712 153.908 116.712C149.535 116.712 147.3 118.356 147.201 121.644C147.037 125.819 146.905 129.797 146.806 133.577C146.741 137.358 146.708 141.089 146.708 144.772C146.708 148.454 146.741 152.234 146.806 156.114C146.905 159.993 147.037 164.119 147.201 168.491C147.3 171.845 149.535 173.521 153.908 173.521Z" fill="black"/>
<path d="M102.783 185.554C95.2543 185.554 89.8134 184.025 86.4601 180.968C83.1396 177.91 81.4794 172.864 81.4794 165.828C81.4794 165.302 81.4794 164.743 81.4794 164.152C81.4794 163.56 81.4794 162.952 81.4794 162.327C81.5123 161.702 81.5452 161.061 81.578 160.404H96.5693C96.5364 161.883 96.5036 163.215 96.4707 164.398C96.4378 165.549 96.4707 166.946 96.5693 168.59C96.6679 170.069 97.1446 171.269 97.9994 172.19C98.8542 173.077 100.383 173.521 102.586 173.521C104.525 173.521 106.021 173.11 107.073 172.288C108.125 171.467 108.7 170.168 108.799 168.393C108.963 165.861 109.078 163.017 109.144 159.861C109.21 156.705 109.259 153.303 109.292 149.654H107.024C106.235 151.264 104.936 152.629 103.128 153.747C101.32 154.831 99.035 155.374 96.2734 155.374C93.479 155.374 90.8325 154.782 88.334 153.599C85.8683 152.382 83.8629 150.459 82.3177 147.829C80.7726 145.199 80 141.763 80 137.522C80 135.583 80 133.906 80 132.492C80 131.046 80 129.813 80 128.794C80 127.775 80 126.92 80 126.23C80.0329 125.506 80.0658 124.931 80.0986 124.504C80.3945 117.403 82.252 112.323 85.671 109.266C89.0901 106.208 94.5639 104.68 102.092 104.68C109.785 104.68 115.292 106.208 118.612 109.266C121.933 112.323 123.659 117.403 123.79 124.504C123.922 130.356 124.004 135.533 124.037 140.037C124.07 144.541 124.053 148.832 123.988 152.908C123.955 156.985 123.889 161.292 123.79 165.828C123.659 172.864 121.916 177.91 118.563 180.968C115.21 184.025 109.95 185.554 102.783 185.554ZM102.29 143.144C104.328 143.144 105.922 142.799 107.073 142.109C108.257 141.385 108.963 140.383 109.194 139.1C109.161 136.273 109.111 133.397 109.046 130.471C108.98 127.512 108.865 124.537 108.7 121.545C108.668 120 108.076 118.816 106.925 117.994C105.774 117.14 104.131 116.712 101.994 116.712C99.824 116.712 98.1473 117.14 96.9638 117.994C95.7803 118.849 95.1885 120.098 95.1885 121.742C95.1885 121.972 95.1721 122.794 95.1392 124.208C95.1392 125.621 95.1228 127.265 95.0899 129.139C95.0899 131.013 95.0735 132.805 95.0406 134.514C95.0406 136.191 95.057 137.424 95.0899 138.213C95.1557 139.791 95.846 141.007 97.1611 141.862C98.509 142.717 100.219 143.144 102.29 143.144Z" fill="black"/>
<g filter="url(#filter4_f_112_28571)">
<path fill-rule="evenodd" clip-rule="evenodd" d="M93.2454 69.5646L93.2458 69.5638C100.574 52.5112 111.701 26.6211 124.475 26.6211C126.141 26.6211 127.779 27.0615 129.384 27.8653C117.239 29.8134 106.693 54.9561 99.6516 71.7413C98.5609 74.3416 97.5543 76.7413 96.6389 78.8231C96.0909 80.0694 95.4743 81.4537 94.803 82.9608L94.8029 82.961C86.8178 100.887 71.0933 136.189 71.0933 163.188C71.0933 176.478 77.3683 188.467 86.9673 197.595C73.8495 188.314 64.6875 174.495 64.6875 158.821C64.6875 132.468 80.412 98.0118 88.3971 80.5147L88.3977 80.5133C89.0688 79.0427 89.6852 77.692 90.2331 76.476C91.1483 74.4442 92.1548 72.1023 93.2454 69.5646Z" fill="white"/>
</g>
</g>
<defs>
<filter id="filter0_f_112_28571" x="-18.9805" y="-0.460938" width="293.312" height="257.014" filterUnits="userSpaceOnUse" color-interpolation-filters="sRGB">
<feFlood flood-opacity="0" result="BackgroundImageFix"/>
<feBlend mode="normal" in="SourceGraphic" in2="BackgroundImageFix" result="shape"/>
<feGaussianBlur stdDeviation="5" result="effect1_foregroundBlur_112_28571"/>
</filter>
<filter id="filter1_f_112_28571" x="-13.6406" y="142.602" width="281.57" height="124.094" filterUnits="userSpaceOnUse" color-interpolation-filters="sRGB">
<feFlood flood-opacity="0" result="BackgroundImageFix"/>
<feBlend mode="normal" in="SourceGraphic" in2="BackgroundImageFix" result="shape"/>
<feGaussianBlur stdDeviation="5" result="effect1_foregroundBlur_112_28571"/>
</filter>
<filter id="filter2_f_112_28571" x="140.602" y="15.5527" width="129.859" height="166.477" filterUnits="userSpaceOnUse" color-interpolation-filters="sRGB">
<feFlood flood-opacity="0" result="BackgroundImageFix"/>
<feBlend mode="normal" in="SourceGraphic" in2="BackgroundImageFix" result="shape"/>
<feGaussianBlur stdDeviation="5" result="effect1_foregroundBlur_112_28571"/>
</filter>
<filter id="filter3_f_112_28571" x="-16.1758" y="15.5527" width="129.859" height="166.477" filterUnits="userSpaceOnUse" color-interpolation-filters="sRGB">
<feFlood flood-opacity="0" result="BackgroundImageFix"/>
<feBlend mode="normal" in="SourceGraphic" in2="BackgroundImageFix" result="shape"/>
<feGaussianBlur stdDeviation="5" result="effect1_foregroundBlur_112_28571"/>
</filter>
<filter id="filter4_f_112_28571" x="60.6875" y="22.6211" width="72.6953" height="178.975" filterUnits="userSpaceOnUse" color-interpolation-filters="sRGB">
<feFlood flood-opacity="0" result="BackgroundImageFix"/>
<feBlend mode="normal" in="SourceGraphic" in2="BackgroundImageFix" result="shape"/>
<feGaussianBlur stdDeviation="2" result="effect1_foregroundBlur_112_28571"/>
</filter>
<clipPath id="clip0_112_28571">
<rect width="256" height="256" fill="white"/>
</clipPath>
</defs>
</svg>
