<svg width="256" height="256" viewBox="0 0 256 256" fill="none" xmlns="http://www.w3.org/2000/svg">
<metadata>
  <rdf:RDF xmlns:rdf="http://www.w3.org/1999/02/22-rdf-syntax-ns#"
            xmlns:dc="http://purl.org/dc/elements/1.1/">
    <rdf:Description>
      <dc:title>swrpg-online.com art asset</dc:title>
      <dc:creator>Joshua Ziggas</dc:creator>
      <dc:rights>CC BY-NC-SA 4.0 - https://github.com/swrpg-online/art</dc:rights>
    </rdf:Description>
  </rdf:RDF>
</metadata>
<desc>
  wrpg-online.com SWRPG Dice Asset
  Created by: Joshua Ziggas
  Source: https://github.com/swrpg-online/art
  License: CC BY-NC-SA 4.0
</desc><mask id="mask0_112_28549" style="mask-type:luminance" maskUnits="userSpaceOnUse" x="6" y="2" width="244" height="252">
<path d="M114.628 4.34533C123.32 1.52112 132.683 1.52111 141.375 4.34533L189.67 20.0373C198.362 22.8615 205.937 28.365 211.309 35.7589L241.157 76.841C246.529 84.2349 249.422 93.1397 249.422 102.279V153.059C249.422 162.199 246.529 171.103 241.157 178.497L211.309 219.58C205.937 226.973 198.362 232.477 189.67 235.301L141.375 250.993C132.683 253.817 123.32 253.817 114.628 250.993L66.3327 235.301C57.6407 232.477 50.0658 226.973 44.6938 219.58L14.8459 178.497C9.47394 171.103 6.5806 162.199 6.5806 153.059V102.279C6.5806 93.1397 9.47393 84.2349 14.8459 76.841L44.6938 35.7589C50.0658 28.365 57.6407 22.8615 66.3327 20.0373L114.628 4.34533Z" fill="white"/>
</mask>
<g mask="url(#mask0_112_28549)">
<rect width="256" height="256" fill="#06A2FD"/>
<g filter="url(#filter0_f_112_28549)">
<path d="M50.1016 9.81378L135.447 -6.13477V48.8239H121.261V9.81378L52.8064 23.0777L50.1016 9.81378Z" fill="url(#paint0_linear_112_28549)" fill-opacity="0.15"/>
<rect x="169.172" y="196.271" width="14.1855" height="78.0203" transform="rotate(-36 169.172 196.271)" fill="url(#paint1_linear_112_28549)" fill-opacity="0.3"/>
<path d="M-5.07812 91.2398L43.0683 14.9629L61.4613 21.4545L18.1181 84.7508L55.219 96.8056L50.8355 110.297L-5.07812 91.2398Z" fill="url(#paint2_linear_112_28549)" fill-opacity="0.25"/>
<rect x="205.871" y="110.297" width="14.1855" height="78.0203" transform="rotate(-108 205.871 110.297)" fill="url(#paint3_linear_112_28549)" fill-opacity="0.25"/>
<rect x="41.6797" y="259.391" width="14.1855" height="78.0203" transform="rotate(-144 41.6797 259.391)" fill="url(#paint4_linear_112_28549)" fill-opacity="0.25"/>
<path d="M173.313 205.926L209.147 252.449L126.501 268.499L46.8555 252.449L82.6888 205.926L173.313 205.926Z" fill="black" fill-opacity="0.35"/>
<path d="M216.112 108.42L272.062 88.5809L261.002 174.999L221.457 244.328L187.853 195.391L216.112 108.42Z" fill="black" fill-opacity="0.4"/>
<path d="M136.735 38.0605L135.156 -21.2826L210.716 13.9983L267.643 74.9745L210.716 91.8111L136.735 38.0605Z" fill="black" fill-opacity="0.2"/>
<path d="M45.2894 91.8125L-11.6371 74.9759L45.2894 14.9996L120.849 -21.2813L119.271 38.0618L45.2894 91.8125Z" fill="black" fill-opacity="0.1"/>
<path d="M68.1506 195.39L34.5469 244.328L-3.99854 172.499L-16.0586 88.5803L39.8922 108.42L68.1506 195.39Z" fill="black" fill-opacity="0.25"/>
</g>
</g>
<path d="M128.059 186.118C118.05 186.118 110.813 184.179 106.351 180.3C101.888 176.421 99.5315 169.978 99.2813 160.969C99.2396 158.508 99.2396 156.631 99.2813 155.338C99.323 154.045 99.3647 152.836 99.4064 151.71H118.55C118.425 152.752 118.321 154.087 118.237 155.714C118.196 157.299 118.175 158.842 118.175 160.343C118.175 161.803 118.216 162.846 118.3 163.471C118.55 165.849 119.447 167.684 120.99 168.977C122.575 170.228 124.764 170.853 127.559 170.853C130.562 170.853 132.793 170.228 134.253 168.977C135.713 167.684 136.526 165.849 136.693 163.471C137.068 159.009 137.277 155.192 137.318 152.023C137.402 148.853 137.277 145.829 136.943 142.951C136.693 140.616 135.9 138.885 134.566 137.759C133.231 136.633 131.187 136.07 128.435 136.07C126.558 136.07 124.91 136.32 123.492 136.82C122.074 137.321 120.969 138.051 120.177 139.01C119.384 139.969 118.967 141.116 118.925 142.451H100.908V84.7695H154.21V101.286H119.926V127.811H122.804C124.014 125.81 125.891 124.1 128.435 122.681C131.021 121.263 134.023 120.554 137.443 120.554C143.408 120.554 147.891 122.494 150.894 126.373C153.897 130.251 155.586 135.486 155.962 142.075C156.128 144.494 156.233 146.809 156.274 149.02C156.316 151.23 156.295 153.336 156.212 155.338C156.128 157.34 156.003 159.217 155.836 160.969C155.252 166.975 153.98 171.834 152.02 175.546C150.102 179.216 147.203 181.906 143.324 183.616C139.487 185.284 134.399 186.118 128.059 186.118Z" fill="black"/>
<g filter="url(#filter1_f_112_28549)">
<path d="M62.4943 99.4782C57.4854 104.467 54.5592 109.682 58.5102 120.453C52.2491 110.816 53.9564 100.612 58.5099 95.5099C66.6026 86.4422 90.9535 68.8656 103.475 61.4959C113.493 55.6002 126.243 46.7566 139.903 56.9608C124.535 51.2917 117.705 59.2284 110.875 63.1966C102.633 67.9849 68.7553 93.2423 62.4943 99.4782Z" fill="white"/>
</g>
<defs>
<filter id="filter0_f_112_28549" x="-26.878" y="-32.1026" width="317.772" height="311.42" filterUnits="userSpaceOnUse" color-interpolation-filters="sRGB">
<feFlood flood-opacity="0" result="BackgroundImageFix"/>
<feBlend mode="normal" in="SourceGraphic" in2="BackgroundImageFix" result="shape"/>
<feGaussianBlur stdDeviation="5.40971" result="effect1_foregroundBlur_112_28549"/>
</filter>
<filter id="filter1_f_112_28549" x="49.02" y="46.8813" width="96.2921" height="78.9815" filterUnits="userSpaceOnUse" color-interpolation-filters="sRGB">
<feFlood flood-opacity="0" result="BackgroundImageFix"/>
<feBlend mode="normal" in="SourceGraphic" in2="BackgroundImageFix" result="shape"/>
<feGaussianBlur stdDeviation="2.70486" result="effect1_foregroundBlur_112_28549"/>
</filter>
<linearGradient id="paint0_linear_112_28549" x1="128.354" y1="-29.1964" x2="128.354" y2="48.8239" gradientUnits="userSpaceOnUse">
<stop offset="0.40004"/>
<stop offset="0.770751" stop-opacity="0"/>
</linearGradient>
<linearGradient id="paint1_linear_112_28549" x1="176.265" y1="196.271" x2="176.278" y2="252.045" gradientUnits="userSpaceOnUse">
<stop stop-opacity="0"/>
<stop offset="0.44519"/>
</linearGradient>
<linearGradient id="paint2_linear_112_28549" x1="52.2438" y1="103.557" x2="6.82333" y2="87.453" gradientUnits="userSpaceOnUse">
<stop offset="0.487821" stop-opacity="0"/>
<stop offset="1"/>
</linearGradient>
<linearGradient id="paint3_linear_112_28549" x1="216.762" y1="109.729" x2="217.403" y2="150.479" gradientUnits="userSpaceOnUse">
<stop stop-opacity="0"/>
<stop offset="1"/>
</linearGradient>
<linearGradient id="paint4_linear_112_28549" x1="48.7724" y1="337.411" x2="48.6801" y2="291.638" gradientUnits="userSpaceOnUse">
<stop stop-opacity="0"/>
<stop offset="0.482933"/>
</linearGradient>
</defs>
</svg>
