<svg width="256" height="256" viewBox="0 0 256 256" fill="none" xmlns="http://www.w3.org/2000/svg">
<metadata>
  <rdf:RDF xmlns:rdf="http://www.w3.org/1999/02/22-rdf-syntax-ns#"
            xmlns:dc="http://purl.org/dc/elements/1.1/">
    <rdf:Description>
      <dc:title>swrpg-online.com art asset</dc:title>
      <dc:creator>Joshua Ziggas</dc:creator>
      <dc:rights>CC BY-NC-SA 4.0 - https://github.com/swrpg-online/art</dc:rights>
    </rdf:Description>
  </rdf:RDF>
</metadata>
<desc>
  wrpg-online.com SWRPG Dice Asset
  Created by: Joshua Ziggas
  Source: https://github.com/swrpg-online/art
  License: CC BY-NC-SA 4.0
</desc><mask id="mask0_112_28551" style="mask-type:luminance" maskUnits="userSpaceOnUse" x="6" y="2" width="244" height="252">
<path d="M114.628 4.34533C123.32 1.52112 132.683 1.52111 141.375 4.34533L189.67 20.0373C198.362 22.8615 205.937 28.365 211.309 35.7589L241.157 76.841C246.529 84.2349 249.422 93.1397 249.422 102.279V153.059C249.422 162.199 246.529 171.103 241.157 178.497L211.309 219.58C205.937 226.973 198.362 232.477 189.67 235.301L141.375 250.993C132.683 253.817 123.32 253.817 114.628 250.993L66.3327 235.301C57.6407 232.477 50.0658 226.973 44.6938 219.58L14.8459 178.497C9.47394 171.103 6.5806 162.199 6.5806 153.059V102.279C6.5806 93.1397 9.47393 84.2349 14.8459 76.841L44.6938 35.7589C50.0658 28.365 57.6407 22.8615 66.3327 20.0373L114.628 4.34533Z" fill="white"/>
</mask>
<g mask="url(#mask0_112_28551)">
<rect width="256" height="256" fill="#06A2FD"/>
<g filter="url(#filter0_f_112_28551)">
<path d="M50.1016 9.81476L135.447 -6.13379V48.8249H121.261V9.81476L52.8064 23.0787L50.1016 9.81476Z" fill="url(#paint0_linear_112_28551)" fill-opacity="0.15"/>
<rect x="169.172" y="196.273" width="14.1855" height="78.0203" transform="rotate(-36 169.172 196.273)" fill="url(#paint1_linear_112_28551)" fill-opacity="0.3"/>
<path d="M-5.07812 91.2408L43.0683 14.9639L61.4613 21.4555L18.1181 84.7518L55.219 96.8066L50.8355 110.298L-5.07812 91.2408Z" fill="url(#paint2_linear_112_28551)" fill-opacity="0.25"/>
<rect x="205.871" y="110.299" width="14.1855" height="78.0203" transform="rotate(-108 205.871 110.299)" fill="url(#paint3_linear_112_28551)" fill-opacity="0.25"/>
<rect x="41.6797" y="259.393" width="14.1855" height="78.0203" transform="rotate(-144 41.6797 259.393)" fill="url(#paint4_linear_112_28551)" fill-opacity="0.25"/>
<path d="M173.313 205.928L209.147 252.451L126.501 268.501L46.8555 252.451L82.6888 205.928L173.313 205.928Z" fill="black" fill-opacity="0.35"/>
<path d="M216.112 108.42L272.062 88.5809L261.002 174.999L221.457 244.328L187.853 195.391L216.112 108.42Z" fill="black" fill-opacity="0.4"/>
<path d="M136.735 38.0625L135.156 -21.2806L210.716 14.0002L267.643 74.9765L210.716 91.8131L136.735 38.0625Z" fill="black" fill-opacity="0.2"/>
<path d="M45.2894 91.8135L-11.6371 74.9769L45.2894 15.0005L120.849 -21.2803L119.271 38.0628L45.2894 91.8135Z" fill="black" fill-opacity="0.1"/>
<path d="M68.1506 195.392L34.5469 244.33L-3.99854 172.5L-16.0586 88.5823L39.8922 108.422L68.1506 195.392Z" fill="black" fill-opacity="0.25"/>
</g>
</g>
<path d="M128.138 186.119C118.128 186.119 110.892 184.18 106.429 180.301C101.966 176.422 99.6097 169.979 99.3595 160.97C99.3178 159.468 99.2761 158.321 99.2344 157.529C99.2344 156.736 99.2344 155.944 99.2344 155.152C99.2761 154.359 99.3178 153.212 99.3595 151.711H118.503V163.472C118.503 165.85 119.296 167.685 120.88 168.978C122.465 170.229 124.718 170.854 127.637 170.854C130.64 170.854 132.892 170.229 134.394 168.978C135.937 167.685 136.729 165.891 136.771 163.597C136.854 160.845 136.896 158.405 136.896 156.278C136.938 154.151 136.896 152.128 136.771 150.209C136.646 147.957 135.916 145.955 134.581 144.203C133.288 142.452 130.723 141.618 126.886 141.701L114.249 141.826L113.749 126.061L133.142 101.287H100.736V84.7705H155.039L154.789 100.786L134.644 125.56C141.526 126.102 146.676 128.313 150.096 132.192C153.558 136.071 155.498 142.243 155.915 150.71C155.956 151.586 155.977 152.42 155.977 153.212C156.019 153.963 156.04 154.714 156.04 155.464C156.04 156.215 156.04 157.049 156.04 157.967C156.04 158.843 155.998 159.844 155.915 160.97C155.539 169.979 153.183 176.422 148.845 180.301C144.549 184.18 137.647 186.119 128.138 186.119Z" fill="black"/>
<g filter="url(#filter1_f_112_28551)">
<path d="M62.4943 99.4782C57.4854 104.467 54.5592 109.682 58.5102 120.453C52.2491 110.816 53.9564 100.612 58.5099 95.5099C66.6026 86.4422 90.9535 68.8656 103.475 61.4959C113.493 55.6002 126.243 46.7566 139.903 56.9608C124.535 51.2917 117.705 59.2284 110.875 63.1966C102.633 67.9849 68.7553 93.2423 62.4943 99.4782Z" fill="white"/>
</g>
<defs>
<filter id="filter0_f_112_28551" x="-26.878" y="-32.0997" width="317.772" height="311.419" filterUnits="userSpaceOnUse" color-interpolation-filters="sRGB">
<feFlood flood-opacity="0" result="BackgroundImageFix"/>
<feBlend mode="normal" in="SourceGraphic" in2="BackgroundImageFix" result="shape"/>
<feGaussianBlur stdDeviation="5.40971" result="effect1_foregroundBlur_112_28551"/>
</filter>
<filter id="filter1_f_112_28551" x="49.02" y="46.8813" width="96.2921" height="78.9815" filterUnits="userSpaceOnUse" color-interpolation-filters="sRGB">
<feFlood flood-opacity="0" result="BackgroundImageFix"/>
<feBlend mode="normal" in="SourceGraphic" in2="BackgroundImageFix" result="shape"/>
<feGaussianBlur stdDeviation="2.70486" result="effect1_foregroundBlur_112_28551"/>
</filter>
<linearGradient id="paint0_linear_112_28551" x1="128.354" y1="-29.1954" x2="128.354" y2="48.8249" gradientUnits="userSpaceOnUse">
<stop offset="0.40004"/>
<stop offset="0.770751" stop-opacity="0"/>
</linearGradient>
<linearGradient id="paint1_linear_112_28551" x1="176.265" y1="196.273" x2="176.278" y2="252.047" gradientUnits="userSpaceOnUse">
<stop stop-opacity="0"/>
<stop offset="0.44519"/>
</linearGradient>
<linearGradient id="paint2_linear_112_28551" x1="52.2438" y1="103.558" x2="6.82333" y2="87.454" gradientUnits="userSpaceOnUse">
<stop offset="0.487821" stop-opacity="0"/>
<stop offset="1"/>
</linearGradient>
<linearGradient id="paint3_linear_112_28551" x1="216.762" y1="109.731" x2="217.403" y2="150.481" gradientUnits="userSpaceOnUse">
<stop stop-opacity="0"/>
<stop offset="1"/>
</linearGradient>
<linearGradient id="paint4_linear_112_28551" x1="48.7724" y1="337.413" x2="48.6801" y2="291.64" gradientUnits="userSpaceOnUse">
<stop stop-opacity="0"/>
<stop offset="0.482933"/>
</linearGradient>
</defs>
</svg>
