<svg width="256" height="256" viewBox="0 0 256 256" fill="none" xmlns="http://www.w3.org/2000/svg">
<metadata>
  <rdf:RDF xmlns:rdf="http://www.w3.org/1999/02/22-rdf-syntax-ns#"
            xmlns:dc="http://purl.org/dc/elements/1.1/">
    <rdf:Description>
      <dc:title>swrpg-online.com art asset</dc:title>
      <dc:creator>Joshua Ziggas</dc:creator>
      <dc:rights>CC BY-NC-SA 4.0 - https://github.com/swrpg-online/art</dc:rights>
    </rdf:Description>
  </rdf:RDF>
</metadata>
<desc>
  wrpg-online.com SWRPG Dice Asset
  Created by: Joshua Ziggas
  Source: https://github.com/swrpg-online/art
  License: CC BY-NC-SA 4.0
</desc><mask id="mask0_112_28548" style="mask-type:luminance" maskUnits="userSpaceOnUse" x="6" y="2" width="244" height="252">
<path d="M114.628 4.34533C123.32 1.52112 132.683 1.52111 141.375 4.34533L189.67 20.0373C198.362 22.8615 205.937 28.365 211.309 35.7589L241.157 76.841C246.529 84.2349 249.422 93.1397 249.422 102.279V153.059C249.422 162.199 246.529 171.103 241.157 178.497L211.309 219.58C205.937 226.973 198.362 232.477 189.67 235.301L141.375 250.993C132.683 253.817 123.32 253.817 114.628 250.993L66.3327 235.301C57.6407 232.477 50.0658 226.973 44.6938 219.58L14.8459 178.497C9.47394 171.103 6.5806 162.199 6.5806 153.059V102.279C6.5806 93.1397 9.47393 84.2349 14.8459 76.841L44.6938 35.7589C50.0658 28.365 57.6407 22.8615 66.3327 20.0373L114.628 4.34533Z" fill="white"/>
</mask>
<g mask="url(#mask0_112_28548)">
<rect width="256" height="256" fill="#06A2FD"/>
<g filter="url(#filter0_f_112_28548)">
<path d="M50.1016 9.81378L135.447 -6.13477V48.8239H121.261V9.81378L52.8064 23.0777L50.1016 9.81378Z" fill="url(#paint0_linear_112_28548)" fill-opacity="0.15"/>
<rect x="169.172" y="196.271" width="14.1855" height="78.0203" transform="rotate(-36 169.172 196.271)" fill="url(#paint1_linear_112_28548)" fill-opacity="0.3"/>
<path d="M-5.07812 91.2398L43.0683 14.9629L61.4613 21.4545L18.1181 84.7508L55.219 96.8056L50.8355 110.297L-5.07812 91.2398Z" fill="url(#paint2_linear_112_28548)" fill-opacity="0.25"/>
<rect x="205.871" y="110.297" width="14.1855" height="78.0203" transform="rotate(-108 205.871 110.297)" fill="url(#paint3_linear_112_28548)" fill-opacity="0.25"/>
<rect x="41.6797" y="259.391" width="14.1855" height="78.0203" transform="rotate(-144 41.6797 259.391)" fill="url(#paint4_linear_112_28548)" fill-opacity="0.25"/>
<path d="M173.313 205.926L209.147 252.449L126.501 268.499L46.8555 252.449L82.6888 205.926L173.313 205.926Z" fill="black" fill-opacity="0.35"/>
<path d="M216.112 108.42L272.062 88.5809L261.002 174.999L221.457 244.328L187.853 195.391L216.112 108.42Z" fill="black" fill-opacity="0.4"/>
<path d="M136.735 38.0605L135.156 -21.2826L210.716 13.9983L267.643 74.9745L210.716 91.8111L136.735 38.0605Z" fill="black" fill-opacity="0.2"/>
<path d="M45.2894 91.8125L-11.6371 74.9759L45.2894 14.9996L120.849 -21.2813L119.271 38.0618L45.2894 91.8125Z" fill="black" fill-opacity="0.1"/>
<path d="M68.1506 195.39L34.5469 244.328L-3.99854 172.499L-16.0586 88.5803L39.8922 108.42L68.1506 195.39Z" fill="black" fill-opacity="0.25"/>
</g>
</g>
<path d="M128.035 186.299C118.275 186.299 111.268 184.36 107.014 180.481C102.76 176.602 100.591 170.158 100.508 161.15C100.466 154.101 100.425 147.637 100.383 141.756C100.341 135.875 100.32 130.662 100.32 126.116C100.32 121.569 100.341 117.837 100.383 114.917C100.425 111.956 100.466 109.891 100.508 108.724C100.883 100.215 103.428 93.9175 108.14 89.8302C112.895 85.7429 119.485 83.6992 127.91 83.6992C136.668 83.6992 143.362 85.868 147.992 90.2056C152.621 94.5431 155.061 100.382 155.311 107.723C155.353 108.598 155.374 109.37 155.374 110.037C155.416 110.705 155.416 111.455 155.374 112.29C155.374 113.124 155.353 114.229 155.311 115.605H136.293C136.418 114.271 136.481 113.186 136.481 112.352C136.522 111.476 136.522 110.538 136.481 109.537C136.439 108.494 136.376 107.055 136.293 105.22C136.251 103.343 135.563 101.842 134.228 100.716C132.935 99.548 130.871 98.9641 128.035 98.9641C125.282 98.9641 123.218 99.5063 121.841 100.591C120.465 101.675 119.735 103.218 119.652 105.22C119.527 108.598 119.401 112.331 119.276 116.419C119.193 120.464 119.151 124.739 119.151 129.244H122.529C123.739 127.158 125.637 125.427 128.223 124.051C130.85 122.675 133.874 121.987 137.294 121.987C144.384 121.987 149.243 123.655 151.871 126.991C154.54 130.286 155.937 135.792 156.062 143.508C156.104 146.135 156.125 148.304 156.125 150.014C156.166 151.724 156.166 153.413 156.125 155.081C156.125 156.708 156.062 158.731 155.937 161.15C155.437 170.158 153.08 176.602 148.868 180.481C144.697 184.36 137.753 186.299 128.035 186.299ZM128.16 171.034C130.996 171.034 133.123 170.492 134.541 169.408C136.001 168.282 136.752 166.697 136.793 164.653C136.877 162.443 136.939 160.441 136.981 158.647C137.023 156.812 137.064 155.081 137.106 153.455C137.148 151.828 137.169 150.243 137.169 148.7C137.169 147.157 137.127 145.593 137.044 144.008C137.002 141.881 136.189 140.275 134.604 139.191C133.061 138.065 131.038 137.502 128.535 137.502C125.741 137.502 123.489 138.044 121.779 139.128C120.11 140.213 119.235 141.756 119.151 143.758C119.151 147.136 119.172 150.556 119.214 154.018C119.297 157.479 119.401 160.941 119.527 164.403C119.61 166.53 120.382 168.177 121.841 169.345C123.301 170.471 125.407 171.034 128.16 171.034Z" fill="black"/>
<g filter="url(#filter1_f_112_28548)">
<path d="M62.4943 99.4782C57.4854 104.467 54.5592 109.682 58.5102 120.453C52.2491 110.816 53.9564 100.612 58.5099 95.5099C66.6026 86.4422 90.9535 68.8656 103.475 61.4959C113.493 55.6002 126.243 46.7566 139.903 56.9608C124.535 51.2917 117.705 59.2284 110.875 63.1966C102.633 67.9849 68.7553 93.2423 62.4943 99.4782Z" fill="white"/>
</g>
<defs>
<filter id="filter0_f_112_28548" x="-26.878" y="-32.1026" width="317.772" height="311.42" filterUnits="userSpaceOnUse" color-interpolation-filters="sRGB">
<feFlood flood-opacity="0" result="BackgroundImageFix"/>
<feBlend mode="normal" in="SourceGraphic" in2="BackgroundImageFix" result="shape"/>
<feGaussianBlur stdDeviation="5.40971" result="effect1_foregroundBlur_112_28548"/>
</filter>
<filter id="filter1_f_112_28548" x="49.02" y="46.8813" width="96.2921" height="78.9815" filterUnits="userSpaceOnUse" color-interpolation-filters="sRGB">
<feFlood flood-opacity="0" result="BackgroundImageFix"/>
<feBlend mode="normal" in="SourceGraphic" in2="BackgroundImageFix" result="shape"/>
<feGaussianBlur stdDeviation="2.70486" result="effect1_foregroundBlur_112_28548"/>
</filter>
<linearGradient id="paint0_linear_112_28548" x1="128.354" y1="-29.1964" x2="128.354" y2="48.8239" gradientUnits="userSpaceOnUse">
<stop offset="0.40004"/>
<stop offset="0.770751" stop-opacity="0"/>
</linearGradient>
<linearGradient id="paint1_linear_112_28548" x1="176.265" y1="196.271" x2="176.278" y2="252.045" gradientUnits="userSpaceOnUse">
<stop stop-opacity="0"/>
<stop offset="0.44519"/>
</linearGradient>
<linearGradient id="paint2_linear_112_28548" x1="52.2438" y1="103.557" x2="6.82333" y2="87.453" gradientUnits="userSpaceOnUse">
<stop offset="0.487821" stop-opacity="0"/>
<stop offset="1"/>
</linearGradient>
<linearGradient id="paint3_linear_112_28548" x1="216.762" y1="109.729" x2="217.403" y2="150.479" gradientUnits="userSpaceOnUse">
<stop stop-opacity="0"/>
<stop offset="1"/>
</linearGradient>
<linearGradient id="paint4_linear_112_28548" x1="48.7724" y1="337.411" x2="48.6801" y2="291.638" gradientUnits="userSpaceOnUse">
<stop stop-opacity="0"/>
<stop offset="0.482933"/>
</linearGradient>
</defs>
</svg>
