<svg width="256" height="256" viewBox="0 0 256 256" fill="none" xmlns="http://www.w3.org/2000/svg">
<metadata>
  <rdf:RDF xmlns:rdf="http://www.w3.org/1999/02/22-rdf-syntax-ns#"
            xmlns:dc="http://purl.org/dc/elements/1.1/">
    <rdf:Description>
      <dc:title>swrpg-online.com art asset</dc:title>
      <dc:creator>Joshua Ziggas</dc:creator>
      <dc:rights>CC BY-NC-SA 4.0 - https://github.com/swrpg-online/art</dc:rights>
    </rdf:Description>
  </rdf:RDF>
</metadata>
<desc>
  wrpg-online.com SWRPG Dice Asset
  Created by: Joshua Ziggas
  Source: https://github.com/swrpg-online/art
  License: CC BY-NC-SA 4.0
</desc><mask id="mask0_112_28523" style="mask-type:alpha" maskUnits="userSpaceOnUse" x="10" y="0" width="237" height="256">
<path d="M224.91 60.2803L150.531 7.28962C136.792 -2.49863 118.338 -2.42293 104.68 7.47773L31.8161 60.296C23.7755 66.1246 18.6774 75.1707 17.8556 85.0677L10.4831 173.859C9.14473 189.977 17.8216 205.268 32.3449 212.386L112.644 251.739C122.046 256.346 133.044 256.376 142.471 251.82L224.23 212.3C238.838 205.239 247.602 189.923 246.289 173.75L239.102 85.276C238.289 75.2589 233.095 66.1118 224.91 60.2803Z" fill="#CFCFCF"/>
</mask>
<g mask="url(#mask0_112_28523)">
<rect width="256" height="256" fill="#06A2FD"/>
<g style="mix-blend-mode:multiply" filter="url(#filter0_f_112_28523)">
<mask id="mask1_112_28523" style="mask-type:alpha" maskUnits="userSpaceOnUse" x="1" y="-10" width="255" height="275">
<path fill-rule="evenodd" clip-rule="evenodd" d="M152.285 -1.737L232.216 55.1634C241.012 61.4252 246.594 71.2472 247.468 82.0034L255.191 177.006C256.603 194.371 247.184 210.818 231.485 218.4L143.624 260.835C133.493 265.728 121.673 265.696 111.569 260.748L25.2761 218.491C9.66859 210.849 0.343989 194.429 1.78223 177.122L9.70515 81.7796C10.5883 71.1525 16.067 61.4389 24.7079 55.1803L103.011 -1.535C117.689 -12.1662 137.521 -12.2474 152.285 -1.737ZM138.618 210.457C134.336 217.848 123.662 217.848 119.38 210.457L57.5134 103.689C53.2194 96.2782 58.5672 87.0006 67.1327 87.0006H190.865C199.431 87.0006 204.778 96.2782 200.484 103.689L138.618 210.457Z" fill="black"/>
</mask>
<g mask="url(#mask1_112_28523)">
<path d="M224.91 60.2803L150.531 7.28962C136.792 -2.49863 118.338 -2.42293 104.68 7.47773L31.8161 60.296C23.7755 66.1246 18.6774 75.1707 17.8556 85.0677L10.4831 173.859C9.14473 189.977 17.8216 205.268 32.3449 212.386L112.644 251.739C122.046 256.346 133.044 256.376 142.471 251.82L224.23 212.3C238.838 205.239 247.602 189.923 246.289 173.75L239.102 85.276C238.289 75.2589 233.095 66.1118 224.91 60.2803Z" fill="#CFCFCF"/>
<path d="M204.7 84H53.3C43.2078 84 38.1969 73.0586 45.3921 66.7329L110.15 9.80008C120.433 0.759757 136.916 0.729605 147.24 9.73224L212.575 66.704C219.815 73.0173 214.814 84 204.7 84Z" fill="#E0E0E0"/>
<path d="M51.0658 91.53L123.601 217.164C128.436 225.539 121.572 235.046 112.768 232.168L33.5336 206.264C20.952 202.151 13.0296 188.488 15.7066 175.52L32.6472 93.4509C34.5244 84.3565 46.2199 83.1368 51.0658 91.53Z" fill="#D8D8D8"/>
<path d="M206.994 88.7409L131.609 219.312C126.584 228.015 133.429 237.729 142.411 234.642L223.254 206.851C236.091 202.438 244.324 188.238 241.779 174.897L225.679 90.4733C223.895 81.1179 212.03 80.0179 206.994 88.7409Z" fill="#C1C1C1"/>
<path d="M128.484 230.5V263.061L104.345 256.908L21.7523 217.387L12.9961 206.501L15.5993 194.432C18.8336 198.455 26.6274 206.832 31.9285 208.158C38.5548 209.814 109.551 221.034 118.071 223.164C124.886 224.868 127.852 228.765 128.484 230.5Z" fill="#8D8D8D"/>
<path d="M128.485 231V263.061L152.624 256.908L235.216 217.387L243.973 206.501L241.369 194.432C238.135 198.455 230.341 206.832 225.04 208.158C218.414 209.814 147.418 221.534 138.898 223.664C132.082 225.368 129.116 229.265 128.485 231Z" fill="#737373"/>
<path d="M212.647 84.3141L243.297 64.418L250.038 88.3993L257.107 179.687L252.058 192.713L240.304 196.494C242.171 191.681 245.529 180.743 244.026 175.489C242.148 168.922 213.915 105.443 211.5 97C209.568 90.2455 211.459 85.7284 212.647 84.3141Z" fill="#828282"/>
<path d="M211.499 83.5009L243.296 64.4189L225.898 46.5906L150.375 -5.17589L136.57 -7.31594L127.419 0.973188C132.52 1.76259 143.672 4.32346 147.47 8.25168C152.218 13.162 193.835 71.838 199.939 78.1512C204.823 83.2018 209.681 83.8221 211.499 83.5009Z" fill="#9E9E9E"/>
<path d="M44.8504 83.8141L13.9414 64.418L7.20064 88.3993L0.130878 179.687L5.18042 192.713L16.9344 196.494C15.0674 191.681 11.7091 180.743 13.212 175.489C15.0905 168.922 43.5822 104.943 45.9974 96.5C47.9296 89.7455 46.0378 85.2284 44.8504 83.8141Z" fill="#B1B1B1"/>
<path d="M46.4385 83.8505L13.9422 64.4189L31.3402 46.5906L106.863 -5.17589L120.669 -7.31594L129.819 0.973188C124.718 1.76259 113.566 4.32346 109.768 8.25168C105.02 13.162 64.1026 72.1876 57.9983 78.5009C53.1148 83.5514 48.257 84.1717 46.4385 83.8505Z" fill="#B6B6B6"/>
</g>
</g>
</g>
<g filter="url(#filter1_f_112_28523)">
<path d="M72.7423 89H122C110.497 90.3425 85.9103 93.2575 79.5869 94.1781C71.6827 95.3288 66.0919 98.2055 68.5981 106.452C70.6031 113.049 83.9568 144.233 90.383 159L61.6354 107.833C56.8952 99.3957 63.0262 89 72.7423 89Z" fill="url(#paint0_radial_112_28523)"/>
</g>
<path d="M141.471 165C134.534 165 129.617 163.58 126.719 160.741C123.822 157.873 122.241 153.41 121.978 147.351C121.949 146.473 121.934 145.785 121.934 145.288C121.934 144.761 121.949 144.234 121.978 143.707C122.007 143.18 122.066 142.434 122.154 141.468C122.475 138.22 123.28 135.673 124.568 133.829C125.856 131.956 127.773 130.493 130.319 129.439V127.595C128.563 126.98 127.012 125.971 125.666 124.566C124.349 123.161 123.471 121.39 123.032 119.254C122.885 118.551 122.754 117.688 122.636 116.663C122.549 115.61 122.475 114.556 122.417 113.502C122.388 112.42 122.388 111.468 122.417 110.649C122.739 104.444 124.319 99.9512 127.158 97.1707C129.997 94.3902 134.768 93 141.471 93C147.968 93 152.695 94.361 155.651 97.0829C158.607 99.8049 160.232 104.327 160.524 110.649C160.554 111.468 160.539 112.42 160.48 113.502C160.451 114.556 160.378 115.61 160.261 116.663C160.173 117.688 160.056 118.551 159.91 119.254C159.471 121.39 158.578 123.161 157.232 124.566C155.915 125.971 154.378 126.98 152.622 127.595V129.527C154.963 130.58 156.793 132.059 158.11 133.961C159.456 135.834 160.349 138.307 160.788 141.38C160.963 142.61 161.051 143.663 161.051 144.541C161.051 145.39 161.022 146.327 160.963 147.351C160.671 153.615 159.032 158.122 156.046 160.873C153.09 163.624 148.232 165 141.471 165ZM141.471 154.288C143.549 154.288 145.071 153.849 146.036 152.971C147.032 152.063 147.529 150.776 147.529 149.107C147.529 148.112 147.529 147.117 147.529 146.122C147.529 145.098 147.529 144.088 147.529 143.093C147.529 142.068 147.529 141.059 147.529 140.063C147.529 138.395 147.032 137.122 146.036 136.244C145.071 135.337 143.549 134.883 141.471 134.883C139.422 134.883 137.9 135.337 136.905 136.244C135.91 137.122 135.412 138.395 135.412 140.063C135.412 141.556 135.412 143.063 135.412 144.585C135.412 146.107 135.412 147.615 135.412 149.107C135.412 150.776 135.91 152.063 136.905 152.971C137.9 153.849 139.422 154.288 141.471 154.288ZM141.471 122.327C143.49 122.327 144.997 121.888 145.993 121.01C147.017 120.102 147.529 118.815 147.529 117.146C147.529 115.771 147.529 114.395 147.529 113.02C147.529 111.615 147.529 110.239 147.529 108.893C147.529 107.224 147.032 105.951 146.036 105.073C145.071 104.166 143.549 103.712 141.471 103.712C139.451 103.712 137.929 104.166 136.905 105.073C135.91 105.951 135.412 107.224 135.412 108.893C135.412 109.566 135.412 110.254 135.412 110.956C135.412 111.629 135.412 112.317 135.412 113.02C135.412 113.722 135.412 114.424 135.412 115.127C135.412 115.8 135.412 116.473 135.412 117.146C135.412 118.815 135.91 120.102 136.905 121.01C137.929 121.888 139.451 122.327 141.471 122.327Z" fill="black"/>
<path d="M101.252 164.122V105.468H95.984L95.6328 100.815L104.062 93.878H114.95V164.122H101.252Z" fill="black"/>
<defs>
<filter id="filter0_f_112_28523" x="-8.36328" y="-17.3164" width="273.695" height="290.377" filterUnits="userSpaceOnUse" color-interpolation-filters="sRGB">
<feFlood flood-opacity="0" result="BackgroundImageFix"/>
<feBlend mode="normal" in="SourceGraphic" in2="BackgroundImageFix" result="shape"/>
<feGaussianBlur stdDeviation="5" result="effect1_foregroundBlur_112_28523"/>
</filter>
<filter id="filter1_f_112_28523" x="55" y="84" width="72" height="80" filterUnits="userSpaceOnUse" color-interpolation-filters="sRGB">
<feFlood flood-opacity="0" result="BackgroundImageFix"/>
<feBlend mode="normal" in="SourceGraphic" in2="BackgroundImageFix" result="shape"/>
<feGaussianBlur stdDeviation="2.5" result="effect1_foregroundBlur_112_28523"/>
</filter>
<radialGradient id="paint0_radial_112_28523" cx="0" cy="0" r="1" gradientUnits="userSpaceOnUse" gradientTransform="translate(68.0198 95.7123) rotate(44.0247) scale(47.1885 41.5706)">
<stop stop-color="white"/>
<stop offset="1" stop-color="white" stop-opacity="0"/>
</radialGradient>
</defs>
</svg>
