<svg width="256" height="256" viewBox="0 0 256 256" fill="none" xmlns="http://www.w3.org/2000/svg">
<metadata>
  <rdf:RDF xmlns:rdf="http://www.w3.org/1999/02/22-rdf-syntax-ns#"
            xmlns:dc="http://purl.org/dc/elements/1.1/">
    <rdf:Description>
      <dc:title>swrpg-online.com art asset</dc:title>
      <dc:creator>Joshua Ziggas</dc:creator>
      <dc:rights>CC BY-NC-SA 4.0 - https://github.com/swrpg-online/art</dc:rights>
    </rdf:Description>
  </rdf:RDF>
</metadata>
<desc>
  wrpg-online.com SWRPG Dice Asset
  Created by: Joshua Ziggas
  Source: https://github.com/swrpg-online/art
  License: CC BY-NC-SA 4.0
</desc><mask id="mask0_112_28512" style="mask-type:alpha" maskUnits="userSpaceOnUse" x="2" y="17" width="252" height="223">
<path d="M111.095 26.5C118.408 13.8333 136.691 13.8333 144.004 26.5L250.525 211C257.838 223.667 248.697 239.5 234.071 239.5H21.0283C6.40214 239.5 -2.73924 223.667 4.57386 211L111.095 26.5Z" fill="#D9D9D9"/>
</mask>
<g mask="url(#mask0_112_28512)">
<rect width="256" height="256" fill="#06A2FD"/>
<g style="mix-blend-mode:multiply" filter="url(#filter0_f_112_28512)">
<path d="M279.337 102.182C279.369 87.9555 263.989 61.3151 251.652 54.2297L126.366 -17.7262C114.029 -24.8117 113.988 -7.0282 126.293 14.2841L251.252 230.719C263.556 252.031 278.977 260.888 279.01 246.661L279.337 102.182Z" fill="black" fill-opacity="0.25"/>
<path d="M100.333 317.894C112.425 324.88 142.655 324.88 154.747 317.894L277.547 246.95C289.639 239.964 274.524 231.232 250.339 231.232L4.74033 231.232C-19.4438 231.232 -34.5589 239.964 -22.4668 246.95L100.333 317.894Z" fill="black" fill-opacity="0.5"/>
<path d="M-26.4366 101.791C-26.4405 87.3473 -10.8069 60.269 1.704 53.0504L128.757 -20.257C141.268 -27.4756 141.273 -9.42054 128.766 12.2421L1.75356 232.235C-10.7533 253.897 -26.392 262.921 -26.396 248.476L-26.4366 101.791Z" fill="black" fill-opacity="0.35"/>
</g>
</g>
<g clip-path="url(#clip0_112_28512)">
<path d="M97.9501 176.042C101.023 181.365 102.214 185.808 101.521 189.372C100.829 192.936 98.1255 196.167 93.4118 199.066C92.6261 199.549 92.029 199.924 91.6204 200.189C91.199 200.433 90.7776 200.676 90.3562 200.919C89.922 201.14 89.2993 201.47 88.4881 201.909L82.6106 191.729L88.865 188.118C90.1292 187.388 90.8618 186.403 91.0627 185.164C91.2415 183.937 90.8827 182.547 89.9864 180.994C89.0644 179.398 88.0403 178.392 86.914 177.978C85.7526 177.554 84.5557 177.683 83.323 178.365C81.8336 179.166 80.5234 179.893 79.3923 180.546C78.2483 181.177 77.1855 181.82 76.2037 182.476C75.0444 183.234 74.2039 184.236 73.6822 185.484C73.1476 186.709 73.4916 188.329 74.714 190.344L78.6604 197.026L70.4305 202.132L51.3021 199.425L61.2515 216.658L52.4687 221.729L35.7968 192.852L44.3902 188.068L63.7491 191.174C61.9246 187.349 61.5187 183.931 62.5313 180.921C63.5311 177.89 66.2182 174.963 70.5924 172.142C71.0453 171.851 71.4825 171.584 71.9039 171.34C72.2903 171.088 72.6831 170.846 73.0823 170.616C73.4816 170.385 73.9251 170.129 74.4131 169.847C74.8788 169.579 75.4239 169.293 76.0483 168.992C80.9542 166.426 85.1043 165.7 88.4986 166.816C91.8801 167.91 95.0306 170.985 97.9501 176.042Z" fill="black"/>
</g>
<g clip-path="url(#clip1_112_28512)">
<path d="M166.06 161.511C166.894 161.963 167.672 162.383 168.394 162.77C169.104 163.18 169.787 163.559 170.443 163.909C171.108 164.293 171.78 164.666 172.458 165.028C173.123 165.412 173.833 165.822 174.587 166.257C175.351 166.727 176.181 167.236 177.077 167.783C179.301 169.156 181.131 170.775 182.568 172.639C184.015 174.539 185.066 176.713 185.722 179.162C186.4 181.624 186.682 184.388 186.567 187.456L186.34 193.535C186.254 195.527 186.66 197.077 187.558 198.186C188.455 199.296 189.35 200.153 190.243 200.757C191.314 201.464 192.486 202.2 193.759 202.965C195.055 203.742 196.288 204.424 197.457 205.011C198.538 205.546 199.595 205.61 200.63 205.201C201.686 204.806 202.656 203.843 203.539 202.312C204.397 200.826 204.719 199.578 204.504 198.567C204.299 197.591 203.755 196.818 202.871 196.249C201.113 195.145 199.553 194.185 198.19 193.369C196.837 192.588 195.27 191.742 193.489 190.832L199.29 180.785C200.18 181.24 201.065 181.706 201.942 182.184C202.842 182.674 203.698 183.138 204.509 183.577C205.308 184.038 206.033 184.471 206.686 184.878C211.339 187.83 214.039 191.016 214.786 194.434C215.543 197.887 214.5 202.075 211.657 206.999C209.646 210.481 207.578 213.013 205.453 214.595C203.336 216.212 201.014 216.956 198.486 216.827C195.958 216.699 193.07 215.785 189.822 214.087C189.277 213.802 188.771 213.525 188.305 213.256C187.849 213.022 187.41 212.784 186.989 212.54C186.589 212.31 186.186 212.062 185.777 211.796C185.356 211.553 184.907 211.279 184.432 210.976C182.022 209.465 180.157 207.753 178.837 205.838C177.54 203.936 176.649 201.869 176.163 199.637C175.678 197.405 175.475 195.04 175.556 192.544L175.807 185.503C175.844 184.312 175.606 183.213 175.093 182.207C174.589 181.236 173.968 180.39 173.231 179.669C172.494 178.947 171.804 178.401 171.161 178.03L168.966 176.762L158.478 194.926L149.696 189.856L166.06 161.511Z" fill="black"/>
</g>
<path d="M128.843 125.579V110.136H109.098V100.532L124.464 64.1152H139.829V100.071H146.821V110.136H139.829V125.579H128.843ZM120.315 100.071H128.843L130.379 85.9347L131.762 74.2567H129.457L125.539 85.9347L120.315 100.071Z" fill="black"/>
<defs>
<filter id="filter0_f_112_28512" x="-46.7227" y="-41.873" width="348.523" height="385.006" filterUnits="userSpaceOnUse" color-interpolation-filters="sRGB">
<feFlood flood-opacity="0" result="BackgroundImageFix"/>
<feBlend mode="normal" in="SourceGraphic" in2="BackgroundImageFix" result="shape"/>
<feGaussianBlur stdDeviation="10" result="effect1_foregroundBlur_112_28512"/>
</filter>
<clipPath id="clip0_112_28512">
<rect width="70" height="70" fill="white" transform="translate(58 239.621) rotate(-120)"/>
</clipPath>
<clipPath id="clip1_112_28512">
<rect width="70" height="70" fill="white" transform="translate(232.621 179) rotate(120)"/>
</clipPath>
</defs>
</svg>
