<svg width="256" height="256" viewBox="0 0 256 256" fill="none" xmlns="http://www.w3.org/2000/svg">
<metadata>
  <rdf:RDF xmlns:rdf="http://www.w3.org/1999/02/22-rdf-syntax-ns#"
            xmlns:dc="http://purl.org/dc/elements/1.1/">
    <rdf:Description>
      <dc:title>swrpg-online.com art asset</dc:title>
      <dc:creator>Joshua Ziggas</dc:creator>
      <dc:rights>CC BY-NC-SA 4.0 - https://github.com/swrpg-online/art</dc:rights>
    </rdf:Description>
  </rdf:RDF>
</metadata>
<desc>
  wrpg-online.com SWRPG Dice Asset
  Created by: Joshua Ziggas
  Source: https://github.com/swrpg-online/art
  License: CC BY-NC-SA 4.0
</desc><g clip-path="url(#clip0_112_31407)">
<mask id="mask0_112_31407" style="mask-type:alpha" maskUnits="userSpaceOnUse" x="-1" y="14" width="257" height="227">
<path d="M110.378 235.925C121.122 242.653 134.765 242.653 145.51 235.925L236.465 178.966C240.041 176.727 243.005 173.634 245.089 169.965C259.671 144.301 259.619 112.765 245.037 87.1004C242.99 83.4977 240.09 80.4353 236.6 78.201L145.789 20.0602C134.912 13.0958 120.976 13.0958 110.098 20.0602L19.2873 78.201C15.7976 80.4353 12.8973 83.4977 10.8503 87.1004C-3.7317 112.765 -3.78385 144.301 10.7982 169.965C12.8826 173.634 15.8462 176.727 19.4224 178.966L110.378 235.925Z" fill="#D1D1D1"/>
</mask>
<g mask="url(#mask0_112_31407)">
<rect width="256" height="256" fill="#272727"/>
<g style="mix-blend-mode:multiply">
<g filter="url(#filter0_f_112_31407)">
<path fill-rule="evenodd" clip-rule="evenodd" d="M264.334 9.53711H-8.98047V246.552H264.334V9.53711ZM95.379 68.537L95.3797 68.5353C102.708 51.0425 113.835 24.484 126.609 24.484C139.383 24.484 150.51 51.0425 157.838 68.5353C158.929 71.1388 159.935 73.5415 160.851 75.6259C161.399 76.8737 162.015 78.2598 162.687 79.7689C170.672 97.7177 186.396 133.063 186.396 160.096C186.396 189.402 155.959 212.387 126.609 212.387C97.2587 212.387 66.8215 189.402 66.8215 160.096C66.8215 133.063 82.546 97.7177 90.531 79.7689L90.5311 79.7688C91.2024 78.2597 91.819 76.8737 92.367 75.6259C93.2822 73.5419 94.2886 71.1398 95.379 68.537Z" fill="#D8D6D6"/>
</g>
<g filter="url(#filter1_f_112_31407)">
<path d="M162.455 209.277C140.5 221.499 113.785 221.499 91.8298 209.277L75.3623 200.109C70.2021 197.44 57.3193 190.928 47.07 186.23C43.3888 184.543 39.4431 182.988 35.5116 181.438C25.7605 177.595 16.0965 173.787 10.7705 168.08C4.79173 161.674 2.22941 155.091 1.69559 152.6H-3.64258V256.694H257.928V152.6H252.589C252.056 155.091 249.493 161.674 243.515 168.08C238.188 173.787 228.525 177.595 218.773 181.438C214.842 182.988 210.896 184.543 207.215 186.23C196.966 190.928 184.083 197.44 178.923 200.109L162.455 209.277Z" fill="#595959"/>
</g>
<g filter="url(#filter2_f_112_31407)">
<path d="M179.437 105.141C169.728 84.5722 145.996 32.61 151.39 26.656C154.626 22.867 168.11 29.3623 184.291 38.0227C200.472 46.6831 233.374 69.9578 244.162 80.7833C254.949 91.6087 261.421 112.718 260.343 131.663C259.264 150.607 248.477 177.13 227.98 171.176C207.484 165.222 189.146 125.709 179.437 105.141Z" fill="#B9B9B9"/>
</g>
<g filter="url(#filter3_f_112_31407)">
<path d="M74.8488 105.141C84.5575 84.5722 108.29 32.61 102.896 26.656C99.6599 22.867 86.1756 29.3623 69.9944 38.0227C53.8133 46.6831 20.9115 69.9578 10.1241 80.7833C-0.663345 91.6087 -7.13581 112.718 -6.05707 131.663C-4.97832 150.607 5.80912 177.13 26.3053 171.176C46.8014 165.222 65.1401 125.709 74.8488 105.141Z" fill="#C7C7C7"/>
</g>
</g>
</g>
<path d="M153.908 185.554C147.004 185.554 141.678 183.844 137.93 180.425C134.215 176.973 132.275 172.075 132.111 165.73C131.98 160.963 131.897 156.262 131.864 151.626C131.832 146.991 131.832 142.404 131.864 137.868C131.93 133.331 132.012 128.843 132.111 124.405C132.275 118.027 134.232 113.145 137.979 109.759C141.76 106.373 147.069 104.68 153.908 104.68C160.68 104.68 165.94 106.373 169.688 109.759C173.436 113.145 175.408 118.027 175.605 124.405C175.737 128.284 175.836 131.999 175.901 135.55C175.967 139.1 176 142.552 176 145.906C176 149.259 175.967 152.579 175.901 155.867C175.836 159.122 175.737 162.409 175.605 165.73C175.375 172.338 173.337 177.302 169.491 180.622C165.677 183.91 160.483 185.554 153.908 185.554ZM153.908 173.521C158.116 173.521 160.318 171.943 160.516 168.787C160.779 163.33 160.943 158.135 161.009 153.204C161.107 148.24 161.107 143.21 161.009 138.114C160.943 132.986 160.779 127.462 160.516 121.545C160.417 118.323 158.214 116.712 153.908 116.712C149.535 116.712 147.3 118.356 147.201 121.644C147.037 125.819 146.905 129.797 146.806 133.577C146.741 137.358 146.708 141.089 146.708 144.772C146.708 148.454 146.741 152.234 146.806 156.114C146.905 159.993 147.037 164.119 147.201 168.491C147.3 171.845 149.535 173.521 153.908 173.521Z" fill="white"/>
<path d="M102.783 185.554C95.2543 185.554 89.8134 184.025 86.4601 180.968C83.1396 177.91 81.4794 172.864 81.4794 165.828C81.4794 165.302 81.4794 164.743 81.4794 164.152C81.4794 163.56 81.4794 162.952 81.4794 162.327C81.5123 161.702 81.5452 161.061 81.578 160.404H96.5693C96.5364 161.883 96.5036 163.215 96.4707 164.398C96.4378 165.549 96.4707 166.946 96.5693 168.59C96.6679 170.069 97.1446 171.269 97.9994 172.19C98.8542 173.077 100.383 173.521 102.586 173.521C104.525 173.521 106.021 173.11 107.073 172.288C108.125 171.467 108.7 170.168 108.799 168.393C108.963 165.861 109.078 163.017 109.144 159.861C109.21 156.705 109.259 153.303 109.292 149.654H107.024C106.235 151.264 104.936 152.629 103.128 153.747C101.32 154.831 99.035 155.374 96.2734 155.374C93.479 155.374 90.8325 154.782 88.334 153.599C85.8683 152.382 83.8629 150.459 82.3177 147.829C80.7726 145.199 80 141.763 80 137.522C80 135.583 80 133.906 80 132.492C80 131.046 80 129.813 80 128.794C80 127.775 80 126.92 80 126.23C80.0329 125.506 80.0658 124.931 80.0986 124.504C80.3945 117.403 82.252 112.323 85.671 109.266C89.0901 106.208 94.5639 104.68 102.092 104.68C109.785 104.68 115.292 106.208 118.612 109.266C121.933 112.323 123.659 117.403 123.79 124.504C123.922 130.356 124.004 135.533 124.037 140.037C124.07 144.541 124.053 148.832 123.988 152.908C123.955 156.985 123.889 161.292 123.79 165.828C123.659 172.864 121.916 177.91 118.563 180.968C115.21 184.025 109.95 185.554 102.783 185.554ZM102.29 143.144C104.328 143.144 105.922 142.799 107.073 142.109C108.257 141.385 108.963 140.383 109.194 139.1C109.161 136.273 109.111 133.397 109.046 130.471C108.98 127.512 108.865 124.537 108.7 121.545C108.668 120 108.076 118.816 106.925 117.994C105.774 117.14 104.131 116.712 101.994 116.712C99.824 116.712 98.1473 117.14 96.9638 117.994C95.7803 118.849 95.1885 120.098 95.1885 121.742C95.1885 121.972 95.1721 122.794 95.1392 124.208C95.1392 125.621 95.1228 127.265 95.0899 129.139C95.0899 131.013 95.0735 132.805 95.0406 134.514C95.0406 136.191 95.057 137.424 95.0899 138.213C95.1557 139.791 95.846 141.007 97.1611 141.862C98.509 142.717 100.219 143.144 102.29 143.144Z" fill="white"/>
<g filter="url(#filter4_f_112_31407)">
<path fill-rule="evenodd" clip-rule="evenodd" d="M93.2445 69.5637L93.2448 69.5629C100.573 52.5103 111.7 26.6201 124.474 26.6201C126.14 26.6201 127.778 27.0605 129.383 27.8643C117.238 29.8124 106.692 54.9551 99.6506 71.7404C98.5599 74.3406 97.5533 76.7403 96.6379 78.8222C96.09 80.0684 95.4733 81.4527 94.802 82.9598L94.8019 82.96C86.8169 100.886 71.0924 136.188 71.0924 163.188C71.0924 176.477 77.3673 188.466 86.9663 197.594C73.8485 188.313 64.6865 174.494 64.6865 158.82C64.6865 132.467 80.411 98.0108 88.3961 80.5138L88.3968 80.5123C89.0679 79.0418 89.6843 77.6911 90.2321 76.475C91.1474 74.4433 92.1539 72.1013 93.2445 69.5637Z" fill="white"/>
</g>
</g>
<defs>
<filter id="filter0_f_112_31407" x="-18.9805" y="-0.462891" width="293.314" height="257.015" filterUnits="userSpaceOnUse" color-interpolation-filters="sRGB">
<feFlood flood-opacity="0" result="BackgroundImageFix"/>
<feBlend mode="normal" in="SourceGraphic" in2="BackgroundImageFix" result="shape"/>
<feGaussianBlur stdDeviation="5" result="effect1_foregroundBlur_112_31407"/>
</filter>
<filter id="filter1_f_112_31407" x="-13.6426" y="142.6" width="281.57" height="124.095" filterUnits="userSpaceOnUse" color-interpolation-filters="sRGB">
<feFlood flood-opacity="0" result="BackgroundImageFix"/>
<feBlend mode="normal" in="SourceGraphic" in2="BackgroundImageFix" result="shape"/>
<feGaussianBlur stdDeviation="5" result="effect1_foregroundBlur_112_31407"/>
</filter>
<filter id="filter2_f_112_31407" x="140.602" y="15.5518" width="129.857" height="166.477" filterUnits="userSpaceOnUse" color-interpolation-filters="sRGB">
<feFlood flood-opacity="0" result="BackgroundImageFix"/>
<feBlend mode="normal" in="SourceGraphic" in2="BackgroundImageFix" result="shape"/>
<feGaussianBlur stdDeviation="5" result="effect1_foregroundBlur_112_31407"/>
</filter>
<filter id="filter3_f_112_31407" x="-16.1738" y="15.5518" width="129.857" height="166.477" filterUnits="userSpaceOnUse" color-interpolation-filters="sRGB">
<feFlood flood-opacity="0" result="BackgroundImageFix"/>
<feBlend mode="normal" in="SourceGraphic" in2="BackgroundImageFix" result="shape"/>
<feGaussianBlur stdDeviation="5" result="effect1_foregroundBlur_112_31407"/>
</filter>
<filter id="filter4_f_112_31407" x="60.6865" y="22.6201" width="72.6968" height="178.975" filterUnits="userSpaceOnUse" color-interpolation-filters="sRGB">
<feFlood flood-opacity="0" result="BackgroundImageFix"/>
<feBlend mode="normal" in="SourceGraphic" in2="BackgroundImageFix" result="shape"/>
<feGaussianBlur stdDeviation="2" result="effect1_foregroundBlur_112_31407"/>
</filter>
<clipPath id="clip0_112_31407">
<rect width="256" height="256" fill="white"/>
</clipPath>
</defs>
</svg>
