<svg width="256" height="256" viewBox="0 0 256 256" fill="none" xmlns="http://www.w3.org/2000/svg">
<metadata>
  <rdf:RDF xmlns:rdf="http://www.w3.org/1999/02/22-rdf-syntax-ns#"
            xmlns:dc="http://purl.org/dc/elements/1.1/">
    <rdf:Description>
      <dc:title>swrpg-online.com art asset</dc:title>
      <dc:creator>Joshua Ziggas</dc:creator>
      <dc:rights>CC BY-NC-SA 4.0 - https://github.com/swrpg-online/art</dc:rights>
    </rdf:Description>
  </rdf:RDF>
</metadata>
<desc>
  wrpg-online.com SWRPG Dice Asset
  Created by: Joshua Ziggas
  Source: https://github.com/swrpg-online/art
  License: CC BY-NC-SA 4.0
</desc><g clip-path="url(#clip0_112_31413)">
<mask id="mask0_112_31413" style="mask-type:alpha" maskUnits="userSpaceOnUse" x="-1" y="14" width="257" height="227">
<path d="M110.378 235.925C121.122 242.653 134.765 242.653 145.51 235.925L236.465 178.966C240.041 176.727 243.005 173.634 245.089 169.965C259.671 144.301 259.619 112.765 245.037 87.1004C242.99 83.4977 240.09 80.4353 236.6 78.201L145.789 20.0602C134.912 13.0958 120.976 13.0958 110.098 20.0602L19.2873 78.201C15.7976 80.4353 12.8973 83.4977 10.8503 87.1004C-3.7317 112.765 -3.78385 144.301 10.7982 169.965C12.8826 173.634 15.8462 176.727 19.4224 178.966L110.378 235.925Z" fill="#D1D1D1"/>
</mask>
<g mask="url(#mask0_112_31413)">
<rect width="256" height="256" fill="#272727"/>
<g style="mix-blend-mode:multiply">
<g filter="url(#filter0_f_112_31413)">
<path fill-rule="evenodd" clip-rule="evenodd" d="M264.334 9.53711H-8.98047V246.552H264.334V9.53711ZM95.379 68.537L95.3797 68.5353C102.708 51.0425 113.835 24.484 126.609 24.484C139.383 24.484 150.51 51.0425 157.838 68.5353C158.929 71.1388 159.935 73.5415 160.851 75.6259C161.399 76.8737 162.015 78.2598 162.687 79.7689C170.672 97.7177 186.396 133.063 186.396 160.096C186.396 189.402 155.959 212.387 126.609 212.387C97.2587 212.387 66.8215 189.402 66.8215 160.096C66.8215 133.063 82.546 97.7177 90.531 79.7689L90.5311 79.7688C91.2024 78.2597 91.819 76.8737 92.367 75.6259C93.2822 73.5419 94.2886 71.1398 95.379 68.537Z" fill="#D8D6D6"/>
</g>
<g filter="url(#filter1_f_112_31413)">
<path d="M162.455 209.277C140.5 221.499 113.785 221.499 91.8298 209.277L75.3623 200.109C70.2021 197.44 57.3193 190.928 47.07 186.23C43.3888 184.543 39.4431 182.988 35.5116 181.438C25.7605 177.595 16.0965 173.787 10.7705 168.08C4.79173 161.674 2.22941 155.091 1.69559 152.6H-3.64258V256.694H257.928V152.6H252.589C252.056 155.091 249.493 161.674 243.515 168.08C238.188 173.787 228.525 177.595 218.773 181.438C214.842 182.988 210.896 184.543 207.215 186.23C196.966 190.928 184.083 197.44 178.923 200.109L162.455 209.277Z" fill="#595959"/>
</g>
<g filter="url(#filter2_f_112_31413)">
<path d="M179.437 105.141C169.728 84.5722 145.996 32.61 151.39 26.656C154.626 22.867 168.11 29.3623 184.291 38.0227C200.472 46.6831 233.374 69.9578 244.162 80.7833C254.949 91.6087 261.421 112.718 260.343 131.663C259.264 150.607 248.477 177.13 227.98 171.176C207.484 165.222 189.146 125.709 179.437 105.141Z" fill="#B9B9B9"/>
</g>
<g filter="url(#filter3_f_112_31413)">
<path d="M74.8488 105.141C84.5575 84.5722 108.29 32.61 102.896 26.656C99.6599 22.867 86.1756 29.3623 69.9944 38.0227C53.8133 46.6831 20.9115 69.9578 10.1241 80.7833C-0.663345 91.6087 -7.13581 112.718 -6.05707 131.663C-4.97832 150.607 5.80912 177.13 26.3053 171.176C46.8014 165.222 65.1401 125.709 74.8488 105.141Z" fill="#C7C7C7"/>
</g>
</g>
</g>
<g clip-path="url(#clip1_112_31413)">
<path d="M154.089 184.89C147.242 184.89 141.959 183.195 138.242 179.804C134.558 176.38 132.634 171.522 132.471 165.229C132.341 160.501 132.259 155.838 132.226 151.241C132.194 146.644 132.194 142.095 132.226 137.595C132.292 133.096 132.373 128.645 132.471 124.243C132.634 117.918 134.574 113.076 138.291 109.717C142.041 106.359 147.307 104.68 154.089 104.68C160.806 104.68 166.023 106.359 169.74 109.717C173.457 113.076 175.413 117.918 175.609 124.243C175.739 128.091 175.837 131.775 175.902 135.297C175.967 138.818 176 142.242 176 145.568C176 148.893 175.967 152.187 175.902 155.447C175.837 158.675 175.739 161.936 175.609 165.229C175.381 171.783 173.359 176.706 169.544 180C165.762 183.26 160.61 184.89 154.089 184.89ZM154.089 172.957C158.262 172.957 160.447 171.392 160.643 168.261C160.903 162.849 161.066 157.697 161.132 152.806C161.229 147.883 161.229 142.894 161.132 137.84C161.066 132.753 160.903 127.276 160.643 121.407C160.545 118.211 158.36 116.613 154.089 116.613C149.752 116.613 147.535 118.244 147.437 121.504C147.274 125.645 147.144 129.591 147.046 133.34C146.981 137.09 146.948 140.791 146.948 144.443C146.948 148.095 146.981 151.844 147.046 155.692C147.144 159.539 147.274 163.631 147.437 167.968C147.535 171.294 149.752 172.957 154.089 172.957Z" fill="white"/>
<path d="M102.596 184.89C94.7705 184.89 89.1134 183.374 85.6245 180.342C82.1357 177.31 80.2935 172.272 80.0978 165.229C80.0652 164.055 80.0326 163.159 80 162.539C80 161.92 80 161.3 80 160.681C80.0326 160.061 80.0652 159.164 80.0978 157.991H95.064V167.185C95.064 169.044 95.6835 170.479 96.9225 171.489C98.1615 172.468 99.9223 172.957 102.205 172.957C104.552 172.957 106.313 172.468 107.487 171.489C108.693 170.479 109.313 169.077 109.345 167.283C109.411 165.131 109.443 163.224 109.443 161.561C109.476 159.898 109.443 158.317 109.345 156.817C109.248 155.056 108.677 153.491 107.634 152.121C106.623 150.752 104.618 150.1 101.618 150.165L91.7382 150.263L91.3469 137.938L106.509 118.57H81.1738V105.658H123.627L123.431 118.179L107.682 137.547C113.062 137.97 117.089 139.699 119.763 142.731C122.469 145.763 123.985 150.589 124.312 157.208C124.344 157.893 124.36 158.545 124.36 159.164C124.393 159.751 124.409 160.338 124.409 160.925C124.409 161.512 124.409 162.164 124.409 162.881C124.409 163.566 124.377 164.349 124.312 165.229C124.018 172.272 122.176 177.31 118.785 180.342C115.426 183.374 110.03 184.89 102.596 184.89Z" fill="white"/>
</g>
<g filter="url(#filter4_f_112_31413)">
<path fill-rule="evenodd" clip-rule="evenodd" d="M93.2445 69.5637L93.2448 69.5629C100.573 52.5103 111.7 26.6201 124.474 26.6201C126.14 26.6201 127.778 27.0605 129.383 27.8643C117.238 29.8124 106.692 54.9551 99.6506 71.7404C98.5599 74.3406 97.5533 76.7403 96.6379 78.8222C96.09 80.0684 95.4733 81.4527 94.802 82.9598L94.8019 82.96C86.8169 100.886 71.0924 136.188 71.0924 163.188C71.0924 176.477 77.3673 188.466 86.9663 197.594C73.8485 188.313 64.6865 174.494 64.6865 158.82C64.6865 132.467 80.411 98.0108 88.3961 80.5138L88.3968 80.5123C89.0679 79.0418 89.6843 77.6911 90.2321 76.475C91.1474 74.4433 92.1539 72.1013 93.2445 69.5637Z" fill="white"/>
</g>
</g>
<defs>
<filter id="filter0_f_112_31413" x="-18.9805" y="-0.462891" width="293.314" height="257.015" filterUnits="userSpaceOnUse" color-interpolation-filters="sRGB">
<feFlood flood-opacity="0" result="BackgroundImageFix"/>
<feBlend mode="normal" in="SourceGraphic" in2="BackgroundImageFix" result="shape"/>
<feGaussianBlur stdDeviation="5" result="effect1_foregroundBlur_112_31413"/>
</filter>
<filter id="filter1_f_112_31413" x="-13.6426" y="142.6" width="281.57" height="124.095" filterUnits="userSpaceOnUse" color-interpolation-filters="sRGB">
<feFlood flood-opacity="0" result="BackgroundImageFix"/>
<feBlend mode="normal" in="SourceGraphic" in2="BackgroundImageFix" result="shape"/>
<feGaussianBlur stdDeviation="5" result="effect1_foregroundBlur_112_31413"/>
</filter>
<filter id="filter2_f_112_31413" x="140.602" y="15.5518" width="129.857" height="166.477" filterUnits="userSpaceOnUse" color-interpolation-filters="sRGB">
<feFlood flood-opacity="0" result="BackgroundImageFix"/>
<feBlend mode="normal" in="SourceGraphic" in2="BackgroundImageFix" result="shape"/>
<feGaussianBlur stdDeviation="5" result="effect1_foregroundBlur_112_31413"/>
</filter>
<filter id="filter3_f_112_31413" x="-16.1738" y="15.5518" width="129.857" height="166.477" filterUnits="userSpaceOnUse" color-interpolation-filters="sRGB">
<feFlood flood-opacity="0" result="BackgroundImageFix"/>
<feBlend mode="normal" in="SourceGraphic" in2="BackgroundImageFix" result="shape"/>
<feGaussianBlur stdDeviation="5" result="effect1_foregroundBlur_112_31413"/>
</filter>
<filter id="filter4_f_112_31413" x="60.6865" y="22.6201" width="72.6968" height="178.975" filterUnits="userSpaceOnUse" color-interpolation-filters="sRGB">
<feFlood flood-opacity="0" result="BackgroundImageFix"/>
<feBlend mode="normal" in="SourceGraphic" in2="BackgroundImageFix" result="shape"/>
<feGaussianBlur stdDeviation="2" result="effect1_foregroundBlur_112_31413"/>
</filter>
<clipPath id="clip0_112_31413">
<rect width="256" height="256" fill="white"/>
</clipPath>
<clipPath id="clip1_112_31413">
<rect width="96" height="96" fill="white" transform="translate(80 97)"/>
</clipPath>
</defs>
</svg>
