<svg width="256" height="256" viewBox="0 0 256 256" fill="none" xmlns="http://www.w3.org/2000/svg">
<metadata>
  <rdf:RDF xmlns:rdf="http://www.w3.org/1999/02/22-rdf-syntax-ns#"
            xmlns:dc="http://purl.org/dc/elements/1.1/">
    <rdf:Description>
      <dc:title>swrpg-online.com art asset</dc:title>
      <dc:creator>Joshua Ziggas</dc:creator>
      <dc:rights>CC BY-NC-SA 4.0 - https://github.com/swrpg-online/art</dc:rights>
    </rdf:Description>
  </rdf:RDF>
</metadata>
<desc>
  wrpg-online.com SWRPG Dice Asset
  Created by: Joshua Ziggas
  Source: https://github.com/swrpg-online/art
  License: CC BY-NC-SA 4.0
</desc><g clip-path="url(#clip0_112_31410)">
<mask id="mask0_112_31410" style="mask-type:alpha" maskUnits="userSpaceOnUse" x="-1" y="14" width="257" height="227">
<path d="M110.378 235.925C121.122 242.653 134.765 242.653 145.51 235.925L236.465 178.966C240.041 176.727 243.005 173.634 245.089 169.965C259.671 144.301 259.619 112.765 245.037 87.1004C242.99 83.4977 240.09 80.4353 236.6 78.201L145.789 20.0602C134.912 13.0958 120.976 13.0958 110.098 20.0602L19.2873 78.201C15.7976 80.4353 12.8973 83.4977 10.8503 87.1004C-3.7317 112.765 -3.78385 144.301 10.7982 169.965C12.8826 173.634 15.8462 176.727 19.4224 178.966L110.378 235.925Z" fill="#D1D1D1"/>
</mask>
<g mask="url(#mask0_112_31410)">
<rect width="256" height="256" fill="#272727"/>
<g style="mix-blend-mode:multiply">
<g filter="url(#filter0_f_112_31410)">
<path fill-rule="evenodd" clip-rule="evenodd" d="M264.334 9.53711H-8.98047V246.552H264.334V9.53711ZM95.379 68.537L95.3797 68.5353C102.708 51.0425 113.835 24.484 126.609 24.484C139.383 24.484 150.51 51.0425 157.838 68.5353C158.929 71.1388 159.935 73.5415 160.851 75.6259C161.399 76.8737 162.015 78.2598 162.687 79.7689C170.672 97.7177 186.396 133.063 186.396 160.096C186.396 189.402 155.959 212.387 126.609 212.387C97.2587 212.387 66.8215 189.402 66.8215 160.096C66.8215 133.063 82.546 97.7177 90.531 79.7689L90.5311 79.7688C91.2024 78.2597 91.819 76.8737 92.367 75.6259C93.2822 73.5419 94.2886 71.1398 95.379 68.537Z" fill="#D8D6D6"/>
</g>
<g filter="url(#filter1_f_112_31410)">
<path d="M162.455 209.277C140.5 221.499 113.785 221.499 91.8298 209.277L75.3623 200.109C70.2021 197.44 57.3193 190.928 47.07 186.23C43.3888 184.543 39.4431 182.988 35.5116 181.438C25.7605 177.595 16.0965 173.787 10.7705 168.08C4.79173 161.674 2.22941 155.091 1.69559 152.6H-3.64258V256.694H257.928V152.6H252.589C252.056 155.091 249.493 161.674 243.515 168.08C238.188 173.787 228.525 177.595 218.773 181.438C214.842 182.988 210.896 184.543 207.215 186.23C196.966 190.928 184.083 197.44 178.923 200.109L162.455 209.277Z" fill="#595959"/>
</g>
<g filter="url(#filter2_f_112_31410)">
<path d="M179.437 105.141C169.728 84.5722 145.996 32.61 151.39 26.656C154.626 22.867 168.11 29.3623 184.291 38.0227C200.472 46.6831 233.374 69.9578 244.162 80.7833C254.949 91.6087 261.421 112.718 260.343 131.663C259.264 150.607 248.477 177.13 227.98 171.176C207.484 165.222 189.146 125.709 179.437 105.141Z" fill="#B9B9B9"/>
</g>
<g filter="url(#filter3_f_112_31410)">
<path d="M74.8488 105.141C84.5575 84.5722 108.29 32.61 102.896 26.656C99.6599 22.867 86.1756 29.3623 69.9944 38.0227C53.8133 46.6831 20.9115 69.9578 10.1241 80.7833C-0.663345 91.6087 -7.13581 112.718 -6.05707 131.663C-4.97832 150.607 5.80912 177.13 26.3053 171.176C46.8014 165.222 65.1401 125.709 74.8488 105.141Z" fill="#C7C7C7"/>
</g>
</g>
</g>
<g clip-path="url(#clip1_112_31410)">
<path d="M153.919 185.512C147.019 185.512 141.695 183.804 137.95 180.386C134.237 176.936 132.298 172.04 132.134 165.698C132.002 160.934 131.92 156.235 131.887 151.602C131.854 146.969 131.854 142.385 131.887 137.851C131.953 133.316 132.035 128.831 132.134 124.395C132.298 118.02 134.253 113.141 137.999 109.756C141.778 106.372 147.084 104.68 153.919 104.68C160.688 104.68 165.945 106.372 169.691 109.756C173.437 113.141 175.409 118.02 175.606 124.395C175.737 128.272 175.836 131.985 175.901 135.534C175.967 139.083 176 142.533 176 145.885C176 149.236 175.967 152.555 175.901 155.841C175.836 159.094 175.737 162.38 175.606 165.698C175.376 172.303 173.338 177.265 169.494 180.583C165.682 183.869 160.491 185.512 153.919 185.512ZM153.919 173.486C158.125 173.486 160.326 171.909 160.524 168.754C160.786 163.3 160.951 158.108 161.016 153.179C161.115 148.218 161.115 143.19 161.016 138.097C160.951 132.971 160.786 127.451 160.524 121.536C160.425 118.316 158.223 116.706 153.919 116.706C149.549 116.706 147.314 118.349 147.216 121.635C147.051 125.808 146.92 129.784 146.821 133.563C146.756 137.341 146.723 141.071 146.723 144.751C146.723 148.431 146.756 152.21 146.821 156.087C146.92 159.965 147.051 164.088 147.216 168.459C147.314 171.81 149.549 173.486 153.919 173.486Z" fill="white"/>
<path d="M101.835 185.512C94.1457 185.512 88.6254 183.984 85.2738 180.928C81.9222 177.873 80.2136 172.796 80.1479 165.698C80.115 160.145 80.0821 155.052 80.0493 150.419C80.0164 145.786 80 141.679 80 138.097C80 134.515 80.0164 131.575 80.0493 129.274C80.0821 126.941 80.115 125.315 80.1479 124.395C80.4436 117.692 82.448 112.73 86.161 109.51C89.9069 106.29 95.0986 104.68 101.736 104.68C108.636 104.68 113.91 106.388 117.558 109.806C121.205 113.223 123.127 117.823 123.324 123.606C123.357 124.296 123.374 124.904 123.374 125.43C123.406 125.956 123.406 126.547 123.374 127.204C123.374 127.862 123.357 128.732 123.324 129.817H108.341C108.439 128.765 108.489 127.911 108.489 127.254C108.521 126.564 108.521 125.824 108.489 125.036C108.456 124.214 108.406 123.081 108.341 121.635C108.308 120.156 107.766 118.973 106.714 118.086C105.696 117.166 104.069 116.706 101.835 116.706C99.666 116.706 98.0395 117.133 96.9551 117.987C95.8708 118.842 95.2957 120.058 95.23 121.635C95.1315 124.296 95.0329 127.237 94.9343 130.457C94.8686 133.645 94.8357 137.013 94.8357 140.561H97.4973C98.4502 138.919 99.9453 137.555 101.983 136.471C104.053 135.386 106.435 134.844 109.129 134.844C114.715 134.844 118.543 136.158 120.613 138.787C122.716 141.383 123.817 145.72 123.916 151.799C123.949 153.869 123.965 155.578 123.965 156.925C123.998 158.272 123.998 159.603 123.965 160.917C123.965 162.199 123.916 163.793 123.817 165.698C123.423 172.796 121.566 177.873 118.248 180.928C114.962 183.984 109.491 185.512 101.835 185.512ZM101.933 173.486C104.168 173.486 105.843 173.059 106.961 172.204C108.111 171.317 108.702 170.069 108.735 168.459C108.801 166.717 108.85 165.14 108.883 163.727C108.916 162.281 108.949 160.917 108.981 159.636C109.014 158.354 109.031 157.106 109.031 155.89C109.031 154.674 108.998 153.442 108.932 152.193C108.899 150.518 108.259 149.253 107.01 148.398C105.794 147.511 104.2 147.067 102.229 147.067C100.027 147.067 98.253 147.495 96.9058 148.349C95.5915 149.203 94.9014 150.419 94.8357 151.996C94.8357 154.658 94.8522 157.352 94.885 160.08C94.9507 162.807 95.0329 165.534 95.1315 168.261C95.1972 169.937 95.8051 171.235 96.9551 172.155C98.1052 173.042 99.7645 173.486 101.933 173.486Z" fill="white"/>
</g>
<g filter="url(#filter4_f_112_31410)">
<path fill-rule="evenodd" clip-rule="evenodd" d="M93.2445 69.5637L93.2448 69.5629C100.573 52.5103 111.7 26.6201 124.474 26.6201C126.14 26.6201 127.778 27.0605 129.383 27.8643C117.238 29.8124 106.692 54.9551 99.6506 71.7404C98.5599 74.3406 97.5533 76.7403 96.6379 78.8222C96.09 80.0684 95.4733 81.4527 94.802 82.9598L94.8019 82.96C86.8169 100.886 71.0924 136.188 71.0924 163.188C71.0924 176.477 77.3673 188.466 86.9663 197.594C73.8485 188.313 64.6865 174.494 64.6865 158.82C64.6865 132.467 80.411 98.0108 88.3961 80.5138L88.3968 80.5123C89.0679 79.0418 89.6843 77.6911 90.2321 76.475C91.1474 74.4433 92.1539 72.1013 93.2445 69.5637Z" fill="white"/>
</g>
</g>
<defs>
<filter id="filter0_f_112_31410" x="-18.9805" y="-0.462891" width="293.314" height="257.015" filterUnits="userSpaceOnUse" color-interpolation-filters="sRGB">
<feFlood flood-opacity="0" result="BackgroundImageFix"/>
<feBlend mode="normal" in="SourceGraphic" in2="BackgroundImageFix" result="shape"/>
<feGaussianBlur stdDeviation="5" result="effect1_foregroundBlur_112_31410"/>
</filter>
<filter id="filter1_f_112_31410" x="-13.6426" y="142.6" width="281.57" height="124.095" filterUnits="userSpaceOnUse" color-interpolation-filters="sRGB">
<feFlood flood-opacity="0" result="BackgroundImageFix"/>
<feBlend mode="normal" in="SourceGraphic" in2="BackgroundImageFix" result="shape"/>
<feGaussianBlur stdDeviation="5" result="effect1_foregroundBlur_112_31410"/>
</filter>
<filter id="filter2_f_112_31410" x="140.602" y="15.5518" width="129.857" height="166.477" filterUnits="userSpaceOnUse" color-interpolation-filters="sRGB">
<feFlood flood-opacity="0" result="BackgroundImageFix"/>
<feBlend mode="normal" in="SourceGraphic" in2="BackgroundImageFix" result="shape"/>
<feGaussianBlur stdDeviation="5" result="effect1_foregroundBlur_112_31410"/>
</filter>
<filter id="filter3_f_112_31410" x="-16.1738" y="15.5518" width="129.857" height="166.477" filterUnits="userSpaceOnUse" color-interpolation-filters="sRGB">
<feFlood flood-opacity="0" result="BackgroundImageFix"/>
<feBlend mode="normal" in="SourceGraphic" in2="BackgroundImageFix" result="shape"/>
<feGaussianBlur stdDeviation="5" result="effect1_foregroundBlur_112_31410"/>
</filter>
<filter id="filter4_f_112_31410" x="60.6865" y="22.6201" width="72.6968" height="178.975" filterUnits="userSpaceOnUse" color-interpolation-filters="sRGB">
<feFlood flood-opacity="0" result="BackgroundImageFix"/>
<feBlend mode="normal" in="SourceGraphic" in2="BackgroundImageFix" result="shape"/>
<feGaussianBlur stdDeviation="2" result="effect1_foregroundBlur_112_31410"/>
</filter>
<clipPath id="clip0_112_31410">
<rect width="256" height="256" fill="white"/>
</clipPath>
<clipPath id="clip1_112_31410">
<rect width="96" height="96" fill="white" transform="translate(80 97)"/>
</clipPath>
</defs>
</svg>
