<svg width="256" height="256" viewBox="0 0 256 256" fill="none" xmlns="http://www.w3.org/2000/svg">
<metadata>
  <rdf:RDF xmlns:rdf="http://www.w3.org/1999/02/22-rdf-syntax-ns#"
            xmlns:dc="http://purl.org/dc/elements/1.1/">
    <rdf:Description>
      <dc:title>swrpg-online.com art asset</dc:title>
      <dc:creator>Joshua Ziggas</dc:creator>
      <dc:rights>CC BY-NC-SA 4.0 - https://github.com/swrpg-online/art</dc:rights>
    </rdf:Description>
  </rdf:RDF>
</metadata>
<desc>
  wrpg-online.com SWRPG Dice Asset
  Created by: Joshua Ziggas
  Source: https://github.com/swrpg-online/art
  License: CC BY-NC-SA 4.0
</desc><g clip-path="url(#clip0_112_31417)">
<mask id="mask0_112_31417" style="mask-type:alpha" maskUnits="userSpaceOnUse" x="-1" y="14" width="257" height="227">
<path d="M110.378 235.925C121.122 242.653 134.765 242.653 145.51 235.925L236.465 178.966C240.041 176.727 243.005 173.634 245.089 169.965C259.671 144.301 259.619 112.765 245.037 87.1004C242.99 83.4977 240.09 80.4353 236.6 78.201L145.789 20.0602C134.912 13.0958 120.976 13.0958 110.098 20.0602L19.2873 78.201C15.7976 80.4353 12.8973 83.4977 10.8503 87.1004C-3.7317 112.765 -3.78385 144.301 10.7982 169.965C12.8826 173.634 15.8462 176.727 19.4224 178.966L110.378 235.925Z" fill="#D1D1D1"/>
</mask>
<g mask="url(#mask0_112_31417)">
<rect width="256" height="256" fill="#272727"/>
<g style="mix-blend-mode:multiply">
<g filter="url(#filter0_f_112_31417)">
<path fill-rule="evenodd" clip-rule="evenodd" d="M264.334 9.53711H-8.98047V246.552H264.334V9.53711ZM95.379 68.537L95.3797 68.5353C102.708 51.0425 113.835 24.484 126.609 24.484C139.383 24.484 150.51 51.0425 157.838 68.5353C158.929 71.1388 159.935 73.5415 160.851 75.6259C161.399 76.8737 162.015 78.2598 162.687 79.7689C170.672 97.7177 186.396 133.063 186.396 160.096C186.396 189.402 155.959 212.387 126.609 212.387C97.2587 212.387 66.8215 189.402 66.8215 160.096C66.8215 133.063 82.546 97.7177 90.531 79.7689L90.5311 79.7688C91.2024 78.2597 91.819 76.8737 92.367 75.6259C93.2822 73.5419 94.2886 71.1398 95.379 68.537Z" fill="#D8D6D6"/>
</g>
<g filter="url(#filter1_f_112_31417)">
<path d="M162.455 209.277C140.5 221.499 113.785 221.499 91.8298 209.277L75.3623 200.109C70.2021 197.44 57.3193 190.928 47.07 186.23C43.3888 184.543 39.4431 182.988 35.5116 181.438C25.7605 177.595 16.0965 173.787 10.7705 168.08C4.79173 161.674 2.22941 155.091 1.69559 152.6H-3.64258V256.694H257.928V152.6H252.589C252.056 155.091 249.493 161.674 243.515 168.08C238.188 173.787 228.525 177.595 218.773 181.438C214.842 182.988 210.896 184.543 207.215 186.23C196.966 190.928 184.083 197.44 178.923 200.109L162.455 209.277Z" fill="#595959"/>
</g>
<g filter="url(#filter2_f_112_31417)">
<path d="M179.437 105.141C169.728 84.5722 145.996 32.61 151.39 26.656C154.626 22.867 168.11 29.3623 184.291 38.0227C200.472 46.6831 233.374 69.9578 244.162 80.7833C254.949 91.6087 261.421 112.718 260.343 131.663C259.264 150.607 248.477 177.13 227.98 171.176C207.484 165.222 189.146 125.709 179.437 105.141Z" fill="#B9B9B9"/>
</g>
<g filter="url(#filter3_f_112_31417)">
<path d="M74.8488 105.141C84.5575 84.5722 108.29 32.61 102.896 26.656C99.6599 22.867 86.1756 29.3623 69.9944 38.0227C53.8133 46.6831 20.9115 69.9578 10.1241 80.7833C-0.663345 91.6087 -7.13581 112.718 -6.05707 131.663C-4.97832 150.607 5.80912 177.13 26.3053 171.176C46.8014 165.222 65.1401 125.709 74.8488 105.141Z" fill="#C7C7C7"/>
</g>
</g>
</g>
<path d="M128.132 188.2C119.808 188.2 113.907 186.496 110.43 183.09C106.953 179.648 105.057 174.292 104.741 167.021C104.706 165.968 104.688 165.142 104.688 164.545C104.688 163.913 104.706 163.281 104.741 162.649C104.776 162.016 104.846 161.121 104.951 159.962C105.338 156.063 106.304 153.008 107.849 150.795C109.394 148.547 111.695 146.791 114.75 145.527V143.314C112.643 142.576 110.782 141.365 109.166 139.679C107.586 137.993 106.532 135.868 106.005 133.304C105.829 132.461 105.671 131.425 105.531 130.196C105.426 128.932 105.338 127.667 105.268 126.403C105.232 125.103 105.232 123.962 105.268 122.978C105.654 115.532 107.55 110.141 110.957 106.805C114.364 103.468 120.089 101.8 128.132 101.8C135.929 101.8 141.601 103.433 145.148 106.699C148.696 109.966 150.645 115.392 150.996 122.978C151.031 123.962 151.014 125.103 150.944 126.403C150.908 127.667 150.821 128.932 150.68 130.196C150.575 131.425 150.434 132.461 150.259 133.304C149.732 135.868 148.661 137.993 147.045 139.679C145.465 141.365 143.621 142.576 141.513 143.314V145.632C144.323 146.896 146.518 148.67 148.099 150.953C149.714 153.201 150.786 156.169 151.312 159.856C151.523 161.332 151.628 162.596 151.628 163.65C151.628 164.668 151.593 165.792 151.523 167.021C151.172 174.537 149.205 179.946 145.623 183.248C142.075 186.549 136.245 188.2 128.132 188.2ZM128.132 175.345C130.626 175.345 132.452 174.818 133.611 173.765C134.805 172.676 135.402 171.131 135.402 169.129C135.402 167.934 135.402 166.74 135.402 165.546C135.402 164.317 135.402 163.105 135.402 161.911C135.402 160.682 135.402 159.47 135.402 158.276C135.402 156.274 134.805 154.746 133.611 153.692C132.452 152.604 130.626 152.059 128.132 152.059C125.673 152.059 123.847 152.604 122.653 153.692C121.459 154.746 120.862 156.274 120.862 158.276C120.862 160.067 120.862 161.876 120.862 163.702C120.862 165.529 120.862 167.337 120.862 169.129C120.862 171.131 121.459 172.676 122.653 173.765C123.847 174.818 125.673 175.345 128.132 175.345ZM128.132 136.992C130.555 136.992 132.364 136.465 133.558 135.412C134.787 134.323 135.402 132.777 135.402 130.775C135.402 129.125 135.402 127.474 135.402 125.823C135.402 124.137 135.402 122.487 135.402 120.871C135.402 118.869 134.805 117.341 133.611 116.288C132.452 115.199 130.626 114.654 128.132 114.654C125.708 114.654 123.882 115.199 122.653 116.288C121.459 117.341 120.862 118.869 120.862 120.871C120.862 121.679 120.862 122.504 120.862 123.347C120.862 124.155 120.862 124.98 120.862 125.823C120.862 126.666 120.862 127.509 120.862 128.352C120.862 129.16 120.862 129.968 120.862 130.775C120.862 132.777 121.459 134.323 122.653 135.412C123.882 136.465 125.708 136.992 128.132 136.992Z" fill="white"/>
<g filter="url(#filter4_f_112_31417)">
<path fill-rule="evenodd" clip-rule="evenodd" d="M93.2445 69.5637L93.2448 69.5629C100.573 52.5103 111.7 26.6201 124.474 26.6201C126.14 26.6201 127.778 27.0605 129.383 27.8643C117.238 29.8124 106.692 54.9551 99.6506 71.7404C98.5599 74.3406 97.5533 76.7403 96.6379 78.8222C96.09 80.0684 95.4733 81.4527 94.802 82.9598L94.8019 82.96C86.8169 100.886 71.0924 136.188 71.0924 163.188C71.0924 176.477 77.3673 188.466 86.9663 197.594C73.8485 188.313 64.6865 174.494 64.6865 158.82C64.6865 132.467 80.411 98.0108 88.3961 80.5138L88.3968 80.5123C89.0679 79.0418 89.6843 77.6911 90.2321 76.475C91.1474 74.4433 92.1539 72.1013 93.2445 69.5637Z" fill="white"/>
</g>
</g>
<defs>
<filter id="filter0_f_112_31417" x="-18.9805" y="-0.462891" width="293.314" height="257.015" filterUnits="userSpaceOnUse" color-interpolation-filters="sRGB">
<feFlood flood-opacity="0" result="BackgroundImageFix"/>
<feBlend mode="normal" in="SourceGraphic" in2="BackgroundImageFix" result="shape"/>
<feGaussianBlur stdDeviation="5" result="effect1_foregroundBlur_112_31417"/>
</filter>
<filter id="filter1_f_112_31417" x="-13.6426" y="142.6" width="281.57" height="124.095" filterUnits="userSpaceOnUse" color-interpolation-filters="sRGB">
<feFlood flood-opacity="0" result="BackgroundImageFix"/>
<feBlend mode="normal" in="SourceGraphic" in2="BackgroundImageFix" result="shape"/>
<feGaussianBlur stdDeviation="5" result="effect1_foregroundBlur_112_31417"/>
</filter>
<filter id="filter2_f_112_31417" x="140.602" y="15.5518" width="129.857" height="166.477" filterUnits="userSpaceOnUse" color-interpolation-filters="sRGB">
<feFlood flood-opacity="0" result="BackgroundImageFix"/>
<feBlend mode="normal" in="SourceGraphic" in2="BackgroundImageFix" result="shape"/>
<feGaussianBlur stdDeviation="5" result="effect1_foregroundBlur_112_31417"/>
</filter>
<filter id="filter3_f_112_31417" x="-16.1738" y="15.5518" width="129.857" height="166.477" filterUnits="userSpaceOnUse" color-interpolation-filters="sRGB">
<feFlood flood-opacity="0" result="BackgroundImageFix"/>
<feBlend mode="normal" in="SourceGraphic" in2="BackgroundImageFix" result="shape"/>
<feGaussianBlur stdDeviation="5" result="effect1_foregroundBlur_112_31417"/>
</filter>
<filter id="filter4_f_112_31417" x="60.6865" y="22.6201" width="72.6968" height="178.975" filterUnits="userSpaceOnUse" color-interpolation-filters="sRGB">
<feFlood flood-opacity="0" result="BackgroundImageFix"/>
<feBlend mode="normal" in="SourceGraphic" in2="BackgroundImageFix" result="shape"/>
<feGaussianBlur stdDeviation="2" result="effect1_foregroundBlur_112_31417"/>
</filter>
<clipPath id="clip0_112_31417">
<rect width="256" height="256" fill="white"/>
</clipPath>
</defs>
</svg>
