<svg width="256" height="256" viewBox="0 0 256 256" fill="none" xmlns="http://www.w3.org/2000/svg">
<metadata>
  <rdf:RDF xmlns:rdf="http://www.w3.org/1999/02/22-rdf-syntax-ns#"
            xmlns:dc="http://purl.org/dc/elements/1.1/">
    <rdf:Description>
      <dc:title>swrpg-online.com art asset</dc:title>
      <dc:creator>Joshua Ziggas</dc:creator>
      <dc:rights>CC BY-NC-SA 4.0 - https://github.com/swrpg-online/art</dc:rights>
    </rdf:Description>
  </rdf:RDF>
</metadata>
<desc>
  wrpg-online.com SWRPG Dice Asset
  Created by: Joshua Ziggas
  Source: https://github.com/swrpg-online/art
  License: CC BY-NC-SA 4.0
</desc><mask id="mask0_112_31384" style="mask-type:luminance" maskUnits="userSpaceOnUse" x="6" y="2" width="244" height="252">
<path d="M114.627 4.34533C123.319 1.52112 132.682 1.52111 141.374 4.34533L189.669 20.0373C198.361 22.8615 205.936 28.365 211.308 35.7589L241.156 76.841C246.528 84.2349 249.421 93.1397 249.421 102.279V153.059C249.421 162.199 246.528 171.103 241.156 178.497L211.308 219.58C205.936 226.973 198.361 232.477 189.669 235.301L141.374 250.993C132.682 253.817 123.319 253.817 114.627 250.993L66.3317 235.301C57.6397 232.477 50.0648 226.973 44.6929 219.58L14.8449 178.497C9.47297 171.103 6.57963 162.199 6.57963 153.059V102.279C6.57963 93.1397 9.47296 84.2349 14.8449 76.841L44.6929 35.7589C50.0648 28.365 57.6397 22.8615 66.3317 20.0373L114.627 4.34533Z" fill="white"/>
</mask>
<g mask="url(#mask0_112_31384)">
<rect width="256" height="256" fill="#272727"/>
<g filter="url(#filter0_f_112_31384)">
<path d="M50.1006 9.81476L135.446 -6.13379V48.8249H121.26V9.81476L52.8054 23.0787L50.1006 9.81476Z" fill="url(#paint0_linear_112_31384)" fill-opacity="0.15"/>
<rect x="169.169" y="196.272" width="14.1855" height="78.0203" transform="rotate(-36 169.169 196.272)" fill="url(#paint1_linear_112_31384)" fill-opacity="0.3"/>
<path d="M-5.07861 91.2408L43.0678 14.9639L61.4608 21.4555L18.1177 84.7518L55.2185 96.8066L50.835 110.298L-5.07861 91.2408Z" fill="url(#paint2_linear_112_31384)" fill-opacity="0.25"/>
<rect x="205.87" y="110.299" width="14.1855" height="78.0203" transform="rotate(-108 205.87 110.299)" fill="url(#paint3_linear_112_31384)" fill-opacity="0.25"/>
<rect x="41.6777" y="259.393" width="14.1855" height="78.0203" transform="rotate(-144 41.6777 259.393)" fill="url(#paint4_linear_112_31384)" fill-opacity="0.25"/>
<path d="M173.312 205.927L209.146 252.45L126.5 268.5L46.8545 252.45L82.6879 205.927L173.312 205.927Z" fill="black" fill-opacity="0.35"/>
<path d="M216.11 108.421L272.06 88.5819L261 175L221.455 244.329L187.851 195.392L216.11 108.421Z" fill="black" fill-opacity="0.4"/>
<path d="M136.732 38.0625L135.153 -21.2806L210.713 14.0002L267.64 74.9765L210.713 91.8131L136.732 38.0625Z" fill="black" fill-opacity="0.2"/>
<path d="M45.2874 91.8135L-11.639 74.9769L45.2874 15.0005L120.848 -21.2803L119.269 38.0628L45.2874 91.8135Z" fill="black" fill-opacity="0.1"/>
<path d="M68.1492 195.392L34.5454 244.33L-4 172.5L-16.0601 88.5823L39.8907 108.422L68.1492 195.392Z" fill="black" fill-opacity="0.25"/>
</g>
</g>
<path d="M128.036 186.3C118.277 186.3 111.27 184.361 107.016 180.482C102.762 176.603 100.593 170.159 100.509 161.151C100.468 154.102 100.426 147.638 100.384 141.757C100.343 135.876 100.322 130.663 100.322 126.117C100.322 121.57 100.343 117.838 100.384 114.918C100.426 111.957 100.468 109.892 100.509 108.725C100.885 100.216 103.429 93.9185 108.142 89.8312C112.897 85.7439 119.486 83.7002 127.911 83.7002C136.67 83.7002 143.364 85.869 147.993 90.2065C152.623 94.5441 155.063 100.383 155.313 107.724C155.355 108.599 155.375 109.371 155.375 110.038C155.417 110.706 155.417 111.456 155.375 112.291C155.375 113.125 155.355 114.23 155.313 115.606H136.294C136.419 114.272 136.482 113.187 136.482 112.353C136.524 111.477 136.524 110.539 136.482 109.538C136.44 108.495 136.378 107.056 136.294 105.221C136.253 103.344 135.564 101.843 134.23 100.717C132.937 99.549 130.872 98.9651 128.036 98.9651C125.284 98.9651 123.219 99.5073 121.843 100.592C120.466 101.676 119.737 103.219 119.653 105.221C119.528 108.599 119.403 112.332 119.278 116.42C119.194 120.465 119.153 124.74 119.153 129.245H122.531C123.74 127.159 125.638 125.428 128.224 124.052C130.852 122.676 133.875 121.988 137.295 121.988C144.386 121.988 149.244 123.656 151.872 126.992C154.541 130.287 155.938 135.793 156.064 143.508C156.105 146.136 156.126 148.305 156.126 150.015C156.168 151.725 156.168 153.414 156.126 155.082C156.126 156.709 156.064 158.732 155.938 161.151C155.438 170.159 153.082 176.603 148.869 180.482C144.698 184.361 137.754 186.3 128.036 186.3ZM128.161 171.035C130.998 171.035 133.125 170.493 134.543 169.409C136.002 168.283 136.753 166.698 136.795 164.654C136.878 162.444 136.941 160.442 136.983 158.648C137.024 156.813 137.066 155.082 137.108 153.456C137.149 151.829 137.17 150.244 137.17 148.701C137.17 147.158 137.128 145.594 137.045 144.009C137.003 141.882 136.19 140.276 134.605 139.192C133.062 138.066 131.039 137.503 128.537 137.503C125.742 137.503 123.49 138.045 121.78 139.129C120.112 140.214 119.236 141.757 119.153 143.759C119.153 147.137 119.173 150.557 119.215 154.019C119.299 157.48 119.403 160.942 119.528 164.404C119.611 166.531 120.383 168.178 121.843 169.346C123.303 170.472 125.409 171.035 128.161 171.035Z" fill="white"/>
<g filter="url(#filter1_f_112_31384)">
<path d="M62.4928 99.4782C57.484 104.467 54.5578 109.682 58.5087 120.453C52.2476 110.816 53.955 100.612 58.5085 95.5099C66.6011 86.4422 90.952 68.8656 103.474 61.4959C113.492 55.6002 126.241 46.7566 139.902 56.9608C124.534 51.2917 117.704 59.2284 110.873 63.1966C102.632 67.9849 68.7538 93.2423 62.4928 99.4782Z" fill="white"/>
</g>
<defs>
<filter id="filter0_f_112_31384" x="-26.8795" y="-32.0997" width="317.771" height="311.419" filterUnits="userSpaceOnUse" color-interpolation-filters="sRGB">
<feFlood flood-opacity="0" result="BackgroundImageFix"/>
<feBlend mode="normal" in="SourceGraphic" in2="BackgroundImageFix" result="shape"/>
<feGaussianBlur stdDeviation="5.40971" result="effect1_foregroundBlur_112_31384"/>
</filter>
<filter id="filter1_f_112_31384" x="49.0185" y="46.8813" width="96.2926" height="78.9815" filterUnits="userSpaceOnUse" color-interpolation-filters="sRGB">
<feFlood flood-opacity="0" result="BackgroundImageFix"/>
<feBlend mode="normal" in="SourceGraphic" in2="BackgroundImageFix" result="shape"/>
<feGaussianBlur stdDeviation="2.70486" result="effect1_foregroundBlur_112_31384"/>
</filter>
<linearGradient id="paint0_linear_112_31384" x1="128.353" y1="-29.1954" x2="128.353" y2="48.8249" gradientUnits="userSpaceOnUse">
<stop offset="0.40004"/>
<stop offset="0.770751" stop-opacity="0"/>
</linearGradient>
<linearGradient id="paint1_linear_112_31384" x1="176.262" y1="196.272" x2="176.275" y2="252.046" gradientUnits="userSpaceOnUse">
<stop stop-opacity="0"/>
<stop offset="0.44519"/>
</linearGradient>
<linearGradient id="paint2_linear_112_31384" x1="52.2433" y1="103.558" x2="6.82284" y2="87.454" gradientUnits="userSpaceOnUse">
<stop offset="0.487821" stop-opacity="0"/>
<stop offset="1"/>
</linearGradient>
<linearGradient id="paint3_linear_112_31384" x1="216.761" y1="109.731" x2="217.402" y2="150.481" gradientUnits="userSpaceOnUse">
<stop stop-opacity="0"/>
<stop offset="1"/>
</linearGradient>
<linearGradient id="paint4_linear_112_31384" x1="48.7705" y1="337.413" x2="48.6781" y2="291.64" gradientUnits="userSpaceOnUse">
<stop stop-opacity="0"/>
<stop offset="0.482933"/>
</linearGradient>
</defs>
</svg>
