<svg width="256" height="256" viewBox="0 0 256 256" fill="none" xmlns="http://www.w3.org/2000/svg">
<metadata>
  <rdf:RDF xmlns:rdf="http://www.w3.org/1999/02/22-rdf-syntax-ns#"
            xmlns:dc="http://purl.org/dc/elements/1.1/">
    <rdf:Description>
      <dc:title>swrpg-online.com art asset</dc:title>
      <dc:creator>Joshua Ziggas</dc:creator>
      <dc:rights>CC BY-NC-SA 4.0 - https://github.com/swrpg-online/art</dc:rights>
    </rdf:Description>
  </rdf:RDF>
</metadata>
<desc>
  wrpg-online.com SWRPG Dice Asset
  Created by: Joshua Ziggas
  Source: https://github.com/swrpg-online/art
  License: CC BY-NC-SA 4.0
</desc><mask id="mask0_112_31385" style="mask-type:luminance" maskUnits="userSpaceOnUse" x="6" y="2" width="244" height="252">
<path d="M114.627 4.34533C123.319 1.52112 132.682 1.52111 141.374 4.34533L189.669 20.0373C198.361 22.8615 205.936 28.365 211.308 35.7589L241.156 76.841C246.528 84.2349 249.421 93.1397 249.421 102.279V153.059C249.421 162.199 246.528 171.103 241.156 178.497L211.308 219.58C205.936 226.973 198.361 232.477 189.669 235.301L141.374 250.993C132.682 253.817 123.319 253.817 114.627 250.993L66.3317 235.301C57.6397 232.477 50.0648 226.973 44.6929 219.58L14.8449 178.497C9.47297 171.103 6.57963 162.199 6.57963 153.059V102.279C6.57963 93.1397 9.47296 84.2349 14.8449 76.841L44.6929 35.7589C50.0648 28.365 57.6397 22.8615 66.3317 20.0373L114.627 4.34533Z" fill="white"/>
</mask>
<g mask="url(#mask0_112_31385)">
<rect width="256" height="256" fill="#272727"/>
<g filter="url(#filter0_f_112_31385)">
<path d="M50.1006 9.81476L135.446 -6.13379V48.8249H121.26V9.81476L52.8054 23.0787L50.1006 9.81476Z" fill="url(#paint0_linear_112_31385)" fill-opacity="0.15"/>
<rect x="169.169" y="196.272" width="14.1855" height="78.0203" transform="rotate(-36 169.169 196.272)" fill="url(#paint1_linear_112_31385)" fill-opacity="0.3"/>
<path d="M-5.07861 91.2408L43.0678 14.9639L61.4608 21.4555L18.1177 84.7518L55.2185 96.8066L50.835 110.298L-5.07861 91.2408Z" fill="url(#paint2_linear_112_31385)" fill-opacity="0.25"/>
<rect x="205.87" y="110.299" width="14.1855" height="78.0203" transform="rotate(-108 205.87 110.299)" fill="url(#paint3_linear_112_31385)" fill-opacity="0.25"/>
<rect x="41.6777" y="259.393" width="14.1855" height="78.0203" transform="rotate(-144 41.6777 259.393)" fill="url(#paint4_linear_112_31385)" fill-opacity="0.25"/>
<path d="M173.312 205.927L209.146 252.45L126.5 268.5L46.8545 252.45L82.6879 205.927L173.312 205.927Z" fill="black" fill-opacity="0.35"/>
<path d="M216.11 108.421L272.06 88.5819L261 175L221.455 244.329L187.851 195.392L216.11 108.421Z" fill="black" fill-opacity="0.4"/>
<path d="M136.732 38.0625L135.153 -21.2806L210.713 14.0002L267.64 74.9765L210.713 91.8131L136.732 38.0625Z" fill="black" fill-opacity="0.2"/>
<path d="M45.2874 91.8135L-11.639 74.9769L45.2874 15.0005L120.848 -21.2803L119.269 38.0628L45.2874 91.8135Z" fill="black" fill-opacity="0.1"/>
<path d="M68.1492 195.392L34.5454 244.33L-4 172.5L-16.0601 88.5823L39.8907 108.422L68.1492 195.392Z" fill="black" fill-opacity="0.25"/>
</g>
</g>
<path d="M128.058 186.119C118.049 186.119 110.812 184.18 106.35 180.301C101.887 176.422 99.5305 169.979 99.2803 160.97C99.2386 158.509 99.2386 156.632 99.2803 155.339C99.322 154.046 99.3637 152.837 99.4054 151.711H118.549C118.424 152.753 118.32 154.088 118.236 155.715C118.195 157.3 118.174 158.843 118.174 160.344C118.174 161.804 118.215 162.847 118.299 163.472C118.549 165.85 119.446 167.685 120.989 168.978C122.574 170.229 124.763 170.854 127.558 170.854C130.561 170.854 132.792 170.229 134.252 168.978C135.712 167.685 136.525 165.85 136.692 163.472C137.067 159.01 137.276 155.193 137.317 152.024C137.401 148.854 137.276 145.83 136.942 142.952C136.692 140.617 135.899 138.886 134.565 137.76C133.23 136.634 131.186 136.071 128.434 136.071C126.557 136.071 124.909 136.321 123.491 136.821C122.073 137.322 120.968 138.052 120.176 139.011C119.383 139.97 118.966 141.117 118.924 142.452H100.907V84.7705H154.209V101.287H119.925V127.812H122.803C124.013 125.811 125.89 124.101 128.434 122.682C131.02 121.264 134.022 120.555 137.442 120.555C143.407 120.555 147.89 122.495 150.893 126.374C153.896 130.252 155.585 135.487 155.961 142.076C156.127 144.495 156.232 146.81 156.273 149.021C156.315 151.231 156.294 153.337 156.211 155.339C156.127 157.341 156.002 159.218 155.835 160.97C155.252 166.976 153.979 171.835 152.019 175.546C150.101 179.217 147.202 181.907 143.323 183.617C139.486 185.285 134.398 186.119 128.058 186.119Z" fill="white"/>
<g filter="url(#filter1_f_112_31385)">
<path d="M62.4928 99.4782C57.484 104.467 54.5578 109.682 58.5087 120.453C52.2476 110.816 53.955 100.612 58.5085 95.5099C66.6011 86.4422 90.952 68.8656 103.474 61.4959C113.492 55.6002 126.241 46.7566 139.902 56.9608C124.534 51.2917 117.704 59.2284 110.873 63.1966C102.632 67.9849 68.7538 93.2423 62.4928 99.4782Z" fill="white"/>
</g>
<defs>
<filter id="filter0_f_112_31385" x="-26.8795" y="-32.0997" width="317.771" height="311.419" filterUnits="userSpaceOnUse" color-interpolation-filters="sRGB">
<feFlood flood-opacity="0" result="BackgroundImageFix"/>
<feBlend mode="normal" in="SourceGraphic" in2="BackgroundImageFix" result="shape"/>
<feGaussianBlur stdDeviation="5.40971" result="effect1_foregroundBlur_112_31385"/>
</filter>
<filter id="filter1_f_112_31385" x="49.0185" y="46.8813" width="96.2926" height="78.9815" filterUnits="userSpaceOnUse" color-interpolation-filters="sRGB">
<feFlood flood-opacity="0" result="BackgroundImageFix"/>
<feBlend mode="normal" in="SourceGraphic" in2="BackgroundImageFix" result="shape"/>
<feGaussianBlur stdDeviation="2.70486" result="effect1_foregroundBlur_112_31385"/>
</filter>
<linearGradient id="paint0_linear_112_31385" x1="128.353" y1="-29.1954" x2="128.353" y2="48.8249" gradientUnits="userSpaceOnUse">
<stop offset="0.40004"/>
<stop offset="0.770751" stop-opacity="0"/>
</linearGradient>
<linearGradient id="paint1_linear_112_31385" x1="176.262" y1="196.272" x2="176.275" y2="252.046" gradientUnits="userSpaceOnUse">
<stop stop-opacity="0"/>
<stop offset="0.44519"/>
</linearGradient>
<linearGradient id="paint2_linear_112_31385" x1="52.2433" y1="103.558" x2="6.82284" y2="87.454" gradientUnits="userSpaceOnUse">
<stop offset="0.487821" stop-opacity="0"/>
<stop offset="1"/>
</linearGradient>
<linearGradient id="paint3_linear_112_31385" x1="216.761" y1="109.731" x2="217.402" y2="150.481" gradientUnits="userSpaceOnUse">
<stop stop-opacity="0"/>
<stop offset="1"/>
</linearGradient>
<linearGradient id="paint4_linear_112_31385" x1="48.7705" y1="337.413" x2="48.6781" y2="291.64" gradientUnits="userSpaceOnUse">
<stop stop-opacity="0"/>
<stop offset="0.482933"/>
</linearGradient>
</defs>
</svg>
