<svg width="256" height="256" viewBox="0 0 256 256" fill="none" xmlns="http://www.w3.org/2000/svg">
<metadata>
  <rdf:RDF xmlns:rdf="http://www.w3.org/1999/02/22-rdf-syntax-ns#"
            xmlns:dc="http://purl.org/dc/elements/1.1/">
    <rdf:Description>
      <dc:title>swrpg-online.com art asset</dc:title>
      <dc:creator>Joshua Ziggas</dc:creator>
      <dc:rights>CC BY-NC-SA 4.0 - https://github.com/swrpg-online/art</dc:rights>
    </rdf:Description>
  </rdf:RDF>
</metadata>
<desc>
  wrpg-online.com SWRPG Dice Asset
  Created by: Joshua Ziggas
  Source: https://github.com/swrpg-online/art
  License: CC BY-NC-SA 4.0
</desc><mask id="mask0_112_31381" style="mask-type:luminance" maskUnits="userSpaceOnUse" x="6" y="2" width="244" height="252">
<path d="M114.627 4.34533C123.319 1.52112 132.682 1.52111 141.374 4.34533L189.669 20.0373C198.361 22.8615 205.936 28.365 211.308 35.7589L241.156 76.841C246.528 84.2349 249.421 93.1397 249.421 102.279V153.059C249.421 162.199 246.528 171.103 241.156 178.497L211.308 219.58C205.936 226.973 198.361 232.477 189.669 235.301L141.374 250.993C132.682 253.817 123.319 253.817 114.627 250.993L66.3317 235.301C57.6397 232.477 50.0648 226.973 44.6929 219.58L14.8449 178.497C9.47297 171.103 6.57963 162.199 6.57963 153.059V102.279C6.57963 93.1397 9.47296 84.2349 14.8449 76.841L44.6929 35.7589C50.0648 28.365 57.6397 22.8615 66.3317 20.0373L114.627 4.34533Z" fill="white"/>
</mask>
<g mask="url(#mask0_112_31381)">
<rect width="256" height="256" fill="#272727"/>
<g filter="url(#filter0_f_112_31381)">
<path d="M50.1006 9.81476L135.446 -6.13379V48.8249H121.26V9.81476L52.8054 23.0787L50.1006 9.81476Z" fill="url(#paint0_linear_112_31381)" fill-opacity="0.15"/>
<rect x="169.169" y="196.272" width="14.1855" height="78.0203" transform="rotate(-36 169.169 196.272)" fill="url(#paint1_linear_112_31381)" fill-opacity="0.3"/>
<path d="M-5.07861 91.2408L43.0678 14.9639L61.4608 21.4555L18.1177 84.7518L55.2185 96.8066L50.835 110.298L-5.07861 91.2408Z" fill="url(#paint2_linear_112_31381)" fill-opacity="0.25"/>
<rect x="205.87" y="110.299" width="14.1855" height="78.0203" transform="rotate(-108 205.87 110.299)" fill="url(#paint3_linear_112_31381)" fill-opacity="0.25"/>
<rect x="41.6777" y="259.393" width="14.1855" height="78.0203" transform="rotate(-144 41.6777 259.393)" fill="url(#paint4_linear_112_31381)" fill-opacity="0.25"/>
<path d="M173.312 205.927L209.146 252.45L126.5 268.5L46.8545 252.45L82.6879 205.927L173.312 205.927Z" fill="black" fill-opacity="0.35"/>
<path d="M216.11 108.421L272.06 88.5819L261 175L221.455 244.329L187.851 195.392L216.11 108.421Z" fill="black" fill-opacity="0.4"/>
<path d="M136.732 38.0625L135.153 -21.2806L210.713 14.0002L267.64 74.9765L210.713 91.8131L136.732 38.0625Z" fill="black" fill-opacity="0.2"/>
<path d="M45.2874 91.8135L-11.639 74.9769L45.2874 15.0005L120.848 -21.2803L119.269 38.0628L45.2874 91.8135Z" fill="black" fill-opacity="0.1"/>
<path d="M68.1492 195.392L34.5454 244.33L-4 172.5L-16.0601 88.5823L39.8907 108.422L68.1492 195.392Z" fill="black" fill-opacity="0.25"/>
</g>
</g>
<path d="M129.228 186.3C119.677 186.3 112.774 184.361 108.52 180.482C104.308 176.603 102.202 170.201 102.202 161.276C102.202 160.608 102.202 159.899 102.202 159.149C102.202 158.398 102.202 157.626 102.202 156.834C102.243 156.042 102.285 155.228 102.327 154.394H121.345C121.303 156.271 121.262 157.96 121.22 159.462C121.178 160.921 121.22 162.694 121.345 164.779C121.47 166.656 122.075 168.178 123.159 169.346C124.244 170.472 126.183 171.035 128.978 171.035C131.438 171.035 133.336 170.514 134.671 169.471C136.005 168.429 136.735 166.781 136.86 164.529C137.069 161.318 137.215 157.71 137.298 153.706C137.382 149.702 137.444 145.385 137.486 140.756H134.608C133.607 142.799 131.96 144.53 129.666 145.948C127.372 147.325 124.473 148.013 120.97 148.013C117.425 148.013 114.067 147.262 110.898 145.761C107.769 144.218 105.225 141.778 103.265 138.441C101.305 135.104 100.325 130.746 100.325 125.366C100.325 122.905 100.325 120.778 100.325 118.985C100.325 117.149 100.325 115.585 100.325 114.293C100.325 113 100.325 111.915 100.325 111.039C100.366 110.122 100.408 109.392 100.45 108.85C100.825 99.8409 103.182 93.3972 107.519 89.5184C111.857 85.6396 118.801 83.7002 128.352 83.7002C138.112 83.7002 145.098 85.6396 149.31 89.5184C153.522 93.3972 155.712 99.8409 155.879 108.85C156.046 116.274 156.15 122.843 156.192 128.556C156.233 134.27 156.213 139.713 156.129 144.885C156.087 150.057 156.004 155.52 155.879 161.276C155.712 170.201 153.502 176.603 149.247 180.482C144.993 184.361 138.32 186.3 129.228 186.3ZM128.602 132.498C131.188 132.498 133.211 132.06 134.671 131.184C136.172 130.266 137.069 128.994 137.361 127.368C137.319 123.781 137.257 120.132 137.173 116.42C137.09 112.666 136.944 108.891 136.735 105.096C136.693 103.136 135.943 101.634 134.483 100.592C133.023 99.5073 130.938 98.9651 128.227 98.9651C125.474 98.9651 123.347 99.5073 121.846 100.592C120.344 101.676 119.593 103.261 119.593 105.346C119.593 105.638 119.573 106.681 119.531 108.474C119.531 110.268 119.51 112.353 119.468 114.73C119.468 117.108 119.448 119.381 119.406 121.55C119.406 123.677 119.427 125.241 119.468 126.242C119.552 128.244 120.428 129.787 122.096 130.871C123.806 131.956 125.975 132.498 128.602 132.498Z" fill="white"/>
<g filter="url(#filter1_f_112_31381)">
<path d="M62.4928 99.4782C57.484 104.467 54.5578 109.682 58.5087 120.453C52.2476 110.816 53.955 100.612 58.5085 95.5099C66.6011 86.4422 90.952 68.8656 103.474 61.4959C113.492 55.6002 126.241 46.7566 139.902 56.9608C124.534 51.2917 117.704 59.2284 110.873 63.1966C102.632 67.9849 68.7538 93.2423 62.4928 99.4782Z" fill="white"/>
</g>
<defs>
<filter id="filter0_f_112_31381" x="-26.8795" y="-32.0997" width="317.771" height="311.419" filterUnits="userSpaceOnUse" color-interpolation-filters="sRGB">
<feFlood flood-opacity="0" result="BackgroundImageFix"/>
<feBlend mode="normal" in="SourceGraphic" in2="BackgroundImageFix" result="shape"/>
<feGaussianBlur stdDeviation="5.40971" result="effect1_foregroundBlur_112_31381"/>
</filter>
<filter id="filter1_f_112_31381" x="49.0185" y="46.8813" width="96.2926" height="78.9815" filterUnits="userSpaceOnUse" color-interpolation-filters="sRGB">
<feFlood flood-opacity="0" result="BackgroundImageFix"/>
<feBlend mode="normal" in="SourceGraphic" in2="BackgroundImageFix" result="shape"/>
<feGaussianBlur stdDeviation="2.70486" result="effect1_foregroundBlur_112_31381"/>
</filter>
<linearGradient id="paint0_linear_112_31381" x1="128.353" y1="-29.1954" x2="128.353" y2="48.8249" gradientUnits="userSpaceOnUse">
<stop offset="0.40004"/>
<stop offset="0.770751" stop-opacity="0"/>
</linearGradient>
<linearGradient id="paint1_linear_112_31381" x1="176.262" y1="196.272" x2="176.275" y2="252.046" gradientUnits="userSpaceOnUse">
<stop stop-opacity="0"/>
<stop offset="0.44519"/>
</linearGradient>
<linearGradient id="paint2_linear_112_31381" x1="52.2433" y1="103.558" x2="6.82284" y2="87.454" gradientUnits="userSpaceOnUse">
<stop offset="0.487821" stop-opacity="0"/>
<stop offset="1"/>
</linearGradient>
<linearGradient id="paint3_linear_112_31381" x1="216.761" y1="109.731" x2="217.402" y2="150.481" gradientUnits="userSpaceOnUse">
<stop stop-opacity="0"/>
<stop offset="1"/>
</linearGradient>
<linearGradient id="paint4_linear_112_31381" x1="48.7705" y1="337.413" x2="48.6781" y2="291.64" gradientUnits="userSpaceOnUse">
<stop stop-opacity="0"/>
<stop offset="0.482933"/>
</linearGradient>
</defs>
</svg>
