<svg width="256" height="256" viewBox="0 0 256 256" fill="none" xmlns="http://www.w3.org/2000/svg">
<metadata>
  <rdf:RDF xmlns:rdf="http://www.w3.org/1999/02/22-rdf-syntax-ns#"
            xmlns:dc="http://purl.org/dc/elements/1.1/">
    <rdf:Description>
      <dc:title>swrpg-online.com art asset</dc:title>
      <dc:creator>Joshua Ziggas</dc:creator>
      <dc:rights>CC BY-NC-SA 4.0 - https://github.com/swrpg-online/art</dc:rights>
    </rdf:Description>
  </rdf:RDF>
</metadata>
<desc>
  wrpg-online.com SWRPG Dice Asset
  Created by: Joshua Ziggas
  Source: https://github.com/swrpg-online/art
  License: CC BY-NC-SA 4.0
</desc><mask id="mask0_112_31387" style="mask-type:luminance" maskUnits="userSpaceOnUse" x="6" y="2" width="244" height="252">
<path d="M114.627 4.34533C123.319 1.52112 132.682 1.52111 141.374 4.34533L189.669 20.0373C198.361 22.8615 205.936 28.365 211.308 35.7589L241.156 76.841C246.528 84.2349 249.421 93.1397 249.421 102.279V153.059C249.421 162.199 246.528 171.103 241.156 178.497L211.308 219.58C205.936 226.973 198.361 232.477 189.669 235.301L141.374 250.993C132.682 253.817 123.319 253.817 114.627 250.993L66.3317 235.301C57.6397 232.477 50.0648 226.973 44.6929 219.58L14.8449 178.497C9.47297 171.103 6.57963 162.199 6.57963 153.059V102.279C6.57963 93.1397 9.47296 84.2349 14.8449 76.841L44.6929 35.7589C50.0648 28.365 57.6397 22.8615 66.3317 20.0373L114.627 4.34533Z" fill="white"/>
</mask>
<g mask="url(#mask0_112_31387)">
<rect width="256" height="256" fill="#272727"/>
<g filter="url(#filter0_f_112_31387)">
<path d="M50.1006 9.81476L135.446 -6.13379V48.8249H121.26V9.81476L52.8054 23.0787L50.1006 9.81476Z" fill="url(#paint0_linear_112_31387)" fill-opacity="0.15"/>
<rect x="169.169" y="196.272" width="14.1855" height="78.0203" transform="rotate(-36 169.169 196.272)" fill="url(#paint1_linear_112_31387)" fill-opacity="0.3"/>
<path d="M-5.07861 91.2408L43.0678 14.9639L61.4608 21.4555L18.1177 84.7518L55.2185 96.8066L50.835 110.298L-5.07861 91.2408Z" fill="url(#paint2_linear_112_31387)" fill-opacity="0.25"/>
<rect x="205.87" y="110.299" width="14.1855" height="78.0203" transform="rotate(-108 205.87 110.299)" fill="url(#paint3_linear_112_31387)" fill-opacity="0.25"/>
<rect x="41.6777" y="259.393" width="14.1855" height="78.0203" transform="rotate(-144 41.6777 259.393)" fill="url(#paint4_linear_112_31387)" fill-opacity="0.25"/>
<path d="M173.312 205.927L209.146 252.45L126.5 268.5L46.8545 252.45L82.6879 205.927L173.312 205.927Z" fill="black" fill-opacity="0.35"/>
<path d="M216.11 108.421L272.06 88.5819L261 175L221.455 244.329L187.851 195.392L216.11 108.421Z" fill="black" fill-opacity="0.4"/>
<path d="M136.732 38.0625L135.153 -21.2806L210.713 14.0002L267.64 74.9765L210.713 91.8131L136.732 38.0625Z" fill="black" fill-opacity="0.2"/>
<path d="M45.2874 91.8135L-11.639 74.9769L45.2874 15.0005L120.848 -21.2803L119.269 38.0628L45.2874 91.8135Z" fill="black" fill-opacity="0.1"/>
<path d="M68.1492 195.392L34.5454 244.33L-4 172.5L-16.0601 88.5823L39.8907 108.422L68.1492 195.392Z" fill="black" fill-opacity="0.25"/>
</g>
</g>
<path d="M128.139 186.119C118.129 186.119 110.893 184.18 106.43 180.301C101.968 176.422 99.6112 169.979 99.361 160.97C99.3193 159.468 99.2775 158.321 99.2358 157.529C99.2358 156.736 99.2358 155.944 99.2358 155.152C99.2775 154.359 99.3193 153.212 99.361 151.711H118.505V163.472C118.505 165.85 119.297 167.685 120.882 168.978C122.467 170.229 124.719 170.854 127.639 170.854C130.641 170.854 132.894 170.229 134.395 168.978C135.938 167.685 136.731 165.891 136.772 163.597C136.856 160.845 136.898 158.405 136.898 156.278C136.939 154.151 136.898 152.128 136.772 150.209C136.647 147.957 135.917 145.955 134.583 144.203C133.29 142.452 130.725 141.618 126.888 141.701L114.25 141.826L113.75 126.061L133.144 101.287H100.737V84.7705H155.04L154.79 100.786L134.645 125.56C141.527 126.102 146.678 128.313 150.098 132.192C153.56 136.071 155.499 142.243 155.916 150.71C155.958 151.586 155.979 152.42 155.979 153.212C156.02 153.963 156.041 154.714 156.041 155.464C156.041 156.215 156.041 157.049 156.041 157.967C156.041 158.843 155.999 159.844 155.916 160.97C155.541 169.979 153.184 176.422 148.847 180.301C144.551 184.18 137.648 186.119 128.139 186.119Z" fill="white"/>
<g filter="url(#filter1_f_112_31387)">
<path d="M62.4928 99.4782C57.484 104.467 54.5578 109.682 58.5087 120.453C52.2476 110.816 53.955 100.612 58.5085 95.5099C66.6011 86.4422 90.952 68.8656 103.474 61.4959C113.492 55.6002 126.241 46.7566 139.902 56.9608C124.534 51.2917 117.704 59.2284 110.873 63.1966C102.632 67.9849 68.7538 93.2423 62.4928 99.4782Z" fill="white"/>
</g>
<defs>
<filter id="filter0_f_112_31387" x="-26.8795" y="-32.0997" width="317.771" height="311.419" filterUnits="userSpaceOnUse" color-interpolation-filters="sRGB">
<feFlood flood-opacity="0" result="BackgroundImageFix"/>
<feBlend mode="normal" in="SourceGraphic" in2="BackgroundImageFix" result="shape"/>
<feGaussianBlur stdDeviation="5.40971" result="effect1_foregroundBlur_112_31387"/>
</filter>
<filter id="filter1_f_112_31387" x="49.0185" y="46.8813" width="96.2926" height="78.9815" filterUnits="userSpaceOnUse" color-interpolation-filters="sRGB">
<feFlood flood-opacity="0" result="BackgroundImageFix"/>
<feBlend mode="normal" in="SourceGraphic" in2="BackgroundImageFix" result="shape"/>
<feGaussianBlur stdDeviation="2.70486" result="effect1_foregroundBlur_112_31387"/>
</filter>
<linearGradient id="paint0_linear_112_31387" x1="128.353" y1="-29.1954" x2="128.353" y2="48.8249" gradientUnits="userSpaceOnUse">
<stop offset="0.40004"/>
<stop offset="0.770751" stop-opacity="0"/>
</linearGradient>
<linearGradient id="paint1_linear_112_31387" x1="176.262" y1="196.272" x2="176.275" y2="252.046" gradientUnits="userSpaceOnUse">
<stop stop-opacity="0"/>
<stop offset="0.44519"/>
</linearGradient>
<linearGradient id="paint2_linear_112_31387" x1="52.2433" y1="103.558" x2="6.82284" y2="87.454" gradientUnits="userSpaceOnUse">
<stop offset="0.487821" stop-opacity="0"/>
<stop offset="1"/>
</linearGradient>
<linearGradient id="paint3_linear_112_31387" x1="216.761" y1="109.731" x2="217.402" y2="150.481" gradientUnits="userSpaceOnUse">
<stop stop-opacity="0"/>
<stop offset="1"/>
</linearGradient>
<linearGradient id="paint4_linear_112_31387" x1="48.7705" y1="337.413" x2="48.6781" y2="291.64" gradientUnits="userSpaceOnUse">
<stop stop-opacity="0"/>
<stop offset="0.482933"/>
</linearGradient>
</defs>
</svg>
