<svg width="256" height="256" viewBox="0 0 256 256" fill="none" xmlns="http://www.w3.org/2000/svg">
<metadata>
  <rdf:RDF xmlns:rdf="http://www.w3.org/1999/02/22-rdf-syntax-ns#"
            xmlns:dc="http://purl.org/dc/elements/1.1/">
    <rdf:Description>
      <dc:title>swrpg-online.com art asset</dc:title>
      <dc:creator>Joshua Ziggas</dc:creator>
      <dc:rights>CC BY-NC-SA 4.0 - https://github.com/swrpg-online/art</dc:rights>
    </rdf:Description>
  </rdf:RDF>
</metadata>
<desc>
  wrpg-online.com SWRPG Dice Asset
  Created by: Joshua Ziggas
  Source: https://github.com/swrpg-online/art
  License: CC BY-NC-SA 4.0
</desc><mask id="mask0_112_31365" style="mask-type:alpha" maskUnits="userSpaceOnUse" x="10" y="0" width="237" height="256">
<path d="M224.91 60.2803L150.531 7.28962C136.792 -2.49863 118.338 -2.42293 104.68 7.47773L31.8161 60.296C23.7755 66.1246 18.6774 75.1707 17.8556 85.0677L10.4831 173.859C9.14473 189.977 17.8216 205.268 32.3449 212.386L112.644 251.739C122.046 256.346 133.044 256.376 142.471 251.82L224.23 212.3C238.838 205.239 247.602 189.923 246.289 173.75L239.102 85.276C238.289 75.2589 233.095 66.1118 224.91 60.2803Z" fill="#CFCFCF"/>
</mask>
<g mask="url(#mask0_112_31365)">
<rect width="256" height="256" fill="#272727"/>
<g style="mix-blend-mode:multiply" filter="url(#filter0_f_112_31365)">
<mask id="mask1_112_31365" style="mask-type:alpha" maskUnits="userSpaceOnUse" x="1" y="-10" width="255" height="275">
<path fill-rule="evenodd" clip-rule="evenodd" d="M152.286 -1.73797L232.217 55.1624C241.013 61.4242 246.595 71.2462 247.469 82.0024L255.192 177.005C256.604 194.37 247.185 210.817 231.486 218.399L143.625 260.834C133.494 265.727 121.674 265.695 111.57 260.747L25.277 218.49C9.66957 210.848 0.344966 194.428 1.7832 177.121L9.70613 81.7786C10.5892 71.1515 16.0679 61.4379 24.7088 55.1793L103.012 -1.53598C117.69 -12.1671 137.522 -12.2484 152.286 -1.73797ZM138.619 210.456C134.337 217.847 123.663 217.847 119.381 210.456L57.5143 103.688C53.2204 96.2773 58.5682 86.9996 67.1337 86.9996H190.866C199.432 86.9996 204.779 96.2772 200.485 103.688L138.619 210.456Z" fill="black"/>
</mask>
<g mask="url(#mask1_112_31365)">
<path d="M224.91 60.2803L150.531 7.28962C136.792 -2.49863 118.338 -2.42293 104.68 7.47773L31.8161 60.296C23.7755 66.1246 18.6774 75.1707 17.8556 85.0677L10.4831 173.859C9.14473 189.977 17.8216 205.268 32.3449 212.386L112.644 251.739C122.046 256.346 133.044 256.376 142.471 251.82L224.23 212.3C238.838 205.239 247.602 189.923 246.289 173.75L239.102 85.276C238.289 75.2589 233.095 66.1118 224.91 60.2803Z" fill="#CFCFCF"/>
<path d="M204.7 84H53.3C43.2078 84 38.1969 73.0586 45.3921 66.7329L110.15 9.80008C120.433 0.759757 136.916 0.729605 147.24 9.73224L212.575 66.704C219.815 73.0173 214.814 84 204.7 84Z" fill="#E0E0E0"/>
<path d="M51.0667 91.529L123.602 217.163C128.437 225.538 121.573 235.045 112.769 232.167L33.5346 206.263C20.953 202.15 13.0306 188.487 15.7075 175.519L32.6481 93.4499C34.5254 84.3556 46.2209 83.1358 51.0667 91.529Z" fill="#D8D8D8"/>
<path d="M206.995 88.7409L131.61 219.312C126.585 228.015 133.43 237.729 142.412 234.642L223.255 206.851C236.092 202.438 244.325 188.238 241.78 174.897L225.68 90.4733C223.896 81.1179 212.031 80.0179 206.995 88.7409Z" fill="#C1C1C1"/>
<path d="M128.485 230.499V263.061L104.346 256.907L21.7533 217.386L12.9971 206.5L15.6003 194.431C18.8346 198.454 26.6284 206.831 31.9294 208.157C38.5558 209.813 109.552 221.033 118.072 223.163C124.887 224.867 127.853 228.764 128.485 230.499Z" fill="#8D8D8D"/>
<path d="M128.484 230.999V263.061L152.623 256.907L235.215 217.386L243.972 206.5L241.368 194.431C238.134 198.454 230.34 206.831 225.039 208.157C218.413 209.813 147.417 221.533 138.897 223.663C132.081 225.367 129.115 229.264 128.484 230.999Z" fill="#737373"/>
<path d="M212.647 84.3141L243.297 64.418L250.038 88.3993L257.107 179.687L252.058 192.713L240.304 196.494C242.171 191.681 245.529 180.743 244.026 175.489C242.148 168.922 213.915 105.443 211.5 97C209.568 90.2455 211.459 85.7284 212.647 84.3141Z" fill="#828282"/>
<path d="M211.5 83.4999L243.297 64.4179L225.899 46.5896L150.376 -5.17687L136.571 -7.31692L127.42 0.972212C132.521 1.76162 143.673 4.32248 147.471 8.2507C152.219 13.161 193.836 71.8371 199.94 78.1503C204.824 83.2008 209.681 83.8211 211.5 83.4999Z" fill="#9E9E9E"/>
<path d="M44.8524 83.8141L13.9433 64.418L7.2026 88.3993L0.132831 179.687L5.18237 192.713L16.9364 196.494C15.0694 191.681 11.7111 180.743 13.2139 175.489C15.0924 168.922 43.5841 104.943 45.9994 96.5C47.9316 89.7455 46.0398 85.2284 44.8524 83.8141Z" fill="#B1B1B1"/>
<path d="M46.4404 83.8495L13.9441 64.4179L31.3422 46.5896L106.865 -5.17687L120.671 -7.31692L129.821 0.972212C124.72 1.76162 113.568 4.32248 109.77 8.2507C105.022 13.161 64.1046 72.1867 58.0002 78.4999C53.1168 83.5504 48.2589 84.1707 46.4404 83.8495Z" fill="#B6B6B6"/>
</g>
</g>
</g>
<g filter="url(#filter1_f_112_31365)">
<path d="M72.7423 89H122C110.497 90.3425 85.9103 93.2575 79.5869 94.1781C71.6827 95.3288 66.0919 98.2055 68.5981 106.452C70.6031 113.049 83.9568 144.233 90.383 159L61.6354 107.833C56.8952 99.3957 63.0262 89 72.7423 89Z" fill="url(#paint0_radial_112_31365)"/>
</g>
<path d="M122.136 164.873C122.107 163.79 122.077 162.78 122.048 161.844C122.048 160.907 122.033 160.014 122.004 159.166C122.004 158.288 121.99 157.41 121.96 156.531C121.96 155.653 121.96 154.717 121.96 153.722C121.99 152.697 122.019 151.585 122.048 150.385C122.136 147.4 122.692 144.663 123.716 142.175C124.77 139.658 126.321 137.375 128.37 135.327C130.419 133.249 132.994 131.39 136.097 129.751L142.243 126.502C144.263 125.449 145.565 124.161 146.151 122.639C146.736 121.117 147.073 119.741 147.16 118.512C147.248 117.049 147.307 115.468 147.336 113.77C147.365 112.044 147.336 110.434 147.248 108.941C147.16 107.566 146.619 106.483 145.624 105.692C144.629 104.873 143.121 104.463 141.102 104.463C139.141 104.463 137.721 104.858 136.843 105.649C135.994 106.41 135.541 107.39 135.482 108.59C135.394 110.961 135.336 113.053 135.307 114.868C135.307 116.653 135.365 118.688 135.482 120.97H122.224C122.165 119.829 122.121 118.688 122.092 117.546C122.063 116.375 122.033 115.263 122.004 114.21C122.004 113.156 122.019 112.19 122.048 111.312C122.312 105.019 123.921 100.527 126.877 97.8339C129.863 95.112 134.604 93.751 141.102 93.751C145.697 93.751 149.385 94.351 152.165 95.551C154.975 96.7217 157.038 98.5949 158.355 101.17C159.673 103.746 160.419 107.127 160.594 111.312C160.624 112.014 160.638 112.673 160.638 113.288C160.668 113.873 160.682 114.444 160.682 115C160.682 115.527 160.668 116.068 160.638 116.624C160.638 117.18 160.624 117.78 160.594 118.424C160.477 121.673 159.848 124.497 158.707 126.897C157.565 129.268 156.029 131.331 154.097 133.088C152.165 134.844 149.941 136.395 147.424 137.741L140.312 141.517C139.112 142.161 138.16 143.024 137.458 144.107C136.785 145.161 136.302 146.258 136.009 147.4C135.716 148.541 135.57 149.536 135.57 150.385V153.283H159.541V164.873H122.136Z" fill="white"/>
<path d="M101.235 164.873V106.219H95.9665L95.6152 101.566L104.045 94.629H114.932V164.873H101.235Z" fill="white"/>
<defs>
<filter id="filter0_f_112_31365" x="-8.3623" y="-17.3174" width="273.693" height="290.378" filterUnits="userSpaceOnUse" color-interpolation-filters="sRGB">
<feFlood flood-opacity="0" result="BackgroundImageFix"/>
<feBlend mode="normal" in="SourceGraphic" in2="BackgroundImageFix" result="shape"/>
<feGaussianBlur stdDeviation="5" result="effect1_foregroundBlur_112_31365"/>
</filter>
<filter id="filter1_f_112_31365" x="55" y="84" width="72" height="80" filterUnits="userSpaceOnUse" color-interpolation-filters="sRGB">
<feFlood flood-opacity="0" result="BackgroundImageFix"/>
<feBlend mode="normal" in="SourceGraphic" in2="BackgroundImageFix" result="shape"/>
<feGaussianBlur stdDeviation="2.5" result="effect1_foregroundBlur_112_31365"/>
</filter>
<radialGradient id="paint0_radial_112_31365" cx="0" cy="0" r="1" gradientUnits="userSpaceOnUse" gradientTransform="translate(68.0198 95.7123) rotate(44.0247) scale(47.1885 41.5706)">
<stop stop-color="white"/>
<stop offset="1" stop-color="white" stop-opacity="0"/>
</radialGradient>
</defs>
</svg>
