<svg width="256" height="256" viewBox="0 0 256 256" fill="none" xmlns="http://www.w3.org/2000/svg">
<metadata>
  <rdf:RDF xmlns:rdf="http://www.w3.org/1999/02/22-rdf-syntax-ns#"
            xmlns:dc="http://purl.org/dc/elements/1.1/">
    <rdf:Description>
      <dc:title>swrpg-online.com art asset</dc:title>
      <dc:creator>Joshua Ziggas</dc:creator>
      <dc:rights>CC BY-NC-SA 4.0 - https://github.com/swrpg-online/art</dc:rights>
    </rdf:Description>
  </rdf:RDF>
</metadata>
<desc>
  wrpg-online.com SWRPG Dice Asset
  Created by: Joshua Ziggas
  Source: https://github.com/swrpg-online/art
  License: CC BY-NC-SA 4.0
</desc><mask id="mask0_112_31359" style="mask-type:alpha" maskUnits="userSpaceOnUse" x="10" y="0" width="237" height="256">
<path d="M224.91 60.2803L150.531 7.28962C136.792 -2.49863 118.338 -2.42293 104.68 7.47773L31.8161 60.296C23.7755 66.1246 18.6774 75.1707 17.8556 85.0677L10.4831 173.859C9.14473 189.977 17.8216 205.268 32.3449 212.386L112.644 251.739C122.046 256.346 133.044 256.376 142.471 251.82L224.23 212.3C238.838 205.239 247.602 189.923 246.289 173.75L239.102 85.276C238.289 75.2589 233.095 66.1118 224.91 60.2803Z" fill="#CFCFCF"/>
</mask>
<g mask="url(#mask0_112_31359)">
<rect width="256" height="256" fill="#272727"/>
<g style="mix-blend-mode:multiply" filter="url(#filter0_f_112_31359)">
<mask id="mask1_112_31359" style="mask-type:alpha" maskUnits="userSpaceOnUse" x="1" y="-10" width="255" height="275">
<path fill-rule="evenodd" clip-rule="evenodd" d="M152.286 -1.73797L232.217 55.1624C241.013 61.4242 246.595 71.2462 247.469 82.0024L255.192 177.005C256.604 194.37 247.185 210.817 231.486 218.399L143.625 260.834C133.494 265.727 121.674 265.695 111.57 260.747L25.277 218.49C9.66957 210.848 0.344966 194.428 1.7832 177.121L9.70613 81.7786C10.5892 71.1515 16.0679 61.4379 24.7088 55.1793L103.012 -1.53598C117.69 -12.1671 137.522 -12.2484 152.286 -1.73797ZM138.619 210.456C134.337 217.847 123.663 217.847 119.381 210.456L57.5143 103.688C53.2204 96.2773 58.5682 86.9996 67.1337 86.9996H190.866C199.432 86.9996 204.779 96.2772 200.485 103.688L138.619 210.456Z" fill="black"/>
</mask>
<g mask="url(#mask1_112_31359)">
<path d="M224.91 60.2803L150.531 7.28962C136.792 -2.49863 118.338 -2.42293 104.68 7.47773L31.8161 60.296C23.7755 66.1246 18.6774 75.1707 17.8556 85.0677L10.4831 173.859C9.14473 189.977 17.8216 205.268 32.3449 212.386L112.644 251.739C122.046 256.346 133.044 256.376 142.471 251.82L224.23 212.3C238.838 205.239 247.602 189.923 246.289 173.75L239.102 85.276C238.289 75.2589 233.095 66.1118 224.91 60.2803Z" fill="#CFCFCF"/>
<path d="M204.7 84H53.3C43.2078 84 38.1969 73.0586 45.3921 66.7329L110.15 9.80008C120.433 0.759757 136.916 0.729605 147.24 9.73224L212.575 66.704C219.815 73.0173 214.814 84 204.7 84Z" fill="#E0E0E0"/>
<path d="M51.0667 91.529L123.602 217.163C128.437 225.538 121.573 235.045 112.769 232.167L33.5346 206.263C20.953 202.15 13.0306 188.487 15.7075 175.519L32.6481 93.4499C34.5254 84.3556 46.2209 83.1358 51.0667 91.529Z" fill="#D8D8D8"/>
<path d="M206.995 88.7409L131.61 219.312C126.585 228.015 133.43 237.729 142.412 234.642L223.255 206.851C236.092 202.438 244.325 188.238 241.78 174.897L225.68 90.4733C223.896 81.1179 212.031 80.0179 206.995 88.7409Z" fill="#C1C1C1"/>
<path d="M128.485 230.499V263.061L104.346 256.907L21.7533 217.386L12.9971 206.5L15.6003 194.431C18.8346 198.454 26.6284 206.831 31.9294 208.157C38.5558 209.813 109.552 221.033 118.072 223.163C124.887 224.867 127.853 228.764 128.485 230.499Z" fill="#8D8D8D"/>
<path d="M128.484 230.999V263.061L152.623 256.907L235.215 217.386L243.972 206.5L241.368 194.431C238.134 198.454 230.34 206.831 225.039 208.157C218.413 209.813 147.417 221.533 138.897 223.663C132.081 225.367 129.115 229.264 128.484 230.999Z" fill="#737373"/>
<path d="M212.647 84.3141L243.297 64.418L250.038 88.3993L257.107 179.687L252.058 192.713L240.304 196.494C242.171 191.681 245.529 180.743 244.026 175.489C242.148 168.922 213.915 105.443 211.5 97C209.568 90.2455 211.459 85.7284 212.647 84.3141Z" fill="#828282"/>
<path d="M211.5 83.4999L243.297 64.4179L225.899 46.5896L150.376 -5.17687L136.571 -7.31692L127.42 0.972212C132.521 1.76162 143.673 4.32248 147.471 8.2507C152.219 13.161 193.836 71.8371 199.94 78.1503C204.824 83.2008 209.681 83.8211 211.5 83.4999Z" fill="#9E9E9E"/>
<path d="M44.8524 83.8141L13.9433 64.418L7.2026 88.3993L0.132831 179.687L5.18237 192.713L16.9364 196.494C15.0694 191.681 11.7111 180.743 13.2139 175.489C15.0924 168.922 43.5841 104.943 45.9994 96.5C47.9316 89.7455 46.0398 85.2284 44.8524 83.8141Z" fill="#B1B1B1"/>
<path d="M46.4404 83.8495L13.9441 64.4179L31.3422 46.5896L106.865 -5.17687L120.671 -7.31692L129.821 0.972212C124.72 1.76162 113.568 4.32248 109.77 8.2507C105.022 13.161 64.1046 72.1867 58.0002 78.4999C53.1168 83.5504 48.2589 84.1707 46.4404 83.8495Z" fill="#B6B6B6"/>
</g>
</g>
</g>
<g filter="url(#filter1_f_112_31359)">
<path d="M72.7423 89H122C110.497 90.3425 85.9103 93.2575 79.5869 94.1781C71.6827 95.3288 66.0919 98.2055 68.5981 106.452C70.6031 113.049 83.9568 144.233 90.383 159L61.6354 107.833C56.8952 99.3957 63.0262 89 72.7423 89Z" fill="url(#paint0_radial_112_31359)"/>
</g>
<path d="M141.473 165C134.536 165 129.619 163.58 126.721 160.741C123.824 157.873 122.243 153.41 121.98 147.351C121.951 146.473 121.936 145.785 121.936 145.288C121.936 144.761 121.951 144.234 121.98 143.707C122.009 143.18 122.068 142.434 122.155 141.468C122.477 138.22 123.282 135.673 124.57 133.829C125.858 131.956 127.775 130.493 130.321 129.439V127.595C128.565 126.98 127.014 125.971 125.668 124.566C124.351 123.161 123.473 121.39 123.034 119.254C122.887 118.551 122.755 117.688 122.638 116.663C122.551 115.61 122.477 114.556 122.419 113.502C122.39 112.42 122.39 111.468 122.419 110.649C122.741 104.444 124.321 99.9512 127.16 97.1707C129.999 94.3902 134.77 93 141.473 93C147.97 93 152.697 94.361 155.653 97.0829C158.609 99.8049 160.234 104.327 160.526 110.649C160.555 111.468 160.541 112.42 160.482 113.502C160.453 114.556 160.38 115.61 160.263 116.663C160.175 117.688 160.058 118.551 159.912 119.254C159.473 121.39 158.58 123.161 157.234 124.566C155.916 125.971 154.38 126.98 152.624 127.595V129.527C154.965 130.58 156.795 132.059 158.112 133.961C159.458 135.834 160.351 138.307 160.79 141.38C160.965 142.61 161.053 143.663 161.053 144.541C161.053 145.39 161.024 146.327 160.965 147.351C160.673 153.615 159.034 158.122 156.048 160.873C153.092 163.624 148.234 165 141.473 165ZM141.473 154.288C143.551 154.288 145.073 153.849 146.038 152.971C147.034 152.063 147.531 150.776 147.531 149.107C147.531 148.112 147.531 147.117 147.531 146.122C147.531 145.098 147.531 144.088 147.531 143.093C147.531 142.068 147.531 141.059 147.531 140.063C147.531 138.395 147.034 137.122 146.038 136.244C145.073 135.337 143.551 134.883 141.473 134.883C139.424 134.883 137.902 135.337 136.907 136.244C135.912 137.122 135.414 138.395 135.414 140.063C135.414 141.556 135.414 143.063 135.414 144.585C135.414 146.107 135.414 147.615 135.414 149.107C135.414 150.776 135.912 152.063 136.907 152.971C137.902 153.849 139.424 154.288 141.473 154.288ZM141.473 122.327C143.492 122.327 144.999 121.888 145.995 121.01C147.019 120.102 147.531 118.815 147.531 117.146C147.531 115.771 147.531 114.395 147.531 113.02C147.531 111.615 147.531 110.239 147.531 108.893C147.531 107.224 147.034 105.951 146.038 105.073C145.073 104.166 143.551 103.712 141.473 103.712C139.453 103.712 137.931 104.166 136.907 105.073C135.912 105.951 135.414 107.224 135.414 108.893C135.414 109.566 135.414 110.254 135.414 110.956C135.414 111.629 135.414 112.317 135.414 113.02C135.414 113.722 135.414 114.424 135.414 115.127C135.414 115.8 135.414 116.473 135.414 117.146C135.414 118.815 135.912 120.102 136.907 121.01C137.931 121.888 139.453 122.327 141.473 122.327Z" fill="white"/>
<path d="M101.254 164.122V105.468H95.986L95.6348 100.815L104.064 93.878H114.952V164.122H101.254Z" fill="white"/>
<defs>
<filter id="filter0_f_112_31359" x="-8.3623" y="-17.3174" width="273.693" height="290.378" filterUnits="userSpaceOnUse" color-interpolation-filters="sRGB">
<feFlood flood-opacity="0" result="BackgroundImageFix"/>
<feBlend mode="normal" in="SourceGraphic" in2="BackgroundImageFix" result="shape"/>
<feGaussianBlur stdDeviation="5" result="effect1_foregroundBlur_112_31359"/>
</filter>
<filter id="filter1_f_112_31359" x="55" y="84" width="72" height="80" filterUnits="userSpaceOnUse" color-interpolation-filters="sRGB">
<feFlood flood-opacity="0" result="BackgroundImageFix"/>
<feBlend mode="normal" in="SourceGraphic" in2="BackgroundImageFix" result="shape"/>
<feGaussianBlur stdDeviation="2.5" result="effect1_foregroundBlur_112_31359"/>
</filter>
<radialGradient id="paint0_radial_112_31359" cx="0" cy="0" r="1" gradientUnits="userSpaceOnUse" gradientTransform="translate(68.0198 95.7123) rotate(44.0247) scale(47.1885 41.5706)">
<stop stop-color="white"/>
<stop offset="1" stop-color="white" stop-opacity="0"/>
</radialGradient>
</defs>
</svg>
