<svg width="256" height="256" viewBox="0 0 256 256" fill="none" xmlns="http://www.w3.org/2000/svg">
<metadata>
  <rdf:RDF xmlns:rdf="http://www.w3.org/1999/02/22-rdf-syntax-ns#"
            xmlns:dc="http://purl.org/dc/elements/1.1/">
    <rdf:Description>
      <dc:title>swrpg-online.com art asset</dc:title>
      <dc:creator>Joshua Ziggas</dc:creator>
      <dc:rights>CC BY-NC-SA 4.0 - https://github.com/swrpg-online/art</dc:rights>
    </rdf:Description>
  </rdf:RDF>
</metadata>
<desc>
  wrpg-online.com SWRPG Dice Asset
  Created by: Joshua Ziggas
  Source: https://github.com/swrpg-online/art
  License: CC BY-NC-SA 4.0
</desc><mask id="mask0_112_31357" style="mask-type:alpha" maskUnits="userSpaceOnUse" x="10" y="0" width="237" height="256">
<path d="M224.91 60.2803L150.531 7.28962C136.792 -2.49863 118.338 -2.42293 104.68 7.47773L31.8161 60.296C23.7755 66.1246 18.6774 75.1707 17.8556 85.0677L10.4831 173.859C9.14473 189.977 17.8216 205.268 32.3449 212.386L112.644 251.739C122.046 256.346 133.044 256.376 142.471 251.82L224.23 212.3C238.838 205.239 247.602 189.923 246.289 173.75L239.102 85.276C238.289 75.2589 233.095 66.1118 224.91 60.2803Z" fill="#CFCFCF"/>
</mask>
<g mask="url(#mask0_112_31357)">
<rect width="256" height="256" fill="#272727"/>
<g style="mix-blend-mode:multiply" filter="url(#filter0_f_112_31357)">
<mask id="mask1_112_31357" style="mask-type:alpha" maskUnits="userSpaceOnUse" x="1" y="-10" width="255" height="275">
<path fill-rule="evenodd" clip-rule="evenodd" d="M152.286 -1.73797L232.217 55.1624C241.013 61.4242 246.595 71.2462 247.469 82.0024L255.192 177.005C256.604 194.37 247.185 210.817 231.486 218.399L143.625 260.834C133.494 265.727 121.674 265.695 111.57 260.747L25.277 218.49C9.66957 210.848 0.344966 194.428 1.7832 177.121L9.70613 81.7786C10.5892 71.1515 16.0679 61.4379 24.7088 55.1793L103.012 -1.53598C117.69 -12.1671 137.522 -12.2484 152.286 -1.73797ZM138.619 210.456C134.337 217.847 123.663 217.847 119.381 210.456L57.5143 103.688C53.2204 96.2773 58.5682 86.9996 67.1337 86.9996H190.866C199.432 86.9996 204.779 96.2772 200.485 103.688L138.619 210.456Z" fill="black"/>
</mask>
<g mask="url(#mask1_112_31357)">
<path d="M224.91 60.2803L150.531 7.28962C136.792 -2.49863 118.338 -2.42293 104.68 7.47773L31.8161 60.296C23.7755 66.1246 18.6774 75.1707 17.8556 85.0677L10.4831 173.859C9.14473 189.977 17.8216 205.268 32.3449 212.386L112.644 251.739C122.046 256.346 133.044 256.376 142.471 251.82L224.23 212.3C238.838 205.239 247.602 189.923 246.289 173.75L239.102 85.276C238.289 75.2589 233.095 66.1118 224.91 60.2803Z" fill="#CFCFCF"/>
<path d="M204.7 84H53.3C43.2078 84 38.1969 73.0586 45.3921 66.7329L110.15 9.80008C120.433 0.759757 136.916 0.729605 147.24 9.73224L212.575 66.704C219.815 73.0173 214.814 84 204.7 84Z" fill="#E0E0E0"/>
<path d="M51.0667 91.529L123.602 217.163C128.437 225.538 121.573 235.045 112.769 232.167L33.5346 206.263C20.953 202.15 13.0306 188.487 15.7075 175.519L32.6481 93.4499C34.5254 84.3556 46.2209 83.1358 51.0667 91.529Z" fill="#D8D8D8"/>
<path d="M206.995 88.7409L131.61 219.312C126.585 228.015 133.43 237.729 142.412 234.642L223.255 206.851C236.092 202.438 244.325 188.238 241.78 174.897L225.68 90.4733C223.896 81.1179 212.031 80.0179 206.995 88.7409Z" fill="#C1C1C1"/>
<path d="M128.485 230.499V263.061L104.346 256.907L21.7533 217.386L12.9971 206.5L15.6003 194.431C18.8346 198.454 26.6284 206.831 31.9294 208.157C38.5558 209.813 109.552 221.033 118.072 223.163C124.887 224.867 127.853 228.764 128.485 230.499Z" fill="#8D8D8D"/>
<path d="M128.484 230.999V263.061L152.623 256.907L235.215 217.386L243.972 206.5L241.368 194.431C238.134 198.454 230.34 206.831 225.039 208.157C218.413 209.813 147.417 221.533 138.897 223.663C132.081 225.367 129.115 229.264 128.484 230.999Z" fill="#737373"/>
<path d="M212.647 84.3141L243.297 64.418L250.038 88.3993L257.107 179.687L252.058 192.713L240.304 196.494C242.171 191.681 245.529 180.743 244.026 175.489C242.148 168.922 213.915 105.443 211.5 97C209.568 90.2455 211.459 85.7284 212.647 84.3141Z" fill="#828282"/>
<path d="M211.5 83.4999L243.297 64.4179L225.899 46.5896L150.376 -5.17687L136.571 -7.31692L127.42 0.972212C132.521 1.76162 143.673 4.32248 147.471 8.2507C152.219 13.161 193.836 71.8371 199.94 78.1503C204.824 83.2008 209.681 83.8211 211.5 83.4999Z" fill="#9E9E9E"/>
<path d="M44.8524 83.8141L13.9433 64.418L7.2026 88.3993L0.132831 179.687L5.18237 192.713L16.9364 196.494C15.0694 191.681 11.7111 180.743 13.2139 175.489C15.0924 168.922 43.5841 104.943 45.9994 96.5C47.9316 89.7455 46.0398 85.2284 44.8524 83.8141Z" fill="#B1B1B1"/>
<path d="M46.4404 83.8495L13.9441 64.4179L31.3422 46.5896L106.865 -5.17687L120.671 -7.31692L129.821 0.972212C124.72 1.76162 113.568 4.32248 109.77 8.2507C105.022 13.161 64.1046 72.1867 58.0002 78.4999C53.1168 83.5504 48.2589 84.1707 46.4404 83.8495Z" fill="#B6B6B6"/>
</g>
</g>
</g>
<g filter="url(#filter1_f_112_31357)">
<path d="M72.7423 89H122C110.497 90.3425 85.9103 93.2575 79.5869 94.1781C71.6827 95.3288 66.0919 98.2055 68.5981 106.452C70.6031 113.049 83.9568 144.233 90.383 159L61.6354 107.833C56.8952 99.3957 63.0262 89 72.7423 89Z" fill="url(#paint0_radial_112_31357)"/>
</g>
<g clip-path="url(#clip0_112_31357)">
<path d="M149.478 163.204C143.69 163.204 139.225 161.77 136.083 158.904C132.968 156.01 131.342 151.903 131.204 146.584C131.094 142.587 131.025 138.646 130.998 134.759C130.97 130.873 130.97 127.028 130.998 123.225C131.053 119.421 131.122 115.659 131.204 111.938C131.342 106.591 132.982 102.498 136.124 99.6588C139.294 96.8198 143.745 95.4004 149.478 95.4004C155.156 95.4004 159.566 96.8198 162.708 99.6588C165.85 102.498 167.504 106.591 167.669 111.938C167.78 115.19 167.862 118.305 167.917 121.281C167.972 124.258 168 127.152 168 129.963C168 132.775 167.972 135.559 167.917 138.315C167.862 141.044 167.78 143.8 167.669 146.584C167.476 152.124 165.767 156.285 162.543 159.069C159.345 161.825 154.991 163.204 149.478 163.204ZM149.478 153.116C153.006 153.116 154.853 151.793 155.018 149.147C155.239 144.571 155.376 140.217 155.432 136.082C155.514 131.92 155.514 127.703 155.432 123.431C155.376 119.132 155.239 114.501 155.018 109.54C154.935 106.839 153.089 105.488 149.478 105.488C145.812 105.488 143.938 106.866 143.855 109.623C143.718 113.123 143.607 116.458 143.525 119.628C143.47 122.797 143.442 125.926 143.442 129.013C143.442 132.1 143.47 135.269 143.525 138.522C143.607 141.774 143.718 145.233 143.855 148.899C143.938 151.71 145.812 153.116 149.478 153.116Z" fill="white"/>
<path d="M88.1654 162.377C88.1378 161.357 88.1102 160.406 88.0827 159.524C88.0827 158.642 88.0689 157.801 88.0413 157.002C88.0413 156.175 88.0276 155.348 88 154.521C88 153.695 88 152.813 88 151.875C88.0276 150.911 88.0551 149.863 88.0827 148.733C88.1654 145.922 88.6891 143.345 89.6537 141.002C90.646 138.632 92.1068 136.482 94.0361 134.553C95.9655 132.596 98.391 130.845 101.313 129.302L107.101 126.243C109.002 125.25 110.229 124.038 110.78 122.604C111.331 121.171 111.648 119.876 111.731 118.718C111.814 117.34 111.869 115.852 111.896 114.253C111.924 112.627 111.896 111.111 111.814 109.705C111.731 108.41 111.221 107.39 110.284 106.646C109.347 105.874 107.928 105.488 106.026 105.488C104.179 105.488 102.842 105.86 102.015 106.604C101.216 107.321 100.789 108.244 100.734 109.374C100.651 111.607 100.596 113.578 100.568 115.287C100.568 116.968 100.624 118.883 100.734 121.033H88.2481C88.1929 119.958 88.1516 118.883 88.124 117.809C88.0965 116.706 88.0689 115.659 88.0413 114.666C88.0413 113.674 88.0551 112.765 88.0827 111.938C88.3307 106.012 89.8467 101.781 92.6305 99.2453C95.4418 96.682 99.9069 95.4004 106.026 95.4004C110.353 95.4004 113.826 95.9654 116.444 97.0955C119.09 98.198 121.033 99.9619 122.274 102.387C123.514 104.813 124.217 107.996 124.382 111.938C124.41 112.599 124.424 113.219 124.424 113.798C124.451 114.349 124.465 114.887 124.465 115.411C124.465 115.907 124.451 116.417 124.424 116.94C124.424 117.464 124.41 118.029 124.382 118.635C124.272 121.695 123.679 124.355 122.604 126.615C121.53 128.847 120.082 130.79 118.263 132.444C116.444 134.098 114.35 135.559 111.979 136.826L105.282 140.382C104.151 140.988 103.256 141.801 102.594 142.821C101.96 143.814 101.506 144.847 101.23 145.922C100.954 146.997 100.816 147.934 100.816 148.733V151.462H123.39V162.377H88.1654Z" fill="white"/>
</g>
<defs>
<filter id="filter0_f_112_31357" x="-8.3623" y="-17.3174" width="273.693" height="290.378" filterUnits="userSpaceOnUse" color-interpolation-filters="sRGB">
<feFlood flood-opacity="0" result="BackgroundImageFix"/>
<feBlend mode="normal" in="SourceGraphic" in2="BackgroundImageFix" result="shape"/>
<feGaussianBlur stdDeviation="5" result="effect1_foregroundBlur_112_31357"/>
</filter>
<filter id="filter1_f_112_31357" x="55" y="84" width="72" height="80" filterUnits="userSpaceOnUse" color-interpolation-filters="sRGB">
<feFlood flood-opacity="0" result="BackgroundImageFix"/>
<feBlend mode="normal" in="SourceGraphic" in2="BackgroundImageFix" result="shape"/>
<feGaussianBlur stdDeviation="2.5" result="effect1_foregroundBlur_112_31357"/>
</filter>
<radialGradient id="paint0_radial_112_31357" cx="0" cy="0" r="1" gradientUnits="userSpaceOnUse" gradientTransform="translate(68.0198 95.7123) rotate(44.0247) scale(47.1885 41.5706)">
<stop stop-color="white"/>
<stop offset="1" stop-color="white" stop-opacity="0"/>
</radialGradient>
<clipPath id="clip0_112_31357">
<rect width="80" height="80" fill="white" transform="translate(88 89)"/>
</clipPath>
</defs>
</svg>
