<svg width="256" height="256" viewBox="0 0 256 256" fill="none" xmlns="http://www.w3.org/2000/svg">
<metadata>
  <rdf:RDF xmlns:rdf="http://www.w3.org/1999/02/22-rdf-syntax-ns#"
            xmlns:dc="http://purl.org/dc/elements/1.1/">
    <rdf:Description>
      <dc:title>swrpg-online.com art asset</dc:title>
      <dc:creator>Joshua Ziggas</dc:creator>
      <dc:rights>CC BY-NC-SA 4.0 - https://github.com/swrpg-online/art</dc:rights>
    </rdf:Description>
  </rdf:RDF>
</metadata>
<desc>
  wrpg-online.com SWRPG Dice Asset
  Created by: Joshua Ziggas
  Source: https://github.com/swrpg-online/art
  License: CC BY-NC-SA 4.0
</desc><mask id="mask0_112_31345" style="mask-type:alpha" maskUnits="userSpaceOnUse" x="2" y="17" width="252" height="223">
<path d="M111.095 26.5C118.408 13.8333 136.691 13.8333 144.004 26.5L250.525 211C257.838 223.667 248.697 239.5 234.071 239.5H21.0283C6.40214 239.5 -2.73924 223.667 4.57386 211L111.095 26.5Z" fill="#D9D9D9"/>
</mask>
<g mask="url(#mask0_112_31345)">
<rect width="256" height="256" fill="#272727"/>
<g style="mix-blend-mode:multiply" filter="url(#filter0_f_112_31345)">
<path d="M279.337 102.182C279.369 87.9555 263.989 61.3151 251.652 54.2297L126.366 -17.7262C114.029 -24.8117 113.988 -7.0282 126.293 14.2841L251.252 230.719C263.556 252.031 278.977 260.888 279.01 246.661L279.337 102.182Z" fill="black" fill-opacity="0.25"/>
<path d="M100.333 317.894C112.425 324.88 142.655 324.88 154.747 317.894L277.547 246.95C289.639 239.964 274.524 231.232 250.339 231.232L4.74033 231.232C-19.4438 231.232 -34.5589 239.964 -22.4668 246.95L100.333 317.894Z" fill="black" fill-opacity="0.5"/>
<path d="M-26.4366 101.791C-26.4405 87.3473 -10.8069 60.269 1.704 53.0504L128.757 -20.257C141.268 -27.4756 141.273 -9.42054 128.766 12.2421L1.75356 232.235C-10.7533 253.897 -26.392 262.921 -26.396 248.476L-26.4366 101.791Z" fill="black" fill-opacity="0.35"/>
</g>
</g>
<path d="M127.139 211.119C117.129 211.119 109.893 209.18 105.43 205.301C100.968 201.422 98.6112 194.979 98.361 185.97C98.3193 184.468 98.2775 183.321 98.2358 182.529C98.2358 181.736 98.2358 180.944 98.2358 180.152C98.2775 179.359 98.3193 178.212 98.361 176.711H117.505V188.472C117.505 190.85 118.297 192.685 119.882 193.978C121.467 195.229 123.719 195.854 126.639 195.854C129.641 195.854 131.894 195.229 133.395 193.978C134.938 192.685 135.731 190.891 135.772 188.597C135.856 185.845 135.898 183.405 135.898 181.278C135.939 179.151 135.898 177.128 135.772 175.209C135.647 172.957 134.917 170.955 133.583 169.203C132.29 167.452 129.725 166.618 125.888 166.701L113.25 166.826L112.75 151.061L132.144 126.287H99.7373V109.771H154.04L153.79 125.786L133.645 150.56C140.527 151.102 145.678 153.313 149.098 157.192C152.56 161.071 154.499 167.243 154.916 175.71C154.958 176.586 154.979 177.42 154.979 178.212C155.02 178.963 155.041 179.714 155.041 180.464C155.041 181.215 155.041 182.049 155.041 182.967C155.041 183.843 154.999 184.844 154.916 185.97C154.541 194.979 152.184 201.422 147.847 205.301C143.551 209.18 136.648 211.119 127.139 211.119Z" fill="white"/>
<defs>
<filter id="filter0_f_112_31345" x="-46.7227" y="-41.873" width="348.525" height="385.006" filterUnits="userSpaceOnUse" color-interpolation-filters="sRGB">
<feFlood flood-opacity="0" result="BackgroundImageFix"/>
<feBlend mode="normal" in="SourceGraphic" in2="BackgroundImageFix" result="shape"/>
<feGaussianBlur stdDeviation="10" result="effect1_foregroundBlur_112_31345"/>
</filter>
</defs>
</svg>
