<svg width="256" height="256" viewBox="0 0 256 256" fill="none" xmlns="http://www.w3.org/2000/svg">
<metadata>
  <rdf:RDF xmlns:rdf="http://www.w3.org/1999/02/22-rdf-syntax-ns#"
            xmlns:dc="http://purl.org/dc/elements/1.1/">
    <rdf:Description>
      <dc:title>swrpg-online.com art asset</dc:title>
      <dc:creator>Joshua Ziggas</dc:creator>
      <dc:rights>CC BY-NC-SA 4.0 - https://github.com/swrpg-online/art</dc:rights>
    </rdf:Description>
  </rdf:RDF>
</metadata>
<desc>
  wrpg-online.com SWRPG Dice Asset
  Created by: Joshua Ziggas
  Source: https://github.com/swrpg-online/art
  License: CC BY-NC-SA 4.0
</desc><mask id="mask0_112_31348" style="mask-type:alpha" maskUnits="userSpaceOnUse" x="2" y="17" width="252" height="223">
<path d="M111.095 26.5C118.408 13.8333 136.691 13.8333 144.004 26.5L250.525 211C257.838 223.667 248.697 239.5 234.071 239.5H21.0283C6.40214 239.5 -2.73924 223.667 4.57386 211L111.095 26.5Z" fill="#D9D9D9"/>
</mask>
<g mask="url(#mask0_112_31348)">
<rect width="256" height="256" fill="#272727"/>
<g style="mix-blend-mode:multiply" filter="url(#filter0_f_112_31348)">
<path d="M279.337 102.182C279.369 87.9555 263.989 61.3151 251.652 54.2297L126.366 -17.7262C114.029 -24.8117 113.988 -7.0282 126.293 14.2841L251.252 230.719C263.556 252.031 278.977 260.888 279.01 246.661L279.337 102.182Z" fill="black" fill-opacity="0.25"/>
<path d="M100.333 317.894C112.425 324.88 142.655 324.88 154.747 317.894L277.547 246.95C289.639 239.964 274.524 231.232 250.339 231.232L4.74033 231.232C-19.4438 231.232 -34.5589 239.964 -22.4668 246.95L100.333 317.894Z" fill="black" fill-opacity="0.5"/>
<path d="M-26.4366 101.791C-26.4405 87.3473 -10.8069 60.269 1.704 53.0504L128.757 -20.257C141.268 -27.4756 141.273 -9.42054 128.766 12.2421L1.75356 232.235C-10.7533 253.897 -26.392 262.921 -26.396 248.476L-26.4366 101.791Z" fill="black" fill-opacity="0.35"/>
</g>
</g>
<g clip-path="url(#clip0_112_31348)">
<path d="M97.9521 176.043C101.025 181.366 102.216 185.809 101.523 189.373C100.831 192.937 98.1275 196.168 93.4137 199.067C92.6281 199.55 92.031 199.925 91.6224 200.19C91.201 200.434 90.7796 200.677 90.3582 200.92C89.924 201.141 89.3013 201.471 88.49 201.91L82.6126 191.73L88.867 188.119C90.1312 187.389 90.8637 186.404 91.0647 185.165C91.2435 183.938 90.8847 182.548 89.9884 180.995C89.0664 179.398 88.0423 178.393 86.9159 177.979C85.7546 177.555 84.5576 177.684 83.325 178.366C81.8356 179.167 80.5253 179.894 79.3942 180.547C78.2503 181.178 77.1874 181.821 76.2056 182.477C75.0464 183.235 74.2059 184.237 73.6842 185.485C73.1496 186.71 73.4935 188.33 74.7159 190.345L78.6623 197.027L70.4325 202.133L51.304 199.426L61.2534 216.659L52.4707 221.73L35.7987 192.853L44.3922 188.069L63.7511 191.175C61.9266 187.349 61.5207 183.932 62.5333 180.922C63.5331 177.891 66.2201 174.964 70.5943 172.143C71.0473 171.852 71.4845 171.585 71.9058 171.341C72.2923 171.089 72.6851 170.847 73.0843 170.617C73.4835 170.386 73.9271 170.13 74.415 169.848C74.8808 169.579 75.4259 169.294 76.0503 168.993C80.9561 166.427 85.1062 165.701 88.5005 166.817C91.8821 167.911 95.0326 170.986 97.9521 176.043Z" fill="white"/>
</g>
<g clip-path="url(#clip1_112_31348)">
<path d="M166.06 161.511C166.893 161.963 167.671 162.383 168.394 162.77C169.103 163.18 169.786 163.559 170.442 163.909C171.108 164.293 171.779 164.666 172.457 165.028C173.123 165.412 173.833 165.822 174.587 166.257C175.35 166.727 176.18 167.236 177.077 167.783C179.3 169.156 181.131 170.775 182.568 172.639C184.014 174.539 185.065 176.713 185.722 179.162C186.4 181.624 186.682 184.388 186.566 187.456L186.339 193.535C186.254 195.527 186.66 197.077 187.557 198.186C188.454 199.296 189.349 200.153 190.243 200.757C191.313 201.464 192.485 202.2 193.759 202.965C195.054 203.742 196.287 204.424 197.457 205.011C198.537 205.546 199.595 205.61 200.629 205.201C201.685 204.806 202.655 203.843 203.539 202.312C204.397 200.826 204.719 199.578 204.504 198.567C204.299 197.591 203.754 196.818 202.87 196.249C201.112 195.145 199.552 194.185 198.19 193.369C196.837 192.588 195.27 191.742 193.489 190.832L199.289 180.785C200.18 181.24 201.064 181.706 201.942 182.184C202.842 182.674 203.697 183.138 204.509 183.577C205.307 184.038 206.033 184.471 206.685 184.878C211.338 187.83 214.038 191.016 214.786 194.434C215.542 197.887 214.499 202.075 211.656 206.999C209.646 210.481 207.578 213.013 205.452 214.595C203.336 216.212 201.014 216.956 198.486 216.827C195.958 216.699 193.069 215.785 189.821 214.087C189.276 213.802 188.771 213.525 188.305 213.256C187.848 213.022 187.41 212.784 186.988 212.54C186.589 212.31 186.185 212.062 185.776 211.796C185.355 211.553 184.907 211.279 184.432 210.976C182.021 209.465 180.156 207.753 178.837 205.838C177.54 203.936 176.648 201.869 176.163 199.637C175.677 197.405 175.475 195.04 175.556 192.544L175.806 185.503C175.844 184.312 175.605 183.213 175.092 182.207C174.588 181.236 173.968 180.39 173.231 179.669C172.494 178.947 171.804 178.401 171.161 178.03L168.965 176.762L158.478 194.926L149.695 189.856L166.06 161.511Z" fill="white"/>
</g>
<path d="M128.841 125.578V110.135H109.096V100.531L124.462 64.1143H139.827V100.07H146.819V110.135H139.827V125.578H128.841ZM120.313 100.07H128.841L130.377 85.9338L131.76 74.2557H129.455L125.537 85.9338L120.313 100.07Z" fill="white"/>
<defs>
<filter id="filter0_f_112_31348" x="-46.7227" y="-41.873" width="348.525" height="385.006" filterUnits="userSpaceOnUse" color-interpolation-filters="sRGB">
<feFlood flood-opacity="0" result="BackgroundImageFix"/>
<feBlend mode="normal" in="SourceGraphic" in2="BackgroundImageFix" result="shape"/>
<feGaussianBlur stdDeviation="10" result="effect1_foregroundBlur_112_31348"/>
</filter>
<clipPath id="clip0_112_31348">
<rect width="70" height="70" fill="white" transform="translate(58 239.622) rotate(-120)"/>
</clipPath>
<clipPath id="clip1_112_31348">
<rect width="70" height="70" fill="white" transform="translate(232.622 179) rotate(120)"/>
</clipPath>
</defs>
</svg>
