<svg width="256" height="256" viewBox="0 0 256 256" fill="none" xmlns="http://www.w3.org/2000/svg">
<metadata>
  <rdf:RDF xmlns:rdf="http://www.w3.org/1999/02/22-rdf-syntax-ns#"
            xmlns:dc="http://purl.org/dc/elements/1.1/">
    <rdf:Description>
      <dc:title>swrpg-online.com art asset</dc:title>
      <dc:creator>Joshua Ziggas</dc:creator>
      <dc:rights>CC BY-NC-SA 4.0 - https://github.com/swrpg-online/art</dc:rights>
    </rdf:Description>
  </rdf:RDF>
</metadata>
<desc>
  wrpg-online.com SWRPG Dice Asset
  Created by: Joshua Ziggas
  Source: https://github.com/swrpg-online/art
  License: CC BY-NC-SA 4.0
</desc><mask id="mask0_112_31404" style="mask-type:alpha" maskUnits="userSpaceOnUse" x="28" y="28" width="200" height="200">
<path d="M28 52C28 38.7452 38.7452 28 52 28H128H204C217.255 28 228 38.7452 228 52V128V204C228 217.255 217.255 228 204 228H128H52C38.7452 228 28 217.255 28 204V128V52Z" fill="#7EBCD8"/>
</mask>
<g mask="url(#mask0_112_31404)">
<rect width="256" height="256" fill="#272727"/>
<g style="mix-blend-mode:plus-lighter">
<rect x="28" y="28" width="200" height="200" fill="url(#paint0_linear_112_31404)"/>
</g>
<g filter="url(#filter0_f_112_31404)">
<path fill-rule="evenodd" clip-rule="evenodd" d="M239 17H17V239H239V17ZM128 228.909C183.731 228.909 228.909 183.731 228.909 128C228.909 72.2694 183.731 27.0909 128 27.0909C72.2694 27.0909 27.0909 72.2694 27.0909 128C27.0909 183.731 72.2694 228.909 128 228.909Z" fill="url(#paint1_angular_112_31404)"/>
</g>
</g>
<path d="M100.536 179.119C100.494 177.576 100.452 176.137 100.411 174.803C100.411 173.468 100.39 172.196 100.348 170.986C100.348 169.735 100.327 168.484 100.286 167.233C100.286 165.981 100.286 164.647 100.286 163.229C100.327 161.769 100.369 160.184 100.411 158.474C100.536 154.22 101.328 150.32 102.788 146.775C104.29 143.188 106.5 139.935 109.42 137.016C112.339 134.055 116.009 131.406 120.43 129.071L129.189 124.441C132.067 122.94 133.923 121.104 134.757 118.936C135.591 116.767 136.071 114.807 136.196 113.055C136.321 110.97 136.404 108.717 136.446 106.298C136.488 103.838 136.446 101.544 136.321 99.4166C136.196 97.4564 135.424 95.9132 134.006 94.7871C132.588 93.6193 130.44 93.0354 127.562 93.0354C124.768 93.0354 122.745 93.5984 121.494 94.7245C120.284 95.8089 119.638 97.2061 119.554 98.9161C119.429 102.294 119.346 105.276 119.304 107.862C119.304 110.406 119.388 113.305 119.554 116.558H100.661C100.578 114.932 100.515 113.305 100.473 111.679C100.432 110.01 100.39 108.425 100.348 106.924C100.348 105.422 100.369 104.046 100.411 102.795C100.786 93.8278 103.08 87.4258 107.292 83.5887C111.547 79.7099 118.303 77.7705 127.562 77.7705C134.11 77.7705 139.365 78.6255 143.328 80.3355C147.332 82.0038 150.272 84.6731 152.149 88.3433C154.026 92.0136 155.089 96.8308 155.339 102.795C155.381 103.796 155.402 104.734 155.402 105.61C155.444 106.444 155.464 107.258 155.464 108.05C155.464 108.801 155.444 109.572 155.402 110.365C155.402 111.157 155.381 112.012 155.339 112.93C155.172 117.559 154.276 121.584 152.649 125.004C151.023 128.382 148.833 131.323 146.08 133.825C143.328 136.328 140.158 138.538 136.571 140.457L126.436 145.837C124.726 146.754 123.371 147.985 122.37 149.528C121.41 151.029 120.722 152.593 120.305 154.22C119.888 155.847 119.68 157.265 119.68 158.474V162.603H153.838V179.119H100.536Z" fill="white"/>
<g filter="url(#filter1_f_112_31404)">
<path d="M54.6822 87.8174C46.6259 95.7643 46.0504 129.917 46.7697 146C42.2358 116.37 41.274 83.6569 59.7175 64.5191C77.813 45.7423 110.789 41.6971 141 47.3734C123.017 46.6638 96.4024 50.2116 86.332 57.307C76.2616 64.4024 64.7526 77.8838 54.6822 87.8174Z" fill="url(#paint2_radial_112_31404)"/>
</g>
<defs>
<filter id="filter0_f_112_31404" x="1.31818" y="1.31818" width="253.364" height="253.364" filterUnits="userSpaceOnUse" color-interpolation-filters="sRGB">
<feFlood flood-opacity="0" result="BackgroundImageFix"/>
<feBlend mode="normal" in="SourceGraphic" in2="BackgroundImageFix" result="shape"/>
<feGaussianBlur stdDeviation="7.84091" result="effect1_foregroundBlur_112_31404"/>
</filter>
<filter id="filter1_f_112_31404" x="38.3182" y="39.3182" width="108.364" height="112.364" filterUnits="userSpaceOnUse" color-interpolation-filters="sRGB">
<feFlood flood-opacity="0" result="BackgroundImageFix"/>
<feBlend mode="normal" in="SourceGraphic" in2="BackgroundImageFix" result="shape"/>
<feGaussianBlur stdDeviation="2.84091" result="effect1_foregroundBlur_112_31404"/>
</filter>
<linearGradient id="paint0_linear_112_31404" x1="28" y1="28" x2="228" y2="228" gradientUnits="userSpaceOnUse">
<stop stop-color="white" stop-opacity="0"/>
<stop offset="0.655" stop-color="white" stop-opacity="0.05"/>
</linearGradient>
<radialGradient id="paint1_angular_112_31404" cx="0" cy="0" r="1" gradientUnits="userSpaceOnUse" gradientTransform="translate(128 128) rotate(45) scale(141.588)">
<stop stop-opacity="0.5"/>
<stop offset="0.253046" stop-opacity="0.35"/>
<stop offset="0.502899" stop-opacity="0.15"/>
<stop offset="0.753407" stop-opacity="0.25"/>
<stop offset="1" stop-opacity="0.5"/>
</radialGradient>
<radialGradient id="paint2_radial_112_31404" cx="0" cy="0" r="1" gradientUnits="userSpaceOnUse" gradientTransform="translate(66.2988 67.2406) scale(67.6157 63.1855)">
<stop offset="0.29" stop-color="white"/>
<stop offset="0.415" stop-color="white" stop-opacity="0.5"/>
<stop offset="1" stop-color="white" stop-opacity="0"/>
</radialGradient>
</defs>
</svg>
