<svg width="256" height="256" viewBox="0 0 256 256" fill="none" xmlns="http://www.w3.org/2000/svg">
<metadata>
  <rdf:RDF xmlns:rdf="http://www.w3.org/1999/02/22-rdf-syntax-ns#"
            xmlns:dc="http://purl.org/dc/elements/1.1/">
    <rdf:Description>
      <dc:title>swrpg-online.com art asset</dc:title>
      <dc:creator>Joshua Ziggas</dc:creator>
      <dc:rights>CC BY-NC-SA 4.0 - https://github.com/swrpg-online/art</dc:rights>
    </rdf:Description>
  </rdf:RDF>
</metadata>
<desc>
  wrpg-online.com SWRPG Dice Asset
  Created by: Joshua Ziggas
  Source: https://github.com/swrpg-online/art
  License: CC BY-NC-SA 4.0
</desc><mask id="mask0_112_31401" style="mask-type:alpha" maskUnits="userSpaceOnUse" x="28" y="28" width="200" height="200">
<path d="M28 52C28 38.7452 38.7452 28 52 28H128H204C217.255 28 228 38.7452 228 52V128V204C228 217.255 217.255 228 204 228H128H52C38.7452 228 28 217.255 28 204V128V52Z" fill="#7EBCD8"/>
</mask>
<g mask="url(#mask0_112_31401)">
<rect width="256" height="256" fill="#272727"/>
<g style="mix-blend-mode:plus-lighter">
<rect x="28" y="28" width="200" height="200" fill="url(#paint0_linear_112_31401)"/>
</g>
<g filter="url(#filter0_f_112_31401)">
<path fill-rule="evenodd" clip-rule="evenodd" d="M239 17H17V239H239V17ZM128 228.909C183.731 228.909 228.909 183.731 228.909 128C228.909 72.2694 183.731 27.0909 128 27.0909C72.2694 27.0909 27.0909 72.2694 27.0909 128C27.0909 183.731 72.2694 228.909 128 228.909Z" fill="url(#paint1_angular_112_31401)"/>
</g>
</g>
<path d="M128.058 179.119C118.049 179.119 110.812 177.18 106.35 173.301C101.887 169.422 99.5305 162.979 99.2803 153.97C99.2386 151.509 99.2386 149.632 99.2803 148.339C99.322 147.046 99.3637 145.837 99.4054 144.711H118.549C118.424 145.753 118.32 147.088 118.236 148.715C118.195 150.3 118.174 151.843 118.174 153.344C118.174 154.804 118.215 155.847 118.299 156.472C118.549 158.85 119.446 160.685 120.989 161.978C122.574 163.229 124.763 163.854 127.558 163.854C130.561 163.854 132.792 163.229 134.252 161.978C135.712 160.685 136.525 158.85 136.692 156.472C137.067 152.01 137.276 148.193 137.317 145.024C137.401 141.854 137.276 138.83 136.942 135.952C136.692 133.617 135.899 131.886 134.565 130.76C133.23 129.634 131.186 129.071 128.434 129.071C126.557 129.071 124.909 129.321 123.491 129.821C122.073 130.322 120.968 131.052 120.176 132.011C119.383 132.97 118.966 134.117 118.924 135.452H100.907V77.7705H154.209V94.2866H119.925V120.812H122.803C124.013 118.811 125.89 117.101 128.434 115.682C131.02 114.264 134.022 113.555 137.442 113.555C143.407 113.555 147.89 115.495 150.893 119.374C153.896 123.252 155.585 128.487 155.961 135.076C156.127 137.495 156.232 139.81 156.273 142.021C156.315 144.231 156.294 146.337 156.211 148.339C156.127 150.341 156.002 152.218 155.835 153.97C155.252 159.976 153.979 164.835 152.019 168.546C150.101 172.217 147.202 174.907 143.323 176.617C139.486 178.285 134.398 179.119 128.058 179.119Z" fill="white"/>
<g filter="url(#filter1_f_112_31401)">
<path d="M54.6822 87.8174C46.6259 95.7643 46.0504 129.917 46.7697 146C42.2358 116.37 41.274 83.6569 59.7175 64.5191C77.813 45.7423 110.789 41.6971 141 47.3734C123.017 46.6638 96.4024 50.2116 86.332 57.307C76.2616 64.4024 64.7526 77.8838 54.6822 87.8174Z" fill="url(#paint2_radial_112_31401)"/>
</g>
<defs>
<filter id="filter0_f_112_31401" x="1.31818" y="1.31818" width="253.364" height="253.364" filterUnits="userSpaceOnUse" color-interpolation-filters="sRGB">
<feFlood flood-opacity="0" result="BackgroundImageFix"/>
<feBlend mode="normal" in="SourceGraphic" in2="BackgroundImageFix" result="shape"/>
<feGaussianBlur stdDeviation="7.84091" result="effect1_foregroundBlur_112_31401"/>
</filter>
<filter id="filter1_f_112_31401" x="38.3182" y="39.3182" width="108.364" height="112.364" filterUnits="userSpaceOnUse" color-interpolation-filters="sRGB">
<feFlood flood-opacity="0" result="BackgroundImageFix"/>
<feBlend mode="normal" in="SourceGraphic" in2="BackgroundImageFix" result="shape"/>
<feGaussianBlur stdDeviation="2.84091" result="effect1_foregroundBlur_112_31401"/>
</filter>
<linearGradient id="paint0_linear_112_31401" x1="28" y1="28" x2="228" y2="228" gradientUnits="userSpaceOnUse">
<stop stop-color="white" stop-opacity="0"/>
<stop offset="0.655" stop-color="white" stop-opacity="0.05"/>
</linearGradient>
<radialGradient id="paint1_angular_112_31401" cx="0" cy="0" r="1" gradientUnits="userSpaceOnUse" gradientTransform="translate(128 128) rotate(45) scale(141.588)">
<stop stop-opacity="0.5"/>
<stop offset="0.253046" stop-opacity="0.35"/>
<stop offset="0.502899" stop-opacity="0.15"/>
<stop offset="0.753407" stop-opacity="0.25"/>
<stop offset="1" stop-opacity="0.5"/>
</radialGradient>
<radialGradient id="paint2_radial_112_31401" cx="0" cy="0" r="1" gradientUnits="userSpaceOnUse" gradientTransform="translate(66.2988 67.2406) scale(67.6157 63.1855)">
<stop offset="0.29" stop-color="white"/>
<stop offset="0.415" stop-color="white" stop-opacity="0.5"/>
<stop offset="1" stop-color="white" stop-opacity="0"/>
</radialGradient>
</defs>
</svg>
