<svg width="256" height="256" viewBox="0 0 256 256" fill="none" xmlns="http://www.w3.org/2000/svg">
<metadata>
  <rdf:RDF xmlns:rdf="http://www.w3.org/1999/02/22-rdf-syntax-ns#"
            xmlns:dc="http://purl.org/dc/elements/1.1/">
    <rdf:Description>
      <dc:title>swrpg-online.com art asset</dc:title>
      <dc:creator>Joshua Ziggas</dc:creator>
      <dc:rights>CC BY-NC-SA 4.0 - https://github.com/swrpg-online/art</dc:rights>
    </rdf:Description>
  </rdf:RDF>
</metadata>
<desc>
  wrpg-online.com SWRPG Dice Asset
  Created by: Joshua Ziggas
  Source: https://github.com/swrpg-online/art
  License: CC BY-NC-SA 4.0
</desc><mask id="mask0_112_11530" style="mask-type:luminance" maskUnits="userSpaceOnUse" x="6" y="2" width="244" height="252">
<path d="M114.628 4.34533C123.32 1.52112 132.683 1.52111 141.375 4.34533L189.67 20.0373C198.362 22.8615 205.937 28.365 211.309 35.7589L241.157 76.841C246.529 84.2349 249.422 93.1397 249.422 102.279V153.059C249.422 162.199 246.529 171.103 241.157 178.497L211.309 219.58C205.937 226.973 198.362 232.477 189.67 235.301L141.375 250.993C132.683 253.817 123.32 253.817 114.628 250.993L66.3327 235.301C57.6407 232.477 50.0658 226.973 44.6938 219.58L14.8459 178.497C9.47394 171.103 6.5806 162.199 6.5806 153.059V102.279C6.5806 93.1397 9.47393 84.2349 14.8459 76.841L44.6938 35.7589C50.0658 28.365 57.6407 22.8615 66.3327 20.0373L114.628 4.34533Z" fill="white"/>
</mask>
<g mask="url(#mask0_112_11530)">
<rect width="256" height="256" fill="#FF5502"/>
<g filter="url(#filter0_f_112_11530)">
<path d="M50.1016 9.81476L135.447 -6.13379V48.8249H121.261V9.81476L52.8064 23.0787L50.1016 9.81476Z" fill="url(#paint0_linear_112_11530)" fill-opacity="0.15"/>
<rect x="169.172" y="196.272" width="14.1855" height="78.0203" transform="rotate(-36 169.172 196.272)" fill="url(#paint1_linear_112_11530)" fill-opacity="0.3"/>
<path d="M-5.07812 91.241L43.0683 14.9641L61.4613 21.4558L18.1181 84.7521L55.219 96.8069L50.8355 110.298L-5.07812 91.241Z" fill="url(#paint2_linear_112_11530)" fill-opacity="0.25"/>
<rect x="205.871" y="110.298" width="14.1855" height="78.0203" transform="rotate(-108 205.871 110.298)" fill="url(#paint3_linear_112_11530)" fill-opacity="0.25"/>
<rect x="41.6797" y="259.392" width="14.1855" height="78.0203" transform="rotate(-144 41.6797 259.392)" fill="url(#paint4_linear_112_11530)" fill-opacity="0.25"/>
<path d="M173.313 205.927L209.147 252.45L126.501 268.5L46.8555 252.45L82.6888 205.927L173.313 205.927Z" fill="black" fill-opacity="0.35"/>
<path d="M216.112 108.421L272.062 88.5817L261.002 175L221.457 244.329L187.853 195.392L216.112 108.421Z" fill="black" fill-opacity="0.4"/>
<path d="M136.735 38.0622L135.156 -21.2809L210.716 14L267.643 74.9762L210.716 91.8128L136.735 38.0622Z" fill="black" fill-opacity="0.2"/>
<path d="M45.2894 91.8128L-11.6371 74.9762L45.2894 14.9998L120.849 -21.2811L119.271 38.062L45.2894 91.8128Z" fill="black" fill-opacity="0.1"/>
<path d="M68.1506 195.392L34.5469 244.329L-3.99854 172.5L-16.0586 88.5818L39.8922 108.421L68.1506 195.392Z" fill="black" fill-opacity="0.25"/>
</g>
</g>
<path d="M128.156 186.3C118.271 186.3 111.265 184.277 107.136 180.232C103.007 176.144 100.754 169.784 100.379 161.15C100.337 159.899 100.316 158.919 100.316 158.21C100.316 157.459 100.337 156.709 100.379 155.958C100.421 155.207 100.504 154.144 100.629 152.767C101.088 148.138 102.235 144.509 104.07 141.882C105.905 139.212 108.637 137.127 112.266 135.626V132.998C109.763 132.122 107.553 130.683 105.634 128.681C103.757 126.679 102.506 124.156 101.88 121.111C101.672 120.11 101.484 118.88 101.317 117.42C101.192 115.919 101.088 114.417 101.005 112.916C100.963 111.373 100.963 110.017 101.005 108.849C101.463 100.008 103.716 93.6054 107.761 89.6432C111.807 85.681 118.605 83.7 128.156 83.7C137.415 83.7 144.151 85.6393 148.363 89.5181C152.576 93.3969 154.89 99.8407 155.308 108.849C155.349 110.017 155.328 111.373 155.245 112.916C155.203 114.417 155.099 115.919 154.932 117.42C154.807 118.88 154.64 120.11 154.432 121.111C153.806 124.156 152.534 126.679 150.615 128.681C148.739 130.683 146.549 132.122 144.047 132.998V135.751C147.383 137.252 149.99 139.358 151.867 142.069C153.785 144.739 155.057 148.263 155.683 152.642C155.933 154.394 156.058 155.895 156.058 157.147C156.058 158.356 156.017 159.691 155.933 161.15C155.516 170.076 153.18 176.499 148.926 180.419C144.714 184.34 137.79 186.3 128.156 186.3ZM128.156 171.035C131.117 171.035 133.286 170.409 134.662 169.158C136.08 167.865 136.789 166.03 136.789 163.653C136.789 162.235 136.789 160.817 136.789 159.399C136.789 157.939 136.789 156.5 136.789 155.082C136.789 153.622 136.789 152.183 136.789 150.765C136.789 148.388 136.08 146.574 134.662 145.323C133.286 144.03 131.117 143.383 128.156 143.383C125.237 143.383 123.068 144.03 121.65 145.323C120.232 146.574 119.523 148.388 119.523 150.765C119.523 152.892 119.523 155.04 119.523 157.209C119.523 159.378 119.523 161.526 119.523 163.653C119.523 166.03 120.232 167.865 121.65 169.158C123.068 170.409 125.237 171.035 128.156 171.035ZM128.156 125.491C131.034 125.491 133.182 124.865 134.6 123.614C136.06 122.321 136.789 120.486 136.789 118.108C136.789 116.148 136.789 114.188 136.789 112.228C136.789 110.226 136.789 108.266 136.789 106.347C136.789 103.97 136.08 102.155 134.662 100.904C133.286 99.6113 131.117 98.9648 128.156 98.9648C125.278 98.9648 123.109 99.6113 121.65 100.904C120.232 102.155 119.523 103.97 119.523 106.347C119.523 107.306 119.523 108.286 119.523 109.287C119.523 110.247 119.523 111.227 119.523 112.228C119.523 113.229 119.523 114.23 119.523 115.231C119.523 116.19 119.523 117.149 119.523 118.108C119.523 120.486 120.232 122.321 121.65 123.614C123.109 124.865 125.278 125.491 128.156 125.491Z" fill="white"/>
<g filter="url(#filter1_f_112_11530)">
<path d="M62.4943 99.4784C57.4854 104.467 54.5592 109.683 58.5102 120.454C52.2491 110.816 53.9564 100.612 58.5099 95.5101C66.6026 86.4425 90.9535 68.8659 103.475 61.4962C113.493 55.6004 126.243 46.7568 139.903 56.961C124.535 51.292 117.705 59.2286 110.875 63.1969C102.633 67.9852 68.7553 93.2425 62.4943 99.4784Z" fill="white"/>
</g>
<defs>
<filter id="filter0_f_112_11530" x="-26.878" y="-32.1004" width="317.772" height="311.42" filterUnits="userSpaceOnUse" color-interpolation-filters="sRGB">
<feFlood flood-opacity="0" result="BackgroundImageFix"/>
<feBlend mode="normal" in="SourceGraphic" in2="BackgroundImageFix" result="shape"/>
<feGaussianBlur stdDeviation="5.40971" result="effect1_foregroundBlur_112_11530"/>
</filter>
<filter id="filter1_f_112_11530" x="49.02" y="46.8815" width="96.2921" height="78.9818" filterUnits="userSpaceOnUse" color-interpolation-filters="sRGB">
<feFlood flood-opacity="0" result="BackgroundImageFix"/>
<feBlend mode="normal" in="SourceGraphic" in2="BackgroundImageFix" result="shape"/>
<feGaussianBlur stdDeviation="2.70486" result="effect1_foregroundBlur_112_11530"/>
</filter>
<linearGradient id="paint0_linear_112_11530" x1="128.354" y1="-29.1954" x2="128.354" y2="48.8249" gradientUnits="userSpaceOnUse">
<stop offset="0.40004"/>
<stop offset="0.770751" stop-opacity="0"/>
</linearGradient>
<linearGradient id="paint1_linear_112_11530" x1="176.265" y1="196.272" x2="176.278" y2="252.046" gradientUnits="userSpaceOnUse">
<stop stop-opacity="0"/>
<stop offset="0.44519"/>
</linearGradient>
<linearGradient id="paint2_linear_112_11530" x1="52.2438" y1="103.558" x2="6.82333" y2="87.4543" gradientUnits="userSpaceOnUse">
<stop offset="0.487821" stop-opacity="0"/>
<stop offset="1"/>
</linearGradient>
<linearGradient id="paint3_linear_112_11530" x1="216.762" y1="109.73" x2="217.403" y2="150.48" gradientUnits="userSpaceOnUse">
<stop stop-opacity="0"/>
<stop offset="1"/>
</linearGradient>
<linearGradient id="paint4_linear_112_11530" x1="48.7724" y1="337.412" x2="48.6801" y2="291.64" gradientUnits="userSpaceOnUse">
<stop stop-opacity="0"/>
<stop offset="0.482933"/>
</linearGradient>
</defs>
</svg>
