<svg width="256" height="256" viewBox="0 0 256 256" fill="none" xmlns="http://www.w3.org/2000/svg">
<metadata>
  <rdf:RDF xmlns:rdf="http://www.w3.org/1999/02/22-rdf-syntax-ns#"
            xmlns:dc="http://purl.org/dc/elements/1.1/">
    <rdf:Description>
      <dc:title>swrpg-online.com art asset</dc:title>
      <dc:creator>Joshua Ziggas</dc:creator>
      <dc:rights>CC BY-NC-SA 4.0 - https://github.com/swrpg-online/art</dc:rights>
    </rdf:Description>
  </rdf:RDF>
</metadata>
<desc>
  wrpg-online.com SWRPG Dice Asset
  Created by: Joshua Ziggas
  Source: https://github.com/swrpg-online/art
  License: CC BY-NC-SA 4.0
</desc><mask id="mask0_112_11509" style="mask-type:alpha" maskUnits="userSpaceOnUse" x="10" y="0" width="237" height="256">
<path d="M224.91 60.2803L150.531 7.28962C136.792 -2.49863 118.338 -2.42293 104.68 7.47773L31.8161 60.296C23.7755 66.1246 18.6774 75.1707 17.8556 85.0677L10.4831 173.859C9.14473 189.977 17.8216 205.268 32.3449 212.386L112.644 251.739C122.046 256.346 133.044 256.376 142.471 251.82L224.23 212.3C238.838 205.239 247.602 189.923 246.289 173.75L239.102 85.276C238.289 75.2589 233.095 66.1118 224.91 60.2803Z" fill="#CFCFCF"/>
</mask>
<g mask="url(#mask0_112_11509)">
<rect width="256" height="256" fill="#FF5502"/>
<g style="mix-blend-mode:multiply" filter="url(#filter0_f_112_11509)">
<mask id="mask1_112_11509" style="mask-type:alpha" maskUnits="userSpaceOnUse" x="1" y="-10" width="255" height="275">
<path fill-rule="evenodd" clip-rule="evenodd" d="M152.285 -1.73748L232.216 55.1629C241.012 61.4247 246.594 71.2467 247.468 82.0029L255.191 177.005C256.603 194.371 247.184 210.817 231.485 218.399L143.624 260.834C133.493 265.727 121.673 265.695 111.569 260.747L25.2761 218.491C9.66859 210.848 0.343989 194.429 1.78223 177.121L9.70515 81.7791C10.5883 71.152 16.067 61.4384 24.7079 55.1798L103.011 -1.53549C117.689 -12.1666 137.521 -12.2479 152.285 -1.73748ZM138.618 210.457C134.336 217.848 123.662 217.848 119.38 210.457L57.5134 103.688C53.2194 96.2777 58.5672 87.0001 67.1327 87.0001H190.865C199.431 87.0001 204.778 96.2777 200.484 103.688L138.618 210.457Z" fill="black"/>
</mask>
<g mask="url(#mask1_112_11509)">
<path d="M224.91 60.2803L150.531 7.28962C136.792 -2.49863 118.338 -2.42293 104.68 7.47773L31.8161 60.296C23.7755 66.1246 18.6774 75.1707 17.8556 85.0677L10.4831 173.859C9.14473 189.977 17.8216 205.268 32.3449 212.386L112.644 251.739C122.046 256.346 133.044 256.376 142.471 251.82L224.23 212.3C238.838 205.239 247.602 189.923 246.289 173.75L239.102 85.276C238.289 75.2589 233.095 66.1118 224.91 60.2803Z" fill="#CFCFCF"/>
<path d="M204.7 84H53.3C43.2078 84 38.1969 73.0586 45.3921 66.7329L110.15 9.80008C120.433 0.759757 136.916 0.729605 147.24 9.73224L212.575 66.704C219.815 73.0173 214.814 84 204.7 84Z" fill="#E0E0E0"/>
<path d="M51.0658 91.529L123.601 217.163C128.436 225.538 121.572 235.045 112.768 232.167L33.5336 206.263C20.952 202.15 13.0296 188.487 15.7066 175.519L32.6472 93.4499C34.5244 84.3556 46.2199 83.1358 51.0658 91.529Z" fill="#D8D8D8"/>
<path d="M206.994 88.7414L131.609 219.312C126.584 228.016 133.429 237.73 142.411 234.642L223.254 206.852C236.091 202.439 244.324 188.238 241.779 174.898L225.679 90.4738C223.895 81.1184 212.03 80.0184 206.994 88.7414Z" fill="#C1C1C1"/>
<path d="M128.484 230.5V263.061L104.345 256.908L21.7523 217.387L12.9961 206.501L15.5993 194.432C18.8336 198.455 26.6274 206.832 31.9285 208.158C38.5548 209.814 109.551 221.034 118.071 223.164C124.886 224.868 127.852 228.765 128.484 230.5Z" fill="#8D8D8D"/>
<path d="M128.485 231V263.061L152.624 256.908L235.216 217.387L243.973 206.501L241.369 194.432C238.135 198.455 230.341 206.832 225.04 208.158C218.414 209.814 147.418 221.534 138.898 223.664C132.082 225.368 129.116 229.265 128.485 231Z" fill="#737373"/>
<path d="M212.647 84.3141L243.297 64.418L250.038 88.3993L257.107 179.687L252.058 192.713L240.304 196.494C242.171 191.681 245.529 180.743 244.026 175.489C242.148 168.922 213.915 105.443 211.5 97C209.568 90.2455 211.459 85.7284 212.647 84.3141Z" fill="#828282"/>
<path d="M211.499 83.5004L243.296 64.4184L225.898 46.5901L150.375 -5.17638L136.57 -7.31643L127.419 0.9727C132.52 1.7621 143.672 4.32297 147.47 8.25119C152.218 13.1615 193.835 71.8375 199.939 78.1508C204.823 83.2013 209.681 83.8216 211.499 83.5004Z" fill="#9E9E9E"/>
<path d="M44.8504 83.8141L13.9414 64.418L7.20064 88.3993L0.130878 179.687L5.18042 192.713L16.9344 196.494C15.0674 191.681 11.7091 180.743 13.212 175.489C15.0905 168.922 43.5822 104.943 45.9974 96.5C47.9296 89.7455 46.0378 85.2284 44.8504 83.8141Z" fill="#B1B1B1"/>
<path d="M46.4385 83.85L13.9422 64.4184L31.3402 46.5901L106.863 -5.17638L120.669 -7.31643L129.819 0.9727C124.718 1.7621 113.566 4.32297 109.768 8.25119C105.02 13.1615 64.1026 72.1871 57.9983 78.5004C53.1148 83.5509 48.257 84.1712 46.4385 83.85Z" fill="#B6B6B6"/>
</g>
</g>
</g>
<g filter="url(#filter1_f_112_11509)">
<path d="M72.7423 89H122C110.497 90.3425 85.9103 93.2575 79.5869 94.1781C71.6827 95.3288 66.0919 98.2055 68.5981 106.452C70.6031 113.049 83.9568 144.233 90.383 159L61.6354 107.833C56.8952 99.3957 63.0262 89 72.7423 89Z" fill="url(#paint0_radial_112_11509)"/>
</g>
<path d="M141.387 165C134.538 165 129.621 163.639 126.635 160.917C123.65 158.195 122.128 153.673 122.07 147.351C122.04 142.405 122.011 137.868 121.982 133.741C121.953 129.615 121.938 125.956 121.938 122.766C121.938 119.576 121.953 116.956 121.982 114.907C122.011 112.829 122.04 111.38 122.07 110.561C122.333 104.59 124.118 100.171 127.426 97.3024C130.762 94.4341 135.387 93 141.299 93C147.445 93 152.143 94.522 155.392 97.5659C158.64 100.61 160.353 104.707 160.528 109.859C160.557 110.473 160.572 111.015 160.572 111.483C160.601 111.951 160.601 112.478 160.572 113.063C160.572 113.649 160.557 114.424 160.528 115.39H147.182C147.27 114.454 147.314 113.693 147.314 113.107C147.343 112.493 147.343 111.834 147.314 111.132C147.284 110.4 147.24 109.39 147.182 108.102C147.153 106.785 146.67 105.732 145.733 104.941C144.826 104.122 143.377 103.712 141.387 103.712C139.455 103.712 138.006 104.093 137.04 104.854C136.075 105.615 135.562 106.698 135.504 108.102C135.416 110.473 135.328 113.093 135.24 115.961C135.182 118.8 135.153 121.8 135.153 124.961H137.523C138.372 123.498 139.704 122.283 141.518 121.317C143.362 120.351 145.484 119.868 147.884 119.868C152.86 119.868 156.27 121.039 158.114 123.38C159.987 125.693 160.967 129.556 161.055 134.971C161.084 136.815 161.099 138.337 161.099 139.537C161.128 140.737 161.128 141.922 161.099 143.093C161.099 144.234 161.055 145.654 160.967 147.351C160.616 153.673 158.962 158.195 156.006 160.917C153.079 163.639 148.206 165 141.387 165ZM141.475 154.288C143.465 154.288 144.957 153.907 145.953 153.146C146.977 152.356 147.504 151.244 147.533 149.81C147.592 148.259 147.635 146.854 147.665 145.595C147.694 144.307 147.723 143.093 147.753 141.951C147.782 140.81 147.796 139.698 147.796 138.615C147.796 137.532 147.767 136.434 147.709 135.322C147.679 133.829 147.109 132.702 145.996 131.941C144.914 131.151 143.494 130.756 141.738 130.756C139.777 130.756 138.196 131.137 136.996 131.898C135.826 132.659 135.211 133.741 135.153 135.146C135.153 137.517 135.167 139.917 135.196 142.346C135.255 144.776 135.328 147.205 135.416 149.634C135.475 151.127 136.016 152.283 137.04 153.102C138.065 153.893 139.543 154.288 141.475 154.288Z" fill="white"/>
<path d="M101.256 164.122V105.468H95.9879L95.6367 100.815L104.066 93.878H114.954V164.122H101.256Z" fill="white"/>
<defs>
<filter id="filter0_f_112_11509" x="-8.36328" y="-17.3164" width="273.695" height="290.378" filterUnits="userSpaceOnUse" color-interpolation-filters="sRGB">
<feFlood flood-opacity="0" result="BackgroundImageFix"/>
<feBlend mode="normal" in="SourceGraphic" in2="BackgroundImageFix" result="shape"/>
<feGaussianBlur stdDeviation="5" result="effect1_foregroundBlur_112_11509"/>
</filter>
<filter id="filter1_f_112_11509" x="55" y="84" width="72" height="80" filterUnits="userSpaceOnUse" color-interpolation-filters="sRGB">
<feFlood flood-opacity="0" result="BackgroundImageFix"/>
<feBlend mode="normal" in="SourceGraphic" in2="BackgroundImageFix" result="shape"/>
<feGaussianBlur stdDeviation="2.5" result="effect1_foregroundBlur_112_11509"/>
</filter>
<radialGradient id="paint0_radial_112_11509" cx="0" cy="0" r="1" gradientUnits="userSpaceOnUse" gradientTransform="translate(68.0198 95.7123) rotate(44.0247) scale(47.1885 41.5706)">
<stop stop-color="white"/>
<stop offset="1" stop-color="white" stop-opacity="0"/>
</radialGradient>
</defs>
</svg>
