<svg width="256" height="256" viewBox="0 0 256 256" fill="none" xmlns="http://www.w3.org/2000/svg">
<metadata>
  <rdf:RDF xmlns:rdf="http://www.w3.org/1999/02/22-rdf-syntax-ns#"
            xmlns:dc="http://purl.org/dc/elements/1.1/">
    <rdf:Description>
      <dc:title>swrpg-online.com art asset</dc:title>
      <dc:creator>Joshua Ziggas</dc:creator>
      <dc:rights>CC BY-NC-SA 4.0 - https://github.com/swrpg-online/art</dc:rights>
    </rdf:Description>
  </rdf:RDF>
</metadata>
<desc>
  wrpg-online.com SWRPG Dice Asset
  Created by: Joshua Ziggas
  Source: https://github.com/swrpg-online/art
  License: CC BY-NC-SA 4.0
</desc><mask id="mask0_112_11496" style="mask-type:alpha" maskUnits="userSpaceOnUse" x="2" y="17" width="252" height="223">
<path d="M111.095 26.5C118.408 13.8333 136.691 13.8333 144.004 26.5L250.525 211C257.838 223.667 248.697 239.5 234.071 239.5H21.0283C6.40214 239.5 -2.73924 223.667 4.57386 211L111.095 26.5Z" fill="#D9D9D9"/>
</mask>
<g mask="url(#mask0_112_11496)">
<rect width="256" height="256" fill="#FF5502"/>
<g style="mix-blend-mode:multiply" filter="url(#filter0_f_112_11496)">
<path d="M279.337 102.182C279.369 87.9554 263.989 61.315 251.652 54.2295L126.366 -17.7263C114.029 -24.8118 113.988 -7.02832 126.293 14.284L251.252 230.719C263.556 252.031 278.977 260.888 279.01 246.661L279.337 102.182Z" fill="black" fill-opacity="0.25"/>
<path d="M100.333 317.894C112.425 324.879 142.655 324.879 154.747 317.894L277.547 246.95C289.639 239.964 274.524 231.232 250.339 231.232L4.74033 231.232C-19.4438 231.232 -34.5589 239.964 -22.4668 246.95L100.333 317.894Z" fill="black" fill-opacity="0.5"/>
<path d="M-26.4366 101.791C-26.4405 87.3471 -10.8069 60.2688 1.704 53.0503L128.757 -20.2571C141.268 -27.4757 141.273 -9.42066 128.766 12.242L1.75356 232.234C-10.7533 253.897 -26.392 262.92 -26.396 248.476L-26.4366 101.791Z" fill="black" fill-opacity="0.35"/>
</g>
</g>
<g clip-path="url(#clip0_112_11496)">
<path d="M97.9501 176.043C101.023 181.365 102.214 185.809 101.521 189.373C100.829 192.937 98.1255 196.168 93.4118 199.067C92.6261 199.55 92.029 199.925 91.6204 200.19C91.199 200.433 90.7776 200.677 90.3562 200.92C89.922 201.141 89.2993 201.471 88.4881 201.91L82.6106 191.73L88.865 188.119C90.1292 187.389 90.8618 186.404 91.0627 185.164C91.2415 183.937 90.8827 182.548 89.9864 180.995C89.0644 179.398 88.0403 178.393 86.914 177.979C85.7526 177.555 84.5557 177.684 83.323 178.366C81.8336 179.167 80.5234 179.894 79.3923 180.547C78.2483 181.178 77.1855 181.821 76.2037 182.477C75.0444 183.235 74.2039 184.237 73.6822 185.485C73.1476 186.71 73.4916 188.33 74.714 190.345L78.6604 197.027L70.4305 202.133L51.3021 199.426L61.2515 216.659L52.4687 221.73L35.7968 192.853L44.3902 188.069L63.7491 191.175C61.9246 187.349 61.5187 183.932 62.5313 180.922C63.5311 177.89 66.2182 174.964 70.5924 172.143C71.0453 171.852 71.4825 171.585 71.9039 171.341C72.2903 171.089 72.6831 170.847 73.0823 170.617C73.4816 170.386 73.9251 170.13 74.4131 169.848C74.8788 169.579 75.4239 169.294 76.0483 168.993C80.9542 166.427 85.1043 165.701 88.4986 166.817C91.8801 167.911 95.0306 170.986 97.9501 176.043Z" fill="white"/>
</g>
<g clip-path="url(#clip1_112_11496)">
<path d="M166.06 161.512C166.894 161.963 167.672 162.383 168.394 162.771C169.104 163.18 169.787 163.56 170.443 163.909C171.108 164.293 171.78 164.666 172.458 165.028C173.123 165.412 173.833 165.822 174.587 166.257C175.351 166.728 176.181 167.236 177.077 167.784C179.301 169.156 181.131 170.775 182.568 172.64C184.015 174.539 185.066 176.713 185.722 179.162C186.4 181.624 186.682 184.389 186.567 187.457L186.34 193.536C186.254 195.527 186.66 197.077 187.558 198.187C188.455 199.296 189.35 200.153 190.243 200.757C191.314 201.464 192.486 202.2 193.759 202.965C195.055 203.743 196.288 204.425 197.457 205.011C198.538 205.546 199.595 205.61 200.63 205.202C201.686 204.806 202.656 203.843 203.539 202.313C204.397 200.827 204.719 199.578 204.504 198.567C204.299 197.591 203.755 196.818 202.871 196.249C201.113 195.145 199.553 194.185 198.19 193.369C196.837 192.588 195.27 191.743 193.489 190.833L199.29 180.786C200.18 181.241 201.065 181.707 201.942 182.184C202.842 182.674 203.698 183.138 204.509 183.577C205.308 184.038 206.033 184.472 206.686 184.878C211.339 187.831 214.039 191.016 214.786 194.434C215.543 197.887 214.5 202.076 211.657 206.999C209.646 210.481 207.578 213.013 205.453 214.595C203.336 216.212 201.014 216.956 198.486 216.828C195.958 216.699 193.07 215.785 189.822 214.087C189.277 213.802 188.771 213.525 188.305 213.256C187.849 213.022 187.41 212.784 186.989 212.541C186.589 212.31 186.186 212.062 185.777 211.797C185.356 211.553 184.907 211.28 184.432 210.976C182.022 209.466 180.157 207.753 178.837 205.838C177.54 203.936 176.649 201.869 176.163 199.637C175.678 197.405 175.475 195.041 175.556 192.544L175.807 185.503C175.844 184.312 175.606 183.213 175.093 182.207C174.589 181.236 173.968 180.39 173.231 179.669C172.494 178.948 171.804 178.402 171.161 178.03L168.966 176.762L158.478 194.927L149.696 189.856L166.06 161.512Z" fill="white"/>
</g>
<path d="M128.843 125.578V110.135H109.098V100.532L124.464 64.1146H139.829V100.071H146.821V110.135H139.829V125.578H128.843ZM120.315 100.071H128.843L130.379 85.9341L131.762 74.2561H129.457L125.539 85.9341L120.315 100.071Z" fill="white"/>
<defs>
<filter id="filter0_f_112_11496" x="-46.7227" y="-41.8732" width="348.523" height="385.006" filterUnits="userSpaceOnUse" color-interpolation-filters="sRGB">
<feFlood flood-opacity="0" result="BackgroundImageFix"/>
<feBlend mode="normal" in="SourceGraphic" in2="BackgroundImageFix" result="shape"/>
<feGaussianBlur stdDeviation="10" result="effect1_foregroundBlur_112_11496"/>
</filter>
<clipPath id="clip0_112_11496">
<rect width="70" height="70" fill="white" transform="translate(58 239.622) rotate(-120)"/>
</clipPath>
<clipPath id="clip1_112_11496">
<rect width="70" height="70" fill="white" transform="translate(232.621 179) rotate(120)"/>
</clipPath>
</defs>
</svg>
