<svg width="256" height="256" viewBox="0 0 256 256" fill="none" xmlns="http://www.w3.org/2000/svg">
<metadata>
  <rdf:RDF xmlns:rdf="http://www.w3.org/1999/02/22-rdf-syntax-ns#"
            xmlns:dc="http://purl.org/dc/elements/1.1/">
    <rdf:Description>
      <dc:title>swrpg-online.com art asset</dc:title>
      <dc:creator>Joshua Ziggas</dc:creator>
      <dc:rights>CC BY-NC-SA 4.0 - https://github.com/swrpg-online/art</dc:rights>
    </rdf:Description>
  </rdf:RDF>
</metadata>
<desc>
  wrpg-online.com SWRPG Dice Asset
  Created by: Joshua Ziggas
  Source: https://github.com/swrpg-online/art
  License: CC BY-NC-SA 4.0
</desc><mask id="mask0_112_11501" style="mask-type:alpha" maskUnits="userSpaceOnUse" x="2" y="17" width="252" height="223">
<path d="M111.095 26.5C118.408 13.8333 136.691 13.8333 144.004 26.5L250.525 211C257.838 223.667 248.697 239.5 234.071 239.5H21.0283C6.40214 239.5 -2.73924 223.667 4.57386 211L111.095 26.5Z" fill="#D9D9D9"/>
</mask>
<g mask="url(#mask0_112_11501)">
<rect width="256" height="256" fill="#FF5502"/>
<g style="mix-blend-mode:multiply" filter="url(#filter0_f_112_11501)">
<path d="M279.337 102.182C279.369 87.9554 263.989 61.315 251.652 54.2295L126.366 -17.7263C114.029 -24.8118 113.988 -7.02832 126.293 14.284L251.252 230.719C263.556 252.031 278.977 260.888 279.01 246.661L279.337 102.182Z" fill="black" fill-opacity="0.25"/>
<path d="M100.333 317.894C112.425 324.879 142.655 324.879 154.747 317.894L277.547 246.95C289.639 239.964 274.524 231.232 250.339 231.232L4.74033 231.232C-19.4438 231.232 -34.5589 239.964 -22.4668 246.95L100.333 317.894Z" fill="black" fill-opacity="0.5"/>
<path d="M-26.4366 101.791C-26.4405 87.3471 -10.8069 60.2688 1.704 53.0503L128.757 -20.2571C141.268 -27.4757 141.273 -9.42066 128.766 12.242L1.75356 232.234C-10.7533 253.897 -26.392 262.92 -26.396 248.476L-26.4366 101.791Z" fill="black" fill-opacity="0.35"/>
</g>
</g>
<g clip-path="url(#clip0_112_11501)">
<path d="M191.178 128.084L153.081 150.079L155.057 153.501L152.166 155.475L144.499 152.601L140.416 145.529L186.041 119.188L191.178 128.084Z" fill="white"/>
</g>
<g clip-path="url(#clip1_112_11501)">
<path d="M65.9209 125.843L77.3841 132.461L85.8463 117.804L92.9751 121.92L113.422 148.933L106.837 160.34L80.1466 144.93L77.1503 150.12L69.6792 145.806L72.6756 140.616L61.2123 133.998L65.9209 125.843ZM88.51 130.444L84.8551 136.774L94.6903 143.974L102.766 150.005L103.754 148.294L96.7647 140.381L88.51 130.444Z" fill="white"/>
</g>
<path d="M126.072 229.043C120.803 229.043 116.995 228.037 114.646 226.027C112.297 224.016 111.057 220.676 110.925 216.007C110.903 215.228 110.881 214.634 110.859 214.223C110.859 213.812 110.859 213.402 110.859 212.991C110.881 212.58 110.903 211.986 110.925 211.207H121.001V217.304C121.001 218.536 121.418 219.487 122.252 220.157C123.086 220.806 124.272 221.13 125.808 221.13C127.389 221.13 128.574 220.806 129.364 220.157C130.176 219.487 130.594 218.558 130.615 217.369C130.659 215.942 130.681 214.677 130.681 213.575C130.703 212.472 130.681 211.423 130.615 210.429C130.55 209.262 130.165 208.224 129.463 207.316C128.783 206.408 127.433 205.976 125.413 206.019L118.762 206.084L118.498 197.912L128.706 185.07H111.65V176.509H140.23L140.098 184.811L129.496 197.652C133.118 197.933 135.829 199.079 137.629 201.09C139.451 203.1 140.472 206.3 140.691 210.688C140.713 211.142 140.724 211.575 140.724 211.986C140.746 212.375 140.757 212.764 140.757 213.153C140.757 213.542 140.757 213.974 140.757 214.45C140.757 214.904 140.735 215.423 140.691 216.007C140.494 220.676 139.253 224.016 136.97 226.027C134.709 228.037 131.076 229.043 126.072 229.043Z" fill="white"/>
<defs>
<filter id="filter0_f_112_11501" x="-46.7227" y="-41.8732" width="348.523" height="385.006" filterUnits="userSpaceOnUse" color-interpolation-filters="sRGB">
<feFlood flood-opacity="0" result="BackgroundImageFix"/>
<feBlend mode="normal" in="SourceGraphic" in2="BackgroundImageFix" result="shape"/>
<feGaussianBlur stdDeviation="10" result="effect1_foregroundBlur_112_11501"/>
</filter>
<clipPath id="clip0_112_11501">
<rect width="60" height="60" fill="white" transform="translate(156.109 179.762) rotate(-120)"/>
</clipPath>
<clipPath id="clip1_112_11501">
<rect width="60" height="60" fill="white" transform="translate(129.961 127.343) rotate(120)"/>
</clipPath>
</defs>
</svg>
