<svg width="256" height="256" viewBox="0 0 256 256" fill="none" xmlns="http://www.w3.org/2000/svg">
<metadata>
  <rdf:RDF xmlns:rdf="http://www.w3.org/1999/02/22-rdf-syntax-ns#"
            xmlns:dc="http://purl.org/dc/elements/1.1/">
    <rdf:Description>
      <dc:title>swrpg-online.com art asset</dc:title>
      <dc:creator>Joshua Ziggas</dc:creator>
      <dc:rights>CC BY-NC-SA 4.0 - https://github.com/swrpg-online/art</dc:rights>
    </rdf:Description>
  </rdf:RDF>
</metadata>
<desc>
  wrpg-online.com SWRPG Dice Asset
  Created by: Joshua Ziggas
  Source: https://github.com/swrpg-online/art
  License: CC BY-NC-SA 4.0
</desc><mask id="mask0_112_31310" style="mask-type:luminance" maskUnits="userSpaceOnUse" x="6" y="2" width="244" height="252">
<path d="M114.626 4.34533C123.318 1.52112 132.682 1.52111 141.374 4.34533L189.669 20.0373C198.361 22.8615 205.935 28.365 211.307 35.7589L241.155 76.841C246.527 84.2349 249.421 93.1397 249.421 102.279V153.059C249.421 162.199 246.527 171.103 241.155 178.497L211.307 219.58C205.935 226.973 198.361 232.477 189.669 235.301L141.374 250.993C132.682 253.817 123.318 253.817 114.626 250.993L66.3315 235.301C57.6395 232.477 50.0646 226.973 44.6926 219.58L14.8447 178.497C9.47272 171.103 6.57938 162.199 6.57938 153.059V102.279C6.57938 93.1397 9.47271 84.2349 14.8447 76.841L44.6926 35.7589C50.0646 28.365 57.6394 22.8615 66.3315 20.0373L114.626 4.34533Z" fill="white"/>
</mask>
<g mask="url(#mask0_112_31310)">
<rect width="256" height="256" fill="#272727"/>
<g filter="url(#filter0_f_112_31310)">
<path d="M50.1005 9.81476L135.446 -6.13379V48.8249H121.26V9.81476L52.8053 23.0787L50.1005 9.81476Z" fill="url(#paint0_linear_112_31310)" fill-opacity="0.15"/>
<rect x="169.168" y="196.272" width="14.1855" height="78.0203" transform="rotate(-36 169.168 196.272)" fill="url(#paint1_linear_112_31310)" fill-opacity="0.3"/>
<path d="M-5.07886 91.2408L43.0676 14.9639L61.4606 21.4555L18.1174 84.7518L55.2183 96.8066L50.8347 110.298L-5.07886 91.2408Z" fill="url(#paint2_linear_112_31310)" fill-opacity="0.25"/>
<rect x="205.87" y="110.299" width="14.1855" height="78.0203" transform="rotate(-108 205.87 110.299)" fill="url(#paint3_linear_112_31310)" fill-opacity="0.25"/>
<rect x="41.6776" y="259.393" width="14.1855" height="78.0203" transform="rotate(-144 41.6776 259.393)" fill="url(#paint4_linear_112_31310)" fill-opacity="0.25"/>
<path d="M173.312 205.927L209.146 252.45L126.5 268.5L46.8544 252.45L82.6877 205.927L173.312 205.927Z" fill="black" fill-opacity="0.35"/>
<path d="M216.11 108.421L272.06 88.5819L261 175L221.455 244.329L187.851 195.392L216.11 108.421Z" fill="black" fill-opacity="0.4"/>
<path d="M136.731 38.0625L135.152 -21.2806L210.713 14.0002L267.639 74.9765L210.713 91.8131L136.731 38.0625Z" fill="black" fill-opacity="0.2"/>
<path d="M45.287 91.8135L-11.6395 74.9769L45.287 15.0005L120.847 -21.2803L119.268 38.0628L45.287 91.8135Z" fill="black" fill-opacity="0.1"/>
<path d="M68.1492 195.392L34.5454 244.33L-4 172.5L-16.0601 88.5823L39.8907 108.422L68.1492 195.392Z" fill="black" fill-opacity="0.25"/>
</g>
</g>
<path d="M166.19 157.249C168.708 157.249 170.75 159.291 170.75 161.809V169.328C170.75 171.847 168.708 173.888 166.19 173.888H135.174C132.655 173.888 130.614 171.847 130.614 169.328V161.809C130.614 159.291 132.655 157.249 135.174 157.249H139.562C140.822 157.249 141.842 156.229 141.842 154.969V120.012C141.842 118.753 140.822 117.732 139.562 117.732H135.174C132.655 117.732 130.614 115.69 130.614 113.172V105.653C130.614 103.134 132.655 101.093 135.174 101.093H154.961C157.48 101.093 159.521 103.134 159.521 105.653V154.969C159.521 156.229 160.542 157.249 161.801 157.249H166.19Z" fill="white"/>
<path d="M120.826 157.249C123.344 157.249 125.386 159.291 125.386 161.809V169.328C125.386 171.847 123.344 173.888 120.826 173.888H89.8098C87.2913 173.888 85.2498 171.847 85.2498 169.328V161.809C85.2498 159.291 87.2913 157.249 89.8098 157.249H94.1982C95.4574 157.249 96.4782 156.229 96.4782 154.969V120.012C96.4782 118.753 95.4574 117.732 94.1982 117.732H89.8098C87.2913 117.732 85.2498 115.69 85.2498 113.172V105.653C85.2498 103.134 87.2913 101.093 89.8098 101.093H109.597C112.116 101.093 114.157 103.134 114.157 105.653V154.969C114.157 156.229 115.178 157.249 116.437 157.249H120.826Z" fill="white"/>
<g filter="url(#filter1_f_112_31310)">
<path d="M62.4925 99.4782C57.4837 104.467 54.5575 109.682 58.5085 120.453C52.2474 110.816 53.9547 100.612 58.5082 95.5099C66.6009 86.4422 90.9517 68.8656 103.474 61.4959C113.491 55.6002 126.241 46.7566 139.901 56.9608C124.533 51.2917 117.703 59.2284 110.873 63.1966C102.632 67.9849 68.7536 93.2423 62.4925 99.4782Z" fill="white"/>
</g>
<defs>
<filter id="filter0_f_112_31310" x="-26.8795" y="-32.0997" width="317.771" height="311.419" filterUnits="userSpaceOnUse" color-interpolation-filters="sRGB">
<feFlood flood-opacity="0" result="BackgroundImageFix"/>
<feBlend mode="normal" in="SourceGraphic" in2="BackgroundImageFix" result="shape"/>
<feGaussianBlur stdDeviation="5.40971" result="effect1_foregroundBlur_112_31310"/>
</filter>
<filter id="filter1_f_112_31310" x="49.0183" y="46.8813" width="96.2928" height="78.9815" filterUnits="userSpaceOnUse" color-interpolation-filters="sRGB">
<feFlood flood-opacity="0" result="BackgroundImageFix"/>
<feBlend mode="normal" in="SourceGraphic" in2="BackgroundImageFix" result="shape"/>
<feGaussianBlur stdDeviation="2.70486" result="effect1_foregroundBlur_112_31310"/>
</filter>
<linearGradient id="paint0_linear_112_31310" x1="128.353" y1="-29.1954" x2="128.353" y2="48.8249" gradientUnits="userSpaceOnUse">
<stop offset="0.40004"/>
<stop offset="0.770751" stop-opacity="0"/>
</linearGradient>
<linearGradient id="paint1_linear_112_31310" x1="176.261" y1="196.272" x2="176.275" y2="252.046" gradientUnits="userSpaceOnUse">
<stop stop-opacity="0"/>
<stop offset="0.44519"/>
</linearGradient>
<linearGradient id="paint2_linear_112_31310" x1="52.243" y1="103.558" x2="6.82259" y2="87.454" gradientUnits="userSpaceOnUse">
<stop offset="0.487821" stop-opacity="0"/>
<stop offset="1"/>
</linearGradient>
<linearGradient id="paint3_linear_112_31310" x1="216.761" y1="109.731" x2="217.403" y2="150.481" gradientUnits="userSpaceOnUse">
<stop stop-opacity="0"/>
<stop offset="1"/>
</linearGradient>
<linearGradient id="paint4_linear_112_31310" x1="48.7704" y1="337.413" x2="48.678" y2="291.64" gradientUnits="userSpaceOnUse">
<stop stop-opacity="0"/>
<stop offset="0.482933"/>
</linearGradient>
</defs>
</svg>
