<svg width="256" height="256" viewBox="0 0 256 256" fill="none" xmlns="http://www.w3.org/2000/svg">
<metadata>
  <rdf:RDF xmlns:rdf="http://www.w3.org/1999/02/22-rdf-syntax-ns#"
            xmlns:dc="http://purl.org/dc/elements/1.1/">
    <rdf:Description>
      <dc:title>swrpg-online.com art asset</dc:title>
      <dc:creator>Joshua Ziggas</dc:creator>
      <dc:rights>CC BY-NC-SA 4.0 - https://github.com/swrpg-online/art</dc:rights>
    </rdf:Description>
  </rdf:RDF>
</metadata>
<desc>
  wrpg-online.com SWRPG Dice Asset
  Created by: Joshua Ziggas
  Source: https://github.com/swrpg-online/art
  License: CC BY-NC-SA 4.0
</desc><mask id="mask0_112_31322" style="mask-type:alpha" maskUnits="userSpaceOnUse" x="10" y="0" width="237" height="256">
<path d="M224.91 60.2803L150.531 7.28962C136.792 -2.49863 118.338 -2.42293 104.68 7.47773L31.8161 60.296C23.7755 66.1246 18.6774 75.1707 17.8556 85.0677L10.4831 173.859C9.14473 189.977 17.8216 205.268 32.3449 212.386L112.644 251.739C122.046 256.346 133.044 256.376 142.471 251.82L224.23 212.3C238.838 205.239 247.602 189.923 246.289 173.75L239.102 85.276C238.289 75.2589 233.095 66.1118 224.91 60.2803Z" fill="#CFCFCF"/>
</mask>
<g mask="url(#mask0_112_31322)">
<rect width="256" height="256" fill="#272727"/>
<g style="mix-blend-mode:multiply" filter="url(#filter0_f_112_31322)">
<mask id="mask1_112_31322" style="mask-type:alpha" maskUnits="userSpaceOnUse" x="1" y="-10" width="255" height="275">
<path fill-rule="evenodd" clip-rule="evenodd" d="M152.286 -1.73797L232.217 55.1624C241.013 61.4242 246.595 71.2462 247.469 82.0024L255.192 177.005C256.604 194.37 247.185 210.817 231.486 218.399L143.625 260.834C133.494 265.727 121.674 265.695 111.57 260.747L25.277 218.49C9.66957 210.848 0.344966 194.428 1.7832 177.121L9.70613 81.7786C10.5892 71.1515 16.0679 61.4379 24.7088 55.1793L103.012 -1.53598C117.69 -12.1671 137.522 -12.2484 152.286 -1.73797ZM138.619 210.456C134.337 217.847 123.663 217.847 119.381 210.456L57.5143 103.688C53.2204 96.2773 58.5682 86.9996 67.1337 86.9996H190.866C199.432 86.9996 204.779 96.2772 200.485 103.688L138.619 210.456Z" fill="black"/>
</mask>
<g mask="url(#mask1_112_31322)">
<path d="M224.91 60.2803L150.531 7.28962C136.792 -2.49863 118.338 -2.42293 104.68 7.47773L31.8161 60.296C23.7755 66.1246 18.6774 75.1707 17.8556 85.0677L10.4831 173.859C9.14473 189.977 17.8216 205.268 32.3449 212.386L112.644 251.739C122.046 256.346 133.044 256.376 142.471 251.82L224.23 212.3C238.838 205.239 247.602 189.923 246.289 173.75L239.102 85.276C238.289 75.2589 233.095 66.1118 224.91 60.2803Z" fill="#CFCFCF"/>
<path d="M204.7 84H53.3C43.2078 84 38.1969 73.0586 45.3921 66.7329L110.15 9.80008C120.433 0.759757 136.916 0.729605 147.24 9.73224L212.575 66.704C219.815 73.0173 214.814 84 204.7 84Z" fill="#E0E0E0"/>
<path d="M51.0667 91.529L123.602 217.163C128.437 225.538 121.573 235.045 112.769 232.167L33.5346 206.263C20.953 202.15 13.0306 188.487 15.7075 175.519L32.6481 93.4499C34.5254 84.3556 46.2209 83.1358 51.0667 91.529Z" fill="#D8D8D8"/>
<path d="M206.995 88.7409L131.61 219.312C126.585 228.015 133.43 237.729 142.412 234.642L223.255 206.851C236.092 202.438 244.325 188.238 241.781 174.897L225.68 90.4733C223.896 81.1179 212.032 80.0179 206.995 88.7409Z" fill="#C1C1C1"/>
<path d="M128.485 230.499V263.061L104.346 256.907L21.7533 217.386L12.9971 206.5L15.6003 194.431C18.8346 198.454 26.6284 206.831 31.9294 208.157C38.5558 209.813 109.552 221.033 118.072 223.163C124.887 224.867 127.853 228.764 128.485 230.499Z" fill="#8D8D8D"/>
<path d="M128.485 230.999V263.061L152.623 256.907L235.216 217.386L243.972 206.5L241.369 194.431C238.135 198.454 230.341 206.831 225.04 208.157C218.413 209.813 147.417 221.533 138.898 223.663C132.082 225.367 129.116 229.264 128.485 230.999Z" fill="#737373"/>
<path d="M212.647 84.3141L243.297 64.418L250.038 88.3993L257.107 179.687L252.058 192.713L240.304 196.494C242.171 191.681 245.529 180.743 244.026 175.489C242.148 168.922 213.915 105.443 211.5 97C209.568 90.2455 211.459 85.7284 212.647 84.3141Z" fill="#828282"/>
<path d="M211.5 83.4999L243.297 64.4179L225.899 46.5896L150.376 -5.17687L136.571 -7.31692L127.42 0.972212C132.521 1.76162 143.673 4.32248 147.471 8.2507C152.219 13.161 193.836 71.8371 199.94 78.1503C204.824 83.2008 209.681 83.8211 211.5 83.4999Z" fill="#9E9E9E"/>
<path d="M44.8529 83.8141L13.9438 64.418L7.20308 88.3993L0.133319 179.687L5.18286 192.713L16.9369 196.494C15.0699 191.681 11.7116 180.743 13.2144 175.489C15.0929 168.922 43.5846 104.943 45.9999 96.5C47.9321 89.7455 46.0403 85.2284 44.8529 83.8141Z" fill="#B1B1B1"/>
<path d="M46.4399 83.8495L13.9436 64.4179L31.3417 46.5896L106.864 -5.17687L120.67 -7.31692L129.821 0.972212C124.72 1.76162 113.568 4.32248 109.769 8.2507C105.022 13.161 64.1041 72.1867 57.9998 78.4999C53.1163 83.5504 48.2584 84.1707 46.4399 83.8495Z" fill="#B6B6B6"/>
</g>
</g>
</g>
<g filter="url(#filter1_f_112_31322)">
<path d="M72.7423 89H122C110.497 90.3425 85.9103 93.2575 79.5869 94.1781C71.6827 95.3288 66.0919 98.2055 68.5981 106.452C70.6031 113.049 83.9568 144.233 90.383 159L61.6354 107.833C56.8952 99.3957 63.0262 89 72.7423 89Z" fill="url(#paint0_radial_112_31322)"/>
</g>
<g clip-path="url(#clip0_112_31322)">
<path d="M124.294 108.2C125.627 108.2 126.708 109.281 126.708 110.614V131.005C126.708 132.338 125.627 133.419 124.294 133.419H90.4135C89.0806 133.419 88 132.338 88 131.005V126.449C88 125.116 89.0806 124.035 90.4135 124.035H115.531C116.197 124.035 116.737 123.495 116.737 122.828V118.791C116.737 118.124 116.197 117.584 115.531 117.584H90.4135C89.0806 117.584 88 116.503 88 115.17V110.614C88 109.281 89.0806 108.2 90.4135 108.2H124.294ZM88 142.284C88 140.951 89.0806 139.87 90.4135 139.87H124.294C125.627 139.87 126.708 140.951 126.708 142.284V146.84C126.708 148.173 125.627 149.254 124.294 149.254H90.4135C89.0806 149.254 88 148.173 88 146.84V142.284Z" fill="white"/>
<path d="M131.706 149.254C130.373 149.254 129.292 148.173 129.292 146.84V110.614C129.292 109.281 130.373 108.2 131.706 108.2H165.587C166.919 108.2 168 109.281 168 110.614V146.84C168 148.173 166.919 149.254 165.587 149.254H131.706ZM140.469 117.584C139.803 117.584 139.263 118.124 139.263 118.791V138.663C139.263 139.33 139.803 139.87 140.469 139.87H156.823C157.49 139.87 158.03 139.33 158.03 138.663V118.791C158.03 118.124 157.49 117.584 156.823 117.584H140.469ZM143.954 125.242C143.954 124.575 144.495 124.035 145.161 124.035H152.131C152.798 124.035 153.338 124.575 153.338 125.242V132.212C153.338 132.878 152.798 133.419 152.131 133.419H145.161C144.495 133.419 143.954 132.878 143.954 132.212V125.242Z" fill="white"/>
</g>
<defs>
<filter id="filter0_f_112_31322" x="-8.3623" y="-17.3174" width="273.694" height="290.378" filterUnits="userSpaceOnUse" color-interpolation-filters="sRGB">
<feFlood flood-opacity="0" result="BackgroundImageFix"/>
<feBlend mode="normal" in="SourceGraphic" in2="BackgroundImageFix" result="shape"/>
<feGaussianBlur stdDeviation="5" result="effect1_foregroundBlur_112_31322"/>
</filter>
<filter id="filter1_f_112_31322" x="55" y="84" width="72" height="80" filterUnits="userSpaceOnUse" color-interpolation-filters="sRGB">
<feFlood flood-opacity="0" result="BackgroundImageFix"/>
<feBlend mode="normal" in="SourceGraphic" in2="BackgroundImageFix" result="shape"/>
<feGaussianBlur stdDeviation="2.5" result="effect1_foregroundBlur_112_31322"/>
</filter>
<radialGradient id="paint0_radial_112_31322" cx="0" cy="0" r="1" gradientUnits="userSpaceOnUse" gradientTransform="translate(68.0198 95.7123) rotate(44.0247) scale(47.1885 41.5706)">
<stop stop-color="white"/>
<stop offset="1" stop-color="white" stop-opacity="0"/>
</radialGradient>
<clipPath id="clip0_112_31322">
<rect width="80" height="80" fill="white" transform="translate(88 89)"/>
</clipPath>
</defs>
</svg>
