<svg width="256" height="256" viewBox="0 0 256 256" fill="none" xmlns="http://www.w3.org/2000/svg">
<metadata>
  <rdf:RDF xmlns:rdf="http://www.w3.org/1999/02/22-rdf-syntax-ns#"
            xmlns:dc="http://purl.org/dc/elements/1.1/">
    <rdf:Description>
      <dc:title>swrpg-online.com art asset</dc:title>
      <dc:creator>Joshua Ziggas</dc:creator>
      <dc:rights>CC BY-NC-SA 4.0 - https://github.com/swrpg-online/art</dc:rights>
    </rdf:Description>
  </rdf:RDF>
</metadata>
<desc>
  wrpg-online.com SWRPG Dice Asset
  Created by: Joshua Ziggas
  Source: https://github.com/swrpg-online/art
  License: CC BY-NC-SA 4.0
</desc><mask id="mask0_112_31263" style="mask-type:alpha" maskUnits="userSpaceOnUse" x="2" y="17" width="252" height="223">
<path d="M111.095 26.5C118.408 13.8333 136.691 13.8333 144.004 26.5L250.525 211C257.838 223.667 248.697 239.5 234.071 239.5H21.0283C6.40214 239.5 -2.73924 223.667 4.57386 211L111.095 26.5Z" fill="#D9D9D9"/>
</mask>
<g mask="url(#mask0_112_31263)">
<rect width="256" height="256" fill="#272727"/>
<g style="mix-blend-mode:multiply" filter="url(#filter0_f_112_31263)">
<path d="M279.337 102.182C279.369 87.9555 263.988 61.3151 251.652 54.2297L126.365 -17.7262C114.029 -24.8117 113.988 -7.0282 126.293 14.2841L251.252 230.719C263.556 252.031 278.977 260.888 279.01 246.661L279.337 102.182Z" fill="black" fill-opacity="0.25"/>
<path d="M100.333 317.894C112.425 324.88 142.655 324.88 154.747 317.894L277.546 246.95C289.638 239.964 274.523 231.232 250.339 231.232L4.74021 231.232C-19.4439 231.232 -34.559 239.964 -22.467 246.95L100.333 317.894Z" fill="black" fill-opacity="0.5"/>
<path d="M-26.4367 101.791C-26.4407 87.3473 -10.807 60.269 1.70388 53.0504L128.757 -20.257C141.268 -27.4756 141.273 -9.42054 128.766 12.2421L1.75344 232.235C-10.7535 253.897 -26.3922 262.921 -26.3961 248.476L-26.4367 101.791Z" fill="black" fill-opacity="0.35"/>
</g>
</g>
<g clip-path="url(#clip0_112_31263)">
<path d="M193.193 143.411C193.856 144.559 193.463 146.027 192.315 146.689L188.39 148.955C187.243 149.618 185.775 149.224 185.112 148.077L172.624 126.446C172.292 125.872 171.558 125.675 170.984 126.007L153.87 135.888C153.296 136.219 153.1 136.953 153.431 137.527L165.92 159.157C166.582 160.305 166.189 161.773 165.041 162.436L161.117 164.701C159.969 165.364 158.501 164.971 157.838 163.823L140.993 134.645C140.33 133.498 140.723 132.03 141.871 131.367L173.069 113.355C174.217 112.692 175.685 113.086 176.347 114.233L193.193 143.411ZM179.556 151.284C180.219 152.432 179.826 153.9 178.678 154.563L174.754 156.828C173.606 157.491 172.138 157.098 171.475 155.95L161.92 139.399C161.257 138.251 161.65 136.783 162.798 136.12L166.722 133.855C167.87 133.192 169.338 133.585 170.001 134.733L179.556 151.284Z" fill="white"/>
</g>
<g clip-path="url(#clip1_112_31263)">
<path d="M98.4467 162.991C97.784 164.139 96.3162 164.532 95.1682 163.87L77.6073 153.731C76.4594 153.068 76.0661 151.6 76.7289 150.452L93.5745 121.275C94.2372 120.127 95.705 119.734 96.8529 120.397L100.777 122.662C101.925 123.325 102.318 124.793 101.656 125.941L89.1671 147.571C88.8358 148.145 89.0324 148.879 89.6064 149.21L93.0836 151.218C93.6576 151.549 94.3915 151.353 94.7229 150.779L107.211 129.148C107.874 128 109.342 127.607 110.49 128.27L114.414 130.535C115.562 131.198 115.955 132.666 115.292 133.814L98.4467 162.991ZM87.1403 114.789C88.2882 115.452 88.6815 116.92 88.0187 118.067L71.1731 147.245C70.5104 148.393 69.0426 148.786 67.8947 148.123L63.9705 145.858C62.8226 145.195 62.4293 143.727 63.0921 142.579L79.9377 113.402C80.6004 112.254 82.0682 111.861 83.2161 112.523L87.1403 114.789Z" fill="white"/>
</g>
<path d="M145.63 213.34C146.955 213.34 148.03 214.398 148.03 215.703V220.166C148.03 221.471 146.955 222.53 145.63 222.53H111.938C110.613 222.53 109.538 221.471 109.538 220.166V215.703C109.538 214.398 110.613 213.34 111.938 213.34H123.827V191.514H111.938C110.613 191.514 109.538 190.456 109.538 189.15V184.688C109.538 183.382 110.613 182.324 111.938 182.324H131.341C132.667 182.324 133.741 183.382 133.741 184.688V213.34H145.63Z" fill="white"/>
<defs>
<filter id="filter0_f_112_31263" x="-46.7228" y="-41.873" width="348.525" height="385.006" filterUnits="userSpaceOnUse" color-interpolation-filters="sRGB">
<feFlood flood-opacity="0" result="BackgroundImageFix"/>
<feBlend mode="normal" in="SourceGraphic" in2="BackgroundImageFix" result="shape"/>
<feGaussianBlur stdDeviation="10" result="effect1_foregroundBlur_112_31263"/>
</filter>
<clipPath id="clip0_112_31263">
<rect width="60" height="60" fill="white" transform="translate(156.108 179.762) rotate(-120)"/>
</clipPath>
<clipPath id="clip1_112_31263">
<rect width="60" height="60" fill="white" transform="translate(129.961 127.343) rotate(120)"/>
</clipPath>
</defs>
</svg>
