<svg width="256" height="256" viewBox="0 0 256 256" fill="none" xmlns="http://www.w3.org/2000/svg">
<metadata>
  <rdf:RDF xmlns:rdf="http://www.w3.org/1999/02/22-rdf-syntax-ns#"
            xmlns:dc="http://purl.org/dc/elements/1.1/">
    <rdf:Description>
      <dc:title>swrpg-online.com art asset</dc:title>
      <dc:creator>Joshua Ziggas</dc:creator>
      <dc:rights>CC BY-NC-SA 4.0 - https://github.com/swrpg-online/art</dc:rights>
    </rdf:Description>
  </rdf:RDF>
</metadata>
<desc>
  wrpg-online.com SWRPG Dice Asset
  Created by: Joshua Ziggas
  Source: https://github.com/swrpg-online/art
  License: CC BY-NC-SA 4.0
</desc><mask id="mask0_112_31261" style="mask-type:alpha" maskUnits="userSpaceOnUse" x="2" y="17" width="252" height="223">
<path d="M111.095 26.5C118.408 13.8333 136.691 13.8333 144.004 26.5L250.525 211C257.838 223.667 248.697 239.5 234.071 239.5H21.0283C6.40214 239.5 -2.73924 223.667 4.57386 211L111.095 26.5Z" fill="#D9D9D9"/>
</mask>
<g mask="url(#mask0_112_31261)">
<rect width="256" height="256" fill="#272727"/>
<g style="mix-blend-mode:multiply" filter="url(#filter0_f_112_31261)">
<path d="M279.337 102.182C279.369 87.9555 263.988 61.3151 251.652 54.2297L126.365 -17.7262C114.029 -24.8117 113.988 -7.0282 126.293 14.2841L251.252 230.719C263.556 252.031 278.977 260.888 279.01 246.661L279.337 102.182Z" fill="black" fill-opacity="0.25"/>
<path d="M100.333 317.894C112.425 324.88 142.655 324.88 154.747 317.894L277.546 246.95C289.638 239.964 274.523 231.232 250.339 231.232L4.74021 231.232C-19.4439 231.232 -34.559 239.964 -22.467 246.95L100.333 317.894Z" fill="black" fill-opacity="0.5"/>
<path d="M-26.4367 101.791C-26.4407 87.3473 -10.807 60.269 1.70388 53.0504L128.757 -20.257C141.268 -27.4756 141.273 -9.42054 128.766 12.2421L1.75344 232.235C-10.7535 253.897 -26.3922 262.921 -26.3961 248.476L-26.4367 101.791Z" fill="black" fill-opacity="0.35"/>
</g>
</g>
<g clip-path="url(#clip0_112_31261)">
<path d="M166.766 116.3C166.104 115.153 166.497 113.685 167.645 113.022L171.569 110.756C172.717 110.094 174.185 110.487 174.847 111.635L191.693 140.812C192.356 141.96 191.963 143.428 190.815 144.091L186.89 146.356C185.743 147.019 184.275 146.626 183.612 145.478L177.668 135.182L158.475 146.263L164.42 156.559C165.082 157.707 164.689 159.174 163.541 159.837L159.617 162.103C158.469 162.765 157.001 162.372 156.338 161.224L146.637 144.421C145.974 143.273 146.368 141.805 147.516 141.142L172.711 126.596L166.766 116.3Z" fill="white"/>
</g>
<g clip-path="url(#clip1_112_31261)">
<path d="M98.4467 162.991C97.784 164.139 96.3162 164.532 95.1682 163.87L63.9705 145.858C62.8226 145.195 62.4293 143.727 63.0921 142.579L65.6493 138.15C66.312 137.002 67.7798 136.609 68.9277 137.272L79.4468 143.345C80.0208 143.676 80.7547 143.48 81.0861 142.906L93.5745 121.275C94.2372 120.127 95.705 119.734 96.8529 120.397L114.414 130.535C115.562 131.198 115.955 132.666 115.292 133.814L112.735 138.243C112.072 139.391 110.605 139.784 109.457 139.121L98.9376 133.048C98.3636 132.717 97.6297 132.914 97.2983 133.488L89.1671 147.571C88.8358 148.145 89.0324 148.879 89.6064 149.21L100.125 155.284C101.273 155.946 101.667 157.414 101.004 158.562L98.4467 162.991Z" fill="white"/>
</g>
<path d="M108.938 222.53C107.613 222.53 106.538 221.471 106.538 220.166V215.703C106.538 214.398 107.613 213.34 108.938 213.34H133.915C134.578 213.34 135.115 212.811 135.115 212.158V192.696C135.115 192.043 134.578 191.514 133.915 191.514H108.938C107.613 191.514 106.538 190.456 106.538 189.15V184.688C106.538 183.382 107.613 182.324 108.938 182.324H142.63C143.955 182.324 145.03 183.382 145.03 184.688V220.166C145.03 221.471 143.955 222.53 142.63 222.53H108.938ZM108.938 207.022C107.613 207.022 106.538 205.964 106.538 204.658V200.196C106.538 198.89 107.613 197.832 108.938 197.832H128.05C129.375 197.832 130.45 198.89 130.45 200.196V204.658C130.45 205.964 129.375 207.022 128.05 207.022H108.938Z" fill="white"/>
<defs>
<filter id="filter0_f_112_31261" x="-46.7228" y="-41.873" width="348.525" height="385.006" filterUnits="userSpaceOnUse" color-interpolation-filters="sRGB">
<feFlood flood-opacity="0" result="BackgroundImageFix"/>
<feBlend mode="normal" in="SourceGraphic" in2="BackgroundImageFix" result="shape"/>
<feGaussianBlur stdDeviation="10" result="effect1_foregroundBlur_112_31261"/>
</filter>
<clipPath id="clip0_112_31261">
<rect width="60" height="60" fill="white" transform="translate(156.108 179.762) rotate(-120)"/>
</clipPath>
<clipPath id="clip1_112_31261">
<rect width="60" height="60" fill="white" transform="translate(129.961 127.343) rotate(120)"/>
</clipPath>
</defs>
</svg>
