<svg width="256" height="256" viewBox="0 0 256 256" fill="none" xmlns="http://www.w3.org/2000/svg">
<metadata>
  <rdf:RDF xmlns:rdf="http://www.w3.org/1999/02/22-rdf-syntax-ns#"
            xmlns:dc="http://purl.org/dc/elements/1.1/">
    <rdf:Description>
      <dc:title>swrpg-online.com art asset</dc:title>
      <dc:creator>Joshua Ziggas</dc:creator>
      <dc:rights>CC BY-NC-SA 4.0 - https://github.com/swrpg-online/art</dc:rights>
    </rdf:Description>
  </rdf:RDF>
</metadata>
<desc>
  wrpg-online.com SWRPG Dice Asset
  Created by: Joshua Ziggas
  Source: https://github.com/swrpg-online/art
  License: CC BY-NC-SA 4.0
</desc><g id="D12-Force-2x-Hollow">
<g id="Group 2">
<mask id="mask0_5_2525" style="mask-type:luminance" maskUnits="userSpaceOnUse" x="6" y="2" width="244" height="252">
<path id="Shape" d="M114.626 4.34533C123.318 1.52112 132.682 1.52111 141.374 4.34533L189.669 20.0373C198.361 22.8615 205.935 28.365 211.307 35.7589L241.155 76.841C246.527 84.2349 249.421 93.1397 249.421 102.279V153.059C249.421 162.199 246.527 171.103 241.155 178.497L211.307 219.58C205.935 226.973 198.361 232.477 189.669 235.301L141.374 250.993C132.682 253.817 123.318 253.817 114.626 250.993L66.3315 235.301C57.6395 232.477 50.0646 226.973 44.6926 219.58L14.8447 178.497C9.47272 171.103 6.57938 162.199 6.57938 153.059V102.279C6.57938 93.1397 9.47271 84.2349 14.8447 76.841L44.6926 35.7589C50.0646 28.365 57.6394 22.8615 66.3315 20.0373L114.626 4.34533Z" fill="white"/>
</mask>
<g mask="url(#mask0_5_2525)">
<g id="Dice Color">
<g id="Color Component">
<rect width="256" height="256" fill="#F1F1F1"/>
</g>
</g>
<g id="Group 4" filter="url(#filter0_f_5_2525)">
<path id="Rectangle 6" d="M50.1003 9.81476L135.445 -6.13379V48.8249H121.26V9.81476L52.8052 23.0787L50.1003 9.81476Z" fill="url(#paint0_linear_5_2525)" fill-opacity="0.15"/>
<rect id="Rectangle 7" x="169.168" y="196.272" width="14.1855" height="78.0203" transform="rotate(-36 169.168 196.272)" fill="url(#paint1_linear_5_2525)" fill-opacity="0.3"/>
<path id="Rectangle 8" d="M-5.07892 91.241L43.0675 14.9641L61.4605 21.4558L18.1174 84.7521L55.2182 96.8069L50.8347 110.298L-5.07892 91.241Z" fill="url(#paint2_linear_5_2525)" fill-opacity="0.25"/>
<rect id="Rectangle 9" x="205.87" y="110.298" width="14.1855" height="78.0203" transform="rotate(-108 205.87 110.298)" fill="url(#paint3_linear_5_2525)" fill-opacity="0.25"/>
<rect id="Rectangle 10" x="41.6775" y="259.392" width="14.1855" height="78.0203" transform="rotate(-144 41.6775 259.392)" fill="url(#paint4_linear_5_2525)" fill-opacity="0.25"/>
<g id="Group 6">
<path id="Vector" d="M173.312 205.927L209.146 252.45L126.5 268.5L46.8542 252.45L82.6876 205.927L173.312 205.927Z" fill="black" fill-opacity="0.35"/>
</g>
<g id="Group 7">
<path id="Vector_2" d="M216.109 108.421L272.06 88.5818L261 175L221.455 244.329L187.851 195.392L216.109 108.421Z" fill="black" fill-opacity="0.4"/>
</g>
<g id="Group 8">
<path id="Vector_3" d="M136.731 38.0622L135.152 -21.2809L210.713 14L267.639 74.9762L210.713 91.8128L136.731 38.0622Z" fill="black" fill-opacity="0.2"/>
</g>
<g id="Group 9">
<path id="Vector_4" d="M45.2868 91.813L-11.6397 74.9764L45.2868 15.0001L120.847 -21.2808L119.268 38.0623L45.2868 91.813Z" fill="black" fill-opacity="0.1"/>
</g>
<g id="Group 10">
<path id="Vector_5" d="M68.1491 195.392L34.5453 244.329L-4.00012 172.5L-16.0602 88.5818L39.8906 108.421L68.1491 195.392Z" fill="black" fill-opacity="0.25"/>
</g>
</g>
</g>
<g id="Symbol B">
<path id="Symbol" fill-rule="evenodd" clip-rule="evenodd" d="M128 189.4C140.371 189.4 150.4 179.371 150.4 167C150.4 154.629 140.371 144.6 128 144.6C115.629 144.6 105.6 154.629 105.6 167C105.6 179.371 115.629 189.4 128 189.4ZM128 183.8C137.278 183.8 144.8 176.278 144.8 167C144.8 157.722 137.278 150.2 128 150.2C118.721 150.2 111.2 157.722 111.2 167C111.2 176.278 118.721 183.8 128 183.8Z" fill="black"/>
</g>
<g id="Symbol A">
<path id="Symbol_2" fill-rule="evenodd" clip-rule="evenodd" d="M128 119.4C140.371 119.4 150.4 109.371 150.4 97C150.4 84.6288 140.371 74.6 128 74.6C115.629 74.6 105.6 84.6288 105.6 97C105.6 109.371 115.629 119.4 128 119.4ZM128 113.8C137.278 113.8 144.8 106.278 144.8 97C144.8 87.7216 137.278 80.2 128 80.2C118.721 80.2 111.2 87.7216 111.2 97C111.2 106.278 118.721 113.8 128 113.8Z" fill="black"/>
</g>
<g id="Shine" filter="url(#filter1_f_5_2525)">
<path d="M62.4925 99.4783C57.4837 104.467 54.5575 109.682 58.5084 120.453C52.2473 110.816 53.9547 100.612 58.5082 95.51C66.6008 86.4423 90.9517 68.8657 103.474 61.4961C113.491 55.6003 126.241 46.7567 139.901 56.9609C124.533 51.2919 117.703 59.2285 110.873 63.1968C102.632 67.985 68.7535 93.2424 62.4925 99.4783Z" fill="white"/>
</g>
</g>
</g>
<defs>
<filter id="filter0_f_5_2525" x="-26.8797" y="-32.1003" width="317.771" height="311.42" filterUnits="userSpaceOnUse" color-interpolation-filters="sRGB">
<feFlood flood-opacity="0" result="BackgroundImageFix"/>
<feBlend mode="normal" in="SourceGraphic" in2="BackgroundImageFix" result="shape"/>
<feGaussianBlur stdDeviation="5.40971" result="effect1_foregroundBlur_5_2525"/>
</filter>
<filter id="filter1_f_5_2525" x="49.0181" y="46.8814" width="96.2929" height="78.9818" filterUnits="userSpaceOnUse" color-interpolation-filters="sRGB">
<feFlood flood-opacity="0" result="BackgroundImageFix"/>
<feBlend mode="normal" in="SourceGraphic" in2="BackgroundImageFix" result="shape"/>
<feGaussianBlur stdDeviation="2.70486" result="effect1_foregroundBlur_5_2525"/>
</filter>
<linearGradient id="paint0_linear_5_2525" x1="128.353" y1="-29.1954" x2="128.353" y2="48.8249" gradientUnits="userSpaceOnUse">
<stop offset="0.40004"/>
<stop offset="0.770751" stop-opacity="0"/>
</linearGradient>
<linearGradient id="paint1_linear_5_2525" x1="176.261" y1="196.272" x2="176.275" y2="252.046" gradientUnits="userSpaceOnUse">
<stop stop-opacity="0"/>
<stop offset="0.44519"/>
</linearGradient>
<linearGradient id="paint2_linear_5_2525" x1="52.243" y1="103.558" x2="6.82253" y2="87.4543" gradientUnits="userSpaceOnUse">
<stop offset="0.487821" stop-opacity="0"/>
<stop offset="1"/>
</linearGradient>
<linearGradient id="paint3_linear_5_2525" x1="216.761" y1="109.73" x2="217.402" y2="150.481" gradientUnits="userSpaceOnUse">
<stop stop-opacity="0"/>
<stop offset="1"/>
</linearGradient>
<linearGradient id="paint4_linear_5_2525" x1="48.7702" y1="337.413" x2="48.6779" y2="291.64" gradientUnits="userSpaceOnUse">
<stop stop-opacity="0"/>
<stop offset="0.482933"/>
</linearGradient>
</defs>
</svg>
