<svg width="256" height="256" viewBox="0 0 256 256" fill="none" xmlns="http://www.w3.org/2000/svg">
<metadata>
  <rdf:RDF xmlns:rdf="http://www.w3.org/1999/02/22-rdf-syntax-ns#"
            xmlns:dc="http://purl.org/dc/elements/1.1/">
    <rdf:Description>
      <dc:title>swrpg-online.com art asset</dc:title>
      <dc:creator>Joshua Ziggas</dc:creator>
      <dc:rights>CC BY-NC-SA 4.0 - https://github.com/swrpg-online/art</dc:rights>
    </rdf:Description>
  </rdf:RDF>
</metadata>
<desc>
  wrpg-online.com SWRPG Dice Asset
  Created by: Joshua Ziggas
  Source: https://github.com/swrpg-online/art
  License: CC BY-NC-SA 4.0
</desc><g id="D12-Proficiency-Success-Success">
<g id="Group 2">
<mask id="mask0_5_2786" style="mask-type:luminance" maskUnits="userSpaceOnUse" x="6" y="2" width="244" height="252">
<path id="Shape" d="M114.626 4.34533C123.318 1.52112 132.682 1.52111 141.374 4.34533L189.669 20.0373C198.361 22.8615 205.935 28.365 211.307 35.7589L241.155 76.841C246.527 84.2349 249.421 93.1397 249.421 102.279V153.059C249.421 162.199 246.527 171.103 241.155 178.497L211.307 219.58C205.935 226.973 198.361 232.477 189.669 235.301L141.374 250.993C132.682 253.817 123.318 253.817 114.626 250.993L66.3315 235.301C57.6395 232.477 50.0646 226.973 44.6926 219.58L14.8447 178.497C9.47272 171.103 6.57938 162.199 6.57938 153.059V102.279C6.57938 93.1397 9.47271 84.2349 14.8447 76.841L44.6926 35.7589C50.0646 28.365 57.6394 22.8615 66.3315 20.0373L114.626 4.34533Z" fill="white"/>
</mask>
<g mask="url(#mask0_5_2786)">
<g id="Dice Color">
<g id="Color Component">
<rect width="256" height="256" fill="#E4DC21"/>
</g>
</g>
<g id="Group 4" filter="url(#filter0_f_5_2786)">
<path id="Rectangle 6" d="M50.1003 9.81476L135.445 -6.13379V48.8249H121.26V9.81476L52.8052 23.0787L50.1003 9.81476Z" fill="url(#paint0_linear_5_2786)" fill-opacity="0.15"/>
<rect id="Rectangle 7" x="169.168" y="196.272" width="14.1855" height="78.0203" transform="rotate(-36 169.168 196.272)" fill="url(#paint1_linear_5_2786)" fill-opacity="0.3"/>
<path id="Rectangle 8" d="M-5.07886 91.241L43.0676 14.9641L61.4606 21.4558L18.1174 84.7521L55.2183 96.8069L50.8347 110.298L-5.07886 91.241Z" fill="url(#paint2_linear_5_2786)" fill-opacity="0.25"/>
<rect id="Rectangle 9" x="205.87" y="110.298" width="14.1855" height="78.0203" transform="rotate(-108 205.87 110.298)" fill="url(#paint3_linear_5_2786)" fill-opacity="0.25"/>
<rect id="Rectangle 10" x="41.6775" y="259.392" width="14.1855" height="78.0203" transform="rotate(-144 41.6775 259.392)" fill="url(#paint4_linear_5_2786)" fill-opacity="0.25"/>
<g id="Group 6">
<path id="Vector" d="M173.312 205.927L209.146 252.45L126.5 268.5L46.8542 252.45L82.6876 205.927L173.312 205.927Z" fill="black" fill-opacity="0.35"/>
</g>
<g id="Group 7">
<path id="Vector_2" d="M216.109 108.421L272.06 88.5818L261 175L221.455 244.329L187.851 195.392L216.109 108.421Z" fill="black" fill-opacity="0.4"/>
</g>
<g id="Group 8">
<path id="Vector_3" d="M136.731 38.0622L135.152 -21.2809L210.713 14L267.639 74.9762L210.713 91.8128L136.731 38.0622Z" fill="black" fill-opacity="0.2"/>
</g>
<g id="Group 9">
<path id="Vector_4" d="M45.287 91.813L-11.6395 74.9764L45.287 15.0001L120.847 -21.2808L119.268 38.0623L45.287 91.813Z" fill="black" fill-opacity="0.1"/>
</g>
<g id="Group 10">
<path id="Vector_5" d="M68.1492 195.392L34.5454 244.329L-4 172.5L-16.0601 88.5818L39.8907 108.421L68.1492 195.392Z" fill="black" fill-opacity="0.25"/>
</g>
</g>
</g>
<g id="Symbol B">
<path id="Symbol" fill-rule="evenodd" clip-rule="evenodd" d="M137.173 154.068C136.998 154.112 136.818 154.015 136.758 153.845L130.436 135.967C130.198 135.294 129.224 135.367 129.088 136.067L125.029 157.015C124.985 157.243 124.736 157.365 124.529 157.261L100.319 145.115C99.6324 144.77 98.9724 145.624 99.4787 146.202L116.046 165.12C116.193 165.287 116.148 165.546 115.955 165.655L101.667 173.684C101.074 174.017 101.256 174.915 101.932 174.99L117.285 176.702C117.486 176.724 117.626 176.911 117.591 177.11L114.081 197.069C113.961 197.751 114.797 198.174 115.276 197.674L129.336 182.978C129.469 182.838 129.691 182.834 129.831 182.968L143.134 195.736C143.634 196.217 144.454 195.754 144.302 195.077L140.259 177.113C140.214 176.913 140.349 176.718 140.551 176.689L156.693 174.375C157.354 174.281 157.52 173.403 156.939 173.074L143.833 165.64C143.65 165.536 143.599 165.295 143.725 165.126L154.231 151.07C154.626 150.542 154.139 149.811 153.5 149.972L137.173 154.068ZM142.246 158.948C142.438 158.678 142.182 158.317 141.864 158.409L133.901 160.692C133.71 160.746 133.512 160.632 133.464 160.44L131.251 151.554C131.162 151.198 130.655 151.201 130.57 151.558L127.698 163.665C127.644 163.89 127.389 164.003 127.187 163.89L117.398 158.433C117.056 158.242 116.707 158.671 116.963 158.967L123.944 167.05C124.105 167.237 124.028 167.527 123.796 167.609L114.215 171.002C113.88 171.121 113.914 171.606 114.262 171.676L122.604 173.35C122.796 173.388 122.919 173.577 122.877 173.768L120.583 184.127C120.506 184.476 120.938 184.703 121.181 184.442L129.32 175.691C129.459 175.541 129.696 175.542 129.834 175.692L136.624 183.073C136.867 183.338 137.304 183.106 137.222 182.756L134.972 173.162C134.923 172.95 135.077 172.745 135.295 172.733L145.007 172.218C145.35 172.2 145.464 171.748 145.17 171.569L137.185 166.71C137.012 166.605 136.964 166.374 137.082 166.208L142.246 158.948Z" fill="black"/>
</g>
<g id="Symbol A">
<path id="Symbol_2" fill-rule="evenodd" clip-rule="evenodd" d="M137.173 84.0677C136.998 84.1116 136.818 84.0151 136.758 83.8449L130.436 65.9667C130.198 65.2942 129.224 65.3666 129.088 66.0669L125.029 87.0151C124.985 87.2427 124.736 87.3653 124.529 87.2614L100.319 75.1149C99.6324 74.7704 98.9724 75.6237 99.4787 76.2018L116.046 95.1197C116.193 95.287 116.148 95.5466 115.955 95.6555L101.667 103.684C101.074 104.017 101.256 104.915 101.932 104.99L117.285 106.702C117.486 106.724 117.626 106.911 117.591 107.11L114.081 127.069C113.961 127.751 114.797 128.174 115.276 127.674L129.336 112.978C129.469 112.838 129.691 112.834 129.831 112.968L143.134 125.736C143.634 126.217 144.454 125.754 144.302 125.078L140.259 107.113C140.214 106.914 140.349 106.718 140.551 106.689L156.693 104.375C157.354 104.281 157.52 103.403 156.939 103.074L143.833 95.6401C143.65 95.5361 143.599 95.2949 143.725 95.1261L154.231 81.0698C154.626 80.5422 154.139 79.8115 153.5 79.9718L137.173 84.0677ZM142.246 88.948C142.438 88.6781 142.182 88.3174 141.864 88.4087L133.901 90.6918C133.71 90.7464 133.512 90.6322 133.464 90.4399L131.251 81.5538C131.162 81.1979 130.655 81.2007 130.57 81.5576L127.698 93.6647C127.644 93.8906 127.389 94.0026 127.187 93.8896L117.398 88.4327C117.056 88.2421 116.707 88.671 116.963 88.9672L123.944 97.0504C124.105 97.2369 124.028 97.5269 123.796 97.6091L114.215 101.003C113.88 101.121 113.914 101.606 114.262 101.676L122.604 103.35C122.796 103.388 122.919 103.577 122.877 103.769L120.583 114.128C120.506 114.476 120.938 114.703 121.181 114.442L129.32 105.691C129.459 105.542 129.696 105.542 129.834 105.692L136.624 113.073C136.867 113.338 137.304 113.107 137.222 112.756L134.972 103.163C134.923 102.95 135.077 102.745 135.295 102.733L145.007 102.218C145.35 102.2 145.464 101.748 145.17 101.569L137.185 96.7103C137.012 96.6047 136.964 96.374 137.082 96.2085L142.246 88.948Z" fill="black"/>
</g>
<g id="Shine" filter="url(#filter1_f_5_2786)">
<path d="M62.4925 99.4783C57.4837 104.467 54.5575 109.682 58.5085 120.453C52.2474 110.816 53.9547 100.612 58.5082 95.51C66.6009 86.4423 90.9517 68.8657 103.474 61.4961C113.491 55.6003 126.241 46.7567 139.901 56.9609C124.533 51.2919 117.703 59.2285 110.873 63.1968C102.632 67.985 68.7536 93.2424 62.4925 99.4783Z" fill="white"/>
</g>
</g>
</g>
<defs>
<filter id="filter0_f_5_2786" x="-26.8795" y="-32.1003" width="317.771" height="311.42" filterUnits="userSpaceOnUse" color-interpolation-filters="sRGB">
<feFlood flood-opacity="0" result="BackgroundImageFix"/>
<feBlend mode="normal" in="SourceGraphic" in2="BackgroundImageFix" result="shape"/>
<feGaussianBlur stdDeviation="5.40971" result="effect1_foregroundBlur_5_2786"/>
</filter>
<filter id="filter1_f_5_2786" x="49.0183" y="46.8814" width="96.2928" height="78.9818" filterUnits="userSpaceOnUse" color-interpolation-filters="sRGB">
<feFlood flood-opacity="0" result="BackgroundImageFix"/>
<feBlend mode="normal" in="SourceGraphic" in2="BackgroundImageFix" result="shape"/>
<feGaussianBlur stdDeviation="2.70486" result="effect1_foregroundBlur_5_2786"/>
</filter>
<linearGradient id="paint0_linear_5_2786" x1="128.353" y1="-29.1954" x2="128.353" y2="48.8249" gradientUnits="userSpaceOnUse">
<stop offset="0.40004"/>
<stop offset="0.770751" stop-opacity="0"/>
</linearGradient>
<linearGradient id="paint1_linear_5_2786" x1="176.261" y1="196.272" x2="176.275" y2="252.046" gradientUnits="userSpaceOnUse">
<stop stop-opacity="0"/>
<stop offset="0.44519"/>
</linearGradient>
<linearGradient id="paint2_linear_5_2786" x1="52.243" y1="103.558" x2="6.82259" y2="87.4543" gradientUnits="userSpaceOnUse">
<stop offset="0.487821" stop-opacity="0"/>
<stop offset="1"/>
</linearGradient>
<linearGradient id="paint3_linear_5_2786" x1="216.761" y1="109.73" x2="217.402" y2="150.481" gradientUnits="userSpaceOnUse">
<stop stop-opacity="0"/>
<stop offset="1"/>
</linearGradient>
<linearGradient id="paint4_linear_5_2786" x1="48.7702" y1="337.413" x2="48.6779" y2="291.64" gradientUnits="userSpaceOnUse">
<stop stop-opacity="0"/>
<stop offset="0.482933"/>
</linearGradient>
</defs>
</svg>
