<svg width="256" height="256" viewBox="0 0 256 256" fill="none" xmlns="http://www.w3.org/2000/svg">
<metadata>
  <rdf:RDF xmlns:rdf="http://www.w3.org/1999/02/22-rdf-syntax-ns#"
            xmlns:dc="http://purl.org/dc/elements/1.1/">
    <rdf:Description>
      <dc:title>swrpg-online.com art asset</dc:title>
      <dc:creator>Joshua Ziggas</dc:creator>
      <dc:rights>CC BY-NC-SA 4.0 - https://github.com/swrpg-online/art</dc:rights>
    </rdf:Description>
  </rdf:RDF>
</metadata>
<desc>
  wrpg-online.com SWRPG Dice Asset
  Created by: Joshua Ziggas
  Source: https://github.com/swrpg-online/art
  License: CC BY-NC-SA 4.0
</desc><g id="D12-Proficiency-Advantage-Advantage">
<g id="Group 2">
<mask id="mask0_5_2765" style="mask-type:luminance" maskUnits="userSpaceOnUse" x="6" y="2" width="244" height="252">
<path id="Shape" d="M114.626 4.34533C123.318 1.52112 132.682 1.52111 141.374 4.34533L189.669 20.0373C198.361 22.8615 205.935 28.365 211.307 35.7589L241.155 76.841C246.527 84.2349 249.421 93.1397 249.421 102.279V153.059C249.421 162.199 246.527 171.103 241.155 178.497L211.307 219.58C205.935 226.973 198.361 232.477 189.669 235.301L141.374 250.993C132.682 253.817 123.318 253.817 114.626 250.993L66.3315 235.301C57.6395 232.477 50.0646 226.973 44.6926 219.58L14.8447 178.497C9.47272 171.103 6.57938 162.199 6.57938 153.059V102.279C6.57938 93.1397 9.47271 84.2349 14.8447 76.841L44.6926 35.7589C50.0646 28.365 57.6394 22.8615 66.3315 20.0373L114.626 4.34533Z" fill="white"/>
</mask>
<g mask="url(#mask0_5_2765)">
<g id="Dice Color">
<g id="Color Component">
<rect width="256" height="256" fill="#E4DC21"/>
</g>
</g>
<g id="Group 4" filter="url(#filter0_f_5_2765)">
<path id="Rectangle 6" d="M50.1003 9.81476L135.445 -6.13379V48.8249H121.26V9.81476L52.8052 23.0787L50.1003 9.81476Z" fill="url(#paint0_linear_5_2765)" fill-opacity="0.15"/>
<rect id="Rectangle 7" x="169.168" y="196.272" width="14.1855" height="78.0203" transform="rotate(-36 169.168 196.272)" fill="url(#paint1_linear_5_2765)" fill-opacity="0.3"/>
<path id="Rectangle 8" d="M-5.07898 91.241L43.0675 14.9641L61.4605 21.4558L18.1173 84.7521L55.2182 96.8069L50.8346 110.298L-5.07898 91.241Z" fill="url(#paint2_linear_5_2765)" fill-opacity="0.25"/>
<rect id="Rectangle 9" x="205.87" y="110.298" width="14.1855" height="78.0203" transform="rotate(-108 205.87 110.298)" fill="url(#paint3_linear_5_2765)" fill-opacity="0.25"/>
<rect id="Rectangle 10" x="41.6775" y="259.392" width="14.1855" height="78.0203" transform="rotate(-144 41.6775 259.392)" fill="url(#paint4_linear_5_2765)" fill-opacity="0.25"/>
<g id="Group 6">
<path id="Vector" d="M173.312 205.927L209.146 252.45L126.5 268.5L46.8542 252.45L82.6876 205.927L173.312 205.927Z" fill="black" fill-opacity="0.35"/>
</g>
<g id="Group 7">
<path id="Vector_2" d="M216.109 108.421L272.06 88.5818L261 175L221.455 244.329L187.851 195.392L216.109 108.421Z" fill="black" fill-opacity="0.4"/>
</g>
<g id="Group 8">
<path id="Vector_3" d="M136.731 38.0622L135.152 -21.2809L210.713 14L267.639 74.9762L210.713 91.8128L136.731 38.0622Z" fill="black" fill-opacity="0.2"/>
</g>
<g id="Group 9">
<path id="Vector_4" d="M45.2868 91.813L-11.6397 74.9764L45.2868 15.0001L120.847 -21.2808L119.268 38.0623L45.2868 91.813Z" fill="black" fill-opacity="0.1"/>
</g>
<g id="Group 10">
<path id="Vector_5" d="M68.1491 195.392L34.5453 244.329L-4.00012 172.5L-16.0602 88.5818L39.8906 108.421L68.1491 195.392Z" fill="black" fill-opacity="0.25"/>
</g>
</g>
</g>
<g id="Symbol B">
<g id="Symbol">
<path d="M115.675 160.411C115.916 160.654 115.941 161.037 115.731 161.307C112.548 165.409 111.47 168.852 111.47 172.644C111.47 181.512 119.482 188.545 127.169 191.384C127.705 191.582 128.294 191.582 128.83 191.384C136.517 188.545 144.53 181.512 144.53 172.644C144.53 168.852 143.451 165.409 140.268 161.307C140.059 161.037 140.084 160.654 140.325 160.411C144.356 156.357 149.43 147.739 142.513 140.841C142.03 140.361 142.409 139.53 143.062 139.731C152.267 142.555 161.839 154.076 152.169 169.425C152.021 169.66 152.202 169.961 152.474 169.898C154.409 169.449 157.735 167.871 160.441 164.134C160.831 163.594 161.675 163.827 161.594 164.486C160.964 169.67 157.561 177.638 147.247 180.948C146.969 181.037 146.928 181.404 147.193 181.525C148.762 182.239 151.549 183.071 154.577 182.795C155.197 182.738 155.645 183.455 155.229 183.914C149.321 190.444 138.66 194.3 128 194.3C117.339 194.3 106.679 190.444 100.77 183.914C100.355 183.455 100.803 182.738 101.422 182.795C104.451 183.071 107.237 182.239 108.807 181.525C109.072 181.404 109.03 181.037 108.753 180.948C98.4384 177.638 95.0352 169.67 94.4051 164.486C94.325 163.827 95.1687 163.594 95.559 164.134C98.2641 167.871 101.591 169.449 103.525 169.898C103.797 169.961 103.979 169.66 103.831 169.425C94.1603 154.076 103.733 142.555 112.938 139.731C113.591 139.53 113.969 140.361 113.487 140.841C106.57 147.739 111.644 156.357 115.675 160.411Z" fill="black"/>
<path d="M128 157.551C131.649 157.551 134.607 154.613 134.607 150.989C134.607 147.365 131.649 144.427 128 144.427C124.351 144.427 121.392 147.365 121.392 150.989C121.392 154.613 124.351 157.551 128 157.551Z" fill="black"/>
</g>
</g>
<g id="Symbol A">
<g id="Symbol_2">
<path d="M115.675 90.4111C115.916 90.6536 115.941 91.037 115.731 91.3069C112.548 95.4091 111.47 98.8524 111.47 102.644C111.47 111.512 119.482 118.545 127.169 121.384C127.705 121.582 128.294 121.582 128.83 121.384C136.517 118.545 144.53 111.512 144.53 102.644C144.53 98.8524 143.451 95.4091 140.268 91.3069C140.059 91.037 140.084 90.6536 140.325 90.4111C144.356 86.3571 149.43 77.7388 142.513 70.8415C142.03 70.3606 142.409 69.5303 143.062 69.7306C152.267 72.555 161.839 84.0762 152.169 99.4251C152.021 99.6602 152.202 99.9615 152.474 99.8983C154.409 99.4492 157.735 97.8711 160.441 94.1337C160.831 93.5946 161.675 93.8269 161.594 94.4862C160.964 99.6699 157.561 107.638 147.247 110.948C146.969 111.037 146.928 111.404 147.193 111.525C148.762 112.239 151.549 113.071 154.577 112.795C155.197 112.738 155.645 113.455 155.229 113.914C149.321 120.444 138.66 124.3 128 124.3C117.339 124.3 106.679 120.444 100.77 113.914C100.355 113.455 100.803 112.738 101.422 112.795C104.451 113.071 107.237 112.239 108.807 111.525C109.072 111.404 109.03 111.037 108.753 110.948C98.4384 107.638 95.0352 99.6699 94.4051 94.4862C94.325 93.8269 95.1687 93.5946 95.559 94.1337C98.2641 97.8711 101.591 99.4492 103.525 99.8983C103.797 99.9615 103.979 99.6602 103.831 99.4251C94.1603 84.0762 103.733 72.555 112.938 69.7306C113.591 69.5303 113.969 70.3606 113.487 70.8415C106.57 77.7388 111.644 86.3571 115.675 90.4111Z" fill="black"/>
<path d="M128 87.5512C131.649 87.5512 134.607 84.6131 134.607 80.9889C134.607 77.3646 131.649 74.4266 128 74.4266C124.351 74.4266 121.392 77.3646 121.392 80.9889C121.392 84.6131 124.351 87.5512 128 87.5512Z" fill="black"/>
</g>
</g>
<g id="Shine" filter="url(#filter1_f_5_2765)">
<path d="M62.4925 99.4783C57.4837 104.467 54.5575 109.682 58.5085 120.453C52.2474 110.816 53.9547 100.612 58.5082 95.51C66.6009 86.4423 90.9517 68.8657 103.474 61.4961C113.491 55.6003 126.241 46.7567 139.901 56.9609C124.533 51.2919 117.703 59.2285 110.873 63.1968C102.632 67.985 68.7536 93.2424 62.4925 99.4783Z" fill="white"/>
</g>
</g>
</g>
<defs>
<filter id="filter0_f_5_2765" x="-26.8796" y="-32.1003" width="317.771" height="311.42" filterUnits="userSpaceOnUse" color-interpolation-filters="sRGB">
<feFlood flood-opacity="0" result="BackgroundImageFix"/>
<feBlend mode="normal" in="SourceGraphic" in2="BackgroundImageFix" result="shape"/>
<feGaussianBlur stdDeviation="5.40971" result="effect1_foregroundBlur_5_2765"/>
</filter>
<filter id="filter1_f_5_2765" x="49.0183" y="46.8814" width="96.2928" height="78.9818" filterUnits="userSpaceOnUse" color-interpolation-filters="sRGB">
<feFlood flood-opacity="0" result="BackgroundImageFix"/>
<feBlend mode="normal" in="SourceGraphic" in2="BackgroundImageFix" result="shape"/>
<feGaussianBlur stdDeviation="2.70486" result="effect1_foregroundBlur_5_2765"/>
</filter>
<linearGradient id="paint0_linear_5_2765" x1="128.353" y1="-29.1954" x2="128.353" y2="48.8249" gradientUnits="userSpaceOnUse">
<stop offset="0.40004"/>
<stop offset="0.770751" stop-opacity="0"/>
</linearGradient>
<linearGradient id="paint1_linear_5_2765" x1="176.261" y1="196.272" x2="176.275" y2="252.046" gradientUnits="userSpaceOnUse">
<stop stop-opacity="0"/>
<stop offset="0.44519"/>
</linearGradient>
<linearGradient id="paint2_linear_5_2765" x1="52.2429" y1="103.558" x2="6.82247" y2="87.4543" gradientUnits="userSpaceOnUse">
<stop offset="0.487821" stop-opacity="0"/>
<stop offset="1"/>
</linearGradient>
<linearGradient id="paint3_linear_5_2765" x1="216.761" y1="109.73" x2="217.402" y2="150.481" gradientUnits="userSpaceOnUse">
<stop stop-opacity="0"/>
<stop offset="1"/>
</linearGradient>
<linearGradient id="paint4_linear_5_2765" x1="48.7702" y1="337.413" x2="48.6779" y2="291.64" gradientUnits="userSpaceOnUse">
<stop stop-opacity="0"/>
<stop offset="0.482933"/>
</linearGradient>
</defs>
</svg>
