<svg width="256" height="256" viewBox="0 0 256 256" fill="none" xmlns="http://www.w3.org/2000/svg">
<metadata>
  <rdf:RDF xmlns:rdf="http://www.w3.org/1999/02/22-rdf-syntax-ns#"
            xmlns:dc="http://purl.org/dc/elements/1.1/">
    <rdf:Description>
      <dc:title>swrpg-online.com art asset</dc:title>
      <dc:creator>Joshua Ziggas</dc:creator>
      <dc:rights>CC BY-NC-SA 4.0 - https://github.com/swrpg-online/art</dc:rights>
    </rdf:Description>
  </rdf:RDF>
</metadata>
<desc>
  wrpg-online.com SWRPG Dice Asset
  Created by: Joshua Ziggas
  Source: https://github.com/swrpg-online/art
  License: CC BY-NC-SA 4.0
</desc><g id="D12-Proficiency-Advantage">
<g id="Group 2">
<mask id="mask0_5_2664" style="mask-type:luminance" maskUnits="userSpaceOnUse" x="6" y="2" width="244" height="252">
<path id="Shape" d="M114.626 4.34533C123.318 1.52112 132.682 1.52111 141.374 4.34533L189.669 20.0373C198.361 22.8615 205.935 28.365 211.307 35.7589L241.155 76.841C246.527 84.2349 249.421 93.1397 249.421 102.279V153.059C249.421 162.199 246.527 171.103 241.155 178.497L211.307 219.58C205.935 226.973 198.361 232.477 189.669 235.301L141.374 250.993C132.682 253.817 123.318 253.817 114.626 250.993L66.3315 235.301C57.6395 232.477 50.0646 226.973 44.6926 219.58L14.8447 178.497C9.47272 171.103 6.57938 162.199 6.57938 153.059V102.279C6.57938 93.1397 9.47271 84.2349 14.8447 76.841L44.6926 35.7589C50.0646 28.365 57.6394 22.8615 66.3315 20.0373L114.626 4.34533Z" fill="white"/>
</mask>
<g mask="url(#mask0_5_2664)">
<g id="Dice Color">
<g id="Color Component">
<rect width="256" height="256" fill="#E4DC21"/>
</g>
</g>
<g id="Group 4" filter="url(#filter0_f_5_2664)">
<path id="Rectangle 6" d="M50.1005 9.81476L135.446 -6.13379V48.8249H121.26V9.81476L52.8053 23.0787L50.1005 9.81476Z" fill="url(#paint0_linear_5_2664)" fill-opacity="0.15"/>
<rect id="Rectangle 7" x="169.169" y="196.272" width="14.1855" height="78.0203" transform="rotate(-36 169.169 196.272)" fill="url(#paint1_linear_5_2664)" fill-opacity="0.3"/>
<path id="Rectangle 8" d="M-5.0788 91.241L43.0676 14.9641L61.4607 21.4558L18.1175 84.7521L55.2183 96.8069L50.8348 110.298L-5.0788 91.241Z" fill="url(#paint2_linear_5_2664)" fill-opacity="0.25"/>
<rect id="Rectangle 9" x="205.87" y="110.298" width="14.1855" height="78.0203" transform="rotate(-108 205.87 110.298)" fill="url(#paint3_linear_5_2664)" fill-opacity="0.25"/>
<rect id="Rectangle 10" x="41.6776" y="259.392" width="14.1855" height="78.0203" transform="rotate(-144 41.6776 259.392)" fill="url(#paint4_linear_5_2664)" fill-opacity="0.25"/>
<g id="Group 6">
<path id="Vector" d="M173.312 205.927L209.146 252.45L126.5 268.5L46.8544 252.45L82.6877 205.927L173.312 205.927Z" fill="black" fill-opacity="0.35"/>
</g>
<g id="Group 7">
<path id="Vector_2" d="M216.11 108.421L272.06 88.5818L261 175L221.455 244.329L187.851 195.392L216.11 108.421Z" fill="black" fill-opacity="0.4"/>
</g>
<g id="Group 8">
<path id="Vector_3" d="M136.731 38.0622L135.152 -21.2809L210.713 14L267.639 74.9762L210.713 91.8128L136.731 38.0622Z" fill="black" fill-opacity="0.2"/>
</g>
<g id="Group 9">
<path id="Vector_4" d="M45.287 91.813L-11.6395 74.9764L45.287 15.0001L120.847 -21.2808L119.268 38.0623L45.287 91.813Z" fill="black" fill-opacity="0.1"/>
</g>
<g id="Group 10">
<path id="Vector_5" d="M68.1492 195.392L34.5454 244.329L-4 172.5L-16.0601 88.5818L39.8907 108.421L68.1492 195.392Z" fill="black" fill-opacity="0.25"/>
</g>
</g>
</g>
<g id="Symbol A">
<g id="Symbol">
<path d="M107.927 124.269C108.32 124.664 108.361 125.289 108.02 125.728C102.836 132.409 101.079 138.017 101.079 144.192C101.079 158.633 114.129 170.088 126.648 174.712C127.52 175.034 128.479 175.034 129.352 174.712C141.871 170.088 154.92 158.633 154.92 144.192C154.92 138.017 153.164 132.409 147.98 125.728C147.639 125.289 147.68 124.664 148.072 124.269C154.637 117.667 162.9 103.632 151.635 92.399C150.85 91.6158 151.466 90.2636 152.529 90.5898C167.52 95.1895 183.11 113.953 167.361 138.949C167.12 139.332 167.416 139.823 167.858 139.72C171.009 138.989 176.426 136.419 180.832 130.332C181.468 129.454 182.842 129.832 182.711 130.906C181.685 139.348 176.143 152.325 159.345 157.715C158.893 157.86 158.825 158.459 159.257 158.655C161.813 159.818 166.351 161.172 171.283 160.723C172.292 160.631 173.022 161.798 172.345 162.546C162.722 173.18 145.361 179.46 128 179.46C110.639 179.46 93.2773 173.18 83.6548 162.546C82.9775 161.798 83.7077 160.631 84.7165 160.723C89.6484 161.172 94.1869 159.818 96.7427 158.655C97.1743 158.459 97.1062 157.86 96.6544 157.715C79.857 152.325 74.3147 139.348 73.2885 130.906C73.158 129.832 74.532 129.454 75.1676 130.332C79.5732 136.419 84.9907 138.989 88.1411 139.72C88.5841 139.823 88.88 139.332 88.6387 138.949C72.8897 113.953 88.4794 95.1895 103.47 90.5898C104.534 90.2636 105.15 91.6158 104.364 92.399C93.0994 103.632 101.363 117.667 107.927 124.269Z" fill="black"/>
<path d="M128 119.612C133.943 119.612 138.76 114.827 138.76 108.925C138.76 103.022 133.943 98.2375 128 98.2375C122.057 98.2375 117.239 103.022 117.239 108.925C117.239 114.827 122.057 119.612 128 119.612Z" fill="black"/>
</g>
</g>
<g id="Shine" filter="url(#filter1_f_5_2664)">
<path d="M62.4925 99.4783C57.4837 104.467 54.5575 109.682 58.5084 120.453C52.2473 110.816 53.9547 100.612 58.5082 95.51C66.6008 86.4423 90.9517 68.8657 103.474 61.4961C113.491 55.6003 126.241 46.7567 139.901 56.9609C124.533 51.2919 117.703 59.2285 110.873 63.1968C102.632 67.985 68.7535 93.2424 62.4925 99.4783Z" fill="white"/>
</g>
</g>
</g>
<defs>
<filter id="filter0_f_5_2664" x="-26.8795" y="-32.1003" width="317.771" height="311.42" filterUnits="userSpaceOnUse" color-interpolation-filters="sRGB">
<feFlood flood-opacity="0" result="BackgroundImageFix"/>
<feBlend mode="normal" in="SourceGraphic" in2="BackgroundImageFix" result="shape"/>
<feGaussianBlur stdDeviation="5.40971" result="effect1_foregroundBlur_5_2664"/>
</filter>
<filter id="filter1_f_5_2664" x="49.0181" y="46.8814" width="96.2929" height="78.9818" filterUnits="userSpaceOnUse" color-interpolation-filters="sRGB">
<feFlood flood-opacity="0" result="BackgroundImageFix"/>
<feBlend mode="normal" in="SourceGraphic" in2="BackgroundImageFix" result="shape"/>
<feGaussianBlur stdDeviation="2.70486" result="effect1_foregroundBlur_5_2664"/>
</filter>
<linearGradient id="paint0_linear_5_2664" x1="128.353" y1="-29.1954" x2="128.353" y2="48.8249" gradientUnits="userSpaceOnUse">
<stop offset="0.40004"/>
<stop offset="0.770751" stop-opacity="0"/>
</linearGradient>
<linearGradient id="paint1_linear_5_2664" x1="176.261" y1="196.272" x2="176.275" y2="252.046" gradientUnits="userSpaceOnUse">
<stop stop-opacity="0"/>
<stop offset="0.44519"/>
</linearGradient>
<linearGradient id="paint2_linear_5_2664" x1="52.2431" y1="103.558" x2="6.82265" y2="87.4543" gradientUnits="userSpaceOnUse">
<stop offset="0.487821" stop-opacity="0"/>
<stop offset="1"/>
</linearGradient>
<linearGradient id="paint3_linear_5_2664" x1="216.761" y1="109.73" x2="217.403" y2="150.481" gradientUnits="userSpaceOnUse">
<stop stop-opacity="0"/>
<stop offset="1"/>
</linearGradient>
<linearGradient id="paint4_linear_5_2664" x1="48.7704" y1="337.413" x2="48.678" y2="291.64" gradientUnits="userSpaceOnUse">
<stop stop-opacity="0"/>
<stop offset="0.482933"/>
</linearGradient>
</defs>
</svg>
