<svg width="256" height="256" viewBox="0 0 256 256" fill="none" xmlns="http://www.w3.org/2000/svg">
<metadata>
  <rdf:RDF xmlns:rdf="http://www.w3.org/1999/02/22-rdf-syntax-ns#"
            xmlns:dc="http://purl.org/dc/elements/1.1/">
    <rdf:Description>
      <dc:title>swrpg-online.com art asset</dc:title>
      <dc:creator>Joshua Ziggas</dc:creator>
      <dc:rights>CC BY-NC-SA 4.0 - https://github.com/swrpg-online/art</dc:rights>
    </rdf:Description>
  </rdf:RDF>
</metadata>
<desc>
  wrpg-online.com SWRPG Dice Asset
  Created by: Joshua Ziggas
  Source: https://github.com/swrpg-online/art
  License: CC BY-NC-SA 4.0
</desc><g id="D12-Challenge-Threat-Failure">
<g id="Group 2">
<mask id="mask0_5_3009" style="mask-type:luminance" maskUnits="userSpaceOnUse" x="6" y="2" width="244" height="252">
<path id="Shape" d="M114.626 4.34533C123.318 1.52112 132.682 1.52111 141.374 4.34533L189.669 20.0373C198.361 22.8615 205.935 28.365 211.307 35.7589L241.155 76.841C246.527 84.2349 249.421 93.1397 249.421 102.279V153.059C249.421 162.199 246.527 171.103 241.155 178.497L211.307 219.58C205.935 226.973 198.361 232.477 189.669 235.301L141.374 250.993C132.682 253.817 123.318 253.817 114.626 250.993L66.3315 235.301C57.6395 232.477 50.0646 226.973 44.6926 219.58L14.8447 178.497C9.47272 171.103 6.57938 162.199 6.57938 153.059V102.279C6.57938 93.1397 9.47271 84.2349 14.8447 76.841L44.6926 35.7589C50.0646 28.365 57.6394 22.8615 66.3315 20.0373L114.626 4.34533Z" fill="white"/>
</mask>
<g mask="url(#mask0_5_3009)">
<g id="Dice Color">
<g id="Color Component">
<rect width="256" height="256" fill="#F14422"/>
</g>
</g>
<g id="Group 4" filter="url(#filter0_f_5_3009)">
<path id="Rectangle 6" d="M50.1003 9.81479L135.445 -6.13376V48.8249H121.26V9.81479L52.8052 23.0787L50.1003 9.81479Z" fill="url(#paint0_linear_5_3009)" fill-opacity="0.15"/>
<rect id="Rectangle 7" x="169.168" y="196.272" width="14.1855" height="78.0203" transform="rotate(-36 169.168 196.272)" fill="url(#paint1_linear_5_3009)" fill-opacity="0.3"/>
<path id="Rectangle 8" d="M-5.07886 91.2411L43.0676 14.9641L61.4606 21.4558L18.1174 84.7521L55.2183 96.8069L50.8347 110.298L-5.07886 91.2411Z" fill="url(#paint2_linear_5_3009)" fill-opacity="0.25"/>
<rect id="Rectangle 9" x="205.87" y="110.298" width="14.1855" height="78.0203" transform="rotate(-108 205.87 110.298)" fill="url(#paint3_linear_5_3009)" fill-opacity="0.25"/>
<rect id="Rectangle 10" x="41.6775" y="259.392" width="14.1855" height="78.0203" transform="rotate(-144 41.6775 259.392)" fill="url(#paint4_linear_5_3009)" fill-opacity="0.25"/>
<g id="Group 6">
<path id="Vector" d="M173.312 205.927L209.146 252.45L126.5 268.5L46.8542 252.45L82.6876 205.927L173.312 205.927Z" fill="black" fill-opacity="0.35"/>
</g>
<g id="Group 7">
<path id="Vector_2" d="M216.109 108.421L272.06 88.5818L261 175L221.455 244.329L187.851 195.392L216.109 108.421Z" fill="black" fill-opacity="0.4"/>
</g>
<g id="Group 8">
<path id="Vector_3" d="M136.731 38.0623L135.152 -21.2808L210.713 14L267.639 74.9763L210.713 91.8128L136.731 38.0623Z" fill="black" fill-opacity="0.2"/>
</g>
<g id="Group 9">
<path id="Vector_4" d="M45.287 91.813L-11.6395 74.9764L45.287 15L120.847 -21.2808L119.268 38.0622L45.287 91.813Z" fill="black" fill-opacity="0.1"/>
</g>
<g id="Group 10">
<path id="Vector_5" d="M68.1492 195.392L34.5454 244.329L-4 172.5L-16.0601 88.5818L39.8907 108.421L68.1492 195.392Z" fill="black" fill-opacity="0.25"/>
</g>
</g>
</g>
<g id="Symbol B">
<path id="Symbol" fill-rule="evenodd" clip-rule="evenodd" d="M101.753 150.949C101.403 150.819 101.009 150.953 100.814 151.273C100.611 151.605 100.685 152.036 100.984 152.285C107.693 157.858 113.544 164.7 118.156 172.708C122.769 180.718 125.753 189.224 127.212 197.838C127.277 198.219 127.605 198.5 127.991 198.5C128.376 198.5 128.704 198.219 128.769 197.838C130.228 189.223 133.212 180.718 137.825 172.708C142.442 164.691 148.302 157.842 155.02 152.266C155.308 152.027 155.385 151.614 155.198 151.289C155.011 150.962 154.615 150.821 154.263 150.952C146.088 153.996 137.244 155.66 128.012 155.66C118.777 155.66 109.93 153.995 101.753 150.949Z" fill="white"/>
</g>
<g id="Symbol A">
<path id="Symbol_2" fill-rule="evenodd" clip-rule="evenodd" d="M140.312 80.9726C140.132 81.2851 140.134 81.6706 140.317 81.9813L147.291 93.7823C147.471 94.0868 147.798 94.2736 148.152 94.2736H155.235C156.004 94.2736 156.485 93.4402 156.101 92.7736L145.666 74.7C145.281 74.0333 144.319 74.0333 143.934 74.7L140.312 80.9726ZM139.084 71.9C139.469 71.2333 138.988 70.4 138.218 70.4L117.348 70.4C116.579 70.4 116.097 71.2333 116.482 71.9L120.22 78.3736C120.399 78.683 120.729 78.8736 121.086 78.8736H134.48C134.838 78.8736 135.168 78.683 135.346 78.3736L139.084 71.9ZM109.901 74.7C110.285 74.0333 111.248 74.0333 111.633 74.7L115.254 80.9726C115.435 81.2851 115.433 81.6706 115.249 81.9813L108.276 93.7823C108.096 94.0868 107.768 94.2736 107.415 94.2736H100.332C99.562 94.2736 99.0809 93.4402 99.4658 92.7736L109.901 74.7ZM100.332 99.8735C99.562 99.8735 99.0809 100.707 99.4658 101.374L109.901 119.447C110.285 120.114 111.248 120.114 111.633 119.447L115.254 113.175C115.435 112.862 115.433 112.476 115.249 112.166L108.276 100.365C108.096 100.06 107.768 99.8735 107.415 99.8735H100.332ZM116.482 122.247C116.097 122.914 116.579 123.747 117.348 123.747H138.218C138.988 123.747 139.469 122.914 139.084 122.247L135.346 115.774C135.168 115.464 134.838 115.274 134.48 115.274H121.086C120.729 115.274 120.399 115.464 120.22 115.774L116.482 122.247ZM143.934 119.447C144.319 120.114 145.281 120.114 145.666 119.447L156.101 101.374C156.485 100.707 156.004 99.8735 155.235 99.8735H148.152C147.798 99.8735 147.471 100.06 147.291 100.365L140.317 112.166C140.134 112.476 140.132 112.862 140.312 113.175L143.934 119.447ZM113.136 97.5823C112.951 97.2685 112.951 96.8786 113.136 96.5648L119.991 84.9648C120.171 84.6604 120.498 84.4736 120.852 84.4736L134.715 84.4736C135.068 84.4736 135.396 84.6604 135.576 84.9648L142.43 96.5648C142.616 96.8786 142.616 97.2685 142.43 97.5823L135.576 109.182C135.396 109.487 135.068 109.674 134.715 109.674H120.852C120.498 109.674 120.171 109.487 119.991 109.182L113.136 97.5823ZM135.874 96.5591C136.064 96.8757 136.064 97.2714 135.874 97.588L132.274 103.588C132.094 103.889 131.768 104.074 131.417 104.074H124.149C123.798 104.074 123.473 103.889 123.292 103.588L119.692 97.588C119.502 97.2714 119.502 96.8757 119.692 96.5591L123.292 90.5591C123.473 90.2579 123.798 90.0736 124.149 90.0736H131.417C131.768 90.0736 132.094 90.2579 132.274 90.5591L135.874 96.5591Z" fill="white"/>
</g>
<g id="Shine" filter="url(#filter1_f_5_3009)">
<path d="M62.4925 99.4783C57.4837 104.467 54.5575 109.682 58.5085 120.454C52.2474 110.816 53.9547 100.612 58.5082 95.51C66.6009 86.4423 90.9517 68.8658 103.474 61.4961C113.491 55.6003 126.241 46.7567 139.901 56.9609C124.533 51.2919 117.703 59.2285 110.873 63.1968C102.632 67.9851 68.7536 93.2424 62.4925 99.4783Z" fill="white"/>
</g>
</g>
</g>
<defs>
<filter id="filter0_f_5_3009" x="-26.8795" y="-32.1003" width="317.771" height="311.42" filterUnits="userSpaceOnUse" color-interpolation-filters="sRGB">
<feFlood flood-opacity="0" result="BackgroundImageFix"/>
<feBlend mode="normal" in="SourceGraphic" in2="BackgroundImageFix" result="shape"/>
<feGaussianBlur stdDeviation="5.40971" result="effect1_foregroundBlur_5_3009"/>
</filter>
<filter id="filter1_f_5_3009" x="49.0183" y="46.8814" width="96.2928" height="78.9818" filterUnits="userSpaceOnUse" color-interpolation-filters="sRGB">
<feFlood flood-opacity="0" result="BackgroundImageFix"/>
<feBlend mode="normal" in="SourceGraphic" in2="BackgroundImageFix" result="shape"/>
<feGaussianBlur stdDeviation="2.70486" result="effect1_foregroundBlur_5_3009"/>
</filter>
<linearGradient id="paint0_linear_5_3009" x1="128.353" y1="-29.1954" x2="128.353" y2="48.825" gradientUnits="userSpaceOnUse">
<stop offset="0.40004"/>
<stop offset="0.770751" stop-opacity="0"/>
</linearGradient>
<linearGradient id="paint1_linear_5_3009" x1="176.261" y1="196.272" x2="176.275" y2="252.046" gradientUnits="userSpaceOnUse">
<stop stop-opacity="0"/>
<stop offset="0.44519"/>
</linearGradient>
<linearGradient id="paint2_linear_5_3009" x1="52.243" y1="103.558" x2="6.82259" y2="87.4543" gradientUnits="userSpaceOnUse">
<stop offset="0.487821" stop-opacity="0"/>
<stop offset="1"/>
</linearGradient>
<linearGradient id="paint3_linear_5_3009" x1="216.761" y1="109.73" x2="217.402" y2="150.481" gradientUnits="userSpaceOnUse">
<stop stop-opacity="0"/>
<stop offset="1"/>
</linearGradient>
<linearGradient id="paint4_linear_5_3009" x1="48.7702" y1="337.413" x2="48.6779" y2="291.64" gradientUnits="userSpaceOnUse">
<stop stop-opacity="0"/>
<stop offset="0.482933"/>
</linearGradient>
</defs>
</svg>
