<svg width="256" height="256" viewBox="0 0 256 256" fill="none" xmlns="http://www.w3.org/2000/svg">
<metadata>
  <rdf:RDF xmlns:rdf="http://www.w3.org/1999/02/22-rdf-syntax-ns#"
            xmlns:dc="http://purl.org/dc/elements/1.1/">
    <rdf:Description>
      <dc:title>swrpg-online.com art asset</dc:title>
      <dc:creator>Joshua Ziggas</dc:creator>
      <dc:rights>CC BY-NC-SA 4.0 - https://github.com/swrpg-online/art</dc:rights>
    </rdf:Description>
  </rdf:RDF>
</metadata>
<desc>
  wrpg-online.com SWRPG Dice Asset
  Created by: Joshua Ziggas
  Source: https://github.com/swrpg-online/art
  License: CC BY-NC-SA 4.0
</desc><g id="D12-Proficiency-Success">
<g id="Group 2">
<mask id="mask0_5_2706" style="mask-type:luminance" maskUnits="userSpaceOnUse" x="6" y="2" width="244" height="252">
<path id="Shape" d="M114.626 4.34533C123.318 1.52112 132.682 1.52111 141.374 4.34533L189.669 20.0373C198.361 22.8615 205.935 28.365 211.307 35.7589L241.155 76.841C246.527 84.2349 249.421 93.1397 249.421 102.279V153.059C249.421 162.199 246.527 171.103 241.155 178.497L211.307 219.58C205.935 226.973 198.361 232.477 189.669 235.301L141.374 250.993C132.682 253.817 123.318 253.817 114.626 250.993L66.3315 235.301C57.6395 232.477 50.0646 226.973 44.6926 219.58L14.8447 178.497C9.47272 171.103 6.57938 162.199 6.57938 153.059V102.279C6.57938 93.1397 9.47271 84.2349 14.8447 76.841L44.6926 35.7589C50.0646 28.365 57.6394 22.8615 66.3315 20.0373L114.626 4.34533Z" fill="white"/>
</mask>
<g mask="url(#mask0_5_2706)">
<g id="Dice Color">
<g id="Color Component">
<rect width="256" height="256" fill="#E4DC21"/>
</g>
</g>
<g id="Group 4" filter="url(#filter0_f_5_2706)">
<path id="Rectangle 6" d="M50.1005 9.81476L135.446 -6.13379V48.8249H121.26V9.81476L52.8053 23.0787L50.1005 9.81476Z" fill="url(#paint0_linear_5_2706)" fill-opacity="0.15"/>
<rect id="Rectangle 7" x="169.168" y="196.272" width="14.1855" height="78.0203" transform="rotate(-36 169.168 196.272)" fill="url(#paint1_linear_5_2706)" fill-opacity="0.3"/>
<path id="Rectangle 8" d="M-5.07886 91.241L43.0676 14.9641L61.4606 21.4558L18.1174 84.7521L55.2183 96.8069L50.8347 110.298L-5.07886 91.241Z" fill="url(#paint2_linear_5_2706)" fill-opacity="0.25"/>
<rect id="Rectangle 9" x="205.87" y="110.298" width="14.1855" height="78.0203" transform="rotate(-108 205.87 110.298)" fill="url(#paint3_linear_5_2706)" fill-opacity="0.25"/>
<rect id="Rectangle 10" x="41.6776" y="259.392" width="14.1855" height="78.0203" transform="rotate(-144 41.6776 259.392)" fill="url(#paint4_linear_5_2706)" fill-opacity="0.25"/>
<g id="Group 6">
<path id="Vector" d="M173.312 205.927L209.146 252.45L126.5 268.5L46.8544 252.45L82.6877 205.927L173.312 205.927Z" fill="black" fill-opacity="0.35"/>
</g>
<g id="Group 7">
<path id="Vector_2" d="M216.11 108.421L272.06 88.5818L261 175L221.455 244.329L187.851 195.392L216.11 108.421Z" fill="black" fill-opacity="0.4"/>
</g>
<g id="Group 8">
<path id="Vector_3" d="M136.731 38.0622L135.152 -21.2809L210.713 14L267.639 74.9762L210.713 91.8128L136.731 38.0622Z" fill="black" fill-opacity="0.2"/>
</g>
<g id="Group 9">
<path id="Vector_4" d="M45.287 91.813L-11.6395 74.9764L45.287 15.0001L120.847 -21.2808L119.268 38.0623L45.287 91.813Z" fill="black" fill-opacity="0.1"/>
</g>
<g id="Group 10">
<path id="Vector_5" d="M68.1492 195.392L34.5454 244.329L-4 172.5L-16.0601 88.5818L39.8907 108.421L68.1492 195.392Z" fill="black" fill-opacity="0.25"/>
</g>
</g>
</g>
<g id="Symbol A">
<path id="Symbol" fill-rule="evenodd" clip-rule="evenodd" d="M142.939 113.939C142.654 114.01 142.361 113.853 142.263 113.576L131.967 84.4601C131.579 83.3649 129.994 83.4828 129.773 84.6233L123.162 118.739C123.09 119.11 122.684 119.309 122.347 119.14L82.9199 99.3586C81.8014 98.7975 80.7266 100.187 81.551 101.129L108.533 131.938C108.771 132.21 108.699 132.633 108.383 132.81L85.1146 145.886C84.1491 146.428 84.4461 147.89 85.5467 148.013L110.55 150.8C110.877 150.837 111.105 151.141 111.048 151.465L105.332 183.97C105.136 185.08 106.499 185.77 107.278 184.955L130.175 161.022C130.393 160.794 130.754 160.786 130.982 161.005L152.647 181.799C153.462 182.582 154.796 181.829 154.548 180.726L147.965 151.469C147.892 151.145 148.111 150.827 148.44 150.78L174.729 147.011C175.805 146.857 176.076 145.428 175.13 144.891L153.785 132.785C153.487 132.616 153.404 132.223 153.61 131.948L170.72 109.057C171.362 108.197 170.57 107.007 169.529 107.268L142.939 113.939ZM151.2 121.887C151.513 121.447 151.097 120.86 150.579 121.008L137.61 124.727C137.299 124.816 136.977 124.63 136.899 124.316L133.294 109.845C133.149 109.265 132.324 109.27 132.186 109.851L127.508 129.568C127.42 129.936 127.006 130.119 126.676 129.935L110.734 121.048C110.177 120.737 109.608 121.436 110.025 121.918L121.395 135.082C121.657 135.386 121.532 135.858 121.154 135.992L105.549 141.518C105.004 141.712 105.06 142.501 105.628 142.615L119.213 145.341C119.526 145.404 119.726 145.711 119.657 146.023L115.921 162.893C115.795 163.461 116.499 163.83 116.895 163.405L130.15 149.154C130.376 148.911 130.762 148.912 130.987 149.156L142.044 161.176C142.441 161.607 143.152 161.231 143.019 160.66L139.355 145.036C139.274 144.691 139.525 144.356 139.88 144.337L155.696 143.498C156.256 143.468 156.441 142.733 155.963 142.442L142.959 134.528C142.676 134.356 142.599 133.981 142.791 133.711L151.2 121.887Z" fill="black"/>
</g>
<g id="Shine" filter="url(#filter1_f_5_2706)">
<path d="M62.4925 99.4783C57.4837 104.467 54.5575 109.682 58.5085 120.453C52.2474 110.816 53.9547 100.612 58.5082 95.51C66.6009 86.4423 90.9517 68.8657 103.474 61.4961C113.491 55.6003 126.241 46.7567 139.901 56.9609C124.533 51.2919 117.703 59.2285 110.873 63.1968C102.632 67.985 68.7536 93.2424 62.4925 99.4783Z" fill="white"/>
</g>
</g>
</g>
<defs>
<filter id="filter0_f_5_2706" x="-26.8795" y="-32.1003" width="317.771" height="311.42" filterUnits="userSpaceOnUse" color-interpolation-filters="sRGB">
<feFlood flood-opacity="0" result="BackgroundImageFix"/>
<feBlend mode="normal" in="SourceGraphic" in2="BackgroundImageFix" result="shape"/>
<feGaussianBlur stdDeviation="5.40971" result="effect1_foregroundBlur_5_2706"/>
</filter>
<filter id="filter1_f_5_2706" x="49.0183" y="46.8814" width="96.2928" height="78.9818" filterUnits="userSpaceOnUse" color-interpolation-filters="sRGB">
<feFlood flood-opacity="0" result="BackgroundImageFix"/>
<feBlend mode="normal" in="SourceGraphic" in2="BackgroundImageFix" result="shape"/>
<feGaussianBlur stdDeviation="2.70486" result="effect1_foregroundBlur_5_2706"/>
</filter>
<linearGradient id="paint0_linear_5_2706" x1="128.353" y1="-29.1954" x2="128.353" y2="48.8249" gradientUnits="userSpaceOnUse">
<stop offset="0.40004"/>
<stop offset="0.770751" stop-opacity="0"/>
</linearGradient>
<linearGradient id="paint1_linear_5_2706" x1="176.261" y1="196.272" x2="176.275" y2="252.046" gradientUnits="userSpaceOnUse">
<stop stop-opacity="0"/>
<stop offset="0.44519"/>
</linearGradient>
<linearGradient id="paint2_linear_5_2706" x1="52.243" y1="103.558" x2="6.82259" y2="87.4543" gradientUnits="userSpaceOnUse">
<stop offset="0.487821" stop-opacity="0"/>
<stop offset="1"/>
</linearGradient>
<linearGradient id="paint3_linear_5_2706" x1="216.761" y1="109.73" x2="217.403" y2="150.481" gradientUnits="userSpaceOnUse">
<stop stop-opacity="0"/>
<stop offset="1"/>
</linearGradient>
<linearGradient id="paint4_linear_5_2706" x1="48.7704" y1="337.413" x2="48.678" y2="291.64" gradientUnits="userSpaceOnUse">
<stop stop-opacity="0"/>
<stop offset="0.482933"/>
</linearGradient>
</defs>
</svg>
