<svg width="256" height="256" viewBox="0 0 256 256" fill="none" xmlns="http://www.w3.org/2000/svg">
<metadata>
  <rdf:RDF xmlns:rdf="http://www.w3.org/1999/02/22-rdf-syntax-ns#"
            xmlns:dc="http://purl.org/dc/elements/1.1/">
    <rdf:Description>
      <dc:title>swrpg-online.com art asset</dc:title>
      <dc:creator>Joshua Ziggas</dc:creator>
      <dc:rights>CC BY-NC-SA 4.0 - https://github.com/swrpg-online/art</dc:rights>
    </rdf:Description>
  </rdf:RDF>
</metadata>
<desc>
  wrpg-online.com SWRPG Dice Asset
  Created by: Joshua Ziggas
  Source: https://github.com/swrpg-online/art
  License: CC BY-NC-SA 4.0
</desc><g id="D12-Challenge-Failure-Failure">
<g id="Group 2">
<mask id="mask0_5_2971" style="mask-type:luminance" maskUnits="userSpaceOnUse" x="6" y="2" width="244" height="252">
<path id="Shape" d="M114.626 4.34533C123.318 1.52112 132.682 1.52111 141.374 4.34533L189.669 20.0373C198.361 22.8615 205.935 28.365 211.307 35.7589L241.155 76.841C246.527 84.2349 249.421 93.1397 249.421 102.279V153.059C249.421 162.199 246.527 171.103 241.155 178.497L211.307 219.58C205.935 226.973 198.361 232.477 189.669 235.301L141.374 250.993C132.682 253.817 123.318 253.817 114.626 250.993L66.3315 235.301C57.6395 232.477 50.0646 226.973 44.6926 219.58L14.8447 178.497C9.47272 171.103 6.57938 162.199 6.57938 153.059V102.279C6.57938 93.1397 9.47271 84.2349 14.8447 76.841L44.6926 35.7589C50.0646 28.365 57.6394 22.8615 66.3315 20.0373L114.626 4.34533Z" fill="white"/>
</mask>
<g mask="url(#mask0_5_2971)">
<g id="Dice Color">
<g id="Color Component">
<rect width="256" height="256" fill="#F14422"/>
</g>
</g>
<g id="Group 4" filter="url(#filter0_f_5_2971)">
<path id="Rectangle 6" d="M50.1003 9.81479L135.445 -6.13376V48.8249H121.26V9.81479L52.8052 23.0787L50.1003 9.81479Z" fill="url(#paint0_linear_5_2971)" fill-opacity="0.15"/>
<rect id="Rectangle 7" x="169.168" y="196.272" width="14.1855" height="78.0203" transform="rotate(-36 169.168 196.272)" fill="url(#paint1_linear_5_2971)" fill-opacity="0.3"/>
<path id="Rectangle 8" d="M-5.07898 91.2411L43.0675 14.9641L61.4605 21.4558L18.1173 84.7521L55.2182 96.8069L50.8346 110.298L-5.07898 91.2411Z" fill="url(#paint2_linear_5_2971)" fill-opacity="0.25"/>
<rect id="Rectangle 9" x="205.87" y="110.298" width="14.1855" height="78.0203" transform="rotate(-108 205.87 110.298)" fill="url(#paint3_linear_5_2971)" fill-opacity="0.25"/>
<rect id="Rectangle 10" x="41.6775" y="259.392" width="14.1855" height="78.0203" transform="rotate(-144 41.6775 259.392)" fill="url(#paint4_linear_5_2971)" fill-opacity="0.25"/>
<g id="Group 6">
<path id="Vector" d="M173.312 205.927L209.146 252.45L126.5 268.5L46.8542 252.45L82.6876 205.927L173.312 205.927Z" fill="black" fill-opacity="0.35"/>
</g>
<g id="Group 7">
<path id="Vector_2" d="M216.109 108.421L272.06 88.5818L261 175L221.455 244.329L187.851 195.392L216.109 108.421Z" fill="black" fill-opacity="0.4"/>
</g>
<g id="Group 8">
<path id="Vector_3" d="M136.731 38.0623L135.152 -21.2808L210.713 14L267.639 74.9763L210.713 91.8128L136.731 38.0623Z" fill="black" fill-opacity="0.2"/>
</g>
<g id="Group 9">
<path id="Vector_4" d="M45.2868 91.813L-11.6397 74.9764L45.2868 15L120.847 -21.2808L119.268 38.0622L45.2868 91.813Z" fill="black" fill-opacity="0.1"/>
</g>
<g id="Group 10">
<path id="Vector_5" d="M68.1491 195.392L34.5453 244.329L-4.00012 172.5L-16.0602 88.5818L39.8906 108.421L68.1491 195.392Z" fill="black" fill-opacity="0.25"/>
</g>
</g>
</g>
<g id="Symbol B">
<path id="Symbol" fill-rule="evenodd" clip-rule="evenodd" d="M101.753 150.949C101.403 150.819 101.009 150.953 100.814 151.273C100.611 151.605 100.685 152.036 100.984 152.285C107.693 157.858 113.544 164.7 118.156 172.708C122.769 180.718 125.753 189.224 127.212 197.838C127.277 198.219 127.605 198.5 127.991 198.5C128.376 198.5 128.704 198.219 128.769 197.838C130.228 189.223 133.212 180.718 137.825 172.708C142.442 164.691 148.302 157.842 155.02 152.266C155.308 152.027 155.385 151.614 155.198 151.289C155.011 150.962 154.615 150.821 154.263 150.952C146.088 153.996 137.244 155.66 128.012 155.66C118.777 155.66 109.93 153.995 101.753 150.949Z" fill="white"/>
</g>
<g id="Symbol A">
<path id="Symbol_2" fill-rule="evenodd" clip-rule="evenodd" d="M101.753 80.9494C101.403 80.819 101.009 80.9535 100.814 81.273C100.611 81.6052 100.685 82.0362 100.984 82.2847C107.693 87.8578 113.544 94.6998 118.156 102.708C122.769 110.718 125.753 119.224 127.212 127.838C127.277 128.219 127.605 128.5 127.991 128.5C128.376 128.5 128.704 128.219 128.769 127.838C130.228 119.223 133.212 110.718 137.825 102.708C142.442 94.6909 148.302 87.8424 155.02 82.266C155.308 82.0267 155.385 81.6142 155.198 81.2888C155.011 80.9623 154.615 80.821 154.263 80.9521C146.088 83.9963 137.244 85.6597 128.012 85.6597C118.777 85.6597 109.93 83.9953 101.753 80.9494Z" fill="white"/>
</g>
<g id="Shine" filter="url(#filter1_f_5_2971)">
<path d="M62.4925 99.4783C57.4837 104.467 54.5575 109.682 58.5085 120.454C52.2474 110.816 53.9547 100.612 58.5082 95.51C66.6009 86.4423 90.9517 68.8658 103.474 61.4961C113.491 55.6003 126.241 46.7567 139.901 56.9609C124.533 51.2919 117.703 59.2285 110.873 63.1968C102.632 67.9851 68.7536 93.2424 62.4925 99.4783Z" fill="white"/>
</g>
</g>
</g>
<defs>
<filter id="filter0_f_5_2971" x="-26.8796" y="-32.1003" width="317.771" height="311.42" filterUnits="userSpaceOnUse" color-interpolation-filters="sRGB">
<feFlood flood-opacity="0" result="BackgroundImageFix"/>
<feBlend mode="normal" in="SourceGraphic" in2="BackgroundImageFix" result="shape"/>
<feGaussianBlur stdDeviation="5.40971" result="effect1_foregroundBlur_5_2971"/>
</filter>
<filter id="filter1_f_5_2971" x="49.0183" y="46.8814" width="96.2928" height="78.9818" filterUnits="userSpaceOnUse" color-interpolation-filters="sRGB">
<feFlood flood-opacity="0" result="BackgroundImageFix"/>
<feBlend mode="normal" in="SourceGraphic" in2="BackgroundImageFix" result="shape"/>
<feGaussianBlur stdDeviation="2.70486" result="effect1_foregroundBlur_5_2971"/>
</filter>
<linearGradient id="paint0_linear_5_2971" x1="128.353" y1="-29.1954" x2="128.353" y2="48.825" gradientUnits="userSpaceOnUse">
<stop offset="0.40004"/>
<stop offset="0.770751" stop-opacity="0"/>
</linearGradient>
<linearGradient id="paint1_linear_5_2971" x1="176.261" y1="196.272" x2="176.275" y2="252.046" gradientUnits="userSpaceOnUse">
<stop stop-opacity="0"/>
<stop offset="0.44519"/>
</linearGradient>
<linearGradient id="paint2_linear_5_2971" x1="52.2429" y1="103.558" x2="6.82247" y2="87.4543" gradientUnits="userSpaceOnUse">
<stop offset="0.487821" stop-opacity="0"/>
<stop offset="1"/>
</linearGradient>
<linearGradient id="paint3_linear_5_2971" x1="216.761" y1="109.73" x2="217.402" y2="150.481" gradientUnits="userSpaceOnUse">
<stop stop-opacity="0"/>
<stop offset="1"/>
</linearGradient>
<linearGradient id="paint4_linear_5_2971" x1="48.7702" y1="337.413" x2="48.6779" y2="291.64" gradientUnits="userSpaceOnUse">
<stop stop-opacity="0"/>
<stop offset="0.482933"/>
</linearGradient>
</defs>
</svg>
