<svg width="256" height="256" viewBox="0 0 256 256" fill="none" xmlns="http://www.w3.org/2000/svg">
<metadata>
  <rdf:RDF xmlns:rdf="http://www.w3.org/1999/02/22-rdf-syntax-ns#"
            xmlns:dc="http://purl.org/dc/elements/1.1/">
    <rdf:Description>
      <dc:title>swrpg-online.com art asset</dc:title>
      <dc:creator>Joshua Ziggas</dc:creator>
      <dc:rights>CC BY-NC-SA 4.0 - https://github.com/swrpg-online/art</dc:rights>
    </rdf:Description>
  </rdf:RDF>
</metadata>
<desc>
  wrpg-online.com SWRPG Dice Asset
  Created by: Joshua Ziggas
  Source: https://github.com/swrpg-online/art
  License: CC BY-NC-SA 4.0
</desc><g id="D12-Challenge-Failure">
<g id="Group 2">
<mask id="mask0_5_2857" style="mask-type:luminance" maskUnits="userSpaceOnUse" x="6" y="2" width="244" height="252">
<path id="Shape" d="M114.626 4.34533C123.318 1.52112 132.682 1.52111 141.374 4.34533L189.669 20.0373C198.361 22.8615 205.935 28.365 211.307 35.7589L241.155 76.841C246.527 84.2349 249.421 93.1397 249.421 102.279V153.059C249.421 162.199 246.527 171.103 241.155 178.497L211.307 219.58C205.935 226.973 198.361 232.477 189.669 235.301L141.374 250.993C132.682 253.817 123.318 253.817 114.626 250.993L66.3315 235.301C57.6395 232.477 50.0646 226.973 44.6926 219.58L14.8447 178.497C9.47272 171.103 6.57938 162.199 6.57938 153.059V102.279C6.57938 93.1397 9.47271 84.2349 14.8447 76.841L44.6926 35.7589C50.0646 28.365 57.6394 22.8615 66.3315 20.0373L114.626 4.34533Z" fill="white"/>
</mask>
<g mask="url(#mask0_5_2857)">
<g id="Dice Color">
<g id="Color Component">
<rect width="256" height="256" fill="#F14422"/>
</g>
</g>
<g id="Group 4" filter="url(#filter0_f_5_2857)">
<path id="Rectangle 6" d="M50.1005 9.81479L135.446 -6.13376V48.8249H121.26V9.81479L52.8053 23.0787L50.1005 9.81479Z" fill="url(#paint0_linear_5_2857)" fill-opacity="0.15"/>
<rect id="Rectangle 7" x="169.169" y="196.272" width="14.1855" height="78.0203" transform="rotate(-36 169.169 196.272)" fill="url(#paint1_linear_5_2857)" fill-opacity="0.3"/>
<path id="Rectangle 8" d="M-5.0788 91.2411L43.0676 14.9641L61.4607 21.4558L18.1175 84.7521L55.2183 96.8069L50.8348 110.298L-5.0788 91.2411Z" fill="url(#paint2_linear_5_2857)" fill-opacity="0.25"/>
<rect id="Rectangle 9" x="205.87" y="110.298" width="14.1855" height="78.0203" transform="rotate(-108 205.87 110.298)" fill="url(#paint3_linear_5_2857)" fill-opacity="0.25"/>
<rect id="Rectangle 10" x="41.6776" y="259.392" width="14.1855" height="78.0203" transform="rotate(-144 41.6776 259.392)" fill="url(#paint4_linear_5_2857)" fill-opacity="0.25"/>
<g id="Group 6">
<path id="Vector" d="M173.312 205.927L209.146 252.45L126.5 268.5L46.8544 252.45L82.6877 205.927L173.312 205.927Z" fill="black" fill-opacity="0.35"/>
</g>
<g id="Group 7">
<path id="Vector_2" d="M216.11 108.421L272.06 88.5818L261 175L221.455 244.329L187.851 195.392L216.11 108.421Z" fill="black" fill-opacity="0.4"/>
</g>
<g id="Group 8">
<path id="Vector_3" d="M136.731 38.0623L135.152 -21.2808L210.713 14L267.639 74.9763L210.713 91.8128L136.731 38.0623Z" fill="black" fill-opacity="0.2"/>
</g>
<g id="Group 9">
<path id="Vector_4" d="M45.287 91.813L-11.6395 74.9764L45.287 15L120.847 -21.2808L119.268 38.0622L45.287 91.813Z" fill="black" fill-opacity="0.1"/>
</g>
<g id="Group 10">
<path id="Vector_5" d="M68.1492 195.392L34.5454 244.329L-4 172.5L-16.0601 88.5818L39.8907 108.421L68.1492 195.392Z" fill="black" fill-opacity="0.25"/>
</g>
</g>
</g>
<g id="Symbol A">
<path id="Symbol" fill-rule="evenodd" clip-rule="evenodd" d="M85.2552 108.861C84.6849 108.648 84.043 108.867 83.7256 109.387C83.3954 109.929 83.5157 110.63 84.0029 111.035C94.9282 120.111 104.458 131.254 111.968 144.295C119.481 157.341 124.341 171.193 126.718 185.222C126.823 185.843 127.357 186.3 127.985 186.3C128.613 186.3 129.147 185.843 129.252 185.222C131.629 171.192 136.489 157.341 144.002 144.295C151.52 131.239 161.063 120.086 172.004 111.005C172.473 110.615 172.598 109.943 172.294 109.413C171.99 108.881 171.345 108.651 170.772 108.865C157.458 113.823 143.054 116.531 128.019 116.531C112.98 116.531 98.5722 113.821 85.2552 108.861Z" fill="white"/>
</g>
<g id="Shine" filter="url(#filter1_f_5_2857)">
<path d="M62.4925 99.4783C57.4837 104.467 54.5575 109.682 58.5084 120.454C52.2473 110.816 53.9547 100.612 58.5082 95.51C66.6008 86.4423 90.9517 68.8658 103.474 61.4961C113.491 55.6003 126.241 46.7567 139.901 56.9609C124.533 51.2919 117.703 59.2285 110.873 63.1968C102.632 67.9851 68.7535 93.2424 62.4925 99.4783Z" fill="white"/>
</g>
</g>
</g>
<defs>
<filter id="filter0_f_5_2857" x="-26.8795" y="-32.1003" width="317.771" height="311.42" filterUnits="userSpaceOnUse" color-interpolation-filters="sRGB">
<feFlood flood-opacity="0" result="BackgroundImageFix"/>
<feBlend mode="normal" in="SourceGraphic" in2="BackgroundImageFix" result="shape"/>
<feGaussianBlur stdDeviation="5.40971" result="effect1_foregroundBlur_5_2857"/>
</filter>
<filter id="filter1_f_5_2857" x="49.0181" y="46.8814" width="96.2929" height="78.9818" filterUnits="userSpaceOnUse" color-interpolation-filters="sRGB">
<feFlood flood-opacity="0" result="BackgroundImageFix"/>
<feBlend mode="normal" in="SourceGraphic" in2="BackgroundImageFix" result="shape"/>
<feGaussianBlur stdDeviation="2.70486" result="effect1_foregroundBlur_5_2857"/>
</filter>
<linearGradient id="paint0_linear_5_2857" x1="128.353" y1="-29.1954" x2="128.353" y2="48.825" gradientUnits="userSpaceOnUse">
<stop offset="0.40004"/>
<stop offset="0.770751" stop-opacity="0"/>
</linearGradient>
<linearGradient id="paint1_linear_5_2857" x1="176.261" y1="196.272" x2="176.275" y2="252.046" gradientUnits="userSpaceOnUse">
<stop stop-opacity="0"/>
<stop offset="0.44519"/>
</linearGradient>
<linearGradient id="paint2_linear_5_2857" x1="52.2431" y1="103.558" x2="6.82265" y2="87.4543" gradientUnits="userSpaceOnUse">
<stop offset="0.487821" stop-opacity="0"/>
<stop offset="1"/>
</linearGradient>
<linearGradient id="paint3_linear_5_2857" x1="216.761" y1="109.73" x2="217.403" y2="150.481" gradientUnits="userSpaceOnUse">
<stop stop-opacity="0"/>
<stop offset="1"/>
</linearGradient>
<linearGradient id="paint4_linear_5_2857" x1="48.7704" y1="337.413" x2="48.678" y2="291.64" gradientUnits="userSpaceOnUse">
<stop stop-opacity="0"/>
<stop offset="0.482933"/>
</linearGradient>
</defs>
</svg>
