<svg width="256" height="256" viewBox="0 0 256 256" fill="none" xmlns="http://www.w3.org/2000/svg">
<metadata>
  <rdf:RDF xmlns:rdf="http://www.w3.org/1999/02/22-rdf-syntax-ns#"
            xmlns:dc="http://purl.org/dc/elements/1.1/">
    <rdf:Description>
      <dc:title>swrpg-online.com art asset</dc:title>
      <dc:creator>Joshua Ziggas</dc:creator>
      <dc:rights>CC BY-NC-SA 4.0 - https://github.com/swrpg-online/art</dc:rights>
    </rdf:Description>
  </rdf:RDF>
</metadata>
<desc>
  wrpg-online.com SWRPG Dice Asset
  Created by: Joshua Ziggas
  Source: https://github.com/swrpg-online/art
  License: CC BY-NC-SA 4.0
</desc><g id="D6-Boost-Success-Advantage">
<g id="Group 5">
<mask id="mask0_5_2415" style="mask-type:alpha" maskUnits="userSpaceOnUse" x="28" y="28" width="200" height="200">
<path id="BG" d="M28 52C28 38.7452 38.7452 28 52 28H128H204C217.255 28 228 38.7452 228 52V128V204C228 217.255 217.255 228 204 228H128H52C38.7452 228 28 217.255 28 204V128V52Z" fill="#7EBCD8"/>
</mask>
<g mask="url(#mask0_5_2415)">
<g id="Dice Color">
<g id="Color Component">
<rect width="256" height="256" fill="#7EBCD8"/>
</g>
</g>
<g id="Shine" style="mix-blend-mode:plus-lighter">
<rect x="28" y="28" width="200" height="200" fill="url(#paint0_linear_5_2415)"/>
</g>
<g id="Subtract" filter="url(#filter0_f_5_2415)">
<path fill-rule="evenodd" clip-rule="evenodd" d="M239 17H17V239H239V17ZM128 228.909C183.731 228.909 228.909 183.731 228.909 128C228.909 72.2694 183.731 27.0909 128 27.0909C72.2694 27.0909 27.0909 72.2694 27.0909 128C27.0909 183.731 72.2694 228.909 128 228.909Z" fill="url(#paint1_angular_5_2415)"/>
</g>
</g>
<g id="Symbol B">
<g id="Symbol">
<path d="M150.766 156.502C151.007 156.744 151.032 157.128 150.822 157.398C147.639 161.5 146.561 164.943 146.561 168.735C146.561 177.603 154.574 184.636 162.261 187.475C162.797 187.673 163.385 187.673 163.921 187.475C171.608 184.636 179.621 177.603 179.621 168.735C179.621 164.943 178.542 161.5 175.359 157.398C175.15 157.128 175.175 156.744 175.416 156.502C179.447 152.448 184.521 143.83 177.604 136.932C177.121 136.451 177.5 135.621 178.153 135.822C187.358 138.646 196.93 150.167 187.26 165.516C187.112 165.751 187.293 166.052 187.565 165.989C189.5 165.54 192.826 163.962 195.532 160.225C195.922 159.685 196.766 159.918 196.686 160.577C196.055 165.761 192.652 173.729 182.338 177.038C182.061 177.127 182.019 177.495 182.284 177.616C183.853 178.33 186.64 179.161 189.668 178.886C190.288 178.829 190.736 179.546 190.32 180.005C184.412 186.535 173.751 190.391 163.091 190.391C152.43 190.391 141.77 186.535 135.861 180.005C135.446 179.546 135.894 178.829 136.513 178.886C139.542 179.161 142.329 178.33 143.898 177.616C144.163 177.495 144.121 177.127 143.844 177.038C133.53 173.729 130.126 165.761 129.496 160.577C129.416 159.918 130.26 159.685 130.65 160.225C133.355 163.962 136.682 165.54 138.616 165.989C138.888 166.052 139.07 165.751 138.922 165.516C129.251 150.167 138.824 138.646 148.029 135.822C148.682 135.621 149.06 136.451 148.578 136.932C141.661 143.83 146.735 152.448 150.766 156.502Z" fill="black"/>
<path d="M163.091 153.642C166.74 153.642 169.698 150.704 169.698 147.08C169.698 143.456 166.74 140.517 163.091 140.517C159.442 140.517 156.484 143.456 156.484 147.08C156.484 150.704 159.442 153.642 163.091 153.642Z" fill="black"/>
</g>
</g>
<g id="Symbol A">
<path id="Symbol_2" fill-rule="evenodd" clip-rule="evenodd" d="M102.173 80.0677C101.998 80.1116 101.818 80.0151 101.758 79.8449L95.4359 61.9667C95.1981 61.2942 94.2244 61.3666 94.0887 62.0669L90.0294 83.0151C89.9853 83.2427 89.7361 83.3653 89.5289 83.2614L65.3194 71.1149C64.6326 70.7704 63.9727 71.6237 64.4789 72.2018L81.0467 91.1197C81.1932 91.287 81.1487 91.5466 80.9549 91.6555L66.667 99.6842C66.0742 100.017 66.2566 100.915 66.9324 100.99L82.2851 102.702C82.4858 102.724 82.626 102.911 82.591 103.11L79.081 123.069C78.9611 123.751 79.7977 124.174 80.2762 123.674L94.3358 108.978C94.4696 108.838 94.6915 108.834 94.8311 108.968L108.134 121.736C108.635 122.217 109.454 121.754 109.302 121.078L105.259 103.113C105.214 102.914 105.349 102.718 105.551 102.689L121.694 100.375C122.354 100.281 122.52 99.4029 121.94 99.0736L108.833 91.6401C108.65 91.5361 108.599 91.2949 108.726 91.1261L119.232 77.0698C119.626 76.5422 119.14 75.8115 118.501 75.9718L102.173 80.0677ZM107.246 84.948C107.438 84.6782 107.182 84.3174 106.864 84.4087L98.9008 86.6918C98.7104 86.7464 98.5126 86.6322 98.4647 86.4399L96.2508 77.5538C96.1621 77.1979 95.6553 77.2007 95.5706 77.5576L92.6979 89.6647C92.6443 89.8906 92.3897 90.0026 92.1869 89.8896L82.3983 84.4327C82.0564 84.2421 81.7071 84.671 81.963 84.9672L88.9444 93.0504C89.1054 93.2369 89.0286 93.5269 88.7964 93.6091L79.2148 97.0025C78.8798 97.1212 78.9143 97.6057 79.2627 97.6756L87.6045 99.3497C87.7966 99.3883 87.9197 99.5771 87.8773 99.7685L85.5832 110.128C85.5061 110.476 85.9383 110.703 86.1812 110.442L94.3205 101.691C94.4594 101.542 94.6962 101.542 94.8343 101.692L101.624 109.073C101.868 109.338 102.304 109.107 102.222 108.756L99.9726 99.1626C99.9228 98.9503 100.077 98.7447 100.295 98.7331L110.007 98.2178C110.35 98.1996 110.464 97.7483 110.17 97.5693L102.185 92.7103C102.012 92.6047 101.964 92.374 102.082 92.2085L107.246 84.948Z" fill="black"/>
</g>
<g id="Shine_2" filter="url(#filter1_f_5_2415)">
<path d="M54.6822 87.8174C46.6259 95.7643 46.0504 129.917 46.7697 146C42.2358 116.37 41.274 83.6569 59.7175 64.5191C77.813 45.7423 110.789 41.6971 141 47.3734C123.017 46.6638 96.4024 50.2116 86.332 57.307C76.2616 64.4024 64.7526 77.8838 54.6822 87.8174Z" fill="url(#paint2_radial_5_2415)"/>
</g>
</g>
</g>
<defs>
<filter id="filter0_f_5_2415" x="1.31818" y="1.31818" width="253.364" height="253.364" filterUnits="userSpaceOnUse" color-interpolation-filters="sRGB">
<feFlood flood-opacity="0" result="BackgroundImageFix"/>
<feBlend mode="normal" in="SourceGraphic" in2="BackgroundImageFix" result="shape"/>
<feGaussianBlur stdDeviation="7.84091" result="effect1_foregroundBlur_5_2415"/>
</filter>
<filter id="filter1_f_5_2415" x="38.3182" y="39.3182" width="108.364" height="112.364" filterUnits="userSpaceOnUse" color-interpolation-filters="sRGB">
<feFlood flood-opacity="0" result="BackgroundImageFix"/>
<feBlend mode="normal" in="SourceGraphic" in2="BackgroundImageFix" result="shape"/>
<feGaussianBlur stdDeviation="2.84091" result="effect1_foregroundBlur_5_2415"/>
</filter>
<linearGradient id="paint0_linear_5_2415" x1="28" y1="28" x2="228" y2="228" gradientUnits="userSpaceOnUse">
<stop stop-color="white" stop-opacity="0"/>
<stop offset="0.655" stop-color="white" stop-opacity="0.05"/>
</linearGradient>
<radialGradient id="paint1_angular_5_2415" cx="0" cy="0" r="1" gradientUnits="userSpaceOnUse" gradientTransform="translate(128 128) rotate(45) scale(141.588)">
<stop stop-opacity="0.5"/>
<stop offset="0.253046" stop-opacity="0.35"/>
<stop offset="0.502899" stop-opacity="0.15"/>
<stop offset="0.753407" stop-opacity="0.25"/>
<stop offset="1" stop-opacity="0.5"/>
</radialGradient>
<radialGradient id="paint2_radial_5_2415" cx="0" cy="0" r="1" gradientUnits="userSpaceOnUse" gradientTransform="translate(66.2988 67.2406) scale(67.6157 63.1855)">
<stop offset="0.29" stop-color="white"/>
<stop offset="0.415" stop-color="white" stop-opacity="0.5"/>
<stop offset="1" stop-color="white" stop-opacity="0"/>
</radialGradient>
</defs>
</svg>
