<svg width="256" height="256" viewBox="0 0 256 256" fill="none" xmlns="http://www.w3.org/2000/svg">
<metadata>
  <rdf:RDF xmlns:rdf="http://www.w3.org/1999/02/22-rdf-syntax-ns#"
            xmlns:dc="http://purl.org/dc/elements/1.1/">
    <rdf:Description>
      <dc:title>swrpg-online.com art asset</dc:title>
      <dc:creator>Joshua Ziggas</dc:creator>
      <dc:rights>CC BY-NC-SA 4.0 - https://github.com/swrpg-online/art</dc:rights>
    </rdf:Description>
  </rdf:RDF>
</metadata>
<desc>
  wrpg-online.com SWRPG Dice Asset
  Created by: Joshua Ziggas
  Source: https://github.com/swrpg-online/art
  License: CC BY-NC-SA 4.0
</desc><g id="D6-Boost-Advantage">
<g id="Group 5">
<mask id="mask0_5_2368" style="mask-type:alpha" maskUnits="userSpaceOnUse" x="28" y="28" width="200" height="200">
<path id="BG" d="M28 52C28 38.7452 38.7452 28 52 28H128H204C217.255 28 228 38.7452 228 52V128V204C228 217.255 217.255 228 204 228H128H52C38.7452 228 28 217.255 28 204V128V52Z" fill="#7EBCD8"/>
</mask>
<g mask="url(#mask0_5_2368)">
<g id="Dice Color">
<g id="Color Component">
<rect width="256" height="256" fill="#7EBCD8"/>
</g>
</g>
<g id="Shine" style="mix-blend-mode:plus-lighter">
<rect x="28" y="28" width="200" height="200" fill="url(#paint0_linear_5_2368)"/>
</g>
<g id="Subtract" filter="url(#filter0_f_5_2368)">
<path fill-rule="evenodd" clip-rule="evenodd" d="M239 17H17V239H239V17ZM128 228.909C183.731 228.909 228.909 183.731 228.909 128C228.909 72.2694 183.731 27.0909 128 27.0909C72.2694 27.0909 27.0909 72.2694 27.0909 128C27.0909 183.731 72.2694 228.909 128 228.909Z" fill="url(#paint1_angular_5_2368)"/>
</g>
</g>
<g id="Symbol A">
<g id="Symbol">
<path d="M107.927 117.27C108.32 117.664 108.361 118.289 108.02 118.728C102.836 125.409 101.08 131.017 101.08 137.192C101.08 151.633 114.129 163.088 126.648 167.712C127.521 168.034 128.479 168.034 129.352 167.712C141.871 163.088 154.921 151.633 154.921 137.192C154.921 131.017 153.164 125.409 147.98 118.728C147.639 118.289 147.68 117.664 148.073 117.27C154.637 110.667 162.9 96.6318 151.635 85.399C150.85 84.6158 151.466 83.2636 152.529 83.5899C167.52 88.1895 183.11 106.953 167.361 131.949C167.12 132.332 167.416 132.823 167.859 132.72C171.009 131.989 176.427 129.419 180.832 123.332C181.468 122.454 182.842 122.832 182.711 123.906C181.685 132.348 176.143 145.325 159.345 150.715C158.894 150.86 158.825 151.459 159.257 151.655C161.813 152.818 166.351 154.172 171.283 153.723C172.292 153.631 173.022 154.798 172.345 155.546C162.723 166.18 145.361 172.46 128 172.46C110.639 172.46 93.2775 166.18 83.655 155.546C82.9778 154.798 83.7079 153.631 84.7167 153.723C89.6487 154.172 94.1871 152.818 96.7429 151.655C97.1746 151.459 97.1065 150.86 96.6547 150.715C79.8573 145.325 74.3149 132.348 73.2887 123.906C73.1582 122.832 74.5323 122.454 75.1679 123.332C79.5734 129.419 84.9909 131.989 88.1414 132.72C88.5843 132.823 88.8802 132.332 88.6389 131.949C72.89 106.953 88.4797 88.1895 103.471 83.5899C104.534 83.2636 105.15 84.6158 104.365 85.399C93.0997 96.6318 101.363 110.667 107.927 117.27Z" fill="black"/>
<path d="M128 112.612C133.943 112.612 138.76 107.827 138.76 101.925C138.76 96.0224 133.943 91.2376 128 91.2376C122.057 91.2376 117.24 96.0224 117.24 101.925C117.24 107.827 122.057 112.612 128 112.612Z" fill="black"/>
</g>
</g>
<g id="Shine_2" filter="url(#filter1_f_5_2368)">
<path d="M54.6822 87.8174C46.6259 95.7643 46.0504 129.917 46.7697 146C42.2358 116.37 41.274 83.6569 59.7175 64.5191C77.813 45.7423 110.789 41.6971 141 47.3734C123.017 46.6638 96.4024 50.2116 86.332 57.307C76.2616 64.4024 64.7526 77.8838 54.6822 87.8174Z" fill="url(#paint2_radial_5_2368)"/>
</g>
</g>
</g>
<defs>
<filter id="filter0_f_5_2368" x="1.31818" y="1.31818" width="253.364" height="253.364" filterUnits="userSpaceOnUse" color-interpolation-filters="sRGB">
<feFlood flood-opacity="0" result="BackgroundImageFix"/>
<feBlend mode="normal" in="SourceGraphic" in2="BackgroundImageFix" result="shape"/>
<feGaussianBlur stdDeviation="7.84091" result="effect1_foregroundBlur_5_2368"/>
</filter>
<filter id="filter1_f_5_2368" x="38.3182" y="39.3182" width="108.364" height="112.364" filterUnits="userSpaceOnUse" color-interpolation-filters="sRGB">
<feFlood flood-opacity="0" result="BackgroundImageFix"/>
<feBlend mode="normal" in="SourceGraphic" in2="BackgroundImageFix" result="shape"/>
<feGaussianBlur stdDeviation="2.84091" result="effect1_foregroundBlur_5_2368"/>
</filter>
<linearGradient id="paint0_linear_5_2368" x1="28" y1="28" x2="228" y2="228" gradientUnits="userSpaceOnUse">
<stop stop-color="white" stop-opacity="0"/>
<stop offset="0.655" stop-color="white" stop-opacity="0.05"/>
</linearGradient>
<radialGradient id="paint1_angular_5_2368" cx="0" cy="0" r="1" gradientUnits="userSpaceOnUse" gradientTransform="translate(128 128) rotate(45) scale(141.588)">
<stop stop-opacity="0.5"/>
<stop offset="0.253046" stop-opacity="0.35"/>
<stop offset="0.502899" stop-opacity="0.15"/>
<stop offset="0.753407" stop-opacity="0.25"/>
<stop offset="1" stop-opacity="0.5"/>
</radialGradient>
<radialGradient id="paint2_radial_5_2368" cx="0" cy="0" r="1" gradientUnits="userSpaceOnUse" gradientTransform="translate(66.2988 67.2406) scale(67.6157 63.1855)">
<stop offset="0.29" stop-color="white"/>
<stop offset="0.415" stop-color="white" stop-opacity="0.5"/>
<stop offset="1" stop-color="white" stop-opacity="0"/>
</radialGradient>
</defs>
</svg>
