<svg width="256" height="256" viewBox="0 0 256 256" fill="none" xmlns="http://www.w3.org/2000/svg">
<metadata>
  <rdf:RDF xmlns:rdf="http://www.w3.org/1999/02/22-rdf-syntax-ns#"
            xmlns:dc="http://purl.org/dc/elements/1.1/">
    <rdf:Description>
      <dc:title>swrpg-online.com art asset</dc:title>
      <dc:creator>Joshua Ziggas</dc:creator>
      <dc:rights>CC BY-NC-SA 4.0 - https://github.com/swrpg-online/art</dc:rights>
    </rdf:Description>
  </rdf:RDF>
</metadata>
<desc>
  wrpg-online.com SWRPG Dice Asset
  Created by: Joshua Ziggas
  Source: https://github.com/swrpg-online/art
  License: CC BY-NC-SA 4.0
</desc><g id="D8-Ability-Advantage-Success">
<g id="Dice">
<mask id="mask0_5_3197" style="mask-type:alpha" maskUnits="userSpaceOnUse" x="10" y="0" width="237" height="256">
<path id="Shape" d="M100.601 7.4368C117.776 -2.47893 138.936 -2.47893 156.11 7.4368L218.82 43.6421C235.994 53.5579 246.574 71.8829 246.574 91.7144V164.125C246.574 183.956 235.994 202.281 218.82 212.197L156.11 248.403C138.936 258.318 117.776 258.318 100.601 248.403L37.892 212.197C20.7174 202.281 10.1375 183.956 10.1375 164.125V91.7144C10.1375 71.8829 20.7174 53.5578 37.892 43.6421L100.601 7.4368Z" fill="#51B120"/>
</mask>
<g mask="url(#mask0_5_3197)">
<g id="Dice Color">
<g id="Color Component">
<rect width="256" height="256" fill="#51B120"/>
</g>
</g>
<g id="Shading">
<mask id="mask1_5_3197" style="mask-type:alpha" maskUnits="userSpaceOnUse" x="10" y="0" width="237" height="256">
<path id="Polygon 6" d="M100.601 7.4368C117.776 -2.47893 138.936 -2.47893 156.11 7.4368L218.82 43.6421C235.994 53.5579 246.574 71.8829 246.574 91.7144V164.125C246.574 183.956 235.994 202.281 218.82 212.197L156.11 248.403C138.936 258.318 117.776 258.318 100.601 248.403L37.892 212.197C20.7174 202.281 10.1375 183.956 10.1375 164.125V91.7144C10.1375 71.8829 20.7174 53.5578 37.892 43.6421L100.601 7.4368Z" fill="#9B46E0"/>
</mask>
<g mask="url(#mask1_5_3197)">
<g id="Group 12" filter="url(#filter0_f_5_3197)">
<mask id="mask2_5_3197" style="mask-type:alpha" maskUnits="userSpaceOnUse" x="-2" y="-13" width="260" height="280">
<path id="Subtract" fill-rule="evenodd" clip-rule="evenodd" d="M158.903 -4.86089C140.089 -15.713 116.91 -15.713 98.0966 -4.86089L29.4029 34.7635C10.5894 45.6157 -1.00024 65.6713 -1.00024 87.3756V166.624C-1.00024 188.329 10.5894 208.384 29.4029 219.236L98.0966 258.861C116.91 269.713 140.089 269.713 158.903 258.861L227.597 219.236C246.41 208.384 258 188.329 258 166.624V87.3756C258 65.6713 246.41 45.6157 227.597 34.7635L158.903 -4.86089ZM110.206 232.99C118.273 246.962 138.439 246.962 146.506 232.99L228.425 91.1025C236.491 77.1308 226.408 59.6662 210.275 59.6662L46.437 59.6662C30.3039 59.6662 20.2207 77.1308 28.2873 91.1025L110.206 232.99Z" fill="#9B46E0"/>
</mask>
<g mask="url(#mask2_5_3197)">
<path id="Polygon 6_2" d="M151.633 -7.43913C141.129 -13.5203 114.87 -13.5203 104.366 -7.43915L-2.30343 54.3174C-12.8072 60.3985 0.322489 68 21.33 68L234.669 68C255.677 68 268.807 60.3986 258.303 54.3174L151.633 -7.43913Z" fill="black" fill-opacity="0.25"/>
<path id="Polygon 7" d="M233.373 214.846C243.596 208.947 256.371 186.82 256.368 175.016L256.335 55.1504C256.332 43.3472 243.552 50.7207 233.332 68.4226L129.542 248.193C119.322 265.895 119.326 280.649 129.549 274.75L233.373 214.846Z" fill="black" fill-opacity="0.5"/>
<path id="Polygon 8" d="M22.1315 216.345C11.5516 210.241 -1.66907 187.342 -1.66569 175.127L-1.63139 51.0824C-1.62801 38.8678 11.5968 46.4983 22.1733 64.8173L129.582 250.855C140.159 269.174 140.154 284.442 129.574 278.338L22.1315 216.345Z" fill="black" fill-opacity="0.35"/>
</g>
</g>
</g>
</g>
</g>
<g id="Symbol B">
<path id="Symbol" fill-rule="evenodd" clip-rule="evenodd" d="M137.173 163.068C136.998 163.112 136.818 163.015 136.758 162.845L130.436 144.967C130.198 144.294 129.224 144.367 129.088 145.067L125.029 166.015C124.985 166.243 124.736 166.365 124.529 166.261L100.319 154.115C99.6324 153.77 98.9724 154.624 99.4787 155.202L116.046 174.12C116.193 174.287 116.148 174.547 115.955 174.655L101.667 182.684C101.074 183.017 101.256 183.915 101.932 183.99L117.285 185.702C117.486 185.724 117.626 185.911 117.591 186.11L114.081 206.069C113.961 206.751 114.797 207.174 115.276 206.674L129.336 191.978C129.469 191.838 129.691 191.834 129.831 191.968L143.134 204.736C143.635 205.217 144.454 204.754 144.302 204.078L140.259 186.113C140.214 185.914 140.349 185.718 140.551 185.689L156.693 183.375C157.354 183.281 157.52 182.403 156.939 182.074L143.833 174.64C143.65 174.536 143.599 174.295 143.725 174.126L154.231 160.07C154.626 159.542 154.139 158.811 153.5 158.972L137.173 163.068ZM142.246 167.948C142.438 167.678 142.182 167.317 141.864 167.409L133.901 169.692C133.71 169.746 133.512 169.632 133.464 169.44L131.251 160.554C131.162 160.198 130.655 160.201 130.57 160.558L127.698 172.665C127.644 172.891 127.389 173.003 127.187 172.89L117.398 167.433C117.056 167.242 116.707 167.671 116.963 167.967L123.944 176.05C124.105 176.237 124.028 176.527 123.796 176.609L114.215 180.003C113.88 180.121 113.914 180.606 114.262 180.676L122.604 182.35C122.796 182.388 122.919 182.577 122.877 182.769L120.583 193.128C120.506 193.476 120.938 193.703 121.181 193.442L129.32 184.691C129.459 184.542 129.696 184.542 129.834 184.692L136.624 192.073C136.867 192.338 137.304 192.107 137.222 191.756L134.972 182.163C134.923 181.95 135.077 181.745 135.295 181.733L145.007 181.218C145.35 181.2 145.464 180.748 145.17 180.569L137.185 175.71C137.012 175.605 136.964 175.374 137.082 175.208L142.246 167.948Z" fill="black"/>
</g>
<g id="Symbol A">
<g id="Symbol_2">
<path d="M115.675 99.4111C115.916 99.6536 115.941 100.037 115.731 100.307C112.548 104.409 111.47 107.852 111.47 111.644C111.47 120.512 119.482 127.545 127.169 130.384C127.705 130.582 128.294 130.582 128.83 130.384C136.517 127.545 144.53 120.512 144.53 111.644C144.53 107.852 143.451 104.409 140.268 100.307C140.059 100.037 140.084 99.6536 140.325 99.4111C144.356 95.3571 149.43 86.7388 142.513 79.8415C142.03 79.3606 142.409 78.5303 143.062 78.7306C152.267 81.555 161.839 93.0762 152.169 108.425C152.021 108.66 152.202 108.962 152.474 108.898C154.409 108.449 157.735 106.871 160.441 103.134C160.831 102.595 161.675 102.827 161.594 103.486C160.964 108.67 157.561 116.638 147.247 119.948C146.97 120.037 146.928 120.404 147.193 120.525C148.762 121.239 151.549 122.071 154.577 121.795C155.197 121.738 155.645 122.455 155.229 122.915C149.321 129.444 138.66 133.3 128 133.3C117.339 133.3 106.679 129.444 100.77 122.915C100.355 122.455 100.803 121.738 101.422 121.795C104.451 122.071 107.237 121.239 108.807 120.525C109.072 120.404 109.03 120.037 108.753 119.948C98.4384 116.638 95.0352 108.67 94.4051 103.486C94.325 102.827 95.1687 102.595 95.559 103.134C98.2641 106.871 101.591 108.449 103.525 108.898C103.797 108.962 103.979 108.66 103.831 108.425C94.1603 93.0762 103.733 81.555 112.938 78.7306C113.591 78.5303 113.969 79.3606 113.487 79.8415C106.57 86.7388 111.644 95.3571 115.675 99.4111Z" fill="black"/>
<path d="M128 96.5512C131.649 96.5512 134.607 93.6131 134.607 89.9889C134.607 86.3646 131.649 83.4266 128 83.4266C124.351 83.4266 121.393 86.3646 121.393 89.9889C121.393 93.6131 124.351 96.5512 128 96.5512Z" fill="black"/>
</g>
</g>
<g id="Shine" filter="url(#filter1_f_5_3197)">
<path d="M46.1416 88.8368C46.1416 104.243 68.7984 141.325 80.1267 157.94C73.8017 149.255 59.5091 128.883 52.9386 116.875C44.7256 101.864 31.6979 80.6237 39.6278 72.6938C45.9717 66.35 71.7249 64.764 83.8085 64.764H148.38C174.152 64.764 195.204 71.3722 202.19 74.6763C202.19 74.6763 171.32 69.0121 148.38 69.0121H83.8085C69.0816 69.0121 46.1416 69.5785 46.1416 88.8368Z" fill="url(#paint0_radial_5_3197)"/>
</g>
</g>
</g>
<defs>
<filter id="filter0_f_5_3197" x="-13.0002" y="-24" width="283" height="303" filterUnits="userSpaceOnUse" color-interpolation-filters="sRGB">
<feFlood flood-opacity="0" result="BackgroundImageFix"/>
<feBlend mode="normal" in="SourceGraphic" in2="BackgroundImageFix" result="shape"/>
<feGaussianBlur stdDeviation="6" result="effect1_foregroundBlur_5_3197"/>
</filter>
<filter id="filter1_f_5_3197" x="31.4984" y="59.0998" width="176.356" height="104.504" filterUnits="userSpaceOnUse" color-interpolation-filters="sRGB">
<feFlood flood-opacity="0" result="BackgroundImageFix"/>
<feBlend mode="normal" in="SourceGraphic" in2="BackgroundImageFix" result="shape"/>
<feGaussianBlur stdDeviation="2.83209" result="effect1_foregroundBlur_5_3197"/>
</filter>
<radialGradient id="paint0_radial_5_3197" cx="0" cy="0" r="1" gradientUnits="userSpaceOnUse" gradientTransform="translate(37.1626 71.561) rotate(34.3188) scale(171.795 304.273)">
<stop stop-color="white"/>
<stop offset="1" stop-color="white" stop-opacity="0"/>
</radialGradient>
</defs>
</svg>
