<svg width="256" height="256" viewBox="0 0 256 256" fill="none" xmlns="http://www.w3.org/2000/svg">
<metadata>
  <rdf:RDF xmlns:rdf="http://www.w3.org/1999/02/22-rdf-syntax-ns#"
            xmlns:dc="http://purl.org/dc/elements/1.1/">
    <rdf:Description>
      <dc:title>swrpg-online.com art asset</dc:title>
      <dc:creator>Joshua Ziggas</dc:creator>
      <dc:rights>CC BY-NC-SA 4.0 - https://github.com/swrpg-online/art</dc:rights>
    </rdf:Description>
  </rdf:RDF>
</metadata>
<desc>
  wrpg-online.com SWRPG Dice Asset
  Created by: Joshua Ziggas
  Source: https://github.com/swrpg-online/art
  License: CC BY-NC-SA 4.0
</desc><g id="D8-Ability-Success">
<g id="Dice">
<mask id="mask0_5_3171" style="mask-type:alpha" maskUnits="userSpaceOnUse" x="10" y="0" width="237" height="256">
<path id="Shape" d="M100.602 7.4368C117.776 -2.47893 138.936 -2.47893 156.111 7.4368L218.82 43.6421C235.995 53.5579 246.575 71.8829 246.575 91.7144V164.125C246.575 183.956 235.995 202.281 218.82 212.197L156.111 248.403C138.936 258.318 117.776 258.318 100.602 248.403L37.8921 212.197C20.7175 202.281 10.1376 183.956 10.1376 164.125V91.7144C10.1376 71.8829 20.7175 53.5578 37.8921 43.6421L100.602 7.4368Z" fill="#51B120"/>
</mask>
<g mask="url(#mask0_5_3171)">
<g id="Dice Color">
<g id="Color Component">
<rect width="256" height="256" fill="#51B120"/>
</g>
</g>
<g id="Shading">
<mask id="mask1_5_3171" style="mask-type:alpha" maskUnits="userSpaceOnUse" x="10" y="0" width="237" height="256">
<path id="Polygon 6" d="M100.602 7.4368C117.776 -2.47893 138.936 -2.47893 156.111 7.4368L218.82 43.6421C235.995 53.5579 246.575 71.8829 246.575 91.7144V164.125C246.575 183.956 235.995 202.281 218.82 212.197L156.111 248.403C138.936 258.318 117.776 258.318 100.602 248.403L37.8921 212.197C20.7175 202.281 10.1376 183.956 10.1376 164.125V91.7144C10.1376 71.8829 20.7175 53.5578 37.8921 43.6421L100.602 7.4368Z" fill="#9B46E0"/>
</mask>
<g mask="url(#mask1_5_3171)">
<g id="Group 12" filter="url(#filter0_f_5_3171)">
<mask id="mask2_5_3171" style="mask-type:alpha" maskUnits="userSpaceOnUse" x="-1" y="-13" width="260" height="280">
<path id="Subtract" fill-rule="evenodd" clip-rule="evenodd" d="M158.903 -4.86089C140.09 -15.713 116.911 -15.713 98.097 -4.86089L29.4032 34.7635C10.5897 45.6157 -0.999878 65.6713 -0.999878 87.3756V166.624C-0.999878 188.329 10.5897 208.384 29.4032 219.236L98.097 258.861C116.911 269.713 140.09 269.713 158.903 258.861L227.597 219.236C246.411 208.384 258 188.329 258 166.624V87.3756C258 65.6713 246.411 45.6157 227.597 34.7635L158.903 -4.86089ZM110.206 232.99C118.273 246.962 138.439 246.962 146.506 232.99L228.425 91.1025C236.491 77.1308 226.408 59.6662 210.275 59.6662L46.4371 59.6662C30.304 59.6662 20.2209 77.1308 28.2874 91.1025L110.206 232.99Z" fill="#9B46E0"/>
</mask>
<g mask="url(#mask2_5_3171)">
<path id="Polygon 6_2" d="M151.281 -6.49614C140.934 -12.5013 115.066 -12.5013 104.719 -6.49615L-0.358236 54.4884C-10.7052 60.4936 2.22849 68 22.9224 68L233.078 68C253.772 68 266.705 60.4936 256.358 54.4884L151.281 -6.49614Z" fill="black" fill-opacity="0.25"/>
<path id="Polygon 7" d="M233.108 214.558C243.28 208.689 255.99 186.674 255.987 174.931L255.954 55.6755C255.95 43.9324 243.236 51.2683 233.068 68.8801L129.806 247.735C119.638 265.347 119.642 280.026 129.813 274.157L233.108 214.558Z" fill="black" fill-opacity="0.5"/>
<path id="Polygon 8" d="M22.4334 216.016C11.913 209.946 -1.23331 187.176 -1.22995 175.03L-1.19584 51.6825C-1.19248 39.5365 11.958 47.1241 22.4751 65.3402L129.28 250.332C139.797 268.548 139.793 283.73 129.272 277.66L22.4334 216.016Z" fill="black" fill-opacity="0.35"/>
</g>
</g>
</g>
</g>
</g>
<g id="Symbol A">
<path id="Symbol" fill-rule="evenodd" clip-rule="evenodd" d="M142.939 106.939C142.654 107.01 142.361 106.853 142.263 106.576L131.967 77.4601C131.58 76.3649 129.994 76.4828 129.773 77.6233L123.162 111.739C123.09 112.11 122.685 112.309 122.347 112.14L82.9202 92.3586C81.8017 91.7975 80.7269 93.1873 81.5514 94.1287L108.533 124.938C108.772 125.21 108.699 125.633 108.384 125.81L85.1149 138.886C84.1495 139.428 84.4465 140.89 85.5471 141.013L110.55 143.8C110.877 143.837 111.105 144.141 111.048 144.465L105.332 176.97C105.137 178.08 106.499 178.77 107.278 177.955L130.176 154.022C130.393 153.794 130.755 153.786 130.982 154.005L152.647 174.799C153.462 175.582 154.797 174.829 154.549 173.726L147.965 144.469C147.892 144.145 148.111 143.827 148.44 143.78L174.73 140.011C175.806 139.857 176.076 138.428 175.13 137.891L153.786 125.785C153.487 125.616 153.405 125.223 153.61 124.948L170.72 102.057C171.362 101.197 170.57 100.007 169.53 100.268L142.939 106.939ZM151.201 114.887C151.513 114.447 151.097 113.86 150.579 114.008L137.61 117.727C137.3 117.816 136.978 117.63 136.9 117.316L133.294 102.845C133.15 102.265 132.324 102.27 132.187 102.851L127.508 122.568C127.421 122.936 127.006 123.119 126.676 122.935L110.734 114.048C110.178 113.737 109.609 114.436 110.025 114.918L121.395 128.082C121.657 128.386 121.532 128.858 121.154 128.992L105.55 134.518C105.004 134.712 105.061 135.501 105.628 135.615L119.213 138.341C119.526 138.404 119.726 138.711 119.657 139.023L115.921 155.893C115.796 156.461 116.5 156.83 116.895 156.405L130.151 142.154C130.377 141.911 130.762 141.912 130.987 142.156L142.045 154.176C142.441 154.607 143.153 154.231 143.019 153.66L139.355 138.036C139.274 137.691 139.526 137.356 139.88 137.337L155.697 136.498C156.257 136.468 156.442 135.733 155.963 135.442L142.959 127.528C142.676 127.356 142.599 126.981 142.791 126.711L151.201 114.887Z" fill="black"/>
</g>
<g id="Shine" filter="url(#filter1_f_5_3171)">
<path d="M46.1416 88.8368C46.1416 104.243 68.7984 141.325 80.1267 157.94C73.8017 149.255 59.5091 128.883 52.9386 116.875C44.7256 101.864 31.6979 80.6237 39.6278 72.6938C45.9717 66.35 71.7249 64.764 83.8085 64.764H148.38C174.152 64.764 195.204 71.3722 202.19 74.6763C202.19 74.6763 171.32 69.0121 148.38 69.0121H83.8085C69.0816 69.0121 46.1416 69.5785 46.1416 88.8368Z" fill="url(#paint0_radial_5_3171)"/>
</g>
</g>
</g>
<defs>
<filter id="filter0_f_5_3171" x="-12.9999" y="-23" width="283" height="302" filterUnits="userSpaceOnUse" color-interpolation-filters="sRGB">
<feFlood flood-opacity="0" result="BackgroundImageFix"/>
<feBlend mode="normal" in="SourceGraphic" in2="BackgroundImageFix" result="shape"/>
<feGaussianBlur stdDeviation="6" result="effect1_foregroundBlur_5_3171"/>
</filter>
<filter id="filter1_f_5_3171" x="31.4984" y="59.0998" width="176.356" height="104.504" filterUnits="userSpaceOnUse" color-interpolation-filters="sRGB">
<feFlood flood-opacity="0" result="BackgroundImageFix"/>
<feBlend mode="normal" in="SourceGraphic" in2="BackgroundImageFix" result="shape"/>
<feGaussianBlur stdDeviation="2.83209" result="effect1_foregroundBlur_5_3171"/>
</filter>
<radialGradient id="paint0_radial_5_3171" cx="0" cy="0" r="1" gradientUnits="userSpaceOnUse" gradientTransform="translate(37.1626 71.561) rotate(34.3188) scale(171.795 304.273)">
<stop stop-color="white"/>
<stop offset="1" stop-color="white" stop-opacity="0"/>
</radialGradient>
</defs>
</svg>
