<svg width="256" height="256" viewBox="0 0 256 256" fill="none" xmlns="http://www.w3.org/2000/svg">
<metadata>
  <rdf:RDF xmlns:rdf="http://www.w3.org/1999/02/22-rdf-syntax-ns#"
            xmlns:dc="http://purl.org/dc/elements/1.1/">
    <rdf:Description>
      <dc:title>swrpg-online.com art asset</dc:title>
      <dc:creator>Joshua Ziggas</dc:creator>
      <dc:rights>CC BY-NC-SA 4.0 - https://github.com/swrpg-online/art</dc:rights>
    </rdf:Description>
  </rdf:RDF>
</metadata>
<desc>
  wrpg-online.com SWRPG Dice Asset
  Created by: Joshua Ziggas
  Source: https://github.com/swrpg-online/art
  License: CC BY-NC-SA 4.0
</desc><g id="D8-Ability-Advantage-Advantage">
<g id="Dice">
<mask id="mask0_5_3179" style="mask-type:alpha" maskUnits="userSpaceOnUse" x="10" y="0" width="237" height="256">
<path id="Shape" d="M100.601 7.4368C117.776 -2.47893 138.936 -2.47893 156.11 7.4368L218.82 43.6421C235.994 53.5579 246.574 71.8829 246.574 91.7144V164.125C246.574 183.956 235.994 202.281 218.82 212.197L156.11 248.403C138.936 258.318 117.776 258.318 100.601 248.403L37.892 212.197C20.7174 202.281 10.1375 183.956 10.1375 164.125V91.7144C10.1375 71.8829 20.7174 53.5578 37.892 43.6421L100.601 7.4368Z" fill="#51B120"/>
</mask>
<g mask="url(#mask0_5_3179)">
<g id="Dice Color">
<g id="Color Component">
<rect width="256" height="256" fill="#51B120"/>
</g>
</g>
<g id="Shading">
<mask id="mask1_5_3179" style="mask-type:alpha" maskUnits="userSpaceOnUse" x="10" y="0" width="237" height="256">
<path id="Polygon 6" d="M100.601 7.4368C117.776 -2.47893 138.936 -2.47893 156.11 7.4368L218.82 43.6421C235.994 53.5579 246.574 71.8829 246.574 91.7144V164.125C246.574 183.956 235.994 202.281 218.82 212.197L156.11 248.403C138.936 258.318 117.776 258.318 100.601 248.403L37.892 212.197C20.7174 202.281 10.1375 183.956 10.1375 164.125V91.7144C10.1375 71.8829 20.7174 53.5578 37.892 43.6421L100.601 7.4368Z" fill="#9B46E0"/>
</mask>
<g mask="url(#mask1_5_3179)">
<g id="Group 12" filter="url(#filter0_f_5_3179)">
<mask id="mask2_5_3179" style="mask-type:alpha" maskUnits="userSpaceOnUse" x="-2" y="-13" width="260" height="280">
<path id="Subtract" fill-rule="evenodd" clip-rule="evenodd" d="M158.903 -4.86089C140.089 -15.713 116.91 -15.713 98.0966 -4.86089L29.4029 34.7635C10.5894 45.6157 -1.00024 65.6713 -1.00024 87.3756V166.624C-1.00024 188.329 10.5894 208.384 29.4029 219.236L98.0966 258.861C116.91 269.713 140.089 269.713 158.903 258.861L227.597 219.236C246.41 208.384 258 188.329 258 166.624V87.3756C258 65.6713 246.41 45.6157 227.597 34.7635L158.903 -4.86089ZM110.206 232.99C118.273 246.962 138.439 246.962 146.506 232.99L228.425 91.1025C236.491 77.1308 226.408 59.6662 210.275 59.6662L46.437 59.6662C30.3039 59.6662 20.2207 77.1308 28.2873 91.1025L110.206 232.99Z" fill="#9B46E0"/>
</mask>
<g mask="url(#mask2_5_3179)">
<path id="Polygon 6_2" d="M151.633 -7.43913C141.129 -13.5203 114.87 -13.5203 104.366 -7.43915L-2.30343 54.3174C-12.8072 60.3985 0.322489 68 21.33 68L234.669 68C255.677 68 268.807 60.3986 258.303 54.3174L151.633 -7.43913Z" fill="black" fill-opacity="0.25"/>
<path id="Polygon 7" d="M233.373 214.846C243.596 208.947 256.371 186.82 256.368 175.016L256.335 55.1504C256.332 43.3472 243.552 50.7207 233.332 68.4226L129.542 248.193C119.322 265.895 119.326 280.649 129.549 274.75L233.373 214.846Z" fill="black" fill-opacity="0.5"/>
<path id="Polygon 8" d="M22.1315 216.345C11.5516 210.241 -1.66907 187.342 -1.66569 175.127L-1.63139 51.0824C-1.62801 38.8678 11.5968 46.4983 22.1733 64.8173L129.582 250.855C140.159 269.174 140.154 284.442 129.574 278.338L22.1315 216.345Z" fill="black" fill-opacity="0.35"/>
</g>
</g>
</g>
</g>
</g>
<g id="Symbol B">
<g id="Symbol">
<path d="M115.675 169.411C115.916 169.654 115.941 170.037 115.731 170.307C112.548 174.409 111.47 177.852 111.47 181.644C111.47 190.512 119.482 197.545 127.169 200.384C127.705 200.582 128.294 200.582 128.83 200.384C136.517 197.545 144.53 190.512 144.53 181.644C144.53 177.852 143.451 174.409 140.268 170.307C140.059 170.037 140.084 169.654 140.325 169.411C144.356 165.357 149.43 156.739 142.513 149.842C142.03 149.361 142.409 148.53 143.062 148.731C152.267 151.555 161.839 163.076 152.169 178.425C152.021 178.66 152.202 178.962 152.474 178.898C154.409 178.449 157.735 176.871 160.441 173.134C160.831 172.595 161.675 172.827 161.594 173.486C160.964 178.67 157.561 186.638 147.247 189.948C146.97 190.037 146.928 190.404 147.193 190.525C148.762 191.239 151.549 192.071 154.577 191.795C155.197 191.738 155.645 192.455 155.229 192.915C149.321 199.444 138.66 203.3 128 203.3C117.339 203.3 106.679 199.444 100.77 192.915C100.355 192.455 100.803 191.738 101.422 191.795C104.451 192.071 107.237 191.239 108.807 190.525C109.072 190.404 109.03 190.037 108.753 189.948C98.4384 186.638 95.0352 178.67 94.4051 173.486C94.325 172.827 95.1687 172.595 95.559 173.134C98.2641 176.871 101.591 178.449 103.525 178.898C103.797 178.962 103.979 178.66 103.831 178.425C94.1603 163.076 103.733 151.555 112.938 148.731C113.591 148.53 113.969 149.361 113.487 149.842C106.57 156.739 111.644 165.357 115.675 169.411Z" fill="black"/>
<path d="M128 166.551C131.649 166.551 134.607 163.613 134.607 159.989C134.607 156.365 131.649 153.427 128 153.427C124.351 153.427 121.393 156.365 121.393 159.989C121.393 163.613 124.351 166.551 128 166.551Z" fill="black"/>
</g>
</g>
<g id="Symbol A">
<g id="Symbol_2">
<path d="M115.675 99.4111C115.916 99.6536 115.941 100.037 115.731 100.307C112.548 104.409 111.47 107.852 111.47 111.644C111.47 120.512 119.482 127.545 127.169 130.384C127.705 130.582 128.294 130.582 128.83 130.384C136.517 127.545 144.53 120.512 144.53 111.644C144.53 107.852 143.451 104.409 140.268 100.307C140.059 100.037 140.084 99.6536 140.325 99.4111C144.356 95.3571 149.43 86.7388 142.513 79.8415C142.03 79.3606 142.409 78.5303 143.062 78.7306C152.267 81.555 161.839 93.0762 152.169 108.425C152.021 108.66 152.202 108.962 152.474 108.898C154.409 108.449 157.735 106.871 160.441 103.134C160.831 102.595 161.675 102.827 161.594 103.486C160.964 108.67 157.561 116.638 147.247 119.948C146.97 120.037 146.928 120.404 147.193 120.525C148.762 121.239 151.549 122.071 154.577 121.795C155.197 121.738 155.645 122.455 155.229 122.915C149.321 129.444 138.66 133.3 128 133.3C117.339 133.3 106.679 129.444 100.77 122.915C100.355 122.455 100.803 121.738 101.422 121.795C104.451 122.071 107.237 121.239 108.807 120.525C109.072 120.404 109.03 120.037 108.753 119.948C98.4384 116.638 95.0352 108.67 94.4051 103.486C94.325 102.827 95.1687 102.595 95.559 103.134C98.2641 106.871 101.591 108.449 103.525 108.898C103.797 108.962 103.979 108.66 103.831 108.425C94.1603 93.0762 103.733 81.555 112.938 78.7306C113.591 78.5303 113.969 79.3606 113.487 79.8415C106.57 86.7388 111.644 95.3571 115.675 99.4111Z" fill="black"/>
<path d="M128 96.5512C131.649 96.5512 134.607 93.6131 134.607 89.9889C134.607 86.3646 131.649 83.4266 128 83.4266C124.351 83.4266 121.393 86.3646 121.393 89.9889C121.393 93.6131 124.351 96.5512 128 96.5512Z" fill="black"/>
</g>
</g>
<g id="Shine" filter="url(#filter1_f_5_3179)">
<path d="M46.1416 88.8368C46.1416 104.243 68.7984 141.325 80.1267 157.94C73.8017 149.255 59.5091 128.883 52.9386 116.875C44.7256 101.864 31.6979 80.6237 39.6278 72.6938C45.9717 66.35 71.7249 64.764 83.8085 64.764H148.38C174.152 64.764 195.204 71.3722 202.19 74.6763C202.19 74.6763 171.32 69.0121 148.38 69.0121H83.8085C69.0816 69.0121 46.1416 69.5785 46.1416 88.8368Z" fill="url(#paint0_radial_5_3179)"/>
</g>
</g>
</g>
<defs>
<filter id="filter0_f_5_3179" x="-13.0002" y="-24" width="283" height="303" filterUnits="userSpaceOnUse" color-interpolation-filters="sRGB">
<feFlood flood-opacity="0" result="BackgroundImageFix"/>
<feBlend mode="normal" in="SourceGraphic" in2="BackgroundImageFix" result="shape"/>
<feGaussianBlur stdDeviation="6" result="effect1_foregroundBlur_5_3179"/>
</filter>
<filter id="filter1_f_5_3179" x="31.4984" y="59.0998" width="176.356" height="104.504" filterUnits="userSpaceOnUse" color-interpolation-filters="sRGB">
<feFlood flood-opacity="0" result="BackgroundImageFix"/>
<feBlend mode="normal" in="SourceGraphic" in2="BackgroundImageFix" result="shape"/>
<feGaussianBlur stdDeviation="2.83209" result="effect1_foregroundBlur_5_3179"/>
</filter>
<radialGradient id="paint0_radial_5_3179" cx="0" cy="0" r="1" gradientUnits="userSpaceOnUse" gradientTransform="translate(37.1626 71.561) rotate(34.3188) scale(171.795 304.273)">
<stop stop-color="white"/>
<stop offset="1" stop-color="white" stop-opacity="0"/>
</radialGradient>
</defs>
</svg>
