<svg width="256" height="256" viewBox="0 0 256 256" fill="none" xmlns="http://www.w3.org/2000/svg">
<metadata>
  <rdf:RDF xmlns:rdf="http://www.w3.org/1999/02/22-rdf-syntax-ns#"
            xmlns:dc="http://purl.org/dc/elements/1.1/">
    <rdf:Description>
      <dc:title>swrpg-online.com art asset</dc:title>
      <dc:creator>Joshua Ziggas</dc:creator>
      <dc:rights>CC BY-NC-SA 4.0 - https://github.com/swrpg-online/art</dc:rights>
    </rdf:Description>
  </rdf:RDF>
</metadata>
<desc>
  wrpg-online.com SWRPG Dice Asset
  Created by: Joshua Ziggas
  Source: https://github.com/swrpg-online/art
  License: CC BY-NC-SA 4.0
</desc><g id="D8-Difficulty-Failure-Failure">
<g id="Dice">
<mask id="mask0_5_3072" style="mask-type:alpha" maskUnits="userSpaceOnUse" x="10" y="0" width="237" height="256">
<path id="Shape" d="M100.601 7.4368C117.776 -2.47893 138.936 -2.47893 156.11 7.4368L218.82 43.6421C235.994 53.5579 246.574 71.8829 246.574 91.7144V164.125C246.574 183.956 235.994 202.281 218.82 212.197L156.11 248.403C138.936 258.318 117.776 258.318 100.601 248.403L37.892 212.197C20.7174 202.281 10.1375 183.956 10.1375 164.125V91.7144C10.1375 71.8829 20.7174 53.5578 37.892 43.6421L100.601 7.4368Z" fill="#9B46E0"/>
</mask>
<g mask="url(#mask0_5_3072)">
<g id="Dice Color">
<g id="Color Component">
<rect width="256" height="256" fill="#9B46E0"/>
</g>
</g>
<g id="Shading">
<mask id="mask1_5_3072" style="mask-type:alpha" maskUnits="userSpaceOnUse" x="10" y="0" width="237" height="256">
<path id="Polygon 6" d="M100.601 7.4368C117.776 -2.47893 138.936 -2.47893 156.11 7.4368L218.82 43.6421C235.994 53.5579 246.574 71.8829 246.574 91.7144V164.125C246.574 183.956 235.994 202.281 218.82 212.197L156.11 248.403C138.936 258.318 117.776 258.318 100.601 248.403L37.892 212.197C20.7174 202.281 10.1375 183.956 10.1375 164.125V91.7144C10.1375 71.8829 20.7174 53.5578 37.892 43.6421L100.601 7.4368Z" fill="#9B46E0"/>
</mask>
<g mask="url(#mask1_5_3072)">
<g id="Group 12" filter="url(#filter0_f_5_3072)">
<mask id="mask2_5_3072" style="mask-type:alpha" maskUnits="userSpaceOnUse" x="-2" y="-13" width="260" height="280">
<path id="Subtract" fill-rule="evenodd" clip-rule="evenodd" d="M158.903 -4.86089C140.089 -15.713 116.91 -15.713 98.0966 -4.86089L29.4029 34.7635C10.5894 45.6157 -1.00024 65.6713 -1.00024 87.3756V166.624C-1.00024 188.329 10.5894 208.384 29.4029 219.236L98.0966 258.861C116.91 269.713 140.089 269.713 158.903 258.861L227.597 219.236C246.41 208.384 258 188.329 258 166.624V87.3756C258 65.6713 246.41 45.6157 227.597 34.7635L158.903 -4.86089ZM110.206 232.99C118.273 246.962 138.439 246.962 146.506 232.99L228.425 91.1025C236.491 77.1308 226.408 59.6662 210.275 59.6662L46.437 59.6662C30.3039 59.6662 20.2207 77.1308 28.2873 91.1025L110.206 232.99Z" fill="#9B46E0"/>
</mask>
<g mask="url(#mask2_5_3072)">
<path id="Polygon 6_2" d="M151.633 -7.43913C141.129 -13.5203 114.87 -13.5203 104.366 -7.43915L-2.30343 54.3174C-12.8072 60.3985 0.322489 68 21.33 68L234.669 68C255.677 68 268.807 60.3986 258.303 54.3174L151.633 -7.43913Z" fill="black" fill-opacity="0.25"/>
<path id="Polygon 7" d="M233.373 214.846C243.596 208.947 256.371 186.819 256.368 175.016L256.335 55.1504C256.332 43.3472 243.552 50.7206 233.332 68.4226L129.542 248.193C119.322 265.895 119.326 280.649 129.549 274.75L233.373 214.846Z" fill="black" fill-opacity="0.5"/>
<path id="Polygon 8" d="M22.1315 216.345C11.5516 210.241 -1.66907 187.342 -1.66569 175.127L-1.63139 51.0825C-1.62801 38.8678 11.5968 46.4983 22.1733 64.8173L129.582 250.855C140.159 269.174 140.154 284.442 129.574 278.338L22.1315 216.345Z" fill="black" fill-opacity="0.35"/>
</g>
</g>
</g>
</g>
</g>
<g id="Symbol B">
<path id="Symbol" fill-rule="evenodd" clip-rule="evenodd" d="M101.753 159.949C101.403 159.819 101.009 159.953 100.814 160.273C100.611 160.605 100.685 161.036 100.984 161.285C107.693 166.858 113.544 173.7 118.156 181.708C122.769 189.718 125.753 198.224 127.212 206.838C127.277 207.219 127.605 207.5 127.991 207.5C128.376 207.5 128.704 207.219 128.769 206.838C130.228 198.223 133.212 189.718 137.825 181.708C142.442 173.691 148.302 166.842 155.02 161.266C155.308 161.027 155.385 160.614 155.198 160.289C155.011 159.962 154.615 159.821 154.263 159.952C146.088 162.996 137.244 164.66 128.012 164.66C118.777 164.66 109.93 162.995 101.753 159.949Z" fill="white"/>
</g>
<g id="Symbol A">
<path id="Symbol_2" fill-rule="evenodd" clip-rule="evenodd" d="M101.753 89.9494C101.403 89.819 101.009 89.9535 100.814 90.273C100.611 90.6052 100.685 91.0362 100.984 91.2847C107.693 96.8578 113.544 103.7 118.156 111.708C122.769 119.718 125.753 128.224 127.212 136.838C127.277 137.219 127.605 137.5 127.991 137.5C128.376 137.5 128.704 137.219 128.769 136.838C130.228 128.223 133.212 119.718 137.825 111.708C142.442 103.691 148.302 96.8424 155.02 91.266C155.308 91.0267 155.385 90.6142 155.198 90.2888C155.011 89.9623 154.615 89.821 154.263 89.9521C146.088 92.9963 137.244 94.6597 128.012 94.6597C118.777 94.6597 109.93 92.9953 101.753 89.9494Z" fill="white"/>
</g>
<g id="Shine" filter="url(#filter1_f_5_3072)">
<path d="M46.1416 88.8368C46.1416 104.243 68.7984 141.325 80.1267 157.94C73.8017 149.255 59.5091 128.883 52.9386 116.875C44.7256 101.864 31.6979 80.6237 39.6278 72.6938C45.9717 66.35 71.7249 64.764 83.8085 64.764H148.38C174.152 64.764 195.204 71.3722 202.19 74.6763C202.19 74.6763 171.32 69.0121 148.38 69.0121H83.8085C69.0816 69.0121 46.1416 69.5785 46.1416 88.8368Z" fill="url(#paint0_radial_5_3072)"/>
</g>
</g>
</g>
<defs>
<filter id="filter0_f_5_3072" x="-13.0002" y="-24" width="283" height="303" filterUnits="userSpaceOnUse" color-interpolation-filters="sRGB">
<feFlood flood-opacity="0" result="BackgroundImageFix"/>
<feBlend mode="normal" in="SourceGraphic" in2="BackgroundImageFix" result="shape"/>
<feGaussianBlur stdDeviation="6" result="effect1_foregroundBlur_5_3072"/>
</filter>
<filter id="filter1_f_5_3072" x="31.4984" y="59.0998" width="176.356" height="104.504" filterUnits="userSpaceOnUse" color-interpolation-filters="sRGB">
<feFlood flood-opacity="0" result="BackgroundImageFix"/>
<feBlend mode="normal" in="SourceGraphic" in2="BackgroundImageFix" result="shape"/>
<feGaussianBlur stdDeviation="2.83209" result="effect1_foregroundBlur_5_3072"/>
</filter>
<radialGradient id="paint0_radial_5_3072" cx="0" cy="0" r="1" gradientUnits="userSpaceOnUse" gradientTransform="translate(37.1626 71.561) rotate(34.3188) scale(171.795 304.273)">
<stop stop-color="white"/>
<stop offset="1" stop-color="white" stop-opacity="0"/>
</radialGradient>
</defs>
</svg>
