<svg width="256" height="256" viewBox="0 0 256 256" fill="none" xmlns="http://www.w3.org/2000/svg">
<metadata>
  <rdf:RDF xmlns:rdf="http://www.w3.org/1999/02/22-rdf-syntax-ns#"
            xmlns:dc="http://purl.org/dc/elements/1.1/">
    <rdf:Description>
      <dc:title>swrpg-online.com art asset</dc:title>
      <dc:creator>Joshua Ziggas</dc:creator>
      <dc:rights>CC BY-NC-SA 4.0 - https://github.com/swrpg-online/art</dc:rights>
    </rdf:Description>
  </rdf:RDF>
</metadata>
<desc>
  wrpg-online.com SWRPG Dice Asset
  Created by: Joshua Ziggas
  Source: https://github.com/swrpg-online/art
  License: CC BY-NC-SA 4.0
</desc><g id="D8-Difficulty-Threat-Failure">
<g id="Dice">
<mask id="mask0_5_3132" style="mask-type:alpha" maskUnits="userSpaceOnUse" x="10" y="0" width="237" height="256">
<path id="Shape" d="M100.601 7.4368C117.776 -2.47893 138.936 -2.47893 156.11 7.4368L218.82 43.6421C235.994 53.5579 246.574 71.8829 246.574 91.7144V164.125C246.574 183.956 235.994 202.281 218.82 212.197L156.11 248.403C138.936 258.318 117.776 258.318 100.601 248.403L37.892 212.197C20.7174 202.281 10.1375 183.956 10.1375 164.125V91.7144C10.1375 71.8829 20.7174 53.5578 37.892 43.6421L100.601 7.4368Z" fill="#9B46E0"/>
</mask>
<g mask="url(#mask0_5_3132)">
<g id="Dice Color">
<g id="Color Component">
<rect width="256" height="256" fill="#9B46E0"/>
</g>
</g>
<g id="Shading">
<mask id="mask1_5_3132" style="mask-type:alpha" maskUnits="userSpaceOnUse" x="10" y="0" width="237" height="256">
<path id="Polygon 6" d="M100.601 7.4368C117.776 -2.47893 138.936 -2.47893 156.11 7.4368L218.82 43.6421C235.994 53.5579 246.574 71.8829 246.574 91.7144V164.125C246.574 183.956 235.994 202.281 218.82 212.197L156.11 248.403C138.936 258.318 117.776 258.318 100.601 248.403L37.892 212.197C20.7174 202.281 10.1375 183.956 10.1375 164.125V91.7144C10.1375 71.8829 20.7174 53.5578 37.892 43.6421L100.601 7.4368Z" fill="#9B46E0"/>
</mask>
<g mask="url(#mask1_5_3132)">
<g id="Group 12" filter="url(#filter0_f_5_3132)">
<mask id="mask2_5_3132" style="mask-type:alpha" maskUnits="userSpaceOnUse" x="-2" y="-13" width="260" height="280">
<path id="Subtract" fill-rule="evenodd" clip-rule="evenodd" d="M158.903 -4.86089C140.089 -15.713 116.91 -15.713 98.0966 -4.86089L29.4029 34.7635C10.5894 45.6157 -1.00024 65.6713 -1.00024 87.3756V166.624C-1.00024 188.329 10.5894 208.384 29.4029 219.236L98.0966 258.861C116.91 269.713 140.089 269.713 158.903 258.861L227.597 219.236C246.41 208.384 258 188.329 258 166.624V87.3756C258 65.6713 246.41 45.6157 227.597 34.7635L158.903 -4.86089ZM110.206 232.99C118.273 246.962 138.439 246.962 146.506 232.99L228.425 91.1025C236.491 77.1308 226.408 59.6662 210.275 59.6662L46.437 59.6662C30.3039 59.6662 20.2207 77.1308 28.2873 91.1025L110.206 232.99Z" fill="#9B46E0"/>
</mask>
<g mask="url(#mask2_5_3132)">
<path id="Polygon 6_2" d="M151.633 -7.43913C141.129 -13.5203 114.87 -13.5203 104.366 -7.43915L-2.30343 54.3174C-12.8072 60.3985 0.322489 68 21.33 68L234.669 68C255.677 68 268.807 60.3986 258.303 54.3174L151.633 -7.43913Z" fill="black" fill-opacity="0.25"/>
<path id="Polygon 7" d="M233.373 214.846C243.596 208.947 256.371 186.819 256.368 175.016L256.335 55.1504C256.332 43.3472 243.552 50.7206 233.332 68.4226L129.542 248.193C119.322 265.895 119.326 280.649 129.549 274.75L233.373 214.846Z" fill="black" fill-opacity="0.5"/>
<path id="Polygon 8" d="M22.1315 216.345C11.5516 210.241 -1.66907 187.342 -1.66569 175.127L-1.63139 51.0825C-1.62801 38.8678 11.5968 46.4983 22.1733 64.8173L129.582 250.855C140.159 269.174 140.154 284.442 129.574 278.338L22.1315 216.345Z" fill="black" fill-opacity="0.35"/>
</g>
</g>
</g>
</g>
</g>
<g id="Symbol B">
<path id="Symbol" fill-rule="evenodd" clip-rule="evenodd" d="M101.753 159.949C101.403 159.819 101.009 159.953 100.814 160.273C100.611 160.605 100.685 161.036 100.984 161.285C107.693 166.858 113.544 173.7 118.156 181.708C122.769 189.718 125.753 198.224 127.212 206.838C127.277 207.219 127.605 207.5 127.991 207.5C128.376 207.5 128.704 207.219 128.769 206.838C130.228 198.223 133.212 189.718 137.825 181.708C142.442 173.691 148.302 166.842 155.02 161.266C155.308 161.027 155.385 160.614 155.198 160.289C155.011 159.962 154.615 159.821 154.263 159.952C146.088 162.996 137.244 164.66 128.012 164.66C118.777 164.66 109.93 162.995 101.753 159.949Z" fill="white"/>
</g>
<g id="Symbol A">
<path id="Symbol_2" fill-rule="evenodd" clip-rule="evenodd" d="M140.312 89.9726C140.132 90.2851 140.134 90.6706 140.317 90.9813L147.291 102.782C147.471 103.087 147.798 103.274 148.152 103.274H155.235C156.004 103.274 156.485 102.44 156.101 101.774L145.666 83.7C145.281 83.0333 144.319 83.0333 143.934 83.7L140.312 89.9726ZM139.084 80.9C139.469 80.2333 138.988 79.4 138.218 79.4L117.348 79.4C116.579 79.4 116.097 80.2333 116.482 80.9L120.22 87.3736C120.399 87.683 120.729 87.8736 121.086 87.8736L134.48 87.8736C134.838 87.8736 135.168 87.683 135.346 87.3736L139.084 80.9ZM109.901 83.7C110.285 83.0333 111.248 83.0333 111.633 83.7L115.254 89.9726C115.435 90.2851 115.433 90.6706 115.249 90.9813L108.276 102.782C108.096 103.087 107.768 103.274 107.415 103.274H100.332C99.562 103.274 99.0809 102.44 99.4658 101.774L109.901 83.7ZM100.332 108.874C99.562 108.874 99.0809 109.707 99.4658 110.374L109.901 128.447C110.285 129.114 111.248 129.114 111.633 128.447L115.254 122.175C115.435 121.862 115.433 121.477 115.249 121.166L108.276 109.365C108.096 109.06 107.768 108.874 107.415 108.874H100.332ZM116.482 131.247C116.097 131.914 116.579 132.747 117.348 132.747H138.218C138.988 132.747 139.469 131.914 139.084 131.247L135.346 124.774C135.168 124.464 134.838 124.274 134.48 124.274H121.086C120.729 124.274 120.399 124.464 120.22 124.774L116.482 131.247ZM143.934 128.447C144.319 129.114 145.281 129.114 145.666 128.447L156.101 110.374C156.485 109.707 156.004 108.874 155.235 108.874H148.152C147.798 108.874 147.471 109.06 147.291 109.365L140.317 121.166C140.134 121.476 140.132 121.862 140.312 122.175L143.934 128.447ZM113.136 106.582C112.951 106.268 112.951 105.879 113.136 105.565L119.991 93.9648C120.171 93.6604 120.498 93.4736 120.852 93.4736L134.715 93.4736C135.068 93.4736 135.396 93.6604 135.576 93.9648L142.43 105.565C142.616 105.879 142.616 106.268 142.43 106.582L135.576 118.182C135.396 118.487 135.068 118.674 134.715 118.674H120.852C120.498 118.674 120.171 118.487 119.991 118.182L113.136 106.582ZM135.874 105.559C136.065 105.876 136.065 106.271 135.874 106.588L132.274 112.588C132.094 112.889 131.768 113.074 131.417 113.074H124.149C123.798 113.074 123.473 112.889 123.292 112.588L119.692 106.588C119.502 106.271 119.502 105.876 119.692 105.559L123.292 99.5591C123.473 99.2579 123.798 99.0736 124.149 99.0736H131.417C131.768 99.0736 132.094 99.2579 132.274 99.5591L135.874 105.559Z" fill="white"/>
</g>
<g id="Shine" filter="url(#filter1_f_5_3132)">
<path d="M46.1416 88.8368C46.1416 104.243 68.7984 141.325 80.1267 157.94C73.8017 149.255 59.5091 128.883 52.9386 116.875C44.7256 101.864 31.6979 80.6237 39.6278 72.6938C45.9717 66.35 71.7249 64.764 83.8085 64.764H148.38C174.152 64.764 195.204 71.3722 202.19 74.6763C202.19 74.6763 171.32 69.0121 148.38 69.0121H83.8085C69.0816 69.0121 46.1416 69.5785 46.1416 88.8368Z" fill="url(#paint0_radial_5_3132)"/>
</g>
</g>
</g>
<defs>
<filter id="filter0_f_5_3132" x="-13.0002" y="-24" width="283" height="303" filterUnits="userSpaceOnUse" color-interpolation-filters="sRGB">
<feFlood flood-opacity="0" result="BackgroundImageFix"/>
<feBlend mode="normal" in="SourceGraphic" in2="BackgroundImageFix" result="shape"/>
<feGaussianBlur stdDeviation="6" result="effect1_foregroundBlur_5_3132"/>
</filter>
<filter id="filter1_f_5_3132" x="31.4984" y="59.0998" width="176.356" height="104.504" filterUnits="userSpaceOnUse" color-interpolation-filters="sRGB">
<feFlood flood-opacity="0" result="BackgroundImageFix"/>
<feBlend mode="normal" in="SourceGraphic" in2="BackgroundImageFix" result="shape"/>
<feGaussianBlur stdDeviation="2.83209" result="effect1_foregroundBlur_5_3132"/>
</filter>
<radialGradient id="paint0_radial_5_3132" cx="0" cy="0" r="1" gradientUnits="userSpaceOnUse" gradientTransform="translate(37.1626 71.561) rotate(34.3188) scale(171.795 304.273)">
<stop stop-color="white"/>
<stop offset="1" stop-color="white" stop-opacity="0"/>
</radialGradient>
</defs>
</svg>
