<svg width="200" height="200" viewBox="0 0 200 200" fill="none" xmlns="http://www.w3.org/2000/svg">
<g clip-path="url(#clip0_2_8)">
<path d="M200 100C200 155.229 155.229 200 100 200C44.7707 200 0 155.229 0 100C0 44.7707 44.7707 0 100 0C155.229 0 200 44.7707 200 100Z" fill="#131313"/>
<path d="M193.103 100C193.103 151.419 151.419 193.103 100 193.103C48.581 193.103 6.89655 151.419 6.89655 100C6.89655 48.581 48.581 6.89655 100 6.89655C151.419 6.89655 193.103 48.581 193.103 100Z" fill="#252525"/>
<path d="M100 124.293C86.5828 124.293 75.7069 113.417 75.7069 100C75.7069 86.5828 86.5828 75.7069 100 75.7069C113.417 75.7069 124.293 86.5828 124.293 100C124.293 113.417 113.417 124.293 100 124.293ZM100 64.7241C80.5172 64.7241 64.7241 80.5172 64.7241 100C64.7241 119.483 80.5172 135.276 100 135.276C119.483 135.276 135.276 119.483 135.276 100C135.276 80.5172 119.483 64.7241 100 64.7241ZM160.052 67L140.086 93.2069C140.845 97.7035 140.845 102.297 140.086 106.793L160.052 133L143.586 129.828L163.328 163.414L129.707 143.638L132.862 160.121L106.621 140.121C102.236 140.833 97.7638 140.833 93.3793 140.121L67.1379 160.121L70.2931 143.638L36.7241 163.397L56.4138 129.828L39.9483 133L59.9138 106.793C59.1552 102.297 59.1552 97.7035 59.9138 93.2069L39.9483 67L56.4138 70.1724L36.6724 36.5862L70.2931 56.3621L67.1379 39.8793L93.3793 59.8793C97.7638 59.1672 102.236 59.1672 106.621 59.8793L132.862 39.8793L129.707 56.3621L163.276 36.6035L143.586 70.1724L160.052 67Z" fill="#92241C"/>
<path d="M100 2.55173C133.914 2.55173 164.086 20.2069 183.5 45C164.998 16.9241 133.624 0.0241394 100 0.0241394C66.3759 0.0241394 35.0017 16.9241 16.5 45C35.9138 20.2069 66.0862 2.55173 100 2.55173Z" fill="url(#paint0_linear_2_8)"/>
</g>
<defs>
<linearGradient id="paint0_linear_2_8" x1="100" y1="45" x2="100" y2="2.20451e-06" gradientUnits="userSpaceOnUse">
<stop/>
<stop offset="0.19" stop-color="#151515"/>
<stop offset="0.4" stop-color="#242424"/>
<stop offset="0.64" stop-color="#2D2D2D"/>
<stop offset="1" stop-color="#343434"/>
</linearGradient>
<clipPath id="clip0_2_8">
<rect width="200" height="200" fill="white"/>
</clipPath>
</defs>
</svg>
