<svg width="200" height="200" viewBox="0 0 200 200" fill="none" xmlns="http://www.w3.org/2000/svg">
<g clip-path="url(#clip0_2_21)">
<path d="M200 100C200 155.229 155.229 200 100 200C44.7707 200 0 155.229 0 100C0 44.7707 44.7707 0 100 0C155.229 0 200 44.7707 200 100Z" fill="#CCCCCC"/>
<path d="M193.103 100C193.103 151.419 151.419 193.103 100 193.103C48.581 193.103 6.89655 151.419 6.89655 100C6.89655 48.581 48.581 6.89655 100 6.89655C151.419 6.89655 193.103 48.581 193.103 100Z" fill="#197991"/>
<path d="M174.965 114.276C173.103 134.586 157.724 175.655 100.414 175.655C43.1034 175.655 27.7241 134.586 25.8621 114.276C31.0345 131.276 36.6724 134.966 42.9138 139.862C36.6034 133.155 24.8276 115.724 26.0172 93.1379C27.2069 70.5517 36.8276 62.1034 36.8276 62.1034C32.9431 71.2534 31.8224 81.3414 33.6034 91.1207C35.6552 103.345 43.9483 115.259 50.9483 119.69C47.1379 115.103 32.4827 91.9827 40.6034 65.7931C45.7241 49.9896 56.6569 36.7207 71.1896 28.6724C59.4827 36.8965 54.8276 44.431 57.069 60.6896C59.5172 78.3276 72.9827 92.1207 72.9827 92.1207C72.9827 92.1207 60.5345 108.81 65.5172 133.741C69.6207 154.431 95.7931 167.845 95.7931 167.845L96.6724 141.034L86.6207 151.914L92.8276 135.707L72.8276 132.293L92.8621 128.845L86.6207 112.638L97.1552 124.138L100.362 25.8621L103.569 124.138L114.207 112.638L108 128.845L128.034 132.293L108 135.741L114.207 151.948L104.207 141.052L105.086 167.862C105.086 167.862 131.207 154.362 135.31 133.724C140.293 108.793 127.845 92.1207 127.845 92.1207C127.845 92.1207 141.31 78.3276 143.759 60.7069C146 44.431 141.345 36.9483 129.724 28.6724C144.217 36.7172 155.122 49.9569 160.241 65.7241C168.345 91.9138 153.69 115.034 149.897 119.621C156.948 115.207 165.19 103.276 167.241 91.0517C169.022 81.2724 167.902 71.1845 164.017 62.0345C160.133 52.8845 173.655 70.6552 174.828 93.0689C176 115.483 164.207 133.155 157.914 139.862C164.155 135.034 169.879 131.241 174.965 114.276Z" fill="white"/>
<path d="M100 197.448C66.0862 197.448 35.9138 179.793 16.5 155C35.0017 183.076 66.3759 199.976 100 199.976C133.624 199.976 164.998 183.076 183.5 155C164.086 179.793 133.914 197.448 100 197.448Z" fill="url(#paint0_linear_2_21)"/>
</g>
<defs>
<linearGradient id="paint0_linear_2_21" x1="100" y1="155.017" x2="100" y2="200" gradientUnits="userSpaceOnUse">
<stop stop-color="#CCCCCC"/>
<stop offset="0.01" stop-color="#CBCBCB"/>
<stop offset="0.2" stop-color="#B5B5B5"/>
<stop offset="0.41" stop-color="#A6A6A6"/>
<stop offset="0.65" stop-color="#9D9D9D"/>
<stop offset="1" stop-color="#9A9A9A"/>
</linearGradient>
<clipPath id="clip0_2_21">
<rect width="200" height="200" fill="white"/>
</clipPath>
</defs>
</svg>
