<svg width="256" height="256" viewBox="0 0 256 256" fill="none" xmlns="http://www.w3.org/2000/svg">
<metadata>
  <rdf:RDF xmlns:rdf="http://www.w3.org/1999/02/22-rdf-syntax-ns#"
            xmlns:dc="http://purl.org/dc/elements/1.1/">
    <rdf:Description>
      <dc:title>swrpg-online.com art asset</dc:title>
      <dc:creator>Joshua Ziggas</dc:creator>
      <dc:rights>CC BY-NC-SA 4.0 - https://github.com/swrpg-online/art</dc:rights>
    </rdf:Description>
  </rdf:RDF>
</metadata>
<desc>
  wrpg-online.com SWRPG Dice Asset
  Created by: Joshua Ziggas
  Source: https://github.com/swrpg-online/art
  License: CC BY-NC-SA 4.0
</desc><g id="Symbol-Black-Triumph">
<path id="Symbol" fill-rule="evenodd" clip-rule="evenodd" d="M115.219 256H135.661C137.13 256 138.302 254.773 138.238 253.303C137.86 244.665 137.479 236.027 137.096 227.389C148.38 226.202 159.089 223.087 168.888 218.379L185.874 232.854C187.221 234.002 189.111 232.312 188.12 230.845L176.811 214.108C193.889 203.856 207.562 188.513 215.731 170.177L237.865 169.514C239.678 169.46 239.891 166.848 238.11 166.502L218.69 162.719C222.202 152.667 224.111 141.863 224.111 130.613C224.111 77.4534 181.487 34.2495 128.551 33.3129C128.145 23.6436 127.745 13.9742 127.351 4.30452C127.231 1.37173 125.46 -0.00012189 123.396 -0.00012207C121.332 -0.000122251 119.984 1.49665 119.901 4.30452C119.611 14.0704 119.322 23.8364 119.034 33.6024C68.9171 37.557 29.4803 79.4793 29.4803 130.613C29.4803 179.816 65.9967 220.491 113.407 227.014C113.152 235.79 112.897 244.566 112.641 253.341C112.599 254.797 113.766 256 115.219 256ZM206.604 160.364C210.058 151.103 211.946 141.078 211.946 130.613C211.946 84.3443 175.044 46.695 129.066 45.4915C130.35 75.7544 131.684 106.016 133.032 136.276L174.046 102.984C175.382 101.9 177.209 103.521 176.29 104.976L149.677 147.166C149.106 148.07 149.622 149.265 150.672 149.469L206.604 160.364ZM115.914 140.534L55.1451 124.739C53.5339 124.32 52.5179 126.422 53.8472 127.425L104.67 165.739C105.328 166.235 105.471 167.166 104.992 167.837L86.0555 194.34C85.1472 195.612 86.5172 197.262 87.934 196.603L114.649 184.177C114.354 194.376 114.058 204.574 113.763 214.772C72.9215 208.5 41.6444 173.209 41.6444 130.613C41.6444 86.3243 75.4559 49.9332 118.674 45.8441C117.747 77.4073 116.829 108.971 115.914 140.534ZM135.426 189.863C135.803 198.312 136.18 206.761 136.556 215.21C144.267 214.33 151.666 212.42 158.611 209.621L135.426 189.863ZM169.989 204.01C183.494 196.046 194.609 184.46 201.998 170.589L151.252 172.11C150.054 172.145 149.367 173.488 150.037 174.481L169.989 204.01Z" fill="black"/>
</g>
</svg>
