<svg width="256" height="256" viewBox="0 0 256 256" fill="none" xmlns="http://www.w3.org/2000/svg">
<metadata>
  <rdf:RDF xmlns:rdf="http://www.w3.org/1999/02/22-rdf-syntax-ns#"
            xmlns:dc="http://purl.org/dc/elements/1.1/">
    <rdf:Description>
      <dc:title>swrpg-online.com art asset</dc:title>
      <dc:creator>Joshua Ziggas</dc:creator>
      <dc:rights>CC BY-NC-SA 4.0 - https://github.com/swrpg-online/art</dc:rights>
    </rdf:Description>
  </rdf:RDF>
</metadata>
<desc>
  wrpg-online.com SWRPG Dice Asset
  Created by: Joshua Ziggas
  Source: https://github.com/swrpg-online/art
  License: CC BY-NC-SA 4.0
</desc><g id="Symbol-Black-Success">
<path id="Symbol" fill-rule="evenodd" clip-rule="evenodd" d="M161.547 80.7048C160.907 80.8655 160.249 80.5125 160.029 79.89L136.908 14.5069C136.039 12.0475 132.478 12.3123 131.981 14.8734L117.136 91.4839C116.975 92.3163 116.063 92.7647 115.305 92.3845L26.7679 47.9633C24.2562 46.7031 21.8427 49.824 23.6941 51.938L84.2849 121.124C84.8205 121.735 84.6578 122.685 83.9491 123.083L31.6964 152.445C29.5284 153.663 30.1953 156.946 32.6669 157.221L88.8138 163.481C89.5479 163.563 90.0606 164.248 89.9327 164.975L77.096 237.967C76.6575 240.46 79.7172 242.009 81.4671 240.18L132.885 186.435C133.374 185.924 134.186 185.906 134.696 186.396L183.348 233.093C185.178 234.85 188.175 233.159 187.618 230.684L172.833 164.984C172.669 164.255 173.161 163.542 173.9 163.436L232.937 154.973C235.353 154.627 235.96 151.416 233.836 150.212L185.904 123.027C185.234 122.646 185.049 121.764 185.51 121.147L223.933 69.7411C225.375 67.8114 223.596 65.1392 221.259 65.7254L161.547 80.7048ZM180.099 98.5526C180.801 97.5659 179.867 96.2466 178.703 96.5803L149.58 104.93C148.883 105.13 148.16 104.712 147.985 104.009L139.888 71.511C139.564 70.2094 137.711 70.2198 137.401 71.5249L126.895 115.802C126.699 116.628 125.768 117.038 125.026 116.625L89.2278 96.6684C87.9775 95.9713 86.7002 97.5397 87.6358 98.623L113.168 128.185C113.757 128.866 113.476 129.927 112.627 130.228L77.5852 142.638C76.3602 143.072 76.4865 144.844 77.7607 145.099L108.268 151.222C108.97 151.363 109.42 152.054 109.265 152.754L100.876 190.638C100.593 191.912 102.174 192.742 103.062 191.787L132.829 159.784C133.337 159.238 134.203 159.24 134.708 159.789L159.538 186.781C160.43 187.75 162.027 186.904 161.726 185.622L153.5 150.537C153.318 149.761 153.882 149.009 154.678 148.967L190.196 147.082C191.453 147.016 191.869 145.365 190.794 144.711L161.592 126.941C160.957 126.555 160.784 125.711 161.214 125.105L180.099 98.5526Z" fill="black"/>
</g>
</svg>
