<svg width="256" height="256" viewBox="0 0 256 256" fill="none" xmlns="http://www.w3.org/2000/svg">
<metadata>
  <rdf:RDF xmlns:rdf="http://www.w3.org/1999/02/22-rdf-syntax-ns#"
            xmlns:dc="http://purl.org/dc/elements/1.1/">
    <rdf:Description>
      <dc:title>swrpg-online.com art asset</dc:title>
      <dc:creator>Joshua Ziggas</dc:creator>
      <dc:rights>CC BY-NC-SA 4.0 - https://github.com/swrpg-online/art</dc:rights>
    </rdf:Description>
  </rdf:RDF>
</metadata>
<desc>
  wrpg-online.com SWRPG Dice Asset
  Created by: Joshua Ziggas
  Source: https://github.com/swrpg-online/art
  License: CC BY-NC-SA 4.0
</desc><g id="Symbol-Black-Threat">
<path id="Symbol" fill-rule="evenodd" clip-rule="evenodd" d="M172.708 69.9407C172.246 70.7407 172.251 71.7276 172.721 72.523L198.868 116.771C199.329 117.551 200.167 118.029 201.072 118.029H229.502C231.473 118.029 232.704 115.896 231.719 114.189L191.657 44.8C190.672 43.0933 188.208 43.0933 187.223 44.8L172.708 69.9407ZM169.487 34.56C170.472 32.8533 169.241 30.72 167.27 30.72L87.1462 30.72C85.1755 30.72 83.9439 32.8533 84.9292 34.56L99.8648 60.4291C100.322 61.2212 101.167 61.7091 102.082 61.7091L152.334 61.7091C153.249 61.7091 154.094 61.2212 154.551 60.4291L169.487 34.56ZM62.759 44.8C63.7443 43.0933 66.2077 43.0933 67.193 44.8L81.7078 69.9403C82.1697 70.7404 82.1647 71.7273 81.6947 72.5227L55.5477 116.771C55.0872 117.551 54.2491 118.029 53.3438 118.029H24.9142C22.9435 118.029 21.7118 115.896 22.6971 114.189L62.759 44.8ZM24.9142 138.509C22.9435 138.509 21.7118 140.642 22.6971 142.349L62.7589 211.738C63.7443 213.445 66.2076 213.445 67.193 211.738L81.7078 186.598C82.1697 185.798 82.1647 184.811 81.6947 184.015L55.5477 139.767C55.0872 138.987 54.2491 138.509 53.3438 138.509H24.9142ZM84.9292 221.978C83.9438 223.685 85.1755 225.818 87.1462 225.818H167.27C169.241 225.818 170.472 223.685 169.487 221.978L154.551 196.109C154.094 195.317 153.249 194.829 152.334 194.829H102.082C101.167 194.829 100.322 195.317 99.8647 196.109L84.9292 221.978ZM187.223 211.738C188.208 213.445 190.672 213.445 191.657 211.738L231.719 142.349C232.704 140.642 231.473 138.509 229.502 138.509H201.072C200.167 138.509 199.329 138.987 198.868 139.767L172.721 184.015C172.251 184.811 172.246 185.797 172.708 186.597L187.223 211.738ZM73.3116 129.571C72.8369 128.768 72.8369 127.77 73.3116 126.967L99.0279 83.4467C99.4885 82.6673 100.327 82.1891 101.232 82.1891L153.184 82.1891C154.089 82.1891 154.927 82.6673 155.388 83.4467L181.104 126.967C181.579 127.77 181.579 128.768 181.104 129.571L155.388 173.091C154.927 173.871 154.089 174.349 153.184 174.349H101.232C100.327 174.349 99.4885 173.871 99.0279 173.091L73.3116 129.571ZM157.138 126.952C157.624 127.763 157.624 128.775 157.138 129.586L143.314 152.626C142.851 153.397 142.018 153.869 141.119 153.869H113.298C112.398 153.869 111.565 153.397 111.102 152.626L97.2783 129.586C96.7919 128.775 96.7919 127.763 97.2783 126.952L111.102 103.912C111.565 103.141 112.398 102.669 113.298 102.669H141.119C142.018 102.669 142.851 103.141 143.314 103.912L157.138 126.952Z" fill="black"/>
</g>
</svg>
