<svg width="256" height="256" viewBox="0 0 256 256" fill="none" xmlns="http://www.w3.org/2000/svg">
<metadata>
  <rdf:RDF xmlns:rdf="http://www.w3.org/1999/02/22-rdf-syntax-ns#"
            xmlns:dc="http://purl.org/dc/elements/1.1/">
    <rdf:Description>
      <dc:title>swrpg-online.com art asset</dc:title>
      <dc:creator>Joshua Ziggas</dc:creator>
      <dc:rights>CC BY-NC-SA 4.0 - https://github.com/swrpg-online/art</dc:rights>
    </rdf:Description>
  </rdf:RDF>
</metadata>
<desc>
  wrpg-online.com SWRPG Dice Asset
  Created by: Joshua Ziggas
  Source: https://github.com/swrpg-online/art
  License: CC BY-NC-SA 4.0
</desc><g id="Symbol-White-Advantage">
<g id="Symbol">
<path d="M82.9248 103.903C83.8066 104.79 83.8988 106.192 83.1327 107.18C71.491 122.182 67.5469 134.775 67.5469 148.643C67.5469 181.071 96.851 206.793 124.963 217.177C126.924 217.901 129.076 217.901 131.037 217.177C159.149 206.793 188.453 181.071 188.453 148.643C188.453 134.775 184.509 122.182 172.867 107.18C172.101 106.192 172.193 104.79 173.075 103.903C187.816 89.0773 206.373 57.5591 181.076 32.3346C179.312 30.5759 180.696 27.5393 183.084 28.272C216.747 38.601 251.756 80.7358 216.39 136.869C215.848 137.729 216.513 138.831 217.507 138.6C224.582 136.957 236.747 131.186 246.641 117.518C248.068 115.546 251.154 116.396 250.86 118.807C248.556 137.764 236.11 166.906 198.39 179.008C197.375 179.334 197.222 180.679 198.191 181.12C203.931 183.732 214.122 186.772 225.198 185.764C227.463 185.558 229.103 188.178 227.582 189.859C205.973 213.737 166.987 227.84 128 227.84C89.0133 227.84 50.0266 213.737 28.4182 189.859C26.8974 188.178 28.537 185.558 30.8024 185.764C41.8777 186.772 52.0693 183.732 57.8086 181.12C58.7779 180.679 58.625 179.334 57.6104 179.008C19.89 166.906 7.44394 137.764 5.13949 118.807C4.84641 116.396 7.93202 115.546 9.35932 117.518C19.2525 131.186 31.4181 136.957 38.4928 138.6C39.4875 138.831 40.152 137.729 39.6101 136.869C4.24409 80.7358 39.2525 38.601 72.9164 28.272C75.3044 27.5393 76.6881 30.5759 74.9243 32.3346C49.6273 57.5591 68.1836 89.0773 82.9248 103.903Z" fill="white"/>
<path d="M128 93.4443C141.345 93.4443 152.164 82.6995 152.164 69.445C152.164 56.1906 141.345 45.4458 128 45.4458C114.655 45.4458 103.836 56.1906 103.836 69.445C103.836 82.6995 114.655 93.4443 128 93.4443Z" fill="white"/>
</g>
</g>
</svg>
