<svg width="256" height="256" viewBox="0 0 256 256" fill="none" xmlns="http://www.w3.org/2000/svg">
<metadata>
  <rdf:RDF xmlns:rdf="http://www.w3.org/1999/02/22-rdf-syntax-ns#"
            xmlns:dc="http://purl.org/dc/elements/1.1/">
    <rdf:Description>
      <dc:title>swrpg-online.com art asset</dc:title>
      <dc:creator>Joshua Ziggas</dc:creator>
      <dc:rights>CC BY-NC-SA 4.0 - https://github.com/swrpg-online/art</dc:rights>
    </rdf:Description>
  </rdf:RDF>
</metadata>
<desc>
  wrpg-online.com SWRPG Dice Asset
  Created by: Joshua Ziggas
  Source: https://github.com/swrpg-online/art
  License: CC BY-NC-SA 4.0
</desc><g id="Symbol-White-Despair">
<path id="Symbol" fill-rule="evenodd" clip-rule="evenodd" d="M53.5484 75.9572C70.4087 53.1724 97.4793 38.4 128 38.4C158.53 38.4 185.608 53.1813 202.467 75.9779C212.332 73.399 221.998 70.3194 231.438 66.7675C232.824 66.2458 234.384 66.808 235.12 68.1075C235.854 69.4025 235.553 71.044 234.417 71.9963C226.735 78.4406 219.337 85.3118 212.261 92.5997C217.59 104.287 220.559 117.276 220.559 130.959C220.559 178.789 184.28 218.145 137.739 223.012C134.967 233.065 132.734 243.196 131.029 253.366C130.775 254.883 129.483 256 127.964 256C126.446 256 125.153 254.883 124.899 253.366C123.194 243.194 120.96 233.06 118.187 223.004C71.6813 218.103 35.4411 178.763 35.4411 130.959C35.4411 117.296 38.4016 104.324 43.7162 92.65C36.653 85.3716 29.2686 78.5085 21.6 72.0709C20.4218 71.0819 20.131 69.3667 20.9294 68.0443C21.6972 66.7728 23.2494 66.2376 24.6285 66.7567C34.0519 70.3037 43.7011 73.3799 53.5484 75.9572ZM52.3616 101.948C48.905 110.955 47.0108 120.736 47.0108 130.959C47.0108 171.107 76.2243 204.432 114.554 210.837C108.241 191.208 99.8261 171.945 89.2302 153.351C78.5327 134.579 66.1402 117.417 52.3616 101.948ZM141.37 210.85C179.737 204.476 208.989 171.134 208.989 130.959C208.989 120.715 207.087 110.914 203.617 101.892C189.818 117.376 177.409 134.556 166.698 153.351C156.1 171.949 147.684 191.216 141.37 210.85ZM190.07 78.9312C170.066 83.2371 149.318 85.5027 128.047 85.5027C106.749 85.5027 85.9732 83.231 65.9448 78.9139C80.8013 61.2185 103.087 49.9699 128 49.9699C152.921 49.9699 175.213 61.2259 190.07 78.9312ZM72.3832 99.7769C71.5497 98.767 72.4269 97.2352 73.7088 97.4622C91.3648 100.589 109.523 102.218 128.047 102.218C146.505 102.218 164.597 100.601 182.192 97.4965C183.474 97.2704 184.35 98.8015 183.517 99.8111C172.048 113.712 161.604 128.795 152.364 145.01C143.115 161.24 135.438 177.961 129.288 194.989C128.841 196.226 127.087 196.226 126.64 194.989C120.49 177.961 112.814 161.24 103.565 145.01C94.3173 128.782 83.8636 113.687 72.3832 99.7769Z" fill="white"/>
</g>
</svg>
