<svg width="256" height="256" viewBox="0 0 256 256" fill="none" xmlns="http://www.w3.org/2000/svg">
<metadata>
  <rdf:RDF xmlns:rdf="http://www.w3.org/1999/02/22-rdf-syntax-ns#"
            xmlns:dc="http://purl.org/dc/elements/1.1/">
    <rdf:Description>
      <dc:title>swrpg-online.com art asset</dc:title>
      <dc:creator>Joshua Ziggas</dc:creator>
      <dc:rights>CC BY-NC-SA 4.0 - https://github.com/swrpg-online/art</dc:rights>
    </rdf:Description>
  </rdf:RDF>
</metadata>
<desc>
  wrpg-online.com SWRPG Dice Asset
  Created by: Joshua Ziggas
  Source: https://github.com/swrpg-online/art
  License: CC BY-NC-SA 4.0
</desc><g clip-path="url(#clip0_112_14277)">
<mask id="mask0_112_14277" style="mask-type:alpha" maskUnits="userSpaceOnUse" x="-1" y="14" width="257" height="227">
<path d="M110.378 235.925C121.122 242.653 134.765 242.653 145.51 235.925L236.465 178.966C240.041 176.727 243.005 173.634 245.089 169.965C259.671 144.301 259.619 112.765 245.037 87.1004C242.99 83.4977 240.09 80.4353 236.6 78.201L145.789 20.0602C134.912 13.0958 120.976 13.0958 110.098 20.0602L19.2873 78.201C15.7976 80.4353 12.8973 83.4977 10.8503 87.1004C-3.7317 112.765 -3.78385 144.301 10.7982 169.965C12.8826 173.634 15.8462 176.727 19.4224 178.966L110.378 235.925Z" fill="#D1D1D1"/>
</mask>
<g mask="url(#mask0_112_14277)">
<rect width="256" height="256" fill="#DBDBDB"/>
<g style="mix-blend-mode:multiply">
<g filter="url(#filter0_f_112_14277)">
<path fill-rule="evenodd" clip-rule="evenodd" d="M264.334 9.53711H-8.98047V246.552H264.334V9.53711ZM95.379 68.537L95.3797 68.5353C102.708 51.0425 113.835 24.484 126.609 24.484C139.383 24.484 150.51 51.0425 157.838 68.5353C158.929 71.1388 159.935 73.5415 160.851 75.6259C161.399 76.8737 162.015 78.2598 162.687 79.7689C170.672 97.7177 186.396 133.063 186.396 160.096C186.396 189.402 155.959 212.387 126.609 212.387C97.2587 212.387 66.8215 189.402 66.8215 160.096C66.8215 133.063 82.546 97.7177 90.531 79.7689L90.5311 79.7688C91.2024 78.2597 91.819 76.8737 92.367 75.6259C93.2822 73.5419 94.2886 71.1398 95.379 68.537Z" fill="#D8D6D6"/>
</g>
<g filter="url(#filter1_f_112_14277)">
<path d="M162.455 209.277C140.5 221.499 113.785 221.499 91.8298 209.277L75.3623 200.109C70.2021 197.44 57.3193 190.928 47.07 186.23C43.3888 184.543 39.4431 182.988 35.5116 181.438C25.7605 177.595 16.0965 173.787 10.7705 168.08C4.79173 161.674 2.22941 155.091 1.69559 152.6H-3.64258V256.694H257.928V152.6H252.589C252.056 155.091 249.493 161.674 243.515 168.08C238.188 173.787 228.525 177.595 218.773 181.438C214.842 182.988 210.896 184.543 207.215 186.23C196.966 190.928 184.083 197.44 178.923 200.109L162.455 209.277Z" fill="#595959"/>
</g>
<g filter="url(#filter2_f_112_14277)">
<path d="M179.436 105.141C169.728 84.5722 145.995 32.61 151.389 26.656C154.625 22.867 168.11 29.3623 184.291 38.0227C200.472 46.6831 233.374 69.9578 244.161 80.7833C254.949 91.6087 261.421 112.718 260.342 131.663C259.263 150.607 248.476 177.13 227.98 171.176C207.484 165.222 189.145 125.709 179.436 105.141Z" fill="#B9B9B9"/>
</g>
<g filter="url(#filter3_f_112_14277)">
<path d="M74.8488 105.141C84.5575 84.5722 108.29 32.61 102.896 26.656C99.6599 22.867 86.1756 29.3623 69.9944 38.0227C53.8133 46.6831 20.9115 69.9578 10.1241 80.7833C-0.663345 91.6087 -7.13581 112.718 -6.05707 131.663C-4.97832 150.607 5.80912 177.13 26.3053 171.176C46.8014 165.222 65.1401 125.709 74.8488 105.141Z" fill="#C7C7C7"/>
</g>
</g>
</g>
<path d="M132.793 169C131.206 169 129.92 167.711 129.92 166.122V122.918C129.92 121.329 131.206 120.04 132.793 120.04H173.127C174.714 120.04 176 121.329 176 122.918V166.122C176 167.711 174.714 169 173.127 169H132.793ZM143.226 131.231C142.432 131.231 141.789 131.875 141.789 132.67V156.37C141.789 157.165 142.432 157.809 143.226 157.809H162.694C163.488 157.809 164.131 157.165 164.131 156.37V132.67C164.131 131.875 163.488 131.231 162.694 131.231H143.226ZM147.374 140.364C147.374 139.569 148.018 138.925 148.811 138.925H157.109C157.902 138.925 158.545 139.569 158.545 140.364V148.676C158.545 149.471 157.902 150.115 157.109 150.115H148.811C148.018 150.115 147.374 149.471 147.374 148.676V140.364Z" fill="black"/>
<path d="M82.8732 169C81.2864 169 80 167.711 80 166.122V160.687C80 159.098 81.2864 157.809 82.8732 157.809H112.774C113.568 157.809 114.211 157.165 114.211 156.37V132.67C114.211 131.875 113.568 131.231 112.774 131.231H82.8732C81.2864 131.231 80 129.942 80 128.353V122.918C80 121.329 81.2864 120.04 82.8732 120.04H123.207C124.794 120.04 126.08 121.329 126.08 122.918V166.122C126.08 167.711 124.794 169 123.207 169H82.8732ZM82.8732 150.115C81.2864 150.115 80 148.827 80 147.237V141.803C80 140.213 81.2864 138.925 82.8732 138.925H105.752C107.339 138.925 108.625 140.213 108.625 141.803V147.237C108.625 148.827 107.339 150.115 105.752 150.115H82.8732Z" fill="black"/>
<g filter="url(#filter4_f_112_14277)">
<path fill-rule="evenodd" clip-rule="evenodd" d="M93.2445 69.5637L93.2448 69.5629C100.573 52.5103 111.7 26.6201 124.474 26.6201C126.14 26.6201 127.778 27.0605 129.383 27.8643C117.238 29.8124 106.692 54.9551 99.6506 71.7404C98.5599 74.3406 97.5533 76.7403 96.6379 78.8222C96.09 80.0684 95.4733 81.4527 94.802 82.9598L94.8019 82.96C86.8169 100.886 71.0924 136.188 71.0924 163.188C71.0924 176.477 77.3673 188.466 86.9663 197.594C73.8485 188.313 64.6865 174.494 64.6865 158.82C64.6865 132.467 80.411 98.0108 88.3961 80.5138L88.3968 80.5123C89.0679 79.0418 89.6843 77.6911 90.2321 76.475C91.1474 74.4433 92.1539 72.1013 93.2445 69.5637Z" fill="white"/>
</g>
</g>
<defs>
<filter id="filter0_f_112_14277" x="-18.9805" y="-0.462891" width="293.314" height="257.015" filterUnits="userSpaceOnUse" color-interpolation-filters="sRGB">
<feFlood flood-opacity="0" result="BackgroundImageFix"/>
<feBlend mode="normal" in="SourceGraphic" in2="BackgroundImageFix" result="shape"/>
<feGaussianBlur stdDeviation="5" result="effect1_foregroundBlur_112_14277"/>
</filter>
<filter id="filter1_f_112_14277" x="-13.6426" y="142.6" width="281.57" height="124.095" filterUnits="userSpaceOnUse" color-interpolation-filters="sRGB">
<feFlood flood-opacity="0" result="BackgroundImageFix"/>
<feBlend mode="normal" in="SourceGraphic" in2="BackgroundImageFix" result="shape"/>
<feGaussianBlur stdDeviation="5" result="effect1_foregroundBlur_112_14277"/>
</filter>
<filter id="filter2_f_112_14277" x="140.602" y="15.5518" width="129.857" height="166.477" filterUnits="userSpaceOnUse" color-interpolation-filters="sRGB">
<feFlood flood-opacity="0" result="BackgroundImageFix"/>
<feBlend mode="normal" in="SourceGraphic" in2="BackgroundImageFix" result="shape"/>
<feGaussianBlur stdDeviation="5" result="effect1_foregroundBlur_112_14277"/>
</filter>
<filter id="filter3_f_112_14277" x="-16.1738" y="15.5518" width="129.857" height="166.477" filterUnits="userSpaceOnUse" color-interpolation-filters="sRGB">
<feFlood flood-opacity="0" result="BackgroundImageFix"/>
<feBlend mode="normal" in="SourceGraphic" in2="BackgroundImageFix" result="shape"/>
<feGaussianBlur stdDeviation="5" result="effect1_foregroundBlur_112_14277"/>
</filter>
<filter id="filter4_f_112_14277" x="60.6865" y="22.6201" width="72.6963" height="178.975" filterUnits="userSpaceOnUse" color-interpolation-filters="sRGB">
<feFlood flood-opacity="0" result="BackgroundImageFix"/>
<feBlend mode="normal" in="SourceGraphic" in2="BackgroundImageFix" result="shape"/>
<feGaussianBlur stdDeviation="2" result="effect1_foregroundBlur_112_14277"/>
</filter>
<clipPath id="clip0_112_14277">
<rect width="256" height="256" fill="white"/>
</clipPath>
</defs>
</svg>
