<svg width="256" height="256" viewBox="0 0 256 256" fill="none" xmlns="http://www.w3.org/2000/svg">
<metadata>
  <rdf:RDF xmlns:rdf="http://www.w3.org/1999/02/22-rdf-syntax-ns#"
            xmlns:dc="http://purl.org/dc/elements/1.1/">
    <rdf:Description>
      <dc:title>swrpg-online.com art asset</dc:title>
      <dc:creator>Joshua Ziggas</dc:creator>
      <dc:rights>CC BY-NC-SA 4.0 - https://github.com/swrpg-online/art</dc:rights>
    </rdf:Description>
  </rdf:RDF>
</metadata>
<desc>
  wrpg-online.com SWRPG Dice Asset
  Created by: Joshua Ziggas
  Source: https://github.com/swrpg-online/art
  License: CC BY-NC-SA 4.0
</desc><g clip-path="url(#clip0_112_22788)">
<mask id="mask0_112_22788" style="mask-type:alpha" maskUnits="userSpaceOnUse" x="-1" y="14" width="257" height="227">
<path d="M110.378 235.925C121.122 242.654 134.765 242.654 145.51 235.925L236.465 178.967C240.041 176.728 243.005 173.635 245.089 169.966C259.671 144.302 259.619 112.766 245.037 87.1014C242.99 83.4986 240.09 80.4362 236.6 78.202L145.789 20.0612C134.912 13.0968 120.976 13.0968 110.098 20.0612L19.2873 78.202C15.7976 80.4362 12.8973 83.4986 10.8503 87.1014C-3.7317 112.766 -3.78385 144.302 10.7982 169.966C12.8826 173.635 15.8462 176.728 19.4224 178.967L110.378 235.925Z" fill="#D1D1D1"/>
</mask>
<g mask="url(#mask0_112_22788)">
<rect width="256" height="256" fill="#FFE723"/>
<g style="mix-blend-mode:multiply">
<g filter="url(#filter0_f_112_22788)">
<path fill-rule="evenodd" clip-rule="evenodd" d="M264.334 9.53906H-8.98047V246.554H264.334V9.53906ZM95.379 68.5389L95.3797 68.5372C102.708 51.0444 113.835 24.4859 126.609 24.4859C139.383 24.4859 150.51 51.0444 157.838 68.5372C158.929 71.1407 159.935 73.5434 160.851 75.6278C161.399 76.8757 162.015 78.2618 162.687 79.7708C170.672 97.7196 186.396 133.065 186.396 160.098C186.396 189.404 155.959 212.389 126.609 212.389C97.2587 212.389 66.8215 189.404 66.8215 160.098C66.8215 133.065 82.546 97.7196 90.531 79.7708L90.5311 79.7707C91.2024 78.2617 91.819 76.8756 92.367 75.6278C93.2822 73.5439 94.2886 71.1418 95.379 68.5389Z" fill="#D8D6D6"/>
</g>
<g filter="url(#filter1_f_112_22788)">
<path d="M162.455 209.279C140.5 221.501 113.785 221.501 91.8298 209.279L75.3623 200.111C70.2021 197.442 57.3193 190.93 47.07 186.232C43.3888 184.545 39.4431 182.99 35.5116 181.44C25.7605 177.597 16.0965 173.789 10.7705 168.082C4.79173 161.676 2.22941 155.093 1.69559 152.602H-3.64258V256.696H257.928V152.602H252.589C252.056 155.093 249.493 161.676 243.515 168.082C238.188 173.789 228.525 177.597 218.773 181.44C214.842 182.99 210.896 184.545 207.215 186.232C196.966 190.93 184.083 197.442 178.923 200.111L162.455 209.279Z" fill="#595959"/>
</g>
<g filter="url(#filter2_f_112_22788)">
<path d="M179.436 105.142C169.728 84.5731 145.995 32.6109 151.389 26.6569C154.625 22.868 168.11 29.3633 184.291 38.0237C200.472 46.684 233.374 69.9588 244.161 80.7842C254.949 91.6097 261.421 112.719 260.342 131.664C259.263 150.608 248.476 177.131 227.98 171.177C207.484 165.223 189.145 125.71 179.436 105.142Z" fill="#B9B9B9"/>
</g>
<g filter="url(#filter3_f_112_22788)">
<path d="M74.8488 105.142C84.5575 84.5731 108.29 32.6109 102.896 26.6569C99.6599 22.868 86.1756 29.3633 69.9944 38.0237C53.8133 46.684 20.9115 69.9588 10.1241 80.7842C-0.663345 91.6097 -7.13581 112.719 -6.05707 131.664C-4.97832 150.608 5.80912 177.131 26.3053 171.177C46.8014 165.223 65.1401 125.71 74.8488 105.142Z" fill="#C7C7C7"/>
</g>
</g>
</g>
<g clip-path="url(#clip1_112_22788)">
<path d="M132.793 168.999C131.206 168.999 129.92 167.71 129.92 166.121V122.917C129.92 121.328 131.206 120.039 132.793 120.039H173.127C174.714 120.039 176 121.328 176 122.917V166.121C176 167.71 174.714 168.999 173.127 168.999H132.793ZM143.226 131.23C142.432 131.23 141.789 131.874 141.789 132.669V156.369C141.789 157.164 142.432 157.808 143.226 157.808H162.694C163.488 157.808 164.131 157.164 164.131 156.369V132.669C164.131 131.874 163.488 131.23 162.694 131.23H143.226ZM147.374 140.363C147.374 139.568 148.018 138.924 148.811 138.924H157.109C157.902 138.924 158.545 139.568 158.545 140.363V148.675C158.545 149.47 157.902 150.114 157.109 150.114H148.811C148.018 150.114 147.374 149.47 147.374 148.675V140.363Z" fill="black"/>
<path d="M126.09 127.893C126.09 129.482 124.801 130.771 123.212 130.771H82.806C81.2164 130.771 79.9277 129.482 79.9277 127.893V122.458C79.9277 120.869 81.2164 119.58 82.806 119.58H123.212C124.801 119.58 126.09 120.869 126.09 122.458V127.893ZM82.806 168.54C81.2164 168.54 79.9277 167.251 79.9277 165.662V141.343C79.9277 139.753 81.2164 138.465 82.806 138.465H123.212C124.801 138.465 126.09 139.753 126.09 141.343V165.662C126.09 167.251 124.801 168.54 123.212 168.54H82.806ZM93.2572 149.656C92.4624 149.656 91.818 150.3 91.818 151.095V155.91C91.818 156.705 92.4624 157.349 93.2572 157.349H112.761C113.555 157.349 114.2 156.705 114.2 155.91V151.095C114.2 150.3 113.555 149.656 112.761 149.656H93.2572Z" fill="black"/>
</g>
<g filter="url(#filter4_f_112_22788)">
<path fill-rule="evenodd" clip-rule="evenodd" d="M93.2445 69.5646L93.2448 69.5638C100.573 52.5112 111.7 26.6211 124.474 26.6211C126.14 26.6211 127.778 27.0615 129.383 27.8653C117.238 29.8134 106.692 54.9561 99.6506 71.7413C98.5599 74.3416 97.5533 76.7413 96.6379 78.8231C96.09 80.0694 95.4733 81.4537 94.802 82.9608L94.8019 82.961C86.8169 100.887 71.0924 136.189 71.0924 163.188C71.0924 176.478 77.3673 188.467 86.9663 197.595C73.8485 188.314 64.6865 174.495 64.6865 158.821C64.6865 132.468 80.411 98.0118 88.3961 80.5147L88.3968 80.5133C89.0679 79.0427 89.6843 77.692 90.2321 76.476C91.1474 74.4442 92.1539 72.1023 93.2445 69.5646Z" fill="white"/>
</g>
</g>
<defs>
<filter id="filter0_f_112_22788" x="-18.9805" y="-0.460938" width="293.314" height="257.014" filterUnits="userSpaceOnUse" color-interpolation-filters="sRGB">
<feFlood flood-opacity="0" result="BackgroundImageFix"/>
<feBlend mode="normal" in="SourceGraphic" in2="BackgroundImageFix" result="shape"/>
<feGaussianBlur stdDeviation="5" result="effect1_foregroundBlur_112_22788"/>
</filter>
<filter id="filter1_f_112_22788" x="-13.6426" y="142.602" width="281.57" height="124.094" filterUnits="userSpaceOnUse" color-interpolation-filters="sRGB">
<feFlood flood-opacity="0" result="BackgroundImageFix"/>
<feBlend mode="normal" in="SourceGraphic" in2="BackgroundImageFix" result="shape"/>
<feGaussianBlur stdDeviation="5" result="effect1_foregroundBlur_112_22788"/>
</filter>
<filter id="filter2_f_112_22788" x="140.602" y="15.5527" width="129.857" height="166.477" filterUnits="userSpaceOnUse" color-interpolation-filters="sRGB">
<feFlood flood-opacity="0" result="BackgroundImageFix"/>
<feBlend mode="normal" in="SourceGraphic" in2="BackgroundImageFix" result="shape"/>
<feGaussianBlur stdDeviation="5" result="effect1_foregroundBlur_112_22788"/>
</filter>
<filter id="filter3_f_112_22788" x="-16.1738" y="15.5527" width="129.857" height="166.477" filterUnits="userSpaceOnUse" color-interpolation-filters="sRGB">
<feFlood flood-opacity="0" result="BackgroundImageFix"/>
<feBlend mode="normal" in="SourceGraphic" in2="BackgroundImageFix" result="shape"/>
<feGaussianBlur stdDeviation="5" result="effect1_foregroundBlur_112_22788"/>
</filter>
<filter id="filter4_f_112_22788" x="60.6865" y="22.6211" width="72.6963" height="178.975" filterUnits="userSpaceOnUse" color-interpolation-filters="sRGB">
<feFlood flood-opacity="0" result="BackgroundImageFix"/>
<feBlend mode="normal" in="SourceGraphic" in2="BackgroundImageFix" result="shape"/>
<feGaussianBlur stdDeviation="2" result="effect1_foregroundBlur_112_22788"/>
</filter>
<clipPath id="clip0_112_22788">
<rect width="256" height="256" fill="white"/>
</clipPath>
<clipPath id="clip1_112_22788">
<rect width="96" height="96" fill="white" transform="translate(80 97)"/>
</clipPath>
</defs>
</svg>
