<svg width="256" height="256" viewBox="0 0 256 256" fill="none" xmlns="http://www.w3.org/2000/svg">
<metadata>
  <rdf:RDF xmlns:rdf="http://www.w3.org/1999/02/22-rdf-syntax-ns#"
            xmlns:dc="http://purl.org/dc/elements/1.1/">
    <rdf:Description>
      <dc:title>swrpg-online.com art asset</dc:title>
      <dc:creator>Joshua Ziggas</dc:creator>
      <dc:rights>CC BY-NC-SA 4.0 - https://github.com/swrpg-online/art</dc:rights>
    </rdf:Description>
  </rdf:RDF>
</metadata>
<desc>
  wrpg-online.com SWRPG Dice Asset
  Created by: Joshua Ziggas
  Source: https://github.com/swrpg-online/art
  License: CC BY-NC-SA 4.0
</desc><g clip-path="url(#clip0_112_22792)">
<mask id="mask0_112_22792" style="mask-type:alpha" maskUnits="userSpaceOnUse" x="-1" y="14" width="257" height="227">
<path d="M110.378 235.925C121.122 242.654 134.765 242.654 145.51 235.925L236.465 178.967C240.041 176.728 243.005 173.635 245.089 169.966C259.671 144.302 259.619 112.766 245.037 87.1014C242.99 83.4986 240.09 80.4362 236.6 78.202L145.789 20.0612C134.912 13.0968 120.976 13.0968 110.098 20.0612L19.2873 78.202C15.7976 80.4362 12.8973 83.4986 10.8503 87.1014C-3.7317 112.766 -3.78385 144.302 10.7982 169.966C12.8826 173.635 15.8462 176.728 19.4224 178.967L110.378 235.925Z" fill="#D1D1D1"/>
</mask>
<g mask="url(#mask0_112_22792)">
<rect width="256" height="256" fill="#FFE723"/>
<g style="mix-blend-mode:multiply">
<g filter="url(#filter0_f_112_22792)">
<path fill-rule="evenodd" clip-rule="evenodd" d="M264.334 9.53906H-8.98047V246.554H264.334V9.53906ZM95.379 68.5389L95.3797 68.5372C102.708 51.0444 113.835 24.4859 126.609 24.4859C139.383 24.4859 150.51 51.0444 157.838 68.5372C158.929 71.1407 159.935 73.5434 160.851 75.6278C161.399 76.8757 162.015 78.2618 162.687 79.7708C170.672 97.7196 186.396 133.065 186.396 160.098C186.396 189.404 155.959 212.389 126.609 212.389C97.2587 212.389 66.8215 189.404 66.8215 160.098C66.8215 133.065 82.546 97.7196 90.531 79.7708L90.5311 79.7707C91.2024 78.2617 91.819 76.8756 92.367 75.6278C93.2822 73.5439 94.2886 71.1418 95.379 68.5389Z" fill="#D8D6D6"/>
</g>
<g filter="url(#filter1_f_112_22792)">
<path d="M162.455 209.279C140.5 221.501 113.785 221.501 91.8298 209.279L75.3623 200.111C70.2021 197.442 57.3193 190.93 47.07 186.232C43.3888 184.545 39.4431 182.99 35.5116 181.44C25.7605 177.597 16.0965 173.789 10.7705 168.082C4.79173 161.676 2.22941 155.093 1.69559 152.602H-3.64258V256.696H257.928V152.602H252.589C252.056 155.093 249.493 161.676 243.515 168.082C238.188 173.789 228.525 177.597 218.773 181.44C214.842 182.99 210.896 184.545 207.215 186.232C196.966 190.93 184.083 197.442 178.923 200.111L162.455 209.279Z" fill="#595959"/>
</g>
<g filter="url(#filter2_f_112_22792)">
<path d="M179.436 105.142C169.728 84.5731 145.995 32.6109 151.389 26.6569C154.625 22.868 168.11 29.3633 184.291 38.0237C200.472 46.684 233.374 69.9588 244.161 80.7842C254.949 91.6097 261.421 112.719 260.342 131.664C259.263 150.608 248.476 177.131 227.98 171.177C207.484 165.223 189.145 125.71 179.436 105.142Z" fill="#B9B9B9"/>
</g>
<g filter="url(#filter3_f_112_22792)">
<path d="M74.8488 105.142C84.5575 84.5731 108.29 32.6109 102.896 26.6569C99.6599 22.868 86.1756 29.3633 69.9944 38.0237C53.8133 46.684 20.9115 69.9588 10.1241 80.7842C-0.663345 91.6097 -7.13581 112.719 -6.05707 131.664C-4.97832 150.608 5.80912 177.131 26.3053 171.177C46.8014 165.223 65.1401 125.71 74.8488 105.142Z" fill="#C7C7C7"/>
</g>
</g>
</g>
<g clip-path="url(#clip1_112_22792)">
<path d="M123.553 120.039C125.152 120.039 126.449 121.336 126.449 122.935V147.405C126.449 149.005 125.152 150.301 123.553 150.301H82.8962C81.2967 150.301 80 149.005 80 147.405V141.937C80 140.338 81.2967 139.041 82.8962 139.041H113.037C113.837 139.041 114.485 138.393 114.485 137.593V132.748C114.485 131.948 113.837 131.299 113.037 131.299H82.8962C81.2967 131.299 80 130.003 80 128.403V122.935C80 121.336 81.2967 120.039 82.8962 120.039H123.553ZM80 160.939C80 159.34 81.2967 158.043 82.8962 158.043H123.553C125.152 158.043 126.449 159.34 126.449 160.939V166.407C126.449 168.007 125.152 169.303 123.553 169.303H82.8962C81.2967 169.303 80 168.007 80 166.407V160.939Z" fill="black"/>
<path d="M132.447 169.303C130.848 169.303 129.551 168.007 129.551 166.407V122.935C129.551 121.336 130.848 120.039 132.447 120.039H173.104C174.703 120.039 176 121.336 176 122.935V166.407C176 168.007 174.703 169.303 173.104 169.303H132.447ZM142.963 131.299C142.163 131.299 141.515 131.948 141.515 132.748V156.595C141.515 157.395 142.163 158.043 142.963 158.043H162.588C163.388 158.043 164.036 157.395 164.036 156.595V132.748C164.036 131.948 163.388 131.299 162.588 131.299H142.963ZM147.145 140.489C147.145 139.689 147.794 139.041 148.593 139.041H156.958C157.757 139.041 158.406 139.689 158.406 140.489V148.853C158.406 149.653 157.757 150.301 156.958 150.301H148.593C147.794 150.301 147.145 149.653 147.145 148.853V140.489Z" fill="black"/>
</g>
<g filter="url(#filter4_f_112_22792)">
<path fill-rule="evenodd" clip-rule="evenodd" d="M93.2445 69.5646L93.2448 69.5638C100.573 52.5112 111.7 26.6211 124.474 26.6211C126.14 26.6211 127.778 27.0615 129.383 27.8653C117.238 29.8134 106.692 54.9561 99.6506 71.7413C98.5599 74.3416 97.5533 76.7413 96.6379 78.8231C96.09 80.0694 95.4733 81.4537 94.802 82.9608L94.8019 82.961C86.8169 100.887 71.0924 136.189 71.0924 163.188C71.0924 176.478 77.3673 188.467 86.9663 197.595C73.8485 188.314 64.6865 174.495 64.6865 158.821C64.6865 132.468 80.411 98.0118 88.3961 80.5147L88.3968 80.5133C89.0679 79.0427 89.6843 77.692 90.2321 76.476C91.1474 74.4442 92.1539 72.1023 93.2445 69.5646Z" fill="white"/>
</g>
</g>
<defs>
<filter id="filter0_f_112_22792" x="-18.9805" y="-0.460938" width="293.314" height="257.014" filterUnits="userSpaceOnUse" color-interpolation-filters="sRGB">
<feFlood flood-opacity="0" result="BackgroundImageFix"/>
<feBlend mode="normal" in="SourceGraphic" in2="BackgroundImageFix" result="shape"/>
<feGaussianBlur stdDeviation="5" result="effect1_foregroundBlur_112_22792"/>
</filter>
<filter id="filter1_f_112_22792" x="-13.6426" y="142.602" width="281.57" height="124.094" filterUnits="userSpaceOnUse" color-interpolation-filters="sRGB">
<feFlood flood-opacity="0" result="BackgroundImageFix"/>
<feBlend mode="normal" in="SourceGraphic" in2="BackgroundImageFix" result="shape"/>
<feGaussianBlur stdDeviation="5" result="effect1_foregroundBlur_112_22792"/>
</filter>
<filter id="filter2_f_112_22792" x="140.602" y="15.5527" width="129.857" height="166.477" filterUnits="userSpaceOnUse" color-interpolation-filters="sRGB">
<feFlood flood-opacity="0" result="BackgroundImageFix"/>
<feBlend mode="normal" in="SourceGraphic" in2="BackgroundImageFix" result="shape"/>
<feGaussianBlur stdDeviation="5" result="effect1_foregroundBlur_112_22792"/>
</filter>
<filter id="filter3_f_112_22792" x="-16.1738" y="15.5527" width="129.857" height="166.477" filterUnits="userSpaceOnUse" color-interpolation-filters="sRGB">
<feFlood flood-opacity="0" result="BackgroundImageFix"/>
<feBlend mode="normal" in="SourceGraphic" in2="BackgroundImageFix" result="shape"/>
<feGaussianBlur stdDeviation="5" result="effect1_foregroundBlur_112_22792"/>
</filter>
<filter id="filter4_f_112_22792" x="60.6865" y="22.6211" width="72.6963" height="178.975" filterUnits="userSpaceOnUse" color-interpolation-filters="sRGB">
<feFlood flood-opacity="0" result="BackgroundImageFix"/>
<feBlend mode="normal" in="SourceGraphic" in2="BackgroundImageFix" result="shape"/>
<feGaussianBlur stdDeviation="2" result="effect1_foregroundBlur_112_22792"/>
</filter>
<clipPath id="clip0_112_22792">
<rect width="256" height="256" fill="white"/>
</clipPath>
<clipPath id="clip1_112_22792">
<rect width="96" height="96" fill="white" transform="translate(80 97)"/>
</clipPath>
</defs>
</svg>
