<svg width="256" height="256" viewBox="0 0 256 256" fill="none" xmlns="http://www.w3.org/2000/svg">
<metadata>
  <rdf:RDF xmlns:rdf="http://www.w3.org/1999/02/22-rdf-syntax-ns#"
            xmlns:dc="http://purl.org/dc/elements/1.1/">
    <rdf:Description>
      <dc:title>swrpg-online.com art asset</dc:title>
      <dc:creator>Joshua Ziggas</dc:creator>
      <dc:rights>CC BY-NC-SA 4.0 - https://github.com/swrpg-online/art</dc:rights>
    </rdf:Description>
  </rdf:RDF>
</metadata>
<desc>
  wrpg-online.com SWRPG Dice Asset
  Created by: Joshua Ziggas
  Source: https://github.com/swrpg-online/art
  License: CC BY-NC-SA 4.0
</desc><mask id="mask0_112_22758" style="mask-type:alpha" maskUnits="userSpaceOnUse" x="2" y="17" width="252" height="223">
<path d="M111.095 26.5C118.408 13.8333 136.691 13.8333 144.004 26.5L250.525 211C257.838 223.667 248.697 239.5 234.071 239.5H21.0283C6.40214 239.5 -2.73924 223.667 4.57386 211L111.095 26.5Z" fill="#D9D9D9"/>
</mask>
<g mask="url(#mask0_112_22758)">
<rect width="256" height="256" fill="#FFE723"/>
<g style="mix-blend-mode:multiply" filter="url(#filter0_f_112_22758)">
<path d="M279.337 102.182C279.369 87.9555 263.989 61.3151 251.652 54.2297L126.366 -17.7262C114.029 -24.8117 113.988 -7.0282 126.293 14.2841L251.252 230.719C263.556 252.031 278.977 260.888 279.01 246.661L279.337 102.182Z" fill="black" fill-opacity="0.25"/>
<path d="M100.333 317.894C112.425 324.88 142.655 324.88 154.747 317.894L277.547 246.95C289.639 239.964 274.524 231.232 250.339 231.232L4.74033 231.232C-19.4438 231.232 -34.5589 239.964 -22.4668 246.95L100.333 317.894Z" fill="black" fill-opacity="0.5"/>
<path d="M-26.4366 101.791C-26.4405 87.3473 -10.8069 60.269 1.704 53.0504L128.757 -20.257C141.268 -27.4756 141.273 -9.42054 128.766 12.2421L1.75356 232.235C-10.7533 253.897 -26.392 262.921 -26.396 248.476L-26.4366 101.791Z" fill="black" fill-opacity="0.35"/>
</g>
</g>
<g clip-path="url(#clip0_112_22758)">
<path d="M166.767 116.3C166.104 115.153 166.498 113.685 167.645 113.022L171.57 110.756C172.718 110.094 174.185 110.487 174.848 111.635L191.694 140.812C192.356 141.96 191.963 143.428 190.815 144.091L186.891 146.356C185.743 147.019 184.275 146.626 183.613 145.478L177.668 135.182L158.476 146.263L164.42 156.559C165.083 157.707 164.69 159.174 163.542 159.837L159.618 162.103C158.47 162.765 157.002 162.372 156.339 161.224L146.638 144.421C145.975 143.273 146.368 141.805 147.516 141.142L172.711 126.596L166.767 116.3Z" fill="black"/>
</g>
<g clip-path="url(#clip1_112_22758)">
<path d="M98.4466 162.99C97.7838 164.138 96.316 164.531 95.1681 163.869L63.9704 145.857C62.8225 145.194 62.4292 143.726 63.092 142.578L65.6492 138.149C66.3119 137.001 67.7797 136.608 68.9276 137.271L79.4467 143.344C80.0207 143.675 80.7546 143.479 81.0859 142.905L93.5743 121.274C94.2371 120.126 95.7049 119.733 96.8528 120.396L114.414 130.534C115.562 131.197 115.955 132.665 115.292 133.813L112.735 138.242C112.072 139.39 110.604 139.783 109.457 139.12L98.9374 133.047C98.3635 132.716 97.6296 132.913 97.2982 133.487L89.167 147.57C88.8356 148.144 89.0323 148.878 89.6062 149.209L100.125 155.283C101.273 155.945 101.667 157.413 101.004 158.561L98.4466 162.99Z" fill="black"/>
</g>
<path d="M142.629 182.324C143.955 182.324 145.029 183.382 145.029 184.688V204.658C145.029 205.964 143.955 207.022 142.629 207.022H108.938C107.613 207.022 106.538 205.964 106.538 204.658V200.196C106.538 198.89 107.613 197.832 108.938 197.832H133.915C134.578 197.832 135.115 197.303 135.115 196.65V192.696C135.115 192.043 134.578 191.514 133.915 191.514H108.938C107.613 191.514 106.538 190.456 106.538 189.15V184.688C106.538 183.382 107.613 182.324 108.938 182.324H142.629ZM106.538 215.703C106.538 214.398 107.613 213.34 108.938 213.34H142.629C143.955 213.34 145.029 214.398 145.029 215.703V220.166C145.029 221.471 143.955 222.53 142.629 222.53H108.938C107.613 222.53 106.538 221.471 106.538 220.166V215.703Z" fill="black"/>
<defs>
<filter id="filter0_f_112_22758" x="-46.7227" y="-41.873" width="348.525" height="385.006" filterUnits="userSpaceOnUse" color-interpolation-filters="sRGB">
<feFlood flood-opacity="0" result="BackgroundImageFix"/>
<feBlend mode="normal" in="SourceGraphic" in2="BackgroundImageFix" result="shape"/>
<feGaussianBlur stdDeviation="10" result="effect1_foregroundBlur_112_22758"/>
</filter>
<clipPath id="clip0_112_22758">
<rect width="60" height="60" fill="white" transform="translate(156.108 179.762) rotate(-120)"/>
</clipPath>
<clipPath id="clip1_112_22758">
<rect width="60" height="60" fill="white" transform="translate(129.961 127.342) rotate(120)"/>
</clipPath>
</defs>
</svg>
