<svg width="256" height="256" viewBox="0 0 256 256" fill="none" xmlns="http://www.w3.org/2000/svg">
<metadata>
  <rdf:RDF xmlns:rdf="http://www.w3.org/1999/02/22-rdf-syntax-ns#"
            xmlns:dc="http://purl.org/dc/elements/1.1/">
    <rdf:Description>
      <dc:title>swrpg-online.com art asset</dc:title>
      <dc:creator>Joshua Ziggas</dc:creator>
      <dc:rights>CC BY-NC-SA 4.0 - https://github.com/swrpg-online/art</dc:rights>
    </rdf:Description>
  </rdf:RDF>
</metadata>
<desc>
  wrpg-online.com SWRPG Dice Asset
  Created by: Joshua Ziggas
  Source: https://github.com/swrpg-online/art
  License: CC BY-NC-SA 4.0
</desc><mask id="mask0_112_22772" style="mask-type:alpha" maskUnits="userSpaceOnUse" x="28" y="28" width="200" height="200">
<path d="M28 52C28 38.7452 38.7452 28 52 28H128H204C217.255 28 228 38.7452 228 52V128V204C228 217.255 217.255 228 204 228H128H52C38.7452 228 28 217.255 28 204V128V52Z" fill="#7EBCD8"/>
</mask>
<g mask="url(#mask0_112_22772)">
<rect width="256" height="256" fill="#FFE723"/>
<g style="mix-blend-mode:plus-lighter">
<rect x="28" y="28" width="200" height="200" fill="url(#paint0_linear_112_22772)"/>
</g>
<g filter="url(#filter0_f_112_22772)">
<path fill-rule="evenodd" clip-rule="evenodd" d="M239 17H17V239H239V17ZM128 228.909C183.731 228.909 228.909 183.731 228.909 128C228.909 72.2694 183.731 27.0909 128 27.0909C72.2694 27.0909 27.0909 72.2694 27.0909 128C27.0909 183.731 72.2694 228.909 128 228.909Z" fill="url(#paint1_angular_112_22772)"/>
</g>
</g>
<path d="M95.5834 166.554C93.065 166.554 91.0234 164.512 91.0234 161.994V153.385C91.0234 150.866 93.065 148.825 95.5834 148.825H143.039C144.299 148.825 145.319 147.804 145.319 146.545V108.998C145.319 107.738 144.299 106.718 143.039 106.718H95.5834C93.065 106.718 91.0234 104.676 91.0234 102.158V93.5483C91.0234 91.0299 93.065 88.9883 95.5834 88.9883H159.597C162.115 88.9883 164.157 91.0299 164.157 93.5483V161.994C164.157 164.512 162.115 166.554 159.597 166.554H95.5834ZM95.5834 136.636C93.065 136.636 91.0234 134.594 91.0234 132.076V123.466C91.0234 120.948 93.065 118.906 95.5834 118.906H131.895C134.413 118.906 136.455 120.948 136.455 123.466V132.076C136.455 134.594 134.413 136.636 131.895 136.636H95.5834Z" fill="black"/>
<g filter="url(#filter1_f_112_22772)">
<path d="M54.6822 87.8174C46.6259 95.7643 46.0504 129.917 46.7697 146C42.2358 116.37 41.274 83.6569 59.7175 64.5191C77.813 45.7423 110.789 41.6971 141 47.3734C123.017 46.6638 96.4024 50.2116 86.332 57.307C76.2616 64.4024 64.7526 77.8838 54.6822 87.8174Z" fill="url(#paint2_radial_112_22772)"/>
</g>
<defs>
<filter id="filter0_f_112_22772" x="1.31818" y="1.31818" width="253.364" height="253.364" filterUnits="userSpaceOnUse" color-interpolation-filters="sRGB">
<feFlood flood-opacity="0" result="BackgroundImageFix"/>
<feBlend mode="normal" in="SourceGraphic" in2="BackgroundImageFix" result="shape"/>
<feGaussianBlur stdDeviation="7.84091" result="effect1_foregroundBlur_112_22772"/>
</filter>
<filter id="filter1_f_112_22772" x="38.3182" y="39.3182" width="108.364" height="112.364" filterUnits="userSpaceOnUse" color-interpolation-filters="sRGB">
<feFlood flood-opacity="0" result="BackgroundImageFix"/>
<feBlend mode="normal" in="SourceGraphic" in2="BackgroundImageFix" result="shape"/>
<feGaussianBlur stdDeviation="2.84091" result="effect1_foregroundBlur_112_22772"/>
</filter>
<linearGradient id="paint0_linear_112_22772" x1="28" y1="28" x2="228" y2="228" gradientUnits="userSpaceOnUse">
<stop stop-color="white" stop-opacity="0"/>
<stop offset="0.655" stop-color="white" stop-opacity="0.05"/>
</linearGradient>
<radialGradient id="paint1_angular_112_22772" cx="0" cy="0" r="1" gradientUnits="userSpaceOnUse" gradientTransform="translate(128 128) rotate(45) scale(141.588)">
<stop stop-opacity="0.5"/>
<stop offset="0.253046" stop-opacity="0.35"/>
<stop offset="0.502899" stop-opacity="0.15"/>
<stop offset="0.753407" stop-opacity="0.25"/>
<stop offset="1" stop-opacity="0.5"/>
</radialGradient>
<radialGradient id="paint2_radial_112_22772" cx="0" cy="0" r="1" gradientUnits="userSpaceOnUse" gradientTransform="translate(66.2988 67.2406) scale(67.6157 63.1855)">
<stop offset="0.29" stop-color="white"/>
<stop offset="0.415" stop-color="white" stop-opacity="0.5"/>
<stop offset="1" stop-color="white" stop-opacity="0"/>
</radialGradient>
</defs>
</svg>
