<svg width="256" height="256" viewBox="0 0 256 256" fill="none" xmlns="http://www.w3.org/2000/svg">
<metadata>
  <rdf:RDF xmlns:rdf="http://www.w3.org/1999/02/22-rdf-syntax-ns#"
            xmlns:dc="http://purl.org/dc/elements/1.1/">
    <rdf:Description>
      <dc:title>swrpg-online.com art asset</dc:title>
      <dc:creator>Joshua Ziggas</dc:creator>
      <dc:rights>CC BY-NC-SA 4.0 - https://github.com/swrpg-online/art</dc:rights>
    </rdf:Description>
  </rdf:RDF>
</metadata>
<desc>
  wrpg-online.com SWRPG Dice Asset
  Created by: Joshua Ziggas
  Source: https://github.com/swrpg-online/art
  License: CC BY-NC-SA 4.0
</desc><mask id="mask0_112_28429" style="mask-type:alpha" maskUnits="userSpaceOnUse" x="2" y="17" width="252" height="223">
<path d="M111.095 26.5C118.408 13.8333 136.691 13.8333 144.004 26.5L250.525 211C257.838 223.667 248.697 239.5 234.071 239.5H21.0283C6.40214 239.5 -2.73924 223.667 4.57386 211L111.095 26.5Z" fill="#D9D9D9"/>
</mask>
<g mask="url(#mask0_112_28429)">
<rect width="256" height="256" fill="#06A2FD"/>
<g style="mix-blend-mode:multiply" filter="url(#filter0_f_112_28429)">
<path d="M279.337 102.182C279.369 87.9555 263.989 61.3151 251.652 54.2297L126.366 -17.7262C114.029 -24.8117 113.988 -7.0282 126.293 14.2841L251.252 230.719C263.556 252.031 278.977 260.888 279.01 246.661L279.337 102.182Z" fill="black" fill-opacity="0.25"/>
<path d="M100.333 317.894C112.425 324.88 142.655 324.88 154.747 317.894L277.547 246.95C289.639 239.964 274.524 231.232 250.339 231.232L4.74033 231.232C-19.4438 231.232 -34.5589 239.964 -22.4668 246.95L100.333 317.894Z" fill="black" fill-opacity="0.5"/>
<path d="M-26.4366 101.791C-26.4405 87.3473 -10.8069 60.269 1.704 53.0504L128.757 -20.257C141.268 -27.4756 141.273 -9.42054 128.766 12.2421L1.75356 232.235C-10.7533 253.897 -26.392 262.921 -26.396 248.476L-26.4366 101.791Z" fill="black" fill-opacity="0.35"/>
</g>
</g>
<g clip-path="url(#clip0_112_28429)">
<path d="M70.4339 165.584C69.6607 164.245 70.1196 162.532 71.4588 161.759L76.037 159.116C77.3762 158.343 79.0886 158.801 79.8618 160.141L99.515 194.181C100.288 195.52 99.8294 197.233 98.4902 198.006L93.912 200.649C92.5728 201.422 90.8603 200.963 90.0871 199.624L83.1522 187.613L60.761 200.54L67.6959 212.552C68.4691 213.891 68.0102 215.604 66.671 216.377L62.0928 219.02C60.7536 219.793 59.0412 219.334 58.268 217.995L46.9497 198.391C46.1765 197.052 46.6353 195.34 47.9745 194.566L77.3688 177.596L70.4339 165.584Z" fill="black"/>
</g>
<g clip-path="url(#clip1_112_28429)">
<path d="M195.853 220.59C195.08 221.929 193.367 222.388 192.028 221.615L155.631 200.601C154.292 199.828 153.833 198.115 154.606 196.776L157.589 191.609C158.363 190.27 160.075 189.811 161.414 190.584L173.687 197.669C174.356 198.056 175.212 197.827 175.599 197.157L190.169 171.921C190.942 170.582 192.654 170.123 193.994 170.896L214.481 182.725C215.821 183.498 216.279 185.211 215.506 186.55L212.523 191.717C211.75 193.056 210.037 193.515 208.698 192.742L196.426 185.657C195.756 185.27 194.9 185.5 194.513 186.169L185.027 202.6C184.64 203.27 184.87 204.126 185.539 204.513L197.812 211.598C199.151 212.371 199.61 214.084 198.836 215.423L195.853 220.59Z" fill="black"/>
</g>
<path d="M108.093 118.675C106.547 118.675 105.293 117.421 105.293 115.875V110.588C105.293 109.042 106.547 107.788 108.093 107.788H137.233C138.006 107.788 138.633 107.162 138.633 106.388V83.3333C138.633 82.5601 138.006 81.9333 137.233 81.9333H108.093C106.547 81.9333 105.293 80.6797 105.293 79.1333V73.8469C105.293 72.3005 106.547 71.0469 108.093 71.0469H147.399C148.946 71.0469 150.199 72.3005 150.199 73.8469V115.875C150.199 117.421 148.946 118.675 147.399 118.675H108.093ZM108.093 100.304C106.547 100.304 105.293 99.0505 105.293 97.5041V92.2177C105.293 90.6713 106.547 89.4177 108.093 89.4177H130.389C131.936 89.4177 133.189 90.6713 133.189 92.2177V97.5041C133.189 99.0505 131.936 100.304 130.389 100.304H108.093Z" fill="black"/>
<defs>
<filter id="filter0_f_112_28429" x="-46.7227" y="-41.873" width="348.523" height="385.006" filterUnits="userSpaceOnUse" color-interpolation-filters="sRGB">
<feFlood flood-opacity="0" result="BackgroundImageFix"/>
<feBlend mode="normal" in="SourceGraphic" in2="BackgroundImageFix" result="shape"/>
<feGaussianBlur stdDeviation="10" result="effect1_foregroundBlur_112_28429"/>
</filter>
<clipPath id="clip0_112_28429">
<rect width="70" height="70" fill="white" transform="translate(58 239.621) rotate(-120)"/>
</clipPath>
<clipPath id="clip1_112_28429">
<rect width="70" height="70" fill="white" transform="translate(232.621 179) rotate(120)"/>
</clipPath>
</defs>
</svg>
