<svg width="256" height="256" viewBox="0 0 256 256" fill="none" xmlns="http://www.w3.org/2000/svg">
<metadata>
  <rdf:RDF xmlns:rdf="http://www.w3.org/1999/02/22-rdf-syntax-ns#"
            xmlns:dc="http://purl.org/dc/elements/1.1/">
    <rdf:Description>
      <dc:title>swrpg-online.com art asset</dc:title>
      <dc:creator>Joshua Ziggas</dc:creator>
      <dc:rights>CC BY-NC-SA 4.0 - https://github.com/swrpg-online/art</dc:rights>
    </rdf:Description>
  </rdf:RDF>
</metadata>
<desc>
  wrpg-online.com SWRPG Dice Asset
  Created by: Joshua Ziggas
  Source: https://github.com/swrpg-online/art
  License: CC BY-NC-SA 4.0
</desc><mask id="mask0_97_1707" style="mask-type:luminance" maskUnits="userSpaceOnUse" x="6" y="2" width="244" height="252">
<path d="M114.626 4.34533C123.318 1.52112 132.682 1.52111 141.374 4.34533L189.669 20.0373C198.361 22.8615 205.935 28.365 211.307 35.7589L241.155 76.841C246.527 84.2349 249.421 93.1397 249.421 102.279V153.059C249.421 162.199 246.527 171.103 241.155 178.497L211.307 219.58C205.935 226.973 198.361 232.477 189.669 235.301L141.374 250.993C132.682 253.817 123.318 253.817 114.626 250.993L66.3315 235.301C57.6395 232.477 50.0646 226.973 44.6926 219.58L14.8447 178.497C9.47272 171.103 6.57938 162.199 6.57938 153.059V102.279C6.57938 93.1397 9.47271 84.2349 14.8447 76.841L44.6926 35.7589C50.0646 28.365 57.6394 22.8615 66.3315 20.0373L114.626 4.34533Z" fill="white"/>
</mask>
<g mask="url(#mask0_97_1707)">
<rect width="256" height="256" fill="#F1F1F1"/>
<g filter="url(#filter0_f_97_1707)">
<path d="M50.1005 9.81476L135.446 -6.13379V48.8249H121.26V9.81476L52.8053 23.0787L50.1005 9.81476Z" fill="url(#paint0_linear_97_1707)" fill-opacity="0.15"/>
<rect x="169.168" y="196.272" width="14.1855" height="78.0203" transform="rotate(-36 169.168 196.272)" fill="url(#paint1_linear_97_1707)" fill-opacity="0.3"/>
<path d="M-5.07886 91.241L43.0676 14.9641L61.4606 21.4558L18.1174 84.7521L55.2183 96.8069L50.8347 110.298L-5.07886 91.241Z" fill="url(#paint2_linear_97_1707)" fill-opacity="0.25"/>
<rect x="205.87" y="110.298" width="14.1855" height="78.0203" transform="rotate(-108 205.87 110.298)" fill="url(#paint3_linear_97_1707)" fill-opacity="0.25"/>
<rect x="41.6776" y="259.392" width="14.1855" height="78.0203" transform="rotate(-144 41.6776 259.392)" fill="url(#paint4_linear_97_1707)" fill-opacity="0.25"/>
<path d="M173.312 205.927L209.146 252.45L126.5 268.5L46.8544 252.45L82.6877 205.927L173.312 205.927Z" fill="black" fill-opacity="0.35"/>
<path d="M216.11 108.421L272.06 88.5817L261 175L221.455 244.329L187.851 195.392L216.11 108.421Z" fill="black" fill-opacity="0.4"/>
<path d="M136.731 38.0622L135.152 -21.2809L210.713 14L267.639 74.9762L210.713 91.8128L136.731 38.0622Z" fill="black" fill-opacity="0.2"/>
<path d="M45.287 91.8128L-11.6395 74.9762L45.287 14.9998L120.847 -21.2811L119.268 38.062L45.287 91.8128Z" fill="black" fill-opacity="0.1"/>
<path d="M68.1492 195.392L34.5454 244.329L-4 172.5L-16.0601 88.5818L39.8907 108.421L68.1492 195.392Z" fill="black" fill-opacity="0.25"/>
</g>
</g>
<g clip-path="url(#clip0_97_1707)">
<path d="M120.924 173.888C118.405 173.888 116.364 171.847 116.364 169.328V105.653C116.364 103.134 118.405 101.093 120.924 101.093H180.44C182.958 101.093 185 103.134 185 105.653V169.328C185 171.847 182.958 173.888 180.44 173.888H120.924ZM136.323 117.732C135.064 117.732 134.043 118.752 134.043 120.012V154.969C134.043 156.228 135.064 157.249 136.323 157.249H165.041C166.3 157.249 167.321 156.228 167.321 154.969V120.012C167.321 118.752 166.3 117.732 165.041 117.732H136.323ZM142.362 131.451C142.362 130.192 143.383 129.171 144.642 129.171H156.721C157.98 129.171 159.001 130.192 159.001 131.451V143.53C159.001 144.789 157.98 145.81 156.721 145.81H144.642C143.383 145.81 142.362 144.789 142.362 143.53V131.451Z" fill="black"/>
<path d="M106.576 157.249C109.094 157.249 111.136 159.291 111.136 161.809V169.328C111.136 171.847 109.094 173.888 106.576 173.888H75.5596C73.0412 173.888 70.9996 171.847 70.9996 169.328V161.809C70.9996 159.291 73.0412 157.249 75.5596 157.249H79.9481C81.2073 157.249 82.2281 156.228 82.2281 154.969V120.012C82.2281 118.752 81.2073 117.732 79.9481 117.732H75.5596C73.0412 117.732 70.9996 115.69 70.9996 113.172V105.653C70.9996 103.134 73.0412 101.093 75.5596 101.093H95.3471C97.8655 101.093 99.9071 103.134 99.9071 105.653V154.969C99.9071 156.228 100.928 157.249 102.187 157.249H106.576Z" fill="black"/>
</g>
<g filter="url(#filter1_f_97_1707)">
<path d="M62.4925 99.4784C57.4837 104.467 54.5575 109.683 58.5085 120.454C52.2474 110.816 53.9547 100.612 58.5082 95.5101C66.6009 86.4425 90.9517 68.8659 103.474 61.4962C113.491 55.6004 126.241 46.7568 139.901 56.961C124.533 51.292 117.703 59.2286 110.873 63.1969C102.632 67.9852 68.7536 93.2425 62.4925 99.4784Z" fill="white"/>
</g>
<defs>
<filter id="filter0_f_97_1707" x="-26.8795" y="-32.1004" width="317.771" height="311.42" filterUnits="userSpaceOnUse" color-interpolation-filters="sRGB">
<feFlood flood-opacity="0" result="BackgroundImageFix"/>
<feBlend mode="normal" in="SourceGraphic" in2="BackgroundImageFix" result="shape"/>
<feGaussianBlur stdDeviation="5.40971" result="effect1_foregroundBlur_97_1707"/>
</filter>
<filter id="filter1_f_97_1707" x="49.0183" y="46.8815" width="96.2928" height="78.9818" filterUnits="userSpaceOnUse" color-interpolation-filters="sRGB">
<feFlood flood-opacity="0" result="BackgroundImageFix"/>
<feBlend mode="normal" in="SourceGraphic" in2="BackgroundImageFix" result="shape"/>
<feGaussianBlur stdDeviation="2.70486" result="effect1_foregroundBlur_97_1707"/>
</filter>
<linearGradient id="paint0_linear_97_1707" x1="128.353" y1="-29.1954" x2="128.353" y2="48.8249" gradientUnits="userSpaceOnUse">
<stop offset="0.40004"/>
<stop offset="0.770751" stop-opacity="0"/>
</linearGradient>
<linearGradient id="paint1_linear_97_1707" x1="176.261" y1="196.272" x2="176.275" y2="252.046" gradientUnits="userSpaceOnUse">
<stop stop-opacity="0"/>
<stop offset="0.44519"/>
</linearGradient>
<linearGradient id="paint2_linear_97_1707" x1="52.243" y1="103.558" x2="6.82259" y2="87.4543" gradientUnits="userSpaceOnUse">
<stop offset="0.487821" stop-opacity="0"/>
<stop offset="1"/>
</linearGradient>
<linearGradient id="paint3_linear_97_1707" x1="216.761" y1="109.73" x2="217.403" y2="150.48" gradientUnits="userSpaceOnUse">
<stop stop-opacity="0"/>
<stop offset="1"/>
</linearGradient>
<linearGradient id="paint4_linear_97_1707" x1="48.7704" y1="337.412" x2="48.678" y2="291.64" gradientUnits="userSpaceOnUse">
<stop stop-opacity="0"/>
<stop offset="0.482933"/>
</linearGradient>
<clipPath id="clip0_97_1707">
<rect width="114" height="114" fill="white" transform="translate(70.9998 78)"/>
</clipPath>
</defs>
</svg>
