<svg width="256" height="256" viewBox="0 0 256 256" fill="none" xmlns="http://www.w3.org/2000/svg">
<metadata>
  <rdf:RDF xmlns:rdf="http://www.w3.org/1999/02/22-rdf-syntax-ns#"
            xmlns:dc="http://purl.org/dc/elements/1.1/">
    <rdf:Description>
      <dc:title>swrpg-online.com art asset</dc:title>
      <dc:creator>Joshua Ziggas</dc:creator>
      <dc:rights>CC BY-NC-SA 4.0 - https://github.com/swrpg-online/art</dc:rights>
    </rdf:Description>
  </rdf:RDF>
</metadata>
<desc>
  wrpg-online.com SWRPG Dice Asset
  Created by: Joshua Ziggas
  Source: https://github.com/swrpg-online/art
  License: CC BY-NC-SA 4.0
</desc><mask id="mask0_97_2152" style="mask-type:alpha" maskUnits="userSpaceOnUse" x="10" y="0" width="237" height="256">
<path d="M224.91 60.2803L150.531 7.28962C136.792 -2.49863 118.338 -2.42293 104.68 7.47773L31.8161 60.296C23.7755 66.1246 18.6774 75.1707 17.8556 85.0677L10.4831 173.859C9.14473 189.977 17.8216 205.268 32.3449 212.386L112.644 251.739C122.046 256.346 133.044 256.376 142.471 251.82L224.23 212.3C238.838 205.239 247.602 189.923 246.289 173.75L239.102 85.276C238.289 75.2589 233.095 66.1118 224.91 60.2803Z" fill="#CFCFCF"/>
</mask>
<g mask="url(#mask0_97_2152)">
<rect width="256" height="256" fill="#F1F1F1"/>
<g style="mix-blend-mode:multiply" filter="url(#filter0_f_97_2152)">
<mask id="mask1_97_2152" style="mask-type:alpha" maskUnits="userSpaceOnUse" x="1" y="-10" width="255" height="275">
<path fill-rule="evenodd" clip-rule="evenodd" d="M152.286 -1.73761L232.217 55.1628C241.013 61.4246 246.595 71.2466 247.469 82.0028L255.192 177.005C256.604 194.371 247.185 210.817 231.486 218.399L143.625 260.834C133.494 265.727 121.674 265.695 111.57 260.747L25.277 218.491C9.66957 210.848 0.344966 194.429 1.7832 177.121L9.70613 81.779C10.5892 71.1519 16.0679 61.4383 24.7088 55.1797L103.012 -1.53561C117.69 -12.1668 137.522 -12.2481 152.286 -1.73761ZM138.619 210.457C134.337 217.848 123.663 217.848 119.381 210.457L57.5143 103.688C53.2204 96.2776 58.5682 87 67.1337 87H190.866C199.432 87 204.779 96.2776 200.485 103.688L138.619 210.457Z" fill="black"/>
</mask>
<g mask="url(#mask1_97_2152)">
<path d="M224.91 60.2804L150.531 7.28974C136.792 -2.49851 118.338 -2.42281 104.68 7.47785L31.8161 60.2961C23.7755 66.1247 18.6774 75.1708 17.8556 85.0678L10.4831 173.859C9.14473 189.977 17.8216 205.268 32.3449 212.386L112.644 251.739C122.046 256.346 133.044 256.376 142.471 251.82L224.23 212.301C238.838 205.239 247.602 189.923 246.289 173.751L239.102 85.2762C238.289 75.2591 233.095 66.1119 224.91 60.2804Z" fill="#CFCFCF"/>
<path d="M204.7 84H53.3C43.2078 84 38.1969 73.0586 45.3921 66.7329L110.15 9.80008C120.433 0.759757 136.916 0.729605 147.24 9.73224L212.575 66.704C219.815 73.0173 214.814 84 204.7 84Z" fill="#E0E0E0"/>
<path d="M51.0667 91.5291L123.602 217.163C128.437 225.538 121.573 235.045 112.769 232.167L33.5346 206.263C20.953 202.15 13.0306 188.487 15.7075 175.519L32.6481 93.4501C34.5254 84.3557 46.2209 83.1359 51.0667 91.5291Z" fill="#D8D8D8"/>
<path d="M206.995 88.7411L131.61 219.312C126.585 228.016 133.43 237.729 142.412 234.642L223.255 206.851C236.092 202.438 244.325 188.238 241.781 174.898L225.68 90.4736C223.896 81.1182 212.032 80.0181 206.995 88.7411Z" fill="#C1C1C1"/>
<path d="M128.485 230.5V263.061L104.346 256.908L21.7533 217.387L12.9971 206.501L15.6003 194.431C18.8346 198.454 26.6284 206.832 31.9294 208.157C38.5558 209.814 109.552 221.034 118.072 223.164C124.887 224.868 127.853 228.765 128.485 230.5Z" fill="#8D8D8D"/>
<path d="M128.485 231V263.061L152.623 256.908L235.216 217.387L243.972 206.501L241.369 194.431C238.135 198.454 230.341 206.832 225.04 208.157C218.413 209.814 147.417 221.534 138.898 223.664C132.082 225.368 129.116 229.265 128.485 231Z" fill="#737373"/>
<path d="M212.647 84.3141L243.297 64.418L250.038 88.3993L257.107 179.687L252.058 192.713L240.304 196.494C242.171 191.681 245.529 180.743 244.026 175.489C242.148 168.922 213.915 105.443 211.5 97C209.568 90.2455 211.459 85.7284 212.647 84.3141Z" fill="#828282"/>
<path d="M211.5 83.5L243.297 64.418L225.899 46.5898L150.376 -5.17674L136.571 -7.3168L127.42 0.972334C132.521 1.76174 143.673 4.3226 147.471 8.25082C152.219 13.1611 193.836 71.8372 199.94 78.1504C204.824 83.201 209.681 83.8212 211.5 83.5Z" fill="#9E9E9E"/>
<path d="M44.8529 83.8141L13.9438 64.418L7.20308 88.3993L0.133319 179.687L5.18286 192.713L16.9369 196.494C15.0699 191.681 11.7116 180.743 13.2144 175.489C15.0929 168.922 43.5846 104.943 45.9999 96.5C47.9321 89.7455 46.0403 85.2284 44.8529 83.8141Z" fill="#B1B1B1"/>
<path d="M46.4399 83.8496L13.9436 64.418L31.3417 46.5898L106.864 -5.17674L120.67 -7.3168L129.821 0.972334C124.72 1.76174 113.568 4.3226 109.769 8.25082C105.022 13.1611 64.1041 72.1868 57.9998 78.5C53.1163 83.5506 48.2584 84.1708 46.4399 83.8496Z" fill="#B6B6B6"/>
</g>
</g>
</g>
<g filter="url(#filter1_f_97_2152)">
<path d="M72.7423 89H122C110.497 90.3425 85.9103 93.2575 79.5869 94.1781C71.6827 95.3288 66.0919 98.2055 68.5981 106.452C70.6031 113.049 83.9568 144.233 90.383 159L61.6354 107.833C56.8952 99.3957 63.0262 89 72.7423 89Z" fill="url(#paint0_radial_97_2152)"/>
</g>
<path d="M153.373 152.856C153.373 154.623 151.94 156.056 150.173 156.056H105.251C103.484 156.056 102.051 154.623 102.051 152.856V146.814C102.051 145.047 103.484 143.614 105.251 143.614H138.554C139.437 143.614 140.154 142.898 140.154 142.014V136.661C140.154 135.777 139.437 135.061 138.554 135.061H105.251C103.484 135.061 102.051 133.628 102.051 131.861V125.819C102.051 124.052 103.484 122.619 105.251 122.619H150.173C151.94 122.619 153.373 124.052 153.373 125.819V152.856ZM105.251 114.066C103.484 114.066 102.051 112.633 102.051 110.866V104.824C102.051 103.057 103.484 101.624 105.251 101.624H150.173C151.94 101.624 153.373 103.057 153.373 104.824V110.866C153.373 112.633 151.94 114.066 150.173 114.066H105.251Z" fill="black"/>
<defs>
<filter id="filter0_f_97_2152" x="-8.3623" y="-17.3168" width="273.694" height="290.378" filterUnits="userSpaceOnUse" color-interpolation-filters="sRGB">
<feFlood flood-opacity="0" result="BackgroundImageFix"/>
<feBlend mode="normal" in="SourceGraphic" in2="BackgroundImageFix" result="shape"/>
<feGaussianBlur stdDeviation="5" result="effect1_foregroundBlur_97_2152"/>
</filter>
<filter id="filter1_f_97_2152" x="55" y="84" width="72" height="80" filterUnits="userSpaceOnUse" color-interpolation-filters="sRGB">
<feFlood flood-opacity="0" result="BackgroundImageFix"/>
<feBlend mode="normal" in="SourceGraphic" in2="BackgroundImageFix" result="shape"/>
<feGaussianBlur stdDeviation="2.5" result="effect1_foregroundBlur_97_2152"/>
</filter>
<radialGradient id="paint0_radial_97_2152" cx="0" cy="0" r="1" gradientUnits="userSpaceOnUse" gradientTransform="translate(68.0198 95.7123) rotate(44.0247) scale(47.1885 41.5706)">
<stop stop-color="white"/>
<stop offset="1" stop-color="white" stop-opacity="0"/>
</radialGradient>
</defs>
</svg>
