<svg width="256" height="256" viewBox="0 0 256 256" fill="none" xmlns="http://www.w3.org/2000/svg">
<metadata>
  <rdf:RDF xmlns:rdf="http://www.w3.org/1999/02/22-rdf-syntax-ns#"
            xmlns:dc="http://purl.org/dc/elements/1.1/">
    <rdf:Description>
      <dc:title>swrpg-online.com art asset</dc:title>
      <dc:creator>Joshua Ziggas</dc:creator>
      <dc:rights>CC BY-NC-SA 4.0 - https://github.com/swrpg-online/art</dc:rights>
    </rdf:Description>
  </rdf:RDF>
</metadata>
<desc>
  wrpg-online.com SWRPG Dice Asset
  Created by: Joshua Ziggas
  Source: https://github.com/swrpg-online/art
  License: CC BY-NC-SA 4.0
</desc><mask id="mask0_112_2513" style="mask-type:alpha" maskUnits="userSpaceOnUse" x="2" y="17" width="252" height="223">
<path d="M111.095 26.5C118.408 13.8333 136.691 13.8333 144.004 26.5L250.525 211C257.838 223.667 248.697 239.5 234.071 239.5H21.0283C6.40214 239.5 -2.73924 223.667 4.57386 211L111.095 26.5Z" fill="#D9D9D9"/>
</mask>
<g mask="url(#mask0_112_2513)">
<rect width="256" height="256" fill="#F1F1F1"/>
<g style="mix-blend-mode:multiply" filter="url(#filter0_f_112_2513)">
<path d="M279.337 102.182C279.369 87.9554 263.988 61.315 251.652 54.2295L126.365 -17.7263C114.029 -24.8118 113.988 -7.02832 126.293 14.284L251.252 230.719C263.556 252.031 278.977 260.888 279.01 246.661L279.337 102.182Z" fill="black" fill-opacity="0.25"/>
<path d="M100.333 317.894C112.425 324.879 142.655 324.879 154.747 317.894L277.546 246.95C289.638 239.964 274.523 231.232 250.339 231.232L4.74021 231.232C-19.4439 231.232 -34.559 239.964 -22.467 246.95L100.333 317.894Z" fill="black" fill-opacity="0.5"/>
<path d="M-26.4367 101.791C-26.4407 87.3471 -10.807 60.2688 1.70388 53.0503L128.757 -20.2571C141.268 -27.4757 141.273 -9.42066 128.766 12.242L1.75344 232.234C-10.7535 253.897 -26.3922 262.92 -26.3961 248.476L-26.4367 101.791Z" fill="black" fill-opacity="0.35"/>
</g>
</g>
<g clip-path="url(#clip0_112_2513)">
<path d="M101.266 197.212C102.039 198.552 101.58 200.264 100.241 201.037L95.6627 203.68C94.3235 204.454 92.6111 203.995 91.8379 202.656L77.2681 177.42C76.8815 176.75 76.0252 176.521 75.3556 176.907L55.3892 188.435C54.7196 188.822 54.4902 189.678 54.8768 190.347L69.4466 215.583C70.2198 216.922 69.7609 218.635 68.4217 219.408L63.8436 222.051C62.5044 222.824 60.7919 222.366 60.0187 221.026L40.3655 186.986C39.5923 185.647 40.0512 183.934 41.3904 183.161L77.7877 162.147C79.1269 161.374 80.8394 161.833 81.6126 163.172L101.266 197.212ZM85.3562 206.398C86.1294 207.737 85.6705 209.449 84.3313 210.223L79.7532 212.866C78.4139 213.639 76.7015 213.18 75.9283 211.841L64.7801 192.532C64.0069 191.192 64.4657 189.48 65.805 188.707L70.3831 186.064C71.7223 185.29 73.4348 185.749 74.208 187.088L85.3562 206.398Z" fill="black"/>
</g>
<g clip-path="url(#clip1_112_2513)">
<path d="M195.855 220.59C195.082 221.929 193.369 222.388 192.03 221.615L171.543 209.786C170.203 209.013 169.744 207.3 170.518 205.961L190.171 171.921C190.944 170.582 192.656 170.123 193.996 170.896L198.574 173.539C199.913 174.312 200.372 176.025 199.599 177.364L185.029 202.6C184.642 203.269 184.872 204.126 185.541 204.512L189.598 206.854C190.268 207.241 191.124 207.012 191.511 206.342L206.08 181.106C206.854 179.767 208.566 179.308 209.905 180.081L214.483 182.725C215.823 183.498 216.282 185.21 215.508 186.55L195.855 220.59ZM182.664 164.354C184.004 165.127 184.462 166.839 183.689 168.179L164.036 202.219C163.263 203.558 161.55 204.017 160.211 203.244L155.633 200.601C154.294 199.828 153.835 198.115 154.608 196.776L174.261 162.736C175.034 161.396 176.747 160.937 178.086 161.711L182.664 164.354Z" fill="black"/>
</g>
<path d="M147.401 71.046C148.948 71.046 150.201 72.2996 150.201 73.846V115.874C150.201 117.42 148.948 118.674 147.401 118.674H141.434C139.888 118.674 138.634 117.42 138.634 115.874V101.703C138.634 100.93 138.008 100.303 137.234 100.303H108.095C106.548 100.303 105.295 99.0496 105.295 97.5032V73.846C105.295 72.2996 106.548 71.046 108.095 71.046H114.062C115.608 71.046 116.862 72.2996 116.862 73.846V88.0168C116.862 88.79 117.488 89.4168 118.262 89.4168H137.234C138.008 89.4168 138.634 88.79 138.634 88.0168V73.846C138.634 72.2996 139.888 71.046 141.434 71.046H147.401Z" fill="black"/>
<defs>
<filter id="filter0_f_112_2513" x="-46.7228" y="-41.8732" width="348.525" height="385.006" filterUnits="userSpaceOnUse" color-interpolation-filters="sRGB">
<feFlood flood-opacity="0" result="BackgroundImageFix"/>
<feBlend mode="normal" in="SourceGraphic" in2="BackgroundImageFix" result="shape"/>
<feGaussianBlur stdDeviation="10" result="effect1_foregroundBlur_112_2513"/>
</filter>
<clipPath id="clip0_112_2513">
<rect width="70" height="70" fill="white" transform="translate(58 239.622) rotate(-120)"/>
</clipPath>
<clipPath id="clip1_112_2513">
<rect width="70" height="70" fill="white" transform="translate(232.622 179) rotate(120)"/>
</clipPath>
</defs>
</svg>
