<svg width="256" height="256" viewBox="0 0 256 256" fill="none" xmlns="http://www.w3.org/2000/svg">
<metadata>
  <rdf:RDF xmlns:rdf="http://www.w3.org/1999/02/22-rdf-syntax-ns#"
            xmlns:dc="http://purl.org/dc/elements/1.1/">
    <rdf:Description>
      <dc:title>swrpg-online.com art asset</dc:title>
      <dc:creator>Joshua Ziggas</dc:creator>
      <dc:rights>CC BY-NC-SA 4.0 - https://github.com/swrpg-online/art</dc:rights>
    </rdf:Description>
  </rdf:RDF>
</metadata>
<desc>
  wrpg-online.com SWRPG Dice Asset
  Created by: Joshua Ziggas
  Source: https://github.com/swrpg-online/art
  License: CC BY-NC-SA 4.0
</desc><mask id="mask0_112_2511" style="mask-type:alpha" maskUnits="userSpaceOnUse" x="2" y="17" width="252" height="223">
<path d="M111.095 26.5C118.408 13.8333 136.691 13.8333 144.004 26.5L250.525 211C257.838 223.667 248.697 239.5 234.071 239.5H21.0283C6.40214 239.5 -2.73924 223.667 4.57386 211L111.095 26.5Z" fill="#D9D9D9"/>
</mask>
<g mask="url(#mask0_112_2511)">
<rect width="256" height="256" fill="#F1F1F1"/>
<g style="mix-blend-mode:multiply" filter="url(#filter0_f_112_2511)">
<path d="M279.337 102.182C279.369 87.9554 263.988 61.315 251.652 54.2295L126.365 -17.7263C114.029 -24.8118 113.988 -7.02832 126.293 14.284L251.252 230.719C263.556 252.031 278.977 260.888 279.01 246.661L279.337 102.182Z" fill="black" fill-opacity="0.25"/>
<path d="M100.333 317.894C112.425 324.879 142.655 324.879 154.747 317.894L277.546 246.95C289.638 239.964 274.523 231.232 250.339 231.232L4.74021 231.232C-19.4439 231.232 -34.559 239.964 -22.467 246.95L100.333 317.894Z" fill="black" fill-opacity="0.5"/>
<path d="M-26.4367 101.791C-26.4407 87.3471 -10.807 60.2688 1.70388 53.0503L128.757 -20.2571C141.268 -27.4757 141.273 -9.42066 128.766 12.242L1.75344 232.234C-10.7535 253.897 -26.3922 262.92 -26.3961 248.476L-26.4367 101.791Z" fill="black" fill-opacity="0.35"/>
</g>
</g>
<g clip-path="url(#clip0_112_2511)">
<path d="M70.4347 165.584C69.6615 164.245 70.1203 162.532 71.4595 161.759L76.0377 159.116C77.3769 158.343 79.0894 158.802 79.8626 160.141L99.5158 194.181C100.289 195.521 99.8301 197.233 98.4909 198.006L93.9127 200.649C92.5735 201.423 90.8611 200.964 90.0879 199.624L83.153 187.613L60.7617 200.54L67.6966 212.552C68.4698 213.891 68.0109 215.604 66.6717 216.377L62.0936 219.02C60.7544 219.793 59.0419 219.335 58.2687 217.995L46.9504 198.391C46.1772 197.052 46.6361 195.34 47.9753 194.567L77.3696 177.596L70.4347 165.584Z" fill="black"/>
</g>
<g clip-path="url(#clip1_112_2511)">
<path d="M195.855 220.59C195.082 221.929 193.369 222.388 192.03 221.615L155.633 200.601C154.294 199.828 153.835 198.115 154.608 196.776L157.591 191.608C158.365 190.269 160.077 189.81 161.416 190.584L173.689 197.669C174.358 198.056 175.214 197.826 175.601 197.157L190.171 171.921C190.944 170.582 192.656 170.123 193.996 170.896L214.483 182.725C215.823 183.498 216.282 185.21 215.508 186.55L212.525 191.717C211.752 193.056 210.039 193.515 208.7 192.742L196.428 185.656C195.758 185.27 194.902 185.499 194.515 186.169L185.029 202.6C184.642 203.269 184.872 204.126 185.541 204.512L197.814 211.598C199.153 212.371 199.612 214.083 198.839 215.422L195.855 220.59Z" fill="black"/>
</g>
<path d="M108.095 118.674C106.548 118.674 105.295 117.42 105.295 115.874V110.588C105.295 109.041 106.548 107.788 108.095 107.788H137.234C138.008 107.788 138.634 107.161 138.634 106.388V83.3324C138.634 82.5592 138.008 81.9324 137.234 81.9324H108.095C106.548 81.9324 105.295 80.6788 105.295 79.1324V73.846C105.295 72.2996 106.548 71.046 108.095 71.046H147.401C148.948 71.046 150.201 72.2996 150.201 73.846V115.874C150.201 117.42 148.948 118.674 147.401 118.674H108.095ZM108.095 100.303C106.548 100.303 105.295 99.0496 105.295 97.5032V92.2168C105.295 90.6704 106.548 89.4168 108.095 89.4168H130.391C131.938 89.4168 133.191 90.6704 133.191 92.2168V97.5032C133.191 99.0496 131.938 100.303 130.391 100.303H108.095Z" fill="black"/>
<defs>
<filter id="filter0_f_112_2511" x="-46.7228" y="-41.8732" width="348.525" height="385.006" filterUnits="userSpaceOnUse" color-interpolation-filters="sRGB">
<feFlood flood-opacity="0" result="BackgroundImageFix"/>
<feBlend mode="normal" in="SourceGraphic" in2="BackgroundImageFix" result="shape"/>
<feGaussianBlur stdDeviation="10" result="effect1_foregroundBlur_112_2511"/>
</filter>
<clipPath id="clip0_112_2511">
<rect width="70" height="70" fill="white" transform="translate(58 239.622) rotate(-120)"/>
</clipPath>
<clipPath id="clip1_112_2511">
<rect width="70" height="70" fill="white" transform="translate(232.622 179) rotate(120)"/>
</clipPath>
</defs>
</svg>
