<svg width="256" height="256" viewBox="0 0 256 256" fill="none" xmlns="http://www.w3.org/2000/svg">
<metadata>
  <rdf:RDF xmlns:rdf="http://www.w3.org/1999/02/22-rdf-syntax-ns#"
            xmlns:dc="http://purl.org/dc/elements/1.1/">
    <rdf:Description>
      <dc:title>swrpg-online.com art asset</dc:title>
      <dc:creator>Joshua Ziggas</dc:creator>
      <dc:rights>CC BY-NC-SA 4.0 - https://github.com/swrpg-online/art</dc:rights>
    </rdf:Description>
  </rdf:RDF>
</metadata>
<desc>
  wrpg-online.com SWRPG Dice Asset
  Created by: Joshua Ziggas
  Source: https://github.com/swrpg-online/art
  License: CC BY-NC-SA 4.0
</desc><mask id="mask0_97_1137" style="mask-type:alpha" maskUnits="userSpaceOnUse" x="28" y="28" width="200" height="200">
<path d="M28 52C28 38.7452 38.7452 28 52 28H128H204C217.255 28 228 38.7452 228 52V128V204C228 217.255 217.255 228 204 228H128H52C38.7452 228 28 217.255 28 204V128V52Z" fill="#7EBCD8"/>
</mask>
<g mask="url(#mask0_97_1137)">
<rect width="256" height="256" fill="#F1F1F1"/>
<g style="mix-blend-mode:plus-lighter">
<rect x="28" y="28" width="200" height="200" fill="url(#paint0_linear_97_1137)"/>
</g>
<g filter="url(#filter0_f_97_1137)">
<path fill-rule="evenodd" clip-rule="evenodd" d="M239 17H17V239H239V17ZM128 228.909C183.731 228.909 228.909 183.731 228.909 128C228.909 72.2694 183.731 27.0909 128 27.0909C72.2694 27.0909 27.0909 72.2694 27.0909 128C27.0909 183.731 72.2694 228.909 128 228.909Z" fill="url(#paint1_angular_97_1137)"/>
</g>
</g>
<path d="M164.156 102.159C164.156 104.677 162.115 106.719 159.596 106.719H95.583C93.0645 106.719 91.0229 104.677 91.0229 102.159V93.5493C91.0229 91.0308 93.0645 88.9893 95.5829 88.9893H159.596C162.115 88.9893 164.156 91.0308 164.156 93.5493V102.159ZM95.583 166.555C93.0645 166.555 91.0229 164.513 91.0229 161.995V123.467C91.0229 120.949 93.0645 118.907 95.5829 118.907H159.596C162.115 118.907 164.156 120.949 164.156 123.467V161.995C164.156 164.513 162.115 166.555 159.596 166.555H95.583ZM112.14 136.637C110.881 136.637 109.86 137.657 109.86 138.917V146.546C109.86 147.805 110.881 148.826 112.14 148.826H143.039C144.298 148.826 145.319 147.805 145.319 146.546V138.917C145.319 137.658 144.298 136.637 143.039 136.637H112.14Z" fill="black"/>
<g filter="url(#filter1_f_97_1137)">
<path d="M54.6822 87.8174C46.6259 95.7643 46.0504 129.917 46.7697 146C42.2358 116.37 41.274 83.6569 59.7175 64.5191C77.813 45.7423 110.789 41.6971 141 47.3734C123.017 46.6638 96.4024 50.2116 86.332 57.307C76.2616 64.4024 64.7526 77.8838 54.6822 87.8174Z" fill="url(#paint2_radial_97_1137)"/>
</g>
<defs>
<filter id="filter0_f_97_1137" x="1.31818" y="1.31818" width="253.364" height="253.364" filterUnits="userSpaceOnUse" color-interpolation-filters="sRGB">
<feFlood flood-opacity="0" result="BackgroundImageFix"/>
<feBlend mode="normal" in="SourceGraphic" in2="BackgroundImageFix" result="shape"/>
<feGaussianBlur stdDeviation="7.84091" result="effect1_foregroundBlur_97_1137"/>
</filter>
<filter id="filter1_f_97_1137" x="38.3182" y="39.3182" width="108.364" height="112.364" filterUnits="userSpaceOnUse" color-interpolation-filters="sRGB">
<feFlood flood-opacity="0" result="BackgroundImageFix"/>
<feBlend mode="normal" in="SourceGraphic" in2="BackgroundImageFix" result="shape"/>
<feGaussianBlur stdDeviation="2.84091" result="effect1_foregroundBlur_97_1137"/>
</filter>
<linearGradient id="paint0_linear_97_1137" x1="28" y1="28" x2="228" y2="228" gradientUnits="userSpaceOnUse">
<stop stop-color="white" stop-opacity="0"/>
<stop offset="0.655" stop-color="white" stop-opacity="0.05"/>
</linearGradient>
<radialGradient id="paint1_angular_97_1137" cx="0" cy="0" r="1" gradientUnits="userSpaceOnUse" gradientTransform="translate(128 128) rotate(45) scale(141.588)">
<stop stop-opacity="0.5"/>
<stop offset="0.253046" stop-opacity="0.35"/>
<stop offset="0.502899" stop-opacity="0.15"/>
<stop offset="0.753407" stop-opacity="0.25"/>
<stop offset="1" stop-opacity="0.5"/>
</radialGradient>
<radialGradient id="paint2_radial_97_1137" cx="0" cy="0" r="1" gradientUnits="userSpaceOnUse" gradientTransform="translate(66.2988 67.2406) scale(67.6157 63.1855)">
<stop offset="0.29" stop-color="white"/>
<stop offset="0.415" stop-color="white" stop-opacity="0.5"/>
<stop offset="1" stop-color="white" stop-opacity="0"/>
</radialGradient>
</defs>
</svg>
