<svg width="256" height="256" viewBox="0 0 256 256" fill="none" xmlns="http://www.w3.org/2000/svg">
<metadata>
  <rdf:RDF xmlns:rdf="http://www.w3.org/1999/02/22-rdf-syntax-ns#"
            xmlns:dc="http://purl.org/dc/elements/1.1/">
    <rdf:Description>
      <dc:title>swrpg-online.com art asset</dc:title>
      <dc:creator>Joshua Ziggas</dc:creator>
      <dc:rights>CC BY-NC-SA 4.0 - https://github.com/swrpg-online/art</dc:rights>
    </rdf:Description>
  </rdf:RDF>
</metadata>
<desc>
  wrpg-online.com SWRPG Dice Asset
  Created by: Joshua Ziggas
  Source: https://github.com/swrpg-online/art
  License: CC BY-NC-SA 4.0
</desc><mask id="mask0_97_1221" style="mask-type:alpha" maskUnits="userSpaceOnUse" x="10" y="0" width="237" height="256">
<path d="M100.602 7.4368C117.776 -2.47893 138.936 -2.47893 156.111 7.4368L218.82 43.6421C235.995 53.5579 246.575 71.8829 246.575 91.7144V164.125C246.575 183.956 235.995 202.281 218.82 212.197L156.111 248.403C138.936 258.318 117.776 258.318 100.602 248.403L37.8921 212.197C20.7175 202.281 10.1376 183.956 10.1376 164.125V91.7144C10.1376 71.8829 20.7175 53.5578 37.8921 43.6421L100.602 7.4368Z" fill="black"/>
</mask>
<g mask="url(#mask0_97_1221)">
<rect width="256" height="256" fill="#F1F1F1"/>
<mask id="mask1_97_1221" style="mask-type:alpha" maskUnits="userSpaceOnUse" x="10" y="0" width="237" height="256">
<path d="M100.602 7.4368C117.776 -2.47893 138.936 -2.47893 156.111 7.4368L218.82 43.6421C235.995 53.5579 246.575 71.8829 246.575 91.7144V164.125C246.575 183.956 235.995 202.281 218.82 212.197L156.111 248.403C138.936 258.318 117.776 258.318 100.602 248.403L37.8921 212.197C20.7175 202.281 10.1376 183.956 10.1376 164.125V91.7144C10.1376 71.8829 20.7175 53.5578 37.8921 43.6421L100.602 7.4368Z" fill="#9B46E0"/>
</mask>
<g mask="url(#mask1_97_1221)">
<g filter="url(#filter0_f_97_1221)">
<mask id="mask2_97_1221" style="mask-type:alpha" maskUnits="userSpaceOnUse" x="-1" y="-13" width="260" height="280">
<path fill-rule="evenodd" clip-rule="evenodd" d="M158.903 -4.86089C140.09 -15.713 116.911 -15.713 98.097 -4.86089L29.4032 34.7635C10.5897 45.6157 -0.999882 65.6713 -0.999882 87.3756V166.624C-0.999882 188.329 10.5897 208.384 29.4032 219.236L98.097 258.861C116.911 269.713 140.09 269.713 158.903 258.861L227.597 219.236C246.411 208.384 258 188.329 258 166.624V87.3756C258 65.6713 246.411 45.6157 227.597 34.7635L158.903 -4.86089ZM110.206 232.99C118.273 246.962 138.439 246.962 146.506 232.99L228.425 91.1025C236.491 77.1308 226.408 59.6662 210.275 59.6662L46.4371 59.6662C30.304 59.6662 20.2209 77.1308 28.2874 91.1025L110.206 232.99Z" fill="#9B46E0"/>
</mask>
<g mask="url(#mask2_97_1221)">
<path d="M151.281 -6.49614C140.934 -12.5013 115.066 -12.5013 104.719 -6.49615L-0.358239 54.4884C-10.7052 60.4936 2.22848 68 22.9224 68L233.078 68C253.772 68 266.705 60.4936 256.358 54.4884L151.281 -6.49614Z" fill="black" fill-opacity="0.25"/>
<path d="M233.108 214.558C243.28 208.689 255.99 186.674 255.987 174.931L255.954 55.6754C255.95 43.9324 243.236 51.2683 233.068 68.8801L129.806 247.735C119.638 265.347 119.642 280.026 129.813 274.157L233.108 214.558Z" fill="black" fill-opacity="0.5"/>
<path d="M22.4335 216.016C11.913 209.946 -1.2333 187.176 -1.22994 175.03L-1.19583 51.6826C-1.19247 39.5366 11.958 47.1242 22.4751 65.3403L129.28 250.332C139.797 268.548 139.793 283.73 129.272 277.66L22.4335 216.016Z" fill="black" fill-opacity="0.35"/>
</g>
</g>
</g>
</g>
<path d="M95.5831 166.555C93.0647 166.555 91.0231 164.513 91.0231 161.995V153.386C91.0231 150.867 93.0647 148.826 95.5831 148.826H143.039C144.298 148.826 145.319 147.805 145.319 146.546V108.999C145.319 107.739 144.298 106.719 143.039 106.719H95.5831C93.0647 106.719 91.0231 104.677 91.0231 102.159V93.5493C91.0231 91.0308 93.0647 88.9893 95.5831 88.9893H159.596C162.115 88.9893 164.156 91.0308 164.156 93.5493V161.995C164.156 164.513 162.115 166.555 159.596 166.555H95.5831ZM95.5831 136.637C93.0647 136.637 91.0231 134.595 91.0231 132.077V123.467C91.0231 120.949 93.0647 118.907 95.5831 118.907H131.894C134.413 118.907 136.454 120.949 136.454 123.467V132.077C136.454 134.595 134.413 136.637 131.894 136.637H95.5831Z" fill="black"/>
<g filter="url(#filter1_f_97_1221)">
<path d="M46.1416 88.8367C46.1416 104.243 68.7984 141.325 80.1268 157.94C73.8018 149.255 59.5091 128.883 52.9387 116.874C44.7256 101.864 31.698 80.6236 39.6278 72.6938C45.9717 66.3499 71.7249 64.7639 83.8085 64.7639H148.38C174.152 64.7639 195.204 71.3721 202.19 74.6762C202.19 74.6762 171.32 69.0121 148.38 69.0121H83.8085C69.0816 69.0121 46.1416 69.5785 46.1416 88.8367Z" fill="url(#paint0_radial_97_1221)"/>
</g>
<defs>
<filter id="filter0_f_97_1221" x="-12.9999" y="-23" width="283" height="302" filterUnits="userSpaceOnUse" color-interpolation-filters="sRGB">
<feFlood flood-opacity="0" result="BackgroundImageFix"/>
<feBlend mode="normal" in="SourceGraphic" in2="BackgroundImageFix" result="shape"/>
<feGaussianBlur stdDeviation="6" result="effect1_foregroundBlur_97_1221"/>
</filter>
<filter id="filter1_f_97_1221" x="31.4984" y="59.0997" width="176.356" height="104.504" filterUnits="userSpaceOnUse" color-interpolation-filters="sRGB">
<feFlood flood-opacity="0" result="BackgroundImageFix"/>
<feBlend mode="normal" in="SourceGraphic" in2="BackgroundImageFix" result="shape"/>
<feGaussianBlur stdDeviation="2.83209" result="effect1_foregroundBlur_97_1221"/>
</filter>
<radialGradient id="paint0_radial_97_1221" cx="0" cy="0" r="1" gradientUnits="userSpaceOnUse" gradientTransform="translate(37.1626 71.5609) rotate(34.3188) scale(171.795 304.273)">
<stop stop-color="white"/>
<stop offset="1" stop-color="white" stop-opacity="0"/>
</radialGradient>
</defs>
</svg>
