<svg width="256" height="256" viewBox="0 0 256 256" fill="none" xmlns="http://www.w3.org/2000/svg">
<metadata>
  <rdf:RDF xmlns:rdf="http://www.w3.org/1999/02/22-rdf-syntax-ns#"
            xmlns:dc="http://purl.org/dc/elements/1.1/">
    <rdf:Description>
      <dc:title>swrpg-online.com art asset</dc:title>
      <dc:creator>Joshua Ziggas</dc:creator>
      <dc:rights>CC BY-NC-SA 4.0 - https://github.com/swrpg-online/art</dc:rights>
    </rdf:Description>
  </rdf:RDF>
</metadata>
<desc>
  wrpg-online.com SWRPG Dice Asset
  Created by: Joshua Ziggas
  Source: https://github.com/swrpg-online/art
  License: CC BY-NC-SA 4.0
</desc><g clip-path="url(#clip0_112_5770)">
<mask id="mask0_112_5770" style="mask-type:alpha" maskUnits="userSpaceOnUse" x="-1" y="14" width="257" height="227">
<path d="M110.378 235.925C121.122 242.653 134.765 242.653 145.51 235.925L236.465 178.967C240.041 176.727 243.005 173.634 245.089 169.966C259.671 144.301 259.619 112.765 245.037 87.1009C242.99 83.4981 240.09 80.4357 236.6 78.2015L145.789 20.0607C134.912 13.0963 120.976 13.0963 110.098 20.0607L19.2873 78.2015C15.7976 80.4357 12.8973 83.4981 10.8503 87.1009C-3.7317 112.765 -3.78385 144.301 10.7982 169.966C12.8826 173.634 15.8462 176.727 19.4224 178.967L110.378 235.925Z" fill="#D1D1D1"/>
</mask>
<g mask="url(#mask0_112_5770)">
<rect width="256" height="256" fill="#C8625C"/>
<g style="mix-blend-mode:multiply">
<g filter="url(#filter0_f_112_5770)">
<path fill-rule="evenodd" clip-rule="evenodd" d="M264.334 9.53809H-8.98047V246.553H264.334V9.53809ZM95.379 68.538L95.3797 68.5363C102.708 51.0434 113.835 24.4849 126.609 24.4849C139.383 24.4849 150.51 51.0434 157.838 68.5363C158.929 71.1398 159.935 73.5424 160.851 75.6269C161.399 76.8747 162.015 78.2608 162.687 79.7699C170.672 97.7186 186.396 133.064 186.396 160.097C186.396 189.403 155.959 212.388 126.609 212.388C97.2587 212.388 66.8215 189.403 66.8215 160.097C66.8215 133.064 82.546 97.7186 90.531 79.7699L90.5311 79.7697C91.2024 78.2607 91.819 76.8747 92.367 75.6269C93.2822 73.5429 94.2886 71.1408 95.379 68.538Z" fill="#D8D6D6"/>
</g>
<g filter="url(#filter1_f_112_5770)">
<path d="M162.455 209.278C140.5 221.501 113.785 221.501 91.8298 209.278L75.3623 200.111C70.2021 197.442 57.3193 190.929 47.07 186.232C43.3888 184.544 39.4431 182.989 35.5116 181.44C25.7605 177.597 16.0965 173.788 10.7705 168.082C4.79173 161.676 2.22941 155.092 1.69559 152.601H-3.64258V256.695H257.928V152.601H252.589C252.056 155.092 249.493 161.676 243.515 168.082C238.188 173.788 228.525 177.597 218.773 181.44C214.842 182.989 210.896 184.544 207.215 186.232C196.966 190.929 184.083 197.442 178.923 200.111L162.455 209.278Z" fill="#595959"/>
</g>
<g filter="url(#filter2_f_112_5770)">
<path d="M179.436 105.141C169.728 84.5729 145.995 32.6107 151.389 26.6567C154.625 22.8678 168.11 29.3631 184.291 38.0234C200.472 46.6838 233.374 69.9585 244.161 80.784C254.949 91.6095 261.421 112.719 260.342 131.664C259.263 150.608 248.476 177.131 227.98 171.177C207.484 165.223 189.145 125.71 179.436 105.141Z" fill="#B9B9B9"/>
</g>
<g filter="url(#filter3_f_112_5770)">
<path d="M74.8488 105.141C84.5575 84.5729 108.29 32.6107 102.896 26.6567C99.6599 22.8678 86.1756 29.3631 69.9944 38.0234C53.8133 46.6838 20.9115 69.9585 10.1241 80.784C-0.663345 91.6095 -7.13581 112.719 -6.05707 131.664C-4.97832 150.608 5.80912 177.131 26.3053 171.177C46.8014 165.223 65.1401 125.71 74.8488 105.141Z" fill="#C7C7C7"/>
</g>
</g>
</g>
<g clip-path="url(#clip1_112_5770)">
<path d="M132.793 169C131.206 169 129.92 167.711 129.92 166.122V122.918C129.92 121.329 131.206 120.04 132.793 120.04H173.127C174.714 120.04 176 121.329 176 122.918V166.122C176 167.711 174.714 169 173.127 169H132.793ZM143.226 131.231C142.432 131.231 141.789 131.875 141.789 132.67V156.37C141.789 157.165 142.432 157.809 143.226 157.809H162.694C163.488 157.809 164.131 157.165 164.131 156.37V132.67C164.131 131.875 163.488 131.231 162.694 131.231H143.226ZM147.374 140.364C147.374 139.569 148.018 138.925 148.811 138.925H157.109C157.902 138.925 158.545 139.569 158.545 140.364V148.676C158.545 149.471 157.902 150.115 157.109 150.115H148.811C148.018 150.115 147.374 149.471 147.374 148.676V140.364Z" fill="white"/>
<path d="M82.6019 168.539C81.0123 168.539 79.7236 167.25 79.7236 165.661V122.457C79.7236 120.868 81.0123 119.579 82.6019 119.579H123.008C124.597 119.579 125.886 120.868 125.886 122.457V165.661C125.886 167.25 124.597 168.539 123.008 168.539H82.6019ZM93.0531 130.77C92.2583 130.77 91.6139 131.414 91.6139 132.209V137.025C91.6139 137.819 92.2583 138.464 93.0531 138.464H112.556C113.351 138.464 113.996 137.819 113.996 137.025V132.209C113.996 131.414 113.351 130.77 112.556 130.77H93.0531ZM93.0531 149.655C92.2583 149.655 91.6139 150.299 91.6139 151.094V155.909C91.6139 156.704 92.2583 157.348 93.0531 157.348H112.556C113.351 157.348 113.996 156.704 113.996 155.909V151.094C113.996 150.299 113.351 149.655 112.556 149.655H93.0531Z" fill="white"/>
</g>
<g filter="url(#filter4_f_112_5770)">
<path fill-rule="evenodd" clip-rule="evenodd" d="M93.2445 69.5637L93.2448 69.5629C100.573 52.5103 111.7 26.6201 124.474 26.6201C126.14 26.6201 127.778 27.0605 129.383 27.8643C117.238 29.8124 106.692 54.9551 99.6506 71.7404C98.5599 74.3406 97.5533 76.7403 96.6379 78.8222C96.09 80.0684 95.4733 81.4527 94.802 82.9598L94.8019 82.96C86.8169 100.886 71.0924 136.188 71.0924 163.188C71.0924 176.477 77.3673 188.466 86.9663 197.594C73.8485 188.313 64.6865 174.494 64.6865 158.82C64.6865 132.467 80.411 98.0108 88.3961 80.5138L88.3968 80.5123C89.0679 79.0418 89.6843 77.6911 90.2321 76.475C91.1474 74.4433 92.1539 72.1013 93.2445 69.5637Z" fill="white"/>
</g>
</g>
<defs>
<filter id="filter0_f_112_5770" x="-18.9805" y="-0.461914" width="293.314" height="257.015" filterUnits="userSpaceOnUse" color-interpolation-filters="sRGB">
<feFlood flood-opacity="0" result="BackgroundImageFix"/>
<feBlend mode="normal" in="SourceGraphic" in2="BackgroundImageFix" result="shape"/>
<feGaussianBlur stdDeviation="5" result="effect1_foregroundBlur_112_5770"/>
</filter>
<filter id="filter1_f_112_5770" x="-13.6426" y="142.601" width="281.57" height="124.094" filterUnits="userSpaceOnUse" color-interpolation-filters="sRGB">
<feFlood flood-opacity="0" result="BackgroundImageFix"/>
<feBlend mode="normal" in="SourceGraphic" in2="BackgroundImageFix" result="shape"/>
<feGaussianBlur stdDeviation="5" result="effect1_foregroundBlur_112_5770"/>
</filter>
<filter id="filter2_f_112_5770" x="140.602" y="15.5525" width="129.857" height="166.477" filterUnits="userSpaceOnUse" color-interpolation-filters="sRGB">
<feFlood flood-opacity="0" result="BackgroundImageFix"/>
<feBlend mode="normal" in="SourceGraphic" in2="BackgroundImageFix" result="shape"/>
<feGaussianBlur stdDeviation="5" result="effect1_foregroundBlur_112_5770"/>
</filter>
<filter id="filter3_f_112_5770" x="-16.1738" y="15.5525" width="129.857" height="166.477" filterUnits="userSpaceOnUse" color-interpolation-filters="sRGB">
<feFlood flood-opacity="0" result="BackgroundImageFix"/>
<feBlend mode="normal" in="SourceGraphic" in2="BackgroundImageFix" result="shape"/>
<feGaussianBlur stdDeviation="5" result="effect1_foregroundBlur_112_5770"/>
</filter>
<filter id="filter4_f_112_5770" x="60.6865" y="22.6201" width="72.6963" height="178.974" filterUnits="userSpaceOnUse" color-interpolation-filters="sRGB">
<feFlood flood-opacity="0" result="BackgroundImageFix"/>
<feBlend mode="normal" in="SourceGraphic" in2="BackgroundImageFix" result="shape"/>
<feGaussianBlur stdDeviation="2" result="effect1_foregroundBlur_112_5770"/>
</filter>
<clipPath id="clip0_112_5770">
<rect width="256" height="256" fill="white"/>
</clipPath>
<clipPath id="clip1_112_5770">
<rect width="96" height="96" fill="white" transform="translate(80 97)"/>
</clipPath>
</defs>
</svg>
