<svg width="256" height="256" viewBox="0 0 256 256" fill="none" xmlns="http://www.w3.org/2000/svg">
<metadata>
  <rdf:RDF xmlns:rdf="http://www.w3.org/1999/02/22-rdf-syntax-ns#"
            xmlns:dc="http://purl.org/dc/elements/1.1/">
    <rdf:Description>
      <dc:title>swrpg-online.com art asset</dc:title>
      <dc:creator>Joshua Ziggas</dc:creator>
      <dc:rights>CC BY-NC-SA 4.0 - https://github.com/swrpg-online/art</dc:rights>
    </rdf:Description>
  </rdf:RDF>
</metadata>
<desc>
  wrpg-online.com SWRPG Dice Asset
  Created by: Joshua Ziggas
  Source: https://github.com/swrpg-online/art
  License: CC BY-NC-SA 4.0
</desc><mask id="mask0_112_5740" style="mask-type:alpha" maskUnits="userSpaceOnUse" x="2" y="17" width="252" height="223">
<path d="M111.095 26.5C118.408 13.8333 136.691 13.8333 144.004 26.5L250.525 211C257.838 223.667 248.697 239.5 234.071 239.5H21.0283C6.40214 239.5 -2.73924 223.667 4.57386 211L111.095 26.5Z" fill="#D9D9D9"/>
</mask>
<g mask="url(#mask0_112_5740)">
<rect width="256" height="256" fill="#C8625C"/>
<g style="mix-blend-mode:multiply" filter="url(#filter0_f_112_5740)">
<path d="M279.337 102.182C279.369 87.9554 263.989 61.315 251.652 54.2295L126.366 -17.7263C114.029 -24.8118 113.988 -7.02832 126.293 14.284L251.252 230.719C263.556 252.031 278.977 260.888 279.01 246.661L279.337 102.182Z" fill="black" fill-opacity="0.25"/>
<path d="M100.333 317.894C112.425 324.879 142.655 324.879 154.747 317.894L277.547 246.95C289.639 239.964 274.524 231.232 250.339 231.232L4.74033 231.232C-19.4438 231.232 -34.5589 239.964 -22.4668 246.95L100.333 317.894Z" fill="black" fill-opacity="0.5"/>
<path d="M-26.4366 101.791C-26.4405 87.3471 -10.8069 60.2688 1.704 53.0503L128.757 -20.2571C141.268 -27.4757 141.273 -9.42066 128.766 12.242L1.75356 232.234C-10.7533 253.897 -26.392 262.92 -26.396 248.476L-26.4366 101.791Z" fill="black" fill-opacity="0.35"/>
</g>
</g>
<g clip-path="url(#clip0_112_5740)">
<path d="M193.194 143.411C193.856 144.559 193.463 146.027 192.315 146.69L188.391 148.955C187.243 149.618 185.775 149.225 185.113 148.077L172.624 126.446C172.293 125.872 171.559 125.676 170.985 126.007L153.871 135.888C153.297 136.219 153.1 136.953 153.432 137.527L165.92 159.158C166.583 160.305 166.19 161.773 165.042 162.436L161.118 164.702C159.97 165.364 158.502 164.971 157.839 163.823L140.993 134.646C140.331 133.498 140.724 132.03 141.872 131.367L173.07 113.355C174.218 112.693 175.685 113.086 176.348 114.234L193.194 143.411ZM179.557 151.284C180.22 152.432 179.826 153.9 178.678 154.563L174.754 156.828C173.606 157.491 172.139 157.098 171.476 155.95L161.92 139.399C161.258 138.251 161.651 136.783 162.799 136.121L166.723 133.855C167.871 133.192 169.339 133.586 170.001 134.734L179.557 151.284Z" fill="white"/>
</g>
<g clip-path="url(#clip1_112_5740)">
<path d="M98.4466 162.991C97.7838 164.139 96.316 164.532 95.1681 163.87L77.6072 153.731C76.4593 153.068 76.066 151.6 76.7287 150.452L93.5743 121.275C94.2371 120.127 95.7049 119.734 96.8528 120.396L100.777 122.662C101.925 123.325 102.318 124.793 101.655 125.94L89.167 147.571C88.8356 148.145 89.0323 148.879 89.6062 149.21L93.0835 151.218C93.6575 151.549 94.3914 151.353 94.7227 150.779L107.211 129.148C107.874 128 109.342 127.607 110.49 128.27L114.414 130.535C115.562 131.198 115.955 132.666 115.292 133.814L98.4466 162.991ZM87.1402 114.789C88.2881 115.452 88.6814 116.919 88.0186 118.067L71.173 147.245C70.5103 148.393 69.0425 148.786 67.8946 148.123L63.9704 145.858C62.8225 145.195 62.4292 143.727 63.092 142.579L79.9376 113.402C80.6003 112.254 82.0681 111.86 83.216 112.523L87.1402 114.789Z" fill="white"/>
</g>
<path d="M142.629 182.325C143.955 182.325 145.029 183.383 145.029 184.688V220.166C145.029 221.472 143.955 222.53 142.629 222.53H137.515C136.189 222.53 135.115 221.472 135.115 220.166V208.204C135.115 207.551 134.578 207.022 133.915 207.022H108.938C107.613 207.022 106.538 205.964 106.538 204.659V184.688C106.538 183.383 107.613 182.325 108.938 182.325H114.052C115.378 182.325 116.452 183.383 116.452 184.688V196.651C116.452 197.303 116.99 197.832 117.652 197.832H133.915C134.578 197.832 135.115 197.303 135.115 196.651V184.688C135.115 183.383 136.189 182.325 137.515 182.325H142.629Z" fill="white"/>
<defs>
<filter id="filter0_f_112_5740" x="-46.7227" y="-41.8732" width="348.525" height="385.006" filterUnits="userSpaceOnUse" color-interpolation-filters="sRGB">
<feFlood flood-opacity="0" result="BackgroundImageFix"/>
<feBlend mode="normal" in="SourceGraphic" in2="BackgroundImageFix" result="shape"/>
<feGaussianBlur stdDeviation="10" result="effect1_foregroundBlur_112_5740"/>
</filter>
<clipPath id="clip0_112_5740">
<rect width="60" height="60" fill="white" transform="translate(156.108 179.762) rotate(-120)"/>
</clipPath>
<clipPath id="clip1_112_5740">
<rect width="60" height="60" fill="white" transform="translate(129.961 127.343) rotate(120)"/>
</clipPath>
</defs>
</svg>
