<svg width="256" height="256" viewBox="0 0 256 256" fill="none" xmlns="http://www.w3.org/2000/svg">
<metadata>
  <rdf:RDF xmlns:rdf="http://www.w3.org/1999/02/22-rdf-syntax-ns#"
            xmlns:dc="http://purl.org/dc/elements/1.1/">
    <rdf:Description>
      <dc:title>swrpg-online.com art asset</dc:title>
      <dc:creator>Joshua Ziggas</dc:creator>
      <dc:rights>CC BY-NC-SA 4.0 - https://github.com/swrpg-online/art</dc:rights>
    </rdf:Description>
  </rdf:RDF>
</metadata>
<desc>
  wrpg-online.com SWRPG Dice Asset
  Created by: Joshua Ziggas
  Source: https://github.com/swrpg-online/art
  License: CC BY-NC-SA 4.0
</desc><mask id="mask0_112_5741" style="mask-type:alpha" maskUnits="userSpaceOnUse" x="2" y="17" width="252" height="223">
<path d="M111.095 26.5C118.408 13.8333 136.691 13.8333 144.004 26.5L250.525 211C257.838 223.667 248.697 239.5 234.071 239.5H21.0283C6.40214 239.5 -2.73924 223.667 4.57386 211L111.095 26.5Z" fill="#D9D9D9"/>
</mask>
<g mask="url(#mask0_112_5741)">
<rect width="256" height="256" fill="#C8625C"/>
<g style="mix-blend-mode:multiply" filter="url(#filter0_f_112_5741)">
<path d="M279.337 102.182C279.369 87.9554 263.989 61.315 251.652 54.2295L126.366 -17.7263C114.029 -24.8118 113.988 -7.02832 126.293 14.284L251.252 230.719C263.556 252.031 278.977 260.888 279.01 246.661L279.337 102.182Z" fill="black" fill-opacity="0.25"/>
<path d="M100.333 317.894C112.425 324.879 142.655 324.879 154.747 317.894L277.547 246.95C289.639 239.964 274.524 231.232 250.339 231.232L4.74033 231.232C-19.4438 231.232 -34.5589 239.964 -22.4668 246.95L100.333 317.894Z" fill="black" fill-opacity="0.5"/>
<path d="M-26.4366 101.791C-26.4405 87.3471 -10.8069 60.2688 1.704 53.0503L128.757 -20.2571C141.268 -27.4757 141.273 -9.42066 128.766 12.242L1.75356 232.234C-10.7533 253.897 -26.392 262.92 -26.396 248.476L-26.4366 101.791Z" fill="black" fill-opacity="0.35"/>
</g>
</g>
<g clip-path="url(#clip0_112_5741)">
<path d="M166.767 116.301C166.104 115.153 166.498 113.685 167.645 113.023L171.57 110.757C172.718 110.094 174.185 110.488 174.848 111.636L191.694 140.813C192.356 141.961 191.963 143.429 190.815 144.091L186.891 146.357C185.743 147.02 184.275 146.627 183.613 145.479L177.668 135.183L158.476 146.264L164.42 156.559C165.083 157.707 164.69 159.175 163.542 159.838L159.618 162.103C158.47 162.766 157.002 162.373 156.339 161.225L146.638 144.422C145.975 143.274 146.368 141.806 147.516 141.143L172.711 126.597L166.767 116.301Z" fill="white"/>
</g>
<g clip-path="url(#clip1_112_5741)">
<path d="M98.4466 162.991C97.7838 164.139 96.316 164.532 95.1681 163.87L63.9704 145.858C62.8225 145.195 62.4292 143.727 63.092 142.579L65.6492 138.15C66.3119 137.002 67.7797 136.609 68.9276 137.271L79.4467 143.345C80.0207 143.676 80.7546 143.479 81.0859 142.905L93.5743 121.275C94.2371 120.127 95.7049 119.734 96.8528 120.396L114.414 130.535C115.562 131.198 115.955 132.666 115.292 133.814L112.735 138.243C112.072 139.391 110.604 139.784 109.457 139.121L98.9374 133.048C98.3635 132.717 97.6296 132.913 97.2982 133.487L89.167 147.571C88.8356 148.145 89.0323 148.879 89.6062 149.21L100.125 155.283C101.273 155.946 101.667 157.414 101.004 158.562L98.4466 162.991Z" fill="white"/>
</g>
<path d="M108.938 222.53C107.613 222.53 106.538 221.472 106.538 220.166V215.704C106.538 214.398 107.613 213.34 108.938 213.34H133.915C134.578 213.34 135.115 212.811 135.115 212.158V192.696C135.115 192.044 134.578 191.514 133.915 191.514H108.938C107.613 191.514 106.538 190.456 106.538 189.151V184.688C106.538 183.383 107.613 182.325 108.938 182.325H142.629C143.955 182.325 145.029 183.383 145.029 184.688V220.166C145.029 221.472 143.955 222.53 142.629 222.53H108.938ZM108.938 207.022C107.613 207.022 106.538 205.964 106.538 204.659V200.196C106.538 198.891 107.613 197.832 108.938 197.832H128.049C129.375 197.832 130.449 198.891 130.449 200.196V204.659C130.449 205.964 129.375 207.022 128.049 207.022H108.938Z" fill="white"/>
<defs>
<filter id="filter0_f_112_5741" x="-46.7227" y="-41.8732" width="348.525" height="385.006" filterUnits="userSpaceOnUse" color-interpolation-filters="sRGB">
<feFlood flood-opacity="0" result="BackgroundImageFix"/>
<feBlend mode="normal" in="SourceGraphic" in2="BackgroundImageFix" result="shape"/>
<feGaussianBlur stdDeviation="10" result="effect1_foregroundBlur_112_5741"/>
</filter>
<clipPath id="clip0_112_5741">
<rect width="60" height="60" fill="white" transform="translate(156.108 179.762) rotate(-120)"/>
</clipPath>
<clipPath id="clip1_112_5741">
<rect width="60" height="60" fill="white" transform="translate(129.961 127.343) rotate(120)"/>
</clipPath>
</defs>
</svg>
