<svg width="256" height="256" viewBox="0 0 256 256" fill="none" xmlns="http://www.w3.org/2000/svg">
<metadata>
  <rdf:RDF xmlns:rdf="http://www.w3.org/1999/02/22-rdf-syntax-ns#"
            xmlns:dc="http://purl.org/dc/elements/1.1/">
    <rdf:Description>
      <dc:title>swrpg-online.com art asset</dc:title>
      <dc:creator>Joshua Ziggas</dc:creator>
      <dc:rights>CC BY-NC-SA 4.0 - https://github.com/swrpg-online/art</dc:rights>
    </rdf:Description>
  </rdf:RDF>
</metadata>
<desc>
  wrpg-online.com SWRPG Dice Asset
  Created by: Joshua Ziggas
  Source: https://github.com/swrpg-online/art
  License: CC BY-NC-SA 4.0
</desc><g clip-path="url(#clip0_112_5894)">
<mask id="mask0_112_5894" style="mask-type:alpha" maskUnits="userSpaceOnUse" x="-1" y="14" width="257" height="227">
<path d="M110.379 235.925C121.123 242.653 134.766 242.653 145.511 235.925L236.466 178.967C240.042 176.727 243.006 173.634 245.09 169.966C259.672 144.301 259.62 112.765 245.038 87.1008C242.991 83.498 240.091 80.4356 236.601 78.2014L145.79 20.0606C134.913 13.0962 120.977 13.0962 110.099 20.0606L19.2882 78.2014C15.7985 80.4356 12.8983 83.498 10.8513 87.1008C-3.73072 112.765 -3.78287 144.301 10.7991 169.966C12.8836 173.634 15.8472 176.727 19.4234 178.967L110.379 235.925Z" fill="#D1D1D1"/>
</mask>
<g mask="url(#mask0_112_5894)">
<rect width="256" height="256" fill="#C8625C"/>
<g style="mix-blend-mode:multiply">
<g filter="url(#filter0_f_112_5894)">
<path fill-rule="evenodd" clip-rule="evenodd" d="M264.336 9.53796H-8.97852V246.553H264.336V9.53796ZM95.381 68.5378L95.3817 68.5361C102.71 51.0433 113.837 24.4848 126.611 24.4848C139.385 24.4848 150.511 51.0433 157.84 68.5361C158.931 71.1396 159.937 73.5423 160.853 75.6267C161.401 76.8746 162.017 78.2607 162.689 79.7697C170.674 97.7185 186.398 133.064 186.398 160.097C186.398 189.403 155.961 212.388 126.611 212.388C97.2607 212.388 66.8234 189.403 66.8234 160.097C66.8234 133.064 82.5479 97.7185 90.533 79.7697L90.533 79.7696C91.2044 78.2606 91.821 76.8745 92.369 75.6267C93.2842 73.5428 94.2905 71.1407 95.381 68.5378Z" fill="#D8D6D6"/>
</g>
<g filter="url(#filter1_f_112_5894)">
<path d="M162.457 209.278C140.502 221.501 113.787 221.501 91.8317 209.278L75.3642 200.111C70.204 197.441 57.3212 190.929 47.072 186.231C43.3907 184.544 39.4451 182.989 35.5136 181.44C25.7625 177.597 16.0985 173.788 10.7724 168.082C4.79368 161.676 2.23136 155.092 1.69754 152.601H-3.64062V256.695H257.93V152.601H252.591C252.058 155.092 249.495 161.676 243.517 168.082C238.19 173.788 228.526 177.597 218.775 181.44C214.844 182.989 210.898 184.544 207.217 186.231C196.968 190.929 184.085 197.441 178.925 200.111L162.457 209.278Z" fill="#595959"/>
</g>
<g filter="url(#filter2_f_112_5894)">
<path d="M179.438 105.141C169.73 84.5729 145.997 32.6107 151.391 26.6567C154.627 22.8678 168.112 29.3631 184.293 38.0234C200.474 46.6838 233.376 69.9585 244.163 80.784C254.95 91.6095 261.423 112.719 260.344 131.664C259.265 150.608 248.478 177.131 227.982 171.177C207.486 165.223 189.147 125.71 179.438 105.141Z" fill="#B9B9B9"/>
</g>
<g filter="url(#filter3_f_112_5894)">
<path d="M74.8507 105.141C84.5594 84.5729 108.292 32.6107 102.898 26.6567C99.6618 22.8678 86.1775 29.3631 69.9964 38.0234C53.8152 46.6838 20.9135 69.9585 10.1261 80.784C-0.661392 91.6095 -7.13386 112.719 -6.05511 131.664C-4.97637 150.608 5.81107 177.131 26.3072 171.177C46.8034 165.223 65.142 125.71 74.8507 105.141Z" fill="#C7C7C7"/>
</g>
</g>
</g>
<g clip-path="url(#clip1_112_5894)">
<path d="M153.774 186.044C146.828 186.044 141.47 184.324 137.699 180.884C133.962 177.411 132.011 172.483 131.845 166.1C131.713 161.304 131.63 156.574 131.597 151.911C131.564 147.247 131.564 142.633 131.597 138.069C131.663 133.505 131.746 128.99 131.845 124.525C132.011 118.108 133.979 113.197 137.749 109.79C141.553 106.383 146.894 104.68 153.774 104.68C160.587 104.68 165.879 106.383 169.65 109.79C173.42 113.197 175.405 118.108 175.603 124.525C175.735 128.428 175.835 132.165 175.901 135.737C175.967 139.309 176 142.782 176 146.156C176 149.529 175.967 152.87 175.901 156.177C175.835 159.452 175.735 162.759 175.603 166.1C175.372 172.748 173.321 177.742 169.451 181.083C165.615 184.39 160.389 186.044 153.774 186.044ZM153.774 173.939C158.007 173.939 160.223 172.351 160.422 169.176C160.686 163.685 160.852 158.46 160.918 153.498C161.017 148.504 161.017 143.444 160.918 138.317C160.852 133.157 160.686 127.601 160.422 121.647C160.323 118.406 158.107 116.785 153.774 116.785C149.375 116.785 147.126 118.439 147.027 121.747C146.861 125.947 146.729 129.949 146.63 133.753C146.563 137.556 146.53 141.31 146.53 145.015C146.53 148.719 146.563 152.523 146.63 156.425C146.729 160.328 146.861 164.479 147.027 168.878C147.126 172.252 149.375 173.939 153.774 173.939Z" fill="white"/>
<path d="M80.1984 185.052C80.1654 183.828 80.1323 182.687 80.0992 181.628C80.0992 180.57 80.0827 179.561 80.0496 178.602C80.0496 177.61 80.0331 176.618 80 175.625C80 174.633 80 173.575 80 172.45C80.0331 171.293 80.0661 170.036 80.0992 168.68C80.1984 165.306 80.8269 162.214 81.9845 159.402C83.1752 156.558 84.9281 153.978 87.2434 151.663C89.5586 149.314 92.4692 147.214 95.9751 145.362L102.921 141.691C105.203 140.5 106.675 139.045 107.336 137.325C107.998 135.605 108.378 134.05 108.477 132.661C108.577 131.008 108.643 129.221 108.676 127.303C108.709 125.352 108.676 123.533 108.577 121.846C108.477 120.291 107.865 119.068 106.741 118.175C105.616 117.248 103.913 116.785 101.631 116.785C99.4149 116.785 97.8107 117.232 96.8185 118.125C95.8593 118.985 95.3467 120.093 95.2805 121.449C95.1813 124.128 95.1151 126.493 95.0821 128.543C95.0821 130.561 95.1482 132.86 95.2805 135.44H80.2977C80.2315 134.15 80.1819 132.86 80.1488 131.57C80.1158 130.247 80.0827 128.99 80.0496 127.799C80.0496 126.609 80.0661 125.517 80.0992 124.525C80.3969 117.414 82.216 112.337 85.5566 109.294C88.9302 106.218 94.2883 104.68 101.631 104.68C106.824 104.68 110.991 105.358 114.133 106.714C117.308 108.037 119.64 110.154 121.128 113.064C122.617 115.975 123.46 119.795 123.659 124.525C123.692 125.319 123.708 126.063 123.708 126.757C123.741 127.419 123.758 128.064 123.758 128.692C123.758 129.288 123.741 129.9 123.708 130.528C123.708 131.156 123.692 131.834 123.659 132.562C123.526 136.233 122.815 139.425 121.525 142.137C120.235 144.816 118.499 147.148 116.316 149.132C114.133 151.117 111.619 152.87 108.775 154.391L100.738 158.658C99.3818 159.386 98.3069 160.361 97.5131 161.585C96.7523 162.776 96.2066 164.016 95.8759 165.306C95.5451 166.596 95.3797 167.72 95.3797 168.68V171.954H122.468V185.052H80.1984Z" fill="white"/>
</g>
<g filter="url(#filter4_f_112_5894)">
<path fill-rule="evenodd" clip-rule="evenodd" d="M93.2454 69.5637L93.2458 69.5629C100.574 52.5103 111.701 26.6201 124.475 26.6201C126.141 26.6201 127.779 27.0605 129.384 27.8643C117.239 29.8124 106.693 54.9551 99.6516 71.7404C98.5609 74.3406 97.5543 76.7403 96.6389 78.8222C96.0909 80.0684 95.4743 81.4527 94.803 82.9598L94.8029 82.96C86.8178 100.886 71.0933 136.188 71.0933 163.188C71.0933 176.477 77.3683 188.466 86.9673 197.594C73.8495 188.313 64.6875 174.494 64.6875 158.82C64.6875 132.467 80.412 98.0108 88.3971 80.5138L88.3977 80.5123C89.0688 79.0418 89.6852 77.6911 90.2331 76.475C91.1483 74.4433 92.1548 72.1013 93.2454 69.5637Z" fill="white"/>
</g>
</g>
<defs>
<filter id="filter0_f_112_5894" x="-18.9785" y="-0.462036" width="293.314" height="257.015" filterUnits="userSpaceOnUse" color-interpolation-filters="sRGB">
<feFlood flood-opacity="0" result="BackgroundImageFix"/>
<feBlend mode="normal" in="SourceGraphic" in2="BackgroundImageFix" result="shape"/>
<feGaussianBlur stdDeviation="5" result="effect1_foregroundBlur_112_5894"/>
</filter>
<filter id="filter1_f_112_5894" x="-13.6406" y="142.601" width="281.57" height="124.094" filterUnits="userSpaceOnUse" color-interpolation-filters="sRGB">
<feFlood flood-opacity="0" result="BackgroundImageFix"/>
<feBlend mode="normal" in="SourceGraphic" in2="BackgroundImageFix" result="shape"/>
<feGaussianBlur stdDeviation="5" result="effect1_foregroundBlur_112_5894"/>
</filter>
<filter id="filter2_f_112_5894" x="140.604" y="15.5525" width="129.857" height="166.477" filterUnits="userSpaceOnUse" color-interpolation-filters="sRGB">
<feFlood flood-opacity="0" result="BackgroundImageFix"/>
<feBlend mode="normal" in="SourceGraphic" in2="BackgroundImageFix" result="shape"/>
<feGaussianBlur stdDeviation="5" result="effect1_foregroundBlur_112_5894"/>
</filter>
<filter id="filter3_f_112_5894" x="-16.1719" y="15.5525" width="129.857" height="166.477" filterUnits="userSpaceOnUse" color-interpolation-filters="sRGB">
<feFlood flood-opacity="0" result="BackgroundImageFix"/>
<feBlend mode="normal" in="SourceGraphic" in2="BackgroundImageFix" result="shape"/>
<feGaussianBlur stdDeviation="5" result="effect1_foregroundBlur_112_5894"/>
</filter>
<filter id="filter4_f_112_5894" x="60.6875" y="22.6201" width="72.6973" height="178.974" filterUnits="userSpaceOnUse" color-interpolation-filters="sRGB">
<feFlood flood-opacity="0" result="BackgroundImageFix"/>
<feBlend mode="normal" in="SourceGraphic" in2="BackgroundImageFix" result="shape"/>
<feGaussianBlur stdDeviation="2" result="effect1_foregroundBlur_112_5894"/>
</filter>
<clipPath id="clip0_112_5894">
<rect width="256" height="256" fill="white"/>
</clipPath>
<clipPath id="clip1_112_5894">
<rect width="96" height="96" fill="white" transform="translate(80 97)"/>
</clipPath>
</defs>
</svg>
