<svg width="256" height="256" viewBox="0 0 256 256" fill="none" xmlns="http://www.w3.org/2000/svg">
<metadata>
  <rdf:RDF xmlns:rdf="http://www.w3.org/1999/02/22-rdf-syntax-ns#"
            xmlns:dc="http://purl.org/dc/elements/1.1/">
    <rdf:Description>
      <dc:title>swrpg-online.com art asset</dc:title>
      <dc:creator>Joshua Ziggas</dc:creator>
      <dc:rights>CC BY-NC-SA 4.0 - https://github.com/swrpg-online/art</dc:rights>
    </rdf:Description>
  </rdf:RDF>
</metadata>
<desc>
  wrpg-online.com SWRPG Dice Asset
  Created by: Joshua Ziggas
  Source: https://github.com/swrpg-online/art
  License: CC BY-NC-SA 4.0
</desc><g clip-path="url(#clip0_112_5897)">
<mask id="mask0_112_5897" style="mask-type:alpha" maskUnits="userSpaceOnUse" x="-1" y="14" width="257" height="227">
<path d="M110.379 235.925C121.123 242.653 134.766 242.653 145.511 235.925L236.466 178.967C240.042 176.727 243.006 173.634 245.09 169.966C259.672 144.301 259.62 112.765 245.038 87.1009C242.991 83.4981 240.091 80.4357 236.601 78.2015L145.79 20.0607C134.913 13.0963 120.977 13.0963 110.099 20.0607L19.2882 78.2015C15.7985 80.4357 12.8983 83.4981 10.8513 87.1009C-3.73072 112.765 -3.78287 144.301 10.7991 169.966C12.8836 173.634 15.8472 176.727 19.4234 178.967L110.379 235.925Z" fill="#D1D1D1"/>
</mask>
<g mask="url(#mask0_112_5897)">
<rect width="256" height="256" fill="#C8625C"/>
<g style="mix-blend-mode:multiply">
<g filter="url(#filter0_f_112_5897)">
<path fill-rule="evenodd" clip-rule="evenodd" d="M264.336 9.53809H-8.97852V246.553H264.336V9.53809ZM95.381 68.538L95.3817 68.5363C102.71 51.0434 113.837 24.4849 126.611 24.4849C139.385 24.4849 150.511 51.0434 157.84 68.5363C158.931 71.1398 159.937 73.5424 160.853 75.6269C161.401 76.8747 162.017 78.2608 162.689 79.7699C170.674 97.7186 186.398 133.064 186.398 160.097C186.398 189.403 155.961 212.388 126.611 212.388C97.2607 212.388 66.8234 189.403 66.8234 160.097C66.8234 133.064 82.5479 97.7186 90.533 79.7699L90.533 79.7697C91.2044 78.2607 91.821 76.8747 92.369 75.6269C93.2842 73.5429 94.2905 71.1408 95.381 68.538Z" fill="#D8D6D6"/>
</g>
<g filter="url(#filter1_f_112_5897)">
<path d="M162.457 209.278C140.502 221.501 113.787 221.501 91.8317 209.278L75.3642 200.111C70.204 197.442 57.3212 190.929 47.072 186.232C43.3907 184.544 39.4451 182.989 35.5136 181.44C25.7625 177.597 16.0985 173.788 10.7724 168.082C4.79368 161.676 2.23136 155.092 1.69754 152.601H-3.64062V256.695H257.93V152.601H252.591C252.058 155.092 249.495 161.676 243.517 168.082C238.19 173.788 228.526 177.597 218.775 181.44C214.844 182.989 210.898 184.544 207.217 186.232C196.968 190.929 184.085 197.442 178.925 200.111L162.457 209.278Z" fill="#595959"/>
</g>
<g filter="url(#filter2_f_112_5897)">
<path d="M179.438 105.141C169.73 84.5729 145.997 32.6107 151.391 26.6567C154.627 22.8678 168.112 29.3631 184.293 38.0234C200.474 46.6838 233.376 69.9585 244.163 80.784C254.95 91.6095 261.423 112.719 260.344 131.664C259.265 150.608 248.478 177.131 227.982 171.177C207.486 165.223 189.147 125.71 179.438 105.141Z" fill="#B9B9B9"/>
</g>
<g filter="url(#filter3_f_112_5897)">
<path d="M74.8507 105.141C84.5594 84.5729 108.292 32.6107 102.898 26.6567C99.6618 22.8678 86.1775 29.3631 69.9964 38.0234C53.8152 46.6838 20.9135 69.9585 10.1261 80.784C-0.661392 91.6095 -7.13386 112.719 -6.05511 131.664C-4.97637 150.608 5.81107 177.131 26.3072 171.177C46.8034 165.223 65.142 125.71 74.8507 105.141Z" fill="#C7C7C7"/>
</g>
</g>
</g>
<path d="M128.131 188.2C119.807 188.2 113.907 186.497 110.43 183.09C106.953 179.648 105.056 174.292 104.74 167.022C104.705 165.968 104.688 165.142 104.688 164.545C104.688 163.913 104.705 163.281 104.74 162.649C104.775 162.017 104.846 161.121 104.951 159.962C105.337 156.063 106.303 153.008 107.848 150.795C109.394 148.547 111.694 146.791 114.75 145.527V143.314C112.643 142.577 110.781 141.365 109.166 139.679C107.585 137.993 106.531 135.868 106.005 133.304C105.829 132.462 105.671 131.425 105.53 130.196C105.425 128.932 105.337 127.667 105.267 126.403C105.232 125.103 105.232 123.962 105.267 122.979C105.653 115.533 107.55 110.142 110.957 106.805C114.364 103.468 120.088 101.8 128.131 101.8C135.928 101.8 141.601 103.433 145.148 106.7C148.695 109.966 150.645 115.392 150.996 122.979C151.031 123.962 151.013 125.103 150.943 126.403C150.908 127.667 150.82 128.932 150.68 130.196C150.574 131.425 150.434 132.462 150.258 133.304C149.731 135.868 148.66 137.993 147.045 139.679C145.464 141.365 143.62 142.577 141.513 143.314V145.632C144.323 146.897 146.518 148.67 148.098 150.953C149.714 153.201 150.785 156.169 151.312 159.857C151.523 161.332 151.628 162.596 151.628 163.65C151.628 164.668 151.593 165.792 151.523 167.022C151.171 174.538 149.205 179.946 145.622 183.248C142.075 186.549 136.245 188.2 128.131 188.2ZM128.131 175.345C130.625 175.345 132.451 174.819 133.61 173.765C134.805 172.676 135.402 171.131 135.402 169.129C135.402 167.935 135.402 166.741 135.402 165.546C135.402 164.317 135.402 163.105 135.402 161.911C135.402 160.682 135.402 159.47 135.402 158.276C135.402 156.274 134.805 154.746 133.61 153.693C132.451 152.604 130.625 152.06 128.131 152.06C125.673 152.06 123.847 152.604 122.652 153.693C121.458 154.746 120.861 156.274 120.861 158.276C120.861 160.067 120.861 161.876 120.861 163.702C120.861 165.529 120.861 167.338 120.861 169.129C120.861 171.131 121.458 172.676 122.652 173.765C123.847 174.819 125.673 175.345 128.131 175.345ZM128.131 136.992C130.555 136.992 132.364 136.465 133.558 135.412C134.787 134.323 135.402 132.778 135.402 130.776C135.402 129.125 135.402 127.474 135.402 125.823C135.402 124.138 135.402 122.487 135.402 120.871C135.402 118.869 134.805 117.342 133.61 116.288C132.451 115.199 130.625 114.655 128.131 114.655C125.708 114.655 123.882 115.199 122.652 116.288C121.458 117.342 120.861 118.869 120.861 120.871C120.861 121.679 120.861 122.504 120.861 123.347C120.861 124.155 120.861 124.981 120.861 125.823C120.861 126.666 120.861 127.509 120.861 128.352C120.861 129.16 120.861 129.968 120.861 130.776C120.861 132.778 121.458 134.323 122.652 135.412C123.882 136.465 125.708 136.992 128.131 136.992Z" fill="white"/>
<g filter="url(#filter4_f_112_5897)">
<path fill-rule="evenodd" clip-rule="evenodd" d="M93.2454 69.5637L93.2458 69.5629C100.574 52.5103 111.701 26.6201 124.475 26.6201C126.141 26.6201 127.779 27.0605 129.384 27.8643C117.239 29.8124 106.693 54.9551 99.6516 71.7404C98.5609 74.3406 97.5543 76.7403 96.6389 78.8222C96.0909 80.0684 95.4743 81.4527 94.803 82.9598L94.8029 82.96C86.8178 100.886 71.0933 136.188 71.0933 163.188C71.0933 176.477 77.3683 188.466 86.9673 197.594C73.8495 188.313 64.6875 174.494 64.6875 158.82C64.6875 132.467 80.412 98.0108 88.3971 80.5138L88.3977 80.5123C89.0688 79.0418 89.6852 77.6911 90.2331 76.475C91.1483 74.4433 92.1548 72.1013 93.2454 69.5637Z" fill="white"/>
</g>
</g>
<defs>
<filter id="filter0_f_112_5897" x="-18.9785" y="-0.461914" width="293.314" height="257.015" filterUnits="userSpaceOnUse" color-interpolation-filters="sRGB">
<feFlood flood-opacity="0" result="BackgroundImageFix"/>
<feBlend mode="normal" in="SourceGraphic" in2="BackgroundImageFix" result="shape"/>
<feGaussianBlur stdDeviation="5" result="effect1_foregroundBlur_112_5897"/>
</filter>
<filter id="filter1_f_112_5897" x="-13.6406" y="142.601" width="281.57" height="124.094" filterUnits="userSpaceOnUse" color-interpolation-filters="sRGB">
<feFlood flood-opacity="0" result="BackgroundImageFix"/>
<feBlend mode="normal" in="SourceGraphic" in2="BackgroundImageFix" result="shape"/>
<feGaussianBlur stdDeviation="5" result="effect1_foregroundBlur_112_5897"/>
</filter>
<filter id="filter2_f_112_5897" x="140.604" y="15.5525" width="129.857" height="166.477" filterUnits="userSpaceOnUse" color-interpolation-filters="sRGB">
<feFlood flood-opacity="0" result="BackgroundImageFix"/>
<feBlend mode="normal" in="SourceGraphic" in2="BackgroundImageFix" result="shape"/>
<feGaussianBlur stdDeviation="5" result="effect1_foregroundBlur_112_5897"/>
</filter>
<filter id="filter3_f_112_5897" x="-16.1719" y="15.5525" width="129.857" height="166.477" filterUnits="userSpaceOnUse" color-interpolation-filters="sRGB">
<feFlood flood-opacity="0" result="BackgroundImageFix"/>
<feBlend mode="normal" in="SourceGraphic" in2="BackgroundImageFix" result="shape"/>
<feGaussianBlur stdDeviation="5" result="effect1_foregroundBlur_112_5897"/>
</filter>
<filter id="filter4_f_112_5897" x="60.6875" y="22.6201" width="72.6973" height="178.974" filterUnits="userSpaceOnUse" color-interpolation-filters="sRGB">
<feFlood flood-opacity="0" result="BackgroundImageFix"/>
<feBlend mode="normal" in="SourceGraphic" in2="BackgroundImageFix" result="shape"/>
<feGaussianBlur stdDeviation="2" result="effect1_foregroundBlur_112_5897"/>
</filter>
<clipPath id="clip0_112_5897">
<rect width="256" height="256" fill="white"/>
</clipPath>
</defs>
</svg>
