<svg width="256" height="256" viewBox="0 0 256 256" fill="none" xmlns="http://www.w3.org/2000/svg">
<metadata>
  <rdf:RDF xmlns:rdf="http://www.w3.org/1999/02/22-rdf-syntax-ns#"
            xmlns:dc="http://purl.org/dc/elements/1.1/">
    <rdf:Description>
      <dc:title>swrpg-online.com art asset</dc:title>
      <dc:creator>Joshua Ziggas</dc:creator>
      <dc:rights>CC BY-NC-SA 4.0 - https://github.com/swrpg-online/art</dc:rights>
    </rdf:Description>
  </rdf:RDF>
</metadata>
<desc>
  wrpg-online.com SWRPG Dice Asset
  Created by: Joshua Ziggas
  Source: https://github.com/swrpg-online/art
  License: CC BY-NC-SA 4.0
</desc><g clip-path="url(#clip0_112_5887)">
<mask id="mask0_112_5887" style="mask-type:alpha" maskUnits="userSpaceOnUse" x="-1" y="14" width="257" height="227">
<path d="M110.379 235.925C121.123 242.653 134.766 242.653 145.511 235.925L236.466 178.967C240.042 176.727 243.006 173.634 245.09 169.966C259.672 144.301 259.62 112.765 245.038 87.1009C242.991 83.4981 240.091 80.4357 236.601 78.2015L145.79 20.0607C134.913 13.0963 120.977 13.0963 110.099 20.0607L19.2882 78.2015C15.7985 80.4357 12.8983 83.4981 10.8513 87.1009C-3.73072 112.765 -3.78287 144.301 10.7991 169.966C12.8836 173.634 15.8472 176.727 19.4234 178.967L110.379 235.925Z" fill="#D1D1D1"/>
</mask>
<g mask="url(#mask0_112_5887)">
<rect width="256" height="256" fill="#C8625C"/>
<g style="mix-blend-mode:multiply">
<g filter="url(#filter0_f_112_5887)">
<path fill-rule="evenodd" clip-rule="evenodd" d="M264.336 9.53809H-8.97852V246.553H264.336V9.53809ZM95.381 68.538L95.3817 68.5363C102.71 51.0434 113.837 24.4849 126.611 24.4849C139.385 24.4849 150.511 51.0434 157.84 68.5363C158.931 71.1398 159.937 73.5424 160.853 75.6269C161.401 76.8747 162.017 78.2608 162.689 79.7699C170.674 97.7186 186.398 133.064 186.398 160.097C186.398 189.403 155.961 212.388 126.611 212.388C97.2607 212.388 66.8234 189.403 66.8234 160.097C66.8234 133.064 82.5479 97.7186 90.533 79.7699L90.533 79.7697C91.2044 78.2607 91.821 76.8747 92.369 75.6269C93.2842 73.5429 94.2905 71.1408 95.381 68.538Z" fill="#D8D6D6"/>
</g>
<g filter="url(#filter1_f_112_5887)">
<path d="M162.457 209.278C140.502 221.501 113.787 221.501 91.8317 209.278L75.3642 200.111C70.204 197.442 57.3212 190.929 47.072 186.232C43.3907 184.544 39.4451 182.989 35.5136 181.44C25.7625 177.597 16.0985 173.788 10.7724 168.082C4.79368 161.676 2.23136 155.092 1.69754 152.601H-3.64062V256.695H257.93V152.601H252.591C252.058 155.092 249.495 161.676 243.517 168.082C238.19 173.788 228.526 177.597 218.775 181.44C214.844 182.989 210.898 184.544 207.217 186.232C196.968 190.929 184.085 197.442 178.925 200.111L162.457 209.278Z" fill="#595959"/>
</g>
<g filter="url(#filter2_f_112_5887)">
<path d="M179.438 105.141C169.73 84.5729 145.997 32.6107 151.391 26.6567C154.627 22.8678 168.112 29.3631 184.293 38.0234C200.474 46.6838 233.376 69.9585 244.163 80.784C254.95 91.6095 261.423 112.719 260.344 131.664C259.265 150.608 248.478 177.131 227.982 171.177C207.486 165.223 189.147 125.71 179.438 105.141Z" fill="#B9B9B9"/>
</g>
<g filter="url(#filter3_f_112_5887)">
<path d="M74.8507 105.141C84.5594 84.5729 108.292 32.6107 102.898 26.6567C99.6618 22.8678 86.1775 29.3631 69.9964 38.0234C53.8152 46.6838 20.9135 69.9585 10.1261 80.784C-0.661392 91.6095 -7.13386 112.719 -6.05511 131.664C-4.97637 150.608 5.81107 177.131 26.3072 171.177C46.8034 165.223 65.142 125.71 74.8507 105.141Z" fill="#C7C7C7"/>
</g>
</g>
</g>
<path d="M153.908 185.554C147.004 185.554 141.678 183.844 137.93 180.425C134.215 176.973 132.275 172.075 132.111 165.73C131.98 160.963 131.897 156.262 131.864 151.626C131.832 146.991 131.832 142.405 131.864 137.868C131.93 133.331 132.012 128.844 132.111 124.405C132.275 118.027 134.232 113.145 137.979 109.759C141.76 106.373 147.069 104.68 153.908 104.68C160.68 104.68 165.94 106.373 169.688 109.759C173.436 113.145 175.408 118.027 175.605 124.405C175.737 128.285 175.836 132 175.901 135.55C175.967 139.101 176 142.553 176 145.906C176 149.259 175.967 152.58 175.901 155.867C175.836 159.122 175.737 162.41 175.605 165.73C175.375 172.338 173.337 177.302 169.491 180.623C165.677 183.91 160.483 185.554 153.908 185.554ZM153.908 173.521C158.116 173.521 160.318 171.943 160.516 168.787C160.779 163.33 160.943 158.136 161.009 153.204C161.107 148.24 161.107 143.21 161.009 138.114C160.943 132.986 160.779 127.463 160.516 121.545C160.417 118.323 158.214 116.712 153.908 116.712C149.535 116.712 147.3 118.356 147.201 121.644C147.037 125.819 146.905 129.797 146.806 133.578C146.741 137.358 146.708 141.09 146.708 144.772C146.708 148.454 146.741 152.235 146.806 156.114C146.905 159.993 147.037 164.119 147.201 168.492C147.3 171.845 149.535 173.521 153.908 173.521Z" fill="white"/>
<path d="M102.783 185.554C95.2543 185.554 89.8134 184.025 86.4601 180.968C83.1396 177.91 81.4794 172.864 81.4794 165.829C81.4794 165.303 81.4794 164.744 81.4794 164.152C81.4794 163.56 81.4794 162.952 81.4794 162.327C81.5123 161.703 81.5452 161.062 81.578 160.404H96.5693C96.5364 161.884 96.5036 163.215 96.4707 164.398C96.4378 165.549 96.4707 166.946 96.5693 168.59C96.6679 170.07 97.1446 171.27 97.9994 172.19C98.8542 173.078 100.383 173.521 102.586 173.521C104.525 173.521 106.021 173.111 107.073 172.289C108.125 171.467 108.7 170.168 108.799 168.393C108.963 165.861 109.078 163.018 109.144 159.862C109.21 156.706 109.259 153.303 109.292 149.654H107.024C106.235 151.265 104.936 152.629 103.128 153.747C101.32 154.832 99.035 155.374 96.2734 155.374C93.479 155.374 90.8325 154.782 88.334 153.599C85.8683 152.382 83.8629 150.459 82.3177 147.829C80.7726 145.199 80 141.764 80 137.523C80 135.583 80 133.906 80 132.493C80 131.046 80 129.813 80 128.794C80 127.775 80 126.92 80 126.23C80.0329 125.507 80.0658 124.931 80.0986 124.504C80.3945 117.403 82.252 112.324 85.671 109.266C89.0901 106.209 94.5639 104.68 102.092 104.68C109.785 104.68 115.292 106.209 118.612 109.266C121.933 112.324 123.659 117.403 123.79 124.504C123.922 130.356 124.004 135.534 124.037 140.038C124.07 144.542 124.053 148.832 123.988 152.908C123.955 156.985 123.889 161.292 123.79 165.829C123.659 172.864 121.916 177.91 118.563 180.968C115.21 184.025 109.95 185.554 102.783 185.554ZM102.29 143.144C104.328 143.144 105.922 142.799 107.073 142.109C108.257 141.386 108.963 140.383 109.194 139.101C109.161 136.273 109.111 133.397 109.046 130.471C108.98 127.512 108.865 124.537 108.7 121.545C108.668 120 108.076 118.816 106.925 117.995C105.774 117.14 104.131 116.712 101.994 116.712C99.824 116.712 98.1473 117.14 96.9638 117.995C95.7803 118.849 95.1885 120.099 95.1885 121.742C95.1885 121.973 95.1721 122.794 95.1392 124.208C95.1392 125.622 95.1228 127.265 95.0899 129.139C95.0899 131.013 95.0735 132.805 95.0406 134.515C95.0406 136.191 95.057 137.424 95.0899 138.213C95.1557 139.791 95.846 141.007 97.1611 141.862C98.509 142.717 100.219 143.144 102.29 143.144Z" fill="white"/>
<g filter="url(#filter4_f_112_5887)">
<path fill-rule="evenodd" clip-rule="evenodd" d="M93.2454 69.5637L93.2458 69.5629C100.574 52.5103 111.701 26.6201 124.475 26.6201C126.141 26.6201 127.779 27.0605 129.384 27.8643C117.239 29.8124 106.693 54.9551 99.6516 71.7404C98.5609 74.3406 97.5543 76.7403 96.6389 78.8222C96.0909 80.0684 95.4743 81.4527 94.803 82.9598L94.8029 82.96C86.8178 100.886 71.0933 136.188 71.0933 163.188C71.0933 176.477 77.3683 188.466 86.9673 197.594C73.8495 188.313 64.6875 174.494 64.6875 158.82C64.6875 132.467 80.412 98.0108 88.3971 80.5138L88.3977 80.5123C89.0688 79.0418 89.6852 77.6911 90.2331 76.475C91.1483 74.4433 92.1548 72.1013 93.2454 69.5637Z" fill="white"/>
</g>
</g>
<defs>
<filter id="filter0_f_112_5887" x="-18.9785" y="-0.461914" width="293.314" height="257.015" filterUnits="userSpaceOnUse" color-interpolation-filters="sRGB">
<feFlood flood-opacity="0" result="BackgroundImageFix"/>
<feBlend mode="normal" in="SourceGraphic" in2="BackgroundImageFix" result="shape"/>
<feGaussianBlur stdDeviation="5" result="effect1_foregroundBlur_112_5887"/>
</filter>
<filter id="filter1_f_112_5887" x="-13.6406" y="142.601" width="281.57" height="124.094" filterUnits="userSpaceOnUse" color-interpolation-filters="sRGB">
<feFlood flood-opacity="0" result="BackgroundImageFix"/>
<feBlend mode="normal" in="SourceGraphic" in2="BackgroundImageFix" result="shape"/>
<feGaussianBlur stdDeviation="5" result="effect1_foregroundBlur_112_5887"/>
</filter>
<filter id="filter2_f_112_5887" x="140.604" y="15.5525" width="129.857" height="166.477" filterUnits="userSpaceOnUse" color-interpolation-filters="sRGB">
<feFlood flood-opacity="0" result="BackgroundImageFix"/>
<feBlend mode="normal" in="SourceGraphic" in2="BackgroundImageFix" result="shape"/>
<feGaussianBlur stdDeviation="5" result="effect1_foregroundBlur_112_5887"/>
</filter>
<filter id="filter3_f_112_5887" x="-16.1719" y="15.5525" width="129.857" height="166.477" filterUnits="userSpaceOnUse" color-interpolation-filters="sRGB">
<feFlood flood-opacity="0" result="BackgroundImageFix"/>
<feBlend mode="normal" in="SourceGraphic" in2="BackgroundImageFix" result="shape"/>
<feGaussianBlur stdDeviation="5" result="effect1_foregroundBlur_112_5887"/>
</filter>
<filter id="filter4_f_112_5887" x="60.6875" y="22.6201" width="72.6973" height="178.974" filterUnits="userSpaceOnUse" color-interpolation-filters="sRGB">
<feFlood flood-opacity="0" result="BackgroundImageFix"/>
<feBlend mode="normal" in="SourceGraphic" in2="BackgroundImageFix" result="shape"/>
<feGaussianBlur stdDeviation="2" result="effect1_foregroundBlur_112_5887"/>
</filter>
<clipPath id="clip0_112_5887">
<rect width="256" height="256" fill="white"/>
</clipPath>
</defs>
</svg>
