<svg width="256" height="256" viewBox="0 0 256 256" fill="none" xmlns="http://www.w3.org/2000/svg">
<metadata>
  <rdf:RDF xmlns:rdf="http://www.w3.org/1999/02/22-rdf-syntax-ns#"
            xmlns:dc="http://purl.org/dc/elements/1.1/">
    <rdf:Description>
      <dc:title>swrpg-online.com art asset</dc:title>
      <dc:creator>Joshua Ziggas</dc:creator>
      <dc:rights>CC BY-NC-SA 4.0 - https://github.com/swrpg-online/art</dc:rights>
    </rdf:Description>
  </rdf:RDF>
</metadata>
<desc>
  wrpg-online.com SWRPG Dice Asset
  Created by: Joshua Ziggas
  Source: https://github.com/swrpg-online/art
  License: CC BY-NC-SA 4.0
</desc><mask id="mask0_112_5868" style="mask-type:luminance" maskUnits="userSpaceOnUse" x="6" y="2" width="244" height="252">
<path d="M114.626 4.34533C123.318 1.52112 132.681 1.52111 141.373 4.34533L189.668 20.0373C198.36 22.8615 205.935 28.365 211.307 35.7589L241.155 76.841C246.527 84.2349 249.42 93.1397 249.42 102.279V153.059C249.42 162.199 246.527 171.103 241.155 178.497L211.307 219.58C205.935 226.973 198.36 232.477 189.668 235.301L141.373 250.993C132.681 253.817 123.318 253.817 114.626 250.993L66.3308 235.301C57.6387 232.477 50.0639 226.973 44.6919 219.58L14.844 178.497C9.47199 171.103 6.57865 162.199 6.57865 153.059V102.279C6.57865 93.1397 9.47198 84.2349 14.844 76.841L44.6919 35.7589C50.0639 28.365 57.6387 22.8615 66.3307 20.0373L114.626 4.34533Z" fill="white"/>
</mask>
<g mask="url(#mask0_112_5868)">
<rect width="256" height="256" fill="#C8625C"/>
<g filter="url(#filter0_f_112_5868)">
<path d="M50.0996 9.81476L135.445 -6.13379V48.8249H121.259V9.81476L52.8045 23.0787L50.0996 9.81476Z" fill="url(#paint0_linear_112_5868)" fill-opacity="0.15"/>
<rect x="169.168" y="196.272" width="14.1855" height="78.0203" transform="rotate(-36 169.168 196.272)" fill="url(#paint1_linear_112_5868)" fill-opacity="0.3"/>
<path d="M-5.07812 91.241L43.0683 14.9641L61.4613 21.4558L18.1181 84.7521L55.219 96.8069L50.8355 110.298L-5.07812 91.241Z" fill="url(#paint2_linear_112_5868)" fill-opacity="0.25"/>
<rect x="205.871" y="110.298" width="14.1855" height="78.0203" transform="rotate(-108 205.871 110.298)" fill="url(#paint3_linear_112_5868)" fill-opacity="0.25"/>
<rect x="41.6777" y="259.392" width="14.1855" height="78.0203" transform="rotate(-144 41.6777 259.392)" fill="url(#paint4_linear_112_5868)" fill-opacity="0.25"/>
<path d="M173.311 205.927L209.145 252.45L126.499 268.5L46.8535 252.45L82.6869 205.927L173.311 205.927Z" fill="black" fill-opacity="0.35"/>
<path d="M216.11 108.421L272.06 88.5818L261 175L221.455 244.329L187.851 195.392L216.11 108.421Z" fill="black" fill-opacity="0.4"/>
<path d="M136.731 38.0622L135.152 -21.2809L210.712 14L267.639 74.9762L210.712 91.8128L136.731 38.0622Z" fill="black" fill-opacity="0.2"/>
<path d="M45.2874 91.813L-11.639 74.9764L45.2874 15.0001L120.848 -21.2808L119.269 38.0623L45.2874 91.813Z" fill="black" fill-opacity="0.1"/>
<path d="M68.1487 195.392L34.5449 244.329L-4.00049 172.5L-16.0606 88.5818L39.8902 108.421L68.1487 195.392Z" fill="black" fill-opacity="0.25"/>
</g>
</g>
<path d="M100.535 186.119C100.494 184.576 100.452 183.137 100.41 181.803C100.41 180.468 100.389 179.196 100.348 177.986C100.348 176.735 100.327 175.484 100.285 174.233C100.285 172.981 100.285 171.647 100.285 170.229C100.327 168.769 100.369 167.184 100.41 165.474C100.535 161.22 101.328 157.32 102.788 153.775C104.289 150.188 106.5 146.935 109.419 144.016C112.339 141.055 116.009 138.406 120.43 136.071L129.188 131.441C132.066 129.94 133.922 128.104 134.756 125.936C135.59 123.767 136.07 121.807 136.195 120.055C136.32 117.97 136.404 115.717 136.445 113.298C136.487 110.838 136.445 108.544 136.32 106.417C136.195 104.456 135.424 102.913 134.006 101.787C132.587 100.619 130.44 100.035 127.562 100.035C124.767 100.035 122.745 100.598 121.493 101.725C120.284 102.809 119.637 104.206 119.554 105.916C119.429 109.294 119.345 112.276 119.304 114.862C119.304 117.406 119.387 120.305 119.554 123.558H100.661C100.577 121.932 100.515 120.305 100.473 118.679C100.431 117.01 100.389 115.425 100.348 113.924C100.348 112.422 100.369 111.046 100.41 109.795C100.786 100.828 103.08 94.4258 107.292 90.5887C111.546 86.7099 118.303 84.7705 127.562 84.7705C134.11 84.7705 139.365 85.6255 143.327 87.3355C147.331 89.0038 150.271 91.6731 152.148 95.3433C154.025 99.0136 155.089 103.831 155.339 109.795C155.381 110.796 155.401 111.734 155.401 112.61C155.443 113.444 155.464 114.258 155.464 115.05C155.464 115.801 155.443 116.572 155.401 117.365C155.401 118.157 155.381 119.012 155.339 119.93C155.172 124.559 154.275 128.584 152.649 132.004C151.022 135.382 148.832 138.323 146.08 140.825C143.327 143.328 140.157 145.538 136.571 147.457L126.436 152.837C124.726 153.754 123.37 154.985 122.369 156.528C121.41 158.029 120.722 159.593 120.305 161.22C119.888 162.847 119.679 164.265 119.679 165.474V169.603H153.837V186.119H100.535Z" fill="white"/>
<g filter="url(#filter1_f_112_5868)">
<path d="M62.4923 99.4783C57.4835 104.467 54.5573 109.682 58.5083 120.453C52.2472 110.816 53.9545 100.612 58.508 95.51C66.6007 86.4423 90.9515 68.8657 103.474 61.4961C113.491 55.6003 126.241 46.7567 139.901 56.9609C124.533 51.2919 117.703 59.2285 110.873 63.1968C102.631 67.985 68.7533 93.2424 62.4923 99.4783Z" fill="white"/>
</g>
<defs>
<filter id="filter0_f_112_5868" x="-26.88" y="-32.1003" width="317.772" height="311.42" filterUnits="userSpaceOnUse" color-interpolation-filters="sRGB">
<feFlood flood-opacity="0" result="BackgroundImageFix"/>
<feBlend mode="normal" in="SourceGraphic" in2="BackgroundImageFix" result="shape"/>
<feGaussianBlur stdDeviation="5.40971" result="effect1_foregroundBlur_112_5868"/>
</filter>
<filter id="filter1_f_112_5868" x="49.018" y="46.8814" width="96.2921" height="78.9818" filterUnits="userSpaceOnUse" color-interpolation-filters="sRGB">
<feFlood flood-opacity="0" result="BackgroundImageFix"/>
<feBlend mode="normal" in="SourceGraphic" in2="BackgroundImageFix" result="shape"/>
<feGaussianBlur stdDeviation="2.70486" result="effect1_foregroundBlur_112_5868"/>
</filter>
<linearGradient id="paint0_linear_112_5868" x1="128.352" y1="-29.1954" x2="128.352" y2="48.8249" gradientUnits="userSpaceOnUse">
<stop offset="0.40004"/>
<stop offset="0.770751" stop-opacity="0"/>
</linearGradient>
<linearGradient id="paint1_linear_112_5868" x1="176.261" y1="196.272" x2="176.274" y2="252.046" gradientUnits="userSpaceOnUse">
<stop stop-opacity="0"/>
<stop offset="0.44519"/>
</linearGradient>
<linearGradient id="paint2_linear_112_5868" x1="52.2438" y1="103.558" x2="6.82333" y2="87.4543" gradientUnits="userSpaceOnUse">
<stop offset="0.487821" stop-opacity="0"/>
<stop offset="1"/>
</linearGradient>
<linearGradient id="paint3_linear_112_5868" x1="216.762" y1="109.73" x2="217.403" y2="150.481" gradientUnits="userSpaceOnUse">
<stop stop-opacity="0"/>
<stop offset="1"/>
</linearGradient>
<linearGradient id="paint4_linear_112_5868" x1="48.7705" y1="337.413" x2="48.6781" y2="291.64" gradientUnits="userSpaceOnUse">
<stop stop-opacity="0"/>
<stop offset="0.482933"/>
</linearGradient>
</defs>
</svg>
