<svg width="256" height="256" viewBox="0 0 256 256" fill="none" xmlns="http://www.w3.org/2000/svg">
<metadata>
  <rdf:RDF xmlns:rdf="http://www.w3.org/1999/02/22-rdf-syntax-ns#"
            xmlns:dc="http://purl.org/dc/elements/1.1/">
    <rdf:Description>
      <dc:title>swrpg-online.com art asset</dc:title>
      <dc:creator>Joshua Ziggas</dc:creator>
      <dc:rights>CC BY-NC-SA 4.0 - https://github.com/swrpg-online/art</dc:rights>
    </rdf:Description>
  </rdf:RDF>
</metadata>
<desc>
  wrpg-online.com SWRPG Dice Asset
  Created by: Joshua Ziggas
  Source: https://github.com/swrpg-online/art
  License: CC BY-NC-SA 4.0
</desc><mask id="mask0_112_5838" style="mask-type:alpha" maskUnits="userSpaceOnUse" x="10" y="0" width="237" height="256">
<path d="M224.91 60.2803L150.531 7.28962C136.792 -2.49863 118.338 -2.42293 104.68 7.47773L31.8161 60.296C23.7755 66.1246 18.6774 75.1707 17.8556 85.0677L10.4831 173.859C9.14473 189.977 17.8216 205.268 32.3449 212.386L112.644 251.739C122.046 256.346 133.044 256.376 142.471 251.82L224.23 212.3C238.838 205.239 247.602 189.923 246.289 173.75L239.102 85.276C238.289 75.2589 233.095 66.1118 224.91 60.2803Z" fill="#CFCFCF"/>
</mask>
<g mask="url(#mask0_112_5838)">
<rect width="256" height="256" fill="#C8625C"/>
<g style="mix-blend-mode:multiply" filter="url(#filter0_f_112_5838)">
<mask id="mask1_112_5838" style="mask-type:alpha" maskUnits="userSpaceOnUse" x="1" y="-10" width="255" height="275">
<path fill-rule="evenodd" clip-rule="evenodd" d="M152.285 -1.73748L232.216 55.1629C241.012 61.4247 246.594 71.2467 247.468 82.0029L255.191 177.005C256.603 194.371 247.184 210.817 231.485 218.399L143.624 260.834C133.493 265.727 121.673 265.695 111.569 260.747L25.2761 218.491C9.66859 210.848 0.343989 194.429 1.78223 177.121L9.70515 81.7791C10.5883 71.152 16.067 61.4384 24.7079 55.1798L103.011 -1.53549C117.689 -12.1666 137.521 -12.2479 152.285 -1.73748ZM138.618 210.457C134.336 217.848 123.662 217.848 119.38 210.457L57.5134 103.688C53.2194 96.2777 58.5672 87.0001 67.1327 87.0001H190.865C199.431 87.0001 204.778 96.2777 200.484 103.688L138.618 210.457Z" fill="black"/>
</mask>
<g mask="url(#mask1_112_5838)">
<path d="M224.91 60.2803L150.531 7.28962C136.792 -2.49863 118.338 -2.42293 104.68 7.47773L31.8161 60.296C23.7755 66.1246 18.6774 75.1707 17.8556 85.0677L10.4831 173.859C9.14473 189.977 17.8216 205.268 32.3449 212.386L112.644 251.739C122.046 256.346 133.044 256.376 142.471 251.82L224.23 212.3C238.838 205.239 247.602 189.923 246.289 173.75L239.102 85.276C238.289 75.2589 233.095 66.1118 224.91 60.2803Z" fill="#CFCFCF"/>
<path d="M204.698 84H53.2981C43.2059 84 38.195 73.0586 45.3901 66.7329L110.148 9.80008C120.431 0.759757 136.914 0.729605 147.238 9.73224L212.573 66.704C219.813 73.0173 214.813 84 204.698 84Z" fill="#E0E0E0"/>
<path d="M51.0658 91.529L123.601 217.163C128.436 225.538 121.572 235.045 112.768 232.167L33.5336 206.263C20.952 202.15 13.0296 188.487 15.7066 175.519L32.6472 93.4499C34.5244 84.3556 46.2199 83.1358 51.0658 91.529Z" fill="#D8D8D8"/>
<path d="M206.994 88.7414L131.609 219.312C126.584 228.016 133.429 237.73 142.411 234.642L223.254 206.852C236.091 202.439 244.324 188.238 241.779 174.898L225.679 90.4738C223.895 81.1184 212.03 80.0184 206.994 88.7414Z" fill="#C1C1C1"/>
<path d="M128.484 230.5V263.061L104.345 256.908L21.7523 217.387L12.9961 206.501L15.5993 194.432C18.8336 198.455 26.6274 206.832 31.9285 208.158C38.5548 209.814 109.551 221.034 118.071 223.164C124.886 224.868 127.852 228.765 128.484 230.5Z" fill="#8D8D8D"/>
<path d="M128.483 231V263.061L152.622 256.908L235.214 217.387L243.971 206.501L241.368 194.432C238.133 198.455 230.339 206.832 225.038 208.158C218.412 209.814 147.416 221.534 138.896 223.664C132.08 225.368 129.114 229.265 128.483 231Z" fill="#737373"/>
<path d="M212.647 84.3141L243.297 64.418L250.038 88.3993L257.107 179.687L252.058 192.713L240.304 196.494C242.171 191.681 245.529 180.743 244.026 175.489C242.148 168.922 213.915 105.443 211.5 97C209.568 90.2455 211.459 85.7284 212.647 84.3141Z" fill="#828282"/>
<path d="M211.499 83.5004L243.296 64.4184L225.898 46.5901L150.375 -5.17638L136.57 -7.31643L127.419 0.9727C132.52 1.7621 143.672 4.32297 147.47 8.25119C152.218 13.1615 193.835 71.8375 199.939 78.1508C204.823 83.2013 209.681 83.8216 211.499 83.5004Z" fill="#9E9E9E"/>
<path d="M44.8524 83.8141L13.9433 64.418L7.2026 88.3993L0.132831 179.687L5.18237 192.713L16.9364 196.494C15.0694 191.681 11.7111 180.743 13.2139 175.489C15.0924 168.922 43.5841 104.943 45.9994 96.5C47.9316 89.7455 46.0398 85.2284 44.8524 83.8141Z" fill="#B1B1B1"/>
<path d="M46.4385 83.85L13.9422 64.4184L31.3402 46.5901L106.863 -5.17638L120.669 -7.31643L129.819 0.9727C124.718 1.7621 113.566 4.32297 109.768 8.25119C105.02 13.1615 64.1026 72.1871 57.9983 78.5004C53.1148 83.5509 48.257 84.1712 46.4385 83.85Z" fill="#B6B6B6"/>
</g>
</g>
</g>
<g filter="url(#filter1_f_112_5838)">
<path d="M72.7423 89H122C110.497 90.3425 85.9103 93.2575 79.5869 94.1781C71.6827 95.3288 66.0919 98.2055 68.5981 106.452C70.6031 113.049 83.9568 144.233 90.383 159L61.6354 107.833C56.8952 99.3957 63.0262 89 72.7423 89Z" fill="url(#paint0_radial_112_5838)"/>
</g>
<path d="M141.47 165C134.767 165 129.923 163.639 126.938 160.917C123.982 158.195 122.504 153.702 122.504 147.439C122.504 146.971 122.504 146.473 122.504 145.946C122.504 145.42 122.504 144.878 122.504 144.322C122.533 143.766 122.562 143.195 122.592 142.61H135.938C135.909 143.927 135.88 145.112 135.85 146.166C135.821 147.19 135.85 148.434 135.938 149.898C136.026 151.215 136.45 152.283 137.211 153.102C137.972 153.893 139.333 154.288 141.294 154.288C143.021 154.288 144.353 153.922 145.289 153.19C146.226 152.459 146.738 151.302 146.826 149.722C146.972 147.468 147.075 144.937 147.133 142.127C147.192 139.317 147.236 136.288 147.265 133.039H145.245C144.543 134.473 143.387 135.688 141.777 136.683C140.167 137.649 138.133 138.132 135.675 138.132C133.187 138.132 130.831 137.605 128.606 136.551C126.411 135.468 124.626 133.756 123.25 131.415C121.875 129.073 121.187 126.015 121.187 122.239C121.187 120.512 121.187 119.02 121.187 117.761C121.187 116.473 121.187 115.376 121.187 114.468C121.187 113.561 121.187 112.8 121.187 112.185C121.216 111.541 121.245 111.029 121.275 110.649C121.538 104.327 123.192 99.8049 126.236 97.0829C129.28 94.361 134.153 93 140.855 93C147.704 93 152.606 94.361 155.562 97.0829C158.519 99.8049 160.055 104.327 160.172 110.649C160.289 115.859 160.362 120.468 160.392 124.478C160.421 128.488 160.406 132.307 160.348 135.937C160.319 139.566 160.26 143.4 160.172 147.439C160.055 153.702 158.504 158.195 155.519 160.917C152.533 163.639 147.85 165 141.47 165ZM141.031 127.244C142.845 127.244 144.265 126.937 145.289 126.322C146.343 125.678 146.972 124.785 147.177 123.644C147.148 121.127 147.104 118.566 147.045 115.961C146.987 113.327 146.884 110.678 146.738 108.015C146.709 106.639 146.182 105.585 145.158 104.854C144.133 104.093 142.67 103.712 140.767 103.712C138.836 103.712 137.343 104.093 136.289 104.854C135.236 105.615 134.709 106.727 134.709 108.19C134.709 108.395 134.694 109.127 134.665 110.385C134.665 111.644 134.65 113.107 134.621 114.776C134.621 116.444 134.606 118.039 134.577 119.561C134.577 121.054 134.592 122.151 134.621 122.854C134.68 124.259 135.294 125.341 136.465 126.102C137.665 126.863 139.187 127.244 141.031 127.244Z" fill="white"/>
<path d="M100.461 164.122V105.468H95.193L94.8418 100.815L103.271 93.878H114.159V164.122H100.461Z" fill="white"/>
<defs>
<filter id="filter0_f_112_5838" x="-8.36328" y="-17.3164" width="273.693" height="290.378" filterUnits="userSpaceOnUse" color-interpolation-filters="sRGB">
<feFlood flood-opacity="0" result="BackgroundImageFix"/>
<feBlend mode="normal" in="SourceGraphic" in2="BackgroundImageFix" result="shape"/>
<feGaussianBlur stdDeviation="5" result="effect1_foregroundBlur_112_5838"/>
</filter>
<filter id="filter1_f_112_5838" x="55" y="84" width="72" height="80" filterUnits="userSpaceOnUse" color-interpolation-filters="sRGB">
<feFlood flood-opacity="0" result="BackgroundImageFix"/>
<feBlend mode="normal" in="SourceGraphic" in2="BackgroundImageFix" result="shape"/>
<feGaussianBlur stdDeviation="2.5" result="effect1_foregroundBlur_112_5838"/>
</filter>
<radialGradient id="paint0_radial_112_5838" cx="0" cy="0" r="1" gradientUnits="userSpaceOnUse" gradientTransform="translate(68.0198 95.7123) rotate(44.0247) scale(47.1885 41.5706)">
<stop stop-color="white"/>
<stop offset="1" stop-color="white" stop-opacity="0"/>
</radialGradient>
</defs>
</svg>
