<svg width="256" height="256" viewBox="0 0 256 256" fill="none" xmlns="http://www.w3.org/2000/svg">
<metadata>
  <rdf:RDF xmlns:rdf="http://www.w3.org/1999/02/22-rdf-syntax-ns#"
            xmlns:dc="http://purl.org/dc/elements/1.1/">
    <rdf:Description>
      <dc:title>swrpg-online.com art asset</dc:title>
      <dc:creator>Joshua Ziggas</dc:creator>
      <dc:rights>CC BY-NC-SA 4.0 - https://github.com/swrpg-online/art</dc:rights>
    </rdf:Description>
  </rdf:RDF>
</metadata>
<desc>
  wrpg-online.com SWRPG Dice Asset
  Created by: Joshua Ziggas
  Source: https://github.com/swrpg-online/art
  License: CC BY-NC-SA 4.0
</desc><mask id="mask0_112_5851" style="mask-type:alpha" maskUnits="userSpaceOnUse" x="10" y="0" width="237" height="256">
<path d="M224.91 60.2803L150.531 7.28962C136.792 -2.49863 118.338 -2.42293 104.68 7.47773L31.8161 60.296C23.7755 66.1246 18.6774 75.1707 17.8556 85.0677L10.4831 173.859C9.14473 189.977 17.8216 205.268 32.3449 212.386L112.644 251.739C122.046 256.346 133.044 256.376 142.471 251.82L224.23 212.3C238.838 205.239 247.602 189.923 246.289 173.75L239.102 85.276C238.289 75.2589 233.095 66.1118 224.91 60.2803Z" fill="#CFCFCF"/>
</mask>
<g mask="url(#mask0_112_5851)">
<rect width="256" height="256" fill="#C8625C"/>
<g style="mix-blend-mode:multiply" filter="url(#filter0_f_112_5851)">
<mask id="mask1_112_5851" style="mask-type:alpha" maskUnits="userSpaceOnUse" x="1" y="-10" width="255" height="275">
<path fill-rule="evenodd" clip-rule="evenodd" d="M152.285 -1.73761L232.216 55.1628C241.012 61.4246 246.594 71.2466 247.468 82.0028L255.191 177.005C256.603 194.371 247.184 210.817 231.485 218.399L143.624 260.834C133.493 265.727 121.673 265.695 111.569 260.747L25.2761 218.491C9.66859 210.848 0.343989 194.429 1.78223 177.121L9.70515 81.779C10.5883 71.1519 16.067 61.4383 24.7079 55.1797L103.011 -1.53561C117.689 -12.1668 137.521 -12.2481 152.285 -1.73761ZM138.618 210.457C134.336 217.848 123.662 217.848 119.38 210.457L57.5134 103.688C53.2194 96.2776 58.5672 87 67.1327 87H190.865C199.431 87 204.778 96.2776 200.484 103.688L138.618 210.457Z" fill="black"/>
</mask>
<g mask="url(#mask1_112_5851)">
<path d="M224.91 60.2804L150.531 7.28974C136.792 -2.49851 118.338 -2.42281 104.68 7.47785L31.8161 60.2961C23.7755 66.1247 18.6774 75.1708 17.8556 85.0678L10.4831 173.859C9.14473 189.977 17.8216 205.268 32.3449 212.386L112.644 251.739C122.046 256.346 133.044 256.376 142.471 251.82L224.23 212.301C238.838 205.239 247.602 189.923 246.289 173.751L239.102 85.2762C238.289 75.2591 233.095 66.1119 224.91 60.2804Z" fill="#CFCFCF"/>
<path d="M204.698 84H53.2981C43.2059 84 38.195 73.0586 45.3901 66.7329L110.148 9.80008C120.431 0.759757 136.914 0.729605 147.238 9.73224L212.573 66.704C219.813 73.0173 214.813 84 204.698 84Z" fill="#E0E0E0"/>
<path d="M51.0658 91.529L123.601 217.163C128.436 225.538 121.572 235.045 112.768 232.167L33.5336 206.263C20.952 202.15 13.0296 188.487 15.7066 175.519L32.6472 93.4499C34.5244 84.3556 46.2199 83.1358 51.0658 91.529Z" fill="#D8D8D8"/>
<path d="M206.994 88.7411L131.609 219.312C126.584 228.016 133.429 237.729 142.411 234.642L223.254 206.851C236.091 202.438 244.324 188.238 241.779 174.898L225.679 90.4736C223.895 81.1182 212.03 80.0181 206.994 88.7411Z" fill="#C1C1C1"/>
<path d="M128.484 230.5V263.061L104.345 256.908L21.7523 217.387L12.9961 206.501L15.5993 194.431C18.8336 198.455 26.6274 206.832 31.9285 208.157C38.5548 209.814 109.551 221.034 118.071 223.164C124.886 224.868 127.852 228.765 128.484 230.5Z" fill="#8D8D8D"/>
<path d="M128.483 231V263.061L152.622 256.908L235.214 217.387L243.971 206.501L241.368 194.431C238.133 198.455 230.339 206.832 225.038 208.157C218.412 209.814 147.416 221.534 138.896 223.664C132.08 225.368 129.114 229.265 128.483 231Z" fill="#737373"/>
<path d="M212.647 84.3141L243.297 64.418L250.038 88.3993L257.107 179.687L252.058 192.713L240.304 196.494C242.171 191.681 245.529 180.743 244.026 175.489C242.148 168.922 213.915 105.443 211.5 97C209.568 90.2455 211.459 85.7284 212.647 84.3141Z" fill="#828282"/>
<path d="M211.499 83.5L243.296 64.418L225.898 46.5898L150.375 -5.17674L136.57 -7.3168L127.419 0.972334C132.52 1.76174 143.672 4.3226 147.47 8.25082C152.218 13.1611 193.835 71.8372 199.939 78.1504C204.823 83.201 209.681 83.8212 211.499 83.5Z" fill="#9E9E9E"/>
<path d="M44.8524 83.8141L13.9433 64.418L7.2026 88.3993L0.132831 179.687L5.18237 192.713L16.9364 196.494C15.0694 191.681 11.7111 180.743 13.2139 175.489C15.0924 168.922 43.5841 104.943 45.9994 96.5C47.9316 89.7455 46.0398 85.2284 44.8524 83.8141Z" fill="#B1B1B1"/>
<path d="M46.4385 83.8496L13.9422 64.418L31.3402 46.5898L106.863 -5.17674L120.669 -7.3168L129.819 0.972334C124.718 1.76174 113.566 4.3226 109.768 8.25082C105.02 13.1611 64.1026 72.1868 57.9983 78.5C53.1148 83.5506 48.257 84.1708 46.4385 83.8496Z" fill="#B6B6B6"/>
</g>
</g>
</g>
<g filter="url(#filter1_f_112_5851)">
<path d="M72.7423 89H122C110.497 90.3425 85.9103 93.2575 79.5869 94.1781C71.6827 95.3288 66.0919 98.2055 68.5981 106.452C70.6031 113.049 83.9568 144.233 90.383 159L61.6354 107.833C56.8952 99.3957 63.0262 89 72.7423 89Z" fill="url(#paint0_radial_112_5851)"/>
</g>
<path d="M128.025 165C121.176 165 116.259 163.639 113.274 160.917C110.288 158.195 108.766 153.673 108.708 147.351C108.679 142.405 108.649 137.868 108.62 133.741C108.591 129.615 108.576 125.956 108.576 122.766C108.576 119.576 108.591 116.956 108.62 114.907C108.649 112.829 108.679 111.38 108.708 110.561C108.971 104.59 110.757 100.171 114.064 97.3024C117.401 94.4341 122.025 93 127.937 93C134.083 93 138.781 94.522 142.03 97.5659C145.279 100.61 146.991 104.707 147.166 109.859C147.196 110.473 147.21 111.015 147.21 111.483C147.24 111.951 147.24 112.478 147.21 113.063C147.21 113.649 147.196 114.424 147.166 115.39H133.82C133.908 114.454 133.952 113.693 133.952 113.107C133.981 112.493 133.981 111.834 133.952 111.132C133.923 110.4 133.879 109.39 133.82 108.102C133.791 106.785 133.308 105.732 132.371 104.941C131.464 104.122 130.015 103.712 128.025 103.712C126.093 103.712 124.644 104.093 123.679 104.854C122.713 105.615 122.201 106.698 122.142 108.102C122.054 110.473 121.966 113.093 121.879 115.961C121.82 118.8 121.791 121.8 121.791 124.961H124.162C125.01 123.498 126.342 122.283 128.157 121.317C130.001 120.351 132.123 119.868 134.523 119.868C139.498 119.868 142.908 121.039 144.752 123.38C146.625 125.693 147.605 129.556 147.693 134.971C147.723 136.815 147.737 138.337 147.737 139.537C147.766 140.737 147.766 141.922 147.737 143.093C147.737 144.234 147.693 145.654 147.605 147.351C147.254 153.673 145.601 158.195 142.644 160.917C139.718 163.639 134.844 165 128.025 165ZM128.113 154.288C130.103 154.288 131.596 153.907 132.591 153.146C133.615 152.356 134.142 151.244 134.171 149.81C134.23 148.259 134.274 146.854 134.303 145.595C134.332 144.307 134.362 143.093 134.391 141.951C134.42 140.81 134.435 139.698 134.435 138.615C134.435 137.532 134.405 136.434 134.347 135.322C134.318 133.829 133.747 132.702 132.635 131.941C131.552 131.151 130.132 130.756 128.376 130.756C126.415 130.756 124.835 131.137 123.635 131.898C122.464 132.659 121.849 133.741 121.791 135.146C121.791 137.517 121.805 139.917 121.835 142.346C121.893 144.776 121.966 147.205 122.054 149.634C122.113 151.127 122.654 152.283 123.679 153.102C124.703 153.893 126.181 154.288 128.113 154.288Z" fill="white"/>
<defs>
<filter id="filter0_f_112_5851" x="-8.36328" y="-17.3168" width="273.693" height="290.378" filterUnits="userSpaceOnUse" color-interpolation-filters="sRGB">
<feFlood flood-opacity="0" result="BackgroundImageFix"/>
<feBlend mode="normal" in="SourceGraphic" in2="BackgroundImageFix" result="shape"/>
<feGaussianBlur stdDeviation="5" result="effect1_foregroundBlur_112_5851"/>
</filter>
<filter id="filter1_f_112_5851" x="55" y="84" width="72" height="80" filterUnits="userSpaceOnUse" color-interpolation-filters="sRGB">
<feFlood flood-opacity="0" result="BackgroundImageFix"/>
<feBlend mode="normal" in="SourceGraphic" in2="BackgroundImageFix" result="shape"/>
<feGaussianBlur stdDeviation="2.5" result="effect1_foregroundBlur_112_5851"/>
</filter>
<radialGradient id="paint0_radial_112_5851" cx="0" cy="0" r="1" gradientUnits="userSpaceOnUse" gradientTransform="translate(68.0198 95.7123) rotate(44.0247) scale(47.1885 41.5706)">
<stop stop-color="white"/>
<stop offset="1" stop-color="white" stop-opacity="0"/>
</radialGradient>
</defs>
</svg>
