<svg width="256" height="256" viewBox="0 0 256 256" fill="none" xmlns="http://www.w3.org/2000/svg">
<metadata>
  <rdf:RDF xmlns:rdf="http://www.w3.org/1999/02/22-rdf-syntax-ns#"
            xmlns:dc="http://purl.org/dc/elements/1.1/">
    <rdf:Description>
      <dc:title>swrpg-online.com art asset</dc:title>
      <dc:creator>Joshua Ziggas</dc:creator>
      <dc:rights>CC BY-NC-SA 4.0 - https://github.com/swrpg-online/art</dc:rights>
    </rdf:Description>
  </rdf:RDF>
</metadata>
<desc>
  wrpg-online.com SWRPG Dice Asset
  Created by: Joshua Ziggas
  Source: https://github.com/swrpg-online/art
  License: CC BY-NC-SA 4.0
</desc><mask id="mask0_112_5844" style="mask-type:alpha" maskUnits="userSpaceOnUse" x="10" y="0" width="237" height="256">
<path d="M224.91 60.2803L150.531 7.28962C136.792 -2.49863 118.338 -2.42293 104.68 7.47773L31.8161 60.296C23.7755 66.1246 18.6774 75.1707 17.8556 85.0677L10.4831 173.859C9.14473 189.977 17.8216 205.268 32.3449 212.386L112.644 251.739C122.046 256.346 133.044 256.376 142.471 251.82L224.23 212.3C238.838 205.239 247.602 189.923 246.289 173.75L239.102 85.276C238.289 75.2589 233.095 66.1118 224.91 60.2803Z" fill="#CFCFCF"/>
</mask>
<g mask="url(#mask0_112_5844)">
<rect width="256" height="256" fill="#C8625C"/>
<g style="mix-blend-mode:multiply" filter="url(#filter0_f_112_5844)">
<mask id="mask1_112_5844" style="mask-type:alpha" maskUnits="userSpaceOnUse" x="1" y="-10" width="255" height="275">
<path fill-rule="evenodd" clip-rule="evenodd" d="M152.285 -1.73748L232.216 55.1629C241.012 61.4247 246.594 71.2467 247.468 82.0029L255.191 177.005C256.603 194.371 247.184 210.817 231.485 218.399L143.624 260.834C133.493 265.727 121.673 265.695 111.569 260.747L25.2761 218.491C9.66859 210.848 0.343989 194.429 1.78223 177.121L9.70515 81.7791C10.5883 71.152 16.067 61.4384 24.7079 55.1798L103.011 -1.53549C117.689 -12.1666 137.521 -12.2479 152.285 -1.73748ZM138.618 210.457C134.336 217.848 123.662 217.848 119.38 210.457L57.5134 103.688C53.2194 96.2777 58.5672 87.0001 67.1327 87.0001H190.865C199.431 87.0001 204.778 96.2777 200.484 103.688L138.618 210.457Z" fill="black"/>
</mask>
<g mask="url(#mask1_112_5844)">
<path d="M224.91 60.2803L150.531 7.28962C136.792 -2.49863 118.338 -2.42293 104.68 7.47773L31.8161 60.296C23.7755 66.1246 18.6774 75.1707 17.8556 85.0677L10.4831 173.859C9.14473 189.977 17.8216 205.268 32.3449 212.386L112.644 251.739C122.046 256.346 133.044 256.376 142.471 251.82L224.23 212.3C238.838 205.239 247.602 189.923 246.289 173.75L239.102 85.276C238.289 75.2589 233.095 66.1118 224.91 60.2803Z" fill="#CFCFCF"/>
<path d="M204.698 84H53.2981C43.2059 84 38.195 73.0586 45.3901 66.7329L110.148 9.80008C120.431 0.759757 136.914 0.729605 147.238 9.73224L212.573 66.704C219.813 73.0173 214.813 84 204.698 84Z" fill="#E0E0E0"/>
<path d="M51.0658 91.529L123.601 217.163C128.436 225.538 121.572 235.045 112.768 232.167L33.5336 206.263C20.952 202.15 13.0296 188.487 15.7066 175.519L32.6472 93.4499C34.5244 84.3556 46.2199 83.1358 51.0658 91.529Z" fill="#D8D8D8"/>
<path d="M206.994 88.7414L131.609 219.312C126.584 228.016 133.429 237.73 142.411 234.642L223.254 206.852C236.091 202.439 244.324 188.238 241.779 174.898L225.679 90.4738C223.895 81.1184 212.03 80.0184 206.994 88.7414Z" fill="#C1C1C1"/>
<path d="M128.484 230.5V263.061L104.345 256.908L21.7523 217.387L12.9961 206.501L15.5993 194.432C18.8336 198.455 26.6274 206.832 31.9285 208.158C38.5548 209.814 109.551 221.034 118.071 223.164C124.886 224.868 127.852 228.765 128.484 230.5Z" fill="#8D8D8D"/>
<path d="M128.483 231V263.061L152.622 256.908L235.214 217.387L243.971 206.501L241.368 194.432C238.133 198.455 230.339 206.832 225.038 208.158C218.412 209.814 147.416 221.534 138.896 223.664C132.08 225.368 129.114 229.265 128.483 231Z" fill="#737373"/>
<path d="M212.647 84.3141L243.297 64.418L250.038 88.3993L257.107 179.687L252.058 192.713L240.304 196.494C242.171 191.681 245.529 180.743 244.026 175.489C242.148 168.922 213.915 105.443 211.5 97C209.568 90.2455 211.459 85.7284 212.647 84.3141Z" fill="#828282"/>
<path d="M211.499 83.5004L243.296 64.4184L225.898 46.5901L150.375 -5.17638L136.57 -7.31643L127.419 0.9727C132.52 1.7621 143.672 4.32297 147.47 8.25119C152.218 13.1615 193.835 71.8375 199.939 78.1508C204.823 83.2013 209.681 83.8216 211.499 83.5004Z" fill="#9E9E9E"/>
<path d="M44.8524 83.8141L13.9433 64.418L7.2026 88.3993L0.132831 179.687L5.18237 192.713L16.9364 196.494C15.0694 191.681 11.7111 180.743 13.2139 175.489C15.0924 168.922 43.5841 104.943 45.9994 96.5C47.9316 89.7455 46.0398 85.2284 44.8524 83.8141Z" fill="#B1B1B1"/>
<path d="M46.4385 83.85L13.9422 64.4184L31.3402 46.5901L106.863 -5.17638L120.669 -7.31643L129.819 0.9727C124.718 1.7621 113.566 4.32297 109.768 8.25119C105.02 13.1615 64.1026 72.1871 57.9983 78.5004C53.1148 83.5509 48.257 84.1712 46.4385 83.85Z" fill="#B6B6B6"/>
</g>
</g>
</g>
<g filter="url(#filter1_f_112_5844)">
<path d="M72.7423 89H122C110.497 90.3425 85.9103 93.2575 79.5869 94.1781C71.6827 95.3288 66.0919 98.2055 68.5981 106.452C70.6031 113.049 83.9568 144.233 90.383 159L61.6354 107.833C56.8952 99.3957 63.0262 89 72.7423 89Z" fill="url(#paint0_radial_112_5844)"/>
</g>
<path d="M141.379 164.873C134.354 164.873 129.276 163.512 126.145 160.79C123.013 158.068 121.359 153.546 121.184 147.224C121.154 146.17 121.125 145.366 121.096 144.81C121.096 144.253 121.096 143.697 121.096 143.141C121.125 142.585 121.154 141.78 121.184 140.727H134.618V148.98C134.618 150.649 135.174 151.936 136.286 152.844C137.398 153.722 138.979 154.161 141.027 154.161C143.135 154.161 144.715 153.722 145.769 152.844C146.852 151.936 147.408 150.678 147.437 149.068C147.496 147.136 147.525 145.424 147.525 143.931C147.554 142.439 147.525 141.019 147.437 139.673C147.349 138.092 146.837 136.688 145.901 135.458C144.993 134.229 143.193 133.644 140.501 133.702L131.632 133.79L131.281 122.727L144.891 105.341H122.149V93.751H160.257L160.081 104.99L145.945 122.375C150.774 122.756 154.388 124.307 156.788 127.029C159.218 129.751 160.579 134.083 160.871 140.024C160.901 140.639 160.915 141.224 160.915 141.78C160.945 142.307 160.959 142.834 160.959 143.361C160.959 143.888 160.959 144.473 160.959 145.117C160.959 145.731 160.93 146.434 160.871 147.224C160.608 153.546 158.954 158.068 155.91 160.79C152.896 163.512 148.052 164.873 141.379 164.873Z" fill="white"/>
<path d="M101.248 163.995V105.341H95.9801L95.6289 100.688L104.058 93.751H114.946V163.995H101.248Z" fill="white"/>
<defs>
<filter id="filter0_f_112_5844" x="-8.36328" y="-17.3164" width="273.693" height="290.378" filterUnits="userSpaceOnUse" color-interpolation-filters="sRGB">
<feFlood flood-opacity="0" result="BackgroundImageFix"/>
<feBlend mode="normal" in="SourceGraphic" in2="BackgroundImageFix" result="shape"/>
<feGaussianBlur stdDeviation="5" result="effect1_foregroundBlur_112_5844"/>
</filter>
<filter id="filter1_f_112_5844" x="55" y="84" width="72" height="80" filterUnits="userSpaceOnUse" color-interpolation-filters="sRGB">
<feFlood flood-opacity="0" result="BackgroundImageFix"/>
<feBlend mode="normal" in="SourceGraphic" in2="BackgroundImageFix" result="shape"/>
<feGaussianBlur stdDeviation="2.5" result="effect1_foregroundBlur_112_5844"/>
</filter>
<radialGradient id="paint0_radial_112_5844" cx="0" cy="0" r="1" gradientUnits="userSpaceOnUse" gradientTransform="translate(68.0198 95.7123) rotate(44.0247) scale(47.1885 41.5706)">
<stop stop-color="white"/>
<stop offset="1" stop-color="white" stop-opacity="0"/>
</radialGradient>
</defs>
</svg>
