<svg width="256" height="256" viewBox="0 0 256 256" fill="none" xmlns="http://www.w3.org/2000/svg">
<metadata>
  <rdf:RDF xmlns:rdf="http://www.w3.org/1999/02/22-rdf-syntax-ns#"
            xmlns:dc="http://purl.org/dc/elements/1.1/">
    <rdf:Description>
      <dc:title>swrpg-online.com art asset</dc:title>
      <dc:creator>Joshua Ziggas</dc:creator>
      <dc:rights>CC BY-NC-SA 4.0 - https://github.com/swrpg-online/art</dc:rights>
    </rdf:Description>
  </rdf:RDF>
</metadata>
<desc>
  wrpg-online.com SWRPG Dice Asset
  Created by: Joshua Ziggas
  Source: https://github.com/swrpg-online/art
  License: CC BY-NC-SA 4.0
</desc><mask id="mask0_112_5831" style="mask-type:alpha" maskUnits="userSpaceOnUse" x="2" y="17" width="252" height="223">
<path d="M111.095 26.5C118.408 13.8333 136.691 13.8333 144.004 26.5L250.525 211C257.838 223.667 248.697 239.5 234.071 239.5H21.0283C6.40214 239.5 -2.73924 223.667 4.57386 211L111.095 26.5Z" fill="#D9D9D9"/>
</mask>
<g mask="url(#mask0_112_5831)">
<rect width="256" height="256" fill="#C8625C"/>
<g style="mix-blend-mode:multiply" filter="url(#filter0_f_112_5831)">
<path d="M279.337 102.182C279.369 87.9554 263.989 61.315 251.652 54.2296L126.366 -17.7263C114.029 -24.8118 113.988 -7.02829 126.293 14.284L251.252 230.719C263.556 252.031 278.977 260.888 279.01 246.661L279.337 102.182Z" fill="black" fill-opacity="0.25"/>
<path d="M100.333 317.894C112.425 324.88 142.655 324.88 154.747 317.894L277.547 246.95C289.639 239.964 274.524 231.232 250.339 231.232L4.74033 231.232C-19.4438 231.232 -34.5589 239.964 -22.4668 246.95L100.333 317.894Z" fill="black" fill-opacity="0.5"/>
<path d="M-26.4366 101.791C-26.4405 87.3472 -10.8069 60.2689 1.704 53.0503L128.757 -20.2571C141.268 -27.4757 141.273 -9.42063 128.766 12.242L1.75356 232.235C-10.7533 253.897 -26.392 262.92 -26.396 248.476L-26.4366 101.791Z" fill="black" fill-opacity="0.35"/>
</g>
</g>
<g clip-path="url(#clip0_112_5831)">
<path d="M97.9521 176.042C101.025 181.365 102.216 185.809 101.523 189.373C100.831 192.937 98.1275 196.168 93.4137 199.067C92.6281 199.55 92.031 199.925 91.6224 200.19C91.201 200.433 90.7796 200.677 90.3582 200.92C89.924 201.141 89.3013 201.471 88.49 201.91L82.6126 191.73L88.867 188.119C90.1312 187.389 90.8637 186.404 91.0647 185.164C91.2435 183.937 90.8847 182.548 89.9884 180.995C89.0664 179.398 88.0423 178.393 86.9159 177.978C85.7546 177.555 84.5576 177.684 83.325 178.366C81.8356 179.167 80.5253 179.894 79.3942 180.547C78.2503 181.178 77.1874 181.821 76.2056 182.476C75.0464 183.234 74.2059 184.237 73.6842 185.485C73.1496 186.71 73.4935 188.33 74.7159 190.345L78.6623 197.027L70.4325 202.133L51.304 199.426L61.2534 216.659L52.4707 221.73L35.7987 192.853L44.3922 188.069L63.7511 191.175C61.9266 187.349 61.5207 183.932 62.5333 180.922C63.5331 177.89 66.2201 174.964 70.5943 172.143C71.0473 171.852 71.4845 171.585 71.9058 171.341C72.2923 171.089 72.6851 170.847 73.0843 170.616C73.4835 170.386 73.9271 170.13 74.415 169.848C74.8808 169.579 75.4259 169.294 76.0503 168.993C80.9561 166.427 85.1062 165.701 88.5005 166.817C91.8821 167.911 95.0326 170.986 97.9521 176.042Z" fill="white"/>
</g>
<g clip-path="url(#clip1_112_5831)">
<path d="M166.058 161.512C166.892 161.963 167.67 162.383 168.392 162.771C169.102 163.18 169.785 163.56 170.441 163.909C171.106 164.293 171.778 164.666 172.456 165.028C173.121 165.412 173.831 165.822 174.585 166.257C175.349 166.728 176.179 167.236 177.075 167.784C179.299 169.156 181.129 170.775 182.566 172.64C184.013 174.539 185.064 176.713 185.72 179.162C186.399 181.624 186.68 184.389 186.565 187.457L186.338 193.536C186.252 195.527 186.658 197.077 187.556 198.187C188.453 199.296 189.348 200.153 190.241 200.757C191.312 201.464 192.484 202.2 193.757 202.965C195.053 203.743 196.286 204.425 197.455 205.011C198.536 205.546 199.593 205.61 200.628 205.202C201.684 204.806 202.654 203.843 203.538 202.313C204.395 200.827 204.717 199.578 204.502 198.567C204.297 197.591 203.753 196.818 202.869 196.249C201.111 195.145 199.551 194.185 198.188 193.369C196.835 192.588 195.268 191.743 193.487 190.833L199.288 180.786C200.178 181.241 201.063 181.707 201.94 182.184C202.84 182.674 203.696 183.138 204.507 183.577C205.306 184.038 206.031 184.472 206.684 184.878C211.337 187.831 214.037 191.016 214.784 194.434C215.541 197.887 214.498 202.076 211.655 206.999C209.645 210.481 207.576 213.013 205.451 214.595C203.334 216.212 201.012 216.956 198.484 216.828C195.956 216.699 193.068 215.785 189.82 214.087C189.275 213.802 188.769 213.525 188.303 213.256C187.847 213.022 187.408 212.784 186.987 212.541C186.587 212.31 186.184 212.062 185.775 211.797C185.354 211.553 184.905 211.28 184.43 210.976C182.02 209.466 180.155 207.753 178.835 205.838C177.538 203.936 176.647 201.869 176.161 199.637C175.676 197.405 175.473 195.041 175.554 192.544L175.805 185.503C175.842 184.312 175.604 183.213 175.091 182.207C174.587 181.236 173.966 180.39 173.229 179.669C172.492 178.948 171.802 178.402 171.159 178.03L168.964 176.762L158.476 194.927L149.694 189.856L166.058 161.512Z" fill="white"/>
</g>
<path d="M124.757 125.578V74.2561H120.147L119.84 70.1841L127.215 64.1146H136.742V125.578H124.757Z" fill="white"/>
<defs>
<filter id="filter0_f_112_5831" x="-46.7227" y="-41.8731" width="348.525" height="385.006" filterUnits="userSpaceOnUse" color-interpolation-filters="sRGB">
<feFlood flood-opacity="0" result="BackgroundImageFix"/>
<feBlend mode="normal" in="SourceGraphic" in2="BackgroundImageFix" result="shape"/>
<feGaussianBlur stdDeviation="10" result="effect1_foregroundBlur_112_5831"/>
</filter>
<clipPath id="clip0_112_5831">
<rect width="70" height="70" fill="white" transform="translate(58 239.622) rotate(-120)"/>
</clipPath>
<clipPath id="clip1_112_5831">
<rect width="70" height="70" fill="white" transform="translate(232.621 179) rotate(120)"/>
</clipPath>
</defs>
</svg>
