<svg width="256" height="256" viewBox="0 0 256 256" fill="none" xmlns="http://www.w3.org/2000/svg">
<metadata>
  <rdf:RDF xmlns:rdf="http://www.w3.org/1999/02/22-rdf-syntax-ns#"
            xmlns:dc="http://purl.org/dc/elements/1.1/">
    <rdf:Description>
      <dc:title>swrpg-online.com art asset</dc:title>
      <dc:creator>Joshua Ziggas</dc:creator>
      <dc:rights>CC BY-NC-SA 4.0 - https://github.com/swrpg-online/art</dc:rights>
    </rdf:Description>
  </rdf:RDF>
</metadata>
<desc>
  wrpg-online.com SWRPG Dice Asset
  Created by: Joshua Ziggas
  Source: https://github.com/swrpg-online/art
  License: CC BY-NC-SA 4.0
</desc><mask id="mask0_112_5873" style="mask-type:alpha" maskUnits="userSpaceOnUse" x="10" y="0" width="237" height="256">
<path d="M100.601 7.4368C117.775 -2.47893 138.935 -2.47893 156.11 7.4368L218.819 43.6421C235.994 53.5579 246.574 71.8829 246.574 91.7144V164.125C246.574 183.956 235.994 202.281 218.819 212.197L156.11 248.403C138.935 258.318 117.775 258.318 100.601 248.403L37.8912 212.197C20.7167 202.281 10.1367 183.956 10.1367 164.125V91.7144C10.1367 71.8829 20.7167 53.5578 37.8912 43.6421L100.601 7.4368Z" fill="black"/>
</mask>
<g mask="url(#mask0_112_5873)">
<rect width="256" height="256" fill="#C8625C"/>
<mask id="mask1_112_5873" style="mask-type:alpha" maskUnits="userSpaceOnUse" x="10" y="0" width="237" height="256">
<path d="M100.601 7.4368C117.775 -2.47893 138.935 -2.47893 156.11 7.4368L218.819 43.6421C235.994 53.5579 246.574 71.8829 246.574 91.7144V164.125C246.574 183.956 235.994 202.281 218.819 212.197L156.11 248.403C138.935 258.318 117.775 258.318 100.601 248.403L37.8912 212.197C20.7167 202.281 10.1367 183.956 10.1367 164.125V91.7144C10.1367 71.8829 20.7167 53.5578 37.8912 43.6421L100.601 7.4368Z" fill="#9B46E0"/>
</mask>
<g mask="url(#mask1_112_5873)">
<g filter="url(#filter0_f_112_5873)">
<mask id="mask2_112_5873" style="mask-type:alpha" maskUnits="userSpaceOnUse" x="-1" y="-13" width="259" height="280">
<path fill-rule="evenodd" clip-rule="evenodd" d="M158.903 -4.86089C140.09 -15.713 116.91 -15.713 98.0969 -4.86089L29.4031 34.7635C10.5896 45.6157 -1 65.6713 -1 87.3756V166.624C-1 188.329 10.5896 208.384 29.4031 219.236L98.0969 258.861C116.91 269.713 140.09 269.713 158.903 258.861L227.597 219.236C246.41 208.384 258 188.329 258 166.624V87.3756C258 65.6713 246.41 45.6157 227.597 34.7635L158.903 -4.86089ZM110.206 232.99C118.273 246.962 138.439 246.962 146.506 232.99L228.425 91.1025C236.491 77.1308 226.408 59.6662 210.275 59.6662L46.437 59.6662C30.3039 59.6662 20.2207 77.1308 28.2873 91.1025L110.206 232.99Z" fill="#9B46E0"/>
</mask>
<g mask="url(#mask2_112_5873)">
<path d="M151.281 -6.49614C140.934 -12.5013 115.066 -12.5013 104.719 -6.49615L-0.358358 54.4884C-10.7053 60.4936 2.22836 68 22.9223 68L233.078 68C253.772 68 266.705 60.4936 256.358 54.4884L151.281 -6.49614Z" fill="black" fill-opacity="0.25"/>
<path d="M233.109 214.558C243.28 208.689 255.99 186.674 255.987 174.931L255.954 55.6754C255.951 43.9324 243.237 51.2683 233.068 68.8801L129.806 247.735C119.638 265.347 119.642 280.026 129.814 274.157L233.109 214.558Z" fill="black" fill-opacity="0.5"/>
<path d="M22.4338 216.016C11.9133 209.946 -1.233 187.176 -1.22964 175.03L-1.19553 51.6826C-1.19217 39.5366 11.9583 47.1242 22.4754 65.3403L129.28 250.332C139.797 268.548 139.793 283.73 129.273 277.66L22.4338 216.016Z" fill="black" fill-opacity="0.35"/>
</g>
</g>
</g>
</g>
<path d="M128.037 179.3C118.277 179.3 111.27 177.361 107.016 173.482C102.762 169.603 100.593 163.159 100.51 154.15C100.468 147.102 100.427 140.637 100.385 134.757C100.343 128.876 100.322 123.662 100.322 119.116C100.322 114.57 100.343 110.837 100.385 107.918C100.427 104.957 100.468 102.892 100.51 101.724C100.885 93.2161 103.429 86.9182 108.142 82.8309C112.897 78.7436 119.487 76.7 127.912 76.7C136.67 76.7 143.364 78.8687 147.994 83.2063C152.623 87.5439 155.063 93.3829 155.313 100.723C155.355 101.599 155.376 102.371 155.376 103.038C155.418 103.705 155.418 104.456 155.376 105.29C155.376 106.124 155.355 107.23 155.313 108.606H136.295C136.42 107.271 136.483 106.187 136.483 105.353C136.524 104.477 136.524 103.539 136.483 102.538C136.441 101.495 136.378 100.056 136.295 98.2209C136.253 96.3441 135.565 94.8426 134.23 93.7165C132.937 92.5487 130.873 91.9648 128.037 91.9648C125.284 91.9648 123.22 92.507 121.843 93.5914C120.467 94.6758 119.737 96.219 119.654 98.2209C119.528 101.599 119.403 105.332 119.278 109.419C119.195 113.465 119.153 117.74 119.153 122.244H122.531C123.741 120.159 125.639 118.428 128.224 117.052C130.852 115.675 133.876 114.987 137.296 114.987C144.386 114.987 149.245 116.656 151.873 119.992C154.542 123.287 155.939 128.792 156.064 136.508C156.106 139.136 156.127 141.305 156.127 143.015C156.168 144.725 156.168 146.414 156.127 148.082C156.127 149.709 156.064 151.731 155.939 154.15C155.438 163.159 153.082 169.603 148.87 173.482C144.699 177.361 137.755 179.3 128.037 179.3ZM128.162 164.035C130.998 164.035 133.125 163.493 134.543 162.408C136.003 161.282 136.754 159.698 136.795 157.654C136.879 155.443 136.941 153.441 136.983 151.648C137.025 149.813 137.066 148.082 137.108 146.455C137.15 144.829 137.171 143.244 137.171 141.701C137.171 140.158 137.129 138.594 137.046 137.009C137.004 134.882 136.191 133.276 134.606 132.192C133.063 131.065 131.04 130.502 128.537 130.502C125.743 130.502 123.491 131.045 121.781 132.129C120.112 133.213 119.237 134.757 119.153 136.758C119.153 140.137 119.174 143.557 119.216 147.018C119.299 150.48 119.403 153.942 119.528 157.404C119.612 159.531 120.383 161.178 121.843 162.346C123.303 163.472 125.409 164.035 128.162 164.035Z" fill="white"/>
<g filter="url(#filter1_f_112_5873)">
<path d="M46.1411 88.8367C46.1411 104.243 68.7979 141.325 80.1263 157.94C73.8012 149.255 59.5086 128.883 52.9382 116.874C44.7251 101.864 31.6974 80.6236 39.6273 72.6938C45.9712 66.3499 71.7244 64.7639 83.808 64.7639H148.38C174.152 64.7639 195.204 71.3721 202.19 74.6762C202.19 74.6762 171.32 69.0121 148.38 69.0121H83.808C69.0811 69.0121 46.1411 69.5785 46.1411 88.8367Z" fill="url(#paint0_radial_112_5873)"/>
</g>
<defs>
<filter id="filter0_f_112_5873" x="-13" y="-23" width="283" height="302" filterUnits="userSpaceOnUse" color-interpolation-filters="sRGB">
<feFlood flood-opacity="0" result="BackgroundImageFix"/>
<feBlend mode="normal" in="SourceGraphic" in2="BackgroundImageFix" result="shape"/>
<feGaussianBlur stdDeviation="6" result="effect1_foregroundBlur_112_5873"/>
</filter>
<filter id="filter1_f_112_5873" x="31.4979" y="59.0997" width="176.356" height="104.504" filterUnits="userSpaceOnUse" color-interpolation-filters="sRGB">
<feFlood flood-opacity="0" result="BackgroundImageFix"/>
<feBlend mode="normal" in="SourceGraphic" in2="BackgroundImageFix" result="shape"/>
<feGaussianBlur stdDeviation="2.83209" result="effect1_foregroundBlur_112_5873"/>
</filter>
<radialGradient id="paint0_radial_112_5873" cx="0" cy="0" r="1" gradientUnits="userSpaceOnUse" gradientTransform="translate(37.1621 71.5609) rotate(34.3188) scale(171.795 304.273)">
<stop stop-color="white"/>
<stop offset="1" stop-color="white" stop-opacity="0"/>
</radialGradient>
</defs>
</svg>
